<?xml version="1.0" encoding="UTF-8" standalone="no"?>
<!DOCTYPE svg PUBLIC "-//W3C//DTD SVG 1.1//EN" "http://www.w3.org/Graphics/SVG/1.1/DTD/svg11.dtd">
<!-- 由 Microsoft Visio, SVG Export 生成 memblock_isolate_range.svg 页-1 -->
<svg xmlns="http://www.w3.org/2000/svg" xmlns:xlink="http://www.w3.org/1999/xlink" xmlns:ev="http://www.w3.org/2001/xml-events"
		width="7.85623in" height="7.71645in" viewBox="0 0 565.649 555.585" xml:space="preserve" color-interpolation-filters="sRGB"
		class="st33">
	<style type="text/css">
	<![CDATA[
		.st1 {visibility:visible}
		.st2 {fill:#5b9bd5;fill-opacity:0.22;filter:url(#filter_2);stroke:#5b9bd5;stroke-opacity:0.22}
		.st3 {fill:url(#grad0-9);stroke:#000000;stroke-width:0.25}
		.st4 {fill:#48d9fd;font-family:宋体;font-size:0.75em}
		.st5 {font-family:Times New Roman;font-size:1em}
		.st6 {fill:#5b9bd5;fill-opacity:0.25;filter:url(#filter_2);stroke:#5b9bd5;stroke-opacity:0.25}
		.st7 {fill:#a5a5a5;stroke:#48d9fd;stroke-width:0.75}
		.st8 {fill:#000000;font-family:Times New Roman;font-size:0.916672em}
		.st9 {fill:none;filter:url(#filter_2);stroke:#5b9bd5;stroke-opacity:0.25}
		.st10 {fill:#5b9bd5;filter:url(#filter_2);font-family:Times New Roman;font-size:0.916672em;opacity:0.247059}
		.st11 {font-family:宋体;font-size:1em}
		.st12 {fill:none;stroke:#000000;stroke-width:0.5}
		.st13 {fill:#ffffff;stroke:#000000;stroke-width:0.5}
		.st14 {fill:#5b9bd5;fill-opacity:0.25;stroke:#5b9bd5;stroke-opacity:0.25;stroke-width:0.16556291390728}
		.st15 {fill:#000000;fill-opacity:1;stroke:#000000;stroke-opacity:1;stroke-width:0.16556291390728}
		.st16 {fill:#000000;font-family:黑体;font-size:0.916672em}
		.st17 {fill:none;filter:url(#filter_2);marker-end:url(#mrkr5-59);stroke:#5b9bd5;stroke-opacity:0.25}
		.st18 {fill:none;marker-end:url(#mrkr5-63);stroke:#000000;stroke-width:0.5}
		.st19 {fill:#a5a5a5;stroke:#000000;stroke-width:0.75}
		.st20 {fill:#5b9bd5;filter:url(#filter_2);font-family:宋体;font-size:0.916672em;opacity:0.247059}
		.st21 {fill:#000000;font-family:宋体;font-size:0.916672em}
		.st22 {marker-end:url(#mrkr5-63);stroke:#000000;stroke-linecap:round;stroke-linejoin:round;stroke-width:0.5}
		.st23 {fill:none;marker-end:url(#mrkr5-63);stroke:none;stroke-width:0.5}
		.st24 {fill:#000000;font-family:Times New Roman;font-size:0.916672em;font-weight:bold}
		.st25 {fill:none;stroke:none;stroke-width:0.25}
		.st26 {fill:#000000;font-family:Times New Roman;font-size:0.75em}
		.st27 {fill:#a5a5a5;stroke:#000000;stroke-width:0.25}
		.st28 {fill:#d8d8d8;stroke:#000000;stroke-width:0.25}
		.st29 {stroke:#000000;stroke-dasharray:3.5,2.5;stroke-linecap:round;stroke-linejoin:round;stroke-width:0.5}
		.st30 {fill:none;filter:url(#filter_2);stroke:#5b9bd5;stroke-dasharray:1.75,1.25;stroke-opacity:0.22}
		.st31 {fill:none;stroke:#000000;stroke-dasharray:1.75,1.25;stroke-width:0.25}
		.st32 {fill:#595959;stroke:#000000;stroke-width:0.25}
		.st33 {fill:none;fill-rule:evenodd;font-size:12px;overflow:visible;stroke-linecap:square;stroke-miterlimit:3}
	]]>
	</style>

	<defs id="Patterns_And_Gradients">
		<linearGradient id="grad0-9" x1="0" y1="0" x2="1" y2="0" gradientTransform="rotate(90 0.5 0.5)">
			<stop offset="0" stop-color="#f2f2f2" stop-opacity="1"/>
			<stop offset="0.74" stop-color="#d8d8d8" stop-opacity="1"/>
			<stop offset="0.83" stop-color="#d8d8d8" stop-opacity="1"/>
			<stop offset="1" stop-color="#d8d8d8" stop-opacity="1"/>
		</linearGradient>
	</defs>
	<defs id="Markers">
		<g id="lend5">
			<path d="M 2 1 L 0 0 L 1.98117 -0.993387 C 1.67173 -0.364514 1.67301 0.372642 1.98465 1.00043 " style="stroke:none"/>
		</g>
		<marker id="mrkr5-59" class="st14" refX="-10.57" orient="auto" markerUnits="strokeWidth" overflow="visible">
			<use xlink:href="#lend5" transform="scale(-6.04,-6.04) "/>
		</marker>
		<marker id="mrkr5-63" class="st15" refX="-10.57" orient="auto" markerUnits="strokeWidth" overflow="visible">
			<use xlink:href="#lend5" transform="scale(-6.04,-6.04) "/>
		</marker>
	</defs>
	<defs id="Filters">
		<filter id="filter_2">
			<feGaussianBlur stdDeviation="2"/>
		</filter>
	</defs>
	<g>
		<title>页-1</title>
		<g id="group181-1" transform="translate(6.92088,-10.3206)">
			<title>工作表.181</title>
			<g id="group71-2">
				<title>工作表.71</title>
				<g id="shape44-3" transform="translate(0,-41.1024)">
					<title>流程.8</title>
					<desc>循环次数最多为memblock的区间数量</desc>
					<g id="shadow44-4" transform="matrix(1,0,0,1,0.345598,1.97279)" class="st1">
						<rect x="0" y="181.952" width="320.315" height="373.632" class="st2"/>
					</g>
					<rect x="0" y="181.952" width="320.315" height="373.632" class="st3"/>
					<text x="2" y="192.84" class="st4">循环次数最多为<tspan class="st5">memblock</tspan>的区间数量</text>				</g>
				<g id="shape5-12" transform="translate(39.3307,-522.992)">
					<title>开始/结束</title>
					<desc>memblock_isolate_range</desc>
					<g id="shadow5-13" transform="matrix(1,0,0,1,0.345598,1.97279)" class="st1">
						<path d="M9.92 555.58 L117.64 555.58 A9.92126 9.92126 -180 0 0 117.64 535.74 L9.92 535.74 A9.92126 9.92126
									 -180 1 0 9.92 555.58 Z" class="st6"/>
					</g>
					<path d="M9.92 555.58 L117.64 555.58 A9.92126 9.92126 -180 0 0 117.64 535.74 L9.92 535.74 A9.92126 9.92126 -180
								 1 0 9.92 555.58 Z" class="st7"/>
					<text x="8.49" y="548.96" class="st8">memblock_isolate_range</text>				</g>
				<g id="shape6-18" transform="translate(18.0709,-489.853)">
					<title>流程</title>
					<desc>end = base + 可能调整过的size</desc>
					<g id="shadow6-19" transform="matrix(1,0,0,1,0.345598,1.97279)" class="st1">
						<rect x="0" y="535.742" width="170.079" height="19.8425" class="st9"/>
						<text x="14.07" y="549.28" class="st10">end = base + <tspan class="st11">可能调整过的</tspan>size</text>					</g>
					<rect x="0" y="535.742" width="170.079" height="19.8425" class="st12"/>
					<text x="14.07" y="549.28" class="st8">end = base + <tspan class="st11">可能调整过的</tspan>size</text>				</g>
				<g id="group9-28" transform="translate(1.41732,-428.908)">
					<title>工作表.9</title>
					<g id="shape8-29">
						<title>流程.8</title>
						<desc>循环memblock_type.cnt + 2 &#62; memblock_type.max</desc>
						<g id="shadow8-30" transform="matrix(1,0,0,1,0.345598,1.97279)" class="st1">
							<rect x="0" y="508.813" width="203.386" height="46.7717" class="st2"/>
						</g>
						<rect x="0" y="508.813" width="203.386" height="46.7717" class="st3"/>
						<text x="2" y="519.7" class="st4">循环：<tspan class="st5">memblock</tspan><tspan class="st5">_</tspan><tspan
									class="st5">type</tspan><tspan class="st5">.</tspan><tspan class="st5">cnt </tspan><tspan
									class="st5">+ </tspan><tspan class="st5">2 </tspan><tspan class="st5">&#62; </tspan><tspan
									class="st5">memblock</tspan><tspan class="st5">_</tspan><tspan class="st5">type</tspan><tspan
									class="st5">.</tspan><tspan class="st5">max</tspan></text>					</g>
					<g id="shape7-49" transform="translate(30.8268,-6.37795)">
						<title>流程.7</title>
						<desc>memblock_double_array</desc>
						<g id="shadow7-50" transform="matrix(1,0,0,1,0.345598,1.97279)" class="st1">
							<rect x="0" y="535.742" width="141.732" height="19.8425" class="st6"/>
						</g>
						<rect x="0" y="535.742" width="141.732" height="19.8425" class="st13"/>
						<text x="15.88" y="548.96" class="st8">memblock_double_array</text>					</g>
				</g>
				<g id="shape10-55" transform="translate(54.5669,-350.209)">
					<title>判定</title>
					<desc>rbase &#62;= end</desc>
					<g id="shadow10-56" transform="matrix(1,0,0,1,0.345598,1.97279)" class="st1">
						<path d="M0 541.41 L48.54 527.24 L97.09 541.41 L48.54 555.58 L0 541.41 Z" class="st6"/>
					</g>
					<path d="M0 541.41 L48.54 527.24 L97.09 541.41 L48.54 555.58 L0 541.41 Z" class="st13"/>
					<text x="20.04" y="544.71" class="st8">rbase &#62;= end</text>				</g>
				<g id="shape11-65" transform="translate(54.5669,-308.025)">
					<title>判定.11</title>
					<desc>rend &#60;= base</desc>
					<g id="shadow11-66" transform="matrix(1,0,0,1,0.345598,1.97279)" class="st1">
						<path d="M0 541.41 L48.54 527.24 L97.09 541.41 L48.54 555.58 L0 541.41 Z" class="st6"/>
					</g>
					<path d="M0 541.41 L48.54 527.24 L97.09 541.41 L48.54 555.58 L0 541.41 Z" class="st13"/>
					<text x="20.04" y="544.71" class="st8">rend &#60;= base</text>				</g>
				<g id="shape12-73" transform="translate(54.5669,-265.841)">
					<title>判定.12</title>
					<desc>rbase &#60; base</desc>
					<g id="shadow12-74" transform="matrix(1,0,0,1,0.345598,1.97279)" class="st1">
						<path d="M0 541.41 L48.54 527.24 L97.09 541.41 L48.54 555.58 L0 541.41 Z" class="st6"/>
					</g>
					<path d="M0 541.41 L48.54 527.24 L97.09 541.41 L48.54 555.58 L0 541.41 Z" class="st13"/>
					<text x="21.31" y="544.71" class="st8">rbase &#60; base</text>				</g>
				<g id="shape13-81" transform="translate(54.5669,-190.089)">
					<title>判定.13</title>
					<desc>rend &#62; end</desc>
					<g id="shadow13-82" transform="matrix(1,0,0,1,0.345598,1.97279)" class="st1">
						<path d="M0 541.41 L48.54 527.24 L97.09 541.41 L48.54 555.58 L0 541.41 Z" class="st6"/>
					</g>
					<path d="M0 541.41 L48.54 527.24 L97.09 541.41 L48.54 555.58 L0 541.41 Z" class="st13"/>
					<text x="24.98" y="544.71" class="st8">rend &#62; end</text>				</g>
				<g id="shape15-89" transform="translate(54.5669,-102.924)">
					<title>判定.15</title>
					<desc>首次更新 end_rgn</desc>
					<g id="shadow15-90" transform="matrix(1,0,0,1,0.345598,1.97279)" class="st1">
						<path d="M0 532.2 L48.54 508.81 L97.09 532.2 L48.54 555.58 L0 532.2 Z" class="st6"/>
					</g>
					<path d="M0 532.2 L48.54 508.81 L97.09 532.2 L48.54 555.58 L0 532.2 Z" class="st13"/>
					<text x="26.54" y="529.22" class="st16">首次更新 <tspan x="30.52" dy="1.229em" class="st5">end</tspan><tspan
								class="st5">_</tspan><tspan class="st5">rgn</tspan></text>				</g>
				<g id="shape16-100" transform="translate(54.5669,-54.7348)">
					<title>流程.16</title>
					<desc>*end_rgn = idx +1</desc>
					<g id="shadow16-101" transform="matrix(1,0,0,1,0.345598,1.97279)" class="st1">
						<rect x="0" y="535.742" width="97.0866" height="19.8425" class="st17"/>
						<text x="7.66" y="548.96" class="st10">*end_rgn = idx +1</text>					</g>
					<rect x="0" y="535.742" width="97.0866" height="19.8425" class="st18"/>
					<text x="7.66" y="548.96" class="st8">*end_rgn = idx +1</text>				</g>
				<g id="shape17-110" transform="translate(77.5984,0)">
					<title>开始/结束.17</title>
					<desc>return</desc>
					<g id="shadow17-111" transform="matrix(1,0,0,1,0.345598,1.97279)" class="st1">
						<path d="M9.92 555.58 L41.1 555.58 A9.92126 9.92126 -180 0 0 41.1 535.74 L9.92 535.74 A9.92126 9.92126 -180
									 1 0 9.92 555.58 Z" class="st6"/>
					</g>
					<path d="M9.92 555.58 L41.1 555.58 A9.92126 9.92126 -180 0 0 41.1 535.74 L9.92 535.74 A9.92126 9.92126 -180 1
								 0 9.92 555.58 Z" class="st19"/>
					<text x="12.38" y="548.96" class="st8">return</text>				</g>
				<g id="shape18-116" transform="translate(172.736,-250.866)">
					<title>流程.18</title>
					<desc>修改区间的base和size</desc>
					<g id="shadow18-117" transform="matrix(1,0,0,1,0.345598,1.97279)" class="st1">
						<rect x="0" y="535.742" width="122.244" height="19.8425" class="st17"/>
						<text x="9.8" y="549.28" class="st20">修改区间的<tspan class="st5">base</tspan>和<tspan class="st5">size</tspan></text>					</g>
					<rect x="0" y="535.742" width="122.244" height="19.8425" class="st18"/>
					<text x="9.8" y="549.28" class="st21">修改区间的<tspan class="st5">base</tspan>和<tspan class="st5">size</tspan></text>				</g>
				<g id="shape19-130" transform="translate(172.736,-219.685)">
					<title>流程.19</title>
					<desc>memblock_insert_region</desc>
					<g id="shadow19-131" transform="matrix(1,0,0,1,0.345598,1.97279)" class="st1">
						<rect x="0" y="535.742" width="122.244" height="19.8425" class="st17"/>
						<text x="6.14" y="548.96" class="st10">memblock_insert_region</text>					</g>
					<rect x="0" y="535.742" width="122.244" height="19.8425" class="st18"/>
					<text x="6.14" y="548.96" class="st8">memblock_insert_region</text>				</g>
				<g id="shape20-140" transform="translate(172.913,-171.664)">
					<title>流程.20</title>
					<desc>修改区间的base和size</desc>
					<g id="shadow20-141" transform="matrix(1,0,0,1,0.345598,1.97279)" class="st1">
						<rect x="0" y="535.742" width="122.244" height="19.8425" class="st17"/>
						<text x="9.8" y="549.28" class="st20">修改区间的<tspan class="st5">base</tspan>和<tspan class="st5">size</tspan></text>					</g>
					<rect x="0" y="535.742" width="122.244" height="19.8425" class="st18"/>
					<text x="9.8" y="549.28" class="st21">修改区间的<tspan class="st5">base</tspan>和<tspan class="st5">size</tspan></text>				</g>
				<g id="shape21-154" transform="translate(172.913,-140.483)">
					<title>流程.21</title>
					<desc>memblock_insert_region</desc>
					<g id="shadow21-155" transform="matrix(1,0,0,1,0.345598,1.97279)" class="st1">
						<rect x="0" y="535.742" width="122.244" height="19.8425" class="st17"/>
						<text x="6.14" y="548.96" class="st10">memblock_insert_region</text>					</g>
					<rect x="0" y="535.742" width="122.244" height="19.8425" class="st18"/>
					<text x="6.14" y="548.96" class="st8">memblock_insert_region</text>				</g>
				<g id="shape22-164" transform="translate(172.913,-94.4198)">
					<title>流程.22</title>
					<desc>*start_rgn = idx</desc>
					<g id="shadow22-165" transform="matrix(1,0,0,1,0.345598,1.97279)" class="st1">
						<rect x="0" y="535.742" width="97.0866" height="19.8425" class="st17"/>
						<text x="13.36" y="548.96" class="st10">*start_rgn = idx</text>					</g>
					<rect x="0" y="535.742" width="97.0866" height="19.8425" class="st18"/>
					<text x="13.36" y="548.96" class="st8">*start_rgn = idx</text>				</g>
				<g id="shape23-174" transform="translate(-452.474,32.5925) rotate(-90) scale(-1,1)">
					<title>直线连接线</title>
					<path d="M0 555.58 L8.01 555.58" class="st22"/>
				</g>
				<g id="shape24-179" transform="translate(-452.474,65.7318) rotate(-90) scale(-1,1)">
					<title>直线连接线.24</title>
					<path d="M0 555.58 L8.89 555.58" class="st22"/>
				</g>
				<g id="shape25-184" transform="translate(-452.474,126.677) rotate(-90) scale(-1,1)">
					<title>直线连接线.25</title>
					<path d="M0 555.58 L45.07 555.58" class="st22"/>
				</g>
				<g id="shape26-189" transform="translate(-452.474,205.375) rotate(-90) scale(-1,1)">
					<title>直线连接线.26</title>
					<path d="M0 555.58 L8.55 555.58" class="st22"/>
				</g>
				<g id="shape27-194" transform="translate(-452.474,247.559) rotate(-90) scale(-1,1)">
					<title>直线连接线.27</title>
					<path d="M0 555.58 L8.55 555.58" class="st22"/>
				</g>
				<g id="shape28-199" transform="translate(151.654,831.155) scale(1,-1)">
					<title>侧边到顶部/底部</title>
					<path d="M0 555.58 L82.2 555.58 L82.2 551.56" class="st22"/>
				</g>
				<g id="shape29-204" transform="translate(-321.726,304.719) rotate(-90) scale(-1,1)">
					<title>直线连接线.29</title>
					<path d="M0 555.58 L6.05 555.58" class="st22"/>
				</g>
				<g id="shape30-209" transform="translate(-452.474,289.743) rotate(-90) scale(-1,1)">
					<title>直线连接线.30</title>
					<path d="M0 555.58 L42.12 555.58" class="st22"/>
				</g>
				<g id="shape31-214" transform="translate(151.654,906.907) scale(1,-1)">
					<title>侧边到顶部/底部.31</title>
					<path d="M0 555.58 L82.38 555.58 L82.38 548.11" class="st22"/>
				</g>
				<g id="shape32-219" transform="translate(-321.549,383.921) rotate(-90) scale(-1,1)">
					<title>直线连接线.32</title>
					<path d="M0 555.58 L6.05 555.58" class="st22"/>
				</g>
				<g id="shape33-224" transform="translate(-452.474,365.496) rotate(-90) scale(-1,1)">
					<title>直线连接线.33</title>
					<path d="M0 555.58 L35.11 555.58" class="st22"/>
				</g>
				<g id="shape34-229" transform="translate(151.654,984.86) scale(1,-1)">
					<title>侧边到顶部/底部.34</title>
					<path d="M0 555.58 L69.8 555.58 L69.8 548.82" class="st22"/>
				</g>
				<g id="shape35-234" transform="translate(-452.474,452.661) rotate(-90) scale(-1,1)">
					<title>直线连接线.35</title>
					<path d="M0 555.58 L23.06 555.58" class="st22"/>
				</g>
				<g id="shape37-239" transform="translate(221.457,1016.75) rotate(180)">
					<title>顶部/底部到侧边</title>
					<path d="M0 555.58 L0 548.78 L113.06 548.78" class="st22"/>
				</g>
				<g id="shape38-244" transform="translate(-452.474,500.85) rotate(-90) scale(-1,1)">
					<title>直线连接线.38</title>
					<path d="M0 555.58 L29.61 555.58" class="st22"/>
				</g>
				<g id="shape41-249" transform="translate(54.5669,746.787) scale(1,-1)">
					<title>侧面</title>
					<path d="M0 555.58 L-34.72 555.58 L-34.72 223.8 L43.26 223.8" class="st22"/>
				</g>
				<g id="shape42-254" transform="translate(103.11,-322.199)">
					<title>侧面.42</title>
					<path d="M48.54 555.58 L76.89 555.58 L76.89 482.89 L5.29 482.89" class="st22"/>
				</g>
				<g id="shape49-259" transform="translate(125.843,-370.113)">
					<title>工作表.49</title>
					<desc>(A)</desc>
					<rect x="0" y="543.496" width="24.6772" height="12.0891" class="st23"/>
					<text x="4.7" y="552.84" class="st24">(A)</text>				</g>
				<g id="shape51-263" transform="translate(125.709,-327.969)">
					<title>工作表.51</title>
					<desc>(B)</desc>
					<rect x="0" y="543.496" width="24.6772" height="12.0891" class="st23"/>
					<text x="5.01" y="552.84" class="st24">(B)</text>				</g>
				<g id="shape52-267" transform="translate(126.343,-286.299)">
					<title>工作表.52</title>
					<desc>(C)</desc>
					<rect x="0" y="543.496" width="24.6772" height="12.0891" class="st23"/>
					<text x="4.7" y="552.84" class="st24">(C)</text>				</g>
				<g id="shape53-271" transform="translate(126.343,-210.431)">
					<title>工作表.53</title>
					<desc>(D)</desc>
					<rect x="0" y="543.496" width="24.6772" height="12.0891" class="st23"/>
					<text x="4.7" y="552.84" class="st24">(D)</text>				</g>
				<g id="shape54-275" transform="translate(79.7874,-175.541)">
					<title>工作表.54</title>
					<desc>(*)</desc>
					<rect x="0" y="543.496" width="20.8425" height="12.0891" class="st23"/>
					<text x="4.01" y="552.84" class="st24">(*)</text>				</g>
				<g id="shape55-279" transform="translate(132.874,0)">
					<title>工作表.55</title>
					<desc>(*): 如果当前区间不满足A到D的条件*end_rgn保存下一个区间的索引值但在一次更新时才会使*start_rgn保存...</desc>
					<rect x="0" y="517.317" width="197.362" height="38.2677" class="st25"/>
					<text x="4" y="530.2" class="st26">(*): <tspan class="st11">如果当前区间不满足</tspan>A<tspan class="st11">到</tspan>D<tspan
								class="st11">的条件</tspan><tspan class="st11">，</tspan>*end_rgn<tspan x="4" dy="1.229em" class="st11">保存下一个区间的索引值</tspan><tspan
								class="st11">，</tspan><tspan class="st11">但在一次更新时才会</tspan><tspan x="4" dy="1.287em" class="st11">使</tspan>*start_rgn<tspan
								class="st11">保存当前区间的索引值</tspan><tspan class="st11">。</tspan></text>				</g>
				<g id="shape68-292" transform="translate(295.475,-150.404)">
					<title>工作表.68</title>
					<path d="M0 555.58 L10.77 555.58" class="st22"/>
				</g>
				<g id="shape70-297" transform="translate(103.11,881.563) scale(1,-1)">
					<title>侧面.70</title>
					<path d="M191.87 555.58 L208.56 555.58 L208.56 374.31 L5.29 374.31" class="st22"/>
				</g>
			</g>
			<g id="group95-302" transform="translate(352.205,-433.843)">
				<title>工作表.95</title>
				<g id="shape72-303" transform="translate(39.2992,-38.126)">
					<title>流程.72</title>
					<desc>regions[1]</desc>
					<g id="shadow72-304" transform="matrix(1,0,0,1,0.345598,1.97279)" class="st1">
						<rect x="0" y="539.994" width="75.1181" height="15.5906" class="st2"/>
					</g>
					<rect x="0" y="539.994" width="75.1181" height="15.5906" class="st27"/>
					<text x="14.95" y="551.09" class="st8">regions[1]</text>				</g>
				<g id="shape73-309" transform="translate(77.5669,-6.94488)">
					<title>流程.73</title>
					<desc>isolate</desc>
					<g id="shadow73-310" transform="matrix(1,0,0,1,0.345598,1.97279)" class="st1">
						<rect x="0" y="539.994" width="75.1181" height="15.5906" class="st2"/>
					</g>
					<rect x="0" y="539.994" width="75.1181" height="15.5906" class="st28"/>
					<text x="23.2" y="551.09" class="st8">isolate</text>				</g>
				<g id="shape74-315" transform="translate(29.378,-37.9488)">
					<title>工作表.74</title>
					<path d="M0 555.58 L103.18 555.58" class="st29"/>
				</g>
				<g id="shape76-318" transform="translate(61.0812,-22.3937)">
					<title>工作表.76</title>
					<path d="M0 555.58 L100.67 555.58" class="st29"/>
				</g>
				<g id="shape77-321" transform="translate(159.386,-18.063)">
					<title>工作表.77</title>
					<desc>end</desc>
					<rect x="0" y="547.002" width="21.1811" height="8.58268" class="st25"/>
					<text x="4.09" y="553.99" class="st26">end</text>				</g>
				<g id="shape78-324" transform="translate(5.07874,-33.6929)">
					<title>工作表.78</title>
					<desc>rbase</desc>
					<rect x="0" y="547.002" width="27.1339" height="8.58268" class="st25"/>
					<text x="4.07" y="553.99" class="st26">rbase</text>				</g>
				<g id="shape79-327" transform="translate(656.396,519.585) rotate(90)">
					<title>普通双箭头.79</title>
					<g id="shadow79-328" transform="matrix(1,0,0,1,1.97279,-0.345598)" class="st1">
						<path d="M0 555.58 L2.55 552.75 L2.55 554.17 L10.06 554.17 L10.06 552.75 L12.62 555.58 L10.06 558.42 L10.06
									 557 L2.55 557 L2.55 558.42 L0 555.58 Z" class="st6"/>
					</g>
					<path d="M0 555.58 L2.55 552.75 L2.55 554.17 L10.06 554.17 L10.06 552.75 L12.62 555.58 L10.06 558.42 L10.06 557
								 L2.55 557 L2.55 558.42 L0 555.58 Z" class="st28"/>
				</g>
				<g id="shape80-332">
					<title>流程.80</title>
					<g id="shadow80-333" transform="matrix(1,0,0,1,0.345598,1.97279)" class="st1">
						<path d="M0 555.58 L199.46 555.58 L199.46 495.49 L0 495.49 L0 555.58 Z" class="st30"/>
					</g>
					<path d="M0 555.58 L199.46 555.58 L199.46 495.49 L0 495.49 L0 555.58 Z" class="st31"/>
				</g>
				<g id="shape81-337" transform="translate(-6.39488E-014,-60.0945)">
					<title>工作表.81</title>
					<desc>(A)请求区间位于当前区间之下且不重叠</desc>
					<rect x="0" y="539.994" width="199.457" height="15.5906" class="st25"/>
					<text x="4" y="551.41" class="st8">(A)<tspan class="st11">请求区间位于当前区间之下且不重叠</tspan></text>				</g>
			</g>
			<g id="group96-341" transform="translate(352.205,-347.669)">
				<title>工作表.96</title>
				<g id="shape86-342" transform="translate(39.4409,-7.65354)">
					<title>流程.2</title>
					<desc>regions[0]</desc>
					<g id="shadow86-343" transform="matrix(1,0,0,1,0.345598,1.97279)" class="st1">
						<rect x="0" y="539.994" width="75.1181" height="15.5906" class="st2"/>
					</g>
					<rect x="0" y="539.994" width="75.1181" height="15.5906" class="st27"/>
					<text x="14.95" y="551.09" class="st8">regions[0]</text>				</g>
				<g id="shape87-348" transform="translate(77.5669,-37.2756)">
					<title>流程.73</title>
					<desc>isolate</desc>
					<g id="shadow87-349" transform="matrix(1,0,0,1,0.345598,1.97279)" class="st1">
						<rect x="0" y="539.994" width="75.1181" height="15.5906" class="st2"/>
					</g>
					<rect x="0" y="539.994" width="75.1181" height="15.5906" class="st28"/>
					<text x="23.2" y="551.09" class="st8">isolate</text>				</g>
				<g id="shape88-354" transform="translate(25.126,-23.2441)">
					<title>工作表.88</title>
					<path d="M0 555.58 L97.8 555.58" class="st29"/>
				</g>
				<g id="shape89-357" transform="translate(64.811,-37.2126)">
					<title>工作表.89</title>
					<path d="M0 555.58 L103.46 555.58" class="st29"/>
				</g>
				<g id="shape90-360" transform="translate(164.63,-32.8819)">
					<title>工作表.90</title>
					<desc>base</desc>
					<rect x="0" y="547.002" width="27.1339" height="8.58268" class="st25"/>
					<text x="5.57" y="553.99" class="st26">base</text>				</g>
				<g id="shape91-363" transform="translate(2.24409,-18.9134)">
					<title>工作表.91</title>
					<desc>rend</desc>
					<rect x="0" y="547.002" width="27.1339" height="8.58268" class="st25"/>
					<text x="5.57" y="553.99" class="st26">rend</text>				</g>
				<g id="shape92-366" transform="translate(652.994,519.018) rotate(90)">
					<title>普通双箭头</title>
					<g id="shadow92-367" transform="matrix(1,0,0,1,1.97279,-0.345598)" class="st1">
						<path d="M0 555.58 L2.55 552.75 L2.55 554.17 L10.06 554.17 L10.06 552.75 L12.62 555.58 L10.06 558.42 L10.06
									 557 L2.55 557 L2.55 558.42 L0 555.58 Z" class="st6"/>
					</g>
					<path d="M0 555.58 L2.55 552.75 L2.55 554.17 L10.06 554.17 L10.06 552.75 L12.62 555.58 L10.06 558.42 L10.06 557
								 L2.55 557 L2.55 558.42 L0 555.58 Z" class="st28"/>
				</g>
				<g id="shape93-371">
					<title>流程</title>
					<g id="shadow93-372" transform="matrix(1,0,0,1,0.345598,1.97279)" class="st1">
						<path d="M0 555.58 L199.46 555.58 L199.46 495.49 L0 495.49 L0 555.58 Z" class="st30"/>
					</g>
					<path d="M0 555.58 L199.46 555.58 L199.46 495.49 L0 495.49 L0 555.58 Z" class="st31"/>
				</g>
				<g id="shape94-376" transform="translate(-6.39488E-014,-59.811)">
					<title>工作表.94</title>
					<desc>(B)请求区间位于当前区间之上且不重叠</desc>
					<rect x="0" y="539.994" width="199.457" height="15.5906" class="st25"/>
					<text x="4" y="551.41" class="st8">(B)<tspan class="st11">请求区间位于当前区间之上且不重叠</tspan></text>				</g>
			</g>
			<g id="shape98-380" transform="translate(391.646,-253.134)">
				<title>流程.2</title>
				<desc>regions[1]</desc>
				<g id="shadow98-381" transform="matrix(1,0,0,1,0.345598,1.97279)" class="st1">
					<rect x="0" y="501.726" width="75.1181" height="53.8583" class="st2"/>
				</g>
				<rect x="0" y="501.726" width="75.1181" height="53.8583" class="st27"/>
				<text x="14.95" y="531.96" class="st8">regions[1]</text>			</g>
			<g id="shape99-386" transform="translate(429.772,-287.575)">
				<title>流程.73</title>
				<desc>isolate</desc>
				<g id="shadow99-387" transform="matrix(1,0,0,1,0.345598,1.97279)" class="st1">
					<rect x="0" y="539.994" width="75.1181" height="15.5906" class="st2"/>
				</g>
				<rect x="0" y="539.994" width="75.1181" height="15.5906" class="st28"/>
				<text x="23.2" y="551.09" class="st8">isolate</text>			</g>
			<g id="shape100-392" transform="translate(381.583,-306.992)">
				<title>工作表.100</title>
				<path d="M0 555.58 L107.72 555.58" class="st29"/>
			</g>
			<g id="shape101-395" transform="translate(414.181,-287.717)">
				<title>工作表.101</title>
				<path d="M0 555.58 L103.46 555.58" class="st29"/>
			</g>
			<g id="shape102-398" transform="translate(515.701,-283.181)">
				<title>工作表.102</title>
				<desc>base</desc>
				<rect x="0" y="547.002" width="24.2992" height="8.58268" class="st25"/>
				<text x="4.15" y="553.99" class="st26">base</text>			</g>
			<g id="shape103-401" transform="translate(358.701,-302.661)">
				<title>工作表.103</title>
				<desc>rend</desc>
				<rect x="0" y="547.002" width="27.1339" height="8.58268" class="st25"/>
				<text x="5.57" y="553.99" class="st26">rend</text>			</g>
			<g id="shape104-404" transform="translate(1036.38,269.002) rotate(90)">
				<title>普通双箭头</title>
				<g id="shadow104-405" transform="matrix(1,0,0,1,1.97279,-0.345598)" class="st1">
					<path d="M0 555.58 L5.1 552.75 L5.1 554.17 L26.93 554.17 L26.93 552.75 L32.03 555.58 L26.93 558.42 L26.93 557
								 L5.1 557 L5.1 558.42 L0 555.58 Z" class="st6"/>
				</g>
				<path d="M0 555.58 L5.1 552.75 L5.1 554.17 L26.93 554.17 L26.93 552.75 L32.03 555.58 L26.93 558.42 L26.93 557 L5.1
							 557 L5.1 558.42 L0 555.58 Z" class="st32"/>
			</g>
			<g id="shape105-409" transform="translate(353.236,-247.465)">
				<title>流程</title>
				<g id="shadow105-410" transform="matrix(1,0,0,1,0.345598,1.97279)" class="st1">
					<path d="M0 555.58 L199.46 555.58 L199.46 490.1 L0 490.1 L0 555.58 Z" class="st30"/>
				</g>
				<path d="M0 555.58 L199.46 555.58 L199.46 490.1 L0 490.1 L0 555.58 Z" class="st31"/>
			</g>
			<g id="shape106-414" transform="translate(352.205,-312.661)">
				<title>工作表.106</title>
				<desc>(C)请求区间与当前区间重叠将rbase和base之间的子区间分离出</desc>
				<rect x="0" y="527.238" width="199.457" height="28.3465" class="st25"/>
				<text x="4" y="537.79" class="st8">(C)<tspan class="st11">请求区间与当前区间重叠</tspan><tspan class="st11">，</tspan><tspan
							class="st11">将</tspan>rbase<tspan x="4" dy="1.316em" class="st11">和</tspan>base<tspan class="st11">之间的子区间分离出</tspan></text>			</g>
			<g id="shape107-422" transform="translate(381.787,-253.173)">
				<title>工作表.107</title>
				<path d="M0 555.58 L107.72 555.58" class="st29"/>
			</g>
			<g id="shape108-425" transform="translate(357.283,-248.843)">
				<title>工作表.108</title>
				<desc>rbase</desc>
				<rect x="0" y="547.002" width="27.1339" height="8.58268" class="st25"/>
				<text x="4.07" y="553.99" class="st26">rbase</text>			</g>
			<g id="shape109-428" transform="translate(391.646,-219.827)">
				<title>流程.109</title>
				<desc>regions[2]</desc>
				<g id="shadow109-429" transform="matrix(1,0,0,1,0.345598,1.97279)" class="st1">
					<rect x="0" y="536.451" width="75.1181" height="19.1339" class="st2"/>
				</g>
				<rect x="0" y="536.451" width="75.1181" height="19.1339" class="st27"/>
				<text x="14.95" y="549.32" class="st8">regions[2]</text>			</g>
			<g id="shape110-434" transform="translate(429.063,-185.102)">
				<title>流程.110</title>
				<desc>regions[1]</desc>
				<g id="shadow110-435" transform="matrix(1,0,0,1,0.345598,1.97279)" class="st1">
					<rect x="0" y="520.86" width="75.1181" height="34.7244" class="st2"/>
				</g>
				<rect x="0" y="520.86" width="75.1181" height="34.7244" class="st32"/>
				<text x="14.95" y="541.52" class="st8">regions[1]</text>			</g>
			<g id="shape111-440" transform="translate(381.583,-238.961)">
				<title>工作表.111</title>
				<path d="M0 555.58 L107.72 555.58" class="st29"/>
			</g>
			<g id="shape112-443" transform="translate(384.417,-219.685)">
				<title>工作表.112</title>
				<path d="M0 555.58 L133.23 555.58" class="st29"/>
			</g>
			<g id="shape113-446" transform="translate(515.701,-215.15)">
				<title>工作表.113</title>
				<desc>base</desc>
				<rect x="0" y="547.002" width="24.2992" height="8.58268" class="st25"/>
				<text x="4.15" y="553.99" class="st26">base</text>			</g>
			<g id="shape114-449" transform="translate(358.701,-234.63)">
				<title>工作表.114</title>
				<desc>rend</desc>
				<rect x="0" y="547.002" width="27.1339" height="8.58268" class="st25"/>
				<text x="5.57" y="553.99" class="st26">rend</text>			</g>
			<g id="shape115-452" transform="translate(965.514,337.033) rotate(90)">
				<title>普通双箭头.115</title>
				<g id="shadow115-453" transform="matrix(1,0,0,1,1.97279,-0.345598)" class="st1">
					<path d="M0 555.58 L5.1 552.75 L5.1 554.17 L26.93 554.17 L26.93 552.75 L32.03 555.58 L26.93 558.42 L26.93 557
								 L5.1 557 L5.1 558.42 L0 555.58 Z" class="st6"/>
				</g>
				<path d="M0 555.58 L5.1 552.75 L5.1 554.17 L26.93 554.17 L26.93 552.75 L32.03 555.58 L26.93 558.42 L26.93 557 L5.1
							 557 L5.1 558.42 L0 555.58 Z" class="st32"/>
			</g>
			<g id="shape116-457" transform="translate(353.106,-179.15)">
				<title>流程.116</title>
				<g id="shadow116-458" transform="matrix(1,0,0,1,0.345598,1.97279)" class="st1">
					<path d="M0 555.58 L199.46 555.58 L199.46 490.1 L0 490.1 L0 555.58 Z" class="st30"/>
				</g>
				<path d="M0 555.58 L199.46 555.58 L199.46 490.1 L0 490.1 L0 555.58 Z" class="st31"/>
			</g>
			<g id="shape117-462" transform="translate(381.787,-185.142)">
				<title>工作表.117</title>
				<path d="M0 555.58 L134.44 555.58" class="st29"/>
			</g>
			<g id="shape118-465" transform="translate(357.283,-180.811)">
				<title>工作表.118</title>
				<desc>rbase</desc>
				<rect x="0" y="547.002" width="27.1339" height="8.58268" class="st25"/>
				<text x="4.07" y="553.99" class="st26">rbase</text>			</g>
			<g id="shape120-468" transform="translate(-18.0965,316.766) rotate(-90)">
				<title>普通箭头</title>
				<g id="shadow120-469" transform="matrix(1,0,0,1,-1.97279,0.345598)" class="st1">
					<path d="M0 555.58 L2.55 553.32 L2.55 554.45 L14.17 554.45 L14.17 555.58 L14.17 556.72 L2.55 556.72 L2.55 557.85
								 L0 555.58 Z" class="st6"/>
				</g>
				<path d="M0 555.58 L2.55 553.32 L2.55 554.45 L14.17 554.45 L14.17 555.58 L14.17 556.72 L2.55 556.72 L2.55 557.85
							 L0 555.58 Z" class="st27"/>
			</g>
			<g id="shape125-473" transform="translate(391.646,-82.9134)">
				<title>流程.125</title>
				<desc>regions[2]</desc>
				<g id="shadow125-474" transform="matrix(1,0,0,1,0.345598,1.97279)" class="st1">
					<rect x="0" y="501.726" width="75.1181" height="53.8583" class="st2"/>
				</g>
				<rect x="0" y="501.726" width="75.1181" height="53.8583" class="st27"/>
				<text x="14.95" y="531.96" class="st8">regions[2]</text>			</g>
			<g id="shape126-479" transform="translate(429.772,-85.8898)">
				<title>流程.126</title>
				<desc>isolate</desc>
				<g id="shadow126-480" transform="matrix(1,0,0,1,0.345598,1.97279)" class="st1">
					<rect x="0" y="539.994" width="75.1181" height="15.5906" class="st2"/>
				</g>
				<rect x="0" y="539.994" width="75.1181" height="15.5906" class="st28"/>
				<text x="23.2" y="551.09" class="st8">isolate</text>			</g>
			<g id="shape127-485" transform="translate(381.583,-136.772)">
				<title>工作表.127</title>
				<path d="M0 555.58 L107.72 555.58" class="st29"/>
			</g>
			<g id="shape128-488" transform="translate(415.598,-101.622)">
				<title>工作表.128</title>
				<path d="M0 555.58 L103.46 555.58" class="st29"/>
			</g>
			<g id="shape129-491" transform="translate(515.701,-97.2913)">
				<title>工作表.129</title>
				<desc>end</desc>
				<rect x="0" y="547.002" width="24.2992" height="8.58268" class="st25"/>
				<text x="5.65" y="553.99" class="st26">end</text>			</g>
			<g id="shape130-494" transform="translate(358.701,-132.441)">
				<title>工作表.130</title>
				<desc>rend</desc>
				<rect x="0" y="547.002" width="27.1339" height="8.58268" class="st25"/>
				<text x="5.57" y="553.99" class="st26">rend</text>			</g>
			<g id="shape131-497" transform="translate(1037.8,420.23) rotate(90)">
				<title>普通双箭头.131</title>
				<g id="shadow131-498" transform="matrix(1,0,0,1,1.97279,-0.345598)" class="st1">
					<path d="M0 555.58 L5.1 552.75 L5.1 554.17 L26.93 554.17 L26.93 552.75 L32.03 555.58 L26.93 558.42 L26.93 557
								 L5.1 557 L5.1 558.42 L0 555.58 Z" class="st6"/>
				</g>
				<path d="M0 555.58 L5.1 552.75 L5.1 554.17 L26.93 554.17 L26.93 552.75 L32.03 555.58 L26.93 558.42 L26.93 557 L5.1
							 557 L5.1 558.42 L0 555.58 Z" class="st32"/>
			</g>
			<g id="shape132-502" transform="translate(353.236,-77.2441)">
				<title>流程.132</title>
				<g id="shadow132-503" transform="matrix(1,0,0,1,0.345598,1.97279)" class="st1">
					<path d="M0 555.58 L199.46 555.58 L199.46 490.1 L0 490.1 L0 555.58 Z" class="st30"/>
				</g>
				<path d="M0 555.58 L199.46 555.58 L199.46 490.1 L0 490.1 L0 555.58 Z" class="st31"/>
			</g>
			<g id="shape133-507" transform="translate(352.205,-142.441)">
				<title>工作表.133</title>
				<desc>(D)请求区间与当前区间重叠将rbase和end之间的子区间分离出</desc>
				<rect x="0" y="527.238" width="199.457" height="28.3465" class="st25"/>
				<text x="4" y="537.79" class="st8">(D)<tspan class="st11">请求区间与当前区间重叠</tspan><tspan class="st11">，</tspan><tspan
							class="st11">将</tspan>rbase<tspan x="4" dy="1.316em" class="st11">和</tspan>end<tspan class="st11">之间的子区间分离出</tspan></text>			</g>
			<g id="shape134-515" transform="translate(381.787,-82.9528)">
				<title>工作表.134</title>
				<path d="M0 555.58 L107.72 555.58" class="st29"/>
			</g>
			<g id="shape135-518" transform="translate(357.283,-78.622)">
				<title>工作表.135</title>
				<desc>rbase</desc>
				<rect x="0" y="547.002" width="27.1339" height="8.58268" class="st25"/>
				<text x="4.07" y="553.99" class="st26">rbase</text>			</g>
			<g id="shape146-521" transform="translate(-35.1043,488.262) rotate(-90)">
				<title>普通箭头.146</title>
				<g id="shadow146-522" transform="matrix(1,0,0,1,-1.97279,0.345598)" class="st1">
					<path d="M0 555.58 L2.55 553.32 L2.55 554.45 L14.17 554.45 L14.17 555.58 L14.17 556.72 L2.55 556.72 L2.55 557.85
								 L0 555.58 Z" class="st6"/>
				</g>
				<path d="M0 555.58 L2.55 553.32 L2.55 554.45 L14.17 554.45 L14.17 555.58 L14.17 556.72 L2.55 556.72 L2.55 557.85
							 L0 555.58 Z" class="st27"/>
			</g>
			<g id="shape157-526" transform="translate(391.646,-33.1654)">
				<title>流程.157</title>
				<desc>regions[3]</desc>
				<g id="shadow157-527" transform="matrix(1,0,0,1,0.345598,1.97279)" class="st1">
					<rect x="0" y="520.293" width="75.1181" height="35.2913" class="st2"/>
				</g>
				<rect x="0" y="520.293" width="75.1181" height="35.2913" class="st27"/>
				<text x="14.95" y="541.24" class="st8">regions[3]</text>			</g>
			<g id="shape158-532" transform="translate(429.772,-14.6693)">
				<title>流程.158</title>
				<desc>regions[2]</desc>
				<g id="shadow158-533" transform="matrix(1,0,0,1,0.345598,1.97279)" class="st1">
					<rect x="0" y="537.018" width="75.1181" height="18.5669" class="st2"/>
				</g>
				<rect x="0" y="537.018" width="75.1181" height="18.5669" class="st32"/>
				<text x="14.95" y="549.6" class="st8">regions[2]</text>			</g>
			<g id="shape159-538" transform="translate(381.583,-68.4567)">
				<title>工作表.159</title>
				<path d="M0 555.58 L107.72 555.58" class="st29"/>
			</g>
			<g id="shape160-541" transform="translate(380.165,-33.3071)">
				<title>工作表.160</title>
				<path d="M0 555.58 L138.9 555.58" class="st29"/>
			</g>
			<g id="shape161-544" transform="translate(515.701,-28.9764)">
				<title>工作表.161</title>
				<desc>end</desc>
				<rect x="0" y="547.002" width="24.2992" height="8.58268" class="st25"/>
				<text x="5.65" y="553.99" class="st26">end</text>			</g>
			<g id="shape162-547" transform="translate(358.701,-64.126)">
				<title>工作表.162</title>
				<desc>rend</desc>
				<rect x="0" y="547.002" width="27.1339" height="8.58268" class="st25"/>
				<text x="5.57" y="553.99" class="st26">rend</text>			</g>
			<g id="shape163-550" transform="translate(964.482,522.845) rotate(90)">
				<title>普通双箭头.163</title>
				<g id="shadow163-551" transform="matrix(1,0,0,1,1.97279,-0.345598)" class="st1">
					<path d="M0 555.58 L5.1 552.75 L5.1 554.17 L11.91 554.17 L11.91 552.75 L17.01 555.58 L11.91 558.42 L11.91 557
								 L5.1 557 L5.1 558.42 L0 555.58 Z" class="st6"/>
				</g>
				<path d="M0 555.58 L5.1 552.75 L5.1 554.17 L11.91 554.17 L11.91 552.75 L17.01 555.58 L11.91 558.42 L11.91 557 L5.1
							 557 L5.1 558.42 L0 555.58 Z" class="st32"/>
			</g>
			<g id="shape164-555" transform="translate(353.236,-8.92913)">
				<title>流程.164</title>
				<g id="shadow164-556" transform="matrix(1,0,0,1,0.345598,1.97279)" class="st1">
					<path d="M0 555.58 L199.46 555.58 L199.46 490.1 L0 490.1 L0 555.58 Z" class="st30"/>
				</g>
				<path d="M0 555.58 L199.46 555.58 L199.46 490.1 L0 490.1 L0 555.58 Z" class="st31"/>
			</g>
			<g id="shape165-560" transform="translate(381.787,-14.6378)">
				<title>工作表.165</title>
				<path d="M0 555.58 L135.86 555.58" class="st29"/>
			</g>
			<g id="shape166-563" transform="translate(357.283,-10.3071)">
				<title>工作表.166</title>
				<desc>rbase</desc>
				<rect x="0" y="547.002" width="27.1339" height="8.58268" class="st25"/>
				<text x="4.07" y="553.99" class="st26">rbase</text>			</g>
			<g id="shape167-566" transform="translate(520.48,-64.4882)">
				<title>工作表.167</title>
				<desc>idx=1</desc>
				<rect x="0" y="547.002" width="31.1811" height="8.58268" class="st25"/>
				<text x="5.05" y="553.99" class="st26">idx=1</text>			</g>
			<g id="shape173-569" transform="translate(515.701,-283.181)">
				<title>工作表.173</title>
				<desc>base</desc>
				<rect x="0" y="547.002" width="24.2992" height="8.58268" class="st25"/>
				<text x="4.15" y="553.99" class="st26">base</text>			</g>
			<g id="shape174-572" transform="translate(150.205,-323.78)">
				<title>工作表.174</title>
				<desc>yes</desc>
				<rect x="0" y="547.002" width="22.6772" height="8.58268" class="st25"/>
				<text x="5.34" y="553.99" class="st26">yes</text>			</g>
			<g id="shape175-575" transform="translate(154.457,-281.26)">
				<title>工作表.175</title>
				<desc>yes</desc>
				<rect x="0" y="547.002" width="22.6772" height="8.58268" class="st25"/>
				<text x="5.34" y="553.99" class="st26">yes</text>			</g>
			<g id="shape176-578" transform="translate(153.039,-204.803)">
				<title>工作表.176</title>
				<desc>yes</desc>
				<rect x="0" y="547.002" width="22.6772" height="8.58268" class="st25"/>
				<text x="5.34" y="553.99" class="st26">yes</text>			</g>
			<g id="shape177-581" transform="translate(153.039,-126.85)">
				<title>工作表.177</title>
				<desc>yes</desc>
				<rect x="0" y="547.002" width="22.6772" height="8.58268" class="st25"/>
				<text x="5.34" y="553.99" class="st26">yes</text>			</g>
			<g id="shape178-584" transform="translate(29.7323,-364.394)">
				<title>工作表.178</title>
				<desc>yes</desc>
				<rect x="0" y="547.002" width="22.6772" height="8.58268" class="st25"/>
				<text x="5.34" y="553.99" class="st26">yes</text>			</g>
			<g id="shape179-587" transform="translate(103.433,-176.417)">
				<title>工作表.179</title>
				<desc>no</desc>
				<rect x="0" y="547.002" width="22.6772" height="8.58268" class="st25"/>
				<text x="6.84" y="553.99" class="st26">no</text>			</g>
		</g>
	</g>
</svg>
