<?xml version="1.0" encoding="UTF-8" standalone="no"?>
<!DOCTYPE svg PUBLIC "-//W3C//DTD SVG 1.1//EN" "http://www.w3.org/Graphics/SVG/1.1/DTD/svg11.dtd">
<!-- 由 Microsoft Visio, SVG Export 生成 buddy-allocator-2.svg 页-1 -->
<svg xmlns="http://www.w3.org/2000/svg" xmlns:xlink="http://www.w3.org/1999/xlink" xmlns:ev="http://www.w3.org/2001/xml-events"
		xmlns:v="http://schemas.microsoft.com/visio/2003/SVGExtensions/" width="8.35626in" height="4.22761in"
		viewBox="0 0 601.651 304.388" xml:space="preserve" color-interpolation-filters="sRGB" class="st26">
	<v:documentProperties v:langID="2052" v:metric="true" v:viewMarkup="false"/>

	<style type="text/css">
	<![CDATA[
		.st1 {visibility:visible}
		.st2 {fill:#5b9bd5;fill-opacity:0.22;filter:url(#filter_2);stroke:#5b9bd5;stroke-opacity:0.22}
		.st3 {fill:#cbffff;stroke:#c7c8c8;stroke-width:0.25}
		.st4 {fill:#deebf6;stroke:#c7c8c8;stroke-width:0.25}
		.st5 {fill:#5b9bd5;fill-opacity:0.22;filter:url(#filter_2);stroke:none}
		.st6 {fill:#00b0f0;stroke:none;stroke-width:0.5}
		.st7 {fill:#000000;font-family:Times New Roman;font-size:1.00001em}
		.st8 {fill:#ffc000;stroke:#000000;stroke-width:0.5}
		.st9 {fill:#f2f2f2;stroke:#000000;stroke-width:0.5}
		.st10 {font-size:1em}
		.st11 {fill:none;stroke:none;stroke-width:0.25}
		.st12 {fill:#000000;font-family:Times New Roman;font-size:0.833336em}
		.st13 {fill:url(#grad1-92);stroke:#000000;stroke-dasharray:3.5,2.5;stroke-width:0.5}
		.st14 {fill:#00b0f0;font-size:1em}
		.st15 {fill:#ed7d31;stroke:#000000;stroke-width:0.5}
		.st16 {fill:url(#grad1-141);stroke:#000000;stroke-dasharray:3.5,2.5;stroke-width:0.5}
		.st17 {fill:#5b9bd5;fill-opacity:0.25;filter:url(#filter_2);stroke:#5b9bd5;stroke-opacity:0.25}
		.st18 {fill:#5b9bd5;fill-opacity:0.25;stroke:#5b9bd5;stroke-opacity:0.25;stroke-width:0.16556291390728}
		.st19 {fill:url(#grad0-155);stroke:#000000;stroke-width:0.5}
		.st20 {fill:#000000;fill-opacity:1;stroke:#000000;stroke-opacity:1;stroke-width:0.16556291390728}
		.st21 {marker-end:url(#mrkr3-167);stroke:#000000;stroke-linecap:round;stroke-linejoin:round;stroke-width:0.75}
		.st22 {fill:#000000;fill-opacity:1;stroke:#000000;stroke-opacity:1;stroke-width:0.22935779816514}
		.st23 {fill:#00b0f0;font-family:宋体;font-size:0.833336em}
		.st24 {font-family:Times New Roman;font-size:1em}
		.st25 {fill:#00b0f0;font-family:Times New Roman;font-size:0.833336em}
		.st26 {fill:none;fill-rule:evenodd;font-size:12px;overflow:visible;stroke-linecap:square;stroke-miterlimit:3}
	]]>
	</style>

	<defs id="Patterns_And_Gradients">
		<radialGradient id="grad1-92" cx="1" cy="1" r="1.4">
			<stop offset="0" stop-color="#ffc000" stop-opacity="1"/>
			<stop offset="1" stop-color="#ffffff" stop-opacity="1"/>
		</radialGradient>
		<radialGradient id="grad1-141" cx="1" cy="1" r="1.4">
			<stop offset="0" stop-color="#ed7d31" stop-opacity="1"/>
			<stop offset="1" stop-color="#ffffff" stop-opacity="1"/>
		</radialGradient>
		<linearGradient id="grad0-155" x1="0" y1="0" x2="1" y2="0" gradientTransform="rotate(0 0.5 0.5)">
			<stop offset="0.02" stop-color="#ff1616" stop-opacity="0.6"/>
			<stop offset="0.5" stop-color="#ffffff" stop-opacity="1"/>
			<stop offset="0.5" stop-color="#ffffff" stop-opacity="1"/>
			<stop offset="1" stop-color="#00b050" stop-opacity="1"/>
		</linearGradient>
	</defs>
	<defs id="Markers">
		<g id="lend43">
			<path d="M 2 -1 L 0 0 L 2 1 M 4 -1 L 2 0 L 4 1 " style="stroke-linecap:round;stroke-linejoin:round;fill:none"/>
		</g>
		<marker id="mrkr43-149" class="st18" v:arrowType="43" v:arrowSize="2" orient="auto" markerUnits="strokeWidth"
				overflow="visible">
			<use xlink:href="#lend43" transform="scale(6.04) "/>
		</marker>
		<marker id="mrkr43-153" class="st20" v:arrowType="43" v:arrowSize="2" orient="auto" markerUnits="strokeWidth"
				overflow="visible">
			<use xlink:href="#lend43" transform="scale(6.04) "/>
		</marker>
		<g id="lend3">
			<path d="M 2 1 L 0 0 L 2 -1 " style="stroke-linecap:round;stroke-linejoin:round;fill:none"/>
		</g>
		<marker id="mrkr3-167" class="st22" v:arrowType="3" v:arrowSize="2" orient="auto" markerUnits="strokeWidth"
				overflow="visible">
			<use xlink:href="#lend3" transform="scale(-4.36,-4.36) "/>
		</marker>
	</defs>
	<defs id="Filters">
		<filter id="filter_2">
			<feGaussianBlur stdDeviation="2"/>
		</filter>
	</defs>
	<g v:mID="0" v:index="1" v:groupContext="foregroundPage">
		<title>页-1</title>
		<v:pageProperties v:drawingScale="0.0393701" v:pageScale="0.0393701" v:drawingUnits="24" v:shadowOffsetX="8.50394"
				v:shadowOffsetY="-8.50394"/>
		<v:layer v:name="连接线" v:index="0"/>
		<g id="group40-1" transform="translate(2.6544,-5.3478)" v:mID="40" v:groupContext="group">
			<title>工作表.40</title>
			<g id="shape32-2" v:mID="32" v:groupContext="shape" transform="translate(184.252,-5.68434E-14)">
				<title>矩形.32</title>
				<v:userDefs>
					<v:ud v:nameU="visVersion" v:val="VT0(15):26"/>
				</v:userDefs>
				<g id="shadow32-3" v:groupContext="shadow" v:shadowOffsetX="0.345598" v:shadowOffsetY="-1.97279" v:shadowType="1"
						transform="matrix(1,0,0,1,0.345598,1.97279)" class="st1">
					<rect x="0" y="240.608" width="411.024" height="63.7795" rx="2.83465" ry="2.83465" class="st2"/>
				</g>
				<rect x="0" y="240.608" width="411.024" height="63.7795" rx="2.83465" ry="2.83465" class="st3"/>
			</g>
			<g id="shape31-7" v:mID="31" v:groupContext="shape" transform="translate(184.252,-99.2126)">
				<title>矩形.31</title>
				<v:userDefs>
					<v:ud v:nameU="visVersion" v:val="VT0(15):26"/>
				</v:userDefs>
				<g id="shadow31-8" v:groupContext="shadow" v:shadowOffsetX="0.345598" v:shadowOffsetY="-1.97279" v:shadowType="1"
						transform="matrix(1,0,0,1,0.345598,1.97279)" class="st1">
					<rect x="0" y="105.963" width="411.024" height="198.425" rx="2.83465" ry="2.83465" class="st2"/>
				</g>
				<rect x="0" y="105.963" width="411.024" height="198.425" rx="2.83465" ry="2.83465" class="st4"/>
			</g>
			<g id="shape1-12" v:mID="1" v:groupContext="shape" transform="translate(7.99361E-14,-77.9528)">
				<title>矩形.13</title>
				<desc>rmqueue()</desc>
				<v:userDefs>
					<v:ud v:nameU="visVersion" v:val="VT0(15):26"/>
				</v:userDefs>
				<v:textBlock v:margins="rect(4,4,4,4)" v:tabSpace="42.5197"/>
				<v:textRect cx="35.4331" cy="297.301" width="70.87" height="14.1732"/>
				<g id="shadow1-13" v:groupContext="shadow" v:shadowOffsetX="0.345598" v:shadowOffsetY="-1.97279" v:shadowType="1"
						transform="matrix(1,0,0,1,0.345598,1.97279)" class="st1">
					<rect x="0" y="290.215" width="70.8661" height="14.1732" rx="1.41732" ry="1.41732" class="st5"/>
				</g>
				<rect x="0" y="290.215" width="70.8661" height="14.1732" rx="1.41732" ry="1.41732" class="st6"/>
				<text x="10.45" y="300.9" class="st7" v:langID="2052"><v:paragraph v:horizAlign="1"/><v:tabList/>rmqueue()</text>			</g>
			<g id="shape2-18" v:mID="2" v:groupContext="shape" transform="translate(198.425,-233.858)">
				<title>矩形</title>
				<desc>free_area[N]</desc>
				<v:userDefs>
					<v:ud v:nameU="visVersion" v:val="VT0(15):26"/>
				</v:userDefs>
				<v:textBlock v:margins="rect(4,4,4,4)" v:tabSpace="42.5197"/>
				<v:textRect cx="56.6929" cy="293.758" width="113.39" height="21.2598"/>
				<g id="shadow2-19" v:groupContext="shadow" v:shadowOffsetX="0.345598" v:shadowOffsetY="-1.97279" v:shadowType="1"
						transform="matrix(1,0,0,1,0.345598,1.97279)" class="st1">
					<rect x="0" y="283.128" width="113.386" height="21.2598" rx="1.41732" ry="1.41732" class="st2"/>
				</g>
				<rect x="0" y="283.128" width="113.386" height="21.2598" rx="1.41732" ry="1.41732" class="st8"/>
				<text x="26.05" y="297.36" class="st7" v:langID="2052"><v:paragraph v:horizAlign="1"/><v:tabList/>free_area[N]</text>			</g>
			<g id="shape3-24" v:mID="3" v:groupContext="shape" transform="translate(198.425,-170.079)">
				<title>矩形.3</title>
				<desc>◦ ◦ ◦</desc>
				<v:userDefs>
					<v:ud v:nameU="visVersion" v:val="VT0(15):26"/>
				</v:userDefs>
				<v:textBlock v:margins="rect(4,4,4,4)" v:tabSpace="42.5197"/>
				<v:textRect cx="56.6929" cy="272.498" width="113.39" height="63.7795"/>
				<g id="shadow3-25" v:groupContext="shadow" v:shadowOffsetX="0.345598" v:shadowOffsetY="-1.97279" v:shadowType="1"
						transform="matrix(1,0,0,1,0.345598,1.97279)" class="st1">
					<rect x="0" y="240.608" width="113.386" height="63.7795" rx="1.41732" ry="1.41732" class="st2"/>
				</g>
				<rect x="0" y="240.608" width="113.386" height="63.7795" rx="1.41732" ry="1.41732" class="st9"/>
				<text x="54.57" y="261.7" class="st7" v:langID="2052"><v:paragraph v:horizAlign="1"/><v:tabList/>◦<v:newlineChar/><tspan
							x="54.57" dy="1.2em" class="st10">◦<v:newlineChar/></tspan><tspan x="54.57" dy="1.2em" class="st10">◦</tspan></text>			</g>
			<g id="shape4-32" v:mID="4" v:groupContext="shape" transform="translate(198.425,-148.819)">
				<title>矩形.4</title>
				<desc>free_area[2]</desc>
				<v:userDefs>
					<v:ud v:nameU="visVersion" v:val="VT0(15):26"/>
				</v:userDefs>
				<v:textBlock v:margins="rect(4,4,4,4)" v:tabSpace="42.5197"/>
				<v:textRect cx="56.6929" cy="293.758" width="113.39" height="21.2598"/>
				<g id="shadow4-33" v:groupContext="shadow" v:shadowOffsetX="0.345598" v:shadowOffsetY="-1.97279" v:shadowType="1"
						transform="matrix(1,0,0,1,0.345598,1.97279)" class="st1">
					<rect x="0" y="283.128" width="113.386" height="21.2598" rx="1.41732" ry="1.41732" class="st2"/>
				</g>
				<rect x="0" y="283.128" width="113.386" height="21.2598" rx="1.41732" ry="1.41732" class="st8"/>
				<text x="27.39" y="297.36" class="st7" v:langID="2052"><v:paragraph v:horizAlign="1"/><v:tabList/>free_area[2]</text>			</g>
			<g id="shape5-38" v:mID="5" v:groupContext="shape" transform="translate(198.425,-127.559)">
				<title>矩形.7</title>
				<desc>free_area[1]</desc>
				<v:userDefs>
					<v:ud v:nameU="visVersion" v:val="VT0(15):26"/>
				</v:userDefs>
				<v:textBlock v:margins="rect(4,4,4,4)" v:tabSpace="42.5197"/>
				<v:textRect cx="56.6929" cy="293.758" width="113.39" height="21.2598"/>
				<g id="shadow5-39" v:groupContext="shadow" v:shadowOffsetX="0.345598" v:shadowOffsetY="-1.97279" v:shadowType="1"
						transform="matrix(1,0,0,1,0.345598,1.97279)" class="st1">
					<rect x="0" y="283.128" width="113.386" height="21.2598" rx="1.41732" ry="1.41732" class="st2"/>
				</g>
				<rect x="0" y="283.128" width="113.386" height="21.2598" rx="1.41732" ry="1.41732" class="st8"/>
				<text x="27.39" y="297.36" class="st7" v:langID="2052"><v:paragraph v:horizAlign="1"/><v:tabList/>free_area[1]</text>			</g>
			<g id="shape6-44" v:mID="6" v:groupContext="shape" transform="translate(198.425,-106.299)">
				<title>矩形.9</title>
				<desc>free_area[0]</desc>
				<v:userDefs>
					<v:ud v:nameU="visVersion" v:val="VT0(15):26"/>
				</v:userDefs>
				<v:textBlock v:margins="rect(4,4,4,4)" v:tabSpace="42.5197"/>
				<v:textRect cx="56.6929" cy="293.758" width="113.39" height="21.2598"/>
				<g id="shadow6-45" v:groupContext="shadow" v:shadowOffsetX="0.345598" v:shadowOffsetY="-1.97279" v:shadowType="1"
						transform="matrix(1,0,0,1,0.345598,1.97279)" class="st1">
					<rect x="0" y="283.128" width="113.386" height="21.2598" rx="1.41732" ry="1.41732" class="st2"/>
				</g>
				<rect x="0" y="283.128" width="113.386" height="21.2598" rx="1.41732" ry="1.41732" class="st8"/>
				<text x="27.39" y="297.36" class="st7" v:langID="2052"><v:paragraph v:horizAlign="1"/><v:tabList/>free_area[0]</text>			</g>
			<g id="shape7-50" v:mID="7" v:groupContext="shape" transform="translate(191.339,-255.118)">
				<title>工作表.7</title>
				<desc>N=MAX_ORDER - 1</desc>
				<v:textBlock v:margins="rect(4,4,4,4)" v:tabSpace="42.5197"/>
				<v:textRect cx="63.7795" cy="297.301" width="127.56" height="14.1732"/>
				<rect x="0" y="290.215" width="127.559" height="14.1732" class="st11"/>
				<text x="10.73" y="300.9" class="st7" v:langID="2052"><v:paragraph v:horizAlign="1"/><v:tabList/>N=MAX_ORDER - 1</text>			</g>
			<g id="shape8-53" v:mID="8" v:groupContext="shape" transform="translate(396.85,-160.774)">
				<title>矩形.23</title>
				<desc>free_list[MIGRATE_UNMOVABLE]</desc>
				<v:userDefs>
					<v:ud v:nameU="visVersion" v:val="VT0(15):26"/>
				</v:userDefs>
				<v:textBlock v:margins="rect(4,4,4,4)" v:tabSpace="42.5197"/>
				<v:textRect cx="85.0394" cy="295.884" width="170.08" height="17.0079"/>
				<g id="shadow8-54" v:groupContext="shadow" v:shadowOffsetX="0.345598" v:shadowOffsetY="-1.97279" v:shadowType="1"
						transform="matrix(1,0,0,1,0.345598,1.97279)" class="st1">
					<rect x="0" y="287.38" width="170.079" height="17.0079" rx="1.41732" ry="1.41732" class="st2"/>
				</g>
				<rect x="0" y="287.38" width="170.079" height="17.0079" rx="1.41732" ry="1.41732" class="st8"/>
				<text x="4" y="298.88" class="st12" v:langID="2052"><v:paragraph/><v:tabList/>free_list[<tspan class="st10"
							v:langID="1033">MIGRATE</tspan><tspan class="st10" v:langID="1033">_</tspan><tspan class="st10"
							v:langID="1033">UNMOVABLE</tspan>]</text>			</g>
			<g id="shape9-62" v:mID="9" v:groupContext="shape" transform="translate(396.85,-177.782)">
				<title>矩形.19</title>
				<desc>free_list[MIGRATE_MOVABLE]</desc>
				<v:userDefs>
					<v:ud v:nameU="visVersion" v:val="VT0(15):26"/>
				</v:userDefs>
				<v:textBlock v:margins="rect(4,4,4,4)" v:tabSpace="42.5197"/>
				<v:textRect cx="85.0394" cy="295.884" width="170.08" height="17.0079"/>
				<g id="shadow9-63" v:groupContext="shadow" v:shadowOffsetX="0.345598" v:shadowOffsetY="-1.97279" v:shadowType="1"
						transform="matrix(1,0,0,1,0.345598,1.97279)" class="st1">
					<rect x="0" y="287.38" width="170.079" height="17.0079" rx="1.41732" ry="1.41732" class="st2"/>
				</g>
				<rect x="0" y="287.38" width="170.079" height="17.0079" rx="1.41732" ry="1.41732" class="st8"/>
				<text x="4" y="298.88" class="st12" v:langID="2052"><v:paragraph/><v:tabList/>free_list[<tspan class="st10"
							v:langID="1033">MIGRATE</tspan><tspan class="st10" v:langID="1033">_</tspan><tspan class="st10"
							v:langID="1033">MOVABLE</tspan>]</text>			</g>
			<g id="shape10-71" v:mID="10" v:groupContext="shape" transform="translate(396.85,-194.789)">
				<title>矩形.20</title>
				<desc>free_list[MIGRATE_RECLAIMABLE]</desc>
				<v:userDefs>
					<v:ud v:nameU="visVersion" v:val="VT0(15):26"/>
				</v:userDefs>
				<v:textBlock v:margins="rect(4,4,4,4)" v:tabSpace="42.5197"/>
				<v:textRect cx="85.0394" cy="295.884" width="170.08" height="17.0079"/>
				<g id="shadow10-72" v:groupContext="shadow" v:shadowOffsetX="0.345598" v:shadowOffsetY="-1.97279" v:shadowType="1"
						transform="matrix(1,0,0,1,0.345598,1.97279)" class="st1">
					<rect x="0" y="287.38" width="170.079" height="17.0079" rx="1.41732" ry="1.41732" class="st2"/>
				</g>
				<rect x="0" y="287.38" width="170.079" height="17.0079" rx="1.41732" ry="1.41732" class="st8"/>
				<text x="4" y="298.88" class="st12" v:langID="2052"><v:paragraph/><v:tabList/>free_list[<tspan class="st10"
							v:langID="1033">MIGRATE</tspan><tspan class="st10" v:langID="1033">_</tspan><tspan class="st10"
							v:langID="1033">RECLAIMABLE</tspan>]</text>			</g>
			<g id="shape11-80" v:mID="11" v:groupContext="shape" transform="translate(396.85,-211.797)">
				<title>矩形.21</title>
				<desc>free_list[MIGRATE_HIGHATOMIC]</desc>
				<v:userDefs>
					<v:ud v:nameU="visVersion" v:val="VT0(15):26"/>
				</v:userDefs>
				<v:textBlock v:margins="rect(4,4,4,4)" v:tabSpace="42.5197"/>
				<v:textRect cx="85.0394" cy="295.884" width="170.08" height="17.0079"/>
				<g id="shadow11-81" v:groupContext="shadow" v:shadowOffsetX="0.345598" v:shadowOffsetY="-1.97279" v:shadowType="1"
						transform="matrix(1,0,0,1,0.345598,1.97279)" class="st1">
					<rect x="0" y="287.38" width="170.079" height="17.0079" rx="1.41732" ry="1.41732" class="st2"/>
				</g>
				<rect x="0" y="287.38" width="170.079" height="17.0079" rx="1.41732" ry="1.41732" class="st8"/>
				<text x="4" y="298.88" class="st12" v:langID="2052"><v:paragraph/><v:tabList/>free_list[<tspan class="st10"
							v:langID="1033">MIGRATE</tspan><tspan class="st10" v:langID="1033">_</tspan><tspan class="st10"
							v:langID="1033">HIGHATOMIC</tspan>]</text>			</g>
			<g id="shape12-89" v:mID="12" v:groupContext="shape" transform="translate(311.811,-106.299)">
				<title>工作表.12</title>
				<path d="M0.21 283.6 L82.41 148.56 A1.41732 1.41732 0 0 1 85.03 149.29 L84.94 247.09 A1.41732 1.41732 0 0 1 84.31
							 248.27 L2.35 302.93 A1.41732 1.41732 0 0 1 0.14 301.76 L0 284.34 A1.41732 1.41732 0 0 1 0.21 283.6 Z"
						class="st13"/>
			</g>
			<g id="shape13-93" v:mID="13" v:groupContext="shape" transform="translate(396.85,-245.813)">
				<title>Rectangle.23</title>
				<desc>free_list[MIGRATE_ISOLATE]</desc>
				<v:userDefs>
					<v:ud v:nameU="visVersion" v:val="VT0(15):26"/>
				</v:userDefs>
				<v:textBlock v:margins="rect(4,4,4,4)" v:tabSpace="42.5197"/>
				<v:textRect cx="85.0394" cy="295.884" width="170.08" height="17.0079"/>
				<g id="shadow13-94" v:groupContext="shadow" v:shadowOffsetX="0.345598" v:shadowOffsetY="-1.97279" v:shadowType="1"
						transform="matrix(1,0,0,1,0.345598,1.97279)" class="st1">
					<rect x="0" y="287.38" width="170.079" height="17.0079" rx="1.41732" ry="1.41732" class="st2"/>
				</g>
				<rect x="0" y="287.38" width="170.079" height="17.0079" rx="1.41732" ry="1.41732" class="st8"/>
				<text x="4" y="298.88" class="st12" v:langID="2052"><v:paragraph/><v:tabList/>free_list[<tspan class="st14"
							v:langID="1033">MIGRATE</tspan><tspan class="st14" v:langID="1033">_</tspan><tspan class="st14"
							v:langID="1033">ISOLATE</tspan>]</text>			</g>
			<g id="shape14-102" v:mID="14" v:groupContext="shape" transform="translate(396.85,-228.805)">
				<title>矩形.14</title>
				<desc>free_list[MIGRATE_CMA]</desc>
				<v:userDefs>
					<v:ud v:nameU="visVersion" v:val="VT0(15):26"/>
				</v:userDefs>
				<v:textBlock v:margins="rect(4,4,4,4)" v:tabSpace="42.5197"/>
				<v:textRect cx="85.0394" cy="295.884" width="170.08" height="17.0079"/>
				<g id="shadow14-103" v:groupContext="shadow" v:shadowOffsetX="0.345598" v:shadowOffsetY="-1.97279" v:shadowType="1"
						transform="matrix(1,0,0,1,0.345598,1.97279)" class="st1">
					<rect x="0" y="287.38" width="170.079" height="17.0079" rx="1.41732" ry="1.41732" class="st2"/>
				</g>
				<rect x="0" y="287.38" width="170.079" height="17.0079" rx="1.41732" ry="1.41732" class="st8"/>
				<text x="4" y="298.88" class="st12" v:langID="2052"><v:paragraph/><v:tabList/>free_list[<tspan class="st14"
							v:langID="1033">MIGRATE</tspan><tspan class="st14" v:langID="1033">_</tspan><tspan class="st14"
							v:langID="1033">CMA</tspan>]</text>			</g>
			<g id="shape15-111" v:mID="15" v:groupContext="shape" transform="translate(198.425,-21.2598)">
				<title>矩形.15</title>
				<desc>zone→pageset→pcp</desc>
				<v:userDefs>
					<v:ud v:nameU="visVersion" v:val="VT0(15):26"/>
				</v:userDefs>
				<v:textBlock v:margins="rect(4,4,4,4)" v:tabSpace="42.5197"/>
				<v:textRect cx="56.6929" cy="293.758" width="113.39" height="21.2598"/>
				<g id="shadow15-112" v:groupContext="shadow" v:shadowOffsetX="0.345598" v:shadowOffsetY="-1.97279" v:shadowType="1"
						transform="matrix(1,0,0,1,0.345598,1.97279)" class="st1">
					<rect x="0" y="283.128" width="113.386" height="21.2598" rx="1.41732" ry="1.41732" class="st2"/>
				</g>
				<rect x="0" y="283.128" width="113.386" height="21.2598" rx="1.41732" ry="1.41732" class="st15"/>
				<text x="6.71" y="297.36" class="st7" v:langID="2052"><v:paragraph v:horizAlign="1"/><v:tabList/>zone→pageset→pcp</text>			</g>
			<g id="shape19-117" v:mID="19" v:groupContext="shape" transform="translate(396.85,-5.66929)">
				<title>矩形.19</title>
				<desc>free_list[MIGRATE_UNMOVABLE]</desc>
				<v:userDefs>
					<v:ud v:nameU="visVersion" v:val="VT0(15):26"/>
				</v:userDefs>
				<v:textBlock v:margins="rect(4,4,4,4)" v:tabSpace="42.5197"/>
				<v:textRect cx="85.0394" cy="295.884" width="170.08" height="17.0079"/>
				<g id="shadow19-118" v:groupContext="shadow" v:shadowOffsetX="0.345598" v:shadowOffsetY="-1.97279" v:shadowType="1"
						transform="matrix(1,0,0,1,0.345598,1.97279)" class="st1">
					<rect x="0" y="287.38" width="170.079" height="17.0079" rx="1.41732" ry="1.41732" class="st2"/>
				</g>
				<rect x="0" y="287.38" width="170.079" height="17.0079" rx="1.41732" ry="1.41732" class="st15"/>
				<text x="4" y="298.88" class="st12" v:langID="2052"><v:paragraph/><v:tabList/>free_list[MIGRATE_UNMOVABLE]</text>			</g>
			<g id="shape20-123" v:mID="20" v:groupContext="shape" transform="translate(396.85,-22.6772)">
				<title>矩形.20</title>
				<desc>free_list[MIGRATE_MOVABLE]</desc>
				<v:userDefs>
					<v:ud v:nameU="visVersion" v:val="VT0(15):26"/>
				</v:userDefs>
				<v:textBlock v:margins="rect(4,4,4,4)" v:tabSpace="42.5197"/>
				<v:textRect cx="85.0394" cy="295.884" width="170.08" height="17.0079"/>
				<g id="shadow20-124" v:groupContext="shadow" v:shadowOffsetX="0.345598" v:shadowOffsetY="-1.97279" v:shadowType="1"
						transform="matrix(1,0,0,1,0.345598,1.97279)" class="st1">
					<rect x="0" y="287.38" width="170.079" height="17.0079" rx="1.41732" ry="1.41732" class="st2"/>
				</g>
				<rect x="0" y="287.38" width="170.079" height="17.0079" rx="1.41732" ry="1.41732" class="st15"/>
				<text x="4" y="298.88" class="st12" v:langID="2052"><v:paragraph/><v:tabList/>free_list[MIGRATE_MOVABLE]</text>			</g>
			<g id="shape21-129" v:mID="21" v:groupContext="shape" transform="translate(396.85,-39.685)">
				<title>矩形.21</title>
				<desc>free_list[MIGRATE_RECLAIMABLE]</desc>
				<v:userDefs>
					<v:ud v:nameU="visVersion" v:val="VT0(15):26"/>
				</v:userDefs>
				<v:textBlock v:margins="rect(4,4,4,4)" v:tabSpace="42.5197"/>
				<v:textRect cx="85.0394" cy="295.884" width="170.08" height="17.0079"/>
				<g id="shadow21-130" v:groupContext="shadow" v:shadowOffsetX="0.345598" v:shadowOffsetY="-1.97279" v:shadowType="1"
						transform="matrix(1,0,0,1,0.345598,1.97279)" class="st1">
					<rect x="0" y="287.38" width="170.079" height="17.0079" rx="1.41732" ry="1.41732" class="st2"/>
				</g>
				<rect x="0" y="287.38" width="170.079" height="17.0079" rx="1.41732" ry="1.41732" class="st15"/>
				<text x="4" y="298.88" class="st12" v:langID="2052"><v:paragraph/><v:tabList/>free_list[<tspan class="st10"
							v:langID="1033">MIGRATE</tspan><tspan class="st10" v:langID="1033">_</tspan><tspan class="st10"
							v:langID="1033">RECLAIMABLE</tspan>]</text>			</g>
			<g id="shape22-138" v:mID="22" v:groupContext="shape" transform="translate(311.811,-5.66929)">
				<title>工作表.22</title>
				<path d="M84.68 255.02 L85.03 302.67 A1.41732 1.41732 0 0 1 83.35 304.07 L1.18 288.81 A1.41732 1.41732 0 0 1 0.02
							 287.39 L0.31 268.5 A1.41732 1.41732 0 0 1 1.49 267.12 L83.03 253.63 A1.41732 1.41732 0 0 1 84.68 255.02
							 Z" class="st16"/>
			</g>
			<g id="shape23-142" v:mID="23" v:groupContext="shape" transform="translate(191.339,-2.27374E-13)">
				<title>工作表.23</title>
				<desc>Per-CPU Page Frame Cache</desc>
				<v:textBlock v:margins="rect(4,4,4,4)" v:tabSpace="42.5197"/>
				<v:textRect cx="63.7795" cy="293.758" width="127.56" height="21.2598"/>
				<rect x="0" y="283.128" width="127.559" height="21.2598" class="st11"/>
				<text x="6.99" y="296.76" class="st12" v:langID="2052"><v:paragraph v:horizAlign="1"/><v:tabList/>Per-CPU Page Frame Cache</text>			</g>
			<g id="shape24-145" v:mID="24" v:groupContext="shape" transform="translate(402.165,-85.0394)">
				<title>普通双箭头</title>
				<v:userDefs>
					<v:ud v:nameU="visVersion" v:val="VT0(15):26"/>
					<v:ud v:nameU="ArrowType" v:prompt="" v:val="VT0(3):26"/>
				</v:userDefs>
				<g id="shadow24-146" v:groupContext="shadow" v:shadowOffsetX="0.345598" v:shadowOffsetY="-1.97279" v:shadowType="1"
						transform="matrix(1,0,0,1,0.345598,1.97279)" class="st1">
					<path d="M1.58 303.85 L15.94 298.97 a0.566929 0.566929 0 0 1 0.74926 0.536809 L16.69 300.99 a0.566929 0.566929
								 -180 0 0 0.566929 0.566929 L141.48 301.55 a0.566929 0.566929 -180 0 0 0.566929 -0.566929 L142.05
								 299.51 a0.566929 0.566929 0 0 1 0.74926 -0.536809 L157.16 303.85 a0.566929 0.566929 0 0 1 0 1.07362
								 L142.8 309.8 a0.566929 0.566929 0 0 1 -0.74926 -0.536809 L142.05 307.79 a0.566929 0.566929 -180
								 0 0 -0.566929 -0.566929 L17.26 307.22 a0.566929 0.566929 -180 0 0 -0.566929 0.566929 L16.69 309.27
								 a0.566929 0.566929 0 0 1 -0.74926 0.536809 L1.58 304.92 a0.566929 0.566929 0 0 1 -6.43929E-15 -1.07362
								 Z" class="st17"/>
				</g>
				<path d="M1.58 303.85 L15.94 298.97 a0.566929 0.566929 0 0 1 0.74926 0.536809 L16.69 300.99 a0.566929 0.566929 -180
							 0 0 0.566929 0.566929 L141.48 301.55 a0.566929 0.566929 -180 0 0 0.566929 -0.566929 L142.05 299.51 a0.566929
							 0.566929 0 0 1 0.74926 -0.536809 L157.16 303.85 a0.566929 0.566929 0 0 1 0 1.07362 L142.8 309.8 a0.566929
							 0.566929 0 0 1 -0.74926 -0.536809 L142.05 307.79 a0.566929 0.566929 -180 0 0 -0.566929 -0.566929 L17.26
							 307.22 a0.566929 0.566929 -180 0 0 -0.566929 0.566929 L16.69 309.27 a0.566929 0.566929 0 0 1 -0.74926
							 0.536809 L1.58 304.92 a0.566929 0.566929 0 0 1 -6.43929E-15 -1.07362 Z" class="st19"/>
			</g>
			<g id="shape25-156" v:mID="25" v:groupContext="shape" transform="translate(372.047,-77.9528)">
				<title>工作表.25</title>
				<desc>Hot</desc>
				<v:textBlock v:margins="rect(4,4,4,4)" v:tabSpace="42.5197"/>
				<v:textRect cx="17.7165" cy="297.301" width="35.44" height="14.1732"/>
				<rect x="0" y="290.215" width="35.4331" height="14.1732" class="st11"/>
				<text x="8.72" y="300.9" class="st7" v:langID="2052"><v:paragraph v:horizAlign="1"/><v:tabList/>Hot</text>			</g>
			<g id="shape26-159" v:mID="26" v:groupContext="shape" transform="translate(556.299,-77.9528)">
				<title>工作表.26</title>
				<desc>Cold</desc>
				<v:textBlock v:margins="rect(4,4,4,4)" v:tabSpace="42.5197"/>
				<v:textRect cx="17.7165" cy="297.301" width="35.44" height="14.1732"/>
				<rect x="0" y="290.215" width="35.4331" height="14.1732" class="st11"/>
				<text x="6.05" y="300.9" class="st7" v:langID="2052"><v:paragraph v:horizAlign="1"/><v:tabList/>Cold</text>			</g>
			<g id="shape27-162" v:mID="27" v:groupContext="shape" v:layerMember="0"
					transform="translate(187.938,-61.6249) rotate(22.6199)">
				<title>波浪连接线 1.16</title>
				<v:userDefs>
					<v:ud v:nameU="Scale" v:val="VT0(1):26"/>
					<v:ud v:nameU="AntiScale" v:val="VT0(1):26"/>
					<v:ud v:nameU="visVersion" v:val="VT0(15):26"/>
				</v:userDefs>
				<path d="M0 304.39 C75.56 278.47 58.74 325.8 138.19 304.39" class="st21"/>
			</g>
			<g id="shape28-168" v:mID="28" v:groupContext="shape" transform="translate(87.874,-21.2598)">
				<title>工作表.28</title>
				<desc>rmqueue_pcplist()</desc>
				<v:textBlock v:margins="rect(4,4,4,4)" v:tabSpace="42.5197"/>
				<v:textRect cx="48.8976" cy="297.301" width="97.8" height="14.1732"/>
				<rect x="0" y="290.215" width="97.7953" height="14.1732" class="st11"/>
				<text x="4.91" y="300.9" class="st7" v:langID="2052"><v:paragraph v:horizAlign="1"/><v:tabList/>rmqueue_pcplist()</text>			</g>
			<g id="shape29-171" v:mID="29" v:groupContext="shape" transform="translate(109.134,-63.7795)">
				<title>工作表.29</title>
				<desc>在0-order情况下从pcp链表分配</desc>
				<v:textBlock v:margins="rect(4,4,4,4)" v:tabSpace="42.5197"/>
				<v:textRect cx="49.6063" cy="290.215" width="99.22" height="28.3465"/>
				<rect x="0" y="276.041" width="99.2126" height="28.3465" class="st11"/>
				<text x="9.89" y="286.92" class="st23" v:langID="2052"><v:paragraph v:horizAlign="1"/><v:tabList/>在<tspan
							class="st24">0</tspan><tspan class="st24">-</tspan><tspan class="st24">order</tspan>情况下从<tspan
							x="22.39" dy="1.316em" class="st24">pcp</tspan>链表分配</text>			</g>
			<g id="shape30-178" v:mID="30" v:groupContext="shape" transform="translate(14.1732,-116.37)">
				<title>工作表.30</title>
				<desc>在order &#62; 0情况下从buddy系统分配</desc>
				<v:textBlock v:margins="rect(4,4,4,4)" v:tabSpace="42.5197"/>
				<v:textRect cx="49.6063" cy="290.215" width="99.22" height="28.3465"/>
				<rect x="0" y="276.041" width="99.2126" height="28.3465" class="st11"/>
				<text x="6.24" y="286.92" class="st23" v:langID="2052"><v:paragraph v:horizAlign="1"/><v:tabList/>在<tspan
							class="st24">order </tspan><tspan class="st24">&#62; </tspan><tspan class="st24">0</tspan>情况下从<tspan
							x="17.11" dy="1.316em" class="st24">buddy</tspan>系统分配</text>			</g>
			<g id="shape33-185" v:mID="33" v:groupContext="shape" v:layerMember="0"
					transform="translate(276.548,443.729) rotate(-42.5104) scale(1,-1)">
				<title>波浪连接线 1.33</title>
				<v:userDefs>
					<v:ud v:nameU="Scale" v:val="VT0(1):26"/>
					<v:ud v:nameU="AntiScale" v:val="VT0(1):26"/>
					<v:ud v:nameU="visVersion" v:val="VT0(15):26"/>
				</v:userDefs>
				<path d="M0 304.39 C77.29 267.41 89.34 346.93 173.04 304.39" class="st21"/>
			</g>
			<g id="shape34-190" v:mID="34" v:groupContext="shape" transform="translate(113.386,-198.425)">
				<title>工作表.34</title>
				<desc>__rmqueue()</desc>
				<v:textBlock v:margins="rect(4,4,4,4)" v:tabSpace="42.5197"/>
				<v:textRect cx="42.5197" cy="297.301" width="85.04" height="14.1732"/>
				<rect x="0" y="290.215" width="85.0394" height="14.1732" class="st11"/>
				<text x="11.53" y="300.9" class="st7" v:langID="2052"><v:paragraph v:horizAlign="1"/><v:tabList/>__rmqueue()</text>			</g>
			<g id="shape35-193" v:mID="35" v:groupContext="shape" transform="translate(0,-269.291)">
				<title>工作表.35</title>
				<desc>Buddy Memory Allocator</desc>
				<v:textBlock v:margins="rect(4,4,4,4)" v:tabSpace="42.5197"/>
				<v:textRect cx="63.7795" cy="293.758" width="127.56" height="21.2598"/>
				<rect x="0" y="283.128" width="127.559" height="21.2598" class="st11"/>
				<text x="11.84" y="296.76" class="st25" v:langID="2052"><v:paragraph v:horizAlign="1"/><v:tabList/>Buddy Memory Allocator</text>			</g>
			<g id="shape36-196" v:mID="36" v:groupContext="shape" transform="translate(184.252,-276.378)">
				<title>工作表.36</title>
				<desc>Buddy Core</desc>
				<v:textBlock v:margins="rect(4,4,4,4)" v:tabSpace="42.5197"/>
				<v:textRect cx="33.4346" cy="293.758" width="66.87" height="21.2598"/>
				<rect x="0" y="283.128" width="66.8693" height="21.2598" class="st11"/>
				<text x="9.13" y="296.76" class="st25" v:langID="2052"><v:paragraph v:horizAlign="1"/><v:tabList/>Buddy Core</text>			</g>
			<g id="shape37-199" v:mID="37" v:groupContext="shape" v:layerMember="0"
					transform="translate(440.545,2.98652) rotate(52.6961)">
				<title>波浪连接线 1.37</title>
				<v:userDefs>
					<v:ud v:nameU="Scale" v:val="VT0(1):26"/>
					<v:ud v:nameU="AntiScale" v:val="VT0(1):26"/>
					<v:ud v:nameU="visVersion" v:val="VT0(15):26"/>
				</v:userDefs>
				<path d="M0 304.39 C25.38 352.35 40.32 273.69 93.55 304.39" class="st21"/>
			</g>
			<g id="shape38-204" v:mID="38" v:groupContext="shape" transform="translate(226.772,-77.9528)">
				<title>工作表.38</title>
				<desc>rmqueue_bulk()</desc>
				<v:textBlock v:margins="rect(4,4,4,4)" v:tabSpace="42.5197"/>
				<v:textRect cx="49.6063" cy="297.301" width="99.22" height="14.1732"/>
				<rect x="0" y="290.215" width="99.2126" height="14.1732" class="st11"/>
				<text x="10.95" y="300.9" class="st7" v:langID="2052"><v:paragraph v:horizAlign="1"/><v:tabList/>rmqueue_bulk()</text>			</g>
		</g>
	</g>
</svg>
