<?xml version="1.0" encoding="UTF-8" standalone="no"?>
<!DOCTYPE svg PUBLIC "-//W3C//DTD SVG 1.1//EN" "http://www.w3.org/Graphics/SVG/1.1/DTD/svg11.dtd">
<!-- 由 Microsoft Visio, SVG Export 生成 buddy-allocator-4.svg 页-1 -->
<svg xmlns="http://www.w3.org/2000/svg" xmlns:xlink="http://www.w3.org/1999/xlink" xmlns:ev="http://www.w3.org/2001/xml-events"
		xmlns:v="http://schemas.microsoft.com/visio/2003/SVGExtensions/" width="8.05577in" height="3.55683in"
		viewBox="0 0 580.016 256.092" xml:space="preserve" color-interpolation-filters="sRGB" class="st26">
	<v:documentProperties v:langID="2052" v:metric="true" v:viewMarkup="false"/>

	<style type="text/css">
	<![CDATA[
		.st1 {visibility:visible}
		.st2 {fill:#5b9bd5;fill-opacity:0.22;filter:url(#filter_2);stroke:none}
		.st3 {fill:#f2f2f2;stroke:none;stroke-width:0.25}
		.st4 {fill:#5b9bd5;fill-opacity:0.22;filter:url(#filter_2);stroke:#5b9bd5;stroke-opacity:0.22}
		.st5 {fill:#ffc000;stroke:#000000;stroke-width:0.5}
		.st6 {fill:#000000;font-family:Times New Roman;font-size:1.00001em}
		.st7 {fill:#000000;font-family:Times New Roman;font-size:0.833336em}
		.st8 {font-size:1em}
		.st9 {stroke:#000000;stroke-dasharray:1.5,1.5;stroke-linecap:round;stroke-linejoin:round;stroke-width:0.5}
		.st10 {fill:#00b0f0;stroke:#000000;stroke-width:0.5}
		.st11 {fill:#000000;font-family:Times New Roman;font-size:0.75em}
		.st12 {fill:#99ff33;stroke:#000000;stroke-width:0.5}
		.st13 {fill:none;filter:url(#filter_2);stroke:none}
		.st14 {fill:#5b9bd5;filter:url(#filter_2);font-family:Times New Roman;font-size:0.75em;opacity:0.219608}
		.st15 {fill:none;stroke:none;stroke-width:0.25}
		.st16 {fill:#5b9bd5;filter:url(#filter_2);font-family:Times New Roman;font-size:0.833336em;opacity:0.219608}
		.st17 {fill:#00b0f0;font-size:1em}
		.st18 {fill:#5b9bd5;fill-opacity:0.22;filter:url(#filter_2);stroke:#5b9bd5;stroke-dasharray:3.5,2.5;stroke-opacity:0.22}
		.st19 {fill:#ffffff;stroke:#00b0f0;stroke-dasharray:3.5,2.5;stroke-width:0.5}
		.st20 {fill:#5b9bd5;filter:url(#filter_2);font-family:宋体;font-size:0.833336em;opacity:0.219608}
		.st21 {fill:#00b0f0;font-family:宋体;font-size:0.833336em}
		.st22 {marker-end:url(#mrkr3-256);stroke:#00b0f0;stroke-dasharray:3,3;stroke-linecap:round;stroke-linejoin:round;stroke-width:1}
		.st23 {fill:#00b0f0;fill-opacity:1;stroke:#00b0f0;stroke-opacity:1;stroke-width:0.28409090909091}
		.st24 {fill:#5b9bd5;fill-opacity:0.25;filter:url(#filter_2);stroke:#5b9bd5;stroke-opacity:0.25}
		.st25 {fill:#00fefe;stroke:#0070c0;stroke-width:0.25}
		.st26 {fill:none;fill-rule:evenodd;font-size:12px;overflow:visible;stroke-linecap:square;stroke-miterlimit:3}
	]]>
	</style>

	<defs id="Markers">
		<g id="lend3">
			<path d="M 2 1 L 0 0 L 2 -1 " style="stroke-linecap:round;stroke-linejoin:round;fill:none"/>
		</g>
		<marker id="mrkr3-256" class="st23" v:arrowType="3" v:arrowSize="2" orient="auto" markerUnits="strokeWidth"
				overflow="visible">
			<use xlink:href="#lend3" transform="scale(-3.52,-3.52) "/>
		</marker>
	</defs>
	<defs id="Filters">
		<filter id="filter_2">
			<feGaussianBlur stdDeviation="2"/>
		</filter>
	</defs>
	<g v:mID="0" v:index="1" v:groupContext="foregroundPage">
		<title>页-1</title>
		<v:pageProperties v:drawingScale="0.0393701" v:pageScale="0.0393701" v:drawingUnits="24" v:shadowOffsetX="8.50394"
				v:shadowOffsetY="-8.50394"/>
		<v:layer v:name="连接线" v:index="0"/>
		<g id="group68-1" transform="translate(2.6544,-10.3783)" v:mID="68" v:groupContext="group">
			<title>工作表.68</title>
			<g id="shape66-2" v:mID="66" v:groupContext="shape" transform="translate(0,-25.0011)">
				<title>矩形.66</title>
				<v:userDefs>
					<v:ud v:nameU="visVersion" v:val="VT0(15):26"/>
				</v:userDefs>
				<g id="shadow66-3" v:groupContext="shadow" v:shadowOffsetX="0.345598" v:shadowOffsetY="-1.97279" v:shadowType="1"
						transform="matrix(1,0,0,1,0.345598,1.97279)" class="st1">
					<rect x="0" y="156.879" width="574.016" height="99.2126" rx="0.708661" ry="0.708661" class="st2"/>
				</g>
				<rect x="0" y="156.879" width="574.016" height="99.2126" rx="0.708661" ry="0.708661" class="st3"/>
			</g>
			<g id="shape65-7" v:mID="65" v:groupContext="shape" transform="translate(0,-152.56)">
				<title>矩形.42</title>
				<v:userDefs>
					<v:ud v:nameU="visVersion" v:val="VT0(15):26"/>
				</v:userDefs>
				<g id="shadow65-8" v:groupContext="shadow" v:shadowOffsetX="0.345598" v:shadowOffsetY="-1.97279" v:shadowType="1"
						transform="matrix(1,0,0,1,0.345598,1.97279)" class="st1">
					<rect x="0" y="163.966" width="574.016" height="92.126" rx="0.708661" ry="0.708661" class="st2"/>
				</g>
				<rect x="0" y="163.966" width="574.016" height="92.126" rx="0.708661" ry="0.708661" class="st3"/>
			</g>
			<g id="shape1-12" v:mID="1" v:groupContext="shape" transform="translate(7.08661,-223.426)">
				<title>矩形.4</title>
				<desc>free_area[8]</desc>
				<v:userDefs>
					<v:ud v:nameU="visVersion" v:val="VT0(15):26"/>
				</v:userDefs>
				<v:textBlock v:margins="rect(4,4,4,4)" v:tabSpace="42.5197"/>
				<v:textRect cx="35.4331" cy="249.005" width="70.87" height="14.1732"/>
				<g id="shadow1-13" v:groupContext="shadow" v:shadowOffsetX="0.345598" v:shadowOffsetY="-1.97279" v:shadowType="1"
						transform="matrix(1,0,0,1,0.345598,1.97279)" class="st1">
					<rect x="0" y="241.918" width="70.8661" height="14.1732" rx="1.41732" ry="1.41732" class="st4"/>
				</g>
				<rect x="0" y="241.918" width="70.8661" height="14.1732" rx="1.41732" ry="1.41732" class="st5"/>
				<text x="6.13" y="252.61" class="st6" v:langID="2052"><v:paragraph v:horizAlign="1"/><v:tabList/>free_area[8]</text>			</g>
			<g id="shape2-18" v:mID="2" v:groupContext="shape" transform="translate(77.9528,-223.426)">
				<title>矩形.2</title>
				<desc>free_list[MIGRATE_UNMOVABLE]</desc>
				<v:userDefs>
					<v:ud v:nameU="visVersion" v:val="VT0(15):26"/>
				</v:userDefs>
				<v:textBlock v:margins="rect(4,4,4,4)" v:tabSpace="42.5197"/>
				<v:textRect cx="85.0394" cy="249.005" width="170.08" height="14.1732"/>
				<g id="shadow2-19" v:groupContext="shadow" v:shadowOffsetX="0.345598" v:shadowOffsetY="-1.97279" v:shadowType="1"
						transform="matrix(1,0,0,1,0.345598,1.97279)" class="st1">
					<rect x="0" y="241.918" width="170.079" height="14.1732" rx="1.41732" ry="1.41732" class="st4"/>
				</g>
				<rect x="0" y="241.918" width="170.079" height="14.1732" rx="1.41732" ry="1.41732" class="st5"/>
				<text x="8.11" y="252.61" class="st7" v:langID="2052"><v:paragraph v:horizAlign="1"/><v:tabList/>free_list[<tspan
							class="st8" v:langID="1033">MIGRATE</tspan><tspan class="st8" v:langID="1033">_</tspan><tspan
							class="st8" v:langID="1033">UNMOVABLE</tspan>]</text>			</g>
			<g id="shape4-27" v:mID="4" v:groupContext="shape" transform="translate(7.08661,-202.166)">
				<title>矩形.4</title>
				<desc>free_area[7]</desc>
				<v:userDefs>
					<v:ud v:nameU="visVersion" v:val="VT0(15):26"/>
				</v:userDefs>
				<v:textBlock v:margins="rect(4,4,4,4)" v:tabSpace="42.5197"/>
				<v:textRect cx="35.4331" cy="249.005" width="70.87" height="14.1732"/>
				<g id="shadow4-28" v:groupContext="shadow" v:shadowOffsetX="0.345598" v:shadowOffsetY="-1.97279" v:shadowType="1"
						transform="matrix(1,0,0,1,0.345598,1.97279)" class="st1">
					<rect x="0" y="241.918" width="70.8661" height="14.1732" rx="1.41732" ry="1.41732" class="st4"/>
				</g>
				<rect x="0" y="241.918" width="70.8661" height="14.1732" rx="1.41732" ry="1.41732" class="st5"/>
				<text x="6.13" y="252.61" class="st6" v:langID="2052"><v:paragraph v:horizAlign="1"/><v:tabList/>free_area[7]</text>			</g>
			<g id="shape5-33" v:mID="5" v:groupContext="shape" transform="translate(77.9528,-202.166)">
				<title>矩形.5</title>
				<desc>free_list[MIGRATE_UNMOVABLE]</desc>
				<v:userDefs>
					<v:ud v:nameU="visVersion" v:val="VT0(15):26"/>
				</v:userDefs>
				<v:textBlock v:margins="rect(4,4,4,4)" v:tabSpace="42.5197"/>
				<v:textRect cx="85.0394" cy="249.005" width="170.08" height="14.1732"/>
				<g id="shadow5-34" v:groupContext="shadow" v:shadowOffsetX="0.345598" v:shadowOffsetY="-1.97279" v:shadowType="1"
						transform="matrix(1,0,0,1,0.345598,1.97279)" class="st1">
					<rect x="0" y="241.918" width="170.079" height="14.1732" rx="1.41732" ry="1.41732" class="st4"/>
				</g>
				<rect x="0" y="241.918" width="170.079" height="14.1732" rx="1.41732" ry="1.41732" class="st5"/>
				<text x="8.11" y="252.61" class="st7" v:langID="2052"><v:paragraph v:horizAlign="1"/><v:tabList/>free_list[<tspan
							class="st8" v:langID="1033">MIGRATE</tspan><tspan class="st8" v:langID="1033">_</tspan><tspan
							class="st8" v:langID="1033">UNMOVABLE</tspan>]</text>			</g>
			<g id="shape6-42" v:mID="6" v:groupContext="shape" transform="translate(7.08661,-180.907)">
				<title>矩形.6</title>
				<desc>free_area[6]</desc>
				<v:userDefs>
					<v:ud v:nameU="visVersion" v:val="VT0(15):26"/>
				</v:userDefs>
				<v:textBlock v:margins="rect(4,4,4,4)" v:tabSpace="42.5197"/>
				<v:textRect cx="35.4331" cy="249.005" width="70.87" height="14.1732"/>
				<g id="shadow6-43" v:groupContext="shadow" v:shadowOffsetX="0.345598" v:shadowOffsetY="-1.97279" v:shadowType="1"
						transform="matrix(1,0,0,1,0.345598,1.97279)" class="st1">
					<rect x="0" y="241.918" width="70.8661" height="14.1732" rx="1.41732" ry="1.41732" class="st4"/>
				</g>
				<rect x="0" y="241.918" width="70.8661" height="14.1732" rx="1.41732" ry="1.41732" class="st5"/>
				<text x="6.13" y="252.61" class="st6" v:langID="2052"><v:paragraph v:horizAlign="1"/><v:tabList/>free_area[6]</text>			</g>
			<g id="shape7-48" v:mID="7" v:groupContext="shape" transform="translate(77.9528,-180.907)">
				<title>矩形.7</title>
				<desc>free_list[MIGRATE_UNMOVABLE]</desc>
				<v:userDefs>
					<v:ud v:nameU="visVersion" v:val="VT0(15):26"/>
				</v:userDefs>
				<v:textBlock v:margins="rect(4,4,4,4)" v:tabSpace="42.5197"/>
				<v:textRect cx="85.0394" cy="249.005" width="170.08" height="14.1732"/>
				<g id="shadow7-49" v:groupContext="shadow" v:shadowOffsetX="0.345598" v:shadowOffsetY="-1.97279" v:shadowType="1"
						transform="matrix(1,0,0,1,0.345598,1.97279)" class="st1">
					<rect x="0" y="241.918" width="170.079" height="14.1732" rx="1.41732" ry="1.41732" class="st4"/>
				</g>
				<rect x="0" y="241.918" width="170.079" height="14.1732" rx="1.41732" ry="1.41732" class="st5"/>
				<text x="8.11" y="252.61" class="st7" v:langID="2052"><v:paragraph v:horizAlign="1"/><v:tabList/>free_list[<tspan
							class="st8" v:langID="1033">MIGRATE</tspan><tspan class="st8" v:langID="1033">_</tspan><tspan
							class="st8" v:langID="1033">UNMOVABLE</tspan>]</text>			</g>
			<g id="shape8-57" v:mID="8" v:groupContext="shape" transform="translate(7.08661,-159.647)">
				<title>矩形.8</title>
				<desc>free_area[5]</desc>
				<v:userDefs>
					<v:ud v:nameU="visVersion" v:val="VT0(15):26"/>
				</v:userDefs>
				<v:textBlock v:margins="rect(4,4,4,4)" v:tabSpace="42.5197"/>
				<v:textRect cx="35.4331" cy="249.005" width="70.87" height="14.1732"/>
				<g id="shadow8-58" v:groupContext="shadow" v:shadowOffsetX="0.345598" v:shadowOffsetY="-1.97279" v:shadowType="1"
						transform="matrix(1,0,0,1,0.345598,1.97279)" class="st1">
					<rect x="0" y="241.918" width="70.8661" height="14.1732" rx="1.41732" ry="1.41732" class="st4"/>
				</g>
				<rect x="0" y="241.918" width="70.8661" height="14.1732" rx="1.41732" ry="1.41732" class="st5"/>
				<text x="6.13" y="252.61" class="st6" v:langID="2052"><v:paragraph v:horizAlign="1"/><v:tabList/>free_area[5]</text>			</g>
			<g id="shape9-63" v:mID="9" v:groupContext="shape" transform="translate(77.9528,-159.647)">
				<title>矩形.9</title>
				<desc>free_list[MIGRATE_UNMOVABLE]</desc>
				<v:userDefs>
					<v:ud v:nameU="visVersion" v:val="VT0(15):26"/>
				</v:userDefs>
				<v:textBlock v:margins="rect(4,4,4,4)" v:tabSpace="42.5197"/>
				<v:textRect cx="85.0394" cy="249.005" width="170.08" height="14.1732"/>
				<g id="shadow9-64" v:groupContext="shadow" v:shadowOffsetX="0.345598" v:shadowOffsetY="-1.97279" v:shadowType="1"
						transform="matrix(1,0,0,1,0.345598,1.97279)" class="st1">
					<rect x="0" y="241.918" width="170.079" height="14.1732" rx="1.41732" ry="1.41732" class="st4"/>
				</g>
				<rect x="0" y="241.918" width="170.079" height="14.1732" rx="1.41732" ry="1.41732" class="st5"/>
				<text x="8.11" y="252.61" class="st7" v:langID="2052"><v:paragraph v:horizAlign="1"/><v:tabList/>free_list[<tspan
							class="st8" v:langID="1033">MIGRATE</tspan><tspan class="st8" v:langID="1033">_</tspan><tspan
							class="st8" v:langID="1033">UNMOVABLE</tspan>]</text>			</g>
			<g id="shape10-72" v:mID="10" v:groupContext="shape" transform="translate(248.031,-230.513)">
				<title>工作表.10</title>
				<path d="M0 256.09 L318.9 256.09" class="st9"/>
			</g>
			<g id="shape14-75" v:mID="14" v:groupContext="shape" transform="translate(248.031,-209.253)">
				<title>工作表.14</title>
				<path d="M0 256.09 L318.9 256.09" class="st9"/>
			</g>
			<g id="shape16-78" v:mID="16" v:groupContext="shape" transform="translate(248.031,-187.993)">
				<title>工作表.16</title>
				<path d="M0 256.09 L318.9 256.09" class="st9"/>
			</g>
			<g id="shape17-81" v:mID="17" v:groupContext="shape" transform="translate(248.031,-166.733)">
				<title>工作表.17</title>
				<path d="M0 256.09 L318.9 256.09" class="st9"/>
			</g>
			<g id="shape44-84" v:mID="44" v:groupContext="shape" transform="translate(262.205,-226.261)">
				<title>矩形.44</title>
				<desc>0x2000 ~ 0x20ff</desc>
				<v:userDefs>
					<v:ud v:nameU="visVersion" v:val="VT0(15):26"/>
				</v:userDefs>
				<v:textBlock v:margins="rect(4,4,4,4)" v:tabSpace="42.5197"/>
				<v:textRect cx="141.732" cy="251.84" width="283.47" height="8.50394"/>
				<g id="shadow44-85" v:groupContext="shadow" v:shadowOffsetX="0.345598" v:shadowOffsetY="-1.97279" v:shadowType="1"
						transform="matrix(1,0,0,1,0.345598,1.97279)" class="st1">
					<rect x="0" y="247.588" width="283.465" height="8.50394" rx="1.41732" ry="1.41732" class="st4"/>
				</g>
				<rect x="0" y="247.588" width="283.465" height="8.50394" rx="1.41732" ry="1.41732" class="st10"/>
				<text x="111.55" y="254.54" class="st11" v:langID="2052"><v:paragraph v:horizAlign="1"/><v:tabList/>0x2000 ~ 0x20ff</text>			</g>
			<g id="shape50-90" v:mID="50" v:groupContext="shape" transform="translate(262.205,-10.3172)">
				<title>矩形.50</title>
				<v:userDefs>
					<v:ud v:nameU="visVersion" v:val="VT0(15):26"/>
				</v:userDefs>
				<g id="shadow50-91" v:groupContext="shadow" v:shadowOffsetX="0.345598" v:shadowOffsetY="-1.97279" v:shadowType="1"
						transform="matrix(1,0,0,1,0.345598,1.97279)" class="st1">
					<rect x="0" y="247.588" width="35.4331" height="8.50394" rx="1.41732" ry="1.41732" class="st4"/>
				</g>
				<rect x="0" y="247.588" width="35.4331" height="8.50394" rx="1.41732" ry="1.41732" class="st12"/>
			</g>
			<g id="shape56-95" v:mID="56" v:groupContext="shape" transform="translate(243.636,0)">
				<title>工作表.56</title>
				<desc>0x2020 ~ 0x201f</desc>
				<v:textBlock v:margins="rect(4,4,4,4)" v:tabSpace="42.5197"/>
				<v:textRect cx="36.2855" cy="252.35" width="72.58" height="7.4826"/>
				<g id="shadow56-96" v:groupContext="shadow" v:shadowOffsetX="0.345598" v:shadowOffsetY="-1.97279" v:shadowType="1"
						transform="matrix(1,0,0,1,0.345598,1.97279)" class="st1">
					<rect x="0" y="248.609" width="72.571" height="7.4826" class="st13"/>
					<text x="5.35" y="255.05" class="st14" v:langID="2052"><v:paragraph v:horizAlign="1"/><v:tabList/>0x2020 ~ 0x201f</text>				</g>
				<rect x="0" y="248.609" width="72.571" height="7.4826" class="st15"/>
				<text x="5.35" y="255.05" class="st11" v:langID="2052"><v:paragraph v:horizAlign="1"/><v:tabList/>0x2020 ~ 0x201f</text>			</g>
			<g id="shape57-103" v:mID="57" v:groupContext="shape" transform="translate(124.016,-131.3)">
				<title>工作表.57</title>
				<desc>expand(zone, page, low, high, area, migratetype)</desc>
				<v:textBlock v:margins="rect(4,4,4,4)" v:tabSpace="42.5197"/>
				<v:textRect cx="102.756" cy="249.005" width="205.52" height="14.1732"/>
				<g id="shadow57-104" v:groupContext="shadow" v:shadowOffsetX="0.345598" v:shadowOffsetY="-1.97279" v:shadowType="1"
						transform="matrix(1,0,0,1,0.345598,1.97279)" class="st1">
					<rect x="0" y="241.918" width="205.512" height="14.1732" class="st13"/>
					<text x="5.02" y="252.01" class="st16" v:langID="1033"><v:paragraph v:horizAlign="1"/><v:tabList/>expand(zone, page,<tspan
								class="st8" v:langID="2052"> </tspan>low, high, area,<tspan class="st8" v:langID="2052"> </tspan>migratetype)</text>				</g>
				<rect x="0" y="241.918" width="205.512" height="14.1732" class="st15"/>
				<text x="5.02" y="252.01" class="st7" v:langID="1033"><v:paragraph v:horizAlign="1"/><v:tabList/>expand(<tspan
							class="st17">zone</tspan><tspan class="st17">, </tspan><tspan class="st17">page</tspan><tspan
							class="st17">,</tspan><tspan class="st17" v:langID="2052"> </tspan><tspan class="st17">low</tspan><tspan
							class="st17">, </tspan><tspan class="st17">high</tspan><tspan class="st17">, </tspan><tspan
							class="st17">area</tspan><tspan class="st17">,</tspan><tspan class="st17" v:langID="2052"> </tspan><tspan
							class="st17">migratetype</tspan>)</text>			</g>
			<g id="shape31-126" v:mID="31" v:groupContext="shape" transform="translate(7.08661,-102.954)">
				<title>矩形.1</title>
				<desc>free_area[8]</desc>
				<v:userDefs>
					<v:ud v:nameU="visVersion" v:val="VT0(15):26"/>
				</v:userDefs>
				<v:textBlock v:margins="rect(4,4,4,4)" v:tabSpace="42.5197"/>
				<v:textRect cx="35.4331" cy="249.005" width="70.87" height="14.1732"/>
				<g id="shadow31-127" v:groupContext="shadow" v:shadowOffsetX="0.345598" v:shadowOffsetY="-1.97279" v:shadowType="1"
						transform="matrix(1,0,0,1,0.345598,1.97279)" class="st1">
					<rect x="0" y="241.918" width="70.8661" height="14.1732" rx="1.41732" ry="1.41732" class="st4"/>
				</g>
				<rect x="0" y="241.918" width="70.8661" height="14.1732" rx="1.41732" ry="1.41732" class="st5"/>
				<text x="6.13" y="252.61" class="st6" v:langID="2052"><v:paragraph v:horizAlign="1"/><v:tabList/>free_area[8]</text>			</g>
			<g id="shape32-132" v:mID="32" v:groupContext="shape" transform="translate(77.9528,-102.954)">
				<title>矩形.32</title>
				<desc>free_list[MIGRATE_UNMOVABLE]</desc>
				<v:userDefs>
					<v:ud v:nameU="visVersion" v:val="VT0(15):26"/>
				</v:userDefs>
				<v:textBlock v:margins="rect(4,4,4,4)" v:tabSpace="42.5197"/>
				<v:textRect cx="85.0394" cy="249.005" width="170.08" height="14.1732"/>
				<g id="shadow32-133" v:groupContext="shadow" v:shadowOffsetX="0.345598" v:shadowOffsetY="-1.97279" v:shadowType="1"
						transform="matrix(1,0,0,1,0.345598,1.97279)" class="st1">
					<rect x="0" y="241.918" width="170.079" height="14.1732" rx="1.41732" ry="1.41732" class="st4"/>
				</g>
				<rect x="0" y="241.918" width="170.079" height="14.1732" rx="1.41732" ry="1.41732" class="st5"/>
				<text x="8.11" y="252.61" class="st7" v:langID="2052"><v:paragraph v:horizAlign="1"/><v:tabList/>free_list[<tspan
							class="st8" v:langID="1033">MIGRATE</tspan><tspan class="st8" v:langID="1033">_</tspan><tspan
							class="st8" v:langID="1033">UNMOVABLE</tspan>]</text>			</g>
			<g id="shape33-141" v:mID="33" v:groupContext="shape" transform="translate(7.08661,-81.6941)">
				<title>Rectangle.4</title>
				<desc>free_area[7]</desc>
				<v:userDefs>
					<v:ud v:nameU="visVersion" v:val="VT0(15):26"/>
				</v:userDefs>
				<v:textBlock v:margins="rect(4,4,4,4)" v:tabSpace="42.5197"/>
				<v:textRect cx="35.4331" cy="249.005" width="70.87" height="14.1732"/>
				<g id="shadow33-142" v:groupContext="shadow" v:shadowOffsetX="0.345598" v:shadowOffsetY="-1.97279" v:shadowType="1"
						transform="matrix(1,0,0,1,0.345598,1.97279)" class="st1">
					<rect x="0" y="241.918" width="70.8661" height="14.1732" rx="1.41732" ry="1.41732" class="st4"/>
				</g>
				<rect x="0" y="241.918" width="70.8661" height="14.1732" rx="1.41732" ry="1.41732" class="st5"/>
				<text x="6.13" y="252.61" class="st6" v:langID="2052"><v:paragraph v:horizAlign="1"/><v:tabList/>free_area[7]</text>			</g>
			<g id="shape34-147" v:mID="34" v:groupContext="shape" transform="translate(77.9528,-81.6941)">
				<title>矩形.34</title>
				<desc>free_list[MIGRATE_UNMOVABLE]</desc>
				<v:userDefs>
					<v:ud v:nameU="visVersion" v:val="VT0(15):26"/>
				</v:userDefs>
				<v:textBlock v:margins="rect(4,4,4,4)" v:tabSpace="42.5197"/>
				<v:textRect cx="85.0394" cy="249.005" width="170.08" height="14.1732"/>
				<g id="shadow34-148" v:groupContext="shadow" v:shadowOffsetX="0.345598" v:shadowOffsetY="-1.97279" v:shadowType="1"
						transform="matrix(1,0,0,1,0.345598,1.97279)" class="st1">
					<rect x="0" y="241.918" width="170.079" height="14.1732" rx="1.41732" ry="1.41732" class="st4"/>
				</g>
				<rect x="0" y="241.918" width="170.079" height="14.1732" rx="1.41732" ry="1.41732" class="st5"/>
				<text x="8.11" y="252.61" class="st7" v:langID="2052"><v:paragraph v:horizAlign="1"/><v:tabList/>free_list[<tspan
							class="st8" v:langID="1033">MIGRATE</tspan><tspan class="st8" v:langID="1033">_</tspan><tspan
							class="st8" v:langID="1033">UNMOVABLE</tspan>]</text>			</g>
			<g id="shape35-156" v:mID="35" v:groupContext="shape" transform="translate(7.08661,-60.4342)">
				<title>矩形.35</title>
				<desc>free_area[6]</desc>
				<v:userDefs>
					<v:ud v:nameU="visVersion" v:val="VT0(15):26"/>
				</v:userDefs>
				<v:textBlock v:margins="rect(4,4,4,4)" v:tabSpace="42.5197"/>
				<v:textRect cx="35.4331" cy="249.005" width="70.87" height="14.1732"/>
				<g id="shadow35-157" v:groupContext="shadow" v:shadowOffsetX="0.345598" v:shadowOffsetY="-1.97279" v:shadowType="1"
						transform="matrix(1,0,0,1,0.345598,1.97279)" class="st1">
					<rect x="0" y="241.918" width="70.8661" height="14.1732" rx="1.41732" ry="1.41732" class="st4"/>
				</g>
				<rect x="0" y="241.918" width="70.8661" height="14.1732" rx="1.41732" ry="1.41732" class="st5"/>
				<text x="6.13" y="252.61" class="st6" v:langID="2052"><v:paragraph v:horizAlign="1"/><v:tabList/>free_area[6]</text>			</g>
			<g id="shape36-162" v:mID="36" v:groupContext="shape" transform="translate(77.9528,-60.4342)">
				<title>矩形.36</title>
				<desc>free_list[MIGRATE_UNMOVABLE]</desc>
				<v:userDefs>
					<v:ud v:nameU="visVersion" v:val="VT0(15):26"/>
				</v:userDefs>
				<v:textBlock v:margins="rect(4,4,4,4)" v:tabSpace="42.5197"/>
				<v:textRect cx="85.0394" cy="249.005" width="170.08" height="14.1732"/>
				<g id="shadow36-163" v:groupContext="shadow" v:shadowOffsetX="0.345598" v:shadowOffsetY="-1.97279" v:shadowType="1"
						transform="matrix(1,0,0,1,0.345598,1.97279)" class="st1">
					<rect x="0" y="241.918" width="170.079" height="14.1732" rx="1.41732" ry="1.41732" class="st4"/>
				</g>
				<rect x="0" y="241.918" width="170.079" height="14.1732" rx="1.41732" ry="1.41732" class="st5"/>
				<text x="8.11" y="252.61" class="st7" v:langID="2052"><v:paragraph v:horizAlign="1"/><v:tabList/>free_list[<tspan
							class="st8" v:langID="1033">MIGRATE</tspan><tspan class="st8" v:langID="1033">_</tspan><tspan
							class="st8" v:langID="1033">UNMOVABLE</tspan>]</text>			</g>
			<g id="shape37-171" v:mID="37" v:groupContext="shape" transform="translate(7.08661,-39.1744)">
				<title>矩形.37</title>
				<desc>free_area[5]</desc>
				<v:userDefs>
					<v:ud v:nameU="visVersion" v:val="VT0(15):26"/>
				</v:userDefs>
				<v:textBlock v:margins="rect(4,4,4,4)" v:tabSpace="42.5197"/>
				<v:textRect cx="35.4331" cy="249.005" width="70.87" height="14.1732"/>
				<g id="shadow37-172" v:groupContext="shadow" v:shadowOffsetX="0.345598" v:shadowOffsetY="-1.97279" v:shadowType="1"
						transform="matrix(1,0,0,1,0.345598,1.97279)" class="st1">
					<rect x="0" y="241.918" width="70.8661" height="14.1732" rx="1.41732" ry="1.41732" class="st4"/>
				</g>
				<rect x="0" y="241.918" width="70.8661" height="14.1732" rx="1.41732" ry="1.41732" class="st5"/>
				<text x="6.13" y="252.61" class="st6" v:langID="2052"><v:paragraph v:horizAlign="1"/><v:tabList/>free_area[5]</text>			</g>
			<g id="shape38-177" v:mID="38" v:groupContext="shape" transform="translate(77.9528,-39.1744)">
				<title>矩形.38</title>
				<desc>free_list[MIGRATE_UNMOVABLE]</desc>
				<v:userDefs>
					<v:ud v:nameU="visVersion" v:val="VT0(15):26"/>
				</v:userDefs>
				<v:textBlock v:margins="rect(4,4,4,4)" v:tabSpace="42.5197"/>
				<v:textRect cx="85.0394" cy="249.005" width="170.08" height="14.1732"/>
				<g id="shadow38-178" v:groupContext="shadow" v:shadowOffsetX="0.345598" v:shadowOffsetY="-1.97279" v:shadowType="1"
						transform="matrix(1,0,0,1,0.345598,1.97279)" class="st1">
					<rect x="0" y="241.918" width="170.079" height="14.1732" rx="1.41732" ry="1.41732" class="st4"/>
				</g>
				<rect x="0" y="241.918" width="170.079" height="14.1732" rx="1.41732" ry="1.41732" class="st5"/>
				<text x="8.11" y="252.61" class="st7" v:langID="2052"><v:paragraph v:horizAlign="1"/><v:tabList/>free_list[<tspan
							class="st8" v:langID="1033">MIGRATE</tspan><tspan class="st8" v:langID="1033">_</tspan><tspan
							class="st8" v:langID="1033">UNMOVABLE</tspan>]</text>			</g>
			<g id="shape39-186" v:mID="39" v:groupContext="shape" transform="translate(248.031,-110.041)">
				<title>工作表.39</title>
				<path d="M0 256.09 L318.9 256.09" class="st9"/>
			</g>
			<g id="shape40-189" v:mID="40" v:groupContext="shape" transform="translate(248.031,-88.7807)">
				<title>工作表.40</title>
				<path d="M0 256.09 L318.9 256.09" class="st9"/>
			</g>
			<g id="shape41-192" v:mID="41" v:groupContext="shape" transform="translate(403.937,-84.5287)">
				<title>矩形.41</title>
				<desc>0x2080 ~ 0x20ff</desc>
				<v:userDefs>
					<v:ud v:nameU="visVersion" v:val="VT0(15):26"/>
				</v:userDefs>
				<v:textBlock v:margins="rect(4,4,4,4)" v:tabSpace="42.5197"/>
				<v:textRect cx="70.8661" cy="251.84" width="141.74" height="8.50394"/>
				<g id="shadow41-193" v:groupContext="shadow" v:shadowOffsetX="0.345598" v:shadowOffsetY="-1.97279" v:shadowType="1"
						transform="matrix(1,0,0,1,0.345598,1.97279)" class="st1">
					<rect x="0" y="247.588" width="141.732" height="8.50394" rx="1.41732" ry="1.41732" class="st4"/>
				</g>
				<rect x="0" y="247.588" width="141.732" height="8.50394" rx="1.41732" ry="1.41732" class="st10"/>
				<text x="40.68" y="254.54" class="st11" v:langID="2052"><v:paragraph v:horizAlign="1"/><v:tabList/>0x2080 ~ 0x20ff</text>			</g>
			<g id="shape42-198" v:mID="42" v:groupContext="shape" transform="translate(248.031,-67.5208)">
				<title>工作表.42</title>
				<path d="M0 256.09 L318.9 256.09" class="st9"/>
			</g>
			<g id="shape43-201" v:mID="43" v:groupContext="shape" transform="translate(248.031,-46.261)">
				<title>工作表.43</title>
				<path d="M0 256.09 L318.9 256.09" class="st9"/>
			</g>
			<g id="shape46-204" v:mID="46" v:groupContext="shape" transform="translate(297.638,-42.009)">
				<title>矩形.46</title>
				<v:userDefs>
					<v:ud v:nameU="visVersion" v:val="VT0(15):26"/>
				</v:userDefs>
				<g id="shadow46-205" v:groupContext="shadow" v:shadowOffsetX="0.345598" v:shadowOffsetY="-1.97279" v:shadowType="1"
						transform="matrix(1,0,0,1,0.345598,1.97279)" class="st1">
					<rect x="0" y="247.588" width="35.4331" height="8.50394" rx="1.41732" ry="1.41732" class="st4"/>
				</g>
				<rect x="0" y="247.588" width="35.4331" height="8.50394" rx="1.41732" ry="1.41732" class="st10"/>
			</g>
			<g id="shape45-209" v:mID="45" v:groupContext="shape" transform="translate(333.071,-63.2689)">
				<title>矩形.45</title>
				<desc>0x2040 ~ 0x207f</desc>
				<v:userDefs>
					<v:ud v:nameU="visVersion" v:val="VT0(15):26"/>
				</v:userDefs>
				<v:textBlock v:margins="rect(4,4,4,4)" v:tabSpace="42.5197"/>
				<v:textRect cx="35.4331" cy="251.84" width="70.87" height="8.50394"/>
				<g id="shadow45-210" v:groupContext="shadow" v:shadowOffsetX="0.345598" v:shadowOffsetY="-1.97279" v:shadowType="1"
						transform="matrix(1,0,0,1,0.345598,1.97279)" class="st1">
					<rect x="0" y="247.588" width="70.8661" height="8.50394" rx="1.41732" ry="1.41732" class="st4"/>
				</g>
				<rect x="0" y="247.588" width="70.8661" height="8.50394" rx="1.41732" ry="1.41732" class="st10"/>
				<text x="4.5" y="254.54" class="st11" v:langID="2052"><v:paragraph v:horizAlign="1"/><v:tabList/>0x2040 ~ 0x207f</text>			</g>
			<g id="shape47-215" v:mID="47" v:groupContext="shape" transform="translate(281.76,-32.0878)">
				<title>工作表.47</title>
				<desc>0x2020 ~ 0x203f</desc>
				<v:textBlock v:margins="rect(4,4,4,4)" v:tabSpace="42.5197"/>
				<v:textRect cx="36.2855" cy="252.35" width="72.58" height="7.4826"/>
				<g id="shadow47-216" v:groupContext="shadow" v:shadowOffsetX="0.345598" v:shadowOffsetY="-1.97279" v:shadowType="1"
						transform="matrix(1,0,0,1,0.345598,1.97279)" class="st1">
					<rect x="0" y="248.609" width="72.571" height="7.4826" class="st13"/>
					<text x="5.35" y="255.05" class="st14" v:langID="2052"><v:paragraph v:horizAlign="1"/><v:tabList/>0x2020 ~ 0x203f</text>				</g>
				<rect x="0" y="248.609" width="72.571" height="7.4826" class="st15"/>
				<text x="5.35" y="255.05" class="st11" v:langID="2052"><v:paragraph v:horizAlign="1"/><v:tabList/>0x2020 ~ 0x203f</text>			</g>
			<g id="shape54-223" v:mID="54" v:groupContext="shape" transform="translate(262.205,-42.009)">
				<title>矩形.54</title>
				<v:userDefs>
					<v:ud v:nameU="visVersion" v:val="VT0(15):26"/>
				</v:userDefs>
				<g id="shadow54-224" v:groupContext="shadow" v:shadowOffsetX="0.345598" v:shadowOffsetY="-1.97279" v:shadowType="1"
						transform="matrix(1,0,0,1,0.345598,1.97279)" class="st1">
					<rect x="0" y="247.588" width="35.4331" height="8.50394" rx="1.41732" ry="1.41732" class="st18"/>
				</g>
				<rect x="0" y="247.588" width="35.4331" height="8.50394" rx="1.41732" ry="1.41732" class="st19"/>
			</g>
			<g id="shape53-228" v:mID="53" v:groupContext="shape" transform="translate(262.205,-63.2689)">
				<title>矩形.53</title>
				<v:userDefs>
					<v:ud v:nameU="visVersion" v:val="VT0(15):26"/>
				</v:userDefs>
				<g id="shadow53-229" v:groupContext="shadow" v:shadowOffsetX="0.345598" v:shadowOffsetY="-1.97279" v:shadowType="1"
						transform="matrix(1,0,0,1,0.345598,1.97279)" class="st1">
					<rect x="0" y="247.588" width="70.8661" height="8.50394" rx="1.41732" ry="1.41732" class="st18"/>
				</g>
				<rect x="0" y="247.588" width="70.8661" height="8.50394" rx="1.41732" ry="1.41732" class="st19"/>
			</g>
			<g id="shape52-233" v:mID="52" v:groupContext="shape" transform="translate(262.205,-84.5287)">
				<title>矩形.52</title>
				<v:userDefs>
					<v:ud v:nameU="visVersion" v:val="VT0(15):26"/>
				</v:userDefs>
				<g id="shadow52-234" v:groupContext="shadow" v:shadowOffsetX="0.345598" v:shadowOffsetY="-1.97279" v:shadowType="1"
						transform="matrix(1,0,0,1,0.345598,1.97279)" class="st1">
					<rect x="0" y="247.588" width="141.732" height="8.50394" rx="1.41732" ry="1.41732" class="st18"/>
				</g>
				<rect x="0" y="247.588" width="141.732" height="8.50394" rx="1.41732" ry="1.41732" class="st19"/>
			</g>
			<g id="shape51-238" v:mID="51" v:groupContext="shape" transform="translate(262.205,-105.789)">
				<title>矩形.51</title>
				<v:userDefs>
					<v:ud v:nameU="visVersion" v:val="VT0(15):26"/>
				</v:userDefs>
				<g id="shadow51-239" v:groupContext="shadow" v:shadowOffsetX="0.345598" v:shadowOffsetY="-1.97279" v:shadowType="1"
						transform="matrix(1,0,0,1,0.345598,1.97279)" class="st1">
					<rect x="0" y="247.588" width="283.465" height="8.50394" rx="1.41732" ry="1.41732" class="st18"/>
				</g>
				<rect x="0" y="247.588" width="283.465" height="8.50394" rx="1.41732" ry="1.41732" class="st19"/>
			</g>
			<g id="shape59-243" v:mID="59" v:groupContext="shape" transform="translate(340.157,-131.3)">
				<title>工作表.59</title>
				<desc>将更大阶数的复合页帧分解成更小阶数的复合页帧</desc>
				<v:textBlock v:margins="rect(4,4,4,4)" v:tabSpace="42.5197"/>
				<v:textRect cx="116.929" cy="249.005" width="233.86" height="14.1732"/>
				<g id="shadow59-244" v:groupContext="shadow" v:shadowOffsetX="0.345598" v:shadowOffsetY="-1.97279" v:shadowType="1"
						transform="matrix(1,0,0,1,0.345598,1.97279)" class="st1">
					<rect x="0" y="241.918" width="233.858" height="14.1732" class="st13"/>
					<text x="6.93" y="252.3" class="st20" v:langID="2052"><v:paragraph v:horizAlign="1"/><v:tabList/>将更大阶数的复合页帧分解成更小阶数的复合页帧</text>				</g>
				<rect x="0" y="241.918" width="233.858" height="14.1732" class="st15"/>
				<text x="6.93" y="252.3" class="st21" v:langID="2052"><v:paragraph v:horizAlign="1"/><v:tabList/>将更大阶数的复合页帧分解成更小阶数的复合页帧</text>			</g>
			<g id="shape60-251" v:mID="60" v:groupContext="shape" v:layerMember="0"
					transform="translate(134.849,344.81) rotate(-156.29)">
				<title>波浪连接线 1.33</title>
				<v:userDefs>
					<v:ud v:nameU="Scale" v:val="VT0(1):26"/>
					<v:ud v:nameU="AntiScale" v:val="VT0(1):26"/>
					<v:ud v:nameU="visVersion" v:val="VT0(15):26"/>
				</v:userDefs>
				<path d="M0 256.09 C31.1 281.8 138.93 199.25 189.63 256.09" class="st22"/>
			</g>
			<g id="shape61-257" v:mID="61" v:groupContext="shape" v:layerMember="0"
					transform="translate(99.3604,-102.918) rotate(-26.9522) scale(-1,1)">
				<title>波浪连接线 1.61</title>
				<v:userDefs>
					<v:ud v:nameU="Scale" v:val="VT0(1):26"/>
					<v:ud v:nameU="AntiScale" v:val="VT0(1):26"/>
					<v:ud v:nameU="visVersion" v:val="VT0(15):26"/>
				</v:userDefs>
				<path d="M0 256.09 C30.49 272.36 118.12 218.13 168.86 256.09" class="st22"/>
			</g>
			<g id="shape62-262" v:mID="62" v:groupContext="shape" transform="translate(141.732,-7.4826)">
				<title>工作表.62</title>
				<desc>分配的空闲页帧集合</desc>
				<v:textBlock v:margins="rect(4,4,4,4)" v:tabSpace="42.5197"/>
				<v:textRect cx="50.4921" cy="249.005" width="100.99" height="14.1732"/>
				<g id="shadow62-263" v:groupContext="shadow" v:shadowOffsetX="0.345598" v:shadowOffsetY="-1.97279" v:shadowType="1"
						transform="matrix(1,0,0,1,0.345598,1.97279)" class="st1">
					<rect x="0" y="241.918" width="100.984" height="14.1732" class="st13"/>
					<text x="5.49" y="252.3" class="st20" v:langID="2052"><v:paragraph v:horizAlign="1"/><v:tabList/>分配的空闲页帧集合</text>				</g>
				<rect x="0" y="241.918" width="100.984" height="14.1732" class="st15"/>
				<text x="5.49" y="252.3" class="st21" v:langID="2052"><v:paragraph v:horizAlign="1"/><v:tabList/>分配的空闲页帧集合</text>			</g>
			<g id="shape63-270" v:mID="63" v:groupContext="shape" transform="translate(80.709,130.461) rotate(-90)">
				<title>普通箭头</title>
				<v:userDefs>
					<v:ud v:nameU="visVersion" v:val="VT0(15):26"/>
					<v:ud v:nameU="ArrowType" v:prompt="" v:val="VT0(2):26"/>
				</v:userDefs>
				<g id="shadow63-271" v:groupContext="shadow" v:shadowOffsetX="0.345598" v:shadowOffsetY="-1.97279" v:shadowType="1"
						transform="matrix(1,0,0,1,-1.97279,0.345598)" class="st1">
					<path d="M0 256.09 L8.79 251.11 L8.79 253.6 L21.26 253.6 L21.26 256.09 L21.26 258.58 L8.79 258.58 L8.79 261.07
								 L0 256.09 Z" class="st24"/>
				</g>
				<path d="M0 256.09 L8.79 251.11 L8.79 253.6 L21.26 253.6 L21.26 256.09 L21.26 258.58 L8.79 258.58 L8.79 261.07 L0
							 256.09 Z" class="st25"/>
			</g>
		</g>
	</g>
</svg>
