<?xml version="1.0" encoding="UTF-8" standalone="no"?>
<!DOCTYPE svg PUBLIC "-//W3C//DTD SVG 1.1//EN" "http://www.w3.org/Graphics/SVG/1.1/DTD/svg11.dtd">
<!-- 由 Microsoft Visio, SVG Export 生成 compaction-2.svg 页-1 -->
<svg xmlns="http://www.w3.org/2000/svg" xmlns:xlink="http://www.w3.org/1999/xlink" xmlns:ev="http://www.w3.org/2001/xml-events"
		xmlns:v="http://schemas.microsoft.com/visio/2003/SVGExtensions/" width="6.41654in" height="3.83779in"
		viewBox="0 0 461.991 276.321" xml:space="preserve" color-interpolation-filters="sRGB" class="st17">
	<v:documentProperties v:langID="2052" v:metric="true" v:viewMarkup="false"/>

	<style type="text/css">
	<![CDATA[
		.st1 {visibility:visible}
		.st2 {fill:#5b9bd5;fill-opacity:0.22;filter:url(#filter_2);stroke:#5b9bd5;stroke-dasharray:1.5,1.5;stroke-opacity:0.22}
		.st3 {fill:#fff2cc;stroke:#0070c0;stroke-dasharray:1.5,1.5;stroke-width:0.5}
		.st4 {fill:#5b9bd5;fill-opacity:0.22;filter:url(#filter_2);stroke:#5b9bd5;stroke-opacity:0.22}
		.st5 {fill:#fff2cc;stroke:#0070c0;stroke-width:0.5}
		.st6 {fill:#000000;font-family:Times New Roman;font-size:1.00001em}
		.st7 {fill:none;filter:url(#filter_2);stroke:none}
		.st8 {fill:#5b9bd5;filter:url(#filter_2);font-family:Times New Roman;font-size:1.00001em;opacity:0.219608}
		.st9 {font-family:宋体;font-size:1em}
		.st10 {fill:none;stroke:none;stroke-width:0.25}
		.st11 {fill:#ffc000;stroke:#0070c0;stroke-width:0.25}
		.st12 {fill:#00b0f0;stroke:#000000;stroke-width:0.5}
		.st13 {marker-end:url(#mrkr3-88);stroke:#ff0000;stroke-dasharray:2.25,2.25;stroke-linecap:round;stroke-linejoin:round;stroke-width:0.75}
		.st14 {fill:#ff0000;fill-opacity:1;stroke:#ff0000;stroke-opacity:1;stroke-width:0.22935779816514}
		.st15 {marker-end:url(#mrkr3-88);stroke:#ff0000;stroke-linecap:round;stroke-linejoin:round;stroke-width:0.75}
		.st16 {font-size:1em}
		.st17 {fill:none;fill-rule:evenodd;font-size:12px;overflow:visible;stroke-linecap:square;stroke-miterlimit:3}
	]]>
	</style>

	<defs id="Markers">
		<g id="lend3">
			<path d="M 2 1 L 0 0 L 2 -1 " style="stroke-linecap:round;stroke-linejoin:round;fill:none"/>
		</g>
		<marker id="mrkr3-88" class="st14" v:arrowType="3" v:arrowSize="2" orient="auto" markerUnits="strokeWidth"
				overflow="visible">
			<use xlink:href="#lend3" transform="scale(-4.36,-4.36) "/>
		</marker>
	</defs>
	<defs id="Filters">
		<filter id="filter_2">
			<feGaussianBlur stdDeviation="2"/>
		</filter>
	</defs>
	<g v:mID="0" v:index="1" v:groupContext="foregroundPage">
		<title>页-1</title>
		<v:pageProperties v:drawingScale="0.0393701" v:pageScale="0.0393701" v:drawingUnits="24" v:shadowOffsetX="8.50394"
				v:shadowOffsetY="-8.50394"/>
		<v:layer v:name="连接线" v:index="0"/>
		<g id="group21-1" transform="translate(4.65432,-10.082)" v:mID="21" v:groupContext="group">
			<title>工作表.21</title>
			<g id="shape1-2" v:mID="1" v:groupContext="shape" transform="translate(88.5827,-35.4331)">
				<title>矩形</title>
				<v:userDefs>
					<v:ud v:nameU="visVersion" v:val="VT0(15):26"/>
				</v:userDefs>
				<g id="shadow1-3" v:groupContext="shadow" v:shadowOffsetX="0.345598" v:shadowOffsetY="-1.97279" v:shadowType="1"
						transform="matrix(1,0,0,1,0.345598,1.97279)" class="st1">
					<rect x="0" y="84.9821" width="113.386" height="191.339" rx="1.41732" ry="1.41732" class="st2"/>
				</g>
				<rect x="0" y="84.9821" width="113.386" height="191.339" rx="1.41732" ry="1.41732" class="st3"/>
			</g>
			<g id="shape2-7" v:mID="2" v:groupContext="shape" transform="translate(88.5827,-226.772)">
				<title>矩形.2</title>
				<desc>pageblock</desc>
				<v:userDefs>
					<v:ud v:nameU="visVersion" v:val="VT0(15):26"/>
				</v:userDefs>
				<v:textBlock v:margins="rect(4,4,4,4)" v:tabSpace="42.5197"/>
				<v:textRect cx="56.6929" cy="265.691" width="113.39" height="21.2598"/>
				<g id="shadow2-8" v:groupContext="shadow" v:shadowOffsetX="0.345598" v:shadowOffsetY="-1.97279" v:shadowType="1"
						transform="matrix(1,0,0,1,0.345598,1.97279)" class="st1">
					<rect x="0" y="255.061" width="113.386" height="21.2598" rx="1.41732" ry="1.41732" class="st4"/>
				</g>
				<rect x="0" y="255.061" width="113.386" height="21.2598" rx="1.41732" ry="1.41732" class="st5"/>
				<text x="4" y="269.29" class="st6" v:langID="2052"><v:paragraph/><v:tabList/>pageblock</text>			</g>
			<g id="shape3-13" v:mID="3" v:groupContext="shape" transform="translate(88.5827,-14.1732)">
				<title>矩形.3</title>
				<desc>pageblock</desc>
				<v:userDefs>
					<v:ud v:nameU="visVersion" v:val="VT0(15):26"/>
				</v:userDefs>
				<v:textBlock v:margins="rect(4,4,4,4)" v:tabSpace="42.5197"/>
				<v:textRect cx="56.6929" cy="265.691" width="113.39" height="21.2598"/>
				<g id="shadow3-14" v:groupContext="shadow" v:shadowOffsetX="0.345598" v:shadowOffsetY="-1.97279" v:shadowType="1"
						transform="matrix(1,0,0,1,0.345598,1.97279)" class="st1">
					<rect x="0" y="255.061" width="113.386" height="21.2598" rx="1.41732" ry="1.41732" class="st4"/>
				</g>
				<rect x="0" y="255.061" width="113.386" height="21.2598" rx="1.41732" ry="1.41732" class="st5"/>
				<text x="4" y="269.29" class="st6" v:langID="2052"><v:paragraph/><v:tabList/>pageblock</text>			</g>
			<g id="shape4-19" v:mID="4" v:groupContext="shape" transform="translate(7.99361E-14,-14.1732)">
				<title>工作表.4</title>
				<desc>zone→start_pfn</desc>
				<v:textBlock v:margins="rect(4,4,4,4)" v:tabSpace="42.5197"/>
				<v:textRect cx="44.2913" cy="269.234" width="88.59" height="14.1732"/>
				<g id="shadow4-20" v:groupContext="shadow" v:shadowOffsetX="0.345598" v:shadowOffsetY="-1.97279" v:shadowType="1"
						transform="matrix(1,0,0,1,0.345598,1.97279)" class="st1">
					<rect x="0" y="262.148" width="88.5827" height="14.1732" class="st7"/>
					<text x="4" y="273.18" class="st8" v:langID="2052"><v:paragraph/><v:tabList/>zone<tspan class="st9">→</tspan>start_pfn</text>				</g>
				<rect x="0" y="262.148" width="88.5827" height="14.1732" class="st10"/>
				<text x="4" y="273.18" class="st6" v:langID="2052"><v:paragraph/><v:tabList/>zone<tspan class="st9">→</tspan>start_pfn</text>			</g>
			<g id="shape5-29" v:mID="5" v:groupContext="shape" transform="translate(1.59872E-14,-226.772)">
				<title>工作表.5</title>
				<desc>zone→end_pfn</desc>
				<v:textBlock v:margins="rect(4,4,4,4)" v:tabSpace="42.5197"/>
				<v:textRect cx="44.2913" cy="269.234" width="88.59" height="14.1732"/>
				<g id="shadow5-30" v:groupContext="shadow" v:shadowOffsetX="0.345598" v:shadowOffsetY="-1.97279" v:shadowType="1"
						transform="matrix(1,0,0,1,0.345598,1.97279)" class="st1">
					<rect x="0" y="262.148" width="88.5827" height="14.1732" class="st7"/>
					<text x="4" y="273.18" class="st8" v:langID="2052"><v:paragraph/><v:tabList/>zone<tspan class="st9">→</tspan>end_pfn</text>				</g>
				<rect x="0" y="262.148" width="88.5827" height="14.1732" class="st10"/>
				<text x="4" y="273.18" class="st6" v:langID="2052"><v:paragraph/><v:tabList/>zone<tspan class="st9">→</tspan>end_pfn</text>			</g>
			<g id="shape6-39" v:mID="6" v:groupContext="shape" transform="translate(421.596,148.762) rotate(90)">
				<title>普通箭头</title>
				<v:userDefs>
					<v:ud v:nameU="visVersion" v:val="VT0(15):26"/>
					<v:ud v:nameU="ArrowType" v:prompt="" v:val="VT0(2):26"/>
				</v:userDefs>
				<g id="shadow6-40" v:groupContext="shadow" v:shadowOffsetX="0.345598" v:shadowOffsetY="-1.97279" v:shadowType="1"
						transform="matrix(1,0,0,1,1.97279,-0.345598)" class="st1">
					<path d="M0 276.32 L8.79 271.34 L8.79 273.83 L70.87 273.83 L70.87 276.32 L70.87 278.81 L8.79 278.81 L8.79 281.3
								 L0 276.32 Z" class="st4"/>
				</g>
				<path d="M0 276.32 L8.79 271.34 L8.79 273.83 L70.87 273.83 L70.87 276.32 L70.87 278.81 L8.79 278.81 L8.79 281.3 L0
							 276.32 Z" class="st11"/>
			</g>
			<g id="shape7-44" v:mID="7" v:groupContext="shape" transform="translate(-131.045,141.675) rotate(-90)">
				<title>普通箭头.7</title>
				<v:userDefs>
					<v:ud v:nameU="visVersion" v:val="VT0(15):26"/>
					<v:ud v:nameU="ArrowType" v:prompt="" v:val="VT0(2):26"/>
				</v:userDefs>
				<g id="shadow7-45" v:groupContext="shadow" v:shadowOffsetX="0.345598" v:shadowOffsetY="-1.97279" v:shadowType="1"
						transform="matrix(1,0,0,1,-1.97279,0.345598)" class="st1">
					<path d="M0 276.32 L8.79 271.34 L8.79 273.83 L70.87 273.83 L70.87 276.32 L70.87 278.81 L8.79 278.81 L8.79 281.3
								 L0 276.32 Z" class="st4"/>
				</g>
				<path d="M0 276.32 L8.79 271.34 L8.79 273.83 L70.87 273.83 L70.87 276.32 L70.87 278.81 L8.79 278.81 L8.79 281.3 L0
							 276.32 Z" class="st11"/>
			</g>
			<g id="shape8-49" v:mID="8" v:groupContext="shape" transform="translate(95.6693,-205.512)">
				<title>工作表.8</title>
				<desc>cc→free_pfn</desc>
				<v:textBlock v:margins="rect(4,4,4,4)" v:tabSpace="42.5197"/>
				<v:textRect cx="49.6063" cy="269.234" width="99.22" height="14.1732"/>
				<g id="shadow8-50" v:groupContext="shadow" v:shadowOffsetX="0.345598" v:shadowOffsetY="-1.97279" v:shadowType="1"
						transform="matrix(1,0,0,1,0.345598,1.97279)" class="st1">
					<rect x="0" y="262.148" width="99.2126" height="14.1732" class="st7"/>
					<text x="4" y="273.18" class="st8" v:langID="2052"><v:paragraph/><v:tabList/>cc<tspan class="st9">→</tspan>free_pfn</text>				</g>
				<rect x="0" y="262.148" width="99.2126" height="14.1732" class="st10"/>
				<text x="4" y="273.18" class="st6" v:langID="2052"><v:paragraph/><v:tabList/>cc<tspan class="st9">→</tspan>free_pfn</text>			</g>
			<g id="shape9-59" v:mID="9" v:groupContext="shape" transform="translate(95.6693,-42.5197)">
				<title>工作表.9</title>
				<desc>cc→migrate_pfn</desc>
				<v:textBlock v:margins="rect(4,4,4,4)" v:tabSpace="42.5197"/>
				<v:textRect cx="49.6063" cy="269.234" width="99.22" height="14.1732"/>
				<g id="shadow9-60" v:groupContext="shadow" v:shadowOffsetX="0.345598" v:shadowOffsetY="-1.97279" v:shadowType="1"
						transform="matrix(1,0,0,1,0.345598,1.97279)" class="st1">
					<rect x="0" y="262.148" width="99.2126" height="14.1732" class="st7"/>
					<text x="4" y="273.18" class="st8" v:langID="2052"><v:paragraph/><v:tabList/>cc<tspan class="st9">→</tspan>migrate_pfn</text>				</g>
				<rect x="0" y="262.148" width="99.2126" height="14.1732" class="st10"/>
				<text x="4" y="273.18" class="st6" v:langID="2052"><v:paragraph/><v:tabList/>cc<tspan class="st9">→</tspan>migrate_pfn</text>			</g>
			<g id="shape10-69" v:mID="10" v:groupContext="shape" transform="translate(279.921,-113.386)">
				<title>矩形.6</title>
				<desc>cc→migratepages</desc>
				<v:userDefs>
					<v:ud v:nameU="visVersion" v:val="VT0(15):26"/>
				</v:userDefs>
				<v:textBlock v:margins="rect(4,4,4,4)" v:tabSpace="42.5197"/>
				<v:textRect cx="49.6063" cy="269.234" width="99.22" height="14.1732"/>
				<g id="shadow10-70" v:groupContext="shadow" v:shadowOffsetX="0.345598" v:shadowOffsetY="-1.97279" v:shadowType="1"
						transform="matrix(1,0,0,1,0.345598,1.97279)" class="st1">
					<rect x="0" y="262.148" width="99.2126" height="14.1732" rx="0.708661" ry="0.708661" class="st4"/>
				</g>
				<rect x="0" y="262.148" width="99.2126" height="14.1732" rx="0.708661" ry="0.708661" class="st12"/>
				<text x="4" y="273.18" class="st6" v:langID="2052"><v:paragraph/><v:tabList/>cc<tspan class="st9">→</tspan>migratepages</text>			</g>
			<g id="shape12-76" v:mID="12" v:groupContext="shape" transform="translate(279.921,-127.559)">
				<title>矩形.12</title>
				<desc>cc→freepages</desc>
				<v:userDefs>
					<v:ud v:nameU="visVersion" v:val="VT0(15):26"/>
				</v:userDefs>
				<v:textBlock v:margins="rect(4,4,4,4)" v:tabSpace="42.5197"/>
				<v:textRect cx="49.6063" cy="269.234" width="99.22" height="14.1732"/>
				<g id="shadow12-77" v:groupContext="shadow" v:shadowOffsetX="0.345598" v:shadowOffsetY="-1.97279" v:shadowType="1"
						transform="matrix(1,0,0,1,0.345598,1.97279)" class="st1">
					<rect x="0" y="262.148" width="99.2126" height="14.1732" rx="0.708661" ry="0.708661" class="st4"/>
				</g>
				<rect x="0" y="262.148" width="99.2126" height="14.1732" rx="0.708661" ry="0.708661" class="st12"/>
				<text x="4" y="273.18" class="st6" v:langID="2052"><v:paragraph/><v:tabList/>cc<tspan class="st9">→</tspan>freepages</text>			</g>
			<g id="shape13-83" v:mID="13" v:groupContext="shape" v:layerMember="0"
					transform="translate(221.987,457.932) rotate(-15.2024) scale(1,-1)">
				<title>波浪连接线 1.67</title>
				<v:userDefs>
					<v:ud v:nameU="Scale" v:val="VT0(1):26"/>
					<v:ud v:nameU="AntiScale" v:val="VT0(1):26"/>
					<v:ud v:nameU="visVersion" v:val="VT0(15):26"/>
				</v:userDefs>
				<path d="M0 276.32 C109.27 253.43 65.18 271.93 135.12 276.32" class="st13"/>
			</g>
			<g id="shape14-89" v:mID="14" v:groupContext="shape" v:layerMember="0"
					transform="translate(221.128,-160.488) rotate(15.1396)">
				<title>波浪连接线 1.14</title>
				<v:userDefs>
					<v:ud v:nameU="Scale" v:val="VT0(1):26"/>
					<v:ud v:nameU="AntiScale" v:val="VT0(1):26"/>
					<v:ud v:nameU="visVersion" v:val="VT0(15):26"/>
				</v:userDefs>
				<path d="M0 276.32 C109.72 253.43 65.45 271.93 135.67 276.32" class="st13"/>
			</g>
			<g id="shape15-94" v:mID="15" v:groupContext="shape" transform="translate(201.969,-70.8661)">
				<title>工作表.15</title>
				<desc>Isolate migrate pages</desc>
				<v:textBlock v:margins="rect(4,4,4,4)" v:tabSpace="42.5197"/>
				<v:textRect cx="56.6929" cy="269.234" width="113.39" height="14.1732"/>
				<g id="shadow15-95" v:groupContext="shadow" v:shadowOffsetX="0.345598" v:shadowOffsetY="-1.97279" v:shadowType="1"
						transform="matrix(1,0,0,1,0.345598,1.97279)" class="st1">
					<rect x="0" y="262.148" width="113.386" height="14.1732" class="st7"/>
					<text x="4" y="272.83" class="st8" v:langID="2052"><v:paragraph/><v:tabList/>Isolate migrate pages</text>				</g>
				<rect x="0" y="262.148" width="113.386" height="14.1732" class="st10"/>
				<text x="4" y="272.83" class="st6" v:langID="2052"><v:paragraph/><v:tabList/>Isolate migrate pages</text>			</g>
			<g id="shape16-102" v:mID="16" v:groupContext="shape" transform="translate(201.969,-170.079)">
				<title>工作表.16</title>
				<desc>Isolate free pages</desc>
				<v:textBlock v:margins="rect(4,4,4,4)" v:tabSpace="42.5197"/>
				<v:textRect cx="56.6929" cy="269.234" width="113.39" height="14.1732"/>
				<g id="shadow16-103" v:groupContext="shadow" v:shadowOffsetX="0.345598" v:shadowOffsetY="-1.97279" v:shadowType="1"
						transform="matrix(1,0,0,1,0.345598,1.97279)" class="st1">
					<rect x="0" y="262.148" width="113.386" height="14.1732" class="st7"/>
					<text x="4" y="272.83" class="st8" v:langID="2052"><v:paragraph/><v:tabList/>Isolate free pages</text>				</g>
				<rect x="0" y="262.148" width="113.386" height="14.1732" class="st10"/>
				<text x="4" y="272.83" class="st6" v:langID="2052"><v:paragraph/><v:tabList/>Isolate free pages</text>			</g>
			<g id="shape17-110" v:mID="17" v:groupContext="shape" v:layerMember="0"
					transform="translate(102.813,155.848) rotate(-90)">
				<title>波浪连接线 1.17</title>
				<v:userDefs>
					<v:ud v:nameU="Scale" v:val="VT0(1):26"/>
					<v:ud v:nameU="AntiScale" v:val="VT0(1):26"/>
					<v:ud v:nameU="visVersion" v:val="VT0(15):26"/>
				</v:userDefs>
				<path d="M0 276.32 C2.6 297.58 5.2 297.58 14.17 276.32" class="st15"/>
			</g>
			<g id="shape18-115" v:mID="18" v:groupContext="shape" transform="translate(395.545,-113.386)">
				<title>工作表.18</title>
				<desc>migration (copy)</desc>
				<v:textBlock v:margins="rect(4,4,4,4)" v:tabSpace="42.5197"/>
				<v:textRect cx="30.7708" cy="262.148" width="61.55" height="28.3465"/>
				<g id="shadow18-116" v:groupContext="shadow" v:shadowOffsetX="0.345598" v:shadowOffsetY="-1.97279" v:shadowType="1"
						transform="matrix(1,0,0,1,0.345598,1.97279)" class="st1">
					<rect x="0" y="247.974" width="61.5416" height="28.3465" class="st7"/>
					<text x="4" y="258.55" class="st8" v:langID="2052"><v:paragraph/><v:tabList/>migration<v:newlineChar/><tspan
								x="4" dy="1.2em" class="st16">(</tspan>copy)</text>				</g>
				<rect x="0" y="247.974" width="61.5416" height="28.3465" class="st10"/>
				<text x="4" y="258.55" class="st6" v:langID="2052"><v:paragraph/><v:tabList/>migration<v:newlineChar/><tspan x="4"
							dy="1.2em" class="st16">(</tspan>copy)</text>			</g>
			<g id="shape19-125" v:mID="19" v:groupContext="shape" transform="translate(88.5827,0)">
				<title>工作表.19</title>
				<desc>migration scanner</desc>
				<v:textBlock v:margins="rect(4,4,4,4)" v:tabSpace="42.5197"/>
				<v:textRect cx="56.6929" cy="269.234" width="113.39" height="14.1732"/>
				<g id="shadow19-126" v:groupContext="shadow" v:shadowOffsetX="0.345598" v:shadowOffsetY="-1.97279" v:shadowType="1"
						transform="matrix(1,0,0,1,0.345598,1.97279)" class="st1">
					<rect x="0" y="262.148" width="113.386" height="14.1732" class="st7"/>
					<text x="4" y="272.83" class="st8" v:langID="2052"><v:paragraph/><v:tabList/>migration scanner</text>				</g>
				<rect x="0" y="262.148" width="113.386" height="14.1732" class="st10"/>
				<text x="4" y="272.83" class="st6" v:langID="2052"><v:paragraph/><v:tabList/>migration scanner</text>			</g>
			<g id="shape20-133" v:mID="20" v:groupContext="shape" transform="translate(88.5827,-248.031)">
				<title>工作表.20</title>
				<desc>free scanner</desc>
				<v:textBlock v:margins="rect(4,4,4,4)" v:tabSpace="42.5197"/>
				<v:textRect cx="56.6929" cy="269.234" width="113.39" height="14.1732"/>
				<g id="shadow20-134" v:groupContext="shadow" v:shadowOffsetX="0.345598" v:shadowOffsetY="-1.97279" v:shadowType="1"
						transform="matrix(1,0,0,1,0.345598,1.97279)" class="st1">
					<rect x="0" y="262.148" width="113.386" height="14.1732" class="st7"/>
					<text x="4" y="272.83" class="st8" v:langID="2052"><v:paragraph/><v:tabList/>free scanner</text>				</g>
				<rect x="0" y="262.148" width="113.386" height="14.1732" class="st10"/>
				<text x="4" y="272.83" class="st6" v:langID="2052"><v:paragraph/><v:tabList/>free scanner</text>			</g>
		</g>
	</g>
</svg>
