<?xml version="1.0" encoding="UTF-8" standalone="no"?>
<!DOCTYPE svg PUBLIC "-//W3C//DTD SVG 1.1//EN" "http://www.w3.org/Graphics/SVG/1.1/DTD/svg11.dtd">
<!-- 由 Microsoft Visio, SVG Export 生成 compaction-13.svg 页-1 -->
<svg xmlns="http://www.w3.org/2000/svg" xmlns:xlink="http://www.w3.org/1999/xlink" xmlns:ev="http://www.w3.org/2001/xml-events"
		xmlns:v="http://schemas.microsoft.com/visio/2003/SVGExtensions/" width="10.0839in" height="6.79727in"
		viewBox="0 0 726.041 489.403" xml:space="preserve" color-interpolation-filters="sRGB" class="st23">
	<v:documentProperties v:langID="2052" v:metric="true" v:viewMarkup="false"/>

	<style type="text/css">
	<![CDATA[
		.st1 {visibility:visible}
		.st2 {fill:#5b9bd5;fill-opacity:0.22;filter:url(#filter_2);stroke:#5b9bd5;stroke-dasharray:1.5,1.5;stroke-opacity:0.22}
		.st3 {fill:#f2f2f2;stroke:#0070c0;stroke-dasharray:1.5,1.5;stroke-width:0.5}
		.st4 {fill:#5b9bd5;fill-opacity:0.25;filter:url(#filter_2);stroke:#5b9bd5;stroke-opacity:0.25}
		.st5 {fill:#ed7d31;stroke:#000000;stroke-width:0.5}
		.st6 {fill:#000000;font-family:Times New Roman;font-size:0.916672em}
		.st7 {fill:#00b0f0;stroke:#000000;stroke-width:0.5}
		.st8 {fill:#fff2cc;stroke:#000000;stroke-width:0.5}
		.st9 {font-family:宋体;font-size:1em}
		.st10 {font-size:1em}
		.st11 {marker-end:url(#mrkr3-77);stroke:#000000;stroke-linecap:round;stroke-linejoin:round;stroke-width:0.75}
		.st12 {fill:#000000;fill-opacity:1;stroke:#000000;stroke-opacity:1;stroke-width:0.22935779816514}
		.st13 {fill:none;stroke:none;stroke-width:0.25}
		.st14 {fill:#00b0f0;font-family:宋体;font-size:0.833336em}
		.st15 {font-family:Times New Roman;font-size:1em}
		.st16 {fill:#00b0f0;font-family:Times New Roman;font-size:1.00001em}
		.st17 {fill:#5b9bd5;fill-opacity:0.22;filter:url(#filter_2);stroke:#5b9bd5;stroke-opacity:0.22}
		.st18 {fill:#d8d8d8;stroke:#000000;stroke-width:0.25}
		.st19 {fill:#ffc000;stroke:#0070c0;stroke-width:0.25}
		.st20 {fill:none;filter:url(#filter_2);stroke:none}
		.st21 {fill:#5b9bd5;filter:url(#filter_2);font-family:Times New Roman;font-size:1.00001em;opacity:0.219608}
		.st22 {fill:#000000;font-family:Times New Roman;font-size:1.00001em}
		.st23 {fill:none;fill-rule:evenodd;font-size:12px;overflow:visible;stroke-linecap:square;stroke-miterlimit:3}
	]]>
	</style>

	<defs id="Markers">
		<g id="lend3">
			<path d="M 2 1 L 0 0 L 2 -1 " style="stroke-linecap:round;stroke-linejoin:round;fill:none"/>
		</g>
		<marker id="mrkr3-77" class="st12" v:arrowType="3" v:arrowSize="2" orient="auto" markerUnits="strokeWidth"
				overflow="visible">
			<use xlink:href="#lend3" transform="scale(-4.36,-4.36) "/>
		</marker>
	</defs>
	<defs id="Filters">
		<filter id="filter_2">
			<feGaussianBlur stdDeviation="2"/>
		</filter>
	</defs>
	<g v:mID="0" v:index="1" v:groupContext="foregroundPage">
		<title>页-1</title>
		<v:pageProperties v:drawingScale="0.0393701" v:pageScale="0.0393701" v:drawingUnits="24" v:shadowOffsetX="8.50394"
				v:shadowOffsetY="-8.50394"/>
		<v:layer v:name="连接线" v:index="0"/>
		<g id="group49-1" transform="translate(3.0294,-5.3478)" v:mID="49" v:groupContext="group">
			<title>工作表.49</title>
			<g id="shape40-2" v:mID="40" v:groupContext="shape" transform="translate(322.441,-28.3465)">
				<title>矩形.64</title>
				<v:userDefs>
					<v:ud v:nameU="visVersion" v:val="VT0(15):26"/>
				</v:userDefs>
				<g id="shadow40-3" v:groupContext="shadow" v:shadowOffsetX="0.345598" v:shadowOffsetY="-1.97279" v:shadowType="1"
						transform="matrix(1,0,0,1,0.345598,1.97279)" class="st1">
					<rect x="0" y="248.458" width="297.638" height="240.945" rx="1.41732" ry="1.41732" class="st2"/>
				</g>
				<rect x="0" y="248.458" width="297.638" height="240.945" rx="1.41732" ry="1.41732" class="st3"/>
			</g>
			<g id="shape1-7" v:mID="1" v:groupContext="shape" transform="translate(265.748,-467.717)">
				<title>矩形.13</title>
				<desc>compact_finished()</desc>
				<v:userDefs>
					<v:ud v:nameU="visVersion" v:val="VT0(15):26"/>
				</v:userDefs>
				<v:textBlock v:margins="rect(2,2,2,2)" v:tabSpace="42.5197"/>
				<v:textRect cx="46.063" cy="482.317" width="92.13" height="14.1732"/>
				<g id="shadow1-8" v:groupContext="shadow" v:shadowOffsetX="0.345598" v:shadowOffsetY="-1.97279" v:shadowType="1"
						transform="matrix(1,0,0,1,0.345598,1.97279)" class="st1">
					<rect x="0" y="475.23" width="92.126" height="14.1732" rx="2.12598" ry="2.12598" class="st4"/>
				</g>
				<rect x="0" y="475.23" width="92.126" height="14.1732" rx="2.12598" ry="2.12598" class="st5"/>
				<text x="3.3" y="485.62" class="st6" v:langID="1033"><v:paragraph v:horizAlign="1"/><v:tabList/>compact_finished()</text>			</g>
			<g id="shape2-13" v:mID="2" v:groupContext="shape" transform="translate(357.874,-432.283)">
				<title>矩形.8</title>
				<desc>__compact_finished()</desc>
				<v:userDefs>
					<v:ud v:nameU="visVersion" v:val="VT0(15):26"/>
				</v:userDefs>
				<v:textBlock v:margins="rect(2,2,2,2)" v:tabSpace="42.5197"/>
				<v:textRect cx="56.6929" cy="482.317" width="113.39" height="14.1732"/>
				<g id="shadow2-14" v:groupContext="shadow" v:shadowOffsetX="0.345598" v:shadowOffsetY="-1.97279" v:shadowType="1"
						transform="matrix(1,0,0,1,0.345598,1.97279)" class="st1">
					<rect x="0" y="475.23" width="113.386" height="14.1732" rx="2.12598" ry="2.12598" class="st4"/>
				</g>
				<rect x="0" y="475.23" width="113.386" height="14.1732" rx="2.12598" ry="2.12598" class="st7"/>
				<text x="8.43" y="485.62" class="st6" v:langID="1033"><v:paragraph v:horizAlign="1"/><v:tabList/>__compact_finished()</text>			</g>
			<g id="shape3-19" v:mID="3" v:groupContext="shape" transform="translate(357.874,-382.677)">
				<title>菱形</title>
				<desc>cc→contended?</desc>
				<v:userDefs>
					<v:ud v:nameU="visVersion" v:prompt="" v:val="VT0(15):26"/>
				</v:userDefs>
				<v:textBlock v:margins="rect(2,2,2,2)" v:tabSpace="42.5197"/>
				<v:textRect cx="56.6929" cy="475.23" width="113.39" height="28.3465"/>
				<g id="shadow3-20" v:groupContext="shadow" v:shadowOffsetX="0.345598" v:shadowOffsetY="-1.97279" v:shadowType="1"
						transform="matrix(1,0,0,1,0.345598,1.97279)" class="st1">
					<path d="M56.69 489.4 L113.39 475.23 L56.69 461.06 L0 475.23 L56.69 489.4 Z" class="st4"/>
				</g>
				<path d="M56.69 489.4 L113.39 475.23 L56.69 461.06 L0 475.23 L56.69 489.4 Z" class="st8"/>
				<text x="21.27" y="478.85" class="st6" v:langID="1033"><v:paragraph v:horizAlign="1"/><v:tabList/>cc<tspan
							class="st9">→</tspan>contended<tspan class="st10" v:langID="2052">?</tspan> </text>			</g>
			<g id="shape4-27" v:mID="4" v:groupContext="shape" transform="translate(322.441,-325.984)">
				<title>菱形.4</title>
				<desc>migrate &#38; free scanner meet?</desc>
				<v:userDefs>
					<v:ud v:nameU="visVersion" v:prompt="" v:val="VT0(15):26"/>
				</v:userDefs>
				<v:textBlock v:margins="rect(2,2,2,2)" v:tabSpace="42.5197"/>
				<v:textRect cx="92.126" cy="471.687" width="184.26" height="35.4331"/>
				<g id="shadow4-28" v:groupContext="shadow" v:shadowOffsetX="0.345598" v:shadowOffsetY="-1.97279" v:shadowType="1"
						transform="matrix(1,0,0,1,0.345598,1.97279)" class="st1">
					<path d="M92.13 489.4 L184.25 471.69 L92.13 453.97 L0 471.69 L92.13 489.4 Z" class="st4"/>
				</g>
				<path d="M92.13 489.4 L184.25 471.69 L92.13 453.97 L0 471.69 L92.13 489.4 Z" class="st8"/>
				<text x="27.08" y="474.99" class="st6" v:langID="1033"><v:paragraph v:horizAlign="1"/><v:tabList/>migrate <tspan
							class="st10" v:langID="2052">&#38;</tspan> free scanner meet<tspan class="st10" v:langID="2052">?</tspan></text>			</g>
			<g id="shape5-35" v:mID="5" v:groupContext="shape" transform="translate(365.846,-276.378)">
				<title>菱形.5</title>
				<desc>manual?</desc>
				<v:userDefs>
					<v:ud v:nameU="visVersion" v:prompt="" v:val="VT0(15):26"/>
				</v:userDefs>
				<v:textBlock v:margins="rect(2,2,2,2)" v:tabSpace="42.5197"/>
				<v:textRect cx="48.7205" cy="478.773" width="97.45" height="21.2598"/>
				<g id="shadow5-36" v:groupContext="shadow" v:shadowOffsetX="0.345598" v:shadowOffsetY="-1.97279" v:shadowType="1"
						transform="matrix(1,0,0,1,0.345598,1.97279)" class="st1">
					<path d="M48.72 489.4 L97.44 478.77 L48.72 468.14 L0 478.77 L48.72 489.4 Z" class="st4"/>
				</g>
				<path d="M48.72 489.4 L97.44 478.77 L48.72 468.14 L0 478.77 L48.72 489.4 Z" class="st8"/>
				<text x="30.09" y="482.07" class="st6" v:langID="2052"><v:paragraph v:horizAlign="1"/><v:tabList/>manual?</text>			</g>
			<g id="shape6-41" v:mID="6" v:groupContext="shape" transform="translate(357.874,-212.598)">
				<title>菱形.6</title>
				<desc>free page found?</desc>
				<v:userDefs>
					<v:ud v:nameU="visVersion" v:prompt="" v:val="VT0(15):26"/>
				</v:userDefs>
				<v:textBlock v:margins="rect(2,2,2,2)" v:tabSpace="42.5197"/>
				<v:textRect cx="56.6929" cy="475.23" width="113.39" height="28.3465"/>
				<g id="shadow6-42" v:groupContext="shadow" v:shadowOffsetX="0.345598" v:shadowOffsetY="-1.97279" v:shadowType="1"
						transform="matrix(1,0,0,1,0.345598,1.97279)" class="st1">
					<path d="M56.69 489.4 L113.39 475.23 L56.69 461.06 L0 475.23 L56.69 489.4 Z" class="st4"/>
				</g>
				<path d="M56.69 489.4 L113.39 475.23 L56.69 461.06 L0 475.23 L56.69 489.4 Z" class="st8"/>
				<text x="19.74" y="478.53" class="st6" v:langID="2052"><v:paragraph v:horizAlign="1"/><v:tabList/>free page found?</text>			</g>
			<g id="shape7-47" v:mID="7" v:groupContext="shape" transform="translate(357.874,-148.819)">
				<title>矩形.7</title>
				<desc>find_suitable_fallback()</desc>
				<v:userDefs>
					<v:ud v:nameU="visVersion" v:val="VT0(15):26"/>
				</v:userDefs>
				<v:textBlock v:margins="rect(2,2,2,2)" v:tabSpace="42.5197"/>
				<v:textRect cx="56.6929" cy="482.317" width="113.39" height="14.1732"/>
				<g id="shadow7-48" v:groupContext="shadow" v:shadowOffsetX="0.345598" v:shadowOffsetY="-1.97279" v:shadowType="1"
						transform="matrix(1,0,0,1,0.345598,1.97279)" class="st1">
					<rect x="0" y="475.23" width="113.386" height="14.1732" rx="2.12598" ry="2.12598" class="st4"/>
				</g>
				<rect x="0" y="475.23" width="113.386" height="14.1732" rx="2.12598" ry="2.12598" class="st7"/>
				<text x="3.85" y="485.62" class="st6" v:langID="1033"><v:paragraph v:horizAlign="1"/><v:tabList/>find_suitable_fallback()</text>			</g>
			<g id="shape8-53" v:mID="8" v:groupContext="shape" transform="translate(329.528,-77.9528)">
				<title>菱形.8</title>
				<desc>a suitable fallback freepage?</desc>
				<v:userDefs>
					<v:ud v:nameU="visVersion" v:prompt="" v:val="VT0(15):26"/>
				</v:userDefs>
				<v:textBlock v:margins="rect(2,2,2,2)" v:tabSpace="42.5197"/>
				<v:textRect cx="85.0394" cy="468.143" width="170.08" height="42.5197"/>
				<g id="shadow8-54" v:groupContext="shadow" v:shadowOffsetX="0.345598" v:shadowOffsetY="-1.97279" v:shadowType="1"
						transform="matrix(1,0,0,1,0.345598,1.97279)" class="st1">
					<path d="M85.04 489.4 L170.08 468.14 L85.04 446.88 L0 468.14 L85.04 489.4 Z" class="st4"/>
				</g>
				<path d="M85.04 489.4 L170.08 468.14 L85.04 446.88 L0 468.14 L85.04 489.4 Z" class="st8"/>
				<text x="22.29" y="471.44" class="st6" v:langID="2052"><v:paragraph v:horizAlign="1"/><v:tabList/>a s<tspan
							class="st10" v:langID="1033">uitable fallback freepage</tspan>?</text>			</g>
			<g id="shape9-60" v:mID="9" v:groupContext="shape" transform="translate(471.26,-35.4331)">
				<title>菱形.9</title>
				<desc>movable migratetype?</desc>
				<v:userDefs>
					<v:ud v:nameU="visVersion" v:prompt="" v:val="VT0(15):26"/>
				</v:userDefs>
				<v:textBlock v:margins="rect(2,2,2,2)" v:tabSpace="42.5197"/>
				<v:textRect cx="70.8661" cy="471.687" width="141.74" height="35.4331"/>
				<g id="shadow9-61" v:groupContext="shadow" v:shadowOffsetX="0.345598" v:shadowOffsetY="-1.97279" v:shadowType="1"
						transform="matrix(1,0,0,1,0.345598,1.97279)" class="st1">
					<path d="M70.87 489.4 L141.73 471.69 L70.87 453.97 L0 471.69 L70.87 489.4 Z" class="st4"/>
				</g>
				<path d="M70.87 489.4 L141.73 471.69 L70.87 453.97 L0 471.69 L70.87 489.4 Z" class="st8"/>
				<text x="21.84" y="474.99" class="st6" v:langID="2052"><v:paragraph v:horizAlign="1"/><v:tabList/>movable migratetype?</text>			</g>
			<g id="shape11-66" v:mID="11" v:groupContext="shape" transform="translate(187.795,-148.819)">
				<title>菱形.11</title>
				<desc>whole zone?</desc>
				<v:userDefs>
					<v:ud v:nameU="visVersion" v:prompt="" v:val="VT0(15):26"/>
				</v:userDefs>
				<v:textBlock v:margins="rect(2,2,2,2)" v:tabSpace="42.5197"/>
				<v:textRect cx="56.6929" cy="475.23" width="113.39" height="28.3465"/>
				<g id="shadow11-67" v:groupContext="shadow" v:shadowOffsetX="0.345598" v:shadowOffsetY="-1.97279" v:shadowType="1"
						transform="matrix(1,0,0,1,0.345598,1.97279)" class="st1">
					<path d="M56.69 489.4 L113.39 475.23 L56.69 461.06 L0 475.23 L56.69 489.4 Z" class="st4"/>
				</g>
				<path d="M56.69 489.4 L113.39 475.23 L56.69 461.06 L0 475.23 L56.69 489.4 Z" class="st8"/>
				<text x="29.05" y="478.53" class="st6" v:langID="2052"><v:paragraph v:horizAlign="1"/><v:tabList/>whole zone?</text>			</g>
			<g id="shape12-72" v:mID="12" v:groupContext="shape" v:layerMember="0"
					transform="translate(576.742,-423.135) rotate(26.5651)">
				<title>波浪连接线 1.51</title>
				<v:userDefs>
					<v:ud v:nameU="Scale" v:val="VT0(1):26"/>
					<v:ud v:nameU="AntiScale" v:val="VT0(1):26"/>
					<v:ud v:nameU="visVersion" v:val="VT0(15):26"/>
				</v:userDefs>
				<path d="M0 489.4 C46.23 468.3 39.59 460.31 63.38 489.4" class="st11"/>
			</g>
			<g id="shape13-78" v:mID="13" v:groupContext="shape" v:layerMember="0"
					transform="translate(-74.8362,57.1197) rotate(-90) scale(-1,1)">
				<title>直线连接线</title>
				<v:userDefs>
					<v:ud v:nameU="visVersion" v:val="VT0(15):26"/>
				</v:userDefs>
				<path d="M0 489.4 L21.26 489.4" class="st11"/>
			</g>
			<g id="shape14-83" v:mID="14" v:groupContext="shape" v:layerMember="0"
					transform="translate(-74.8362,106.726) rotate(-90) scale(-1,1)">
				<title>直线连接线.14</title>
				<v:userDefs>
					<v:ud v:nameU="visVersion" v:val="VT0(15):26"/>
				</v:userDefs>
				<path d="M0 489.4 L21.26 489.4" class="st11"/>
			</g>
			<g id="shape15-88" v:mID="15" v:groupContext="shape" v:layerMember="0"
					transform="translate(-74.8362,163.419) rotate(-90) scale(-1,1)">
				<title>直线连接线.15</title>
				<v:userDefs>
					<v:ud v:nameU="visVersion" v:val="VT0(15):26"/>
				</v:userDefs>
				<path d="M0 489.4 L28.35 489.4" class="st11"/>
			</g>
			<g id="shape16-93" v:mID="16" v:groupContext="shape" v:layerMember="0"
					transform="translate(-74.8362,213.025) rotate(-90) scale(-1,1)">
				<title>直线连接线.16</title>
				<v:userDefs>
					<v:ud v:nameU="visVersion" v:val="VT0(15):26"/>
				</v:userDefs>
				<path d="M0 489.4 L35.43 489.4" class="st11"/>
			</g>
			<g id="shape17-98" v:mID="17" v:groupContext="shape" v:layerMember="0"
					transform="translate(-74.8362,276.805) rotate(-90) scale(-1,1)">
				<title>直线连接线.17</title>
				<v:userDefs>
					<v:ud v:nameU="visVersion" v:val="VT0(15):26"/>
				</v:userDefs>
				<path d="M0 489.4 L49.61 489.4" class="st11"/>
			</g>
			<g id="shape18-103" v:mID="18" v:groupContext="shape" v:layerMember="0"
					transform="translate(-74.8362,340.584) rotate(-90) scale(-1,1)">
				<title>直线连接线.18</title>
				<v:userDefs>
					<v:ud v:nameU="visVersion" v:val="VT0(15):26"/>
				</v:userDefs>
				<path d="M0 489.4 L28.35 489.4" class="st11"/>
			</g>
			<g id="shape19-108" v:mID="19" v:groupContext="shape" transform="translate(485.433,-368.504)">
				<title>矩形.14</title>
				<desc>COMPACT_CONTENDED</desc>
				<v:userDefs>
					<v:ud v:nameU="visVersion" v:val="VT0(15):26"/>
				</v:userDefs>
				<v:textBlock v:margins="rect(2,2,2,2)" v:tabSpace="42.5197"/>
				<v:textRect cx="67.3228" cy="482.317" width="134.65" height="14.1732"/>
				<g id="shadow19-109" v:groupContext="shadow" v:shadowOffsetX="0.345598" v:shadowOffsetY="-1.97279" v:shadowType="1"
						transform="matrix(1,0,0,1,0.345598,1.97279)" class="st1">
					<rect x="0" y="475.23" width="134.646" height="14.1732" rx="2.12598" ry="2.12598" class="st4"/>
				</g>
				<rect x="0" y="475.23" width="134.646" height="14.1732" rx="2.12598" ry="2.12598" class="st5"/>
				<text x="4.38" y="485.62" class="st6" v:langID="1033"><v:paragraph v:horizAlign="1"/><v:tabList/>COMPACT_CONTENDED</text>			</g>
			<g id="shape20-114" v:mID="20" v:groupContext="shape" v:layerMember="0"
					transform="translate(499.606,879.594) scale(1,-1)">
				<title>侧边到顶部/底部</title>
				<v:userDefs>
					<v:ud v:nameU="TextPos" v:val="VT0(0):5"/>
					<v:ud v:nameU="visVersion" v:val="VT0(15):26"/>
				</v:userDefs>
				<path d="M0 489.4 L42.52 489.4 L42.52 461.06" class="st11"/>
			</g>
			<g id="shape21-119" v:mID="21" v:groupContext="shape" transform="translate(177.165,-5.68434E-14)">
				<title>矩形.21</title>
				<desc>COMPACT_COMPLETE</desc>
				<v:userDefs>
					<v:ud v:nameU="visVersion" v:val="VT0(15):26"/>
				</v:userDefs>
				<v:textBlock v:margins="rect(2,2,2,2)" v:tabSpace="42.5197"/>
				<v:textRect cx="67.3228" cy="482.317" width="134.65" height="14.1732"/>
				<g id="shadow21-120" v:groupContext="shadow" v:shadowOffsetX="0.345598" v:shadowOffsetY="-1.97279" v:shadowType="1"
						transform="matrix(1,0,0,1,0.345598,1.97279)" class="st1">
					<rect x="0" y="475.23" width="134.646" height="14.1732" rx="2.12598" ry="2.12598" class="st4"/>
				</g>
				<rect x="0" y="475.23" width="134.646" height="14.1732" rx="2.12598" ry="2.12598" class="st5"/>
				<text x="8.95" y="485.62" class="st6" v:langID="1033"><v:paragraph v:horizAlign="1"/><v:tabList/>COMPACT_COMPLETE</text>			</g>
			<g id="shape22-125" v:mID="22" v:groupContext="shape">
				<title>矩形.22</title>
				<desc>COMPACT_PARTIAL_SKIPPED</desc>
				<v:userDefs>
					<v:ud v:nameU="visVersion" v:val="VT0(15):26"/>
				</v:userDefs>
				<v:textBlock v:margins="rect(2,2,2,2)" v:tabSpace="42.5197"/>
				<v:textRect cx="81.4961" cy="482.317" width="163" height="14.1732"/>
				<g id="shadow22-126" v:groupContext="shadow" v:shadowOffsetX="0.345598" v:shadowOffsetY="-1.97279" v:shadowType="1"
						transform="matrix(1,0,0,1,0.345598,1.97279)" class="st1">
					<rect x="0" y="475.23" width="162.992" height="14.1732" rx="2.12598" ry="2.12598" class="st4"/>
				</g>
				<rect x="0" y="475.23" width="162.992" height="14.1732" rx="2.12598" ry="2.12598" class="st5"/>
				<text x="3.87" y="485.62" class="st6" v:langID="1033"><v:paragraph v:horizAlign="1"/><v:tabList/>COMPACT_PARTIAL_SKIPPED</text>			</g>
			<g id="shape23-131" v:mID="23" v:groupContext="shape" transform="translate(350.787,0)">
				<title>矩形.23</title>
				<desc>COMPACT_CONTINUE</desc>
				<v:userDefs>
					<v:ud v:nameU="visVersion" v:val="VT0(15):26"/>
				</v:userDefs>
				<v:textBlock v:margins="rect(2,2,2,2)" v:tabSpace="42.5197"/>
				<v:textRect cx="63.7795" cy="482.317" width="127.56" height="14.1732"/>
				<g id="shadow23-132" v:groupContext="shadow" v:shadowOffsetX="0.345598" v:shadowOffsetY="-1.97279" v:shadowType="1"
						transform="matrix(1,0,0,1,0.345598,1.97279)" class="st1">
					<rect x="0" y="475.23" width="127.559" height="14.1732" rx="2.12598" ry="2.12598" class="st4"/>
				</g>
				<rect x="0" y="475.23" width="127.559" height="14.1732" rx="2.12598" ry="2.12598" class="st5"/>
				<text x="6.33" y="485.62" class="st6" v:langID="1033"><v:paragraph v:horizAlign="1"/><v:tabList/>COMPACT_CONTINUE</text>			</g>
			<g id="shape24-137" v:mID="24" v:groupContext="shape" transform="translate(598.819,0)">
				<title>矩形.24</title>
				<desc>COMPACT_SUCCESS</desc>
				<v:userDefs>
					<v:ud v:nameU="visVersion" v:val="VT0(15):26"/>
				</v:userDefs>
				<v:textBlock v:margins="rect(2,2,2,2)" v:tabSpace="42.5197"/>
				<v:textRect cx="60.2362" cy="482.317" width="120.48" height="14.1732"/>
				<g id="shadow24-138" v:groupContext="shadow" v:shadowOffsetX="0.345598" v:shadowOffsetY="-1.97279" v:shadowType="1"
						transform="matrix(1,0,0,1,0.345598,1.97279)" class="st1">
					<rect x="0" y="475.23" width="120.472" height="14.1732" rx="2.12598" ry="2.12598" class="st4"/>
				</g>
				<rect x="0" y="475.23" width="120.472" height="14.1732" rx="2.12598" ry="2.12598" class="st5"/>
				<text x="7.05" y="485.62" class="st6" v:langID="1033"><v:paragraph v:horizAlign="1"/><v:tabList/>COMPACT_SUCCESS</text>			</g>
			<g id="shape25-143" v:mID="25" v:groupContext="shape" v:layerMember="0"
					transform="translate(471.26,581.956) scale(1,-1)">
				<title>侧边到顶部/底部.25</title>
				<v:userDefs>
					<v:ud v:nameU="TextPos" v:val="VT0(0):5"/>
					<v:ud v:nameU="visVersion" v:val="VT0(15):26"/>
				</v:userDefs>
				<path d="M0 489.4 L81.5 489.4 L81.5 475.23" class="st11"/>
			</g>
			<g id="shape26-148" v:mID="26" v:groupContext="shape" v:layerMember="0"
					transform="translate(612.992,925.657) scale(1,-1)">
				<title>侧边到顶部/底部.26</title>
				<v:userDefs>
					<v:ud v:nameU="TextPos" v:val="VT0(0):5"/>
					<v:ud v:nameU="visVersion" v:val="VT0(15):26"/>
				</v:userDefs>
				<path d="M0 489.4 L46.06 489.4 L46.06 450.43" class="st11"/>
			</g>
			<g id="shape27-153" v:mID="27" v:groupContext="shape" v:layerMember="0"
					transform="translate(542.126,943.373) rotate(180)">
				<title>顶部/底部到侧边</title>
				<v:userDefs>
					<v:ud v:nameU="TextPos" v:val="VT0(1):5"/>
					<v:ud v:nameU="visVersion" v:val="VT0(15):26"/>
				</v:userDefs>
				<path d="M0 489.4 L0 461.06 L63.78 461.06" class="st11"/>
			</g>
			<g id="shape28-158" v:mID="28" v:groupContext="shape" v:layerMember="0"
					transform="translate(-74.8362,411.45) rotate(-90) scale(-1,1)">
				<title>直线连接线.28</title>
				<v:userDefs>
					<v:ud v:nameU="visVersion" v:val="VT0(15):26"/>
				</v:userDefs>
				<path d="M0 489.4 L63.78 489.4" class="st11"/>
			</g>
			<g id="shape29-163" v:mID="29" v:groupContext="shape" v:layerMember="0"
					transform="translate(350.787,691.798) scale(1,-1)">
				<title>侧面</title>
				<v:userDefs>
					<v:ud v:nameU="TextPos" v:val="VT0(1):26"/>
					<v:ud v:nameU="Scale" v:val="VT0(1):26"/>
					<v:ud v:nameU="AntiScale" v:val="VT0(1):26"/>
					<v:ud v:nameU="visVersion" v:val="VT0(15):26"/>
				</v:userDefs>
				<path d="M15.06 489.4 L-35.43 489.4 L-35.43 209.48 L0 209.48" class="st11"/>
			</g>
			<g id="shape30-168" v:mID="30" v:groupContext="shape" v:layerMember="0"
					transform="translate(322.441,635.105) rotate(180)">
				<title>侧边到顶部/底部.30</title>
				<v:userDefs>
					<v:ud v:nameU="TextPos" v:val="VT0(0):5"/>
					<v:ud v:nameU="visVersion" v:val="VT0(15):26"/>
				</v:userDefs>
				<path d="M0 489.4 L77.95 489.4 L77.95 322.87" class="st11"/>
			</g>
			<g id="shape31-173" v:mID="31" v:groupContext="shape" v:layerMember="0"
					transform="translate(-244.915,340.584) rotate(-90) scale(-1,1)">
				<title>直线连接线.31</title>
				<v:userDefs>
					<v:ud v:nameU="visVersion" v:val="VT0(15):26"/>
				</v:userDefs>
				<path d="M0 489.4 L134.65 489.4" class="st11"/>
			</g>
			<g id="shape32-178" v:mID="32" v:groupContext="shape" v:layerMember="0"
					transform="translate(187.795,815.814) rotate(180)">
				<title>侧边到顶部/底部.32</title>
				<v:userDefs>
					<v:ud v:nameU="TextPos" v:val="VT0(0):5"/>
					<v:ud v:nameU="visVersion" v:val="VT0(15):26"/>
				</v:userDefs>
				<path d="M0 489.4 L106.3 489.4 L106.3 340.58" class="st11"/>
			</g>
			<g id="shape33-183" v:mID="33" v:groupContext="shape" transform="translate(414.567,-304.724)">
				<title>工作表.33</title>
				<desc>手动写/proc/sys/vm/compact_memory触发compacting</desc>
				<v:textBlock v:margins="rect(4,4,4,4)" v:tabSpace="42.5197"/>
				<v:textRect cx="124.016" cy="482.317" width="248.04" height="14.1732"/>
				<rect x="0" y="475.23" width="248.031" height="14.1732" class="st13"/>
				<text x="4" y="485.61" class="st14" v:langID="2052"><v:paragraph/><v:tabList/>手动写<tspan class="st15"
							v:langID="1033">/</tspan><tspan class="st15" v:langID="1033">proc</tspan><tspan class="st15"
							v:langID="1033">/</tspan><tspan class="st15" v:langID="1033">sys</tspan><tspan class="st15"
							v:langID="1033">/</tspan><tspan class="st15" v:langID="1033">vm</tspan><tspan class="st15"
							v:langID="1033">/</tspan><tspan class="st15" v:langID="1033">compact</tspan><tspan class="st15"
							v:langID="1033">_</tspan><tspan class="st15" v:langID="1033">memory</tspan>，触发<tspan class="st15">compacting</tspan></text>			</g>
			<g id="shape34-197" v:mID="34" v:groupContext="shape" transform="translate(421.654,-170.079)">
				<title>工作表.34</title>
				<desc>如果allocation能够从其他迁移类型的链表中获取freepages</desc>
				<v:textBlock v:margins="rect(4,4,4,4)" v:tabSpace="42.5197"/>
				<v:textRect cx="63.7795" cy="470.008" width="127.56" height="38.7899"/>
				<rect x="0" y="450.613" width="127.559" height="38.7899" class="st13"/>
				<text x="4" y="461.3" class="st14" v:langID="2052"><v:paragraph/><v:tabList/>如果<tspan class="st15">allocation</tspan>能够从其他迁<tspan
							x="4" dy="1.229em" class="st10">移类型的链表中获取</tspan><tspan x="4" dy="1.2em" class="st15">freepages</tspan></text>			</g>
			<g id="shape35-203" v:mID="35" v:groupContext="shape" transform="translate(499.606,-99.2126)">
				<title>工作表.35</title>
				<desc>Yes</desc>
				<v:textBlock v:margins="rect(4,4,4,4)" v:tabSpace="42.5197"/>
				<v:textRect cx="14.1732" cy="482.317" width="28.35" height="14.1732"/>
				<rect x="0" y="475.23" width="28.3465" height="14.1732" class="st13"/>
				<text x="5.68" y="485.92" class="st16" v:langID="2052"><v:paragraph v:horizAlign="2"/><v:tabList/>Yes</text>			</g>
			<g id="shape36-206" v:mID="36" v:groupContext="shape" transform="translate(617.214,-56.6929)">
				<title>工作表.36</title>
				<desc>Yes</desc>
				<v:textBlock v:margins="rect(4,4,4,4)" v:tabSpace="42.5197"/>
				<v:textRect cx="14.1732" cy="482.317" width="28.35" height="14.1732"/>
				<rect x="0" y="475.23" width="28.3465" height="14.1732" class="st13"/>
				<text x="5.68" y="485.92" class="st16" v:langID="2052"><v:paragraph v:horizAlign="2"/><v:tabList/>Yes</text>			</g>
			<g id="shape37-209" v:mID="37" v:groupContext="shape" transform="translate(336.614,-290.551)">
				<title>工作表.37</title>
				<desc>Yes</desc>
				<v:textBlock v:margins="rect(4,4,4,4)" v:tabSpace="42.5197"/>
				<v:textRect cx="14.1732" cy="482.317" width="28.35" height="14.1732"/>
				<rect x="0" y="475.23" width="28.3465" height="14.1732" class="st13"/>
				<text x="5.68" y="485.92" class="st16" v:langID="2052"><v:paragraph v:horizAlign="2"/><v:tabList/>Yes</text>			</g>
			<g id="shape38-212" v:mID="38" v:groupContext="shape" transform="translate(294.094,-347.244)">
				<title>工作表.38</title>
				<desc>Yes</desc>
				<v:textBlock v:margins="rect(4,4,4,4)" v:tabSpace="42.5197"/>
				<v:textRect cx="14.1732" cy="482.317" width="28.35" height="14.1732"/>
				<rect x="0" y="475.23" width="28.3465" height="14.1732" class="st13"/>
				<text x="5.68" y="485.92" class="st16" v:langID="2052"><v:paragraph v:horizAlign="2"/><v:tabList/>Yes</text>			</g>
			<g id="shape39-215" v:mID="39" v:groupContext="shape" transform="translate(478.346,-396.85)">
				<title>工作表.39</title>
				<desc>Yes</desc>
				<v:textBlock v:margins="rect(4,4,4,4)" v:tabSpace="42.5197"/>
				<v:textRect cx="14.1732" cy="482.317" width="28.35" height="14.1732"/>
				<rect x="0" y="475.23" width="28.3465" height="14.1732" class="st13"/>
				<text x="5.68" y="485.92" class="st16" v:langID="2052"><v:paragraph v:horizAlign="2"/><v:tabList/>Yes</text>			</g>
			<g id="shape41-218" v:mID="41" v:groupContext="shape" transform="translate(414.567,-255.118)">
				<title>工作表.41</title>
				<desc>循环条件从cc→order直到MAX_ORDER-1</desc>
				<v:textBlock v:margins="rect(4,4,4,4)" v:tabSpace="42.5197"/>
				<v:textRect cx="102.756" cy="482.317" width="205.52" height="14.1732"/>
				<rect x="0" y="475.23" width="205.512" height="14.1732" class="st13"/>
				<text x="4" y="485.61" class="st14" v:langID="2052"><v:paragraph/><v:tabList/>循环条件：从<tspan class="st15">cc</tspan>→<tspan
							class="st15">order</tspan>直到<tspan class="st15">MAX</tspan><tspan class="st15">_</tspan><tspan
							class="st15">ORDER</tspan><tspan class="st15">-</tspan><tspan class="st15">1</tspan></text>			</g>
			<g id="shape42-228" v:mID="42" v:groupContext="shape" transform="translate(95.6693,-269.291)">
				<title>矩形</title>
				<v:userDefs>
					<v:ud v:nameU="visVersion" v:val="VT0(15):26"/>
				</v:userDefs>
				<g id="shadow42-229" v:groupContext="shadow" v:shadowOffsetX="0.345598" v:shadowOffsetY="-1.97279" v:shadowType="1"
						transform="matrix(1,0,0,1,0.345598,1.97279)" class="st1">
					<rect x="0" y="347.671" width="92.126" height="141.732" rx="0.708661" ry="0.708661" class="st17"/>
				</g>
				<rect x="0" y="347.671" width="92.126" height="141.732" rx="0.708661" ry="0.708661" class="st18"/>
			</g>
			<g id="shape43-233" v:mID="43" v:groupContext="shape" transform="translate(627.592,149.246) rotate(90)">
				<title>普通箭头</title>
				<v:userDefs>
					<v:ud v:nameU="visVersion" v:val="VT0(15):26"/>
					<v:ud v:nameU="ArrowType" v:prompt="" v:val="VT0(2):26"/>
				</v:userDefs>
				<g id="shadow43-234" v:groupContext="shadow" v:shadowOffsetX="0.345598" v:shadowOffsetY="-1.97279" v:shadowType="1"
						transform="matrix(1,0,0,1,1.97279,-0.345598)" class="st1">
					<path d="M0 489.4 L8.79 484.42 L8.79 486.91 L56.69 486.91 L56.69 489.4 L56.69 491.89 L8.79 491.89 L8.79 494.39
								 L0 489.4 Z" class="st17"/>
				</g>
				<path d="M0 489.4 L8.79 484.42 L8.79 486.91 L56.69 486.91 L56.69 489.4 L56.69 491.89 L8.79 491.89 L8.79 494.39 L0
							 489.4 Z" class="st19"/>
			</g>
			<g id="shape44-238" v:mID="44" v:groupContext="shape" transform="translate(-351.214,149.246) rotate(-90)">
				<title>普通箭头.7</title>
				<v:userDefs>
					<v:ud v:nameU="visVersion" v:val="VT0(15):26"/>
					<v:ud v:nameU="ArrowType" v:prompt="" v:val="VT0(2):26"/>
				</v:userDefs>
				<g id="shadow44-239" v:groupContext="shadow" v:shadowOffsetX="0.345598" v:shadowOffsetY="-1.97279" v:shadowType="1"
						transform="matrix(1,0,0,1,-1.97279,0.345598)" class="st1">
					<path d="M0 489.4 L8.79 484.42 L8.79 486.91 L56.69 486.91 L56.69 489.4 L56.69 491.89 L8.79 491.89 L8.79 494.39
								 L0 489.4 Z" class="st17"/>
				</g>
				<path d="M0 489.4 L8.79 484.42 L8.79 486.91 L56.69 486.91 L56.69 489.4 L56.69 491.89 L8.79 491.89 L8.79 494.39 L0
							 489.4 Z" class="st19"/>
			</g>
			<g id="shape45-243" v:mID="45" v:groupContext="shape" transform="translate(95.6693,-396.85)">
				<title>工作表.45</title>
				<desc>cc→free_pfn</desc>
				<v:textBlock v:margins="rect(4,4,4,4)" v:tabSpace="42.5197"/>
				<v:textRect cx="46.063" cy="482.317" width="92.13" height="14.1732"/>
				<g id="shadow45-244" v:groupContext="shadow" v:shadowOffsetX="0.345598" v:shadowOffsetY="-1.97279" v:shadowType="1"
						transform="matrix(1,0,0,1,0.345598,1.97279)" class="st1">
					<rect x="0" y="475.23" width="92.126" height="14.1732" class="st20"/>
					<text x="14.42" y="486.26" class="st21" v:langID="2052"><v:paragraph v:horizAlign="1"/><v:tabList/>cc<tspan
								class="st9">→</tspan>free_pfn</text>				</g>
				<rect x="0" y="475.23" width="92.126" height="14.1732" class="st13"/>
				<text x="14.42" y="486.26" class="st22" v:langID="2052"><v:paragraph v:horizAlign="1"/><v:tabList/>cc<tspan
							class="st9">→</tspan>free_pfn</text>			</g>
			<g id="shape46-253" v:mID="46" v:groupContext="shape" transform="translate(95.6693,-269.291)">
				<title>工作表.46</title>
				<desc>cc→migrate_pfn</desc>
				<v:textBlock v:margins="rect(4,4,4,4)" v:tabSpace="42.5197"/>
				<v:textRect cx="46.063" cy="482.317" width="92.13" height="14.1732"/>
				<g id="shadow46-254" v:groupContext="shadow" v:shadowOffsetX="0.345598" v:shadowOffsetY="-1.97279" v:shadowType="1"
						transform="matrix(1,0,0,1,0.345598,1.97279)" class="st1">
					<rect x="0" y="475.23" width="92.126" height="14.1732" class="st20"/>
					<text x="5.41" y="486.26" class="st21" v:langID="2052"><v:paragraph v:horizAlign="1"/><v:tabList/>cc<tspan
								class="st9">→</tspan>migrate_pfn</text>				</g>
				<rect x="0" y="475.23" width="92.126" height="14.1732" class="st13"/>
				<text x="5.41" y="486.26" class="st22" v:langID="2052"><v:paragraph v:horizAlign="1"/><v:tabList/>cc<tspan
							class="st9">→</tspan>migrate_pfn</text>			</g>
			<g id="shape47-263" v:mID="47" v:groupContext="shape" transform="translate(194.882,-340.157)">
				<title>普通箭头.47</title>
				<v:userDefs>
					<v:ud v:nameU="visVersion" v:val="VT0(15):26"/>
					<v:ud v:nameU="ArrowType" v:prompt="" v:val="VT0(2):26"/>
				</v:userDefs>
				<g id="shadow47-264" v:groupContext="shadow" v:shadowOffsetX="0.345598" v:shadowOffsetY="-1.97279" v:shadowType="1"
						transform="matrix(1,0,0,1,0.345598,1.97279)" class="st1">
					<path d="M0 489.4 L8.79 484.42 L8.79 486.91 L42.52 486.91 L42.52 489.4 L42.52 491.89 L8.79 491.89 L8.79 494.39
								 L0 489.4 Z" class="st17"/>
				</g>
				<path d="M0 489.4 L8.79 484.42 L8.79 486.91 L42.52 486.91 L42.52 489.4 L42.52 491.89 L8.79 491.89 L8.79 494.39 L0
							 489.4 Z" class="st19"/>
			</g>
			<g id="shape48-268" v:mID="48" v:groupContext="shape" transform="translate(147.047,-343.514)">
				<title>工作表.48</title>
				<desc>both scanner meet</desc>
				<v:textBlock v:margins="rect(4,4,4,4)" v:tabSpace="42.5197"/>
				<v:textRect cx="48.7205" cy="482.317" width="97.45" height="14.1732"/>
				<rect x="0" y="475.23" width="97.4409" height="14.1732" class="st13"/>
				<text x="6.14" y="485.92" class="st16" v:langID="2052"><v:paragraph v:horizAlign="2"/><v:tabList/>both scanner meet</text>			</g>
		</g>
	</g>
</svg>
