<?xml version="1.0" encoding="UTF-8" standalone="no"?>
<!DOCTYPE svg PUBLIC "-//W3C//DTD SVG 1.1//EN" "http://www.w3.org/Graphics/SVG/1.1/DTD/svg11.dtd">
<!-- 由 Microsoft Visio, SVG Export 生成 compaction-12.svg 页-1 -->
<svg xmlns="http://www.w3.org/2000/svg" xmlns:xlink="http://www.w3.org/1999/xlink" xmlns:ev="http://www.w3.org/2001/xml-events"
		xmlns:v="http://schemas.microsoft.com/visio/2003/SVGExtensions/" width="8.17584in" height="4.73292in"
		viewBox="0 0 588.66 340.77" xml:space="preserve" color-interpolation-filters="sRGB" class="st27">
	<v:documentProperties v:langID="2052" v:metric="true" v:viewMarkup="false"/>

	<style type="text/css">
	<![CDATA[
		.st1 {visibility:visible}
		.st2 {fill:#5b9bd5;fill-opacity:0.22;filter:url(#filter_2);stroke:#5b9bd5;stroke-dasharray:1.5,1.5;stroke-opacity:0.22}
		.st3 {fill:#f2f2f2;stroke:#0070c0;stroke-dasharray:1.5,1.5;stroke-width:0.5}
		.st4 {fill:#5b9bd5;fill-opacity:0.25;filter:url(#filter_2);stroke:#5b9bd5;stroke-opacity:0.25}
		.st5 {fill:#ed7d31;stroke:#000000;stroke-width:0.5}
		.st6 {fill:#000000;font-family:Times New Roman;font-size:0.916672em}
		.st7 {fill:#5b9bd5;fill-opacity:0.22;filter:url(#filter_2);stroke:#5b9bd5;stroke-opacity:0.22}
		.st8 {fill:#dae2f3;stroke:#00b0f0;stroke-width:0.5}
		.st9 {fill:none;stroke:none;stroke-width:0.25}
		.st10 {fill:#000000;font-family:Times New Roman;font-size:1.00001em}
		.st11 {baseline-shift:32.4941%;font-size:0.649882em}
		.st12 {font-size:1em}
		.st13 {fill:#d8d8d8;stroke:#000000;stroke-width:0.5}
		.st14 {fill:none;filter:url(#filter_2);stroke:none}
		.st15 {fill:#5b9bd5;filter:url(#filter_2);font-family:Times New Roman;font-size:0.833336em;opacity:0.219608}
		.st16 {fill:#00b0f0;font-family:Times New Roman;font-size:0.833336em}
		.st17 {fill:#5b9bd5;filter:url(#filter_2);font-family:Times New Roman;font-size:0.916672em;opacity:0.219608}
		.st18 {font-family:宋体;font-size:1em}
		.st19 {fill:none;stroke:none;stroke-width:0.5}
		.st20 {fill:#00b0f0;font-family:Times New Roman;font-size:0.916672em}
		.st21 {marker-end:url(#mrkr3-206);stroke:#ff0000;stroke-dasharray:2.25,2.25;stroke-linecap:round;stroke-linejoin:round;stroke-width:0.75}
		.st22 {fill:#ff0000;fill-opacity:1;stroke:#ff0000;stroke-opacity:1;stroke-width:0.22935779816514}
		.st23 {fill:#ff0000;font-family:Times New Roman;font-size:0.833336em}
		.st24 {fill:#00b0f0;font-size:1em}
		.st25 {fill:#00b0f0;font-family:宋体;font-size:1em}
		.st26 {fill:#ffc000;stroke:#0070c0;stroke-width:0.25}
		.st27 {fill:none;fill-rule:evenodd;font-size:12px;overflow:visible;stroke-linecap:square;stroke-miterlimit:3}
	]]>
	</style>

	<defs id="Markers">
		<g id="lend3">
			<path d="M 2 1 L 0 0 L 2 -1 " style="stroke-linecap:round;stroke-linejoin:round;fill:none"/>
		</g>
		<marker id="mrkr3-206" class="st22" v:arrowType="3" v:arrowSize="2" orient="auto" markerUnits="strokeWidth"
				overflow="visible">
			<use xlink:href="#lend3" transform="scale(-4.36,-4.36) "/>
		</marker>
	</defs>
	<defs id="Filters">
		<filter id="filter_2">
			<feGaussianBlur stdDeviation="2"/>
		</filter>
	</defs>
	<g v:mID="0" v:index="1" v:groupContext="foregroundPage">
		<title>页-1</title>
		<v:pageProperties v:drawingScale="0.0393701" v:pageScale="0.0393701" v:drawingUnits="24" v:shadowOffsetX="8.50394"
				v:shadowOffsetY="-8.50394"/>
		<v:layer v:name="连接线" v:index="0"/>
		<g id="group46-1" transform="translate(3.65429,-5.3478)" v:mID="46" v:groupContext="group">
			<title>工作表.46</title>
			<g id="shape31-2" v:mID="31" v:groupContext="shape" transform="translate(276.378,-63.7795)">
				<title>矩形.64</title>
				<v:userDefs>
					<v:ud v:nameU="visVersion" v:val="VT0(15):26"/>
				</v:userDefs>
				<g id="shadow31-3" v:groupContext="shadow" v:shadowOffsetX="0.345598" v:shadowOffsetY="-1.97279" v:shadowType="1"
						transform="matrix(1,0,0,1,0.345598,1.97279)" class="st1">
					<rect x="0" y="128.172" width="304.724" height="212.598" rx="1.41732" ry="1.41732" class="st2"/>
				</g>
				<rect x="0" y="128.172" width="304.724" height="212.598" rx="1.41732" ry="1.41732" class="st3"/>
			</g>
			<g id="shape1-7" v:mID="1" v:groupContext="shape" transform="translate(14.1732,-240.945)">
				<title>矩形.13</title>
				<desc>compaction_deferred()</desc>
				<v:userDefs>
					<v:ud v:nameU="visVersion" v:val="VT0(15):26"/>
				</v:userDefs>
				<v:textBlock v:margins="rect(2,2,2,2)" v:tabSpace="42.5197"/>
				<v:textRect cx="60.2362" cy="333.684" width="120.48" height="14.1732"/>
				<g id="shadow1-8" v:groupContext="shadow" v:shadowOffsetX="0.345598" v:shadowOffsetY="-1.97279" v:shadowType="1"
						transform="matrix(1,0,0,1,0.345598,1.97279)" class="st1">
					<rect x="0" y="326.597" width="120.472" height="14.1732" rx="2.12598" ry="2.12598" class="st4"/>
				</g>
				<rect x="0" y="326.597" width="120.472" height="14.1732" rx="2.12598" ry="2.12598" class="st5"/>
				<text x="9.85" y="336.98" class="st6" v:langID="1033"><v:paragraph v:horizAlign="1"/><v:tabList/>compaction_deferred()</text>			</g>
			<g id="shape2-13" v:mID="2" v:groupContext="shape" transform="translate(14.1732,-113.386)">
				<title>矩形.2</title>
				<desc>compaction_defer_reset()</desc>
				<v:userDefs>
					<v:ud v:nameU="visVersion" v:val="VT0(15):26"/>
				</v:userDefs>
				<v:textBlock v:margins="rect(2,2,2,2)" v:tabSpace="42.5197"/>
				<v:textRect cx="60.2362" cy="333.684" width="120.48" height="14.1732"/>
				<g id="shadow2-14" v:groupContext="shadow" v:shadowOffsetX="0.345598" v:shadowOffsetY="-1.97279" v:shadowType="1"
						transform="matrix(1,0,0,1,0.345598,1.97279)" class="st1">
					<rect x="0" y="326.597" width="120.472" height="14.1732" rx="2.12598" ry="2.12598" class="st4"/>
				</g>
				<rect x="0" y="326.597" width="120.472" height="14.1732" rx="2.12598" ry="2.12598" class="st5"/>
				<text x="3.74" y="336.98" class="st6" v:langID="1033"><v:paragraph v:horizAlign="1"/><v:tabList/>compaction_defer_reset()</text>			</g>
			<g id="shape3-19" v:mID="3" v:groupContext="shape" transform="translate(14.1732,5.68434E-14)">
				<title>矩形.3</title>
				<desc>defer_compaction()</desc>
				<v:userDefs>
					<v:ud v:nameU="visVersion" v:val="VT0(15):26"/>
				</v:userDefs>
				<v:textBlock v:margins="rect(2,2,2,2)" v:tabSpace="42.5197"/>
				<v:textRect cx="60.2362" cy="333.684" width="120.48" height="14.1732"/>
				<g id="shadow3-20" v:groupContext="shadow" v:shadowOffsetX="0.345598" v:shadowOffsetY="-1.97279" v:shadowType="1"
						transform="matrix(1,0,0,1,0.345598,1.97279)" class="st1">
					<rect x="0" y="326.597" width="120.472" height="14.1732" rx="2.12598" ry="2.12598" class="st4"/>
				</g>
				<rect x="0" y="326.597" width="120.472" height="14.1732" rx="2.12598" ry="2.12598" class="st5"/>
				<text x="16.87" y="336.98" class="st6" v:langID="1033"><v:paragraph v:horizAlign="1"/><v:tabList/>defer_compaction()</text>			</g>
			<g id="shape4-25" v:mID="4" v:groupContext="shape" transform="translate(283.465,-70.8661)">
				<title>矩形.4</title>
				<v:userDefs>
					<v:ud v:nameU="visVersion" v:val="VT0(15):26"/>
				</v:userDefs>
				<g id="shadow4-26" v:groupContext="shadow" v:shadowOffsetX="0.345598" v:shadowOffsetY="-1.97279" v:shadowType="1"
						transform="matrix(1,0,0,1,0.345598,1.97279)" class="st1">
					<rect x="0" y="337.936" width="35.4331" height="2.83465" rx="0.708661" ry="0.708661" class="st7"/>
				</g>
				<rect x="0" y="337.936" width="35.4331" height="2.83465" rx="0.708661" ry="0.708661" class="st8"/>
			</g>
			<g id="shape5-30" v:mID="5" v:groupContext="shape" transform="translate(325.984,-70.8661)">
				<title>矩形.5</title>
				<v:userDefs>
					<v:ud v:nameU="visVersion" v:val="VT0(15):26"/>
				</v:userDefs>
				<g id="shadow5-31" v:groupContext="shadow" v:shadowOffsetX="0.345598" v:shadowOffsetY="-1.97279" v:shadowType="1"
						transform="matrix(1,0,0,1,0.345598,1.97279)" class="st1">
					<rect x="0" y="335.101" width="35.4331" height="5.66929" rx="0.708661" ry="0.708661" class="st7"/>
				</g>
				<rect x="0" y="335.101" width="35.4331" height="5.66929" rx="0.708661" ry="0.708661" class="st8"/>
			</g>
			<g id="shape6-35" v:mID="6" v:groupContext="shape" transform="translate(368.504,-70.8661)">
				<title>矩形.6</title>
				<v:userDefs>
					<v:ud v:nameU="visVersion" v:val="VT0(15):26"/>
				</v:userDefs>
				<g id="shadow6-36" v:groupContext="shadow" v:shadowOffsetX="0.345598" v:shadowOffsetY="-1.97279" v:shadowType="1"
						transform="matrix(1,0,0,1,0.345598,1.97279)" class="st1">
					<rect x="0" y="329.432" width="35.4331" height="11.3386" rx="0.708661" ry="0.708661" class="st7"/>
				</g>
				<rect x="0" y="329.432" width="35.4331" height="11.3386" rx="0.708661" ry="0.708661" class="st8"/>
			</g>
			<g id="shape7-40" v:mID="7" v:groupContext="shape" transform="translate(411.024,-70.8661)">
				<title>矩形.7</title>
				<v:userDefs>
					<v:ud v:nameU="visVersion" v:val="VT0(15):26"/>
				</v:userDefs>
				<g id="shadow7-41" v:groupContext="shadow" v:shadowOffsetX="0.345598" v:shadowOffsetY="-1.97279" v:shadowType="1"
						transform="matrix(1,0,0,1,0.345598,1.97279)" class="st1">
					<rect x="0" y="318.093" width="35.4331" height="22.6772" rx="0.708661" ry="0.708661" class="st7"/>
				</g>
				<rect x="0" y="318.093" width="35.4331" height="22.6772" rx="0.708661" ry="0.708661" class="st8"/>
			</g>
			<g id="shape8-45" v:mID="8" v:groupContext="shape" transform="translate(453.543,-70.8661)">
				<title>矩形.8</title>
				<v:userDefs>
					<v:ud v:nameU="visVersion" v:val="VT0(15):26"/>
				</v:userDefs>
				<g id="shadow8-46" v:groupContext="shadow" v:shadowOffsetX="0.345598" v:shadowOffsetY="-1.97279" v:shadowType="1"
						transform="matrix(1,0,0,1,0.345598,1.97279)" class="st1">
					<rect x="0" y="295.416" width="35.4331" height="45.3543" rx="0.708661" ry="0.708661" class="st7"/>
				</g>
				<rect x="0" y="295.416" width="35.4331" height="45.3543" rx="0.708661" ry="0.708661" class="st8"/>
			</g>
			<g id="shape9-50" v:mID="9" v:groupContext="shape" transform="translate(496.063,-70.8661)">
				<title>矩形.9</title>
				<v:userDefs>
					<v:ud v:nameU="visVersion" v:val="VT0(15):26"/>
				</v:userDefs>
				<g id="shadow9-51" v:groupContext="shadow" v:shadowOffsetX="0.345598" v:shadowOffsetY="-1.97279" v:shadowType="1"
						transform="matrix(1,0,0,1,0.345598,1.97279)" class="st1">
					<rect x="0" y="250.062" width="35.4331" height="90.7087" rx="0.708661" ry="0.708661" class="st7"/>
				</g>
				<rect x="0" y="250.062" width="35.4331" height="90.7087" rx="0.708661" ry="0.708661" class="st8"/>
			</g>
			<g id="shape11-55" v:mID="11" v:groupContext="shape" transform="translate(538.583,-70.8661)">
				<title>矩形.11</title>
				<v:userDefs>
					<v:ud v:nameU="visVersion" v:val="VT0(15):26"/>
				</v:userDefs>
				<g id="shadow11-56" v:groupContext="shadow" v:shadowOffsetX="0.345598" v:shadowOffsetY="-1.97279" v:shadowType="1"
						transform="matrix(1,0,0,1,0.345598,1.97279)" class="st1">
					<rect x="0" y="159.353" width="35.4331" height="181.417" rx="0.708661" ry="0.708661" class="st7"/>
				</g>
				<rect x="0" y="159.353" width="35.4331" height="181.417" rx="0.708661" ry="0.708661" class="st8"/>
			</g>
			<g id="shape12-60" v:mID="12" v:groupContext="shape" transform="translate(283.465,-75.1181)">
				<title>工作表.12</title>
				<desc>20=1</desc>
				<v:textBlock v:margins="rect(4,4,4,4)" v:tabSpace="42.5197"/>
				<v:textRect cx="17.7165" cy="333.684" width="35.44" height="14.1732"/>
				<rect x="0" y="326.597" width="35.4331" height="14.1732" class="st9"/>
				<text x="8.77" y="337.28" class="st10" v:langID="2052"><v:paragraph v:horizAlign="2"/><v:tabList/>2<tspan
							dy="-0.198em" class="st11" v:baseFontSize="12">0</tspan><tspan dy="0.129em" class="st12">=</tspan>1</text>			</g>
			<g id="shape13-65" v:mID="13" v:groupContext="shape" transform="translate(325.984,-77.9528)">
				<title>工作表.13</title>
				<desc>21=2</desc>
				<v:textBlock v:margins="rect(4,4,4,4)" v:tabSpace="42.5197"/>
				<v:textRect cx="17.7165" cy="333.684" width="35.44" height="14.1732"/>
				<rect x="0" y="326.597" width="35.4331" height="14.1732" class="st9"/>
				<text x="8.77" y="337.28" class="st10" v:langID="2052"><v:paragraph v:horizAlign="2"/><v:tabList/>2<tspan
							dy="-0.198em" class="st11" v:baseFontSize="12">1</tspan><tspan dy="0.129em" class="st12">=</tspan>2</text>			</g>
			<g id="shape14-70" v:mID="14" v:groupContext="shape" transform="translate(368.504,-85.0394)">
				<title>工作表.14</title>
				<desc>22=4</desc>
				<v:textBlock v:margins="rect(4,4,4,4)" v:tabSpace="42.5197"/>
				<v:textRect cx="17.7165" cy="333.684" width="35.44" height="14.1732"/>
				<rect x="0" y="326.597" width="35.4331" height="14.1732" class="st9"/>
				<text x="8.77" y="337.28" class="st10" v:langID="2052"><v:paragraph v:horizAlign="2"/><v:tabList/>2<tspan
							dy="-0.198em" class="st11" v:baseFontSize="12">2</tspan><tspan dy="0.129em" class="st12">=</tspan>4</text>			</g>
			<g id="shape15-75" v:mID="15" v:groupContext="shape" transform="translate(411.024,-96.378)">
				<title>工作表.15</title>
				<desc>23=8</desc>
				<v:textBlock v:margins="rect(4,4,4,4)" v:tabSpace="42.5197"/>
				<v:textRect cx="17.7165" cy="333.684" width="35.44" height="14.1732"/>
				<rect x="0" y="326.597" width="35.4331" height="14.1732" class="st9"/>
				<text x="8.77" y="337.28" class="st10" v:langID="2052"><v:paragraph v:horizAlign="2"/><v:tabList/>2<tspan
							dy="-0.198em" class="st11" v:baseFontSize="12">3</tspan><tspan dy="0.129em" class="st12">=</tspan>8</text>			</g>
			<g id="shape16-80" v:mID="16" v:groupContext="shape" transform="translate(450,-120.472)">
				<title>工作表.16</title>
				<desc>24=16</desc>
				<v:textBlock v:margins="rect(4,4,4,4)" v:tabSpace="42.5197"/>
				<v:textRect cx="21.2598" cy="333.684" width="42.52" height="14.1732"/>
				<rect x="0" y="326.597" width="42.5197" height="14.1732" class="st9"/>
				<text x="9.85" y="337.28" class="st10" v:langID="2052"><v:paragraph v:horizAlign="2"/><v:tabList/>2<tspan
							dy="-0.198em" class="st11" v:baseFontSize="12">4</tspan><tspan dy="0.129em" class="st12">=</tspan>16</text>			</g>
			<g id="shape17-85" v:mID="17" v:groupContext="shape" transform="translate(492.52,-162.992)">
				<title>工作表.17</title>
				<desc>25=32</desc>
				<v:textBlock v:margins="rect(4,4,4,4)" v:tabSpace="42.5197"/>
				<v:textRect cx="21.2598" cy="333.684" width="42.52" height="14.1732"/>
				<rect x="0" y="326.597" width="42.5197" height="14.1732" class="st9"/>
				<text x="9.85" y="337.28" class="st10" v:langID="2052"><v:paragraph v:horizAlign="2"/><v:tabList/>2<tspan
							dy="-0.198em" class="st11" v:baseFontSize="12">5</tspan><tspan dy="0.129em" class="st12">=</tspan>32</text>			</g>
			<g id="shape18-90" v:mID="18" v:groupContext="shape" transform="translate(535.039,-255.118)">
				<title>工作表.18</title>
				<desc>26=64</desc>
				<v:textBlock v:margins="rect(4,4,4,4)" v:tabSpace="42.5197"/>
				<v:textRect cx="21.2598" cy="333.684" width="42.52" height="14.1732"/>
				<rect x="0" y="326.597" width="42.5197" height="14.1732" class="st9"/>
				<text x="9.85" y="337.28" class="st10" v:langID="2052"><v:paragraph v:horizAlign="2"/><v:tabList/>2<tspan
							dy="-0.198em" class="st11" v:baseFontSize="12">6</tspan><tspan dy="0.129em" class="st12">=</tspan>64</text>			</g>
			<g id="shape19-95" v:mID="19" v:groupContext="shape" transform="translate(581.102,628.204) rotate(180)">
				<title>普通箭头</title>
				<v:userDefs>
					<v:ud v:nameU="visVersion" v:val="VT0(15):26"/>
					<v:ud v:nameU="ArrowType" v:prompt="" v:val="VT0(2):26"/>
				</v:userDefs>
				<g id="shadow19-96" v:groupContext="shadow" v:shadowOffsetX="0.345598" v:shadowOffsetY="-1.97279" v:shadowType="1"
						transform="matrix(1,0,0,1,-0.345598,-1.97279)" class="st1">
					<path d="M0 340.77 L11.34 330.48 L11.34 335.62 L304.72 335.62 L304.72 340.77 L304.72 345.92 L11.34 345.92 L11.34
								 351.06 L0 340.77 Z" class="st4"/>
				</g>
				<path d="M0 340.77 L11.34 330.48 L11.34 335.62 L304.72 335.62 L304.72 340.77 L304.72 345.92 L11.34 345.92 L11.34
							 351.06 L0 340.77 Z" class="st13"/>
			</g>
			<g id="shape21-100" v:mID="21" v:groupContext="shape" transform="translate(290.551,-49.6063)">
				<title>矩形</title>
				<desc>0</desc>
				<v:userDefs>
					<v:ud v:nameU="visVersion" v:val="VT0(15):26"/>
				</v:userDefs>
				<v:textBlock v:margins="rect(4,4,4,4)" v:tabSpace="42.5197"/>
				<v:textRect cx="8.85827" cy="337.227" width="17.72" height="7.08661"/>
				<g id="shadow21-101" v:groupContext="shadow" v:shadowOffsetX="0.345598" v:shadowOffsetY="-1.97279" v:shadowType="1"
						transform="matrix(1,0,0,1,0.345598,1.97279)" class="st1">
					<rect x="0" y="333.684" width="17.7165" height="7.08661" class="st14"/>
					<text x="6.36" y="340.23" class="st15" v:langID="2052"><v:paragraph v:horizAlign="1"/><v:tabList/>0</text>				</g>
				<rect x="0" y="333.684" width="17.7165" height="7.08661" class="st9"/>
				<text x="6.36" y="340.23" class="st16" v:langID="2052"><v:paragraph v:horizAlign="1"/><v:tabList/>0</text>			</g>
			<g id="shape22-108" v:mID="22" v:groupContext="shape" transform="translate(336.614,-49.6063)">
				<title>矩形.22</title>
				<desc>1</desc>
				<v:userDefs>
					<v:ud v:nameU="visVersion" v:val="VT0(15):26"/>
				</v:userDefs>
				<v:textBlock v:margins="rect(4,4,4,4)" v:tabSpace="42.5197"/>
				<v:textRect cx="8.85827" cy="337.227" width="17.72" height="7.08661"/>
				<g id="shadow22-109" v:groupContext="shadow" v:shadowOffsetX="0.345598" v:shadowOffsetY="-1.97279" v:shadowType="1"
						transform="matrix(1,0,0,1,0.345598,1.97279)" class="st1">
					<rect x="0" y="333.684" width="17.7165" height="7.08661" class="st14"/>
					<text x="6.36" y="340.23" class="st15" v:langID="2052"><v:paragraph v:horizAlign="1"/><v:tabList/>1</text>				</g>
				<rect x="0" y="333.684" width="17.7165" height="7.08661" class="st9"/>
				<text x="6.36" y="340.23" class="st16" v:langID="2052"><v:paragraph v:horizAlign="1"/><v:tabList/>1</text>			</g>
			<g id="shape23-116" v:mID="23" v:groupContext="shape" transform="translate(375.591,-49.6063)">
				<title>矩形.23</title>
				<desc>2</desc>
				<v:userDefs>
					<v:ud v:nameU="visVersion" v:val="VT0(15):26"/>
				</v:userDefs>
				<v:textBlock v:margins="rect(4,4,4,4)" v:tabSpace="42.5197"/>
				<v:textRect cx="8.85827" cy="337.227" width="17.72" height="7.08661"/>
				<g id="shadow23-117" v:groupContext="shadow" v:shadowOffsetX="0.345598" v:shadowOffsetY="-1.97279" v:shadowType="1"
						transform="matrix(1,0,0,1,0.345598,1.97279)" class="st1">
					<rect x="0" y="333.684" width="17.7165" height="7.08661" class="st14"/>
					<text x="6.36" y="340.23" class="st15" v:langID="2052"><v:paragraph v:horizAlign="1"/><v:tabList/>2</text>				</g>
				<rect x="0" y="333.684" width="17.7165" height="7.08661" class="st9"/>
				<text x="6.36" y="340.23" class="st16" v:langID="2052"><v:paragraph v:horizAlign="1"/><v:tabList/>2</text>			</g>
			<g id="shape24-124" v:mID="24" v:groupContext="shape" transform="translate(418.11,-49.6063)">
				<title>矩形.24</title>
				<desc>3</desc>
				<v:userDefs>
					<v:ud v:nameU="visVersion" v:val="VT0(15):26"/>
				</v:userDefs>
				<v:textBlock v:margins="rect(4,4,4,4)" v:tabSpace="42.5197"/>
				<v:textRect cx="8.85827" cy="337.227" width="17.72" height="7.08661"/>
				<g id="shadow24-125" v:groupContext="shadow" v:shadowOffsetX="0.345598" v:shadowOffsetY="-1.97279" v:shadowType="1"
						transform="matrix(1,0,0,1,0.345598,1.97279)" class="st1">
					<rect x="0" y="333.684" width="17.7165" height="7.08661" class="st14"/>
					<text x="6.36" y="340.23" class="st15" v:langID="2052"><v:paragraph v:horizAlign="1"/><v:tabList/>3</text>				</g>
				<rect x="0" y="333.684" width="17.7165" height="7.08661" class="st9"/>
				<text x="6.36" y="340.23" class="st16" v:langID="2052"><v:paragraph v:horizAlign="1"/><v:tabList/>3</text>			</g>
			<g id="shape25-132" v:mID="25" v:groupContext="shape" transform="translate(460.63,-49.6063)">
				<title>矩形.25</title>
				<desc>4</desc>
				<v:userDefs>
					<v:ud v:nameU="visVersion" v:val="VT0(15):26"/>
				</v:userDefs>
				<v:textBlock v:margins="rect(4,4,4,4)" v:tabSpace="42.5197"/>
				<v:textRect cx="8.85827" cy="337.227" width="17.72" height="7.08661"/>
				<g id="shadow25-133" v:groupContext="shadow" v:shadowOffsetX="0.345598" v:shadowOffsetY="-1.97279" v:shadowType="1"
						transform="matrix(1,0,0,1,0.345598,1.97279)" class="st1">
					<rect x="0" y="333.684" width="17.7165" height="7.08661" class="st14"/>
					<text x="6.36" y="340.23" class="st15" v:langID="2052"><v:paragraph v:horizAlign="1"/><v:tabList/>4</text>				</g>
				<rect x="0" y="333.684" width="17.7165" height="7.08661" class="st9"/>
				<text x="6.36" y="340.23" class="st16" v:langID="2052"><v:paragraph v:horizAlign="1"/><v:tabList/>4</text>			</g>
			<g id="shape26-140" v:mID="26" v:groupContext="shape" transform="translate(503.15,-49.6063)">
				<title>矩形.26</title>
				<desc>5</desc>
				<v:userDefs>
					<v:ud v:nameU="visVersion" v:val="VT0(15):26"/>
				</v:userDefs>
				<v:textBlock v:margins="rect(4,4,4,4)" v:tabSpace="42.5197"/>
				<v:textRect cx="8.85827" cy="337.227" width="17.72" height="7.08661"/>
				<g id="shadow26-141" v:groupContext="shadow" v:shadowOffsetX="0.345598" v:shadowOffsetY="-1.97279" v:shadowType="1"
						transform="matrix(1,0,0,1,0.345598,1.97279)" class="st1">
					<rect x="0" y="333.684" width="17.7165" height="7.08661" class="st14"/>
					<text x="6.36" y="340.23" class="st15" v:langID="2052"><v:paragraph v:horizAlign="1"/><v:tabList/>5</text>				</g>
				<rect x="0" y="333.684" width="17.7165" height="7.08661" class="st9"/>
				<text x="6.36" y="340.23" class="st16" v:langID="2052"><v:paragraph v:horizAlign="1"/><v:tabList/>5</text>			</g>
			<g id="shape27-148" v:mID="27" v:groupContext="shape" transform="translate(545.669,-49.6063)">
				<title>矩形.27</title>
				<desc>6</desc>
				<v:userDefs>
					<v:ud v:nameU="visVersion" v:val="VT0(15):26"/>
				</v:userDefs>
				<v:textBlock v:margins="rect(4,4,4,4)" v:tabSpace="42.5197"/>
				<v:textRect cx="8.85827" cy="337.227" width="17.72" height="7.08661"/>
				<g id="shadow27-149" v:groupContext="shadow" v:shadowOffsetX="0.345598" v:shadowOffsetY="-1.97279" v:shadowType="1"
						transform="matrix(1,0,0,1,0.345598,1.97279)" class="st1">
					<rect x="0" y="333.684" width="17.7165" height="7.08661" class="st14"/>
					<text x="6.36" y="340.23" class="st15" v:langID="2052"><v:paragraph v:horizAlign="1"/><v:tabList/>6</text>				</g>
				<rect x="0" y="333.684" width="17.7165" height="7.08661" class="st9"/>
				<text x="6.36" y="340.23" class="st16" v:langID="2052"><v:paragraph v:horizAlign="1"/><v:tabList/>6</text>			</g>
			<g id="shape28-156" v:mID="28" v:groupContext="shape" transform="translate(538.583,-29.0551)">
				<title>矩形.28</title>
				<desc>MAX</desc>
				<v:userDefs>
					<v:ud v:nameU="visVersion" v:val="VT0(15):26"/>
				</v:userDefs>
				<v:textBlock v:margins="rect(4,4,4,4)" v:tabSpace="42.5197"/>
				<v:textRect cx="17.7165" cy="333.684" width="35.44" height="14.1732"/>
				<g id="shadow28-157" v:groupContext="shadow" v:shadowOffsetX="0.345598" v:shadowOffsetY="-1.97279" v:shadowType="1"
						transform="matrix(1,0,0,1,0.345598,1.97279)" class="st1">
					<rect x="0" y="326.597" width="35.4331" height="14.1732" class="st14"/>
					<text x="6.05" y="336.68" class="st15" v:langID="2052"><v:paragraph v:horizAlign="1"/><v:tabList/>MAX</text>				</g>
				<rect x="0" y="326.597" width="35.4331" height="14.1732" class="st9"/>
				<text x="6.05" y="336.68" class="st16" v:langID="2052"><v:paragraph v:horizAlign="1"/><v:tabList/>MAX</text>			</g>
			<g id="shape29-164" v:mID="29" v:groupContext="shape" transform="translate(93.8976,-46.7717)">
				<title>矩形.29</title>
				<v:userDefs>
					<v:ud v:nameU="visVersion" v:val="VT0(15):26"/>
				</v:userDefs>
				<g id="shadow29-165" v:groupContext="shadow" v:shadowOffsetX="0.345598" v:shadowOffsetY="-1.97279" v:shadowType="1"
						transform="matrix(1,0,0,1,0.345598,1.97279)" class="st1">
					<rect x="0" y="326.597" width="95.6693" height="14.1732" class="st14"/>
				</g>
				<rect x="0" y="326.597" width="95.6693" height="14.1732" class="st9"/>
			</g>
			<g id="shape30-169" v:mID="30" v:groupContext="shape" transform="translate(148.819,-45.8765)">
				<title>矩形.30</title>
				<desc>z→compact_defer_shift =</desc>
				<v:userDefs>
					<v:ud v:nameU="visVersion" v:val="VT0(15):26"/>
				</v:userDefs>
				<v:textBlock v:margins="rect(4,4,4,4)" v:tabSpace="42.5197"/>
				<v:textRect cx="63.7795" cy="333.684" width="127.56" height="14.1732"/>
				<g id="shadow30-170" v:groupContext="shadow" v:shadowOffsetX="0.345598" v:shadowOffsetY="-1.97279" v:shadowType="1"
						transform="matrix(1,0,0,1,0.345598,1.97279)" class="st1">
					<rect x="0" y="326.597" width="127.559" height="14.1732" rx="0.708661" ry="0.708661" class="st14"/>
					<text x="8.32" y="337.3" class="st17" v:langID="2052"><v:paragraph v:horizAlign="2"/><v:tabList/>z<tspan
								class="st18">→</tspan>compact_defer_shift =  </text>				</g>
				<rect x="0" y="326.597" width="127.559" height="14.1732" rx="0.708661" ry="0.708661" class="st19"/>
				<text x="8.32" y="337.3" class="st20" v:langID="2052"><v:paragraph v:horizAlign="2"/><v:tabList/>z<tspan
							class="st18">→</tspan>compact_defer_shift =  </text>			</g>
			<g id="shape32-179" v:mID="32" v:groupContext="shape" transform="translate(283.465,-250.642)">
				<title>矩形.32</title>
				<desc>defer_limit =</desc>
				<v:userDefs>
					<v:ud v:nameU="visVersion" v:val="VT0(15):26"/>
				</v:userDefs>
				<v:textBlock v:margins="rect(4,4,4,4)" v:tabSpace="42.5197"/>
				<v:textRect cx="35.4331" cy="333.684" width="70.87" height="14.1732"/>
				<g id="shadow32-180" v:groupContext="shadow" v:shadowOffsetX="0.345598" v:shadowOffsetY="-1.97279" v:shadowType="1"
						transform="matrix(1,0,0,1,0.345598,1.97279)" class="st1">
					<rect x="0" y="326.597" width="70.8661" height="14.1732" rx="0.708661" ry="0.708661" class="st14"/>
					<text x="6.52" y="336.98" class="st17" v:langID="2052"><v:paragraph v:horizAlign="1"/><v:tabList/>defer_limit =</text>				</g>
				<rect x="0" y="326.597" width="70.8661" height="14.1732" rx="0.708661" ry="0.708661" class="st19"/>
				<text x="6.52" y="336.98" class="st20" v:langID="2052"><v:paragraph v:horizAlign="1"/><v:tabList/>defer_limit =</text>			</g>
			<g id="shape33-187" v:mID="33" v:groupContext="shape" transform="translate(145.276,-171.496)">
				<title>矩形.33</title>
				<desc>z→compact_considered 上限由defer_linit决定</desc>
				<v:userDefs>
					<v:ud v:nameU="visVersion" v:val="VT0(15):26"/>
				</v:userDefs>
				<v:textBlock v:margins="rect(4,4,4,4)" v:tabSpace="42.5197"/>
				<v:textRect cx="63.7795" cy="327.306" width="127.56" height="26.9291"/>
				<g id="shadow33-188" v:groupContext="shadow" v:shadowOffsetX="0.345598" v:shadowOffsetY="-1.97279" v:shadowType="1"
						transform="matrix(1,0,0,1,0.345598,1.97279)" class="st1">
					<rect x="0" y="313.841" width="127.559" height="26.9291" rx="0.708661" ry="0.708661" class="st14"/>
					<text x="17.27" y="323.69" class="st17" v:langID="2052"><v:paragraph v:horizAlign="2"/><v:tabList/>z<tspan
								class="st18">→</tspan>compact_considered<v:newlineChar/><tspan x="22.74" dy="1.316em" class="st18">上限由</tspan>defer_linit<tspan
								class="st18">决定</tspan></text>				</g>
				<rect x="0" y="313.841" width="127.559" height="26.9291" rx="0.708661" ry="0.708661" class="st19"/>
				<text x="17.27" y="323.69" class="st20" v:langID="2052"><v:paragraph v:horizAlign="2"/><v:tabList/>z<tspan
							class="st18">→</tspan>compact_considered<v:newlineChar/><tspan x="22.74" dy="1.316em" class="st18">上限由</tspan>defer_linit<tspan
							class="st18">决定</tspan></text>			</g>
			<g id="shape34-201" v:mID="34" v:groupContext="shape" v:layerMember="0"
					transform="translate(286.459,638.769) rotate(-26.4553) scale(1,-1)">
				<title>波浪连接线 1.47</title>
				<v:userDefs>
					<v:ud v:nameU="Scale" v:val="VT0(1):26"/>
					<v:ud v:nameU="AntiScale" v:val="VT0(1):26"/>
					<v:ud v:nameU="visVersion" v:val="VT0(15):26"/>
				</v:userDefs>
				<path d="M0 340.77 C43.32 321.78 45.57 315.71 87.07 340.77" class="st21"/>
			</g>
			<g id="shape35-207" v:mID="35" v:groupContext="shape" v:layerMember="0"
					transform="translate(343.412,-49.0365) rotate(37.78)">
				<title>波浪连接线 1.35</title>
				<v:userDefs>
					<v:ud v:nameU="Scale" v:val="VT0(1):26"/>
					<v:ud v:nameU="AntiScale" v:val="VT0(1):26"/>
					<v:ud v:nameU="visVersion" v:val="VT0(15):26"/>
				</v:userDefs>
				<path d="M0 340.77 C45.06 304.43 64.21 321.43 98.63 340.77" class="st21"/>
			</g>
			<g id="shape36-212" v:mID="36" v:groupContext="shape" v:layerMember="0"
					transform="translate(327.361,501.341) rotate(-34.439) scale(1,-1)">
				<title>波浪连接线 1.36</title>
				<v:userDefs>
					<v:ud v:nameU="Scale" v:val="VT0(1):26"/>
					<v:ud v:nameU="AntiScale" v:val="VT0(1):26"/>
					<v:ud v:nameU="visVersion" v:val="VT0(15):26"/>
				</v:userDefs>
				<path d="M0 340.77 C50.59 304.53 72.24 322.69 90.22 340.77" class="st21"/>
			</g>
			<g id="shape37-217" v:mID="37" v:groupContext="shape" v:layerMember="0"
					transform="translate(323.671,-190.799) rotate(33.6901)">
				<title>波浪连接线 1.37</title>
				<v:userDefs>
					<v:ud v:nameU="Scale" v:val="VT0(1):26"/>
					<v:ud v:nameU="AntiScale" v:val="VT0(1):26"/>
					<v:ud v:nameU="visVersion" v:val="VT0(15):26"/>
				</v:userDefs>
				<path d="M0 340.77 C52.11 311.14 52.59 318.08 89.43 340.77" class="st21"/>
			</g>
			<g id="shape38-222" v:mID="38" v:groupContext="shape" transform="translate(198.425,-7.08661)">
				<title>矩形.38</title>
				<desc>increase</desc>
				<v:userDefs>
					<v:ud v:nameU="visVersion" v:val="VT0(15):26"/>
				</v:userDefs>
				<v:textBlock v:margins="rect(4,4,4,4)" v:tabSpace="42.5197"/>
				<v:textRect cx="24.8031" cy="333.684" width="49.61" height="14.1732"/>
				<g id="shadow38-223" v:groupContext="shadow" v:shadowOffsetX="0.345598" v:shadowOffsetY="-1.97279" v:shadowType="1"
						transform="matrix(1,0,0,1,0.345598,1.97279)" class="st1">
					<rect x="0" y="326.597" width="49.6063" height="14.1732" class="st14"/>
					<text x="8.43" y="336.68" class="st15" v:langID="1033"><v:paragraph v:horizAlign="1"/><v:tabList/>increase</text>				</g>
				<rect x="0" y="326.597" width="49.6063" height="14.1732" class="st9"/>
				<text x="8.43" y="336.68" class="st16" v:langID="1033"><v:paragraph v:horizAlign="1"/><v:tabList/>increase</text>			</g>
			<g id="shape39-230" v:mID="39" v:groupContext="shape" transform="translate(205.512,-113.386)">
				<title>矩形.39</title>
				<desc>reset(0)</desc>
				<v:userDefs>
					<v:ud v:nameU="visVersion" v:val="VT0(15):26"/>
				</v:userDefs>
				<v:textBlock v:margins="rect(4,4,4,4)" v:tabSpace="42.5197"/>
				<v:textRect cx="24.8031" cy="333.684" width="49.61" height="14.1732"/>
				<g id="shadow39-231" v:groupContext="shadow" v:shadowOffsetX="0.345598" v:shadowOffsetY="-1.97279" v:shadowType="1"
						transform="matrix(1,0,0,1,0.345598,1.97279)" class="st1">
					<rect x="0" y="326.597" width="49.6063" height="14.1732" class="st14"/>
					<text x="9.53" y="336.68" class="st15" v:langID="2052"><v:paragraph v:horizAlign="1"/><v:tabList/>reset(0)</text>				</g>
				<rect x="0" y="326.597" width="49.6063" height="14.1732" class="st9"/>
				<text x="9.53" y="336.68" class="st16" v:langID="2052"><v:paragraph v:horizAlign="1"/><v:tabList/>reset(0)</text>			</g>
			<g id="shape40-238" v:mID="40" v:groupContext="shape" transform="translate(191.339,-233.858)">
				<title>矩形.40</title>
				<desc>increase</desc>
				<v:userDefs>
					<v:ud v:nameU="visVersion" v:val="VT0(15):26"/>
				</v:userDefs>
				<v:textBlock v:margins="rect(4,4,4,4)" v:tabSpace="42.5197"/>
				<v:textRect cx="24.8031" cy="333.684" width="49.61" height="14.1732"/>
				<g id="shadow40-239" v:groupContext="shadow" v:shadowOffsetX="0.345598" v:shadowOffsetY="-1.97279" v:shadowType="1"
						transform="matrix(1,0,0,1,0.345598,1.97279)" class="st1">
					<rect x="0" y="326.597" width="49.6063" height="14.1732" class="st14"/>
					<text x="8.43" y="336.68" class="st15" v:langID="1033"><v:paragraph v:horizAlign="1"/><v:tabList/>increase</text>				</g>
				<rect x="0" y="326.597" width="49.6063" height="14.1732" class="st9"/>
				<text x="8.43" y="336.68" class="st16" v:langID="1033"><v:paragraph v:horizAlign="1"/><v:tabList/>increase</text>			</g>
			<g id="shape41-246" v:mID="41" v:groupContext="shape" transform="translate(0,-212.598)">
				<title>矩形.41</title>
				<desc>true:继续抑制延迟进行compaction直到达到上限次数</desc>
				<v:userDefs>
					<v:ud v:nameU="visVersion" v:val="VT0(15):26"/>
				</v:userDefs>
				<v:textBlock v:margins="rect(4,4,4,4)" v:tabSpace="42.5197"/>
				<v:textRect cx="81.4961" cy="327.306" width="163" height="26.9291"/>
				<g id="shadow41-247" v:groupContext="shadow" v:shadowOffsetX="0.345598" v:shadowOffsetY="-1.97279" v:shadowType="1"
						transform="matrix(1,0,0,1,0.345598,1.97279)" class="st1">
					<rect x="0" y="313.841" width="162.992" height="26.9291" class="st14"/>
					<text x="0.4em 0.678em 1.011em 1.511em" y="324.02" class="st15" v:langID="2052"><v:paragraph v:horizAlign="3"/><v:tabList/>true<tspan
								x="1.955em" dy="0em" class="st12">:</tspan><tspan x="2.233em 3.233em 4.233em 5.233em 6.233em 7.233em
									 8.233em 9.233em" dy="0em" class="st18">继续抑制延迟进行</tspan><tspan x="10.234em 10.677em 11.177em
									 11.955em 12.455em 12.899em 13.343em 13.621em 13.899em 14.399em" dy="0em" class="st12">compaction</tspan><tspan
								x="14.899em" dy="0em" class="st18">，</tspan><tspan x="0.4em 1.4em 2.4em 3.4em 4.4em 5.4em 6.4em 7.4em"
								dy="1.316em" class="st18">直到达到上限次数</tspan></text>				</g>
				<rect x="0" y="313.841" width="162.992" height="26.9291" class="st9"/>
				<text x="0.4em 0.678em 1.011em 1.511em" y="324.02" class="st23" v:langID="2052"><v:paragraph v:horizAlign="3"/><v:tabList/>true<tspan
							x="1.955em" dy="0em" class="st24">:</tspan><tspan x="2.233em 3.233em 4.233em 5.233em 6.233em 7.233em
								 8.233em 9.233em" dy="0em" class="st25">继续抑制延迟进行</tspan><tspan x="10.234em 10.677em 11.177em 11.955em
								 12.455em 12.899em 13.343em 13.621em 13.899em 14.399em" dy="0em" class="st24">compaction</tspan><tspan
							x="14.899em" dy="0em" class="st25">，</tspan><tspan x="0.4em 1.4em 2.4em 3.4em 4.4em 5.4em 6.4em 7.4em"
							dy="1.316em" class="st25">直到达到上限次数</tspan></text>			</g>
			<g id="shape42-264" v:mID="42" v:groupContext="shape" transform="translate(0,-256.535)">
				<title>矩形.42</title>
				<desc>false:大于等于上限次数尝试进行compaction</desc>
				<v:userDefs>
					<v:ud v:nameU="visVersion" v:val="VT0(15):26"/>
				</v:userDefs>
				<v:textBlock v:margins="rect(4,4,4,4)" v:tabSpace="42.5197"/>
				<v:textRect cx="81.4961" cy="327.306" width="163" height="26.9291"/>
				<g id="shadow42-265" v:groupContext="shadow" v:shadowOffsetX="0.345598" v:shadowOffsetY="-1.97279" v:shadowType="1"
						transform="matrix(1,0,0,1,0.345598,1.97279)" class="st1">
					<rect x="0" y="313.841" width="162.992" height="26.9291" class="st14"/>
					<text x="0.4em 0.752em 1.214em 1.51em 1.918em" y="324.6" class="st15" v:langID="2052"><v:paragraph
								v:horizAlign="3"/><v:tabList/>false<tspan x="2.38em" dy="0em" class="st12">:</tspan><tspan x="2.677em
									 3.695em 4.714em 5.732em 6.751em 7.769em 8.788em 9.807em" dy="0em" class="st18">大于等于上限次数</tspan><tspan
								x="10.825em" dy="0em" class="st18">，</tspan><tspan x="11.844em 12.862em 13.881em 14.899em" dy="0em"
								class="st18">尝试进行</tspan><tspan x="0.4em 0.844em 1.344em 2.122em 2.622em 3.066em 3.509em 3.787em
									 4.065em 4.565em" dy="1.229em" class="st12">compaction</tspan></text>				</g>
				<rect x="0" y="313.841" width="162.992" height="26.9291" class="st9"/>
				<text x="0.4em 0.752em 1.214em 1.51em 1.918em" y="324.6" class="st23" v:langID="2052"><v:paragraph v:horizAlign="3"/><v:tabList/>false<tspan
							x="2.38em" dy="0em" class="st24">:</tspan><tspan x="2.677em 3.695em 4.714em 5.732em 6.751em 7.769em 8.788em
								 9.807em" dy="0em" class="st25">大于等于上限次数</tspan><tspan x="10.825em" dy="0em" class="st25">，</tspan><tspan
							x="11.844em 12.862em 13.881em 14.899em" dy="0em" class="st25">尝试进行</tspan><tspan x="0.4em 0.844em 1.344em
								 2.122em 2.622em 3.066em 3.509em 3.787em 4.065em 4.565em" dy="1.229em" class="st24">compaction</tspan></text>			</g>
			<g id="shape44-282" v:mID="44" v:groupContext="shape" transform="translate(423.572,21.8726) rotate(90)">
				<title>普通箭头.44</title>
				<v:userDefs>
					<v:ud v:nameU="visVersion" v:val="VT0(15):26"/>
					<v:ud v:nameU="ArrowType" v:prompt="" v:val="VT0(2):26"/>
				</v:userDefs>
				<g id="shadow44-283" v:groupContext="shadow" v:shadowOffsetX="0.345598" v:shadowOffsetY="-1.97279" v:shadowType="1"
						transform="matrix(1,0,0,1,1.97279,-0.345598)" class="st1">
					<path d="M0 340.77 L8.79 335.79 L8.79 338.28 L28.35 338.28 L28.35 340.77 L28.35 343.26 L8.79 343.26 L8.79 345.75
								 L0 340.77 Z" class="st4"/>
				</g>
				<path d="M0 340.77 L8.79 335.79 L8.79 338.28 L28.35 338.28 L28.35 340.77 L28.35 343.26 L8.79 343.26 L8.79 345.75
							 L0 340.77 Z" class="st26"/>
			</g>
			<g id="shape45-287" v:mID="45" v:groupContext="shape" transform="translate(35.4331,-318.898)">
				<title>矩形.45</title>
				<desc>compact_zone_order</desc>
				<v:userDefs>
					<v:ud v:nameU="visVersion" v:val="VT0(15):26"/>
				</v:userDefs>
				<v:textBlock v:margins="rect(4,4,4,4)" v:tabSpace="42.5197"/>
				<v:textRect cx="49.6063" cy="333.684" width="99.22" height="14.1732"/>
				<g id="shadow45-288" v:groupContext="shadow" v:shadowOffsetX="0.345598" v:shadowOffsetY="-1.97279" v:shadowType="1"
						transform="matrix(1,0,0,1,0.345598,1.97279)" class="st1">
					<rect x="0" y="326.597" width="99.2126" height="14.1732" class="st14"/>
					<text x="7.68" y="336.68" class="st15" v:langID="2052"><v:paragraph v:horizAlign="1"/><v:tabList/>compact_zone_order</text>				</g>
				<rect x="0" y="326.597" width="99.2126" height="14.1732" class="st9"/>
				<text x="7.68" y="336.68" class="st16" v:langID="2052"><v:paragraph v:horizAlign="1"/><v:tabList/>compact_zone_order</text>			</g>
		</g>
	</g>
</svg>
