<?xml version="1.0" encoding="UTF-8" standalone="no"?>
<!DOCTYPE svg PUBLIC "-//W3C//DTD SVG 1.1//EN" "http://www.w3.org/Graphics/SVG/1.1/DTD/svg11.dtd">
<!-- 由 Microsoft Visio, SVG Export 生成 buddy-allocator-6.svg 页-1 -->
<svg xmlns="http://www.w3.org/2000/svg" xmlns:xlink="http://www.w3.org/1999/xlink" xmlns:ev="http://www.w3.org/2001/xml-events"
		xmlns:v="http://schemas.microsoft.com/visio/2003/SVGExtensions/" width="9.55592in" height="3.98019in"
		viewBox="0 0 688.027 286.574" xml:space="preserve" color-interpolation-filters="sRGB" class="st21">
	<v:documentProperties v:langID="2052" v:metric="true" v:viewMarkup="false"/>

	<style type="text/css">
	<![CDATA[
		.st1 {visibility:visible}
		.st2 {fill:#5b9bd5;fill-opacity:0.22;filter:url(#filter_2);stroke:#5b9bd5;stroke-opacity:0.22}
		.st3 {fill:#d8d8d8;stroke:#000000;stroke-width:0.5}
		.st4 {fill:#000000;font-family:Times New Roman;font-size:1.00001em}
		.st5 {fill:#f4b183;stroke:#000000;stroke-width:0.5}
		.st6 {font-size:0.83333em}
		.st7 {fill:#fee599;stroke:#000000;stroke-width:0.5}
		.st8 {stroke:#0070c0;stroke-width:0.75}
		.st9 {fill:none;stroke:none;stroke-width:0.25}
		.st10 {fill:#000000;font-family:Times New Roman;font-size:0.833336em}
		.st11 {font-family:宋体;font-size:1em}
		.st12 {fill:#00b0f0;font-family:Times New Roman;font-size:0.833336em}
		.st13 {stroke:#000000;stroke-dasharray:2.25,2.25;stroke-linecap:round;stroke-linejoin:round;stroke-width:0.75}
		.st14 {fill:#00b0f0;font-family:宋体;font-size:0.833336em}
		.st15 {fill:#5b9bd5;fill-opacity:0.22;filter:url(#filter_2);stroke:none}
		.st16 {fill:#f2f2f2;stroke:none;stroke-width:0.5}
		.st17 {fill:#00b0f0;font-family:Times New Roman;font-size:1.00001em}
		.st18 {fill:#5b9bd5;fill-opacity:0.25;filter:url(#filter_2);stroke:#5b9bd5;stroke-opacity:0.25}
		.st19 {fill:#ffc000;stroke:#0070c0;stroke-width:0.5}
		.st20 {fill:#ff0000;font-family:Times New Roman;font-size:1.00001em}
		.st21 {fill:none;fill-rule:evenodd;font-size:12px;overflow:visible;stroke-linecap:square;stroke-miterlimit:3}
	]]>
	</style>

	<defs id="Filters">
		<filter id="filter_2">
			<feGaussianBlur stdDeviation="2"/>
		</filter>
	</defs>
	<g v:mID="0" v:index="1" v:groupContext="foregroundPage">
		<title>页-1</title>
		<v:pageProperties v:drawingScale="0.0393701" v:pageScale="0.0393701" v:drawingUnits="24" v:shadowOffsetX="8.50394"
				v:shadowOffsetY="-8.50394"/>
		<g id="group56-1" transform="translate(0.375,-9.94561)" v:mID="56" v:groupContext="group">
			<title>工作表.56</title>
			<g id="shape1-2" v:mID="1" v:groupContext="shape" transform="translate(21.2598,-113.386)">
				<title>矩形.3</title>
				<desc>in-use(unmovable)</desc>
				<v:userDefs>
					<v:ud v:nameU="visVersion" v:val="VT0(15):26"/>
				</v:userDefs>
				<v:textBlock v:margins="rect(4,4,4,4)" v:tabSpace="42.5197"/>
				<v:textRect cx="81.4961" cy="279.487" width="163" height="14.1732"/>
				<g id="shadow1-3" v:groupContext="shadow" v:shadowOffsetX="0.345598" v:shadowOffsetY="-1.97279" v:shadowType="1"
						transform="matrix(1,0,0,1,0.345598,1.97279)" class="st1">
					<rect x="0" y="272.4" width="162.992" height="14.1732" rx="1.41732" ry="1.41732" class="st2"/>
				</g>
				<rect x="0" y="272.4" width="162.992" height="14.1732" rx="1.41732" ry="1.41732" class="st3"/>
				<text x="36.18" y="283.09" class="st4" v:langID="2052"><v:paragraph v:horizAlign="1"/><v:tabList/>in-use(unmovable)</text>			</g>
			<g id="shape2-8" v:mID="2" v:groupContext="shape" transform="translate(21.2598,-127.559)">
				<title>矩形.2</title>
				<desc>in-use(unmovable)</desc>
				<v:userDefs>
					<v:ud v:nameU="visVersion" v:val="VT0(15):26"/>
				</v:userDefs>
				<v:textBlock v:margins="rect(4,4,4,4)" v:tabSpace="42.5197"/>
				<v:textRect cx="81.4961" cy="279.487" width="163" height="14.1732"/>
				<g id="shadow2-9" v:groupContext="shadow" v:shadowOffsetX="0.345598" v:shadowOffsetY="-1.97279" v:shadowType="1"
						transform="matrix(1,0,0,1,0.345598,1.97279)" class="st1">
					<rect x="0" y="272.4" width="162.992" height="14.1732" rx="1.41732" ry="1.41732" class="st2"/>
				</g>
				<rect x="0" y="272.4" width="162.992" height="14.1732" rx="1.41732" ry="1.41732" class="st3"/>
				<text x="36.18" y="283.09" class="st4" v:langID="2052"><v:paragraph v:horizAlign="1"/><v:tabList/>in-use(unmovable)</text>			</g>
			<g id="shape3-14" v:mID="3" v:groupContext="shape" transform="translate(21.2598,-141.732)">
				<title>矩形.3</title>
				<desc>in-use(unmovable)</desc>
				<v:userDefs>
					<v:ud v:nameU="visVersion" v:val="VT0(15):26"/>
				</v:userDefs>
				<v:textBlock v:margins="rect(4,4,4,4)" v:tabSpace="42.5197"/>
				<v:textRect cx="81.4961" cy="279.487" width="163" height="14.1732"/>
				<g id="shadow3-15" v:groupContext="shadow" v:shadowOffsetX="0.345598" v:shadowOffsetY="-1.97279" v:shadowType="1"
						transform="matrix(1,0,0,1,0.345598,1.97279)" class="st1">
					<rect x="0" y="272.4" width="162.992" height="14.1732" rx="1.41732" ry="1.41732" class="st2"/>
				</g>
				<rect x="0" y="272.4" width="162.992" height="14.1732" rx="1.41732" ry="1.41732" class="st3"/>
				<text x="36.18" y="283.09" class="st4" v:langID="2052"><v:paragraph v:horizAlign="1"/><v:tabList/>in-use(unmovable)</text>			</g>
			<g id="shape4-20" v:mID="4" v:groupContext="shape" transform="translate(21.2598,-155.906)">
				<title>Rectangle.3</title>
				<desc>free(MIGRATE_RECLAIMABLE)</desc>
				<v:userDefs>
					<v:ud v:nameU="visVersion" v:val="VT0(15):26"/>
				</v:userDefs>
				<v:textBlock v:margins="rect(4,4,4,4)" v:tabSpace="42.5197"/>
				<v:textRect cx="81.4961" cy="279.487" width="163" height="14.1732"/>
				<g id="shadow4-21" v:groupContext="shadow" v:shadowOffsetX="0.345598" v:shadowOffsetY="-1.97279" v:shadowType="1"
						transform="matrix(1,0,0,1,0.345598,1.97279)" class="st1">
					<rect x="0" y="272.4" width="162.992" height="14.1732" rx="1.41732" ry="1.41732" class="st2"/>
				</g>
				<rect x="0" y="272.4" width="162.992" height="14.1732" rx="1.41732" ry="1.41732" class="st5"/>
				<text x="7.35" y="283.09" class="st4" v:langID="2052"><v:paragraph v:horizAlign="1"/><v:tabList/>free(<tspan
							class="st6" v:langID="1033">MIGRATE</tspan><tspan class="st6" v:langID="1033">_</tspan><tspan
							class="st6" v:langID="1033">RECLAIMABLE</tspan>)</text>			</g>
			<g id="shape6-29" v:mID="6" v:groupContext="shape" transform="translate(21.2598,-170.079)">
				<title>Rectangle.6</title>
				<desc>free(MIGRATE_MOVABLE)</desc>
				<v:userDefs>
					<v:ud v:nameU="visVersion" v:val="VT0(15):26"/>
				</v:userDefs>
				<v:textBlock v:margins="rect(4,4,4,4)" v:tabSpace="42.5197"/>
				<v:textRect cx="81.4961" cy="279.487" width="163" height="14.1732"/>
				<g id="shadow6-30" v:groupContext="shadow" v:shadowOffsetX="0.345598" v:shadowOffsetY="-1.97279" v:shadowType="1"
						transform="matrix(1,0,0,1,0.345598,1.97279)" class="st1">
					<rect x="0" y="272.4" width="162.992" height="14.1732" rx="1.41732" ry="1.41732" class="st2"/>
				</g>
				<rect x="0" y="272.4" width="162.992" height="14.1732" rx="1.41732" ry="1.41732" class="st5"/>
				<text x="18.18" y="283.09" class="st4" v:langID="2052"><v:paragraph v:horizAlign="1"/><v:tabList/>free(<tspan
							class="st6" v:langID="1033">MIGRATE</tspan><tspan class="st6" v:langID="1033">_</tspan><tspan
							class="st6">MOVABLE</tspan>)</text>			</g>
			<g id="shape7-38" v:mID="7" v:groupContext="shape" transform="translate(21.2598,-184.252)">
				<title>Rectangle.7</title>
				<desc>free(MIGRATE_UNMOVABLE)</desc>
				<v:userDefs>
					<v:ud v:nameU="visVersion" v:val="VT0(15):26"/>
				</v:userDefs>
				<v:textBlock v:margins="rect(4,4,4,4)" v:tabSpace="42.5197"/>
				<v:textRect cx="81.4961" cy="279.487" width="163" height="14.1732"/>
				<g id="shadow7-39" v:groupContext="shadow" v:shadowOffsetX="0.345598" v:shadowOffsetY="-1.97279" v:shadowType="1"
						transform="matrix(1,0,0,1,0.345598,1.97279)" class="st1">
					<rect x="0" y="272.4" width="162.992" height="14.1732" rx="1.41732" ry="1.41732" class="st2"/>
				</g>
				<rect x="0" y="272.4" width="162.992" height="14.1732" rx="1.41732" ry="1.41732" class="st5"/>
				<text x="10.96" y="283.09" class="st4" v:langID="2052"><v:paragraph v:horizAlign="1"/><v:tabList/>free(<tspan
							class="st6" v:langID="1033">MIGRATE</tspan><tspan class="st6" v:langID="1033">_</tspan><tspan
							class="st6">UNMOVABLE</tspan>)</text>			</g>
			<g id="shape8-47" v:mID="8" v:groupContext="shape" transform="translate(21.2598,-198.425)">
				<title>矩形.8</title>
				<desc>in-use(movable)</desc>
				<v:userDefs>
					<v:ud v:nameU="visVersion" v:val="VT0(15):26"/>
				</v:userDefs>
				<v:textBlock v:margins="rect(4,4,4,4)" v:tabSpace="42.5197"/>
				<v:textRect cx="81.4961" cy="279.487" width="163" height="14.1732"/>
				<g id="shadow8-48" v:groupContext="shadow" v:shadowOffsetX="0.345598" v:shadowOffsetY="-1.97279" v:shadowType="1"
						transform="matrix(1,0,0,1,0.345598,1.97279)" class="st1">
					<rect x="0" y="272.4" width="162.992" height="14.1732" rx="1.41732" ry="1.41732" class="st2"/>
				</g>
				<rect x="0" y="272.4" width="162.992" height="14.1732" rx="1.41732" ry="1.41732" class="st7"/>
				<text x="42.18" y="283.09" class="st4" v:langID="2052"><v:paragraph v:horizAlign="1"/><v:tabList/>in-use(movable)</text>			</g>
			<g id="shape9-53" v:mID="9" v:groupContext="shape" transform="translate(21.2598,-212.598)">
				<title>矩形.9</title>
				<desc>in-use(movable)</desc>
				<v:userDefs>
					<v:ud v:nameU="visVersion" v:val="VT0(15):26"/>
				</v:userDefs>
				<v:textBlock v:margins="rect(4,4,4,4)" v:tabSpace="42.5197"/>
				<v:textRect cx="81.4961" cy="279.487" width="163" height="14.1732"/>
				<g id="shadow9-54" v:groupContext="shadow" v:shadowOffsetX="0.345598" v:shadowOffsetY="-1.97279" v:shadowType="1"
						transform="matrix(1,0,0,1,0.345598,1.97279)" class="st1">
					<rect x="0" y="272.4" width="162.992" height="14.1732" rx="1.41732" ry="1.41732" class="st2"/>
				</g>
				<rect x="0" y="272.4" width="162.992" height="14.1732" rx="1.41732" ry="1.41732" class="st7"/>
				<text x="42.18" y="283.09" class="st4" v:langID="2052"><v:paragraph v:horizAlign="1"/><v:tabList/>in-use(movable)</text>			</g>
			<g id="shape10-59" v:mID="10" v:groupContext="shape" transform="translate(21.2598,-226.772)">
				<title>矩形.10</title>
				<desc>in-use(movable)</desc>
				<v:userDefs>
					<v:ud v:nameU="visVersion" v:val="VT0(15):26"/>
				</v:userDefs>
				<v:textBlock v:margins="rect(4,4,4,4)" v:tabSpace="42.5197"/>
				<v:textRect cx="81.4961" cy="279.487" width="163" height="14.1732"/>
				<g id="shadow10-60" v:groupContext="shadow" v:shadowOffsetX="0.345598" v:shadowOffsetY="-1.97279" v:shadowType="1"
						transform="matrix(1,0,0,1,0.345598,1.97279)" class="st1">
					<rect x="0" y="272.4" width="162.992" height="14.1732" rx="1.41732" ry="1.41732" class="st2"/>
				</g>
				<rect x="0" y="272.4" width="162.992" height="14.1732" rx="1.41732" ry="1.41732" class="st7"/>
				<text x="42.18" y="283.09" class="st4" v:langID="2052"><v:paragraph v:horizAlign="1"/><v:tabList/>in-use(movable)</text>			</g>
			<g id="shape11-65" v:mID="11" v:groupContext="shape" transform="translate(-88.1484,88.1484) rotate(-90) scale(-1,1)">
				<title>侧边大括号</title>
				<v:userDefs>
					<v:ud v:nameU="TxtW" v:val="VT0(0.55555555555556):29"/>
					<v:ud v:nameU="TxtA" v:val="VT0(1.5707963267949):37"/>
					<v:ud v:nameU="TxtAState" v:val="VT0(0):26"/>
					<v:ud v:nameU="TxtWState" v:val="VT0(0):26"/>
					<v:ud v:nameU="MaxRadius" v:val="VT0(0.19685039370079):24"/>
					<v:ud v:nameU="PosCH1" v:prompt="Constrains X postion of Control Handle #1" v:val="VT0(0):26"/>
					<v:ud v:nameU="PosCH2" v:prompt="Constrains Y postion of Control Handle #2" v:val="VT0(0):26"/>
					<v:ud v:nameU="Scale" v:val="VT0(1):26"/>
					<v:ud v:nameU="AntiScale" v:val="VT0(1):26"/>
					<v:ud v:nameU="visVersion" v:val="VT0(15):26"/>
					<v:ud v:nameU="MaxRadius" v:prompt="" v:val="VT0(0.098425196850394):1"/>
				</v:userDefs>
				<path d="M-0 279.49 A7.0865 7.0865 -180 0 0 7.09 286.57 L14.17 286.57 A7.0865 7.0865 0 0 1 21.26 293.66 A7.0865 7.0865
							 0 0 1 28.35 286.57 L35.43 286.57 A7.0865 7.0865 -180 0 0 42.52 279.49" class="st8"/>
			</g>
			<g id="shape12-68" v:mID="12" v:groupContext="shape" transform="translate(205.512,-159.449)">
				<title>工作表.12</title>
				<desc>pageblock中剩余空闲页帧的迁移类型可能会被改变</desc>
				<v:textBlock v:margins="rect(4,4,4,4)" v:tabSpace="42.5197"/>
				<v:textRect cx="46.063" cy="268.857" width="92.13" height="35.4331"/>
				<rect x="0" y="251.14" width="92.126" height="35.4331" class="st9"/>
				<text x="4" y="259.57" class="st10" v:langID="2052"><v:paragraph/><v:tabList/>pageblock<tspan class="st11">中剩余空</tspan><tspan
							x="4" dy="1.229em" class="st11">闲页帧的迁移类型</tspan><tspan x="4" dy="1.287em" class="st11">可能会被改变</tspan></text>			</g>
			<g id="shape13-74" v:mID="13" v:groupContext="shape" transform="translate(21.2598,-248.031)">
				<title>工作表.13</title>
				<desc>a pageblock</desc>
				<v:textBlock v:margins="rect(4,4,4,4)" v:tabSpace="42.5197"/>
				<v:textRect cx="81.4961" cy="279.487" width="163" height="14.1732"/>
				<rect x="0" y="272.4" width="162.992" height="14.1732" class="st9"/>
				<text x="57.48" y="282.49" class="st12" v:langID="2052"><v:paragraph v:horizAlign="1"/><v:tabList/>a pageblock</text>			</g>
			<g id="shape35-77" v:mID="35" v:groupContext="shape" transform="translate(0,-240.945)">
				<title>工作表.35</title>
				<path d="M0 286.57 L205.51 286.57" class="st13"/>
			</g>
			<g id="shape36-80" v:mID="36" v:groupContext="shape" transform="translate(0,-113.386)">
				<title>工作表.36</title>
				<path d="M0 286.57 L205.51 286.57" class="st13"/>
			</g>
			<g id="shape38-83" v:mID="38" v:groupContext="shape" transform="translate(418.11,-262.205)">
				<title>工作表.38</title>
				<desc>会改变迁移类型的情况</desc>
				<v:textBlock v:margins="rect(4,4,4,4)" v:tabSpace="42.5197"/>
				<v:textRect cx="60.2362" cy="279.487" width="120.48" height="14.1732"/>
				<rect x="0" y="272.4" width="120.472" height="14.1732" class="st9"/>
				<text x="10.24" y="282.78" class="st14" v:langID="2052"><v:paragraph v:horizAlign="1"/><v:tabList/>会改变迁移类型的情况</text>			</g>
			<g id="group52-86" transform="translate(304.724,0)" v:mID="52" v:groupContext="group">
				<title>工作表.52</title>
				<g id="group47-87" transform="translate(0,-155.906)" v:mID="47" v:groupContext="group">
					<title>工作表.47</title>
					<g id="shape43-88" v:mID="43" v:groupContext="shape">
						<title>矩形</title>
						<v:userDefs>
							<v:ud v:nameU="visVersion" v:val="VT0(15):26"/>
						</v:userDefs>
						<g id="shadow43-89" v:groupContext="shadow" v:shadowOffsetX="0.345598" v:shadowOffsetY="-1.97279"
								v:shadowType="1" transform="matrix(1,0,0,1,0.345598,1.97279)" class="st1">
							<rect x="0" y="201.534" width="375.591" height="85.0394" rx="1.41732" ry="1.41732" class="st15"/>
						</g>
						<rect x="0" y="201.534" width="375.591" height="85.0394" rx="1.41732" ry="1.41732" class="st16"/>
					</g>
					<g id="shape15-93" v:mID="15" v:groupContext="shape" transform="translate(28.3465,-56.6929)">
						<title>工作表.15</title>
						<desc>MIGRATE_MOVABLE</desc>
						<v:textBlock v:margins="rect(4,4,4,4)" v:tabSpace="42.5197"/>
						<v:textRect cx="67.3228" cy="279.487" width="134.65" height="14.1732"/>
						<rect x="0" y="272.4" width="134.646" height="14.1732" class="st9"/>
						<text x="10.65" y="283.09" class="st17" v:langID="2052"><v:paragraph v:horizAlign="2"/><v:tabList/>MIGRATE_MOVABLE</text>					</g>
					<g id="shape16-96" v:mID="16" v:groupContext="shape" transform="translate(205.512,-56.6929)">
						<title>工作表.16</title>
						<desc>MIGRATE_UNMOVABLE(O)</desc>
						<v:textBlock v:margins="rect(4,4,4,4)" v:tabSpace="42.5197"/>
						<v:textRect cx="81.4961" cy="279.487" width="163" height="14.1732"/>
						<rect x="0" y="272.4" width="162.992" height="14.1732" class="st9"/>
						<text x="4" y="283.09" class="st17" v:langID="2052"><v:paragraph/><v:tabList/>MIGRATE_UNMOVABLE(O)</text>					</g>
					<g id="shape18-99" v:mID="18" v:groupContext="shape" transform="translate(28.3465,-42.5197)">
						<title>工作表.18</title>
						<desc>free_pages + in-use(unmovable) &#62;= 50% of pageblock</desc>
						<v:textBlock v:margins="rect(4,4,4,4)" v:tabSpace="42.5197"/>
						<v:textRect cx="170.079" cy="279.487" width="340.16" height="14.1732"/>
						<rect x="0" y="272.4" width="340.157" height="14.1732" class="st9"/>
						<text x="60.82" y="282.49" class="st10" v:langID="2052"><v:paragraph v:horizAlign="1"/><v:tabList/>free_pages + in-use(unmovable) &#62;= 50% of pageblock</text>					</g>
					<g id="shape19-102" v:mID="19" v:groupContext="shape" transform="translate(198.425,509.368) rotate(180)">
						<title>普通箭头</title>
						<v:userDefs>
							<v:ud v:nameU="visVersion" v:val="VT0(15):26"/>
							<v:ud v:nameU="ArrowType" v:prompt="" v:val="VT0(2):26"/>
						</v:userDefs>
						<g id="shadow19-103" v:groupContext="shadow" v:shadowOffsetX="0.345598" v:shadowOffsetY="-1.97279"
								v:shadowType="1" transform="matrix(1,0,0,1,-0.345598,-1.97279)" class="st1">
							<path d="M0 286.57 L11.34 281.59 L11.34 284.08 L28.35 284.08 L28.35 286.57 L28.35 289.07 L11.34 289.07
										 L11.34 291.56 L0 286.57 Z" class="st18"/>
						</g>
						<path d="M0 286.57 L11.34 281.59 L11.34 284.08 L28.35 284.08 L28.35 286.57 L28.35 289.07 L11.34 289.07 L11.34
									 291.56 L0 286.57 Z" class="st19"/>
					</g>
					<g id="shape20-107" v:mID="20" v:groupContext="shape" transform="translate(7.08661,-21.2598)">
						<title>工作表.20</title>
						<desc>MIGRATE_RECLAIMABLE</desc>
						<v:textBlock v:margins="rect(4,4,4,4)" v:tabSpace="42.5197"/>
						<v:textRect cx="77.9528" cy="279.487" width="155.91" height="14.1732"/>
						<rect x="0" y="272.4" width="155.906" height="14.1732" class="st9"/>
						<text x="5.91" y="283.09" class="st20" v:langID="2052"><v:paragraph v:horizAlign="2"/><v:tabList/>MIGRATE_RECLAIMABLE</text>					</g>
					<g id="shape21-110" v:mID="21" v:groupContext="shape" transform="translate(205.512,-21.2598)">
						<title>工作表.21</title>
						<desc>MIGRATE_UNMOVABLE(X)</desc>
						<v:textBlock v:margins="rect(4,4,4,4)" v:tabSpace="42.5197"/>
						<v:textRect cx="81.4961" cy="279.487" width="163" height="14.1732"/>
						<rect x="0" y="272.4" width="162.992" height="14.1732" class="st9"/>
						<text x="4" y="283.09" class="st20" v:langID="2052"><v:paragraph/><v:tabList/>MIGRATE_UNMOVABLE(X)</text>					</g>
					<g id="shape22-113" v:mID="22" v:groupContext="shape" transform="translate(28.3465,-7.08661)">
						<title>工作表.22</title>
						<desc>free_pages &#62;= 50% of pageblock</desc>
						<v:textBlock v:margins="rect(4,4,4,4)" v:tabSpace="42.5197"/>
						<v:textRect cx="170.079" cy="279.487" width="340.16" height="14.1732"/>
						<rect x="0" y="272.4" width="340.157" height="14.1732" class="st9"/>
						<text x="103.91" y="282.49" class="st10" v:langID="2052"><v:paragraph v:horizAlign="1"/><v:tabList/>free_pages &#62;= 50% of pageblock</text>					</g>
					<g id="shape23-116" v:mID="23" v:groupContext="shape" transform="translate(198.425,544.801) rotate(180)">
						<title>普通箭头.23</title>
						<v:userDefs>
							<v:ud v:nameU="visVersion" v:val="VT0(15):26"/>
							<v:ud v:nameU="ArrowType" v:prompt="" v:val="VT0(2):26"/>
						</v:userDefs>
						<g id="shadow23-117" v:groupContext="shadow" v:shadowOffsetX="0.345598" v:shadowOffsetY="-1.97279"
								v:shadowType="1" transform="matrix(1,0,0,1,-0.345598,-1.97279)" class="st1">
							<path d="M0 286.57 L11.34 281.59 L11.34 284.08 L28.35 284.08 L28.35 286.57 L28.35 289.07 L11.34 289.07
										 L11.34 291.56 L0 286.57 Z" class="st18"/>
						</g>
						<path d="M0 286.57 L11.34 281.59 L11.34 284.08 L28.35 284.08 L28.35 286.57 L28.35 289.07 L11.34 289.07 L11.34
									 291.56 L0 286.57 Z" class="st19"/>
					</g>
				</g>
				<g id="group48-121" transform="translate(2.8777E-13,-85.0394)" v:mID="48" v:groupContext="group">
					<title>工作表.48</title>
					<g id="shape45-122" v:mID="45" v:groupContext="shape">
						<title>矩形.45</title>
						<v:userDefs>
							<v:ud v:nameU="visVersion" v:val="VT0(15):26"/>
						</v:userDefs>
						<g id="shadow45-123" v:groupContext="shadow" v:shadowOffsetX="0.345598" v:shadowOffsetY="-1.97279"
								v:shadowType="1" transform="matrix(1,0,0,1,0.345598,1.97279)" class="st1">
							<rect x="0" y="222.794" width="375.591" height="63.7795" rx="1.41732" ry="1.41732" class="st15"/>
						</g>
						<rect x="0" y="222.794" width="375.591" height="63.7795" rx="1.41732" ry="1.41732" class="st16"/>
					</g>
					<g id="shape24-127" v:mID="24" v:groupContext="shape" transform="translate(6.39488E-14,-42.5197)">
						<title>工作表.24</title>
						<desc>MIGRATE_UNMOVABLE</desc>
						<v:textBlock v:margins="rect(4,4,4,4)" v:tabSpace="42.5197"/>
						<v:textRect cx="81.4961" cy="279.487" width="163" height="14.1732"/>
						<rect x="0" y="272.4" width="162.992" height="14.1732" class="st9"/>
						<text x="21.67" y="283.09" class="st17" v:langID="2052"><v:paragraph v:horizAlign="2"/><v:tabList/>MIGRATE_UNMOVABLE</text>					</g>
					<g id="shape25-130" v:mID="25" v:groupContext="shape" transform="translate(205.512,-42.5197)">
						<title>工作表.25</title>
						<desc>MIGRATE_MOVABLE(O)</desc>
						<v:textBlock v:margins="rect(4,4,4,4)" v:tabSpace="42.5197"/>
						<v:textRect cx="74.4094" cy="279.487" width="148.82" height="14.1732"/>
						<rect x="0" y="272.4" width="148.819" height="14.1732" class="st9"/>
						<text x="4" y="283.09" class="st17" v:langID="2052"><v:paragraph/><v:tabList/>MIGRATE_MOVABLE(O)</text>					</g>
					<g id="shape26-133" v:mID="26" v:groupContext="shape" transform="translate(7.08661,-21.2598)">
						<title>工作表.26</title>
						<desc>MIGRATE_RECLAIMABLE</desc>
						<v:textBlock v:margins="rect(4,4,4,4)" v:tabSpace="42.5197"/>
						<v:textRect cx="77.9528" cy="279.487" width="155.91" height="14.1732"/>
						<rect x="0" y="272.4" width="155.906" height="14.1732" class="st9"/>
						<text x="5.91" y="283.09" class="st17" v:langID="2052"><v:paragraph v:horizAlign="2"/><v:tabList/>MIGRATE_RECLAIMABLE</text>					</g>
					<g id="shape27-136" v:mID="27" v:groupContext="shape" transform="translate(205.512,-21.2598)">
						<title>工作表.27</title>
						<desc>MIGRATE_MOVABLE(O)</desc>
						<v:textBlock v:margins="rect(4,4,4,4)" v:tabSpace="42.5197"/>
						<v:textRect cx="74.4094" cy="279.487" width="148.82" height="14.1732"/>
						<rect x="0" y="272.4" width="148.819" height="14.1732" class="st9"/>
						<text x="4" y="283.09" class="st17" v:langID="2052"><v:paragraph/><v:tabList/>MIGRATE_MOVABLE(O)</text>					</g>
					<g id="shape28-139" v:mID="28" v:groupContext="shape" transform="translate(28.3465,-7.08661)">
						<title>工作表.28</title>
						<desc>free_pages + in-use(movable) &#62;= 50% of pageblock</desc>
						<v:textBlock v:margins="rect(4,4,4,4)" v:tabSpace="42.5197"/>
						<v:textRect cx="155.906" cy="279.487" width="311.82" height="14.1732"/>
						<rect x="0" y="272.4" width="311.811" height="14.1732" class="st9"/>
						<text x="51.65" y="282.49" class="st10" v:langID="2052"><v:paragraph v:horizAlign="1"/><v:tabList/>free_pages + in-use(movable) &#62;= 50% of pageblock</text>					</g>
					<g id="shape39-142" v:mID="39" v:groupContext="shape" transform="translate(198.425,523.541) rotate(180)">
						<title>普通箭头.39</title>
						<v:userDefs>
							<v:ud v:nameU="visVersion" v:val="VT0(15):26"/>
							<v:ud v:nameU="ArrowType" v:prompt="" v:val="VT0(2):26"/>
						</v:userDefs>
						<g id="shadow39-143" v:groupContext="shadow" v:shadowOffsetX="0.345598" v:shadowOffsetY="-1.97279"
								v:shadowType="1" transform="matrix(1,0,0,1,-0.345598,-1.97279)" class="st1">
							<path d="M0 286.57 L11.34 281.59 L11.34 284.08 L28.35 284.08 L28.35 286.57 L28.35 289.07 L11.34 289.07
										 L11.34 291.56 L0 286.57 Z" class="st18"/>
						</g>
						<path d="M0 286.57 L11.34 281.59 L11.34 284.08 L28.35 284.08 L28.35 286.57 L28.35 289.07 L11.34 289.07 L11.34
									 291.56 L0 286.57 Z" class="st19"/>
					</g>
					<g id="shape40-147" v:mID="40" v:groupContext="shape" transform="translate(198.425,544.801) rotate(180)">
						<title>普通箭头.40</title>
						<v:userDefs>
							<v:ud v:nameU="visVersion" v:val="VT0(15):26"/>
							<v:ud v:nameU="ArrowType" v:prompt="" v:val="VT0(2):26"/>
						</v:userDefs>
						<g id="shadow40-148" v:groupContext="shadow" v:shadowOffsetX="0.345598" v:shadowOffsetY="-1.97279"
								v:shadowType="1" transform="matrix(1,0,0,1,-0.345598,-1.97279)" class="st1">
							<path d="M0 286.57 L11.34 281.59 L11.34 284.08 L28.35 284.08 L28.35 286.57 L28.35 289.07 L11.34 289.07
										 L11.34 291.56 L0 286.57 Z" class="st18"/>
						</g>
						<path d="M0 286.57 L11.34 281.59 L11.34 284.08 L28.35 284.08 L28.35 286.57 L28.35 289.07 L11.34 289.07 L11.34
									 291.56 L0 286.57 Z" class="st19"/>
					</g>
				</g>
				<g id="group51-152" v:mID="51" v:groupContext="group">
					<title>工作表.51</title>
					<g id="shape46-153" v:mID="46" v:groupContext="shape">
						<title>矩形.46</title>
						<v:userDefs>
							<v:ud v:nameU="visVersion" v:val="VT0(15):26"/>
						</v:userDefs>
						<g id="shadow46-154" v:groupContext="shadow" v:shadowOffsetX="0.345598" v:shadowOffsetY="-1.97279"
								v:shadowType="1" transform="matrix(1,0,0,1,0.345598,1.97279)" class="st1">
							<rect x="0" y="208.621" width="375.591" height="77.9528" rx="1.41732" ry="1.41732" class="st15"/>
						</g>
						<rect x="0" y="208.621" width="375.591" height="77.9528" rx="1.41732" ry="1.41732" class="st16"/>
					</g>
					<g id="shape29-158" v:mID="29" v:groupContext="shape" transform="translate(1.43885E-13,-56.6929)">
						<title>工作表.29</title>
						<desc>MIGRATE_MOVABLE</desc>
						<v:textBlock v:margins="rect(4,4,4,4)" v:tabSpace="42.5197"/>
						<v:textRect cx="81.4961" cy="279.487" width="163" height="14.1732"/>
						<rect x="0" y="272.4" width="162.992" height="14.1732" class="st9"/>
						<text x="39" y="283.09" class="st17" v:langID="2052"><v:paragraph v:horizAlign="2"/><v:tabList/>MIGRATE_MOVABLE</text>					</g>
					<g id="shape30-161" v:mID="30" v:groupContext="shape" transform="translate(205.512,-56.6929)">
						<title>工作表.30</title>
						<desc>MIGRATE_RECLAIMABLE(O)</desc>
						<v:textBlock v:margins="rect(4,4,4,4)" v:tabSpace="42.5197"/>
						<v:textRect cx="88.5827" cy="279.487" width="177.17" height="14.1732"/>
						<rect x="0" y="272.4" width="177.165" height="14.1732" class="st9"/>
						<text x="4" y="283.09" class="st17" v:langID="2052"><v:paragraph/><v:tabList/>MIGRATE_RECLAIMABLE(O)</text>					</g>
					<g id="shape31-164" v:mID="31" v:groupContext="shape" transform="translate(11.9055,-21.2598)">
						<title>工作表.31</title>
						<desc>MIGRATE_UNMOVABLE</desc>
						<v:textBlock v:margins="rect(4,4,4,4)" v:tabSpace="42.5197"/>
						<v:textRect cx="75.5433" cy="279.487" width="151.09" height="14.1732"/>
						<rect x="0" y="272.4" width="151.087" height="14.1732" class="st9"/>
						<text x="9.76" y="283.09" class="st20" v:langID="2052"><v:paragraph v:horizAlign="2"/><v:tabList/>MIGRATE_UNMOVABLE</text>					</g>
					<g id="shape32-167" v:mID="32" v:groupContext="shape" transform="translate(205.512,-21.2598)">
						<title>工作表.32</title>
						<desc>MIGRATE_RECLAIMABLE(X)</desc>
						<v:textBlock v:margins="rect(4,4,4,4)" v:tabSpace="42.5197"/>
						<v:textRect cx="88.5827" cy="279.487" width="177.17" height="14.1732"/>
						<rect x="0" y="272.4" width="177.165" height="14.1732" class="st9"/>
						<text x="4" y="283.09" class="st20" v:langID="2052"><v:paragraph/><v:tabList/>MIGRATE_RECLAIMABLE(X)</text>					</g>
					<g id="shape33-170" v:mID="33" v:groupContext="shape" transform="translate(31.8898,-42.5197)">
						<title>工作表.33</title>
						<desc>free_pages + in-use(unmovable) &#62;= 50% of pageblock</desc>
						<v:textBlock v:margins="rect(4,4,4,4)" v:tabSpace="42.5197"/>
						<v:textRect cx="155.906" cy="279.487" width="311.82" height="14.1732"/>
						<rect x="0" y="272.4" width="311.811" height="14.1732" class="st9"/>
						<text x="46.65" y="282.49" class="st10" v:langID="2052"><v:paragraph v:horizAlign="1"/><v:tabList/>free_pages + in-use(unmovable) &#62;= 50% of pageblock</text>					</g>
					<g id="shape34-173" v:mID="34" v:groupContext="shape" transform="translate(35.4331,-7.08661)">
						<title>工作表.34</title>
						<desc>free_pages &#62;= 50% of pageblock</desc>
						<v:textBlock v:margins="rect(4,4,4,4)" v:tabSpace="42.5197"/>
						<v:textRect cx="155.906" cy="279.487" width="311.82" height="14.1732"/>
						<rect x="0" y="272.4" width="311.811" height="14.1732" class="st9"/>
						<text x="89.74" y="282.49" class="st10" v:langID="2052"><v:paragraph v:horizAlign="1"/><v:tabList/>free_pages &#62;= 50% of pageblock</text>					</g>
					<g id="shape41-176" v:mID="41" v:groupContext="shape" transform="translate(198.425,509.368) rotate(180)">
						<title>普通箭头.41</title>
						<v:userDefs>
							<v:ud v:nameU="visVersion" v:val="VT0(15):26"/>
							<v:ud v:nameU="ArrowType" v:prompt="" v:val="VT0(2):26"/>
						</v:userDefs>
						<g id="shadow41-177" v:groupContext="shadow" v:shadowOffsetX="0.345598" v:shadowOffsetY="-1.97279"
								v:shadowType="1" transform="matrix(1,0,0,1,-0.345598,-1.97279)" class="st1">
							<path d="M0 286.57 L11.34 281.59 L11.34 284.08 L28.35 284.08 L28.35 286.57 L28.35 289.07 L11.34 289.07
										 L11.34 291.56 L0 286.57 Z" class="st18"/>
						</g>
						<path d="M0 286.57 L11.34 281.59 L11.34 284.08 L28.35 284.08 L28.35 286.57 L28.35 289.07 L11.34 289.07 L11.34
									 291.56 L0 286.57 Z" class="st19"/>
					</g>
					<g id="shape42-181" v:mID="42" v:groupContext="shape" transform="translate(198.425,544.801) rotate(180)">
						<title>普通箭头.42</title>
						<v:userDefs>
							<v:ud v:nameU="visVersion" v:val="VT0(15):26"/>
							<v:ud v:nameU="ArrowType" v:prompt="" v:val="VT0(2):26"/>
						</v:userDefs>
						<g id="shadow42-182" v:groupContext="shadow" v:shadowOffsetX="0.345598" v:shadowOffsetY="-1.97279"
								v:shadowType="1" transform="matrix(1,0,0,1,-0.345598,-1.97279)" class="st1">
							<path d="M0 286.57 L11.34 281.59 L11.34 284.08 L28.35 284.08 L28.35 286.57 L28.35 289.07 L11.34 289.07
										 L11.34 291.56 L0 286.57 Z" class="st18"/>
						</g>
						<path d="M0 286.57 L11.34 281.59 L11.34 284.08 L28.35 284.08 L28.35 286.57 L28.35 289.07 L11.34 289.07 L11.34
									 291.56 L0 286.57 Z" class="st19"/>
					</g>
				</g>
			</g>
			<g id="shape54-186" v:mID="54" v:groupContext="shape" transform="translate(538.583,-240.945)">
				<title>工作表.54</title>
				<desc>start_type</desc>
				<v:textBlock v:margins="rect(4,4,4,4)" v:tabSpace="42.5197"/>
				<v:textRect cx="60.2362" cy="279.487" width="120.48" height="14.1732"/>
				<rect x="0" y="272.4" width="120.472" height="14.1732" class="st9"/>
				<text x="40.52" y="282.49" class="st12" v:langID="2052"><v:paragraph v:horizAlign="1"/><v:tabList/>start_type</text>			</g>
			<g id="shape55-189" v:mID="55" v:groupContext="shape" transform="translate(311.811,-240.945)">
				<title>工作表.55</title>
				<desc>old_block_type</desc>
				<v:textBlock v:margins="rect(4,4,4,4)" v:tabSpace="42.5197"/>
				<v:textRect cx="60.2362" cy="279.487" width="120.48" height="14.1732"/>
				<rect x="0" y="272.4" width="120.472" height="14.1732" class="st9"/>
				<text x="29.13" y="282.49" class="st12" v:langID="2052"><v:paragraph v:horizAlign="1"/><v:tabList/>old_block_type</text>			</g>
		</g>
	</g>
</svg>
