<?xml version="1.0" encoding="UTF-8" standalone="no"?>
<!DOCTYPE svg PUBLIC "-//W3C//DTD SVG 1.1//EN" "http://www.w3.org/Graphics/SVG/1.1/DTD/svg11.dtd">
<!-- 由 Microsoft Visio, SVG Export 生成 problem1060.svg 页-1 -->
<svg xmlns="http://www.w3.org/2000/svg" xmlns:xlink="http://www.w3.org/1999/xlink" xmlns:ev="http://www.w3.org/2001/xml-events"
		xmlns:v="http://schemas.microsoft.com/visio/2003/SVGExtensions/" width="8.81499in" height="3.24336in"
		viewBox="0 0 634.679 233.522" xml:space="preserve" color-interpolation-filters="sRGB" class="st12">
	<v:documentProperties v:langID="2052" v:metric="true" v:viewMarkup="false"/>

	<style type="text/css">
	<![CDATA[
		.st1 {visibility:visible}
		.st2 {fill:#5b9bd5;fill-opacity:0.22;filter:url(#filter_2);stroke:#5b9bd5;stroke-opacity:0.22}
		.st3 {fill:#00b0f0;stroke:#00b0f0;stroke-width:0.25}
		.st4 {fill:#ed7d31;font-family:Times New Roman;font-size:1.99999em}
		.st5 {fill:none;stroke:none;stroke-width:0.25}
		.st6 {fill:#000000;font-family:Times New Roman;font-size:1.5em}
		.st7 {marker-end:url(#mrkr3-93);stroke:#000000;stroke-linecap:round;stroke-linejoin:round;stroke-width:0.75}
		.st8 {fill:#000000;fill-opacity:1;stroke:#000000;stroke-opacity:1;stroke-width:0.22935779816514}
		.st9 {fill:none;filter:url(#filter_2);stroke:#5b9bd5;stroke-dasharray:1.75,1.25;stroke-opacity:0.22}
		.st10 {fill:none;stroke:#000000;stroke-dasharray:1.75,1.25;stroke-width:0.25}
		.st11 {fill:#ed7d31;font-family:Times New Roman;font-size:1.00001em}
		.st12 {fill:none;fill-rule:evenodd;font-size:12px;overflow:visible;stroke-linecap:square;stroke-miterlimit:3}
	]]>
	</style>

	<defs id="Markers">
		<g id="lend3">
			<path d="M 2 1 L 0 0 L 2 -1 " style="stroke-linecap:round;stroke-linejoin:round;fill:none"/>
		</g>
		<marker id="mrkr3-93" class="st8" v:arrowType="3" v:arrowSize="2" orient="auto" markerUnits="strokeWidth"
				overflow="visible">
			<use xlink:href="#lend3" transform="scale(-4.36,-4.36) "/>
		</marker>
	</defs>
	<defs id="Filters">
		<filter id="filter_2">
			<feGaussianBlur stdDeviation="2"/>
		</filter>
	</defs>
	<g v:mID="0" v:index="1" v:groupContext="foregroundPage">
		<title>页-1</title>
		<v:pageProperties v:drawingScale="0.0393701" v:pageScale="0.0393701" v:drawingUnits="24" v:shadowOffsetX="8.50394"
				v:shadowOffsetY="-8.50394"/>
		<v:layer v:name="连接线" v:index="0"/>
		<g id="group48-1" transform="translate(0.25,-5.3478)" v:mID="48" v:groupContext="group">
			<title>工作表.48</title>
			<g id="group46-2" v:mID="46" v:groupContext="group">
				<title>工作表.46</title>
				<g id="shape15-3" v:mID="15" v:groupContext="shape" transform="translate(100.346,-5.68434E-14)">
					<title>正方形.15</title>
					<desc>1</desc>
					<v:userDefs>
						<v:ud v:nameU="visVersion" v:val="VT0(15):26"/>
					</v:userDefs>
					<v:textBlock v:margins="rect(4,4,4,4)" v:tabSpace="42.5197"/>
					<v:textRect cx="28.3465" cy="205.175" width="56.7" height="56.6929"/>
					<g id="shadow15-4" v:groupContext="shadow" v:shadowOffsetX="0.345598" v:shadowOffsetY="-1.97279"
							v:shadowType="1" transform="matrix(1,0,0,1,0.345598,1.97279)" class="st1">
						<rect x="0" y="176.829" width="56.6929" height="56.6929" rx="2.83465" ry="2.83465" class="st2"/>
					</g>
					<rect x="0" y="176.829" width="56.6929" height="56.6929" rx="2.83465" ry="2.83465" class="st3"/>
					<text x="22.35" y="212.38" class="st4" v:langID="2052"><v:paragraph v:horizAlign="1"/><v:tabList/>1</text>				</g>
				<g id="shape16-9" v:mID="16" v:groupContext="shape" transform="translate(163.843,-1.98952E-13)">
					<title>正方形.16</title>
					<desc>2</desc>
					<v:userDefs>
						<v:ud v:nameU="visVersion" v:val="VT0(15):26"/>
					</v:userDefs>
					<v:textBlock v:margins="rect(4,4,4,4)" v:tabSpace="42.5197"/>
					<v:textRect cx="28.3465" cy="205.175" width="56.7" height="56.6929"/>
					<g id="shadow16-10" v:groupContext="shadow" v:shadowOffsetX="0.345598" v:shadowOffsetY="-1.97279"
							v:shadowType="1" transform="matrix(1,0,0,1,0.345598,1.97279)" class="st1">
						<rect x="0" y="176.829" width="56.6929" height="56.6929" rx="2.83465" ry="2.83465" class="st2"/>
					</g>
					<rect x="0" y="176.829" width="56.6929" height="56.6929" rx="2.83465" ry="2.83465" class="st3"/>
					<text x="22.35" y="212.38" class="st4" v:langID="2052"><v:paragraph v:horizAlign="1"/><v:tabList/>2</text>				</g>
				<g id="shape17-15" v:mID="17" v:groupContext="shape" transform="translate(238.11,-5.68434E-14)">
					<title>正方形.17</title>
					<desc>3</desc>
					<v:userDefs>
						<v:ud v:nameU="visVersion" v:val="VT0(15):26"/>
					</v:userDefs>
					<v:textBlock v:margins="rect(4,4,4,4)" v:tabSpace="42.5197"/>
					<v:textRect cx="28.3465" cy="205.175" width="56.7" height="56.6929"/>
					<g id="shadow17-16" v:groupContext="shadow" v:shadowOffsetX="0.345598" v:shadowOffsetY="-1.97279"
							v:shadowType="1" transform="matrix(1,0,0,1,0.345598,1.97279)" class="st1">
						<rect x="0" y="176.829" width="56.6929" height="56.6929" rx="2.83465" ry="2.83465" class="st2"/>
					</g>
					<rect x="0" y="176.829" width="56.6929" height="56.6929" rx="2.83465" ry="2.83465" class="st3"/>
					<text x="22.35" y="212.38" class="st4" v:langID="2052"><v:paragraph v:horizAlign="1"/><v:tabList/>3</text>				</g>
				<g id="shape18-21" v:mID="18" v:groupContext="shape" transform="translate(301.89,-5.68434E-14)">
					<title>正方形.18</title>
					<desc>4</desc>
					<v:userDefs>
						<v:ud v:nameU="visVersion" v:val="VT0(15):26"/>
					</v:userDefs>
					<v:textBlock v:margins="rect(4,4,4,4)" v:tabSpace="42.5197"/>
					<v:textRect cx="28.3465" cy="205.175" width="56.7" height="56.6929"/>
					<g id="shadow18-22" v:groupContext="shadow" v:shadowOffsetX="0.345598" v:shadowOffsetY="-1.97279"
							v:shadowType="1" transform="matrix(1,0,0,1,0.345598,1.97279)" class="st1">
						<rect x="0" y="176.829" width="56.6929" height="56.6929" rx="2.83465" ry="2.83465" class="st2"/>
					</g>
					<rect x="0" y="176.829" width="56.6929" height="56.6929" rx="2.83465" ry="2.83465" class="st3"/>
					<text x="22.35" y="212.38" class="st4" v:langID="2052"><v:paragraph v:horizAlign="1"/><v:tabList/>4</text>				</g>
				<g id="shape19-27" v:mID="19" v:groupContext="shape" transform="translate(365.669,0)">
					<title>正方形.19</title>
					<desc>5</desc>
					<v:userDefs>
						<v:ud v:nameU="visVersion" v:val="VT0(15):26"/>
					</v:userDefs>
					<v:textBlock v:margins="rect(4,4,4,4)" v:tabSpace="42.5197"/>
					<v:textRect cx="28.3465" cy="205.175" width="56.7" height="56.6929"/>
					<g id="shadow19-28" v:groupContext="shadow" v:shadowOffsetX="0.345598" v:shadowOffsetY="-1.97279"
							v:shadowType="1" transform="matrix(1,0,0,1,0.345598,1.97279)" class="st1">
						<rect x="0" y="176.829" width="56.6929" height="56.6929" rx="2.83465" ry="2.83465" class="st2"/>
					</g>
					<rect x="0" y="176.829" width="56.6929" height="56.6929" rx="2.83465" ry="2.83465" class="st3"/>
					<text x="22.35" y="212.38" class="st4" v:langID="2052"><v:paragraph v:horizAlign="1"/><v:tabList/>5</text>				</g>
				<g id="shape20-33" v:mID="20" v:groupContext="shape" transform="translate(436.535,-1.98952E-13)">
					<title>正方形.20</title>
					<desc>6</desc>
					<v:userDefs>
						<v:ud v:nameU="visVersion" v:val="VT0(15):26"/>
					</v:userDefs>
					<v:textBlock v:margins="rect(4,4,4,4)" v:tabSpace="42.5197"/>
					<v:textRect cx="28.3465" cy="205.175" width="56.7" height="56.6929"/>
					<g id="shadow20-34" v:groupContext="shadow" v:shadowOffsetX="0.345598" v:shadowOffsetY="-1.97279"
							v:shadowType="1" transform="matrix(1,0,0,1,0.345598,1.97279)" class="st1">
						<rect x="0" y="176.829" width="56.6929" height="56.6929" rx="2.83465" ry="2.83465" class="st2"/>
					</g>
					<rect x="0" y="176.829" width="56.6929" height="56.6929" rx="2.83465" ry="2.83465" class="st3"/>
					<text x="22.35" y="212.38" class="st4" v:langID="2052"><v:paragraph v:horizAlign="1"/><v:tabList/>6</text>				</g>
				<g id="shape21-39" v:mID="21" v:groupContext="shape" transform="translate(500.315,0)">
					<title>正方形.21</title>
					<desc>7</desc>
					<v:userDefs>
						<v:ud v:nameU="visVersion" v:val="VT0(15):26"/>
					</v:userDefs>
					<v:textBlock v:margins="rect(4,4,4,4)" v:tabSpace="42.5197"/>
					<v:textRect cx="28.3465" cy="205.175" width="56.7" height="56.6929"/>
					<g id="shadow21-40" v:groupContext="shadow" v:shadowOffsetX="0.345598" v:shadowOffsetY="-1.97279"
							v:shadowType="1" transform="matrix(1,0,0,1,0.345598,1.97279)" class="st1">
						<rect x="0" y="176.829" width="56.6929" height="56.6929" rx="2.83465" ry="2.83465" class="st2"/>
					</g>
					<rect x="0" y="176.829" width="56.6929" height="56.6929" rx="2.83465" ry="2.83465" class="st3"/>
					<text x="22.35" y="212.38" class="st4" v:langID="2052"><v:paragraph v:horizAlign="1"/><v:tabList/>7</text>				</g>
				<g id="shape23-45" v:mID="23" v:groupContext="shape" transform="translate(-3.19744E-14,-18.3465)">
					<title>工作表.23</title>
					<desc>sorted array</desc>
					<v:textBlock v:margins="rect(4,4,4,4)" v:tabSpace="42.5197"/>
					<v:textRect cx="49.9354" cy="223.522" width="99.88" height="20"/>
					<rect x="0" y="213.522" width="99.8707" height="20" class="st5"/>
					<text x="7.21" y="228.92" class="st6" v:langID="2052"><v:paragraph v:horizAlign="1"/><v:tabList/>sorted array</text>				</g>
				<g id="shape34-48" v:mID="34" v:groupContext="shape" transform="translate(571.181,-5.68434E-14)">
					<title>正方形.34</title>
					<desc>8</desc>
					<v:userDefs>
						<v:ud v:nameU="visVersion" v:val="VT0(15):26"/>
					</v:userDefs>
					<v:textBlock v:margins="rect(4,4,4,4)" v:tabSpace="42.5197"/>
					<v:textRect cx="28.3465" cy="205.175" width="56.7" height="56.6929"/>
					<g id="shadow34-49" v:groupContext="shadow" v:shadowOffsetX="0.345598" v:shadowOffsetY="-1.97279"
							v:shadowType="1" transform="matrix(1,0,0,1,0.345598,1.97279)" class="st1">
						<rect x="0" y="176.829" width="56.6929" height="56.6929" rx="2.83465" ry="2.83465" class="st2"/>
					</g>
					<rect x="0" y="176.829" width="56.6929" height="56.6929" rx="2.83465" ry="2.83465" class="st3"/>
					<text x="22.35" y="212.38" class="st4" v:langID="2052"><v:paragraph v:horizAlign="1"/><v:tabList/>8</text>				</g>
			</g>
			<g id="group47-54" transform="translate(3.59387,-98.9262)" v:mID="47" v:groupContext="group">
				<title>工作表.47</title>
				<g id="shape10-55" v:mID="10" v:groupContext="shape" transform="translate(234.516,-42.8061)">
					<title>正方形.10</title>
					<desc>5</desc>
					<v:userDefs>
						<v:ud v:nameU="visVersion" v:val="VT0(15):26"/>
					</v:userDefs>
					<v:textBlock v:margins="rect(4,4,4,4)" v:tabSpace="42.5197"/>
					<v:textRect cx="28.3465" cy="205.175" width="56.7" height="56.6929"/>
					<g id="shadow10-56" v:groupContext="shadow" v:shadowOffsetX="0.345598" v:shadowOffsetY="-1.97279"
							v:shadowType="1" transform="matrix(1,0,0,1,0.345598,1.97279)" class="st1">
						<rect x="0" y="176.829" width="56.6929" height="56.6929" rx="2.83465" ry="2.83465" class="st2"/>
					</g>
					<rect x="0" y="176.829" width="56.6929" height="56.6929" rx="2.83465" ry="2.83465" class="st3"/>
					<text x="22.35" y="212.38" class="st4" v:langID="2052"><v:paragraph v:horizAlign="1"/><v:tabList/>5</text>				</g>
				<g id="shape11-61" v:mID="11" v:groupContext="shape" transform="translate(298.296,-42.8061)">
					<title>正方形.11</title>
					<desc>3</desc>
					<v:userDefs>
						<v:ud v:nameU="visVersion" v:val="VT0(15):26"/>
					</v:userDefs>
					<v:textBlock v:margins="rect(4,4,4,4)" v:tabSpace="42.5197"/>
					<v:textRect cx="28.3465" cy="205.175" width="56.7" height="56.6929"/>
					<g id="shadow11-62" v:groupContext="shadow" v:shadowOffsetX="0.345598" v:shadowOffsetY="-1.97279"
							v:shadowType="1" transform="matrix(1,0,0,1,0.345598,1.97279)" class="st1">
						<rect x="0" y="176.829" width="56.6929" height="56.6929" rx="2.83465" ry="2.83465" class="st2"/>
					</g>
					<rect x="0" y="176.829" width="56.6929" height="56.6929" rx="2.83465" ry="2.83465" class="st3"/>
					<text x="22.35" y="212.38" class="st4" v:langID="2052"><v:paragraph v:horizAlign="1"/><v:tabList/>3</text>				</g>
				<g id="shape12-67" v:mID="12" v:groupContext="shape" transform="translate(362.075,-42.8061)">
					<title>正方形.12</title>
					<desc>4</desc>
					<v:userDefs>
						<v:ud v:nameU="visVersion" v:val="VT0(15):26"/>
					</v:userDefs>
					<v:textBlock v:margins="rect(4,4,4,4)" v:tabSpace="42.5197"/>
					<v:textRect cx="28.3465" cy="205.175" width="56.7" height="56.6929"/>
					<g id="shadow12-68" v:groupContext="shadow" v:shadowOffsetX="0.345598" v:shadowOffsetY="-1.97279"
							v:shadowType="1" transform="matrix(1,0,0,1,0.345598,1.97279)" class="st1">
						<rect x="0" y="176.829" width="56.6929" height="56.6929" rx="2.83465" ry="2.83465" class="st2"/>
					</g>
					<rect x="0" y="176.829" width="56.6929" height="56.6929" rx="2.83465" ry="2.83465" class="st3"/>
					<text x="22.35" y="212.38" class="st4" v:langID="2052"><v:paragraph v:horizAlign="1"/><v:tabList/>4</text>				</g>
				<g id="shape13-73" v:mID="13" v:groupContext="shape" transform="translate(432.942,-42.8061)">
					<title>正方形.13</title>
					<desc>7</desc>
					<v:userDefs>
						<v:ud v:nameU="visVersion" v:val="VT0(15):26"/>
					</v:userDefs>
					<v:textBlock v:margins="rect(4,4,4,4)" v:tabSpace="42.5197"/>
					<v:textRect cx="28.3465" cy="205.175" width="56.7" height="56.6929"/>
					<g id="shadow13-74" v:groupContext="shadow" v:shadowOffsetX="0.345598" v:shadowOffsetY="-1.97279"
							v:shadowType="1" transform="matrix(1,0,0,1,0.345598,1.97279)" class="st1">
						<rect x="0" y="176.829" width="56.6929" height="56.6929" rx="2.83465" ry="2.83465" class="st2"/>
					</g>
					<rect x="0" y="176.829" width="56.6929" height="56.6929" rx="2.83465" ry="2.83465" class="st3"/>
					<text x="22.35" y="212.38" class="st4" v:langID="2052"><v:paragraph v:horizAlign="1"/><v:tabList/>7</text>				</g>
				<g id="shape14-79" v:mID="14" v:groupContext="shape" transform="translate(496.721,-42.8061)">
					<title>正方形.14</title>
					<desc>6</desc>
					<v:userDefs>
						<v:ud v:nameU="visVersion" v:val="VT0(15):26"/>
					</v:userDefs>
					<v:textBlock v:margins="rect(4,4,4,4)" v:tabSpace="42.5197"/>
					<v:textRect cx="28.3465" cy="205.175" width="56.7" height="56.6929"/>
					<g id="shadow14-80" v:groupContext="shadow" v:shadowOffsetX="0.345598" v:shadowOffsetY="-1.97279"
							v:shadowType="1" transform="matrix(1,0,0,1,0.345598,1.97279)" class="st1">
						<rect x="0" y="176.829" width="56.6929" height="56.6929" rx="2.83465" ry="2.83465" class="st2"/>
					</g>
					<rect x="0" y="176.829" width="56.6929" height="56.6929" rx="2.83465" ry="2.83465" class="st3"/>
					<text x="22.35" y="212.38" class="st4" v:langID="2052"><v:paragraph v:horizAlign="1"/><v:tabList/>6</text>				</g>
				<g id="shape22-85" v:mID="22" v:groupContext="shape" transform="translate(-3.19744E-14,-61.1525)">
					<title>工作表.22</title>
					<desc>input array</desc>
					<v:textBlock v:margins="rect(4,4,4,4)" v:tabSpace="42.5197"/>
					<v:textRect cx="49.9354" cy="223.522" width="99.88" height="20"/>
					<rect x="0" y="213.522" width="99.8707" height="20" class="st5"/>
					<text x="10.7" y="228.92" class="st6" v:langID="2052"><v:paragraph v:horizAlign="1"/><v:tabList/>input array</text>				</g>
				<g id="shape27-88" v:mID="27" v:groupContext="shape" v:layerMember="0"
						transform="translate(390.422,424.237) rotate(180)">
					<title>曲线连接 3.27</title>
					<v:userDefs>
						<v:ud v:nameU="visVersion" v:val="VT0(15):26"/>
					</v:userDefs>
					<path d="M127.56 233.52 A150.591 150.591 -180 0 0 -0 233.52" class="st7"/>
				</g>
				<g id="shape28-94" v:mID="28" v:groupContext="shape" v:layerMember="0"
						transform="translate(326.642,367.544) rotate(180)">
					<title>曲线连接 3.28</title>
					<v:userDefs>
						<v:ud v:nameU="visVersion" v:val="VT0(15):26"/>
					</v:userDefs>
					<path d="M0 233.52 A42.9626 42.9626 -180 0 0 63.78 233.52" class="st7"/>
				</g>
				<g id="shape29-99" v:mID="29" v:groupContext="shape" v:layerMember="0"
						transform="translate(390.422,367.544) rotate(180)">
					<title>曲线连接 3.29</title>
					<v:userDefs>
						<v:ud v:nameU="visVersion" v:val="VT0(15):26"/>
					</v:userDefs>
					<path d="M0 233.52 A42.9626 42.9626 -180 0 0 63.78 233.52" class="st7"/>
				</g>
				<g id="shape30-104" v:mID="30" v:groupContext="shape" v:layerMember="0"
						transform="translate(525.068,424.237) rotate(180)">
					<title>曲线连接 3.30</title>
					<v:userDefs>
						<v:ud v:nameU="visVersion" v:val="VT0(15):26"/>
					</v:userDefs>
					<path d="M63.78 233.52 A42.9626 42.9626 -180 0 0 -0 233.52" class="st7"/>
				</g>
				<g id="shape31-109" v:mID="31" v:groupContext="shape" v:layerMember="0"
						transform="translate(525.068,367.544) rotate(180)">
					<title>曲线连接 3.31</title>
					<v:userDefs>
						<v:ud v:nameU="visVersion" v:val="VT0(15):26"/>
					</v:userDefs>
					<path d="M0 233.52 A42.9626 42.9626 -180 0 0 63.78 233.52" class="st7"/>
				</g>
				<g id="shape33-114" v:mID="33" v:groupContext="shape" transform="translate(567.587,-42.8061)">
					<title>正方形.33</title>
					<desc>8</desc>
					<v:userDefs>
						<v:ud v:nameU="visVersion" v:val="VT0(15):26"/>
					</v:userDefs>
					<v:textBlock v:margins="rect(4,4,4,4)" v:tabSpace="42.5197"/>
					<v:textRect cx="28.3465" cy="205.175" width="56.7" height="56.6929"/>
					<g id="shadow33-115" v:groupContext="shadow" v:shadowOffsetX="0.345598" v:shadowOffsetY="-1.97279"
							v:shadowType="1" transform="matrix(1,0,0,1,0.345598,1.97279)" class="st1">
						<rect x="0" y="176.829" width="56.6929" height="56.6929" rx="2.83465" ry="2.83465" class="st2"/>
					</g>
					<rect x="0" y="176.829" width="56.6929" height="56.6929" rx="2.83465" ry="2.83465" class="st3"/>
					<text x="22.35" y="212.38" class="st4" v:langID="2052"><v:paragraph v:horizAlign="1"/><v:tabList/>8</text>				</g>
				<g id="shape8-120" v:mID="8" v:groupContext="shape" transform="translate(96.7526,-42.8061)">
					<title>正方形</title>
					<desc>2</desc>
					<v:userDefs>
						<v:ud v:nameU="visVersion" v:val="VT0(15):26"/>
					</v:userDefs>
					<v:textBlock v:margins="rect(4,4,4,4)" v:tabSpace="42.5197"/>
					<v:textRect cx="28.3465" cy="205.175" width="56.7" height="56.6929"/>
					<g id="shadow8-121" v:groupContext="shadow" v:shadowOffsetX="0.345598" v:shadowOffsetY="-1.97279"
							v:shadowType="1" transform="matrix(1,0,0,1,0.345598,1.97279)" class="st1">
						<rect x="0" y="176.829" width="56.6929" height="56.6929" rx="2.83465" ry="2.83465" class="st2"/>
					</g>
					<rect x="0" y="176.829" width="56.6929" height="56.6929" rx="2.83465" ry="2.83465" class="st3"/>
					<text x="22.35" y="212.38" class="st4" v:langID="2052"><v:paragraph v:horizAlign="1"/><v:tabList/>2</text>				</g>
				<g id="shape9-126" v:mID="9" v:groupContext="shape" transform="translate(160.107,-42.8061)">
					<title>正方形.9</title>
					<desc>1</desc>
					<v:userDefs>
						<v:ud v:nameU="visVersion" v:val="VT0(15):26"/>
					</v:userDefs>
					<v:textBlock v:margins="rect(4,4,4,4)" v:tabSpace="42.5197"/>
					<v:textRect cx="28.3465" cy="205.175" width="56.7" height="56.6929"/>
					<g id="shadow9-127" v:groupContext="shadow" v:shadowOffsetX="0.345598" v:shadowOffsetY="-1.97279"
							v:shadowType="1" transform="matrix(1,0,0,1,0.345598,1.97279)" class="st1">
						<rect x="0" y="176.829" width="56.6929" height="56.6929" rx="2.83465" ry="2.83465" class="st2"/>
					</g>
					<rect x="0" y="176.829" width="56.6929" height="56.6929" rx="2.83465" ry="2.83465" class="st3"/>
					<text x="22.35" y="212.38" class="st4" v:langID="2052"><v:paragraph v:horizAlign="1"/><v:tabList/>1</text>				</g>
				<g id="shape25-132" v:mID="25" v:groupContext="shape" v:layerMember="0"
						transform="translate(188.453,424.237) rotate(180)">
					<title>曲线连接 3</title>
					<v:userDefs>
						<v:ud v:nameU="visVersion" v:val="VT0(15):26"/>
					</v:userDefs>
					<path d="M63.35 233.52 A42.4858 42.4858 -180 0 0 0 233.52" class="st7"/>
				</g>
				<g id="shape26-137" v:mID="26" v:groupContext="shape" v:layerMember="0"
						transform="translate(188.453,367.544) rotate(180)">
					<title>曲线连接 3.26</title>
					<v:userDefs>
						<v:ud v:nameU="visVersion" v:val="VT0(15):26"/>
					</v:userDefs>
					<path d="M0 233.52 A42.4858 42.4858 -180 0 0 63.35 233.52" class="st7"/>
				</g>
				<g id="shape32-142" v:mID="32" v:groupContext="shape" transform="translate(92.7841,-14.4596)">
					<title>矩形</title>
					<v:userDefs>
						<v:ud v:nameU="visVersion" v:val="VT0(15):26"/>
					</v:userDefs>
					<g id="shadow32-143" v:groupContext="shadow" v:shadowOffsetX="0.345598" v:shadowOffsetY="-1.97279"
							v:shadowType="1" transform="matrix(1,0,0,1,0.345598,1.97279)" class="st1">
						<path d="M0 233.52 L127.56 233.52 L127.56 120.14 L0 120.14 L0 233.52 Z" class="st9"/>
					</g>
					<path d="M0 233.52 L127.56 233.52 L127.56 120.14 L0 120.14 L0 233.52 Z" class="st10"/>
				</g>
				<g id="shape36-147" v:mID="36" v:groupContext="shape" transform="translate(231.115,-14.4596)">
					<title>矩形.36</title>
					<v:userDefs>
						<v:ud v:nameU="visVersion" v:val="VT0(15):26"/>
					</v:userDefs>
					<g id="shadow36-148" v:groupContext="shadow" v:shadowOffsetX="0.345598" v:shadowOffsetY="-1.97279"
							v:shadowType="1" transform="matrix(1,0,0,1,0.345598,1.97279)" class="st1">
						<path d="M0 233.52 L190.49 233.52 L190.49 120.14 L0 120.14 L0 233.52 Z" class="st9"/>
					</g>
					<path d="M0 233.52 L190.49 233.52 L190.49 120.14 L0 120.14 L0 233.52 Z" class="st10"/>
				</g>
				<g id="shape37-152" v:mID="37" v:groupContext="shape" transform="translate(430.107,-14.4596)">
					<title>矩形.37</title>
					<v:userDefs>
						<v:ud v:nameU="visVersion" v:val="VT0(15):26"/>
					</v:userDefs>
					<g id="shadow37-153" v:groupContext="shadow" v:shadowOffsetX="0.345598" v:shadowOffsetY="-1.97279"
							v:shadowType="1" transform="matrix(1,0,0,1,0.345598,1.97279)" class="st1">
						<path d="M0 233.52 L126.14 233.52 L126.14 120.14 L0 120.14 L0 233.52 Z" class="st9"/>
					</g>
					<path d="M0 233.52 L126.14 233.52 L126.14 120.14 L0 120.14 L0 233.52 Z" class="st10"/>
				</g>
				<g id="shape38-157" v:mID="38" v:groupContext="shape" transform="translate(564.753,-14.4596)">
					<title>矩形.38</title>
					<v:userDefs>
						<v:ud v:nameU="visVersion" v:val="VT0(15):26"/>
					</v:userDefs>
					<g id="shadow38-158" v:groupContext="shadow" v:shadowOffsetX="0.345598" v:shadowOffsetY="-1.97279"
							v:shadowType="1" transform="matrix(1,0,0,1,0.345598,1.97279)" class="st1">
						<path d="M0 233.52 L62.36 233.52 L62.36 120.14 L0 120.14 L0 233.52 Z" class="st9"/>
					</g>
					<path d="M0 233.52 L62.36 233.52 L62.36 120.14 L0 120.14 L0 233.52 Z" class="st10"/>
				</g>
				<g id="shape39-162" v:mID="39" v:groupContext="shape" transform="translate(92.7841,2.84217E-14)">
					<title>工作表.39</title>
					<desc>loop #1</desc>
					<v:textBlock v:margins="rect(4,4,4,4)" v:tabSpace="42.5197"/>
					<v:textRect cx="63.7795" cy="226.292" width="127.56" height="14.4596"/>
					<rect x="0" y="219.062" width="127.559" height="14.4596" class="st5"/>
					<text x="45.61" y="229.89" class="st11" v:langID="2052"><v:paragraph v:horizAlign="1"/><v:tabList/>loop #1</text>				</g>
				<g id="shape41-165" v:mID="41" v:groupContext="shape" transform="translate(231.115,-0.286366)">
					<title>工作表.41</title>
					<desc>loop #2</desc>
					<v:textBlock v:margins="rect(4,4,4,4)" v:tabSpace="42.5197"/>
					<v:textRect cx="95.2441" cy="226.292" width="190.49" height="14.4596"/>
					<rect x="0" y="219.062" width="190.488" height="14.4596" class="st5"/>
					<text x="77.08" y="229.89" class="st11" v:langID="2052"><v:paragraph v:horizAlign="1"/><v:tabList/>loop #2</text>				</g>
				<g id="shape42-168" v:mID="42" v:groupContext="shape" transform="translate(430.107,-0.286366)">
					<title>工作表.42</title>
					<desc>loop #3</desc>
					<v:textBlock v:margins="rect(4,4,4,4)" v:tabSpace="42.5197"/>
					<v:textRect cx="63.7795" cy="226.292" width="127.56" height="14.4596"/>
					<rect x="0" y="219.062" width="127.559" height="14.4596" class="st5"/>
					<text x="45.61" y="229.89" class="st11" v:langID="2052"><v:paragraph v:horizAlign="1"/><v:tabList/>loop #3</text>				</g>
				<g id="shape43-171" v:mID="43" v:groupContext="shape" transform="translate(564.753,-0.286366)">
					<title>工作表.43</title>
					<desc>loop #4</desc>
					<v:textBlock v:margins="rect(4,4,4,4)" v:tabSpace="42.5197"/>
					<v:textRect cx="31.1811" cy="226.292" width="62.37" height="14.4596"/>
					<rect x="0" y="219.062" width="62.3622" height="14.4596" class="st5"/>
					<text x="13.01" y="229.89" class="st11" v:langID="2052"><v:paragraph v:horizAlign="1"/><v:tabList/>loop #4</text>				</g>
			</g>
		</g>
	</g>
</svg>
