<?xml version="1.0" encoding="UTF-8" standalone="no"?>
<!DOCTYPE svg PUBLIC "-//W3C//DTD SVG 1.1//EN" "http://www.w3.org/Graphics/SVG/1.1/DTD/svg11.dtd">
<!-- 由 Microsoft Visio, SVG Export 生成 memory_model_sparse_dynamic.svg 页-1 -->
<svg xmlns="http://www.w3.org/2000/svg" xmlns:xlink="http://www.w3.org/1999/xlink" xmlns:ev="http://www.w3.org/2001/xml-events"
		width="10.0263in" height="5.85891in" viewBox="0 0 721.895 421.841" xml:space="preserve" color-interpolation-filters="sRGB"
		class="st35">
	<style type="text/css">
	<![CDATA[
		.st1 {fill:none;stroke:none;stroke-width:0.25}
		.st2 {fill:#000000;font-family:Times New Roman;font-size:0.916672em}
		.st3 {marker-end:url(#mrkr1-10);stroke:#48d9fd;stroke-dasharray:3.5,2.5;stroke-linecap:round;stroke-linejoin:round;stroke-width:0.5}
		.st4 {fill:#48d9fd;fill-opacity:1;stroke:#48d9fd;stroke-opacity:1;stroke-width:0.16556291390728}
		.st5 {visibility:visible}
		.st6 {fill:#5b9bd5;fill-opacity:0.22;filter:url(#filter_2);stroke:#5b9bd5;stroke-opacity:0.22}
		.st7 {fill:#bfbfbf;stroke:#48d9fd;stroke-width:0.5}
		.st8 {fill:#000000;font-family:Times New Roman;font-size:0.75em}
		.st9 {fill:none;filter:url(#filter_2);stroke:#5b9bd5;stroke-dasharray:3.5,2.5;stroke-opacity:0.22}
		.st10 {fill:none;stroke:#48d9fd;stroke-dasharray:3.5,2.5;stroke-width:0.5}
		.st11 {fill:none;stroke:none;stroke-width:0.5}
		.st12 {fill:#000000;font-family:微软雅黑;font-size:0.666664em;font-weight:bold}
		.st13 {fill:none;filter:url(#filter_2);stroke:#5b9bd5;stroke-opacity:0.22}
		.st14 {fill:#5b9bd5;filter:url(#filter_2);font-family:Times New Roman;font-size:0.833336em;opacity:0.219608}
		.st15 {fill:none;stroke:#000000;stroke-width:0.5}
		.st16 {fill:#000000;font-family:Times New Roman;font-size:0.833336em}
		.st17 {fill:#bfbfbf;stroke:#000000;stroke-width:0.5}
		.st18 {fill:none;stroke:#000000;stroke-dasharray:3.5,2.5;stroke-width:0.5}
		.st19 {marker-end:url(#mrkr5-154);stroke:#000000;stroke-linecap:round;stroke-linejoin:round;stroke-width:0.5}
		.st20 {fill:#000000;fill-opacity:1;stroke:#000000;stroke-opacity:1;stroke-width:0.16556291390728}
		.st21 {marker-end:url(#mrkr5-160);stroke:#000000;stroke-linecap:round;stroke-linejoin:round;stroke-width:0.5}
		.st22 {fill:#48d9fd;font-family:Times New Roman;font-size:0.916672em}
		.st23 {stroke:#000000;stroke-width:0.5}
		.st24 {marker-end:url(#mrkr4-231);stroke:#000000;stroke-linecap:round;stroke-linejoin:round;stroke-width:0.75}
		.st25 {fill:#000000;fill-opacity:1;stroke:#000000;stroke-opacity:1;stroke-width:0.22935779816514}
		.st26 {fill:#48d9fd;font-family:Times New Roman;font-size:0.916672em;font-weight:bold}
		.st27 {fill:none;stroke:#48d9fd;stroke-width:0.5}
		.st28 {stroke:#000000;stroke-dasharray:3.5,2.5;stroke-linecap:round;stroke-linejoin:round;stroke-width:0.5}
		.st29 {fill:#000000;font-family:Times New Roman;font-size:0.666664em}
		.st30 {stroke:#48d9fd;stroke-dasharray:3.5,2.5;stroke-linecap:round;stroke-linejoin:round;stroke-width:0.5}
		.st31 {fill:#a5a5a5;stroke:#48d9fd;stroke-width:0.5}
		.st32 {fill:#d8d8d8;stroke:#000000;stroke-width:0.5}
		.st33 {marker-end:url(#mrkr5-418);marker-start:url(#mrkr5-416);stroke:#48d9fd;stroke-linecap:round;stroke-linejoin:round;stroke-width:0.5}
		.st34 {font-size:1em}
		.st35 {fill:none;fill-rule:evenodd;font-size:12px;overflow:visible;stroke-linecap:square;stroke-miterlimit:3}
	]]>
	</style>

	<defs id="Markers">
		<g id="lend1">
			<path d="M 1 -1 L 0 0 L 1 1 " style="stroke-linecap:round;stroke-linejoin:round;fill:none"/>
		</g>
		<marker id="mrkr1-10" class="st4" orient="auto" markerUnits="strokeWidth" overflow="visible">
			<use xlink:href="#lend1" transform="scale(-6.04,-6.04) "/>
		</marker>
		<g id="lend5">
			<path d="M 2 1 L 0 0 L 1.98117 -0.993387 C 1.67173 -0.364514 1.67301 0.372642 1.98465 1.00043 " style="stroke:none"/>
		</g>
		<marker id="mrkr5-154" class="st20" refX="-0" orient="auto" markerUnits="strokeWidth" overflow="visible">
			<use xlink:href="#lend5" transform="scale(-6.04,-6.04) "/>
		</marker>
		<marker id="mrkr5-160" class="st20" refX="-9.85" orient="auto" markerUnits="strokeWidth" overflow="visible">
			<use xlink:href="#lend5" transform="scale(-6.04,-6.04) "/>
		</marker>
		<g id="lend4">
			<path d="M 2 1 L 0 0 L 2 -1 L 2 1 " style="stroke:none"/>
		</g>
		<marker id="mrkr4-231" class="st25" refX="-8.24" orient="auto" markerUnits="strokeWidth" overflow="visible">
			<use xlink:href="#lend4" transform="scale(-4.36,-4.36) "/>
		</marker>
		<marker id="mrkr5-416" class="st4" refX="9.85" orient="auto" markerUnits="strokeWidth" overflow="visible">
			<use xlink:href="#lend5" transform="scale(6.04) "/>
		</marker>
		<marker id="mrkr5-418" class="st4" refX="-10.57" orient="auto" markerUnits="strokeWidth" overflow="visible">
			<use xlink:href="#lend5" transform="scale(-6.04,-6.04) "/>
		</marker>
	</defs>
	<defs id="Filters">
		<filter id="filter_2">
			<feGaussianBlur stdDeviation="2"/>
		</filter>
	</defs>
	<g>
		<title>页-1</title>
		<g id="group294-1" transform="translate(0.25,-7.64835)">
			<title>工作表.294</title>
			<g id="shape15-2" transform="translate(193.465,-325.984)">
				<title>工作表.15</title>
				<desc>N = PAGES_PER_SECTION(256K) -1</desc>
				<rect x="0" y="401.841" width="189.833" height="20" class="st1"/>
				<text x="7.02" y="415.14" class="st2">N = PAGES_PER_SECTION(256K) -1</text>			</g>
			<g id="shape81-5" transform="translate(322.864,-50.7377) rotate(18.6337)">
				<title>工作表.81</title>
				<path d="M0 421.84 L80.29 421.84" class="st3"/>
			</g>
			<g id="shape82-11" transform="translate(237.483,-98.594) rotate(6.7063)">
				<title>工作表.82</title>
				<path d="M0 421.84 L76.46 421.84" class="st3"/>
			</g>
			<g id="shape83-16" transform="translate(163.462,-100.753) rotate(-3.36467)">
				<title>工作表.83</title>
				<path d="M0 421.84 L76.07 421.84" class="st3"/>
			</g>
			<g id="shape84-21" transform="translate(74.142,-114.251) rotate(-15.6898)">
				<title>工作表.84</title>
				<path d="M0 421.84 L78.88 421.84" class="st3"/>
			</g>
			<g id="shape85-26" transform="translate(258.175,-219.751) rotate(9.58298)">
				<title>工作表.85</title>
				<path d="M0 421.84 L78.33 421.84" class="st3"/>
			</g>
			<g id="shape86-31" transform="translate(171.695,-254.805) rotate(-2.20664)">
				<title>工作表.86</title>
				<path d="M0 421.84 L77.3 421.84" class="st3"/>
			</g>
			<g id="shape87-36" transform="translate(116.238,-248.98) rotate(-9.78593)">
				<title>工作表.87</title>
				<path d="M0 421.84 L78.38 421.84" class="st3"/>
			</g>
			<g id="shape88-41" transform="translate(38.1547,-256.828) rotate(-20.7976)">
				<title>工作表.88</title>
				<path d="M0 421.84 L82.63 421.84" class="st3"/>
			</g>
			<g id="group98-46" transform="translate(264.159,-47.126)">
				<title>工作表.98</title>
				<g id="shape99-47">
					<title>矩形.253</title>
					<desc>page[0]</desc>
					<g id="shadow99-48" transform="matrix(1,0,0,1,0.345598,1.97279)" class="st5">
						<rect x="0" y="411.353" width="37.9843" height="10.4882" class="st6"/>
					</g>
					<rect x="0" y="411.353" width="37.9843" height="10.4882" class="st7"/>
					<text x="5.25" y="419.3" class="st8">page[0]</text>				</g>
				<g id="shape100-53" transform="translate(2.79776E-014,-0.0708658)">
					<title>流程.254</title>
					<g id="shadow100-54" transform="matrix(1,0,0,1,0.345598,1.97279)" class="st5">
						<path d="M0 421.84 L37.98 421.84 L37.98 376.49 L0 376.49 L0 421.84 Z" class="st9"/>
					</g>
					<path d="M0 421.84 L37.98 421.84 L37.98 376.49 L0 376.49 L0 421.84 Z" class="st10"/>
				</g>
				<g id="shape101-58" transform="translate(9.19265E-014,-34.937)">
					<title>矩形.255</title>
					<desc>page[N]</desc>
					<g id="shadow101-59" transform="matrix(1,0,0,1,0.345598,1.97279)" class="st5">
						<rect x="0" y="411.353" width="37.9843" height="10.4882" class="st6"/>
					</g>
					<rect x="0" y="411.353" width="37.9843" height="10.4882" class="st7"/>
					<text x="4.25" y="419.3" class="st8">page[N]</text>				</g>
				<g id="shape102-64" transform="translate(5.59552E-014,-4.74803)">
					<title>工作表.102</title>
					<desc>◦◦◦</desc>
					<rect x="0" y="387.826" width="37.9843" height="34.0157" class="st11"/>
					<text x="19.19" y="392.83" writing-mode="tb-rl" class="st12">◦◦◦</text>				</g>
			</g>
			<g id="group103-67" transform="translate(264.159,-105.945)">
				<title>工作表.103</title>
				<g id="shape104-68">
					<title>矩形.253</title>
					<desc>page[0]</desc>
					<g id="shadow104-69" transform="matrix(1,0,0,1,0.345598,1.97279)" class="st5">
						<rect x="0" y="411.353" width="37.9843" height="10.4882" class="st6"/>
					</g>
					<rect x="0" y="411.353" width="37.9843" height="10.4882" class="st7"/>
					<text x="5.25" y="419.3" class="st8">page[0]</text>				</g>
				<g id="shape105-74">
					<title>流程.254</title>
					<g id="shadow105-75" transform="matrix(1,0,0,1,0.345598,1.97279)" class="st5">
						<path d="M0 421.84 L37.98 421.84 L37.98 376.49 L0 376.49 L0 421.84 Z" class="st9"/>
					</g>
					<path d="M0 421.84 L37.98 421.84 L37.98 376.49 L0 376.49 L0 421.84 Z" class="st10"/>
				</g>
				<g id="shape106-79" transform="translate(9.19265E-014,-34.8661)">
					<title>矩形.255</title>
					<desc>page[N]</desc>
					<g id="shadow106-80" transform="matrix(1,0,0,1,0.345598,1.97279)" class="st5">
						<rect x="0" y="411.353" width="37.9843" height="10.4882" class="st6"/>
					</g>
					<rect x="0" y="411.353" width="37.9843" height="10.4882" class="st7"/>
					<text x="4.25" y="419.3" class="st8">page[N]</text>				</g>
				<g id="shape107-85" transform="translate(5.59552E-014,-4.67717)">
					<title>工作表.107</title>
					<desc>◦◦◦</desc>
					<rect x="0" y="387.826" width="37.9843" height="34.0157" class="st11"/>
					<text x="19.19" y="392.83" writing-mode="tb-rl" class="st12">◦◦◦</text>				</g>
			</g>
			<g id="group108-88" transform="translate(265.181,-212.598)">
				<title>工作表.108</title>
				<g id="shape109-89">
					<title>矩形.253</title>
					<desc>page[0]</desc>
					<g id="shadow109-90" transform="matrix(1,0,0,1,0.345598,1.97279)" class="st5">
						<rect x="0" y="411.353" width="37.9843" height="10.4882" class="st6"/>
					</g>
					<rect x="0" y="411.353" width="37.9843" height="10.4882" class="st7"/>
					<text x="5.25" y="419.3" class="st8">page[0]</text>				</g>
				<g id="shape110-95" transform="translate(2.79776E-014,-0.141732)">
					<title>流程.254</title>
					<g id="shadow110-96" transform="matrix(1,0,0,1,0.345598,1.97279)" class="st5">
						<path d="M0 421.84 L37.98 421.84 L37.98 376.49 L0 376.49 L0 421.84 Z" class="st9"/>
					</g>
					<path d="M0 421.84 L37.98 421.84 L37.98 376.49 L0 376.49 L0 421.84 Z" class="st10"/>
				</g>
				<g id="shape111-100" transform="translate(9.19265E-014,-35.0079)">
					<title>矩形.255</title>
					<desc>page[N]</desc>
					<g id="shadow111-101" transform="matrix(1,0,0,1,0.345598,1.97279)" class="st5">
						<rect x="0" y="411.353" width="37.9843" height="10.4882" class="st6"/>
					</g>
					<rect x="0" y="411.353" width="37.9843" height="10.4882" class="st7"/>
					<text x="4.25" y="419.3" class="st8">page[N]</text>				</g>
				<g id="shape112-106" transform="translate(5.59552E-014,-4.8189)">
					<title>工作表.112</title>
					<desc>◦◦◦</desc>
					<rect x="0" y="387.826" width="37.9843" height="34.0157" class="st11"/>
					<text x="19.19" y="392.83" writing-mode="tb-rl" class="st12">◦◦◦</text>				</g>
			</g>
			<g id="group113-109" transform="translate(265.181,-268.441)">
				<title>工作表.113</title>
				<g id="shape114-110">
					<title>矩形.253</title>
					<desc>page[0]</desc>
					<g id="shadow114-111" transform="matrix(1,0,0,1,0.345598,1.97279)" class="st5">
						<rect x="0" y="411.353" width="37.9843" height="10.4882" class="st6"/>
					</g>
					<rect x="0" y="411.353" width="37.9843" height="10.4882" class="st7"/>
					<text x="5.25" y="419.3" class="st8">page[0]</text>				</g>
				<g id="shape115-116">
					<title>流程.254</title>
					<g id="shadow115-117" transform="matrix(1,0,0,1,0.345598,1.97279)" class="st5">
						<path d="M0 421.84 L37.98 421.84 L37.98 376.49 L0 376.49 L0 421.84 Z" class="st9"/>
					</g>
					<path d="M0 421.84 L37.98 421.84 L37.98 376.49 L0 376.49 L0 421.84 Z" class="st10"/>
				</g>
				<g id="shape116-121" transform="translate(9.19265E-014,-34.8661)">
					<title>矩形.255</title>
					<desc>page[N]</desc>
					<g id="shadow116-122" transform="matrix(1,0,0,1,0.345598,1.97279)" class="st5">
						<rect x="0" y="411.353" width="37.9843" height="10.4882" class="st6"/>
					</g>
					<rect x="0" y="411.353" width="37.9843" height="10.4882" class="st7"/>
					<text x="4.25" y="419.3" class="st8">page[N]</text>				</g>
				<g id="shape117-127" transform="translate(5.59552E-014,-4.67717)">
					<title>工作表.117</title>
					<desc>◦◦◦</desc>
					<rect x="0" y="387.826" width="37.9843" height="34.0157" class="st11"/>
					<text x="19.19" y="392.83" writing-mode="tb-rl" class="st12">◦◦◦</text>				</g>
			</g>
			<g id="shape171-130" transform="translate(371.885,-272.551)">
				<title>矩形.118</title>
				<desc>mem_section[R]</desc>
				<g id="shadow171-131" transform="matrix(1,0,0,1,0.345598,1.97279)" class="st5">
					<rect x="0" y="409.369" width="83.5887" height="12.4724" class="st13"/>
					<text x="8.47" y="418.61" class="st14">mem_section[R]</text>				</g>
				<rect x="0" y="409.369" width="83.5887" height="12.4724" class="st15"/>
				<text x="8.47" y="418.61" class="st16">mem_section[R]</text>			</g>
			<g id="shape175-138" transform="translate(371.885,-109.701)">
				<title>矩形.123</title>
				<desc>mem_section[3]</desc>
				<g id="shadow175-139" transform="matrix(1,0,0,1,0.345598,1.97279)" class="st5">
					<rect x="0" y="409.369" width="83.5887" height="12.4724" class="st6"/>
				</g>
				<rect x="0" y="409.369" width="83.5887" height="12.4724" class="st17"/>
				<text x="9.3" y="418.61" class="st16">mem_section[3]</text>			</g>
			<g id="shape176-144" transform="translate(371.885,-72.2835)">
				<title>流程.117</title>
				<g id="shadow176-145" transform="matrix(1,0,0,1,0.345598,1.97279)" class="st5">
					<path d="M0 421.84 L83.59 421.84 L83.59 209.24 L0 209.24 L0 421.84 Z" class="st9"/>
				</g>
				<path d="M0 421.84 L83.59 421.84 L83.59 209.24 L0 209.24 L0 421.84 Z" class="st18"/>
			</g>
			<g id="shape177-149" transform="translate(122.581,-21.9139) rotate(-36.2272) scale(-1,1)">
				<title>波浪连接线 1</title>
				<path d="M0 421.84 C51.59 402.7 39.32 442.75 86.46 421.84" class="st19"/>
			</g>
			<g id="shape178-155" transform="translate(233.041,626.289) rotate(-160.784)">
				<title>波浪连接线 1.126</title>
				<path d="M0 421.84 C31.75 417.41 30.86 435.15 67.76 423.52 L68.1 423.41" class="st21"/>
			</g>
			<g id="shape179-161" transform="translate(76.6763,516.813) rotate(-135.588)">
				<title>波浪连接线 1.127</title>
				<path d="M0 421.84 C39.96 437.21 54.24 455.78 92.14 425.22 L92.42 424.99" class="st21"/>
			</g>
			<g id="shape181-166" transform="translate(363.348,-56.6929)">
				<title>工作表.181</title>
				<desc>.section_mem_map</desc>
				<rect x="0" y="406.251" width="98.5039" height="15.5906" class="st1"/>
				<text x="6.33" y="417.35" class="st2">.section_mem_map</text>			</g>
			<g id="shape182-169" transform="translate(335.197,-288.417)">
				<title>工作表.182</title>
				<desc>R = SECTIONS_PER_ROOT(256) -1</desc>
				<rect x="0" y="401.841" width="189.833" height="20" class="st1"/>
				<text x="10.69" y="415.14" class="st2">R = SECTIONS_PER_ROOT(256) -1</text>			</g>
			<g id="shape183-172" transform="translate(371.885,-72.2835)">
				<title>矩形.325</title>
				<desc>mem_section[0]</desc>
				<g id="shadow183-173" transform="matrix(1,0,0,1,0.345598,1.97279)" class="st5">
					<rect x="0" y="409.369" width="83.5887" height="12.4724" class="st13"/>
					<text x="9.3" y="418.61" class="st14">mem_section[0]</text>				</g>
				<rect x="0" y="409.369" width="83.5887" height="12.4724" class="st15"/>
				<text x="9.3" y="418.61" class="st16">mem_section[0]</text>			</g>
			<g id="shape184-180" transform="translate(371.885,-84.7559)">
				<title>矩形.326</title>
				<desc>mem_section[1]</desc>
				<g id="shadow184-181" transform="matrix(1,0,0,1,0.345598,1.97279)" class="st5">
					<rect x="0" y="409.369" width="83.5887" height="12.4724" class="st13"/>
					<text x="9.3" y="418.61" class="st14">mem_section[1]</text>				</g>
				<rect x="0" y="409.369" width="83.5887" height="12.4724" class="st15"/>
				<text x="9.3" y="418.61" class="st16">mem_section[1]</text>			</g>
			<g id="shape185-188" transform="translate(371.885,-97.2283)">
				<title>矩形.327</title>
				<desc>mem_section[2]</desc>
				<g id="shadow185-189" transform="matrix(1,0,0,1,0.345598,1.97279)" class="st5">
					<rect x="0" y="409.369" width="83.5887" height="12.4724" class="st6"/>
				</g>
				<rect x="0" y="409.369" width="83.5887" height="12.4724" class="st17"/>
				<text x="9.3" y="418.61" class="st16">mem_section[2]</text>			</g>
			<g id="shape186-194" transform="translate(343.232,-114.963) rotate(-3.89468) scale(-1,1)">
				<title>波浪连接线 1.328</title>
				<path d="M0 421.84 C40.62 417.83 24.07 427.95 64.67 422.57 L65.03 422.52" class="st21"/>
			</g>
			<g id="shape192-199" transform="translate(371.885,-122.173)">
				<title>工作表.192</title>
				<desc>◦◦◦</desc>
				<rect x="0" y="356.361" width="83.5887" height="65.4803" class="st1"/>
				<text x="41.99" y="377.1" writing-mode="tb-rl" class="st12">◦◦◦</text>			</g>
			<g id="shape195-202" transform="translate(371.885,-187.654)">
				<title>矩形.337</title>
				<desc>mem_section[32]</desc>
				<g id="shadow195-203" transform="matrix(1,0,0,1,0.345598,1.97279)" class="st5">
					<rect x="0" y="409.369" width="83.5887" height="12.4724" class="st6"/>
				</g>
				<rect x="0" y="409.369" width="83.5887" height="12.4724" class="st17"/>
				<text x="6.8" y="418.61" class="st16">mem_section[32]</text>			</g>
			<g id="shape196-208" transform="translate(371.885,-200.126)">
				<title>矩形.338</title>
				<desc>mem_section[33]</desc>
				<g id="shadow196-209" transform="matrix(1,0,0,1,0.345598,1.97279)" class="st5">
					<rect x="0" y="409.369" width="83.5887" height="12.4724" class="st6"/>
				</g>
				<rect x="0" y="409.369" width="83.5887" height="12.4724" class="st17"/>
				<text x="6.8" y="418.61" class="st16">mem_section[33]</text>			</g>
			<g id="shape208-214" transform="translate(371.885,-212.598)">
				<title>工作表.208</title>
				<desc>◦◦◦</desc>
				<rect x="0" y="361.889" width="83.5887" height="59.9528" class="st1"/>
				<text x="41.99" y="379.86" writing-mode="tb-rl" class="st12">◦◦◦</text>			</g>
			<g id="shape210-217" transform="translate(600.967,-220.945)">
				<title>工作表.210</title>
				<desc>__nr_to_section( )</desc>
				<rect x="0" y="401.841" width="120.429" height="20" class="st1"/>
				<text x="19.74" y="415.14" class="st22">__nr_to_section( )</text>			</g>
			<g id="shape211-220" transform="translate(597.446,-49.6063)">
				<title>工作表.211</title>
				<desc>__pfn_to_section( )</desc>
				<rect x="0" y="401.841" width="120.429" height="20" class="st1"/>
				<text x="16.99" y="415.14" class="st22">__pfn_to_section( )</text>			</g>
			<g id="shape212-223" transform="translate(43.7493,138.377) rotate(-90) scale(-1,1)">
				<title>侧边大括号</title>
				<path d="M0 416.17 A5.6692 5.6692 -180 0 0 5.67 421.84 L99.92 421.84 A5.6692 5.6692 0 0 1 105.59 427.51 A5.6692 5.6692
							 0 0 1 111.26 421.84 L205.51 421.84 A5.6692 5.6692 -180 0 0 211.18 416.17" class="st23"/>
			</g>
			<g id="shape213-226" transform="translate(307.478,-28.9825) rotate(-56.9793) scale(-1,1)">
				<title>波浪连接线 1.361</title>
				<path d="M0 421.84 C2.02 417.79 55.54 471.88 87.55 427.34 L87.74 427.04" class="st24"/>
			</g>
			<g id="shape214-232" transform="translate(298.371,573.281) rotate(-121.601)">
				<title>波浪连接线 1.362</title>
				<path d="M0 421.84 C5.39 423.49 63.89 470.07 85.42 427.85 L85.57 427.52" class="st24"/>
			</g>
			<g id="shape215-237" transform="translate(510.945,-4.25197)">
				<title>工作表.215</title>
				<desc>CONFIG_SPARSEMEM_EXTREME=y</desc>
				<rect x="0" y="401.841" width="204.094" height="20" class="st1"/>
				<text x="5.71" y="415.14" class="st26">CONFIG_SPARSEMEM_EXTREME=y</text>			</g>
			<g id="group280-240" transform="translate(12.6142,0)">
				<title>工作表.280</title>
				<g id="shape18-241" transform="translate(83.3386,-18.2835)">
					<title>流程.244</title>
					<g id="shadow18-242" transform="matrix(1,0,0,1,0.345598,1.97279)" class="st5">
						<rect x="0" y="367.133" width="92.126" height="54.7087" class="st13"/>
					</g>
					<rect x="0" y="367.133" width="92.126" height="54.7087" class="st27"/>
				</g>
				<g id="shape20-246" transform="translate(68.6465,0)">
					<title>工作表.20</title>
					<desc>section unit = 1GiB</desc>
					<rect x="0" y="404.833" width="121.402" height="17.0079" class="st1"/>
					<text x="17.42" y="416.64" class="st2">section unit = 1GiB</text>				</g>
				<g id="shape44-249" transform="translate(71.9182,-44.6455) rotate(0.04765)">
					<title>工作表.44</title>
					<path d="M0 421.84 L113.39 421.84" class="st28"/>
				</g>
				<g id="shape46-252" transform="translate(72.3133,-101.339)">
					<title>工作表.46</title>
					<path d="M0 421.84 L113.39 421.84" class="st28"/>
				</g>
				<g id="shape48-255" transform="translate(70.8214,-129.685)">
					<title>工作表.48</title>
					<path d="M0 421.84 L113.39 421.84" class="st28"/>
				</g>
				<g id="shape54-258" transform="translate(81.6378,-129.685)">
					<title>工作表.54</title>
					<desc>◦◦◦</desc>
					<rect x="0" y="382.156" width="92.126" height="39.685" class="st1"/>
					<text x="46.26" y="390" writing-mode="tb-rl" class="st12">◦◦◦</text>				</g>
				<g id="shape55-261" transform="translate(1.35891E-013,-18.4252)">
					<title>工作表.55</title>
					<desc>0x0000_0000_0000</desc>
					<rect x="0" y="412.865" width="74.8514" height="8.97663" class="st1"/>
					<text x="5.42" y="419.75" class="st29">0x0000_0000_0000</text>				</g>
				<g id="shape56-264" transform="translate(1.1191E-013,-44.4093)">
					<title>工作表.56</title>
					<desc>0x0000_4000_0000</desc>
					<rect x="0" y="412.865" width="74.8514" height="8.97663" class="st1"/>
					<text x="5.42" y="419.75" class="st29">0x0000_4000_0000</text>				</g>
				<g id="shape57-267" transform="translate(0,-72.7558)">
					<title>工作表.57</title>
					<desc>0x0000_8000_0000</desc>
					<rect x="0" y="412.865" width="74.8514" height="8.97663" class="st1"/>
					<text x="5.42" y="419.75" class="st29">0x0000_8000_0000</text>				</g>
				<g id="shape58-270" transform="translate(-57.2886,-133.883) rotate(-19.4805)">
					<title>工作表.58</title>
					<path d="M0 421.84 L97.72 421.84" class="st30"/>
				</g>
				<g id="shape59-273" transform="translate(-338.415,403.527) rotate(-90.015)">
					<title>工作表.59</title>
					<path d="M0 421.84 L139.61 421.84" class="st30"/>
				</g>
				<g id="shape60-276" transform="translate(-246.41,403.208) rotate(-89.9718)">
					<title>工作表.60</title>
					<path d="M0 421.84 L172.19 421.84" class="st30"/>
				</g>
				<g id="shape61-279" transform="translate(83.205,-18.4252)">
					<title>工作表.61</title>
					<path d="M0 421.84 L92.23 421.84" class="st30"/>
				</g>
				<g id="shape63-282" transform="translate(0,-101.339)">
					<title>工作表.63</title>
					<desc>0x0000_C000_0000</desc>
					<rect x="0" y="412.865" width="74.8514" height="8.97663" class="st1"/>
					<text x="4.76" y="419.75" class="st29">0x0000_C000_0000</text>				</g>
				<g id="shape79-285" transform="translate(71.9403,-72.9921)">
					<title>工作表.79</title>
					<path d="M0 421.84 L113.39 421.84" class="st28"/>
				</g>
				<g id="shape277-288" transform="translate(0,-129.685)">
					<title>工作表.277</title>
					<desc>0x0001_0000_0000</desc>
					<rect x="0" y="412.865" width="74.8514" height="8.97663" class="st1"/>
					<text x="5.42" y="419.75" class="st29">0x0001_0000_0000</text>				</g>
				<g id="shape42-291" transform="translate(71.2076,-18.4252)">
					<title>工作表.42</title>
					<path d="M0 421.84 L113.39 421.84" class="st28"/>
				</g>
				<g id="shape52-294" transform="translate(83.4803,-72.9921)">
					<title>流程.178</title>
					<desc>memory.region[0]</desc>
					<g id="shadow52-295" transform="matrix(1,0,0,1,0.345598,1.97279)" class="st5">
						<rect x="0" y="364.865" width="92.126" height="56.9764" class="st6"/>
					</g>
					<rect x="0" y="364.865" width="92.126" height="56.9764" class="st31"/>
					<text x="5.89" y="396.65" class="st2">memory.region[0]</text>				</g>
			</g>
			<g id="group281-300" transform="translate(12.6142,-167.953)">
				<title>工作表.281</title>
				<g id="shape22-301" transform="translate(70.9838,-58.1204)">
					<title>工作表.22</title>
					<path d="M0 421.84 L113.39 421.84" class="st28"/>
				</g>
				<g id="shape26-304" transform="translate(70.8661,-116.22)">
					<title>工作表.26</title>
					<path d="M0 421.84 L113.39 421.84" class="st28"/>
				</g>
				<g id="shape33-307" transform="translate(-57.5354,24.1484) rotate(-19.4805)">
					<title>工作表.33</title>
					<path d="M0 421.84 L97.72 421.84" class="st30"/>
				</g>
				<g id="shape34-310" transform="translate(-246.472,389.834) rotate(-90.079)">
					<title>工作表.34</title>
					<path d="M0 421.84 L144.99 421.84" class="st30"/>
				</g>
				<g id="shape35-313" transform="translate(-57.6354,-120.844) rotate(-19.4805)">
					<title>工作表.35</title>
					<path d="M0 421.84 L97.72 421.84" class="st30"/>
				</g>
				<g id="shape36-316" transform="translate(-338.698,422.133) rotate(-90.0396)">
					<title>工作表.36</title>
					<path d="M0 421.84 L144.57 421.84" class="st30"/>
				</g>
				<g id="shape39-319" transform="translate(83.043,-115.512)">
					<title>工作表.39</title>
					<desc>◦◦◦</desc>
					<rect x="0" y="375.07" width="92.126" height="46.7717" class="st1"/>
					<text x="46.26" y="386.46" writing-mode="tb-rl" class="st12">◦◦◦</text>				</g>
				<g id="shape40-322" transform="translate(83.093,-17.0079)">
					<title>工作表.40</title>
					<desc>◦◦◦</desc>
					<rect x="0" y="382.156" width="92.126" height="39.685" class="st1"/>
					<text x="46.26" y="390" writing-mode="tb-rl" class="st12">◦◦◦</text>				</g>
				<g id="shape53-325" transform="translate(83.1969,-57.685)">
					<title>流程.179</title>
					<desc>memory.region[1]</desc>
					<g id="shadow53-326" transform="matrix(1,0,0,1,0.345598,1.97279)" class="st5">
						<rect x="0" y="362.881" width="92.126" height="58.9606" class="st6"/>
					</g>
					<rect x="0" y="362.881" width="92.126" height="58.9606" class="st31"/>
					<text x="5.89" y="395.66" class="st2">memory.region[1]</text>				</g>
				<g id="shape66-331" transform="translate(0,-58.1204)">
					<title>工作表.66</title>
					<desc>0x0008_0000_0000</desc>
					<rect x="0" y="412.865" width="74.8514" height="8.97663" class="st1"/>
					<text x="5.42" y="419.75" class="st29">0x0008_0000_0000</text>				</g>
				<g id="shape80-334" transform="translate(70.665,-87.1654)">
					<title>工作表.80</title>
					<path d="M0 421.84 L113.39 421.84" class="st28"/>
				</g>
				<g id="shape278-337" transform="translate(0,-87.1654)">
					<title>工作表.278</title>
					<desc>0x0008_4000_0000</desc>
					<rect x="0" y="412.865" width="74.8514" height="8.97663" class="st1"/>
					<text x="5.42" y="419.75" class="st29">0x0008_4000_0000</text>				</g>
				<g id="shape279-340" transform="translate(0,-115.512)">
					<title>工作表.279</title>
					<desc>0x0008_8000_0000</desc>
					<rect x="0" y="412.865" width="74.8514" height="8.97663" class="st1"/>
					<text x="5.42" y="419.75" class="st29">0x0008_8000_0000</text>				</g>
			</g>
			<g id="group282-343" transform="translate(0,-324.59)">
				<title>工作表.282</title>
				<g id="shape21-344" transform="translate(95.7571,-70.819)">
					<title>工作表.21</title>
					<desc>physical memory</desc>
					<rect x="0" y="404.833" width="92.126" height="17.0079" class="st1"/>
					<text x="8.03" y="416.64" class="st2">physical memory</text>				</g>
				<g id="shape65-347" transform="translate(0,-64.4882)">
					<title>工作表.65</title>
					<desc>0xFFFF_FFFF_FFFF</desc>
					<rect x="0" y="412.865" width="92.126" height="8.97663" class="st1"/>
					<text x="11.37" y="419.75" class="st29">0xFFFF_FFFF_FFFF</text>				</g>
				<g id="group73-350" transform="translate(95.6572,-1.13687E-013)">
					<title>工作表.73</title>
					<g id="shape74-351" transform="translate(-140.678,24.1484) rotate(-19.4805)">
						<title>工作表.74</title>
						<path d="M0 421.84 L97.72 421.84" class="st30"/>
					</g>
					<g id="shape75-354" transform="translate(-1.59872E-014,-70.8661)">
						<title>工作表.75</title>
						<path d="M0 421.84 L92.23 421.84" class="st30"/>
					</g>
					<g id="shape76-357" transform="translate(-421.841,421.841) rotate(-90)">
						<title>工作表.76</title>
						<path d="M0 421.84 L70.87 421.84" class="st30"/>
					</g>
					<g id="shape77-360" transform="translate(-329.715,389.253) rotate(-90)">
						<title>工作表.77</title>
						<path d="M0 421.84 L38.28 421.84" class="st30"/>
					</g>
					<g id="shape78-363" transform="translate(0.0999425,-19.8425)">
						<title>工作表.78</title>
						<desc>◦◦◦</desc>
						<rect x="0" y="382.156" width="92.126" height="39.685" class="st1"/>
						<text x="46.26" y="390" writing-mode="tb-rl" class="st12">◦◦◦</text>					</g>
				</g>
				<g id="shape64-366" transform="translate(83.598,-70.8661)">
					<title>工作表.64</title>
					<path d="M0 421.84 L113.39 421.84" class="st28"/>
				</g>
			</g>
			<g id="shape283-369" transform="translate(527.953,-99.2126)">
				<title>流程.283</title>
				<g id="shadow283-370" transform="matrix(1,0,0,1,0.345598,1.97279)" class="st5">
					<path d="M0 421.84 L83.59 421.84 L83.59 331.13 L0 331.13 L0 421.84 Z" class="st9"/>
				</g>
				<path d="M0 421.84 L83.59 421.84 L83.59 331.13 L0 331.13 L0 421.84 Z" class="st18"/>
			</g>
			<g id="shape284-374" transform="translate(527.953,-99.2126)">
				<title>矩形.284</title>
				<desc>*mem_section[0]</desc>
				<g id="shadow284-375" transform="matrix(1,0,0,1,0.345598,1.97279)" class="st5">
					<rect x="0" y="409.369" width="83.5887" height="12.4724" class="st6"/>
				</g>
				<rect x="0" y="409.369" width="83.5887" height="12.4724" class="st32"/>
				<text x="6.8" y="418.61" class="st16">*mem_section[0]</text>			</g>
			<g id="shape285-380" transform="translate(527.953,-111.685)">
				<title>工作表.285</title>
				<desc>◦◦◦</desc>
				<rect x="0" y="354.66" width="83.5887" height="67.1811" class="st1"/>
				<text x="41.99" y="376.25" writing-mode="tb-rl" class="st12">◦◦◦</text>			</g>
			<g id="shape286-383" transform="translate(527.953,-177.449)">
				<title>矩形.286</title>
				<desc>*mem_section[N]</desc>
				<g id="shadow286-384" transform="matrix(1,0,0,1,0.345598,1.97279)" class="st5">
					<rect x="0" y="409.369" width="83.5887" height="12.4724" class="st13"/>
					<text x="5.69" y="418.61" class="st14">*mem_section[N]</text>				</g>
				<rect x="0" y="409.369" width="83.5887" height="12.4724" class="st15"/>
				<text x="5.69" y="418.61" class="st16">*mem_section[N]</text>			</g>
			<g id="shape287-391" transform="translate(196.975,577.933) rotate(-128.316)">
				<title>波浪连接线 1.287</title>
				<path d="M0 421.84 C41.39 399.31 52.32 471.44 89.06 426.03 L89.28 425.75" class="st21"/>
			</g>
			<g id="shape288-396" transform="translate(471.348,-192.598)">
				<title>工作表.288</title>
				<desc>N = NR_SECTION_ROOTS(1024) -1</desc>
				<rect x="0" y="401.841" width="189.833" height="20" class="st1"/>
				<text x="10.08" y="415.14" class="st2">N = NR_SECTION_ROOTS(1024) -1</text>			</g>
			<g id="shape289-399" transform="translate(323.858,-4.25197)">
				<title>流程.289</title>
				<g id="shadow289-400" transform="matrix(1,0,0,1,0.345598,1.97279)" class="st5">
					<path d="M0 421.84 L391.18 421.84 L391.18 108.61 L0 108.61 L0 421.84 Z" class="st9"/>
				</g>
				<path d="M0 421.84 L391.18 421.84 L391.18 108.61 L0 108.61 L0 421.84 Z" class="st18"/>
			</g>
			<g id="shape290-404" transform="translate(355.039,-285.024)">
				<title>工作表.290</title>
				<path d="M0 421.84 L113.39 421.84" class="st28"/>
			</g>
			<g id="shape291-407" transform="translate(355.039,-72)">
				<title>工作表.291</title>
				<path d="M0 421.84 L113.39 421.84" class="st28"/>
			</g>
			<g id="shape292-410" transform="translate(785.385,136.818) rotate(90)">
				<title>工作表.292</title>
				<path d="M4.93 421.84 L5.29 421.84 L207.46 421.84" class="st33"/>
			</g>
			<g id="shape293-419" transform="translate(320.228,-158.169)">
				<title>工作表.293</title>
				<desc>allocate 1 page</desc>
				<rect x="0" y="392.357" width="51.2525" height="29.4843" class="st1"/>
				<text x="8.53" y="403.8" class="st2">allocate  <tspan x="11.12" dy="1.2em" class="st34">1 </tspan>page</text>			</g>
		</g>
	</g>
</svg>
