<?xml version="1.0" encoding="UTF-8" standalone="no"?>
<!DOCTYPE svg PUBLIC "-//W3C//DTD SVG 1.1//EN" "http://www.w3.org/Graphics/SVG/1.1/DTD/svg11.dtd">
<!-- 由 Microsoft Visio, SVG Export 生成 memblock_merge_II.svg 页-1 -->
<svg xmlns="http://www.w3.org/2000/svg" xmlns:xlink="http://www.w3.org/1999/xlink" xmlns:ev="http://www.w3.org/2001/xml-events"
		width="3.73548in" height="4.14887in" viewBox="0 0 268.955 298.719" xml:space="preserve" color-interpolation-filters="sRGB"
		class="st11">
	<style type="text/css">
	<![CDATA[
		.st1 {visibility:visible}
		.st2 {fill:none;filter:url(#filter_2);stroke:#5b9bd5;stroke-dasharray:1.75,1.25;stroke-opacity:0.22}
		.st3 {fill:none;stroke:#000000;stroke-dasharray:1.75,1.25;stroke-width:0.25}
		.st4 {fill:#5b9bd5;fill-opacity:0.25;filter:url(#filter_2);stroke:#5b9bd5;stroke-opacity:0.25}
		.st5 {fill:#7f7f7f;stroke:#000000;stroke-width:0.75}
		.st6 {fill:#5b9bd5;fill-opacity:0.22;filter:url(#filter_2);stroke:#5b9bd5;stroke-opacity:0.22}
		.st7 {fill:#f2f2f2;stroke:#000000;stroke-width:0.25}
		.st8 {fill:#000000;font-family:Times New Roman;font-size:0.916672em}
		.st9 {font-size:1em}
		.st10 {fill:#d8d8d8;stroke:#000000;stroke-width:0.25}
		.st11 {fill:none;fill-rule:evenodd;font-size:12px;overflow:visible;stroke-linecap:square;stroke-miterlimit:3}
	]]>
	</style>

	<defs id="Filters">
		<filter id="filter_2">
			<feGaussianBlur stdDeviation="2"/>
		</filter>
	</defs>
	<g>
		<title>页-1</title>
		<g id="group30-1" transform="translate(3.0294,-5.34779)">
			<title>工作表.30</title>
			<g id="group27-2" transform="translate(0,-202.677)">
				<title>工作表.27</title>
				<g id="shape6-3">
					<title>流程.9</title>
					<g id="shadow6-4" transform="matrix(1,0,0,1,0.345598,1.97279)" class="st1">
						<path d="M0 298.72 L262.2 298.72 L262.2 209.43 L0 209.43 L0 298.72 Z" class="st2"/>
					</g>
					<path d="M0 298.72 L262.2 298.72 L262.2 209.43 L0 209.43 L0 298.72 Z" class="st3"/>
				</g>
				<g id="group17-8" transform="translate(18.4252,-5.66929)">
					<title>工作表.17</title>
					<g id="shape4-9" transform="translate(126.666,557.752) rotate(180)">
						<title>普通箭头</title>
						<g id="shadow4-10" transform="matrix(1,0,0,1,-0.345598,-1.97279)" class="st1">
							<path d="M0 298.72 L9.87 293.62 L9.87 296.17 L24.62 296.17 L24.62 298.72 L24.62 301.27 L9.87 301.27 L9.87
										 303.82 L0 298.72 Z" class="st4"/>
						</g>
						<path d="M0 298.72 L9.87 293.62 L9.87 296.17 L24.62 296.17 L24.62 298.72 L24.62 301.27 L9.87 301.27 L9.87
									 303.82 L0 298.72 Z" class="st5"/>
					</g>
					<g id="shape5-14" transform="translate(150.236,-5.68434E-014)">
						<title>流程.6</title>
						<desc>regions[0]</desc>
						<g id="shadow5-15" transform="matrix(1,0,0,1,0.345598,1.97279)" class="st1">
							<rect x="0" y="222.183" width="75.1181" height="76.5354" class="st6"/>
						</g>
						<rect x="0" y="222.183" width="75.1181" height="76.5354" class="st7"/>
						<text x="14.95" y="263.75" class="st8">regions[0]</text>					</g>
					<g id="group16-20">
						<title>工作表.16</title>
						<g id="shape1-21" transform="translate(0,-51.0236)">
							<title>流程</title>
							<desc>regions[2] nid=0</desc>
							<g id="shadow1-22" transform="matrix(1,0,0,1,0.345598,1.97279)" class="st1">
								<rect x="0" y="273.207" width="75.1181" height="25.5118" class="st6"/>
							</g>
							<rect x="0" y="273.207" width="75.1181" height="25.5118" class="st7"/>
							<text x="14.95" y="282.66" class="st8">regions[2] <tspan x="24.68" dy="1.2em" class="st9">nid</tspan>=0</text>						</g>
						<g id="shape2-28" transform="translate(0,-25.5118)">
							<title>流程.2</title>
							<desc>regions[1] nid=0</desc>
							<g id="shadow2-29" transform="matrix(1,0,0,1,0.345598,1.97279)" class="st1">
								<rect x="0" y="273.207" width="75.1181" height="25.5118" class="st6"/>
							</g>
							<rect x="0" y="273.207" width="75.1181" height="25.5118" class="st7"/>
							<text x="14.95" y="282.66" class="st8">regions[1] <tspan x="24.68" dy="1.2em" class="st9">nid</tspan>=0</text>						</g>
						<g id="shape3-35">
							<title>流程.3</title>
							<desc>regions[0] nid=0</desc>
							<g id="shadow3-36" transform="matrix(1,0,0,1,0.345598,1.97279)" class="st1">
								<rect x="0" y="273.207" width="75.1181" height="25.5118" class="st6"/>
							</g>
							<rect x="0" y="273.207" width="75.1181" height="25.5118" class="st7"/>
							<text x="14.95" y="282.66" class="st8">regions[0] <tspan x="24.68" dy="1.2em" class="st9">nid</tspan>=0</text>						</g>
					</g>
				</g>
			</g>
			<g id="group28-42" transform="translate(0,-95.6693)">
				<title>工作表.28</title>
				<g id="group23-43" transform="translate(18.4252,-5.66929)">
					<title>工作表.23</title>
					<g id="shape12-44" transform="translate(126.666,554.917) rotate(180)">
						<title>普通箭头.12</title>
						<g id="shadow12-45" transform="matrix(1,0,0,1,-0.345598,-1.97279)" class="st1">
							<path d="M0 298.72 L9.87 293.62 L9.87 296.17 L24.62 296.17 L24.62 298.72 L24.62 301.27 L9.87 301.27 L9.87
										 303.82 L0 298.72 Z" class="st4"/>
						</g>
						<path d="M0 298.72 L9.87 293.62 L9.87 296.17 L24.62 296.17 L24.62 298.72 L24.62 301.27 L9.87 301.27 L9.87
									 303.82 L0 298.72 Z" class="st5"/>
					</g>
					<g id="group18-49">
						<title>工作表.18</title>
						<g id="shape7-50" transform="translate(0,-63.7795)">
							<title>流程.7</title>
							<desc>regions[2] nid=1</desc>
							<g id="shadow7-51" transform="matrix(1,0,0,1,0.345598,1.97279)" class="st1">
								<rect x="0" y="273.207" width="75.1181" height="25.5118" class="st6"/>
							</g>
							<rect x="0" y="273.207" width="75.1181" height="25.5118" class="st10"/>
							<text x="14.95" y="282.66" class="st8">regions[2] <tspan x="24.68" dy="1.2em" class="st9">nid</tspan>=1</text>						</g>
						<g id="shape8-57" transform="translate(0,-25.5118)">
							<title>流程.8</title>
							<desc>regions[1] nid=0</desc>
							<g id="shadow8-58" transform="matrix(1,0,0,1,0.345598,1.97279)" class="st1">
								<rect x="0" y="273.207" width="75.1181" height="25.5118" class="st6"/>
							</g>
							<rect x="0" y="273.207" width="75.1181" height="25.5118" class="st7"/>
							<text x="14.95" y="282.66" class="st8">regions[1] <tspan x="24.68" dy="1.2em" class="st9">nid</tspan>=0</text>						</g>
						<g id="shape9-64">
							<title>流程.9</title>
							<desc>regions[0] nid=0</desc>
							<g id="shadow9-65" transform="matrix(1,0,0,1,0.345598,1.97279)" class="st1">
								<rect x="0" y="273.207" width="75.1181" height="25.5118" class="st6"/>
							</g>
							<rect x="0" y="273.207" width="75.1181" height="25.5118" class="st7"/>
							<text x="14.95" y="282.66" class="st8">regions[0] <tspan x="24.68" dy="1.2em" class="st9">nid</tspan>=0</text>						</g>
					</g>
					<g id="shape10-71" transform="translate(150.236,-63.7795)">
						<title>流程.10</title>
						<desc>regions[1] nid=1</desc>
						<g id="shadow10-72" transform="matrix(1,0,0,1,0.345598,1.97279)" class="st1">
							<rect x="0" y="273.207" width="75.1181" height="25.5118" class="st6"/>
						</g>
						<rect x="0" y="273.207" width="75.1181" height="25.5118" class="st10"/>
						<text x="14.95" y="282.66" class="st8">regions[1] <tspan x="24.68" dy="1.2em" class="st9">nid</tspan>=1</text>					</g>
					<g id="shape11-78" transform="translate(150.236,0)">
						<title>Process.9</title>
						<desc>regions[0] nid=0</desc>
						<g id="shadow11-79" transform="matrix(1,0,0,1,0.345598,1.97279)" class="st1">
							<rect x="0" y="247.695" width="75.1181" height="51.0236" class="st6"/>
						</g>
						<rect x="0" y="247.695" width="75.1181" height="51.0236" class="st7"/>
						<text x="14.95" y="269.91" class="st8">regions[0] <tspan x="24.68" dy="1.2em" class="st9">nid</tspan>=0</text>					</g>
				</g>
				<g id="shape25-85">
					<title>流程.25</title>
					<g id="shadow25-86" transform="matrix(1,0,0,1,0.345598,1.97279)" class="st1">
						<path d="M0 298.72 L262.2 298.72 L262.2 198.09 L0 198.09 L0 298.72 Z" class="st2"/>
					</g>
					<path d="M0 298.72 L262.2 298.72 L262.2 198.09 L0 198.09 L0 298.72 Z" class="st3"/>
				</g>
			</g>
			<g id="group29-90">
				<title>工作表.29</title>
				<g id="group24-91" transform="translate(18.4252,-6.37795)">
					<title>工作表.24</title>
					<g id="shape13-92" transform="translate(0,-51.0236)">
						<title>流程.13</title>
						<desc>regions[2] nid=1</desc>
						<g id="shadow13-93" transform="matrix(1,0,0,1,0.345598,1.97279)" class="st1">
							<rect x="0" y="273.207" width="75.1181" height="25.5118" class="st6"/>
						</g>
						<rect x="0" y="273.207" width="75.1181" height="25.5118" class="st10"/>
						<text x="14.95" y="282.66" class="st8">regions[2] <tspan x="24.68" dy="1.2em" class="st9">nid</tspan>=1</text>					</g>
					<g id="shape14-99" transform="translate(0,-25.5118)">
						<title>流程.14</title>
						<desc>regions[1] nid=0</desc>
						<g id="shadow14-100" transform="matrix(1,0,0,1,0.345598,1.97279)" class="st1">
							<rect x="0" y="273.207" width="75.1181" height="25.5118" class="st6"/>
						</g>
						<rect x="0" y="273.207" width="75.1181" height="25.5118" class="st7"/>
						<text x="14.95" y="282.66" class="st8">regions[1] <tspan x="24.68" dy="1.2em" class="st9">nid</tspan>=0</text>					</g>
					<g id="shape15-106">
						<title>流程.15</title>
						<desc>regions[0] nid=0</desc>
						<g id="shadow15-107" transform="matrix(1,0,0,1,0.345598,1.97279)" class="st1">
							<rect x="0" y="273.207" width="75.1181" height="25.5118" class="st6"/>
						</g>
						<rect x="0" y="273.207" width="75.1181" height="25.5118" class="st7"/>
						<text x="14.95" y="282.66" class="st8">regions[0] <tspan x="24.68" dy="1.2em" class="st9">nid</tspan>=0</text>					</g>
					<g id="shape20-113" transform="translate(150.236,-51.0236)">
						<title>流程.20</title>
						<desc>regions[1] nid=1</desc>
						<g id="shadow20-114" transform="matrix(1,0,0,1,0.345598,1.97279)" class="st1">
							<rect x="0" y="273.207" width="75.1181" height="25.5118" class="st6"/>
						</g>
						<rect x="0" y="273.207" width="75.1181" height="25.5118" class="st10"/>
						<text x="14.95" y="282.66" class="st8">regions[1] <tspan x="24.68" dy="1.2em" class="st9">nid</tspan>=1</text>					</g>
					<g id="shape21-120" transform="translate(150.236,0)">
						<title>Process.21</title>
						<desc>regions[0] nid=0</desc>
						<g id="shadow21-121" transform="matrix(1,0,0,1,0.345598,1.97279)" class="st1">
							<rect x="0" y="247.695" width="75.1181" height="51.0236" class="st6"/>
						</g>
						<rect x="0" y="247.695" width="75.1181" height="51.0236" class="st7"/>
						<text x="14.95" y="269.91" class="st8">regions[0] <tspan x="24.68" dy="1.2em" class="st9">nid</tspan>=0</text>					</g>
					<g id="shape22-127" transform="translate(126.666,556.335) rotate(180)">
						<title>普通箭头.22</title>
						<g id="shadow22-128" transform="matrix(1,0,0,1,-0.345598,-1.97279)" class="st1">
							<path d="M0 298.72 L9.87 293.62 L9.87 296.17 L24.62 296.17 L24.62 298.72 L24.62 301.27 L9.87 301.27 L9.87
										 303.82 L0 298.72 Z" class="st4"/>
						</g>
						<path d="M0 298.72 L9.87 293.62 L9.87 296.17 L24.62 296.17 L24.62 298.72 L24.62 301.27 L9.87 301.27 L9.87
									 303.82 L0 298.72 Z" class="st5"/>
					</g>
				</g>
				<g id="shape26-132">
					<title>流程.26</title>
					<g id="shadow26-133" transform="matrix(1,0,0,1,0.345598,1.97279)" class="st1">
						<path d="M0 298.72 L262.2 298.72 L262.2 209.43 L0 209.43 L0 298.72 Z" class="st2"/>
					</g>
					<path d="M0 298.72 L262.2 298.72 L262.2 209.43 L0 209.43 L0 298.72 Z" class="st3"/>
				</g>
			</g>
		</g>
	</g>
</svg>
