<?xml version="1.0" encoding="UTF-8" standalone="no"?>
<!DOCTYPE svg PUBLIC "-//W3C//DTD SVG 1.1//EN" "http://www.w3.org/Graphics/SVG/1.1/DTD/svg11.dtd">
<!-- 由 Microsoft Visio, SVG Export 生成 VA_to_PA.svg 页-1 -->
<svg xmlns="http://www.w3.org/2000/svg" xmlns:xlink="http://www.w3.org/1999/xlink" xmlns:ev="http://www.w3.org/2001/xml-events"
		xmlns:v="http://schemas.microsoft.com/visio/2003/SVGExtensions/" width="6.28519in" height="3.71948in"
		viewBox="0 0 452.533 267.803" xml:space="preserve" color-interpolation-filters="sRGB" class="st21">
	<v:documentProperties v:langID="2052" v:metric="true" v:viewMarkup="false"/>

	<style type="text/css">
	<![CDATA[
		.st1 {visibility:visible}
		.st2 {fill:#5b9bd5;fill-opacity:0.22;filter:url(#filter_2);stroke:#5b9bd5;stroke-opacity:0.22}
		.st3 {fill:#f2f2f2;stroke:#000000;stroke-width:0.5}
		.st4 {fill:#000000;font-family:Times New Roman;font-size:0.833336em}
		.st5 {fill:#bfbfbf;stroke:#000000;stroke-width:0.5}
		.st6 {fill:#7f7f7f;stroke:#000000;stroke-width:0.5}
		.st7 {fill:#d8d8d8;stroke:#ed7d31;stroke-width:0.75}
		.st8 {fill:#7f7f7f;stroke:#ed7d31;stroke-width:0.75}
		.st9 {fill:#feffff;font-family:Times New Roman;font-size:0.833336em}
		.st10 {fill:#595959;stroke:#ed7d31;stroke-width:0.75}
		.st11 {fill:none;stroke:none;stroke-width:0.25}
		.st12 {fill:#000000;font-family:Times New Roman;font-size:0.666664em}
		.st13 {font-size:1em}
		.st14 {fill:#000000;font-family:宋体;font-size:0.75em}
		.st15 {fill:#000000;font-family:Times New Roman;font-size:0.499992em}
		.st16 {marker-end:url(#mrkr5-136);stroke:#000000;stroke-linecap:round;stroke-linejoin:round;stroke-width:0.5}
		.st17 {fill:#000000;fill-opacity:1;stroke:#000000;stroke-opacity:1;stroke-width:0.16556291390728}
		.st18 {fill:#bfbfbf;stroke:#ed7d31;stroke-width:0.75}
		.st19 {fill:#000000;font-family:宋体;font-size:0.666664em}
		.st20 {font-family:Times New Roman;font-size:1em}
		.st21 {fill:none;fill-rule:evenodd;font-size:12px;overflow:visible;stroke-linecap:square;stroke-miterlimit:3}
	]]>
	</style>

	<defs id="Markers">
		<g id="lend5">
			<path d="M 2 1 L 0 0 L 1.98117 -0.993387 C 1.67173 -0.364514 1.67301 0.372642 1.98465 1.00043 " style="stroke:none"/>
		</g>
		<marker id="mrkr5-136" class="st17" v:arrowType="5" v:arrowSize="2" v:setback="10.57" refX="-10.57" orient="auto"
				markerUnits="strokeWidth" overflow="visible">
			<use xlink:href="#lend5" transform="scale(-6.04,-6.04) "/>
		</marker>
	</defs>
	<defs id="Filters">
		<filter id="filter_2">
			<feGaussianBlur stdDeviation="2"/>
		</filter>
	</defs>
	<g v:mID="0" v:index="1" v:groupContext="foregroundPage">
		<title>页-1</title>
		<v:pageProperties v:drawingScale="0.0393701" v:pageScale="0.0393701" v:drawingUnits="24" v:shadowOffsetX="8.50394"
				v:shadowOffsetY="-8.50394"/>
		<v:layer v:name="连接线" v:index="0"/>
		<g id="group63-1" transform="translate(0.25,-5.3478)" v:mID="63" v:groupContext="group">
			<title>工作表.63</title>
			<g id="shape6-2" v:mID="6" v:groupContext="shape" transform="translate(3.54331,-99.2126)">
				<title>矩形.6</title>
				<desc>TTBRx</desc>
				<v:userDefs>
					<v:ud v:nameU="visVersion" v:val="VT0(15):26"/>
				</v:userDefs>
				<v:textBlock v:margins="rect(4,4,4,4)" v:tabSpace="42.5197"/>
				<v:textRect cx="31.8898" cy="260.716" width="63.78" height="14.1732"/>
				<g id="shadow6-3" v:groupContext="shadow" v:shadowOffsetX="0.345598" v:shadowOffsetY="-1.97279" v:shadowType="1"
						transform="matrix(1,0,0,1,0.345598,1.97279)" class="st1">
					<rect x="0" y="253.629" width="63.7795" height="14.1732" class="st2"/>
				</g>
				<rect x="0" y="253.629" width="63.7795" height="14.1732" class="st3"/>
				<text x="16.61" y="263.72" class="st4" v:langID="2052"><v:paragraph v:horizAlign="1"/><v:tabList/>TTBRx</text>			</g>
			<g id="shape7-8" v:mID="7" v:groupContext="shape" transform="translate(120.472,-63.7795)">
				<title>矩形.7</title>
				<v:userDefs>
					<v:ud v:nameU="visVersion" v:val="VT0(15):26"/>
				</v:userDefs>
				<g id="shadow7-9" v:groupContext="shadow" v:shadowOffsetX="0.345598" v:shadowOffsetY="-1.97279" v:shadowType="1"
						transform="matrix(1,0,0,1,0.345598,1.97279)" class="st1">
					<rect x="0" y="168.59" width="63.7795" height="99.2126" class="st2"/>
				</g>
				<rect x="0" y="168.59" width="63.7795" height="99.2126" class="st3"/>
			</g>
			<g id="shape11-13" v:mID="11" v:groupContext="shape" transform="translate(212.598,-63.7795)">
				<title>矩形.11</title>
				<v:userDefs>
					<v:ud v:nameU="visVersion" v:val="VT0(15):26"/>
				</v:userDefs>
				<g id="shadow11-14" v:groupContext="shadow" v:shadowOffsetX="0.345598" v:shadowOffsetY="-1.97279" v:shadowType="1"
						transform="matrix(1,0,0,1,0.345598,1.97279)" class="st1">
					<rect x="0" y="168.59" width="63.7795" height="99.2126" class="st2"/>
				</g>
				<rect x="0" y="168.59" width="63.7795" height="99.2126" class="st3"/>
			</g>
			<g id="shape15-18" v:mID="15" v:groupContext="shape" transform="translate(311.811,-63.7795)">
				<title>矩形.15</title>
				<v:userDefs>
					<v:ud v:nameU="visVersion" v:val="VT0(15):26"/>
				</v:userDefs>
				<g id="shadow15-19" v:groupContext="shadow" v:shadowOffsetX="0.345598" v:shadowOffsetY="-1.97279" v:shadowType="1"
						transform="matrix(1,0,0,1,0.345598,1.97279)" class="st1">
					<rect x="0" y="168.59" width="63.7795" height="99.2126" class="st2"/>
				</g>
				<rect x="0" y="168.59" width="63.7795" height="99.2126" class="st3"/>
			</g>
			<g id="group19-23" transform="translate(120.472,-106.299)" v:mID="19" v:groupContext="group">
				<title>工作表.19</title>
				<g id="shape8-24" v:mID="8" v:groupContext="shape">
					<title>矩形.8</title>
					<v:userDefs>
						<v:ud v:nameU="visVersion" v:val="VT0(15):26"/>
					</v:userDefs>
					<g id="shadow8-25" v:groupContext="shadow" v:shadowOffsetX="0.345598" v:shadowOffsetY="-1.97279"
							v:shadowType="1" transform="matrix(1,0,0,1,0.345598,1.97279)" class="st1">
						<rect x="0" y="260.716" width="7.08661" height="7.08661" class="st2"/>
					</g>
					<rect x="0" y="260.716" width="7.08661" height="7.08661" class="st5"/>
				</g>
				<g id="shape9-29" v:mID="9" v:groupContext="shape" transform="translate(56.6929,-1.13687E-013)">
					<title>矩形.9</title>
					<v:userDefs>
						<v:ud v:nameU="visVersion" v:val="VT0(15):26"/>
					</v:userDefs>
					<g id="shadow9-30" v:groupContext="shadow" v:shadowOffsetX="0.345598" v:shadowOffsetY="-1.97279"
							v:shadowType="1" transform="matrix(1,0,0,1,0.345598,1.97279)" class="st1">
						<rect x="0" y="260.716" width="7.08661" height="7.08661" class="st2"/>
					</g>
					<rect x="0" y="260.716" width="7.08661" height="7.08661" class="st5"/>
				</g>
				<g id="shape10-34" v:mID="10" v:groupContext="shape" transform="translate(7.08661,0)">
					<title>矩形.10</title>
					<v:userDefs>
						<v:ud v:nameU="visVersion" v:val="VT0(15):26"/>
					</v:userDefs>
					<g id="shadow10-35" v:groupContext="shadow" v:shadowOffsetX="0.345598" v:shadowOffsetY="-1.97279"
							v:shadowType="1" transform="matrix(1,0,0,1,0.345598,1.97279)" class="st1">
						<rect x="0" y="260.716" width="49.6063" height="7.08661" class="st2"/>
					</g>
					<rect x="0" y="260.716" width="49.6063" height="7.08661" class="st6"/>
				</g>
			</g>
			<g id="group20-39" transform="translate(212.598,-120.472)" v:mID="20" v:groupContext="group">
				<title>工作表.20</title>
				<g id="shape12-40" v:mID="12" v:groupContext="shape">
					<title>矩形.12</title>
					<v:userDefs>
						<v:ud v:nameU="visVersion" v:val="VT0(15):26"/>
					</v:userDefs>
					<g id="shadow12-41" v:groupContext="shadow" v:shadowOffsetX="0.345598" v:shadowOffsetY="-1.97279"
							v:shadowType="1" transform="matrix(1,0,0,1,0.345598,1.97279)" class="st1">
						<rect x="0" y="260.716" width="21.2598" height="7.08661" class="st2"/>
					</g>
					<rect x="0" y="260.716" width="21.2598" height="7.08661" class="st5"/>
				</g>
				<g id="shape13-45" v:mID="13" v:groupContext="shape" transform="translate(56.6929,-1.13687E-013)">
					<title>矩形.13</title>
					<v:userDefs>
						<v:ud v:nameU="visVersion" v:val="VT0(15):26"/>
					</v:userDefs>
					<g id="shadow13-46" v:groupContext="shadow" v:shadowOffsetX="0.345598" v:shadowOffsetY="-1.97279"
							v:shadowType="1" transform="matrix(1,0,0,1,0.345598,1.97279)" class="st1">
						<rect x="0" y="260.716" width="7.08661" height="7.08661" class="st2"/>
					</g>
					<rect x="0" y="260.716" width="7.08661" height="7.08661" class="st5"/>
				</g>
				<g id="shape14-50" v:mID="14" v:groupContext="shape" transform="translate(21.2598,0)">
					<title>矩形.14</title>
					<v:userDefs>
						<v:ud v:nameU="visVersion" v:val="VT0(15):26"/>
					</v:userDefs>
					<g id="shadow14-51" v:groupContext="shadow" v:shadowOffsetX="0.345598" v:shadowOffsetY="-1.97279"
							v:shadowType="1" transform="matrix(1,0,0,1,0.345598,1.97279)" class="st1">
						<rect x="0" y="260.716" width="35.4331" height="7.08661" class="st2"/>
					</g>
					<rect x="0" y="260.716" width="35.4331" height="7.08661" class="st6"/>
				</g>
			</g>
			<g id="group21-55" transform="translate(311.811,-85.0394)" v:mID="21" v:groupContext="group">
				<title>工作表.21</title>
				<g id="shape16-56" v:mID="16" v:groupContext="shape">
					<title>矩形.16</title>
					<v:userDefs>
						<v:ud v:nameU="visVersion" v:val="VT0(15):26"/>
					</v:userDefs>
					<g id="shadow16-57" v:groupContext="shadow" v:shadowOffsetX="0.345598" v:shadowOffsetY="-1.97279"
							v:shadowType="1" transform="matrix(1,0,0,1,0.345598,1.97279)" class="st1">
						<rect x="0" y="260.716" width="21.2598" height="7.08661" class="st2"/>
					</g>
					<rect x="0" y="260.716" width="21.2598" height="7.08661" class="st5"/>
				</g>
				<g id="shape17-61" v:mID="17" v:groupContext="shape" transform="translate(56.6929,-1.13687E-013)">
					<title>矩形.17</title>
					<v:userDefs>
						<v:ud v:nameU="visVersion" v:val="VT0(15):26"/>
					</v:userDefs>
					<g id="shadow17-62" v:groupContext="shadow" v:shadowOffsetX="0.345598" v:shadowOffsetY="-1.97279"
							v:shadowType="1" transform="matrix(1,0,0,1,0.345598,1.97279)" class="st1">
						<rect x="0" y="260.716" width="7.08661" height="7.08661" class="st2"/>
					</g>
					<rect x="0" y="260.716" width="7.08661" height="7.08661" class="st5"/>
				</g>
				<g id="shape18-66" v:mID="18" v:groupContext="shape" transform="translate(21.2598,0)">
					<title>矩形.18</title>
					<v:userDefs>
						<v:ud v:nameU="visVersion" v:val="VT0(15):26"/>
					</v:userDefs>
					<g id="shadow18-67" v:groupContext="shadow" v:shadowOffsetX="0.345598" v:shadowOffsetY="-1.97279"
							v:shadowType="1" transform="matrix(1,0,0,1,0.345598,1.97279)" class="st1">
						<rect x="0" y="260.716" width="35.4331" height="7.08661" class="st2"/>
					</g>
					<rect x="0" y="260.716" width="35.4331" height="7.08661" class="st6"/>
				</g>
			</g>
			<g id="shape22-71" v:mID="22" v:groupContext="shape" transform="translate(28.3465,0)">
				<title>矩形.22</title>
				<v:userDefs>
					<v:ud v:nameU="visVersion" v:val="VT0(15):26"/>
				</v:userDefs>
				<g id="shadow22-72" v:groupContext="shadow" v:shadowOffsetX="0.345598" v:shadowOffsetY="-1.97279" v:shadowType="1"
						transform="matrix(1,0,0,1,0.345598,1.97279)" class="st1">
					<rect x="0" y="253.629" width="99.2126" height="14.1732" class="st2"/>
				</g>
				<rect x="0" y="253.629" width="99.2126" height="14.1732" class="st7"/>
			</g>
			<g id="shape23-76" v:mID="23" v:groupContext="shape" transform="translate(127.559,0)">
				<title>矩形.23</title>
				<desc>physical address[47:12]</desc>
				<v:userDefs>
					<v:ud v:nameU="visVersion" v:val="VT0(15):26"/>
				</v:userDefs>
				<v:textBlock v:margins="rect(4,4,4,4)" v:tabSpace="42.5197"/>
				<v:textRect cx="120.472" cy="260.716" width="240.95" height="14.1732"/>
				<g id="shadow23-77" v:groupContext="shadow" v:shadowOffsetX="0.345598" v:shadowOffsetY="-1.97279" v:shadowType="1"
						transform="matrix(1,0,0,1,0.345598,1.97279)" class="st1">
					<rect x="0" y="253.629" width="240.945" height="14.1732" class="st2"/>
				</g>
				<rect x="0" y="253.629" width="240.945" height="14.1732" class="st8"/>
				<text x="72.84" y="263.72" class="st9" v:langID="2052"><v:paragraph v:horizAlign="1"/><v:tabList/>physical address[47:12]</text>			</g>
			<g id="shape24-82" v:mID="24" v:groupContext="shape" transform="translate(368.504,0)">
				<title>矩形.24</title>
				<desc>offset[11:0]</desc>
				<v:userDefs>
					<v:ud v:nameU="visVersion" v:val="VT0(15):26"/>
				</v:userDefs>
				<v:textBlock v:margins="rect(4,4,4,4)" v:tabSpace="42.5197"/>
				<v:textRect cx="38.9764" cy="260.716" width="77.96" height="14.1732"/>
				<g id="shadow24-83" v:groupContext="shadow" v:shadowOffsetX="0.345598" v:shadowOffsetY="-1.97279" v:shadowType="1"
						transform="matrix(1,0,0,1,0.345598,1.97279)" class="st1">
					<rect x="0" y="253.629" width="77.9528" height="14.1732" class="st2"/>
				</g>
				<rect x="0" y="253.629" width="77.9528" height="14.1732" class="st10"/>
				<text x="15.37" y="263.72" class="st9" v:langID="2052"><v:paragraph v:horizAlign="1"/><v:tabList/>offset[11:0]</text>			</g>
			<g id="shape25-88" v:mID="25" v:groupContext="shape" transform="translate(5.31496,-77.9528)">
				<title>工作表.25</title>
				<desc>Page Table Base Address</desc>
				<v:textBlock v:margins="rect(4,4,4,4)" v:tabSpace="42.5197"/>
				<v:textRect cx="30.1181" cy="257.173" width="60.24" height="21.2598"/>
				<rect x="0" y="246.543" width="60.2362" height="21.2598" class="st11"/>
				<text x="12.24" y="254.77" class="st12" v:langID="2052"><v:paragraph v:horizAlign="1"/><v:tabList/>Page Table <tspan
							x="8.23" dy="1.2em" class="st13">Base Address</tspan></text>			</g>
			<g id="shape26-92" v:mID="26" v:groupContext="shape" transform="translate(120.472,-49.6063)">
				<title>工作表.26</title>
				<desc>L1 Page Table</desc>
				<v:textBlock v:margins="rect(4,4,4,4)" v:tabSpace="42.5197"/>
				<v:textRect cx="31.8898" cy="260.716" width="63.78" height="14.1732"/>
				<rect x="0" y="253.629" width="63.7795" height="14.1732" class="st11"/>
				<text x="8.57" y="263.12" class="st12" v:langID="2052"><v:paragraph v:horizAlign="1"/><v:tabList/>L1 Page Table</text>			</g>
			<g id="shape27-95" v:mID="27" v:groupContext="shape" transform="translate(212.598,-49.6063)">
				<title>工作表.27</title>
				<desc>L2 Page Table</desc>
				<v:textBlock v:margins="rect(4,4,4,4)" v:tabSpace="42.5197"/>
				<v:textRect cx="31.8898" cy="260.716" width="63.78" height="14.1732"/>
				<rect x="0" y="253.629" width="63.7795" height="14.1732" class="st11"/>
				<text x="8.57" y="263.12" class="st12" v:langID="2052"><v:paragraph v:horizAlign="1"/><v:tabList/>L2 Page Table</text>			</g>
			<g id="shape28-98" v:mID="28" v:groupContext="shape" transform="translate(311.811,-49.6063)">
				<title>工作表.28</title>
				<desc>L3 Page Table</desc>
				<v:textBlock v:margins="rect(4,4,4,4)" v:tabSpace="42.5197"/>
				<v:textRect cx="31.8898" cy="260.716" width="63.78" height="14.1732"/>
				<rect x="0" y="253.629" width="63.7795" height="14.1732" class="st11"/>
				<text x="8.57" y="263.12" class="st12" v:langID="2052"><v:paragraph v:horizAlign="1"/><v:tabList/>L3 Page Table</text>			</g>
			<g id="shape29-101" v:mID="29" v:groupContext="shape" transform="translate(181.417,-248.031)">
				<title>工作表.29</title>
				<desc>处理器请求的虚拟地址</desc>
				<v:textBlock v:margins="rect(4,4,4,4)" v:tabSpace="42.5197"/>
				<v:textRect cx="53.1496" cy="260.716" width="106.3" height="14.1732"/>
				<rect x="0" y="253.629" width="106.299" height="14.1732" class="st11"/>
				<text x="8.15" y="263.42" class="st14" v:langID="2052"><v:paragraph v:horizAlign="1"/><v:tabList/>处理器请求的虚拟地址</text>			</g>
			<g id="shape41-104" v:mID="41" v:groupContext="shape" transform="translate(368.504,-162.992)">
				<title>工作表.41</title>
				<desc>0</desc>
				<v:textBlock v:margins="rect(4,4,4,4)" v:tabSpace="42.5197"/>
				<v:textRect cx="7.08661" cy="264.259" width="14.18" height="7.08661"/>
				<rect x="0" y="260.716" width="14.1732" height="7.08661" class="st11"/>
				<text x="5.59" y="266.06" class="st15" v:langID="2052"><v:paragraph v:horizAlign="1"/><v:tabList/>0</text>			</g>
			<g id="shape42-107" v:mID="42" v:groupContext="shape" transform="translate(304.724,-162.992)">
				<title>工作表.42</title>
				<desc>63</desc>
				<v:textBlock v:margins="rect(4,4,4,4)" v:tabSpace="42.5197"/>
				<v:textRect cx="7.08661" cy="264.259" width="14.18" height="7.08661"/>
				<rect x="0" y="260.716" width="14.1732" height="7.08661" class="st11"/>
				<text x="4.09" y="266.06" class="st15" v:langID="2052"><v:paragraph v:horizAlign="1"/><v:tabList/>63</text>			</g>
			<g id="shape43-110" v:mID="43" v:groupContext="shape" transform="translate(205.512,-162.992)">
				<title>工作表.43</title>
				<desc>63</desc>
				<v:textBlock v:margins="rect(4,4,4,4)" v:tabSpace="42.5197"/>
				<v:textRect cx="7.08661" cy="264.259" width="14.18" height="7.08661"/>
				<rect x="0" y="260.716" width="14.1732" height="7.08661" class="st11"/>
				<text x="4.09" y="266.06" class="st15" v:langID="2052"><v:paragraph v:horizAlign="1"/><v:tabList/>63</text>			</g>
			<g id="shape44-113" v:mID="44" v:groupContext="shape" transform="translate(113.386,-162.992)">
				<title>工作表.44</title>
				<desc>63</desc>
				<v:textBlock v:margins="rect(4,4,4,4)" v:tabSpace="42.5197"/>
				<v:textRect cx="7.08661" cy="264.259" width="14.18" height="7.08661"/>
				<rect x="0" y="260.716" width="14.1732" height="7.08661" class="st11"/>
				<text x="4.09" y="266.06" class="st15" v:langID="2052"><v:paragraph v:horizAlign="1"/><v:tabList/>63</text>			</g>
			<g id="shape45-116" v:mID="45" v:groupContext="shape" transform="translate(177.165,-162.992)">
				<title>工作表.45</title>
				<desc>0</desc>
				<v:textBlock v:margins="rect(4,4,4,4)" v:tabSpace="42.5197"/>
				<v:textRect cx="7.08661" cy="264.259" width="14.18" height="7.08661"/>
				<rect x="0" y="260.716" width="14.1732" height="7.08661" class="st11"/>
				<text x="5.59" y="266.06" class="st15" v:langID="2052"><v:paragraph v:horizAlign="1"/><v:tabList/>0</text>			</g>
			<g id="shape46-119" v:mID="46" v:groupContext="shape" transform="translate(269.291,-162.992)">
				<title>工作表.46</title>
				<desc>0</desc>
				<v:textBlock v:margins="rect(4,4,4,4)" v:tabSpace="42.5197"/>
				<v:textRect cx="7.08661" cy="264.259" width="14.18" height="7.08661"/>
				<rect x="0" y="260.716" width="14.1732" height="7.08661" class="st11"/>
				<text x="5.59" y="266.06" class="st15" v:langID="2052"><v:paragraph v:horizAlign="1"/><v:tabList/>0</text>			</g>
			<g id="shape47-122" v:mID="47" v:groupContext="shape" transform="translate(141.732,-21.2598)">
				<title>工作表.47</title>
				<desc>physical address of page table entry</desc>
				<v:textBlock v:margins="rect(4,4,4,4)" v:tabSpace="42.5197"/>
				<v:textRect cx="62.0079" cy="260.716" width="124.02" height="14.1732"/>
				<rect x="0" y="253.629" width="124.016" height="14.1732" class="st11"/>
				<text x="4.81" y="263.12" class="st12" v:langID="2052"><v:paragraph v:horizAlign="1"/><v:tabList/>physical address of page table entry</text>			</g>
			<g id="shape48-125" v:mID="48" v:groupContext="shape" transform="translate(4.996E-014,-205.512)">
				<title>工作表.48</title>
				<desc>VA</desc>
				<v:textBlock v:margins="rect(4,4,4,4)" v:tabSpace="42.5197"/>
				<v:textRect cx="10.6299" cy="260.716" width="21.26" height="14.1732"/>
				<rect x="0" y="253.629" width="21.2598" height="14.1732" class="st11"/>
				<text x="4.85" y="263.12" class="st12" v:langID="2052"><v:paragraph v:horizAlign="1"/><v:tabList/>VA</text>			</g>
			<g id="shape49-128" v:mID="49" v:groupContext="shape">
				<title>工作表.49</title>
				<desc>PA</desc>
				<v:textBlock v:margins="rect(4,4,4,4)" v:tabSpace="42.5197"/>
				<v:textRect cx="10.6299" cy="260.716" width="21.26" height="14.1732"/>
				<rect x="0" y="253.629" width="21.2598" height="14.1732" class="st11"/>
				<text x="5.52" y="263.12" class="st12" v:langID="2052"><v:paragraph v:horizAlign="1"/><v:tabList/>PA</text>			</g>
			<g id="shape50-131" v:mID="50" v:groupContext="shape" v:layerMember="0"
					transform="translate(-232.369,62.2907) rotate(-90) scale(-1,1)">
				<title>直线连接线</title>
				<v:userDefs>
					<v:ud v:nameU="visVersion" v:val="VT0(15):26"/>
				</v:userDefs>
				<path d="M0 267.8 L86.84 267.8" class="st16"/>
			</g>
			<g id="shape51-137" v:mID="51" v:groupContext="shape" v:layerMember="0" transform="translate(166.535,-205.512)">
				<title>底部到侧边 1</title>
				<v:userDefs>
					<v:ud v:nameU="TextPos" v:val="VT0(2):26"/>
					<v:ud v:nameU="Scale" v:val="VT0(1):26"/>
					<v:ud v:nameU="AntiScale" v:val="VT0(1):26"/>
					<v:ud v:nameU="visVersion" v:val="VT0(15):26"/>
				</v:userDefs>
				<path d="M0 267.8 L0 274.89 A7.08661 7.08661 0 0 1 -7.09 281.98 L-51.73 281.98 A8.50394 8.50394 -180 0 0 -60.24 290.48
							 L-60.24 356.39 A7.08661 7.08661 -180 0 0 -53.15 363.47 L-51.35 363.47" class="st16"/>
			</g>
			<g id="shape52-142" v:mID="52" v:groupContext="shape" v:layerMember="0" transform="translate(244.488,-205.512)">
				<title>底部到侧边 1.52</title>
				<v:userDefs>
					<v:ud v:nameU="TextPos" v:val="VT0(2):26"/>
					<v:ud v:nameU="Scale" v:val="VT0(1):26"/>
					<v:ud v:nameU="AntiScale" v:val="VT0(1):26"/>
					<v:ud v:nameU="visVersion" v:val="VT0(15):26"/>
				</v:userDefs>
				<path d="M0 267.8 L0 274.89 A7.08661 7.08661 0 0 1 -7.09 281.98 L-34.72 281.98 A11.3386 11.3386 -180 0 0 -46.06 293.31
							 L-46.06 342.21 A7.08661 7.08661 -180 0 0 -38.98 349.3 L-37.17 349.3" class="st16"/>
			</g>
			<g id="shape53-147" v:mID="53" v:groupContext="shape" v:layerMember="0" transform="translate(322.441,-205.512)">
				<title>底部到侧边 1.53</title>
				<v:userDefs>
					<v:ud v:nameU="TextPos" v:val="VT0(2):26"/>
					<v:ud v:nameU="Scale" v:val="VT0(1):26"/>
					<v:ud v:nameU="AntiScale" v:val="VT0(1):26"/>
					<v:ud v:nameU="visVersion" v:val="VT0(15):26"/>
				</v:userDefs>
				<path d="M0 267.8 L0 274.89 A7.08661 7.08661 0 0 1 -7.09 281.98 L-16.3 281.98 A8.50394 8.50394 -180 0 0 -24.8 290.48
							 L-24.8 377.65 A7.08661 7.08661 -180 0 0 -17.72 384.73 L-15.91 384.73" class="st16"/>
			</g>
			<g id="shape54-152" v:mID="54" v:groupContext="shape" v:layerMember="0"
					transform="translate(164.481,62.2907) rotate(-90) scale(-1,1)">
				<title>直线连接线.54</title>
				<v:userDefs>
					<v:ud v:nameU="visVersion" v:val="VT0(15):26"/>
				</v:userDefs>
				<path d="M0 267.8 L186.18 267.8" class="st16"/>
			</g>
			<g id="shape55-157" v:mID="55" v:groupContext="shape" v:layerMember="0"
					transform="translate(199.692,-62.6058) rotate(32.6335)">
				<title>直线连接线.55</title>
				<v:userDefs>
					<v:ud v:nameU="visVersion" v:val="VT0(15):26"/>
				</v:userDefs>
				<path d="M0 267.8 L71.46 267.8" class="st16"/>
			</g>
			<g id="shape56-162" v:mID="56" v:groupContext="shape" v:layerMember="0"
					transform="translate(308.459,-56.1018) rotate(35.6534)">
				<title>直线连接线.56</title>
				<v:userDefs>
					<v:ud v:nameU="visVersion" v:val="VT0(15):26"/>
				</v:userDefs>
				<path d="M0 267.8 L68.15 267.8" class="st16"/>
			</g>
			<g id="shape57-167" v:mID="57" v:groupContext="shape" v:layerMember="0"
					transform="translate(436.519,-46.355) rotate(43.6775)">
				<title>直线连接线.57</title>
				<v:userDefs>
					<v:ud v:nameU="visVersion" v:val="VT0(15):26"/>
				</v:userDefs>
				<path d="M0 267.8 L77.22 267.8" class="st16"/>
			</g>
			<g id="shape58-172" v:mID="58" v:groupContext="shape" v:layerMember="0"
					transform="translate(198.747,-37.6953) rotate(-34.5923) scale(-1,1)">
				<title>直线连接线.58</title>
				<v:userDefs>
					<v:ud v:nameU="visVersion" v:val="VT0(15):26"/>
				</v:userDefs>
				<path d="M0 267.8 L119.54 267.8" class="st16"/>
			</g>
			<g id="group60-177" transform="translate(24.0945,-205.512)" v:mID="60" v:groupContext="group">
				<title>工作表.60</title>
				<g id="shape1-178" v:mID="1" v:groupContext="shape" transform="translate(4.25197,0)">
					<title>矩形</title>
					<desc>TTBR selector</desc>
					<v:userDefs>
						<v:ud v:nameU="visVersion" v:val="VT0(15):26"/>
					</v:userDefs>
					<v:textBlock v:margins="rect(4,4,4,4)" v:tabSpace="42.5197"/>
					<v:textRect cx="49.6063" cy="260.716" width="99.22" height="14.1732"/>
					<g id="shadow1-179" v:groupContext="shadow" v:shadowOffsetX="0.345598" v:shadowOffsetY="-1.97279"
							v:shadowType="1" transform="matrix(1,0,0,1,0.345598,1.97279)" class="st1">
						<rect x="0" y="253.629" width="99.2126" height="14.1732" class="st2"/>
					</g>
					<rect x="0" y="253.629" width="99.2126" height="14.1732" class="st18"/>
					<text x="20.03" y="263.72" class="st4" v:langID="2052"><v:paragraph v:horizAlign="1"/><v:tabList/>TTBR selector</text>				</g>
				<g id="shape2-184" v:mID="2" v:groupContext="shape" transform="translate(103.465,0)">
					<title>矩形.2</title>
					<desc>L1 index</desc>
					<v:userDefs>
						<v:ud v:nameU="visVersion" v:val="VT0(15):26"/>
					</v:userDefs>
					<v:textBlock v:margins="rect(4,4,4,4)" v:tabSpace="42.5197"/>
					<v:textRect cx="38.9764" cy="260.716" width="77.96" height="14.1732"/>
					<g id="shadow2-185" v:groupContext="shadow" v:shadowOffsetX="0.345598" v:shadowOffsetY="-1.97279"
							v:shadowType="1" transform="matrix(1,0,0,1,0.345598,1.97279)" class="st1">
						<rect x="0" y="253.629" width="77.9528" height="14.1732" class="st2"/>
					</g>
					<rect x="0" y="253.629" width="77.9528" height="14.1732" class="st8"/>
					<text x="21.06" y="263.72" class="st9" v:langID="2052"><v:paragraph v:horizAlign="1"/><v:tabList/>L1 index</text>				</g>
				<g id="shape3-190" v:mID="3" v:groupContext="shape" transform="translate(181.417,0)">
					<title>矩形.3</title>
					<desc>L2 index</desc>
					<v:userDefs>
						<v:ud v:nameU="visVersion" v:val="VT0(15):26"/>
					</v:userDefs>
					<v:textBlock v:margins="rect(4,4,4,4)" v:tabSpace="42.5197"/>
					<v:textRect cx="38.9764" cy="260.716" width="77.96" height="14.1732"/>
					<g id="shadow3-191" v:groupContext="shadow" v:shadowOffsetX="0.345598" v:shadowOffsetY="-1.97279"
							v:shadowType="1" transform="matrix(1,0,0,1,0.345598,1.97279)" class="st1">
						<rect x="0" y="253.629" width="77.9528" height="14.1732" class="st2"/>
					</g>
					<rect x="0" y="253.629" width="77.9528" height="14.1732" class="st8"/>
					<text x="21.06" y="263.72" class="st9" v:langID="2052"><v:paragraph v:horizAlign="1"/><v:tabList/>L2 index</text>				</g>
				<g id="shape4-196" v:mID="4" v:groupContext="shape" transform="translate(259.37,0)">
					<title>矩形.4</title>
					<desc>L3 index</desc>
					<v:userDefs>
						<v:ud v:nameU="visVersion" v:val="VT0(15):26"/>
					</v:userDefs>
					<v:textBlock v:margins="rect(4,4,4,4)" v:tabSpace="42.5197"/>
					<v:textRect cx="38.9764" cy="260.716" width="77.96" height="14.1732"/>
					<g id="shadow4-197" v:groupContext="shadow" v:shadowOffsetX="0.345598" v:shadowOffsetY="-1.97279"
							v:shadowType="1" transform="matrix(1,0,0,1,0.345598,1.97279)" class="st1">
						<rect x="0" y="253.629" width="77.9528" height="14.1732" class="st2"/>
					</g>
					<rect x="0" y="253.629" width="77.9528" height="14.1732" class="st8"/>
					<text x="21.06" y="263.72" class="st9" v:langID="2052"><v:paragraph v:horizAlign="1"/><v:tabList/>L3 index</text>				</g>
				<g id="shape5-202" v:mID="5" v:groupContext="shape" transform="translate(337.323,0)">
					<title>矩形.5</title>
					<desc>offset[11:0]</desc>
					<v:userDefs>
						<v:ud v:nameU="visVersion" v:val="VT0(15):26"/>
					</v:userDefs>
					<v:textBlock v:margins="rect(4,4,4,4)" v:tabSpace="42.5197"/>
					<v:textRect cx="38.9764" cy="260.716" width="77.96" height="14.1732"/>
					<g id="shadow5-203" v:groupContext="shadow" v:shadowOffsetX="0.345598" v:shadowOffsetY="-1.97279"
							v:shadowType="1" transform="matrix(1,0,0,1,0.345598,1.97279)" class="st1">
						<rect x="0" y="253.629" width="77.9528" height="14.1732" class="st2"/>
					</g>
					<rect x="0" y="253.629" width="77.9528" height="14.1732" class="st10"/>
					<text x="15.37" y="263.72" class="st9" v:langID="2052"><v:paragraph v:horizAlign="1"/><v:tabList/>offset[11:0]</text>				</g>
				<g id="shape31-208" v:mID="31" v:groupContext="shape" transform="translate(406.772,-14.1732)">
					<title>工作表.31</title>
					<desc>0</desc>
					<v:textBlock v:margins="rect(4,4,4,4)" v:tabSpace="42.5197"/>
					<v:textRect cx="7.08661" cy="264.259" width="14.18" height="7.08661"/>
					<rect x="0" y="260.716" width="14.1732" height="7.08661" class="st11"/>
					<text x="5.59" y="266.06" class="st15" v:langID="2052"><v:paragraph v:horizAlign="1"/><v:tabList/>0</text>				</g>
				<g id="shape32-211" v:mID="32" v:groupContext="shape" transform="translate(334.488,-14.1732)">
					<title>工作表.32</title>
					<desc>11</desc>
					<v:textBlock v:margins="rect(4,4,4,4)" v:tabSpace="42.5197"/>
					<v:textRect cx="7.08661" cy="264.259" width="14.18" height="7.08661"/>
					<rect x="0" y="260.716" width="14.1732" height="7.08661" class="st11"/>
					<text x="4.09" y="266.06" class="st15" v:langID="2052"><v:paragraph v:horizAlign="1"/><v:tabList/>11</text>				</g>
				<g id="shape33-214" v:mID="33" v:groupContext="shape" transform="translate(325.984,-14.1732)">
					<title>工作表.33</title>
					<desc>12</desc>
					<v:textBlock v:margins="rect(4,4,4,4)" v:tabSpace="42.5197"/>
					<v:textRect cx="7.08661" cy="264.259" width="14.18" height="7.08661"/>
					<rect x="0" y="260.716" width="14.1732" height="7.08661" class="st11"/>
					<text x="4.09" y="266.06" class="st15" v:langID="2052"><v:paragraph v:horizAlign="1"/><v:tabList/>12</text>				</g>
				<g id="shape34-217" v:mID="34" v:groupContext="shape" transform="translate(256.535,-14.1732)">
					<title>工作表.34</title>
					<desc>20</desc>
					<v:textBlock v:margins="rect(4,4,4,4)" v:tabSpace="42.5197"/>
					<v:textRect cx="7.08661" cy="264.259" width="14.18" height="7.08661"/>
					<rect x="0" y="260.716" width="14.1732" height="7.08661" class="st11"/>
					<text x="4.09" y="266.06" class="st15" v:langID="2052"><v:paragraph v:horizAlign="1"/><v:tabList/>20</text>				</g>
				<g id="shape35-220" v:mID="35" v:groupContext="shape" transform="translate(248.031,-14.1732)">
					<title>工作表.35</title>
					<desc>21</desc>
					<v:textBlock v:margins="rect(4,4,4,4)" v:tabSpace="42.5197"/>
					<v:textRect cx="7.08661" cy="264.259" width="14.18" height="7.08661"/>
					<rect x="0" y="260.716" width="14.1732" height="7.08661" class="st11"/>
					<text x="4.09" y="266.06" class="st15" v:langID="2052"><v:paragraph v:horizAlign="1"/><v:tabList/>21</text>				</g>
				<g id="shape36-223" v:mID="36" v:groupContext="shape" transform="translate(178.583,-14.1732)">
					<title>工作表.36</title>
					<desc>29</desc>
					<v:textBlock v:margins="rect(4,4,4,4)" v:tabSpace="42.5197"/>
					<v:textRect cx="7.08661" cy="264.259" width="14.18" height="7.08661"/>
					<rect x="0" y="260.716" width="14.1732" height="7.08661" class="st11"/>
					<text x="4.09" y="266.06" class="st15" v:langID="2052"><v:paragraph v:horizAlign="1"/><v:tabList/>29</text>				</g>
				<g id="shape37-226" v:mID="37" v:groupContext="shape" transform="translate(170.079,-14.1732)">
					<title>工作表.37</title>
					<desc>30</desc>
					<v:textBlock v:margins="rect(4,4,4,4)" v:tabSpace="42.5197"/>
					<v:textRect cx="7.08661" cy="264.259" width="14.18" height="7.08661"/>
					<rect x="0" y="260.716" width="14.1732" height="7.08661" class="st11"/>
					<text x="4.09" y="266.06" class="st15" v:langID="2052"><v:paragraph v:horizAlign="1"/><v:tabList/>30</text>				</g>
				<g id="shape38-229" v:mID="38" v:groupContext="shape" transform="translate(100.63,-14.1732)">
					<title>工作表.38</title>
					<desc>38</desc>
					<v:textBlock v:margins="rect(4,4,4,4)" v:tabSpace="42.5197"/>
					<v:textRect cx="7.08661" cy="264.259" width="14.18" height="7.08661"/>
					<rect x="0" y="260.716" width="14.1732" height="7.08661" class="st11"/>
					<text x="4.09" y="266.06" class="st15" v:langID="2052"><v:paragraph v:horizAlign="1"/><v:tabList/>38</text>				</g>
				<g id="shape39-232" v:mID="39" v:groupContext="shape" transform="translate(92.126,-14.1732)">
					<title>工作表.39</title>
					<desc>39</desc>
					<v:textBlock v:margins="rect(4,4,4,4)" v:tabSpace="42.5197"/>
					<v:textRect cx="7.08661" cy="264.259" width="14.18" height="7.08661"/>
					<rect x="0" y="260.716" width="14.1732" height="7.08661" class="st11"/>
					<text x="4.09" y="266.06" class="st15" v:langID="2052"><v:paragraph v:horizAlign="1"/><v:tabList/>39</text>				</g>
				<g id="shape40-235" v:mID="40" v:groupContext="shape" transform="translate(0,-14.1732)">
					<title>工作表.40</title>
					<desc>63</desc>
					<v:textBlock v:margins="rect(4,4,4,4)" v:tabSpace="42.5197"/>
					<v:textRect cx="7.08661" cy="264.259" width="14.18" height="7.08661"/>
					<rect x="0" y="260.716" width="14.1732" height="7.08661" class="st11"/>
					<text x="4.09" y="266.06" class="st15" v:langID="2052"><v:paragraph v:horizAlign="1"/><v:tabList/>63</text>				</g>
			</g>
			<g id="shape61-238" v:mID="61" v:groupContext="shape" v:layerMember="0"
					transform="translate(-33.2356,19.771) rotate(-90) scale(-1,1)">
				<title>直线连接线.61</title>
				<v:userDefs>
					<v:ud v:nameU="visVersion" v:val="VT0(15):26"/>
				</v:userDefs>
				<path d="M0 267.8 L15.97 267.8" class="st16"/>
			</g>
			<g id="shape62-243" v:mID="62" v:groupContext="shape" transform="translate(333.071,-21.2598)">
				<title>工作表.62</title>
				<desc>直接使用虚拟地址的offset</desc>
				<v:textBlock v:margins="rect(4,4,4,4)" v:tabSpace="42.5197"/>
				<v:textRect cx="49.6063" cy="260.716" width="99.22" height="14.1732"/>
				<rect x="0" y="253.629" width="99.2126" height="14.1732" class="st11"/>
				<text x="4.5" y="263.35" class="st19" v:langID="2052"><v:paragraph v:horizAlign="1"/><v:tabList/>直接使用虚拟地址的<tspan
							class="st20">offset</tspan></text>			</g>
		</g>
	</g>
</svg>
