<?xml version="1.0" encoding="UTF-8" standalone="no"?>
<!DOCTYPE svg PUBLIC "-//W3C//DTD SVG 1.1//EN" "http://www.w3.org/Graphics/SVG/1.1/DTD/svg11.dtd">
<!-- 由 Microsoft Visio, SVG Export 生成 memblock_merge.svg 页-1 -->
<svg xmlns="http://www.w3.org/2000/svg" xmlns:xlink="http://www.w3.org/1999/xlink" xmlns:ev="http://www.w3.org/2001/xml-events"
		width="5.02485in" height="3.59183in" viewBox="0 0 361.789 258.612" xml:space="preserve" color-interpolation-filters="sRGB"
		class="st12">
	<style type="text/css">
	<![CDATA[
		.st1 {stroke:#000000;stroke-dasharray:5.25,3.75;stroke-linecap:round;stroke-linejoin:round;stroke-width:0.75}
		.st2 {visibility:visible}
		.st3 {fill:#5b9bd5;fill-opacity:0.22;filter:url(#filter_2);stroke:#5b9bd5;stroke-opacity:0.22}
		.st4 {fill:#d8d8d8;stroke:#000000;stroke-width:0.25}
		.st5 {fill:#000000;font-family:Times New Roman;font-size:0.916672em}
		.st6 {fill:#7f7f7f;stroke:#000000;stroke-width:0.25}
		.st7 {fill:none;filter:url(#filter_2);stroke:#5b9bd5;stroke-dasharray:1.75,1.25;stroke-opacity:0.22}
		.st8 {fill:none;stroke:#000000;stroke-dasharray:1.75,1.25;stroke-width:0.25}
		.st9 {fill:#5b9bd5;fill-opacity:0.25;filter:url(#filter_2);stroke:#5b9bd5;stroke-opacity:0.25}
		.st10 {fill:#7f7f7f;stroke:#000000;stroke-width:0.75}
		.st11 {fill:none;stroke:none;stroke-width:1}
		.st12 {fill:none;fill-rule:evenodd;font-size:12px;overflow:visible;stroke-linecap:square;stroke-miterlimit:3}
	]]>
	</style>

	<defs id="Filters">
		<filter id="filter_2">
			<feGaussianBlur stdDeviation="2"/>
		</filter>
	</defs>
	<g>
		<title>页-1</title>
		<g id="group36-1" transform="translate(3.0294,-5.3478)">
			<title>工作表.36</title>
			<g id="shape21-2" transform="translate(104.173,-17.53)">
				<title>工作表.21</title>
				<path d="M0 258.61 L228.19 258.61" class="st1"/>
			</g>
			<g id="shape17-5" transform="translate(50.315,-42.5197)">
				<title>流程.17</title>
				<desc>regions[1]</desc>
				<g id="shadow17-6" transform="matrix(1,0,0,1,0.345598,1.97279)" class="st2">
					<rect x="0" y="243.021" width="75.1181" height="15.5906" class="st3"/>
				</g>
				<rect x="0" y="243.021" width="75.1181" height="15.5906" class="st4"/>
				<text x="14.95" y="254.12" class="st5">regions[1]</text>			</g>
			<g id="shape18-11" transform="translate(50.315,-5.66929)">
				<title>流程.18</title>
				<desc>regions[0]</desc>
				<g id="shadow18-12" transform="matrix(1,0,0,1,0.345598,1.97279)" class="st2">
					<rect x="0" y="243.021" width="75.1181" height="15.5906" class="st3"/>
				</g>
				<rect x="0" y="243.021" width="75.1181" height="15.5906" class="st4"/>
				<text x="14.95" y="254.12" class="st5">regions[0]</text>			</g>
			<g id="shape19-17" transform="translate(138.189,-17.0079)">
				<title>流程.19</title>
				<desc>new region</desc>
				<g id="shadow19-18" transform="matrix(1,0,0,1,0.345598,1.97279)" class="st2">
					<rect x="0" y="207.588" width="75.1181" height="51.0236" class="st3"/>
				</g>
				<rect x="0" y="207.588" width="75.1181" height="51.0236" class="st6"/>
				<text x="12.97" y="236.4" class="st5">new region</text>			</g>
			<g id="shape20-23" transform="translate(105.024,-67.6657)">
				<title>工作表.20</title>
				<path d="M0 258.61 L228.19 258.61" class="st1"/>
			</g>
			<g id="shape22-26" transform="translate(241.654,-5.66929)">
				<title>流程.22</title>
				<desc>regions[0]</desc>
				<g id="shadow22-27" transform="matrix(1,0,0,1,0.345598,1.97279)" class="st2">
					<rect x="0" y="196.816" width="75.1181" height="61.7953" class="st3"/>
				</g>
				<rect x="0" y="196.816" width="75.1181" height="61.7953" class="st4"/>
				<text x="14.95" y="231.01" class="st5">regions[0]</text>			</g>
			<g id="shape27-32">
				<title>流程.27</title>
				<g id="shadow27-33" transform="matrix(1,0,0,1,0.345598,1.97279)" class="st2">
					<path d="M0 258.61 L355.04 258.61 L355.04 184.91 L0 184.91 L0 258.61 Z" class="st7"/>
				</g>
				<path d="M0 258.61 L355.04 258.61 L355.04 184.91 L0 184.91 L0 258.61 Z" class="st8"/>
			</g>
			<g id="shape24-37" transform="translate(-9.59233E-014,-82.2047)">
				<title>流程.24</title>
				<g id="shadow24-38" transform="matrix(1,0,0,1,0.345598,1.97279)" class="st2">
					<path d="M0 258.61 L355.04 258.61 L355.04 184.91 L0 184.91 L0 258.61 Z" class="st7"/>
				</g>
				<path d="M0 258.61 L355.04 258.61 L355.04 184.91 L0 184.91 L0 258.61 Z" class="st8"/>
			</g>
			<g id="shape10-42" transform="translate(50.315,-124.724)">
				<title>流程.10</title>
				<desc>regions[1]</desc>
				<g id="shadow10-43" transform="matrix(1,0,0,1,0.345598,1.97279)" class="st2">
					<rect x="0" y="243.021" width="75.1181" height="15.5906" class="st3"/>
				</g>
				<rect x="0" y="243.021" width="75.1181" height="15.5906" class="st4"/>
				<text x="14.95" y="254.12" class="st5">regions[1]</text>			</g>
			<g id="shape11-48" transform="translate(50.315,-87.874)">
				<title>流程.11</title>
				<desc>regions[0]</desc>
				<g id="shadow11-49" transform="matrix(1,0,0,1,0.345598,1.97279)" class="st2">
					<rect x="0" y="243.021" width="75.1181" height="15.5906" class="st3"/>
				</g>
				<rect x="0" y="243.021" width="75.1181" height="15.5906" class="st4"/>
				<text x="14.95" y="254.12" class="st5">regions[0]</text>			</g>
			<g id="shape12-54" transform="translate(138.189,-116.22)">
				<title>流程.12</title>
				<desc>new region</desc>
				<g id="shadow12-55" transform="matrix(1,0,0,1,0.345598,1.97279)" class="st2">
					<rect x="0" y="226.013" width="75.1181" height="32.5984" class="st3"/>
				</g>
				<rect x="0" y="226.013" width="75.1181" height="32.5984" class="st6"/>
				<text x="12.97" y="245.61" class="st5">new region</text>			</g>
			<g id="shape13-60" transform="translate(107.008,-148.819)">
				<title>工作表.13</title>
				<path d="M0 258.61 L228.19 258.61" class="st1"/>
			</g>
			<g id="shape14-63" transform="translate(105.591,-116.22)">
				<title>工作表.14</title>
				<path d="M0 258.61 L228.19 258.61" class="st1"/>
			</g>
			<g id="shape15-66" transform="translate(241.654,-116.22)">
				<title>流程.15</title>
				<desc>regions[1]</desc>
				<g id="shadow15-67" transform="matrix(1,0,0,1,0.345598,1.97279)" class="st2">
					<rect x="0" y="226.013" width="75.1181" height="32.5984" class="st3"/>
				</g>
				<rect x="0" y="226.013" width="75.1181" height="32.5984" class="st4"/>
				<text x="14.95" y="245.61" class="st5">regions[1]</text>			</g>
			<g id="shape16-72" transform="translate(241.654,-87.874)">
				<title>流程.16</title>
				<desc>regions[0]</desc>
				<g id="shadow16-73" transform="matrix(1,0,0,1,0.345598,1.97279)" class="st2">
					<rect x="0" y="243.021" width="75.1181" height="15.5906" class="st3"/>
				</g>
				<rect x="0" y="243.021" width="75.1181" height="15.5906" class="st4"/>
				<text x="14.95" y="254.12" class="st5">regions[0]</text>			</g>
			<g id="shape9-78" transform="translate(0,-162.992)">
				<title>流程.9</title>
				<g id="shadow9-79" transform="matrix(1,0,0,1,0.345598,1.97279)" class="st2">
					<path d="M0 258.61 L355.04 258.61 L355.04 184.91 L0 184.91 L0 258.61 Z" class="st7"/>
				</g>
				<path d="M0 258.61 L355.04 258.61 L355.04 184.91 L0 184.91 L0 258.61 Z" class="st8"/>
			</g>
			<g id="shape1-83" transform="translate(50.315,-209.764)">
				<title>流程</title>
				<desc>regions[1]</desc>
				<g id="shadow1-84" transform="matrix(1,0,0,1,0.345598,1.97279)" class="st2">
					<rect x="0" y="243.021" width="75.1181" height="15.5906" class="st3"/>
				</g>
				<rect x="0" y="243.021" width="75.1181" height="15.5906" class="st4"/>
				<text x="14.95" y="254.12" class="st5">regions[1]</text>			</g>
			<g id="shape2-89" transform="translate(50.315,-172.913)">
				<title>流程.2</title>
				<desc>regions[0]</desc>
				<g id="shadow2-90" transform="matrix(1,0,0,1,0.345598,1.97279)" class="st2">
					<rect x="0" y="243.021" width="75.1181" height="15.5906" class="st3"/>
				</g>
				<rect x="0" y="243.021" width="75.1181" height="15.5906" class="st4"/>
				<text x="14.95" y="254.12" class="st5">regions[0]</text>			</g>
			<g id="shape6-95" transform="translate(241.654,-172.913)">
				<title>流程.6</title>
				<desc>regions[0]</desc>
				<g id="shadow6-96" transform="matrix(1,0,0,1,0.345598,1.97279)" class="st2">
					<rect x="0" y="233.1" width="75.1181" height="25.5118" class="st3"/>
				</g>
				<rect x="0" y="233.1" width="75.1181" height="25.5118" class="st4"/>
				<text x="14.95" y="249.16" class="st5">regions[0]</text>			</g>
			<g id="shape3-101" transform="translate(138.189,-182.835)">
				<title>流程.3</title>
				<desc>new region</desc>
				<g id="shadow3-102" transform="matrix(1,0,0,1,0.345598,1.97279)" class="st2">
					<rect x="0" y="243.021" width="75.1181" height="15.5906" class="st3"/>
				</g>
				<rect x="0" y="243.021" width="75.1181" height="15.5906" class="st6"/>
				<text x="12.97" y="254.12" class="st5">new region</text>			</g>
			<g id="shape4-107" transform="translate(107.008,-198.425)">
				<title>工作表.4</title>
				<path d="M0 258.61 L228.19 258.61" class="st1"/>
			</g>
			<g id="shape5-110" transform="translate(17.7165,-209.764)">
				<title>工作表.5</title>
				<path d="M0 258.61 L317.48 258.61" class="st1"/>
			</g>
			<g id="shape7-113" transform="translate(241.654,-209.764)">
				<title>流程.7</title>
				<desc>regions[1]</desc>
				<g id="shadow7-114" transform="matrix(1,0,0,1,0.345598,1.97279)" class="st2">
					<rect x="0" y="243.021" width="75.1181" height="15.5906" class="st3"/>
				</g>
				<rect x="0" y="243.021" width="75.1181" height="15.5906" class="st4"/>
				<text x="14.95" y="254.12" class="st5">regions[1]</text>			</g>
			<g id="shape8-119" transform="translate(239.343,327.018) rotate(180)">
				<title>普通箭头</title>
				<g id="shadow8-120" transform="matrix(1,0,0,1,-0.345598,-1.97279)" class="st2">
					<path d="M0 258.61 L9.87 253.52 L9.87 256.06 L24.62 256.06 L24.62 258.61 L24.62 261.16 L9.87 261.16 L9.87 263.71
								 L0 258.61 Z" class="st9"/>
				</g>
				<path d="M0 258.61 L9.87 253.52 L9.87 256.06 L24.62 256.06 L24.62 258.61 L24.62 261.16 L9.87 261.16 L9.87 263.71
							 L0 258.61 Z" class="st10"/>
			</g>
			<g id="shape31-124" transform="translate(35.8425,-240.965)">
				<title>工作表.31</title>
				<desc>memblock.memory</desc>
				<rect x="0" y="247.312" width="105.48" height="11.2992" class="st11"/>
				<text x="9.82" y="256.26" class="st5">memblock.memory</text>			</g>
			<g id="shape33-127" transform="translate(227.48,-240.945)">
				<title>工作表.33</title>
				<desc>memblock.memory</desc>
				<rect x="0" y="247.312" width="105.48" height="11.2992" class="st11"/>
				<text x="9.82" y="256.26" class="st5">memblock.memory</text>			</g>
			<g id="shape34-130" transform="translate(239.626,383.428) rotate(180)">
				<title>普通箭头.34</title>
				<g id="shadow34-131" transform="matrix(1,0,0,1,-0.345598,-1.97279)" class="st2">
					<path d="M0 258.61 L9.87 253.52 L9.87 256.06 L24.62 256.06 L24.62 258.61 L24.62 261.16 L9.87 261.16 L9.87 263.71
								 L0 258.61 Z" class="st9"/>
				</g>
				<path d="M0 258.61 L9.87 253.52 L9.87 256.06 L24.62 256.06 L24.62 258.61 L24.62 261.16 L9.87 261.16 L9.87 263.71
							 L0 258.61 Z" class="st10"/>
			</g>
			<g id="shape35-135" transform="translate(239.343,473.286) rotate(180)">
				<title>普通箭头.35</title>
				<g id="shadow35-136" transform="matrix(1,0,0,1,-0.345598,-1.97279)" class="st2">
					<path d="M0 258.61 L9.87 253.52 L9.87 256.06 L24.62 256.06 L24.62 258.61 L24.62 261.16 L9.87 261.16 L9.87 263.71
								 L0 258.61 Z" class="st9"/>
				</g>
				<path d="M0 258.61 L9.87 253.52 L9.87 256.06 L24.62 256.06 L24.62 258.61 L24.62 261.16 L9.87 261.16 L9.87 263.71
							 L0 258.61 Z" class="st10"/>
			</g>
		</g>
	</g>
</svg>
