<?xml version="1.0" encoding="UTF-8" standalone="no"?>
<!DOCTYPE svg PUBLIC "-//W3C//DTD SVG 1.1//EN" "http://www.w3.org/Graphics/SVG/1.1/DTD/svg11.dtd">
<!-- 由 Microsoft Visio, SVG Export 生成 dm_bind_codeflow.svg 页-1 -->
<svg xmlns="http://www.w3.org/2000/svg" xmlns:xlink="http://www.w3.org/1999/xlink" xmlns:ev="http://www.w3.org/2001/xml-events"
		xmlns:v="http://schemas.microsoft.com/visio/2003/SVGExtensions/" width="15.9402in" height="5.02506in"
		viewBox="0 0 1147.69 361.804" xml:space="preserve" color-interpolation-filters="sRGB" class="st9">
	<v:documentProperties v:langID="2052" v:metric="true" v:viewMarkup="false"/>

	<style type="text/css">
	<![CDATA[
		.st1 {visibility:visible}
		.st2 {fill:#5b9bd5;fill-opacity:0.22;filter:url(#filter_2);stroke:#5b9bd5;stroke-opacity:0.22}
		.st3 {fill:#ffc000;stroke:#ffc000;stroke-width:0.75}
		.st4 {fill:#000000;font-family:Times New Roman;font-size:1.00001em}
		.st5 {font-size:1em}
		.st6 {fill:#00b0f0;stroke:#00b0f0;stroke-width:0.75}
		.st7 {marker-end:url(#mrkr3-133);stroke:#000000;stroke-linecap:round;stroke-linejoin:round;stroke-width:0.75}
		.st8 {fill:#000000;fill-opacity:1;stroke:#000000;stroke-opacity:1;stroke-width:0.22935779816514}
		.st9 {fill:none;fill-rule:evenodd;font-size:12px;overflow:visible;stroke-linecap:square;stroke-miterlimit:3}
	]]>
	</style>

	<defs id="Markers">
		<g id="lend3">
			<path d="M 2 1 L 0 0 L 2 -1 " style="stroke-linecap:round;stroke-linejoin:round;fill:none"/>
		</g>
		<marker id="mrkr3-133" class="st8" v:arrowType="3" v:arrowSize="2" orient="auto" markerUnits="strokeWidth"
				overflow="visible">
			<use xlink:href="#lend3" transform="scale(-4.36,-4.36) "/>
		</marker>
	</defs>
	<defs id="Filters">
		<filter id="filter_2">
			<feGaussianBlur stdDeviation="2"/>
		</filter>
	</defs>
	<g v:mID="0" v:index="1" v:groupContext="foregroundPage">
		<title>页-1</title>
		<v:pageProperties v:drawingScale="0.0393701" v:pageScale="0.0393701" v:drawingUnits="24" v:shadowOffsetX="8.50394"
				v:shadowOffsetY="-8.50394"/>
		<v:layer v:name="连接线" v:index="0"/>
		<g id="group48-1" transform="translate(3.0294,-5.3478)" v:mID="48" v:groupContext="group">
			<title>工作表.48</title>
			<g id="shape1-2" v:mID="1" v:groupContext="shape" transform="translate(673.228,-34.2892)">
				<title>矩形.2</title>
				<desc>lists_bind_fdt()</desc>
				<v:userDefs>
					<v:ud v:nameU="visVersion" v:val="VT0(15):26"/>
				</v:userDefs>
				<v:textBlock v:margins="rect(4,4,4,4)" v:tabSpace="42.5197"/>
				<v:textRect cx="49.6063" cy="351.175" width="99.22" height="21.2598"/>
				<g id="shadow1-3" v:groupContext="shadow" v:shadowOffsetX="0.345598" v:shadowOffsetY="-1.97279" v:shadowType="1"
						transform="matrix(1,0,0,1,0.345598,1.97279)" class="st1">
					<rect x="0" y="340.545" width="99.2126" height="21.2598" rx="2.83465" ry="2.83465" class="st2"/>
				</g>
				<rect x="0" y="340.545" width="99.2126" height="21.2598" rx="2.83465" ry="2.83465" class="st3"/>
				<text x="12.61" y="354.77" class="st4" v:langID="1033"><v:paragraph v:horizAlign="1"/><v:tabList/>lists_bind_fdt<tspan
							class="st5" v:langID="2052">()</tspan></text>			</g>
			<g id="shape2-9" v:mID="2" v:groupContext="shape" transform="translate(786.614,0)">
				<title>Rectangle.9</title>
				<desc>device_bind_with_driver_data()</desc>
				<v:userDefs>
					<v:ud v:nameU="visVersion" v:val="VT0(15):26"/>
				</v:userDefs>
				<v:textBlock v:margins="rect(4,4,4,4)" v:tabSpace="42.5197"/>
				<v:textRect cx="85.0394" cy="351.175" width="170.08" height="21.2598"/>
				<g id="shadow2-10" v:groupContext="shadow" v:shadowOffsetX="0.345598" v:shadowOffsetY="-1.97279" v:shadowType="1"
						transform="matrix(1,0,0,1,0.345598,1.97279)" class="st1">
					<rect x="0" y="340.545" width="170.079" height="21.2598" rx="2.83465" ry="2.83465" class="st2"/>
				</g>
				<rect x="0" y="340.545" width="170.079" height="21.2598" rx="2.83465" ry="2.83465" class="st6"/>
				<text x="9.23" y="354.77" class="st4" v:langID="1033"><v:paragraph v:horizAlign="1"/><v:tabList/>device_bind_with_driver_data<tspan
							class="st5" v:langID="2052">()</tspan></text>			</g>
			<g id="shape3-16" v:mID="3" v:groupContext="shape" transform="translate(581.102,-85.0394)">
				<title>Rectangle.3</title>
				<desc>dm_scan_fdt_node()</desc>
				<v:userDefs>
					<v:ud v:nameU="visVersion" v:val="VT0(15):26"/>
				</v:userDefs>
				<v:textBlock v:margins="rect(4,4,4,4)" v:tabSpace="42.5197"/>
				<v:textRect cx="56.6929" cy="351.175" width="113.39" height="21.2598"/>
				<g id="shadow3-17" v:groupContext="shadow" v:shadowOffsetX="0.345598" v:shadowOffsetY="-1.97279" v:shadowType="1"
						transform="matrix(1,0,0,1,0.345598,1.97279)" class="st1">
					<rect x="0" y="340.545" width="113.386" height="21.2598" rx="2.83465" ry="2.83465" class="st2"/>
				</g>
				<rect x="0" y="340.545" width="113.386" height="21.2598" rx="2.83465" ry="2.83465" class="st6"/>
				<text x="8.54" y="354.77" class="st4" v:langID="1033"><v:paragraph v:horizAlign="1"/><v:tabList/>dm_scan_fdt_node<tspan
							class="st5" v:langID="2052">()</tspan></text>			</g>
			<g id="shape4-23" v:mID="4" v:groupContext="shape" transform="translate(1013.39,-99.2126)">
				<title>Rectangle.4</title>
				<desc>device_bind_common()</desc>
				<v:userDefs>
					<v:ud v:nameU="visVersion" v:val="VT0(15):26"/>
				</v:userDefs>
				<v:textBlock v:margins="rect(4,4,4,4)" v:tabSpace="42.5197"/>
				<v:textRect cx="63.7795" cy="351.175" width="127.56" height="21.2598"/>
				<g id="shadow4-24" v:groupContext="shadow" v:shadowOffsetX="0.345598" v:shadowOffsetY="-1.97279" v:shadowType="1"
						transform="matrix(1,0,0,1,0.345598,1.97279)" class="st1">
					<rect x="0" y="340.545" width="127.559" height="21.2598" rx="2.83465" ry="2.83465" class="st2"/>
				</g>
				<rect x="0" y="340.545" width="127.559" height="21.2598" rx="2.83465" ry="2.83465" class="st6"/>
				<text x="7.96" y="354.77" class="st4" v:langID="1033"><v:paragraph v:horizAlign="1"/><v:tabList/>device_bind_<tspan
							class="st5" v:langID="2052">common</tspan><tspan class="st5" v:langID="2052">()</tspan></text>			</g>
			<g id="shape5-31" v:mID="5" v:groupContext="shape" transform="translate(786.614,-191.339)">
				<title>Rectangle.5</title>
				<desc>device_bind_by_name()</desc>
				<v:userDefs>
					<v:ud v:nameU="visVersion" v:val="VT0(15):26"/>
				</v:userDefs>
				<v:textBlock v:margins="rect(4,4,4,4)" v:tabSpace="42.5197"/>
				<v:textRect cx="85.0394" cy="351.175" width="170.08" height="21.2598"/>
				<g id="shadow5-32" v:groupContext="shadow" v:shadowOffsetX="0.345598" v:shadowOffsetY="-1.97279" v:shadowType="1"
						transform="matrix(1,0,0,1,0.345598,1.97279)" class="st1">
					<rect x="0" y="340.545" width="170.079" height="21.2598" rx="2.83465" ry="2.83465" class="st2"/>
				</g>
				<rect x="0" y="340.545" width="170.079" height="21.2598" rx="2.83465" ry="2.83465" class="st6"/>
				<text x="28.23" y="354.77" class="st4" v:langID="1033"><v:paragraph v:horizAlign="1"/><v:tabList/>device_bind_by_name<tspan
							class="st5" v:langID="2052">()</tspan></text>			</g>
			<g id="shape7-38" v:mID="7" v:groupContext="shape" transform="translate(786.614,-63.7795)">
				<title>Rectangle.7</title>
				<desc>device_bind()</desc>
				<v:userDefs>
					<v:ud v:nameU="visVersion" v:val="VT0(15):26"/>
				</v:userDefs>
				<v:textBlock v:margins="rect(4,4,4,4)" v:tabSpace="42.5197"/>
				<v:textRect cx="85.0394" cy="351.175" width="170.08" height="21.2598"/>
				<g id="shadow7-39" v:groupContext="shadow" v:shadowOffsetX="0.345598" v:shadowOffsetY="-1.97279" v:shadowType="1"
						transform="matrix(1,0,0,1,0.345598,1.97279)" class="st1">
					<rect x="0" y="340.545" width="170.079" height="21.2598" rx="2.83465" ry="2.83465" class="st2"/>
				</g>
				<rect x="0" y="340.545" width="170.079" height="21.2598" rx="2.83465" ry="2.83465" class="st6"/>
				<text x="53.22" y="354.77" class="st4" v:langID="1033"><v:paragraph v:horizAlign="1"/><v:tabList/>device_bind<tspan
							class="st5" v:langID="2052">()</tspan></text>			</g>
			<g id="shape8-45" v:mID="8" v:groupContext="shape" transform="translate(786.614,-127.559)">
				<title>Rectangle.8</title>
				<desc>device_bind_ofnode()</desc>
				<v:userDefs>
					<v:ud v:nameU="visVersion" v:val="VT0(15):26"/>
				</v:userDefs>
				<v:textBlock v:margins="rect(4,4,4,4)" v:tabSpace="42.5197"/>
				<v:textRect cx="85.0394" cy="351.175" width="170.08" height="21.2598"/>
				<g id="shadow8-46" v:groupContext="shadow" v:shadowOffsetX="0.345598" v:shadowOffsetY="-1.97279" v:shadowType="1"
						transform="matrix(1,0,0,1,0.345598,1.97279)" class="st1">
					<rect x="0" y="340.545" width="170.079" height="21.2598" rx="2.83465" ry="2.83465" class="st2"/>
				</g>
				<rect x="0" y="340.545" width="170.079" height="21.2598" rx="2.83465" ry="2.83465" class="st6"/>
				<text x="33.56" y="354.77" class="st4" v:langID="1033"><v:paragraph v:horizAlign="1"/><v:tabList/>device_bind_<tspan
							class="st5" v:langID="2052">ofnode</tspan><tspan class="st5" v:langID="2052">()</tspan></text>			</g>
			<g id="shape9-53" v:mID="9" v:groupContext="shape" transform="translate(106.299,-325.984)">
				<title>矩形.9</title>
				<desc>initf_dm()</desc>
				<v:userDefs>
					<v:ud v:nameU="visVersion" v:val="VT0(15):26"/>
				</v:userDefs>
				<v:textBlock v:margins="rect(4,4,4,4)" v:tabSpace="42.5197"/>
				<v:textRect cx="35.4331" cy="351.175" width="70.87" height="21.2598"/>
				<g id="shadow9-54" v:groupContext="shadow" v:shadowOffsetX="0.345598" v:shadowOffsetY="-1.97279" v:shadowType="1"
						transform="matrix(1,0,0,1,0.345598,1.97279)" class="st1">
					<rect x="0" y="340.545" width="70.8661" height="21.2598" rx="2.83465" ry="2.83465" class="st2"/>
				</g>
				<rect x="0" y="340.545" width="70.8661" height="21.2598" rx="2.83465" ry="2.83465" class="st6"/>
				<text x="12.27" y="354.77" class="st4" v:langID="1033"><v:paragraph v:horizAlign="1"/><v:tabList/>initf_dm<tspan
							class="st5" v:langID="2052">()</tspan></text>			</g>
			<g id="shape10-60" v:mID="10" v:groupContext="shape" transform="translate(106.299,-240.945)">
				<title>矩形.10</title>
				<desc>initr_dm()</desc>
				<v:userDefs>
					<v:ud v:nameU="visVersion" v:val="VT0(15):26"/>
				</v:userDefs>
				<v:textBlock v:margins="rect(4,4,4,4)" v:tabSpace="42.5197"/>
				<v:textRect cx="35.4331" cy="351.175" width="70.87" height="21.2598"/>
				<g id="shadow10-61" v:groupContext="shadow" v:shadowOffsetX="0.345598" v:shadowOffsetY="-1.97279" v:shadowType="1"
						transform="matrix(1,0,0,1,0.345598,1.97279)" class="st1">
					<rect x="0" y="340.545" width="70.8661" height="21.2598" rx="2.83465" ry="2.83465" class="st2"/>
				</g>
				<rect x="0" y="340.545" width="70.8661" height="21.2598" rx="2.83465" ry="2.83465" class="st6"/>
				<text x="12.27" y="354.77" class="st4" v:langID="1033"><v:paragraph v:horizAlign="1"/><v:tabList/>init<tspan
							class="st5" v:langID="2052">r</tspan>_dm<tspan class="st5" v:langID="2052">()</tspan></text>			</g>
			<g id="shape13-68" v:mID="13" v:groupContext="shape" transform="translate(0,-325.984)">
				<title>Rectangle.13</title>
				<desc>board_init_f()</desc>
				<v:userDefs>
					<v:ud v:nameU="visVersion" v:val="VT0(15):26"/>
				</v:userDefs>
				<v:textBlock v:margins="rect(4,4,4,4)" v:tabSpace="42.5197"/>
				<v:textRect cx="38.9764" cy="351.175" width="77.96" height="21.2598"/>
				<g id="shadow13-69" v:groupContext="shadow" v:shadowOffsetX="0.345598" v:shadowOffsetY="-1.97279" v:shadowType="1"
						transform="matrix(1,0,0,1,0.345598,1.97279)" class="st1">
					<rect x="0" y="340.545" width="77.9528" height="21.2598" rx="2.83465" ry="2.83465" class="st2"/>
				</g>
				<rect x="0" y="340.545" width="77.9528" height="21.2598" rx="2.83465" ry="2.83465" class="st3"/>
				<text x="5.32" y="354.77" class="st4" v:langID="1033"><v:paragraph v:horizAlign="1"/><v:tabList/>board_init_f()</text>			</g>
			<g id="shape15-74" v:mID="15" v:groupContext="shape" transform="translate(0,-240.945)">
				<title>Rectangle.15</title>
				<desc>board_init_r()</desc>
				<v:userDefs>
					<v:ud v:nameU="visVersion" v:val="VT0(15):26"/>
				</v:userDefs>
				<v:textBlock v:margins="rect(4,4,4,4)" v:tabSpace="42.5197"/>
				<v:textRect cx="38.9764" cy="351.175" width="77.96" height="21.2598"/>
				<g id="shadow15-75" v:groupContext="shadow" v:shadowOffsetX="0.345598" v:shadowOffsetY="-1.97279" v:shadowType="1"
						transform="matrix(1,0,0,1,0.345598,1.97279)" class="st1">
					<rect x="0" y="340.545" width="77.9528" height="21.2598" rx="2.83465" ry="2.83465" class="st2"/>
				</g>
				<rect x="0" y="340.545" width="77.9528" height="21.2598" rx="2.83465" ry="2.83465" class="st3"/>
				<text x="5.32" y="354.77" class="st4" v:langID="1033"><v:paragraph v:horizAlign="1"/><v:tabList/>board_init_r()</text>			</g>
			<g id="shape17-80" v:mID="17" v:groupContext="shape" transform="translate(439.37,-134.646)">
				<title>Rectangle.17</title>
				<desc>dm_scan_fdt_dev()</desc>
				<v:userDefs>
					<v:ud v:nameU="visVersion" v:val="VT0(15):26"/>
				</v:userDefs>
				<v:textBlock v:margins="rect(4,4,4,4)" v:tabSpace="42.5197"/>
				<v:textRect cx="56.6929" cy="351.175" width="113.39" height="21.2598"/>
				<g id="shadow17-81" v:groupContext="shadow" v:shadowOffsetX="0.345598" v:shadowOffsetY="-1.97279" v:shadowType="1"
						transform="matrix(1,0,0,1,0.345598,1.97279)" class="st1">
					<rect x="0" y="340.545" width="113.386" height="21.2598" rx="2.83465" ry="2.83465" class="st2"/>
				</g>
				<rect x="0" y="340.545" width="113.386" height="21.2598" rx="2.83465" ry="2.83465" class="st3"/>
				<text x="11.54" y="354.77" class="st4" v:langID="1033"><v:paragraph v:horizAlign="1"/><v:tabList/>dm_scan_fdt_dev()</text>			</g>
			<g id="shape19-86" v:mID="19" v:groupContext="shape" transform="translate(439.37,-83.8955)">
				<title>工作表.19</title>
				<desc>dm_scan_fdt()</desc>
				<v:textBlock v:margins="rect(4,4,4,4)" v:tabSpace="42.5197"/>
				<v:textRect cx="56.6929" cy="350.603" width="113.39" height="22.4037"/>
				<g id="shadow19-87" v:groupContext="shadow" v:shadowOffsetX="0.345598" v:shadowOffsetY="-1.97279" v:shadowType="1"
						transform="matrix(1,0,0,1,0.345598,1.97279)" class="st1">
					<rect x="0" y="339.401" width="113.386" height="22.4037" rx="2.83465" ry="2.83465" class="st2"/>
				</g>
				<rect x="0" y="339.401" width="113.386" height="22.4037" rx="2.83465" ry="2.83465" class="st6"/>
				<text x="21.7" y="354.2" class="st4" v:langID="1033"><v:paragraph v:horizAlign="1"/><v:tabList/>dm_scan_fdt<tspan
							class="st5" v:langID="2052">()</tspan></text>			</g>
			<g id="shape20-93" v:mID="20" v:groupContext="shape" transform="translate(403.937,-33.1453)">
				<title>工作表.20</title>
				<desc>dm_scan_fdt_ofnode_path()</desc>
				<v:textBlock v:margins="rect(4,4,4,4)" v:tabSpace="42.5197"/>
				<v:textRect cx="74.4094" cy="350.603" width="148.82" height="22.4037"/>
				<g id="shadow20-94" v:groupContext="shadow" v:shadowOffsetX="0.345598" v:shadowOffsetY="-1.97279" v:shadowType="1"
						transform="matrix(1,0,0,1,0.345598,1.97279)" class="st1">
					<rect x="0" y="339.401" width="148.819" height="22.4037" rx="2.83465" ry="2.83465" class="st2"/>
				</g>
				<rect x="0" y="339.401" width="148.819" height="22.4037" rx="2.83465" ry="2.83465" class="st6"/>
				<text x="6.43" y="354.2" class="st4" v:langID="1033"><v:paragraph v:horizAlign="1"/><v:tabList/>dm_scan_fdt_ofnode_path<tspan
							class="st5" v:langID="2052">()</tspan></text>			</g>
			<g id="shape21-100" v:mID="21" v:groupContext="shape" transform="translate(205.512,-282.321)">
				<title>工作表.21</title>
				<desc>dm_init_and_scan()</desc>
				<v:textBlock v:margins="rect(4,4,4,4)" v:tabSpace="42.5197"/>
				<v:textRect cx="70.8661" cy="350.603" width="141.74" height="22.4037"/>
				<g id="shadow21-101" v:groupContext="shadow" v:shadowOffsetX="0.345598" v:shadowOffsetY="-1.97279" v:shadowType="1"
						transform="matrix(1,0,0,1,0.345598,1.97279)" class="st1">
					<rect x="0" y="339.401" width="141.732" height="22.4037" rx="2.83465" ry="2.83465" class="st2"/>
				</g>
				<rect x="0" y="339.401" width="141.732" height="22.4037" rx="2.83465" ry="2.83465" class="st6"/>
				<text x="22.88" y="354.2" class="st4" v:langID="1033"><v:paragraph v:horizAlign="1"/><v:tabList/>dm_init_and_scan<tspan
							class="st5" v:langID="2052">()</tspan></text>			</g>
			<g id="shape22-107" v:mID="22" v:groupContext="shape" transform="translate(297.638,-245.744)">
				<title>工作表.22</title>
				<desc>dm_init()</desc>
				<v:textBlock v:margins="rect(4,4,4,4)" v:tabSpace="42.5197"/>
				<v:textRect cx="31.8898" cy="350.603" width="63.78" height="22.4037"/>
				<g id="shadow22-108" v:groupContext="shadow" v:shadowOffsetX="0.345598" v:shadowOffsetY="-1.97279" v:shadowType="1"
						transform="matrix(1,0,0,1,0.345598,1.97279)" class="st1">
					<rect x="0" y="339.401" width="63.7795" height="22.4037" rx="2.83465" ry="2.83465" class="st2"/>
				</g>
				<rect x="0" y="339.401" width="63.7795" height="22.4037" rx="2.83465" ry="2.83465" class="st6"/>
				<text x="9.23" y="354.2" class="st4" v:langID="1033"><v:paragraph v:horizAlign="1"/><v:tabList/>dm_init<tspan
							class="st5" v:langID="2052">()</tspan></text>			</g>
			<g id="shape23-114" v:mID="23" v:groupContext="shape" transform="translate(297.638,-211.455)">
				<title>工作表.23</title>
				<desc>dm_scan_platdata()</desc>
				<v:textBlock v:margins="rect(4,4,4,4)" v:tabSpace="42.5197"/>
				<v:textRect cx="53.1496" cy="350.603" width="106.3" height="22.4037"/>
				<g id="shadow23-115" v:groupContext="shadow" v:shadowOffsetX="0.345598" v:shadowOffsetY="-1.97279" v:shadowType="1"
						transform="matrix(1,0,0,1,0.345598,1.97279)" class="st1">
					<rect x="0" y="339.401" width="106.299" height="22.4037" rx="2.83465" ry="2.83465" class="st2"/>
				</g>
				<rect x="0" y="339.401" width="106.299" height="22.4037" rx="2.83465" ry="2.83465" class="st6"/>
				<text x="5.83" y="354.2" class="st4" v:langID="1033"><v:paragraph v:horizAlign="1"/><v:tabList/>dm_scan_platdata<tspan
							class="st5" v:langID="2052">()</tspan></text>			</g>
			<g id="shape24-121" v:mID="24" v:groupContext="shape" transform="translate(297.638,-176.021)">
				<title>工作表.24</title>
				<desc>dm_extended_scan_fdt()</desc>
				<v:textBlock v:margins="rect(4,4,4,4)" v:tabSpace="42.5197"/>
				<v:textRect cx="67.3228" cy="350.603" width="134.65" height="22.4037"/>
				<g id="shadow24-122" v:groupContext="shadow" v:shadowOffsetX="0.345598" v:shadowOffsetY="-1.97279" v:shadowType="1"
						transform="matrix(1,0,0,1,0.345598,1.97279)" class="st1">
					<rect x="0" y="339.401" width="134.646" height="22.4037" rx="2.83465" ry="2.83465" class="st2"/>
				</g>
				<rect x="0" y="339.401" width="134.646" height="22.4037" rx="2.83465" ry="2.83465" class="st6"/>
				<text x="7.68" y="354.2" class="st4" v:langID="1033"><v:paragraph v:horizAlign="1"/><v:tabList/>dm_extended_scan_fdt<tspan
							class="st5" v:langID="2052">()</tspan></text>			</g>
			<g id="shape26-128" v:mID="26" v:groupContext="shape" v:layerMember="0"
					transform="translate(567.613,-135.19) rotate(53.6055)">
				<title>波浪连接线 1</title>
				<v:userDefs>
					<v:ud v:nameU="Scale" v:val="VT0(1):26"/>
					<v:ud v:nameU="AntiScale" v:val="VT0(1):26"/>
					<v:ud v:nameU="visVersion" v:val="VT0(15):26"/>
				</v:userDefs>
				<path d="M0 361.8 C5.79 364.7 13.68 373.16 33.44 361.8" class="st7"/>
			</g>
			<g id="shape27-134" v:mID="27" v:groupContext="shape" v:layerMember="0"
					transform="translate(621.289,-29.7815) rotate(72.4222)">
				<title>波浪连接线 1.27</title>
				<v:userDefs>
					<v:ud v:nameU="Scale" v:val="VT0(1):26"/>
					<v:ud v:nameU="AntiScale" v:val="VT0(1):26"/>
					<v:ud v:nameU="visVersion" v:val="VT0(15):26"/>
				</v:userDefs>
				<path d="M0 361.8 C46.37 374.47 27.69 375.43 65.7 361.8" class="st7"/>
			</g>
			<g id="shape28-139" v:mID="28" v:groupContext="shape" v:layerMember="0"
					transform="translate(630.654,6.06126) rotate(78.2914)">
				<title>波浪连接线 1.28</title>
				<v:userDefs>
					<v:ud v:nameU="Scale" v:val="VT0(1):26"/>
					<v:ud v:nameU="AntiScale" v:val="VT0(1):26"/>
					<v:ud v:nameU="visVersion" v:val="VT0(15):26"/>
				</v:userDefs>
				<path d="M0 361.8 C69.22 375.31 77.46 375.18 100.15 361.8" class="st7"/>
			</g>
			<g id="shape29-144" v:mID="29" v:groupContext="shape" v:layerMember="0"
					transform="translate(478.205,-175.503) rotate(56.3099)">
				<title>波浪连接线 1.29</title>
				<v:userDefs>
					<v:ud v:nameU="Scale" v:val="VT0(1):26"/>
					<v:ud v:nameU="AntiScale" v:val="VT0(1):26"/>
					<v:ud v:nameU="visVersion" v:val="VT0(15):26"/>
				</v:userDefs>
				<path d="M0 361.8 C8.22 349.08 29.57 362.48 48.55 361.8" class="st7"/>
			</g>
			<g id="shape30-149" v:mID="30" v:groupContext="shape" v:layerMember="0"
					transform="translate(471.202,321.049) rotate(-54.3602) scale(1,-1)">
				<title>波浪连接线 1.30</title>
				<v:userDefs>
					<v:ud v:nameU="Scale" v:val="VT0(1):26"/>
					<v:ud v:nameU="AntiScale" v:val="VT0(1):26"/>
					<v:ud v:nameU="visVersion" v:val="VT0(15):26"/>
				</v:userDefs>
				<path d="M0 361.8 C7.82 349.08 28.15 362.48 46.22 361.8" class="st7"/>
			</g>
			<g id="shape31-154" v:mID="31" v:groupContext="shape" v:layerMember="0" transform="translate(77.9528,-336.614)">
				<title>有向线 1</title>
				<v:userDefs>
					<v:ud v:nameU="visVersion" v:val="VT0(15):26"/>
				</v:userDefs>
				<path d="M0 361.8 L28.35 361.8" class="st7"/>
			</g>
			<g id="shape32-159" v:mID="32" v:groupContext="shape" v:layerMember="0" transform="translate(77.9528,-251.575)">
				<title>有向线 1.32</title>
				<v:userDefs>
					<v:ud v:nameU="visVersion" v:val="VT0(15):26"/>
				</v:userDefs>
				<path d="M0 361.8 L28.35 361.8" class="st7"/>
			</g>
			<g id="shape33-164" v:mID="33" v:groupContext="shape" transform="translate(432.283,-211.455)">
				<title>工作表.33</title>
				<desc>lists_bind_drivers()</desc>
				<v:textBlock v:margins="rect(4,4,4,4)" v:tabSpace="42.5197"/>
				<v:textRect cx="53.1496" cy="350.603" width="106.3" height="22.4037"/>
				<g id="shadow33-165" v:groupContext="shadow" v:shadowOffsetX="0.345598" v:shadowOffsetY="-1.97279" v:shadowType="1"
						transform="matrix(1,0,0,1,0.345598,1.97279)" class="st1">
					<rect x="0" y="339.401" width="106.299" height="22.4037" rx="2.83465" ry="2.83465" class="st2"/>
				</g>
				<rect x="0" y="339.401" width="106.299" height="22.4037" rx="2.83465" ry="2.83465" class="st3"/>
				<text x="6.15" y="354.2" class="st4" v:langID="1033"><v:paragraph v:horizAlign="1"/><v:tabList/>lists_bind_drivers()</text>			</g>
			<g id="shape34-170" v:mID="34" v:groupContext="shape" v:layerMember="0" transform="translate(403.937,-222.656)">
				<title>有向线 1.34</title>
				<v:userDefs>
					<v:ud v:nameU="visVersion" v:val="VT0(15):26"/>
				</v:userDefs>
				<path d="M0 361.8 L28.35 361.8" class="st7"/>
			</g>
			<g id="shape35-175" v:mID="35" v:groupContext="shape" v:layerMember="0"
					transform="translate(545.457,-95.0237) rotate(-1.15587)">
				<title>有向线 1.35</title>
				<v:userDefs>
					<v:ud v:nameU="visVersion" v:val="VT0(15):26"/>
				</v:userDefs>
				<path d="M0 361.8 L28.35 361.8" class="st7"/>
			</g>
			<g id="shape36-180" v:mID="36" v:groupContext="shape" v:layerMember="0"
					transform="translate(858.491,23.0639) rotate(57.6749)">
				<title>波浪连接线 1.36</title>
				<v:userDefs>
					<v:ud v:nameU="Scale" v:val="VT0(1):26"/>
					<v:ud v:nameU="AntiScale" v:val="VT0(1):26"/>
					<v:ud v:nameU="visVersion" v:val="VT0(15):26"/>
				</v:userDefs>
				<path d="M0 361.8 C13.12 347.74 21.45 372.66 51.16 361.8" class="st7"/>
			</g>
			<g id="shape37-185" v:mID="37" v:groupContext="shape" v:layerMember="0"
					transform="translate(859.09,509.972) rotate(-57.8528) scale(1,-1)">
				<title>波浪连接线 1.37</title>
				<v:userDefs>
					<v:ud v:nameU="Scale" v:val="VT0(1):26"/>
					<v:ud v:nameU="AntiScale" v:val="VT0(1):26"/>
					<v:ud v:nameU="visVersion" v:val="VT0(15):26"/>
				</v:userDefs>
				<path d="M0 361.8 C13.18 347.74 21.55 372.66 51.41 361.8" class="st7"/>
			</g>
			<g id="shape38-190" v:mID="38" v:groupContext="shape" v:layerMember="0"
					transform="translate(908.98,37.2626) rotate(48.55)">
				<title>波浪连接线 1.38</title>
				<v:userDefs>
					<v:ud v:nameU="Scale" v:val="VT0(1):26"/>
					<v:ud v:nameU="AntiScale" v:val="VT0(1):26"/>
					<v:ud v:nameU="visVersion" v:val="VT0(15):26"/>
				</v:userDefs>
				<path d="M0 361.8 C18.53 368.09 23.49 376.56 53.53 361.8" class="st7"/>
			</g>
			<g id="shape39-195" v:mID="39" v:groupContext="shape" v:layerMember="0"
					transform="translate(848.669,-11.7019) rotate(20.3525)">
				<title>波浪连接线 1.39</title>
				<v:userDefs>
					<v:ud v:nameU="Scale" v:val="VT0(1):26"/>
					<v:ud v:nameU="AntiScale" v:val="VT0(1):26"/>
					<v:ud v:nameU="visVersion" v:val="VT0(15):26"/>
				</v:userDefs>
				<path d="M0 361.8 C23.55 368.09 29.85 376.56 68.03 361.8" class="st7"/>
			</g>
			<g id="shape41-200" v:mID="41" v:groupContext="shape" v:layerMember="0"
					transform="translate(637.232,-52.483) rotate(48.8107)">
				<title>波浪连接线 1.41</title>
				<v:userDefs>
					<v:ud v:nameU="Scale" v:val="VT0(1):26"/>
					<v:ud v:nameU="AntiScale" v:val="VT0(1):26"/>
					<v:ud v:nameU="visVersion" v:val="VT0(15):26"/>
				</v:userDefs>
				<path d="M0 361.8 C31.77 378.27 51.1 381.88 111.48 361.8" class="st7"/>
			</g>
			<g id="shape42-205" v:mID="42" v:groupContext="shape" v:layerMember="0"
					transform="translate(712.917,86.6429) rotate(74.0966)">
				<title>波浪连接线 1.42</title>
				<v:userDefs>
					<v:ud v:nameU="Scale" v:val="VT0(1):26"/>
					<v:ud v:nameU="AntiScale" v:val="VT0(1):26"/>
					<v:ud v:nameU="visVersion" v:val="VT0(15):26"/>
				</v:userDefs>
				<path d="M0 361.8 C53.63 369.36 114.25 399.86 139.55 361.8" class="st7"/>
			</g>
			<g id="shape43-210" v:mID="43" v:groupContext="shape" v:layerMember="0"
					transform="translate(568.656,-221.404) rotate(4.76791)">
				<title>波浪连接线 1.43</title>
				<v:userDefs>
					<v:ud v:nameU="Scale" v:val="VT0(1):26"/>
					<v:ud v:nameU="AntiScale" v:val="VT0(1):26"/>
					<v:ud v:nameU="visVersion" v:val="VT0(15):26"/>
				</v:userDefs>
				<path d="M0 361.8 C89.69 365.72 106.52 365.69 248.89 361.8" class="st7"/>
			</g>
			<g id="shape44-215" v:mID="44" v:groupContext="shape" v:layerMember="0"
					transform="translate(1256.78,-42.2753) rotate(56.0396)">
				<title>波浪连接线 1.44</title>
				<v:userDefs>
					<v:ud v:nameU="Scale" v:val="VT0(1):26"/>
					<v:ud v:nameU="AntiScale" v:val="VT0(1):26"/>
					<v:ud v:nameU="visVersion" v:val="VT0(15):26"/>
				</v:userDefs>
				<path d="M0 361.8 C25.64 347.74 41.91 372.66 99.97 361.8" class="st7"/>
			</g>
			<g id="shape45-220" v:mID="45" v:groupContext="shape" v:layerMember="0"
					transform="translate(1103.87,-106.901) rotate(24.0031)">
				<title>波浪连接线 1.45</title>
				<v:userDefs>
					<v:ud v:nameU="Scale" v:val="VT0(1):26"/>
					<v:ud v:nameU="AntiScale" v:val="VT0(1):26"/>
					<v:ud v:nameU="visVersion" v:val="VT0(15):26"/>
				</v:userDefs>
				<path d="M0 361.8 C29.17 353.44 18.92 371.02 60.97 361.8" class="st7"/>
			</g>
			<g id="shape46-225" v:mID="46" v:groupContext="shape" v:layerMember="0"
					transform="translate(1136.11,601.578) rotate(-29.7292) scale(1,-1)">
				<title>波浪连接线 1.46</title>
				<v:userDefs>
					<v:ud v:nameU="Scale" v:val="VT0(1):26"/>
					<v:ud v:nameU="AntiScale" v:val="VT0(1):26"/>
					<v:ud v:nameU="visVersion" v:val="VT0(15):26"/>
				</v:userDefs>
				<path d="M0 361.8 C15.71 353.98 27.48 370.75 64.31 361.8" class="st7"/>
			</g>
			<g id="shape47-230" v:mID="47" v:groupContext="shape" v:layerMember="0"
					transform="translate(1262.03,545.26) rotate(-57.5586) scale(1,-1)">
				<title>波浪连接线 1.47</title>
				<v:userDefs>
					<v:ud v:nameU="Scale" v:val="VT0(1):26"/>
					<v:ud v:nameU="AntiScale" v:val="VT0(1):26"/>
					<v:ud v:nameU="visVersion" v:val="VT0(15):26"/>
				</v:userDefs>
				<path d="M0 361.8 C26.83 347.74 43.86 372.66 104.63 361.8" class="st7"/>
			</g>
		</g>
	</g>
</svg>
