<?xml version="1.0" encoding="UTF-8" standalone="no"?>
<!DOCTYPE svg PUBLIC "-//W3C//DTD SVG 1.1//EN" "http://www.w3.org/Graphics/SVG/1.1/DTD/svg11.dtd">
<!-- 由 Microsoft Visio, SVG Export 生成 memory_model_mem_map.svg 页-1 -->
<svg xmlns="http://www.w3.org/2000/svg" xmlns:xlink="http://www.w3.org/1999/xlink" xmlns:ev="http://www.w3.org/2001/xml-events"
		width="10.1025in" height="4.05277in" viewBox="0 0 727.381 291.799" xml:space="preserve" color-interpolation-filters="sRGB"
		class="st15">
	<style type="text/css">
	<![CDATA[
		.st1 {marker-end:url(#mrkr5-7);stroke:#000000;stroke-linecap:round;stroke-linejoin:round;stroke-width:0.5}
		.st2 {fill:#000000;fill-opacity:1;stroke:#000000;stroke-opacity:1;stroke-width:0.16556291390728}
		.st3 {fill:none;stroke:none;stroke-width:0.25}
		.st4 {fill:#000000;font-family:Times New Roman;font-size:0.916672em}
		.st5 {stroke:#a5a5a5;stroke-dasharray:1.75,1.25;stroke-linecap:round;stroke-linejoin:round;stroke-width:0.25}
		.st6 {font-size:1em}
		.st7 {visibility:visible}
		.st8 {fill:none;filter:url(#filter_2);stroke:#5b9bd5;stroke-opacity:0.22}
		.st9 {fill:none;stroke:#48d9fd;stroke-width:0.25}
		.st10 {fill:#5b9bd5;fill-opacity:0.22;filter:url(#filter_2);stroke:#5b9bd5;stroke-opacity:0.22}
		.st11 {fill:#f2f2f2;stroke:#48d9fd;stroke-width:0.25}
		.st12 {fill:#a5a5a5;stroke:#48d9fd;stroke-width:0.25}
		.st13 {stroke:#000000;stroke-width:0.5}
		.st14 {fill:#7f7f7f;stroke:#000000;stroke-width:0.25}
		.st15 {fill:none;fill-rule:evenodd;font-size:12px;overflow:visible;stroke-linecap:square;stroke-miterlimit:3}
	]]>
	</style>

	<defs id="Markers">
		<g id="lend5">
			<path d="M 2 1 L 0 0 L 1.98117 -0.993387 C 1.67173 -0.364514 1.67301 0.372642 1.98465 1.00043 " style="stroke:none"/>
		</g>
		<marker id="mrkr5-7" class="st2" refX="-9.85" orient="auto" markerUnits="strokeWidth" overflow="visible">
			<use xlink:href="#lend5" transform="scale(-6.04,-6.04) "/>
		</marker>
	</defs>
	<defs id="Filters">
		<filter id="filter_2">
			<feGaussianBlur stdDeviation="2"/>
		</filter>
	</defs>
	<g>
		<title>页-1</title>
		<g id="group61-1" transform="translate(0.25,-0.25)">
			<title>工作表.61</title>
			<g id="shape49-2" transform="translate(141.499,-12.6771) rotate(-45.4244)">
				<title>曲线连接 3</title>
				<path d="M67.65 291.8 A53.368 53.368 0 0 1 4.25 294.94 L3.96 294.73" class="st1"/>
			</g>
			<g id="shape3-8" transform="translate(428.486,-41.8504)">
				<title>工作表.3</title>
				<desc>section #0</desc>
				<rect x="0" y="276.169" width="61.4538" height="15.6299" class="st3"/>
				<text x="8.27" y="287.28" class="st4">section #0</text>			</g>
			<g id="shape4-11" transform="translate(428.486,-64.5276)">
				<title>工作表.4</title>
				<desc>section #1</desc>
				<rect x="0" y="276.169" width="61.4538" height="15.6299" class="st3"/>
				<text x="8.27" y="287.28" class="st4">section #1</text>			</g>
			<g id="shape5-14" transform="translate(428.486,-245.945)">
				<title>工作表.5</title>
				<desc>section #n</desc>
				<rect x="0" y="276.169" width="61.4538" height="15.6299" class="st3"/>
				<text x="8.27" y="287.28" class="st4">section #n</text>			</g>
			<g id="shape6-17" transform="translate(453.656,-84.3701)">
				<title>工作表.6</title>
				<path d="M0 291.8 L166.68 291.8" class="st5"/>
			</g>
			<g id="shape7-20" transform="translate(452.874,-265.787) rotate(-0.0422224)">
				<title>工作表.7</title>
				<path d="M0 291.8 L167.24 291.8" class="st5"/>
			</g>
			<g id="shape8-23" transform="translate(453.134,-107.196) rotate(0.00888892)">
				<title>工作表.8</title>
				<path d="M0 291.8 L167.24 291.8" class="st5"/>
			</g>
			<g id="shape9-26" transform="translate(453.089,-197.756)">
				<title>工作表.9</title>
				<path d="M0 291.8 L167.24 291.8" class="st5"/>
			</g>
			<g id="shape10-29" transform="translate(453.089,-152.402)">
				<title>工作表.10</title>
				<path d="M0 291.8 L167.24 291.8" class="st5"/>
			</g>
			<g id="shape11-32" transform="translate(452.874,-129.601) rotate(-0.0422224)">
				<title>工作表.11</title>
				<path d="M0 291.8 L167.24 291.8" class="st5"/>
			</g>
			<g id="shape12-35" transform="translate(453.089,-175.079)">
				<title>工作表.12</title>
				<path d="M0 291.8 L167.24 291.8" class="st5"/>
			</g>
			<g id="shape13-38" transform="translate(453.089,-220.433)">
				<title>工作表.13</title>
				<path d="M0 291.8 L167.24 291.8" class="st5"/>
			</g>
			<g id="shape14-41" transform="translate(453.089,-243.11)">
				<title>工作表.14</title>
				<path d="M0 291.8 L167.24 291.8" class="st5"/>
			</g>
			<g id="shape15-44" transform="translate(464.62,-1.13687E-013)">
				<title>工作表.15</title>
				<desc>SPARSEMEM (management by section)</desc>
				<rect x="0" y="253.453" width="150.679" height="38.3465" class="st3"/>
				<text x="42.02" y="269.33" class="st4">SPARSEMEM <tspan x="19.75" dy="1.2em" class="st6">(</tspan>management by section)</text>			</g>
			<g id="shape16-48" transform="translate(493.896,-267.126)">
				<title>工作表.16</title>
				<desc>physical memory</desc>
				<rect x="0" y="267.626" width="92.126" height="24.1732" class="st3"/>
				<text x="8.03" y="283.01" class="st4">physical memory</text>			</g>
			<g id="shape17-51" transform="translate(453.089,-61.6929)">
				<title>工作表.17</title>
				<path d="M0 291.8 L167.24 291.8" class="st5"/>
			</g>
			<g id="shape18-54" transform="translate(452.874,-38.8924) rotate(-0.0422224)">
				<title>工作表.18</title>
				<path d="M0 291.8 L167.24 291.8" class="st5"/>
			</g>
			<g id="group19-57" transform="translate(493.896,-39.0157)">
				<title>工作表.19</title>
				<g id="shape20-58">
					<title>流程.16</title>
					<g id="shadow20-59" transform="matrix(1,0,0,1,0.345598,1.97279)" class="st7">
						<rect x="0" y="65.0276" width="92.126" height="226.772" class="st8"/>
					</g>
					<rect x="0" y="65.0276" width="92.126" height="226.772" class="st9"/>
				</g>
				<g id="shape21-63" transform="translate(-3.19744E-014,-22.6772)">
					<title>流程.17</title>
					<desc>memory.region[0]</desc>
					<g id="shadow21-64" transform="matrix(1,0,0,1,0.345598,1.97279)" class="st7">
						<rect x="0" y="223.768" width="92.126" height="68.0315" class="st10"/>
					</g>
					<rect x="0" y="223.768" width="92.126" height="68.0315" class="st11"/>
					<text x="5.89" y="261.08" class="st4">memory.region[0]</text>				</g>
				<g id="shape22-69" transform="translate(-3.19744E-014,-136.063)">
					<title>流程.18</title>
					<desc>memory.region[1] Hot-plug</desc>
					<g id="shadow22-70" transform="matrix(1,0,0,1,0.345598,1.97279)" class="st7">
						<rect x="0" y="223.768" width="92.126" height="68.0315" class="st10"/>
					</g>
					<rect x="0" y="223.768" width="92.126" height="68.0315" class="st11"/>
					<text x="5.89" y="254.48" class="st4">memory.region[1] <tspan x="26.2" dy="1.2em" class="st6">Hot</tspan>-plug</text>				</g>
				<g id="shape23-76" transform="translate(-3.19744E-014,-90.7087)">
					<title>流程.19</title>
					<desc>Possible hole</desc>
					<g id="shadow23-77" transform="matrix(1,0,0,1,0.345598,1.97279)" class="st7">
						<rect x="0" y="246.445" width="92.126" height="45.3543" class="st10"/>
					</g>
					<rect x="0" y="246.445" width="92.126" height="45.3543" class="st12"/>
					<text x="16.88" y="272.42" class="st4">Possible hole</text>				</g>
			</g>
			<g id="shape25-82" transform="translate(188.689,-5.68434E-014)">
				<title>工作表.25</title>
				<desc>DISCONTIGMEM (management by node)</desc>
				<rect x="0" y="253.453" width="134.646" height="38.3465" class="st3"/>
				<text x="24.54" y="269.33" class="st4">DISCONTIGMEM <tspan x="16.62" dy="1.2em" class="st6">(</tspan>management by node)</text>			</g>
			<g id="shape26-86" transform="translate(209.949,-267.126)">
				<title>工作表.26</title>
				<desc>physical memory</desc>
				<rect x="0" y="267.626" width="92.126" height="24.1732" class="st3"/>
				<text x="8.03" y="283.01" class="st4">physical memory</text>			</g>
			<g id="group27-89" transform="translate(209.949,-39.0157)">
				<title>工作表.27</title>
				<g id="shape28-90">
					<title>流程.6</title>
					<g id="shadow28-91" transform="matrix(1,0,0,1,0.345598,1.97279)" class="st7">
						<rect x="0" y="65.0276" width="92.126" height="226.772" class="st8"/>
					</g>
					<rect x="0" y="65.0276" width="92.126" height="226.772" class="st9"/>
				</g>
				<g id="shape29-95" transform="translate(-3.19744E-014,-31.1811)">
					<title>流程.7</title>
					<desc>memory.region[0] Node #0</desc>
					<g id="shadow29-96" transform="matrix(1,0,0,1,0.345598,1.97279)" class="st7">
						<rect x="0" y="229.437" width="92.126" height="62.3622" class="st10"/>
					</g>
					<rect x="0" y="229.437" width="92.126" height="62.3622" class="st11"/>
					<text x="5.89" y="257.32" class="st4">memory.region[0] <tspan x="27.27" dy="1.2em" class="st6">Node </tspan>#0</text>				</g>
				<g id="shape30-102" transform="translate(-3.19744E-014,-140.315)">
					<title>流程.9</title>
					<desc>memory.region[1] Node #1</desc>
					<g id="shadow30-103" transform="matrix(1,0,0,1,0.345598,1.97279)" class="st7">
						<rect x="0" y="243.61" width="92.126" height="48.189" class="st10"/>
					</g>
					<rect x="0" y="243.61" width="92.126" height="48.189" class="st11"/>
					<text x="5.89" y="264.4" class="st4">memory.region[1] <tspan x="27.27" dy="1.2em" class="st6">Node </tspan>#1</text>				</g>
				<g id="shape31-109" transform="translate(-3.19744E-014,-90.7874)">
					<title>流程.12</title>
					<desc>Possible hole</desc>
					<g id="shadow31-110" transform="matrix(1,0,0,1,0.345598,1.97279)" class="st7">
						<rect x="0" y="242.272" width="92.126" height="49.5276" class="st10"/>
					</g>
					<rect x="0" y="242.272" width="92.126" height="49.5276" class="st12"/>
					<text x="16.88" y="270.34" class="st4">Possible hole</text>				</g>
			</g>
			<g id="shape33-115" transform="translate(3.9968E-014,-0.669291)">
				<title>工作表.33</title>
				<desc>FLATMEM (unified management)</desc>
				<rect x="0" y="253.453" width="134.646" height="38.3465" class="st3"/>
				<text x="40.43" y="269.33" class="st4">FLATMEM <tspan x="18.61" dy="1.2em" class="st6">(</tspan>unified management)</text>			</g>
			<g id="shape34-119" transform="translate(21.2598,-267.126)">
				<title>工作表.34</title>
				<desc>physical memory</desc>
				<rect x="0" y="267.626" width="92.126" height="24.1732" class="st3"/>
				<text x="8.03" y="283.01" class="st4">physical memory</text>			</g>
			<g id="group35-122" transform="translate(21.2598,-39.685)">
				<title>工作表.35</title>
				<g id="shape36-123">
					<title>流程</title>
					<g id="shadow36-124" transform="matrix(1,0,0,1,0.345598,1.97279)" class="st7">
						<rect x="0" y="65.0276" width="92.126" height="226.772" class="st8"/>
					</g>
					<rect x="0" y="65.0276" width="92.126" height="226.772" class="st9"/>
				</g>
				<g id="shape37-128" transform="translate(1.59872E-014,-31.1811)">
					<title>流程.2</title>
					<desc>memory.region[0] Node #0</desc>
					<g id="shadow37-129" transform="matrix(1,0,0,1,0.345598,1.97279)" class="st7">
						<rect x="0" y="138.728" width="92.126" height="153.071" class="st10"/>
					</g>
					<rect x="0" y="138.728" width="92.126" height="153.071" class="st11"/>
					<text x="5.89" y="211.96" class="st4">memory.region[0] <tspan x="27.27" dy="1.2em" class="st6">Node </tspan>#0</text>				</g>
			</g>
			<g id="shape38-135" transform="translate(-174.445,67.9646) rotate(-90) scale(-1,1)">
				<title>侧边大括号.38</title>
				<path d="M0 289.25 A2.55114 2.55114 -180 0 0 2.55 291.8 L74.03 291.8 A2.55114 2.55114 0 0 1 76.58 294.35 A2.55114
							 2.55114 0 0 1 79.13 291.8 L150.24 291.8 A2.55114 2.55114 -180 0 0 152.79 289.25" class="st13"/>
			</g>
			<g id="shape41-138" transform="translate(13.4774,64.2795) rotate(-90) scale(-1,1)">
				<title>侧边大括号</title>
				<path d="M0 289.25 A2.55114 2.55114 -180 0 0 2.55 291.8 L21.73 291.8 A2.55114 2.55114 0 0 1 24.28 294.35 A2.55114
							 2.55114 0 0 1 26.83 291.8 L45.64 291.8 A2.55114 2.55114 -180 0 0 48.19 289.25" class="st13"/>
			</g>
			<g id="shape42-141" transform="translate(13.6191,162.075) rotate(-90) scale(-1,1)">
				<title>侧边大括号.42</title>
				<path d="M0 289.25 A2.55114 2.55114 -180 0 0 2.55 291.8 L27.4 291.8 A2.55114 2.55114 0 0 1 29.95 294.35 A2.55114
							 2.55114 0 0 1 32.5 291.8 L56.98 291.8 A2.55114 2.55114 -180 0 0 59.53 289.25" class="st13"/>
			</g>
			<g id="shape43-144" transform="translate(129.035,-140.638)">
				<title>流程</title>
				<desc>page[ ]</desc>
				<g id="shadow43-145" transform="matrix(1,0,0,1,0.345598,1.97279)" class="st7">
					<rect x="0" y="278.193" width="36.8504" height="13.6063" class="st10"/>
				</g>
				<rect x="0" y="278.193" width="36.8504" height="13.6063" class="st14"/>
				<text x="3" y="288.3" class="st4">page[ ]</text>			</g>
			<g id="shape44-150" transform="translate(120.472,-127.457)">
				<title>工作表.44</title>
				<desc>mem_map</desc>
				<rect x="0" y="278.193" width="55.3345" height="13.6063" class="st3"/>
				<text x="4.45" y="288.3" class="st4">mem_map</text>			</g>
			<g id="shape45-153" transform="translate(312.505,-196.622)">
				<title>流程.45</title>
				<desc>page[ ]</desc>
				<g id="shadow45-154" transform="matrix(1,0,0,1,0.345598,1.97279)" class="st7">
					<rect x="0" y="278.193" width="36.8504" height="13.6063" class="st10"/>
				</g>
				<rect x="0" y="278.193" width="36.8504" height="13.6063" class="st14"/>
				<text x="3" y="288.3" class="st4">page[ ]</text>			</g>
			<g id="shape46-159" transform="translate(312.505,-92.874)">
				<title>流程.46</title>
				<desc>page[ ]</desc>
				<g id="shadow46-160" transform="matrix(1,0,0,1,0.345598,1.97279)" class="st7">
					<rect x="0" y="278.193" width="36.8504" height="13.6063" class="st10"/>
				</g>
				<rect x="0" y="278.193" width="36.8504" height="13.6063" class="st14"/>
				<text x="3" y="288.3" class="st4">page[ ]</text>			</g>
			<g id="shape47-165" transform="translate(366.363,-147.866)">
				<title>流程.47</title>
				<desc>node_date[ ]</desc>
				<g id="shadow47-166" transform="matrix(1,0,0,1,0.345598,1.97279)" class="st7">
					<rect x="0" y="278.193" width="60.9449" height="13.6063" class="st10"/>
				</g>
				<rect x="0" y="278.193" width="60.9449" height="13.6063" class="st14"/>
				<text x="2.83" y="288.3" class="st4">node_date[ ]</text>			</g>
			<g id="shape48-171" transform="translate(354.301,-133.976)">
				<title>工作表.48</title>
				<desc>.node_mem_map</desc>
				<rect x="0" y="278.193" width="85.0688" height="13.6063" class="st3"/>
				<text x="4.5" y="288.3" class="st4">.node_mem_map</text>			</g>
			<g id="shape50-174" transform="translate(203.624,348.995) rotate(-138.537)">
				<title>曲线连接 3.50</title>
				<path d="M-0 291.8 A51.2487 51.2487 -180 0 0 59.04 294.85 L59.34 294.64" class="st1"/>
			</g>
			<g id="shape51-179" transform="translate(418.388,-2.34997) rotate(-47.0948)">
				<title>曲线连接 3.51</title>
				<path d="M68.4 291.8 A62.3117 62.3117 0 0 1 4.54 294.51 L4.23 294.33" class="st1"/>
			</g>
			<g id="shape52-184" transform="translate(297.665,48.689) rotate(-90) scale(-1,1)">
				<title>侧边大括号.52</title>
				<path d="M0 289.25 A2.55114 2.55114 -180 0 0 2.55 291.8 L31.65 291.8 A2.55114 2.55114 0 0 1 34.2 294.35 A2.55114
							 2.55114 0 0 1 36.75 291.8 L65.48 291.8 A2.55114 2.55114 -180 0 0 68.03 289.25" class="st13"/>
			</g>
			<g id="shape53-187" transform="translate(297.524,162.5) rotate(-90) scale(-1,1)">
				<title>侧边大括号.53</title>
				<path d="M0 289.25 A2.55114 2.55114 -180 0 0 2.55 291.8 L31.43 291.8 A2.55114 2.55114 0 0 1 33.99 294.35 A2.55114
							 2.55114 0 0 1 36.54 291.8 L65.06 291.8 A2.55114 2.55114 -180 0 0 67.61 289.25" class="st13"/>
			</g>
			<g id="shape54-190" transform="translate(595.276,-202.291)">
				<title>流程.54</title>
				<desc>page[ ]</desc>
				<g id="shadow54-191" transform="matrix(1,0,0,1,0.345598,1.97279)" class="st7">
					<rect x="0" y="278.193" width="36.8504" height="13.6063" class="st10"/>
				</g>
				<rect x="0" y="278.193" width="36.8504" height="13.6063" class="st14"/>
				<text x="3" y="288.3" class="st4">page[ ]</text>			</g>
			<g id="shape55-196" transform="translate(595.276,-88.6929)">
				<title>流程.55</title>
				<desc>page[ ]</desc>
				<g id="shadow55-197" transform="matrix(1,0,0,1,0.345598,1.97279)" class="st7">
					<rect x="0" y="278.193" width="36.8504" height="13.6063" class="st10"/>
				</g>
				<rect x="0" y="278.193" width="36.8504" height="13.6063" class="st14"/>
				<text x="3" y="288.3" class="st4">page[ ]</text>			</g>
			<g id="shape56-202" transform="translate(641.637,-145.598)">
				<title>流程.56</title>
				<desc>mem_section[ ]</desc>
				<g id="shadow56-203" transform="matrix(1,0,0,1,0.345598,1.97279)" class="st7">
					<rect x="0" y="278.193" width="74.1113" height="13.6063" class="st10"/>
				</g>
				<rect x="0" y="278.193" width="74.1113" height="13.6063" class="st14"/>
				<text x="2.69" y="288.3" class="st4">mem_section[ ]</text>			</g>
			<g id="shape57-208" transform="translate(630.503,-131.709)">
				<title>工作表.57</title>
				<desc>.section_mem_map</desc>
				<rect x="0" y="278.193" width="96.378" height="13.6063" class="st3"/>
				<text x="5.27" y="288.3" class="st4">.section_mem_map</text>			</g>
			<g id="shape58-211" transform="translate(465.377,331.7) rotate(-133.027)">
				<title>曲线连接 3.58</title>
				<path d="M0 291.8 A49.5382 49.5382 -180 0 0 64.23 295.23 L64.5 295" class="st1"/>
			</g>
		</g>
	</g>
</svg>
