<?xml version="1.0" encoding="UTF-8" standalone="no"?>
<!DOCTYPE svg PUBLIC "-//W3C//DTD SVG 1.1//EN" "http://www.w3.org/Graphics/SVG/1.1/DTD/svg11.dtd">
<!-- 由 Microsoft Visio, SVG Export 生成 pcp-3.svg 页-1 -->
<svg xmlns="http://www.w3.org/2000/svg" xmlns:xlink="http://www.w3.org/1999/xlink" xmlns:ev="http://www.w3.org/2001/xml-events"
		xmlns:v="http://schemas.microsoft.com/visio/2003/SVGExtensions/" width="7.52586in" height="2.43995in"
		viewBox="0 0 541.862 175.677" xml:space="preserve" color-interpolation-filters="sRGB" class="st21">
	<v:documentProperties v:langID="2052" v:metric="true" v:viewMarkup="false"/>

	<style type="text/css">
	<![CDATA[
		.st1 {visibility:visible}
		.st2 {fill:#5b9bd5;fill-opacity:0.22;filter:url(#filter_2);stroke:#5b9bd5;stroke-opacity:0.22}
		.st3 {fill:#ed7d31;stroke:#000000;stroke-width:0.5}
		.st4 {fill:#000000;font-family:Times New Roman;font-size:0.833336em}
		.st5 {font-size:1em}
		.st6 {stroke:#000000;stroke-dasharray:1.5,1.5;stroke-linecap:round;stroke-linejoin:round;stroke-width:0.5}
		.st7 {fill:#00b0f0;stroke:#000000;stroke-width:0.5}
		.st8 {fill:#000000;font-family:Times New Roman;font-size:0.75em}
		.st9 {fill:#99ff33;stroke:#000000;stroke-width:0.5}
		.st10 {fill:#fff2cc;stroke:#000000;stroke-width:0.5}
		.st11 {fill:#7effff;stroke:#000000;stroke-width:0.5}
		.st12 {fill:none;filter:url(#filter_2);stroke:#5b9bd5;stroke-dasharray:0.75,0.75;stroke-opacity:0.22}
		.st13 {fill:#5b9bd5;filter:url(#filter_2);font-family:Times New Roman;font-size:0.833336em;opacity:0.219608}
		.st14 {fill:none;stroke:#00b0f0;stroke-dasharray:0.75,0.75;stroke-width:0.25}
		.st15 {fill:#ff0000;font-family:Times New Roman;font-size:0.833336em}
		.st16 {fill:none;stroke:none;stroke-width:0.25}
		.st17 {fill:#000000;font-family:宋体;font-size:0.833336em}
		.st18 {font-family:Times New Roman;font-size:1em}
		.st19 {fill:#00b0f0;font-family:宋体;font-size:0.833336em}
		.st20 {fill:#00b0f0;font-family:Times New Roman;font-size:0.833336em}
		.st21 {fill:none;fill-rule:evenodd;font-size:12px;overflow:visible;stroke-linecap:square;stroke-miterlimit:3}
	]]>
	</style>

	<defs id="Filters">
		<filter id="filter_2">
			<feGaussianBlur stdDeviation="2"/>
		</filter>
	</defs>
	<g v:mID="0" v:index="1" v:groupContext="foregroundPage">
		<title>页-1</title>
		<v:pageProperties v:drawingScale="0.0393701" v:pageScale="0.0393701" v:drawingUnits="24" v:shadowOffsetX="8.50394"
				v:shadowOffsetY="-8.50394"/>
		<g id="group58-1" transform="translate(3.0294,-5.34779)" v:mID="58" v:groupContext="group">
			<title>工作表.58</title>
			<g id="shape23-2" v:mID="23" v:groupContext="shape">
				<title>矩形.49</title>
				<desc>free_list[MIGRATE_UNMOVABLE]</desc>
				<v:userDefs>
					<v:ud v:nameU="visVersion" v:val="VT0(15):26"/>
				</v:userDefs>
				<v:textBlock v:margins="rect(4,4,4,4)" v:tabSpace="42.5197"/>
				<v:textRect cx="85.0394" cy="165.047" width="170.08" height="21.2598"/>
				<g id="shadow23-3" v:groupContext="shadow" v:shadowOffsetX="0.345598" v:shadowOffsetY="-1.97279" v:shadowType="1"
						transform="matrix(1,0,0,1,0.345598,1.97279)" class="st1">
					<rect x="0" y="154.417" width="170.079" height="21.2598" rx="1.41732" ry="1.41732" class="st2"/>
				</g>
				<rect x="0" y="154.417" width="170.079" height="21.2598" rx="1.41732" ry="1.41732" class="st3"/>
				<text x="4" y="168.05" class="st4" v:langID="2052"><v:paragraph/><v:tabList/>free_list[<tspan class="st5"
							v:langID="1033">MIGRATE</tspan><tspan class="st5" v:langID="1033">_</tspan><tspan class="st5"
							v:langID="1033">UNMOVABLE</tspan>]</text>			</g>
			<g id="shape24-11" v:mID="24" v:groupContext="shape" transform="translate(0,-21.2598)">
				<title>矩形.50</title>
				<desc>free_list[MIGRATE_MOVABLE]</desc>
				<v:userDefs>
					<v:ud v:nameU="visVersion" v:val="VT0(15):26"/>
				</v:userDefs>
				<v:textBlock v:margins="rect(4,4,4,4)" v:tabSpace="42.5197"/>
				<v:textRect cx="85.0394" cy="165.047" width="170.08" height="21.2598"/>
				<g id="shadow24-12" v:groupContext="shadow" v:shadowOffsetX="0.345598" v:shadowOffsetY="-1.97279" v:shadowType="1"
						transform="matrix(1,0,0,1,0.345598,1.97279)" class="st1">
					<rect x="0" y="154.417" width="170.079" height="21.2598" rx="1.41732" ry="1.41732" class="st2"/>
				</g>
				<rect x="0" y="154.417" width="170.079" height="21.2598" rx="1.41732" ry="1.41732" class="st3"/>
				<text x="4" y="168.05" class="st4" v:langID="2052"><v:paragraph/><v:tabList/>free_list[<tspan class="st5"
							v:langID="1033">MIGRATE</tspan><tspan class="st5" v:langID="1033">_</tspan><tspan class="st5"
							v:langID="1033">MOVABLE</tspan>]</text>			</g>
			<g id="shape25-20" v:mID="25" v:groupContext="shape" transform="translate(0,-42.5197)">
				<title>矩形.51</title>
				<desc>free_list[MIGRATE_RECLAIMABLE]</desc>
				<v:userDefs>
					<v:ud v:nameU="visVersion" v:val="VT0(15):26"/>
				</v:userDefs>
				<v:textBlock v:margins="rect(4,4,4,4)" v:tabSpace="42.5197"/>
				<v:textRect cx="85.0394" cy="165.047" width="170.08" height="21.2598"/>
				<g id="shadow25-21" v:groupContext="shadow" v:shadowOffsetX="0.345598" v:shadowOffsetY="-1.97279" v:shadowType="1"
						transform="matrix(1,0,0,1,0.345598,1.97279)" class="st1">
					<rect x="0" y="154.417" width="170.079" height="21.2598" rx="1.41732" ry="1.41732" class="st2"/>
				</g>
				<rect x="0" y="154.417" width="170.079" height="21.2598" rx="1.41732" ry="1.41732" class="st3"/>
				<text x="4" y="168.05" class="st4" v:langID="2052"><v:paragraph/><v:tabList/>free_list[<tspan class="st5"
							v:langID="1033">MIGRATE</tspan><tspan class="st5" v:langID="1033">_</tspan><tspan class="st5"
							v:langID="1033">RECLAIMABLE</tspan>]</text>			</g>
			<g id="shape26-29" v:mID="26" v:groupContext="shape" transform="translate(170.079,-53.1496)">
				<title>工作表.26</title>
				<path d="M0 175.68 L304.72 175.68" class="st6"/>
			</g>
			<g id="shape27-32" v:mID="27" v:groupContext="shape" transform="translate(170.079,-31.8898)">
				<title>工作表.27</title>
				<path d="M0 175.68 L304.72 175.68" class="st6"/>
			</g>
			<g id="shape28-35" v:mID="28" v:groupContext="shape" transform="translate(170.079,-10.6299)">
				<title>工作表.28</title>
				<path d="M0 175.68 L304.72 175.68" class="st6"/>
			</g>
			<g id="shape30-38" v:mID="30" v:groupContext="shape" transform="translate(212.598,-26.2205)">
				<title>矩形.56</title>
				<desc>page</desc>
				<v:userDefs>
					<v:ud v:nameU="visVersion" v:val="VT0(15):26"/>
				</v:userDefs>
				<v:textBlock v:margins="rect(4,4,4,4)" v:tabSpace="42.5197"/>
				<v:textRect cx="14.1732" cy="170.007" width="28.35" height="11.3386"/>
				<g id="shadow30-39" v:groupContext="shadow" v:shadowOffsetX="0.345598" v:shadowOffsetY="-1.97279" v:shadowType="1"
						transform="matrix(1,0,0,1,0.345598,1.97279)" class="st1">
					<rect x="0" y="164.338" width="28.3465" height="11.3386" rx="1.41732" ry="1.41732" class="st2"/>
				</g>
				<rect x="0" y="164.338" width="28.3465" height="11.3386" rx="1.41732" ry="1.41732" class="st7"/>
				<text x="5.68" y="172.71" class="st8" v:langID="2052"><v:paragraph v:horizAlign="1"/><v:tabList/>page</text>			</g>
			<g id="shape31-44" v:mID="31" v:groupContext="shape" transform="translate(177.165,-26.2205)">
				<title>矩形.57</title>
				<desc>page</desc>
				<v:userDefs>
					<v:ud v:nameU="visVersion" v:val="VT0(15):26"/>
				</v:userDefs>
				<v:textBlock v:margins="rect(4,4,4,4)" v:tabSpace="42.5197"/>
				<v:textRect cx="14.1732" cy="170.007" width="28.35" height="11.3386"/>
				<g id="shadow31-45" v:groupContext="shadow" v:shadowOffsetX="0.345598" v:shadowOffsetY="-1.97279" v:shadowType="1"
						transform="matrix(1,0,0,1,0.345598,1.97279)" class="st1">
					<rect x="0" y="164.338" width="28.3465" height="11.3386" rx="1.41732" ry="1.41732" class="st2"/>
				</g>
				<rect x="0" y="164.338" width="28.3465" height="11.3386" rx="1.41732" ry="1.41732" class="st7"/>
				<text x="5.68" y="172.71" class="st8" v:langID="2052"><v:paragraph v:horizAlign="1"/><v:tabList/>page</text>			</g>
			<g id="shape32-50" v:mID="32" v:groupContext="shape" transform="translate(177.165,-47.4803)">
				<title>矩形.58</title>
				<desc>8</desc>
				<v:userDefs>
					<v:ud v:nameU="visVersion" v:val="VT0(15):26"/>
				</v:userDefs>
				<v:textBlock v:margins="rect(4,4,4,4)" v:tabSpace="42.5197"/>
				<v:textRect cx="7.08661" cy="170.007" width="14.18" height="11.3386"/>
				<g id="shadow32-51" v:groupContext="shadow" v:shadowOffsetX="0.345598" v:shadowOffsetY="-1.97279" v:shadowType="1"
						transform="matrix(1,0,0,1,0.345598,1.97279)" class="st1">
					<rect x="0" y="164.338" width="14.1732" height="11.3386" rx="1.41732" ry="1.41732" class="st2"/>
				</g>
				<rect x="0" y="164.338" width="14.1732" height="11.3386" rx="1.41732" ry="1.41732" class="st9"/>
				<text x="4.84" y="172.71" class="st8" v:langID="2052"><v:paragraph v:horizAlign="1"/><v:tabList/>8</text>			</g>
			<g id="shape33-56" v:mID="33" v:groupContext="shape" transform="translate(198.425,-47.4803)">
				<title>矩形.59</title>
				<desc>5</desc>
				<v:userDefs>
					<v:ud v:nameU="visVersion" v:val="VT0(15):26"/>
				</v:userDefs>
				<v:textBlock v:margins="rect(4,4,4,4)" v:tabSpace="42.5197"/>
				<v:textRect cx="7.08661" cy="170.007" width="14.18" height="11.3386"/>
				<g id="shadow33-57" v:groupContext="shadow" v:shadowOffsetX="0.345598" v:shadowOffsetY="-1.97279" v:shadowType="1"
						transform="matrix(1,0,0,1,0.345598,1.97279)" class="st1">
					<rect x="0" y="164.338" width="14.1732" height="11.3386" rx="1.41732" ry="1.41732" class="st2"/>
				</g>
				<rect x="0" y="164.338" width="14.1732" height="11.3386" rx="1.41732" ry="1.41732" class="st10"/>
				<text x="4.84" y="172.71" class="st8" v:langID="2052"><v:paragraph v:horizAlign="1"/><v:tabList/>5</text>			</g>
			<g id="shape34-62" v:mID="34" v:groupContext="shape" transform="translate(219.685,-47.4803)">
				<title>矩形.60</title>
				<desc>2</desc>
				<v:userDefs>
					<v:ud v:nameU="visVersion" v:val="VT0(15):26"/>
				</v:userDefs>
				<v:textBlock v:margins="rect(4,4,4,4)" v:tabSpace="42.5197"/>
				<v:textRect cx="7.08661" cy="170.007" width="14.18" height="11.3386"/>
				<g id="shadow34-63" v:groupContext="shadow" v:shadowOffsetX="0.345598" v:shadowOffsetY="-1.97279" v:shadowType="1"
						transform="matrix(1,0,0,1,0.345598,1.97279)" class="st1">
					<rect x="0" y="164.338" width="14.1732" height="11.3386" rx="1.41732" ry="1.41732" class="st2"/>
				</g>
				<rect x="0" y="164.338" width="14.1732" height="11.3386" rx="1.41732" ry="1.41732" class="st10"/>
				<text x="4.84" y="172.71" class="st8" v:langID="2052"><v:paragraph v:horizAlign="1"/><v:tabList/>2</text>			</g>
			<g id="shape35-68" v:mID="35" v:groupContext="shape" transform="translate(340.157,-26.2205)">
				<title>矩形.61</title>
				<desc>10</desc>
				<v:userDefs>
					<v:ud v:nameU="visVersion" v:val="VT0(15):26"/>
				</v:userDefs>
				<v:textBlock v:margins="rect(4,4,4,4)" v:tabSpace="42.5197"/>
				<v:textRect cx="8.50394" cy="170.007" width="17.01" height="11.3386"/>
				<g id="shadow35-69" v:groupContext="shadow" v:shadowOffsetX="0.345598" v:shadowOffsetY="-1.97279" v:shadowType="1"
						transform="matrix(1,0,0,1,0.345598,1.97279)" class="st1">
					<rect x="0" y="164.338" width="17.0079" height="11.3386" rx="1.41732" ry="1.41732" class="st2"/>
				</g>
				<rect x="0" y="164.338" width="17.0079" height="11.3386" rx="1.41732" ry="1.41732" class="st11"/>
				<text x="4" y="172.71" class="st8" v:langID="2052"><v:paragraph v:horizAlign="1"/><v:tabList/>10</text>			</g>
			<g id="shape36-74" v:mID="36" v:groupContext="shape" transform="translate(364.252,-26.2205)">
				<title>矩形.62</title>
				<desc>9</desc>
				<v:userDefs>
					<v:ud v:nameU="visVersion" v:val="VT0(15):26"/>
				</v:userDefs>
				<v:textBlock v:margins="rect(4,4,4,4)" v:tabSpace="42.5197"/>
				<v:textRect cx="7.08661" cy="170.007" width="14.18" height="11.3386"/>
				<g id="shadow36-75" v:groupContext="shadow" v:shadowOffsetX="0.345598" v:shadowOffsetY="-1.97279" v:shadowType="1"
						transform="matrix(1,0,0,1,0.345598,1.97279)" class="st1">
					<rect x="0" y="164.338" width="14.1732" height="11.3386" rx="1.41732" ry="1.41732" class="st2"/>
				</g>
				<rect x="0" y="164.338" width="14.1732" height="11.3386" rx="1.41732" ry="1.41732" class="st11"/>
				<text x="4.84" y="172.71" class="st8" v:langID="2052"><v:paragraph v:horizAlign="1"/><v:tabList/>9</text>			</g>
			<g id="shape37-80" v:mID="37" v:groupContext="shape" transform="translate(386.22,-26.2205)">
				<title>矩形.63</title>
				<desc>7</desc>
				<v:userDefs>
					<v:ud v:nameU="visVersion" v:val="VT0(15):26"/>
				</v:userDefs>
				<v:textBlock v:margins="rect(4,4,4,4)" v:tabSpace="42.5197"/>
				<v:textRect cx="7.08661" cy="170.007" width="14.18" height="11.3386"/>
				<g id="shadow37-81" v:groupContext="shadow" v:shadowOffsetX="0.345598" v:shadowOffsetY="-1.97279" v:shadowType="1"
						transform="matrix(1,0,0,1,0.345598,1.97279)" class="st1">
					<rect x="0" y="164.338" width="14.1732" height="11.3386" rx="1.41732" ry="1.41732" class="st2"/>
				</g>
				<rect x="0" y="164.338" width="14.1732" height="11.3386" rx="1.41732" ry="1.41732" class="st9"/>
				<text x="4.84" y="172.71" class="st8" v:langID="2052"><v:paragraph v:horizAlign="1"/><v:tabList/>7</text>			</g>
			<g id="shape38-86" v:mID="38" v:groupContext="shape" transform="translate(407.48,-26.2205)">
				<title>矩形.64</title>
				<desc>6</desc>
				<v:userDefs>
					<v:ud v:nameU="visVersion" v:val="VT0(15):26"/>
				</v:userDefs>
				<v:textBlock v:margins="rect(4,4,4,4)" v:tabSpace="42.5197"/>
				<v:textRect cx="7.08661" cy="170.007" width="14.18" height="11.3386"/>
				<g id="shadow38-87" v:groupContext="shadow" v:shadowOffsetX="0.345598" v:shadowOffsetY="-1.97279" v:shadowType="1"
						transform="matrix(1,0,0,1,0.345598,1.97279)" class="st1">
					<rect x="0" y="164.338" width="14.1732" height="11.3386" rx="1.41732" ry="1.41732" class="st2"/>
				</g>
				<rect x="0" y="164.338" width="14.1732" height="11.3386" rx="1.41732" ry="1.41732" class="st9"/>
				<text x="4.84" y="172.71" class="st8" v:langID="2052"><v:paragraph v:horizAlign="1"/><v:tabList/>6</text>			</g>
			<g id="shape39-92" v:mID="39" v:groupContext="shape" transform="translate(428.74,-26.2205)">
				<title>矩形.65</title>
				<desc>4</desc>
				<v:userDefs>
					<v:ud v:nameU="visVersion" v:val="VT0(15):26"/>
				</v:userDefs>
				<v:textBlock v:margins="rect(4,4,4,4)" v:tabSpace="42.5197"/>
				<v:textRect cx="7.08661" cy="170.007" width="14.18" height="11.3386"/>
				<g id="shadow39-93" v:groupContext="shadow" v:shadowOffsetX="0.345598" v:shadowOffsetY="-1.97279" v:shadowType="1"
						transform="matrix(1,0,0,1,0.345598,1.97279)" class="st1">
					<rect x="0" y="164.338" width="14.1732" height="11.3386" rx="1.41732" ry="1.41732" class="st2"/>
				</g>
				<rect x="0" y="164.338" width="14.1732" height="11.3386" rx="1.41732" ry="1.41732" class="st10"/>
				<text x="4.84" y="172.71" class="st8" v:langID="2052"><v:paragraph v:horizAlign="1"/><v:tabList/>4</text>			</g>
			<g id="shape40-98" v:mID="40" v:groupContext="shape" transform="translate(450,-26.2205)">
				<title>矩形.66</title>
				<desc>1</desc>
				<v:userDefs>
					<v:ud v:nameU="visVersion" v:val="VT0(15):26"/>
				</v:userDefs>
				<v:textBlock v:margins="rect(4,4,4,4)" v:tabSpace="42.5197"/>
				<v:textRect cx="7.08661" cy="170.007" width="14.18" height="11.3386"/>
				<g id="shadow40-99" v:groupContext="shadow" v:shadowOffsetX="0.345598" v:shadowOffsetY="-1.97279" v:shadowType="1"
						transform="matrix(1,0,0,1,0.345598,1.97279)" class="st1">
					<rect x="0" y="164.338" width="14.1732" height="11.3386" rx="1.41732" ry="1.41732" class="st2"/>
				</g>
				<rect x="0" y="164.338" width="14.1732" height="11.3386" rx="1.41732" ry="1.41732" class="st10"/>
				<text x="4.84" y="172.71" class="st8" v:langID="2052"><v:paragraph v:horizAlign="1"/><v:tabList/>1</text>			</g>
			<g id="shape41-104" v:mID="41" v:groupContext="shape" transform="translate(177.165,-4.96063)">
				<title>矩形.67</title>
				<desc>3</desc>
				<v:userDefs>
					<v:ud v:nameU="visVersion" v:val="VT0(15):26"/>
				</v:userDefs>
				<v:textBlock v:margins="rect(4,4,4,4)" v:tabSpace="42.5197"/>
				<v:textRect cx="7.08661" cy="170.007" width="14.18" height="11.3386"/>
				<g id="shadow41-105" v:groupContext="shadow" v:shadowOffsetX="0.345598" v:shadowOffsetY="-1.97279" v:shadowType="1"
						transform="matrix(1,0,0,1,0.345598,1.97279)" class="st1">
					<rect x="0" y="164.338" width="14.1732" height="11.3386" rx="1.41732" ry="1.41732" class="st2"/>
				</g>
				<rect x="0" y="164.338" width="14.1732" height="11.3386" rx="1.41732" ry="1.41732" class="st10"/>
				<text x="4.84" y="172.71" class="st8" v:langID="2052"><v:paragraph v:horizAlign="1"/><v:tabList/>3</text>			</g>
			<g id="shape42-110" v:mID="42" v:groupContext="shape" transform="translate(478.346,-24.8031)">
				<title>圆形</title>
				<desc>1</desc>
				<v:userDefs>
					<v:ud v:nameU="visVersion" v:val="VT0(15):26"/>
				</v:userDefs>
				<v:textBlock v:margins="rect(4,4,4,4)" v:tabSpace="42.5197"/>
				<v:textRect cx="7.08661" cy="168.59" width="12.41" height="10.6299"/>
				<g id="shadow42-111" v:groupContext="shadow" v:shadowOffsetX="0.345598" v:shadowOffsetY="-1.97279" v:shadowType="1"
						transform="matrix(1,0,0,1,0.345598,1.97279)" class="st1">
					<path d="M0 168.59 A7.08661 7.08661 0 1 1 14.17 168.59 A7.08661 7.08661 0 1 1 -0 168.59 Z" class="st12"/>
					<text x="4.89" y="171.59" class="st13" v:langID="2052"><v:paragraph v:horizAlign="1"/><v:tabList/>1</text>				</g>
				<path d="M0 168.59 A7.08661 7.08661 0 1 1 14.17 168.59 A7.08661 7.08661 0 1 1 -0 168.59 Z" class="st14"/>
				<text x="4.89" y="171.59" class="st15" v:langID="2052"><v:paragraph v:horizAlign="1"/><v:tabList/>1</text>			</g>
			<g id="shape43-118" v:mID="43" v:groupContext="shape" transform="translate(478.346,-46.063)">
				<title>圆形.78</title>
				<desc>2</desc>
				<v:userDefs>
					<v:ud v:nameU="visVersion" v:val="VT0(15):26"/>
				</v:userDefs>
				<v:textBlock v:margins="rect(4,4,4,4)" v:tabSpace="42.5197"/>
				<v:textRect cx="7.08661" cy="168.59" width="12.41" height="10.6299"/>
				<g id="shadow43-119" v:groupContext="shadow" v:shadowOffsetX="0.345598" v:shadowOffsetY="-1.97279" v:shadowType="1"
						transform="matrix(1,0,0,1,0.345598,1.97279)" class="st1">
					<path d="M0 168.59 A7.08661 7.08661 0 1 1 14.17 168.59 A7.08661 7.08661 0 1 1 -0 168.59 Z" class="st12"/>
					<text x="4.89" y="171.59" class="st13" v:langID="2052"><v:paragraph v:horizAlign="1"/><v:tabList/>2</text>				</g>
				<path d="M0 168.59 A7.08661 7.08661 0 1 1 14.17 168.59 A7.08661 7.08661 0 1 1 -0 168.59 Z" class="st14"/>
				<text x="4.89" y="171.59" class="st15" v:langID="2052"><v:paragraph v:horizAlign="1"/><v:tabList/>2</text>			</g>
			<g id="shape44-126" v:mID="44" v:groupContext="shape" transform="translate(478.346,-4.96063)">
				<title>圆形.79</title>
				<desc>3</desc>
				<v:userDefs>
					<v:ud v:nameU="visVersion" v:val="VT0(15):26"/>
				</v:userDefs>
				<v:textBlock v:margins="rect(4,4,4,4)" v:tabSpace="42.5197"/>
				<v:textRect cx="7.08661" cy="168.59" width="12.41" height="10.6299"/>
				<g id="shadow44-127" v:groupContext="shadow" v:shadowOffsetX="0.345598" v:shadowOffsetY="-1.97279" v:shadowType="1"
						transform="matrix(1,0,0,1,0.345598,1.97279)" class="st1">
					<path d="M0 168.59 A7.08661 7.08661 0 1 1 14.17 168.59 A7.08661 7.08661 0 1 1 -0 168.59 Z" class="st12"/>
					<text x="4.89" y="171.59" class="st13" v:langID="2052"><v:paragraph v:horizAlign="1"/><v:tabList/>3</text>				</g>
				<path d="M0 168.59 A7.08661 7.08661 0 1 1 14.17 168.59 A7.08661 7.08661 0 1 1 -0 168.59 Z" class="st14"/>
				<text x="4.89" y="171.59" class="st15" v:langID="2052"><v:paragraph v:horizAlign="1"/><v:tabList/>3</text>			</g>
			<g id="shape46-134" v:mID="46" v:groupContext="shape" transform="translate(316.063,-26.2205)">
				<title>矩形.46</title>
				<desc>11</desc>
				<v:userDefs>
					<v:ud v:nameU="visVersion" v:val="VT0(15):26"/>
				</v:userDefs>
				<v:textBlock v:margins="rect(4,4,4,4)" v:tabSpace="42.5197"/>
				<v:textRect cx="8.50394" cy="170.007" width="17.01" height="11.3386"/>
				<g id="shadow46-135" v:groupContext="shadow" v:shadowOffsetX="0.345598" v:shadowOffsetY="-1.97279" v:shadowType="1"
						transform="matrix(1,0,0,1,0.345598,1.97279)" class="st1">
					<rect x="0" y="164.338" width="17.0079" height="11.3386" rx="1.41732" ry="1.41732" class="st2"/>
				</g>
				<rect x="0" y="164.338" width="17.0079" height="11.3386" rx="1.41732" ry="1.41732" class="st11"/>
				<text x="4" y="172.71" class="st8" v:langID="2052"><v:paragraph v:horizAlign="1"/><v:tabList/>11</text>			</g>
			<g id="shape47-140" v:mID="47" v:groupContext="shape" transform="translate(293.386,-26.2205)">
				<title>矩形.47</title>
				<desc>12</desc>
				<v:userDefs>
					<v:ud v:nameU="visVersion" v:val="VT0(15):26"/>
				</v:userDefs>
				<v:textBlock v:margins="rect(4,4,4,4)" v:tabSpace="42.5197"/>
				<v:textRect cx="8.50394" cy="170.007" width="17.01" height="11.3386"/>
				<g id="shadow47-141" v:groupContext="shadow" v:shadowOffsetX="0.345598" v:shadowOffsetY="-1.97279" v:shadowType="1"
						transform="matrix(1,0,0,1,0.345598,1.97279)" class="st1">
					<rect x="0" y="164.338" width="17.0079" height="11.3386" rx="1.41732" ry="1.41732" class="st2"/>
				</g>
				<rect x="0" y="164.338" width="17.0079" height="11.3386" rx="1.41732" ry="1.41732" class="st11"/>
				<text x="4" y="172.71" class="st8" v:langID="2052"><v:paragraph v:horizAlign="1"/><v:tabList/>12</text>			</g>
			<g id="shape48-146" v:mID="48" v:groupContext="shape" transform="translate(270.709,-26.2205)">
				<title>矩形.48</title>
				<desc>13</desc>
				<v:userDefs>
					<v:ud v:nameU="visVersion" v:val="VT0(15):26"/>
				</v:userDefs>
				<v:textBlock v:margins="rect(4,4,4,4)" v:tabSpace="42.5197"/>
				<v:textRect cx="8.50394" cy="170.007" width="17.01" height="11.3386"/>
				<g id="shadow48-147" v:groupContext="shadow" v:shadowOffsetX="0.345598" v:shadowOffsetY="-1.97279" v:shadowType="1"
						transform="matrix(1,0,0,1,0.345598,1.97279)" class="st1">
					<rect x="0" y="164.338" width="17.0079" height="11.3386" rx="1.41732" ry="1.41732" class="st2"/>
				</g>
				<rect x="0" y="164.338" width="17.0079" height="11.3386" rx="1.41732" ry="1.41732" class="st11"/>
				<text x="4" y="172.71" class="st8" v:langID="2052"><v:paragraph v:horizAlign="1"/><v:tabList/>13</text>			</g>
			<g id="shape49-152" v:mID="49" v:groupContext="shape" transform="translate(248.031,-26.2205)">
				<title>Rectangle.49</title>
				<desc>14</desc>
				<v:userDefs>
					<v:ud v:nameU="visVersion" v:val="VT0(15):26"/>
				</v:userDefs>
				<v:textBlock v:margins="rect(4,4,4,4)" v:tabSpace="42.5197"/>
				<v:textRect cx="8.50394" cy="170.007" width="17.01" height="11.3386"/>
				<g id="shadow49-153" v:groupContext="shadow" v:shadowOffsetX="0.345598" v:shadowOffsetY="-1.97279" v:shadowType="1"
						transform="matrix(1,0,0,1,0.345598,1.97279)" class="st1">
					<rect x="0" y="164.338" width="17.0079" height="11.3386" rx="1.41732" ry="1.41732" class="st2"/>
				</g>
				<rect x="0" y="164.338" width="17.0079" height="11.3386" rx="1.41732" ry="1.41732" class="st11"/>
				<text x="4" y="172.71" class="st8" v:langID="2052"><v:paragraph v:horizAlign="1"/><v:tabList/>14</text>			</g>
			<g id="shape50-158" v:mID="50" v:groupContext="shape" transform="translate(85.0394,-120.472)">
				<title>矩形.50</title>
				<v:userDefs>
					<v:ud v:nameU="visVersion" v:val="VT0(15):26"/>
				</v:userDefs>
				<g id="shadow50-159" v:groupContext="shadow" v:shadowOffsetX="0.345598" v:shadowOffsetY="-1.97279" v:shadowType="1"
						transform="matrix(1,0,0,1,0.345598,1.97279)" class="st1">
					<rect x="0" y="161.503" width="14.1732" height="14.1732" rx="1.41732" ry="1.41732" class="st2"/>
				</g>
				<rect x="0" y="161.503" width="14.1732" height="14.1732" rx="1.41732" ry="1.41732" class="st10"/>
			</g>
			<g id="shape51-163" v:mID="51" v:groupContext="shape" transform="translate(99.2126,-120.472)">
				<title>工作表.51</title>
				<desc>都是非空链表轮流循环移除一个页帧(batch_free = 1)</desc>
				<v:textBlock v:margins="rect(4,4,4,4)" v:tabSpace="42.5197"/>
				<v:textRect cx="166.535" cy="168.59" width="333.08" height="14.1732"/>
				<rect x="0" y="161.503" width="333.071" height="14.1732" class="st16"/>
				<text x="0.4em 1.4em 2.4em 3.4em 4.4em 5.4em" y="171.88" class="st17" v:langID="2052"><v:paragraph v:horizAlign="3"/><v:tabList/>都是非空链表<tspan
							x="6.4em" dy="0em" class="st5">，</tspan><tspan x="7.4em 8.4em 9.4em 10.4em 11.4em 12.4em 13.4em 14.4em
								 15.4em 16.4em" dy="0em" class="st5">轮流循环移除一个页帧</tspan><tspan x="17.4em" dy="0em" class="st18">(</tspan><tspan
							x="17.733em 18.233em 18.677em 18.955em 19.399em" dy="0em" class="st18">batch</tspan><tspan x="19.899em"
							dy="0em" class="st18">_</tspan><tspan x="20.399em 20.732em 21.065em 21.508em 21.952em" dy="0em"
							class="st18">free </tspan><tspan x="22.202em 22.766em" dy="0em" class="st18">= </tspan><tspan x="23.016em"
							dy="0em" class="st18">1</tspan><tspan x="23.516em" dy="0em" class="st18">)</tspan></text>			</g>
			<g id="shape52-175" v:mID="52" v:groupContext="shape" transform="translate(85.0394,-99.2126)">
				<title>矩形.52</title>
				<v:userDefs>
					<v:ud v:nameU="visVersion" v:val="VT0(15):26"/>
				</v:userDefs>
				<g id="shadow52-176" v:groupContext="shadow" v:shadowOffsetX="0.345598" v:shadowOffsetY="-1.97279" v:shadowType="1"
						transform="matrix(1,0,0,1,0.345598,1.97279)" class="st1">
					<rect x="0" y="161.503" width="14.1732" height="14.1732" rx="1.41732" ry="1.41732" class="st2"/>
				</g>
				<rect x="0" y="161.503" width="14.1732" height="14.1732" rx="1.41732" ry="1.41732" class="st9"/>
			</g>
			<g id="shape53-180" v:mID="53" v:groupContext="shape" transform="translate(99.2126,-99.2126)">
				<title>工作表.53</title>
				<desc>出现一个空链表其后面被轮询的一个链表一次移除两个页帧(batch_free = 2)</desc>
				<v:textBlock v:margins="rect(4,4,4,4)" v:tabSpace="42.5197"/>
				<v:textRect cx="173.622" cy="168.59" width="347.25" height="14.1732"/>
				<rect x="0" y="161.503" width="347.244" height="14.1732" class="st16"/>
				<text x="0.4em 1.4em 2.4em 3.4em 4.4em 5.4em 6.4em" y="171.88" class="st17" v:langID="2052"><v:paragraph
							v:horizAlign="3"/><v:tabList/>出现一个空链表<tspan x="7.4em" dy="0em" class="st5">，</tspan><tspan x="8.4em 9.4em
								 10.4em 11.4em 12.4em 13.4em 14.4em 15.4em 16.4em 17.4em 18.4em 19.4em 20.4em 21.4em 22.4em 23.4em
								 24.4em 25.4em 26.4em" dy="0em" class="st5">其后面被轮询的一个链表一次移除两个页帧</tspan><tspan x="27.4em" dy="0em"
							class="st18">(</tspan><tspan x="27.733em 28.233em 28.677em 28.955em 29.399em" dy="0em" class="st18">batch</tspan><tspan
							x="29.899em" dy="0em" class="st18">_</tspan><tspan x="30.399em 30.732em 31.065em 31.508em 31.952em"
							dy="0em" class="st18">free </tspan><tspan x="32.202em 32.766em" dy="0em" class="st18">= </tspan><tspan
							x="33.016em" dy="0em" class="st18">2</tspan><tspan x="33.516em" dy="0em" class="st18">)</tspan></text>			</g>
			<g id="shape54-192" v:mID="54" v:groupContext="shape" transform="translate(85.0394,-77.9528)">
				<title>矩形.54</title>
				<v:userDefs>
					<v:ud v:nameU="visVersion" v:val="VT0(15):26"/>
				</v:userDefs>
				<g id="shadow54-193" v:groupContext="shadow" v:shadowOffsetX="0.345598" v:shadowOffsetY="-1.97279" v:shadowType="1"
						transform="matrix(1,0,0,1,0.345598,1.97279)" class="st1">
					<rect x="0" y="161.503" width="14.1732" height="14.1732" rx="1.41732" ry="1.41732" class="st2"/>
				</g>
				<rect x="0" y="161.503" width="14.1732" height="14.1732" rx="1.41732" ry="1.41732" class="st11"/>
			</g>
			<g id="shape55-197" v:mID="55" v:groupContext="shape" transform="translate(99.2126,-77.9528)">
				<title>工作表.55</title>
				<desc>出现两个空链表非空链表一次移除剩余指定数量的页帧(batch_free = count)</desc>
				<v:textBlock v:margins="rect(4,4,4,4)" v:tabSpace="42.5197"/>
				<v:textRect cx="170.079" cy="168.59" width="340.16" height="14.1732"/>
				<rect x="0" y="161.503" width="340.157" height="14.1732" class="st16"/>
				<text x="0.4em 1.4em 2.4em 3.4em 4.4em 5.4em 6.4em" y="171.88" class="st17" v:langID="2052"><v:paragraph
							v:horizAlign="3"/><v:tabList/>出现两个空链表<tspan x="7.4em" dy="0em" class="st5">，</tspan><tspan x="8.4em 9.4em
								 10.4em 11.4em 12.4em 13.4em 14.4em 15.4em 16.4em 17.4em 18.4em 19.4em 20.4em 21.4em 22.4em 23.4em
								 24.4em" dy="0em" class="st5">非空链表一次移除剩余指定数量的页帧</tspan><tspan x="25.4em" dy="0em" class="st18">(</tspan><tspan
							x="25.733em 26.233em 26.677em 26.955em 27.399em" dy="0em" class="st18">batch</tspan><tspan x="27.899em"
							dy="0em" class="st18">_</tspan><tspan x="28.399em 28.732em 29.065em 29.508em 29.952em" dy="0em"
							class="st18">free </tspan><tspan x="30.202em 30.766em" dy="0em" class="st18">= </tspan><tspan x="31.016em
								 31.46em 31.96em 32.46em 32.96em" dy="0em" class="st18">count</tspan><tspan x="33.238em" dy="0em"
							class="st18">)</tspan></text>			</g>
			<g id="shape56-209" v:mID="56" v:groupContext="shape" transform="translate(432.283,-67.3228)">
				<title>工作表.56</title>
				<desc>迁移类型(migratetype)的轮流次序</desc>
				<v:textBlock v:margins="rect(4,4,4,4)" v:tabSpace="42.5197"/>
				<v:textRect cx="53.1496" cy="159.803" width="106.3" height="31.748"/>
				<rect x="0" y="143.929" width="106.299" height="31.748" class="st16"/>
				<text x="5.94" y="156.51" class="st19" v:langID="2052"><v:paragraph v:horizAlign="1"/><v:tabList/>迁移类型<tspan
							class="st18">(</tspan><tspan class="st18">migratetype</tspan><tspan class="st18">)</tspan><tspan
							x="28.15" dy="1.316em" class="st5">的轮流次序</tspan></text>			</g>
			<g id="shape57-216" v:mID="57" v:groupContext="shape" transform="translate(6.39488E-14,-155.906)">
				<title>工作表.57</title>
				<desc>free_pcppages_bulk(zone, count, pcp)</desc>
				<v:textBlock v:margins="rect(4,4,4,4)" v:tabSpace="42.5197"/>
				<v:textRect cx="85.0394" cy="168.59" width="170.08" height="14.1732"/>
				<rect x="0" y="161.503" width="170.079" height="14.1732" class="st16"/>
				<text x="8.68" y="171.59" class="st20" v:langID="2052"><v:paragraph v:horizAlign="1"/><v:tabList/>free_pcppages_bulk(zone, count, pcp)</text>			</g>
		</g>
	</g>
</svg>
