<?xml version="1.0" encoding="UTF-8" standalone="no"?>
<!DOCTYPE svg PUBLIC "-//W3C//DTD SVG 1.1//EN" "http://www.w3.org/Graphics/SVG/1.1/DTD/svg11.dtd">
<!-- 由 Microsoft Visio, SVG Export 生成 pcp-1.svg 页-1 -->
<svg xmlns="http://www.w3.org/2000/svg" xmlns:xlink="http://www.w3.org/1999/xlink" xmlns:ev="http://www.w3.org/2001/xml-events"
		xmlns:v="http://schemas.microsoft.com/visio/2003/SVGExtensions/" width="7.27879in" height="2.78347in"
		viewBox="0 0 524.073 200.41" xml:space="preserve" color-interpolation-filters="sRGB" class="st22">
	<v:documentProperties v:langID="2052" v:metric="true" v:viewMarkup="false"/>

	<style type="text/css">
	<![CDATA[
		.st1 {visibility:visible}
		.st2 {fill:#5b9bd5;fill-opacity:0.22;filter:url(#filter_2);stroke:#5b9bd5;stroke-opacity:0.22}
		.st3 {fill:#f2f2f2;stroke:#000000;stroke-width:0.5}
		.st4 {fill:#ffc000;stroke:#000000;stroke-width:0.5}
		.st5 {fill:#000000;font-family:Times New Roman;font-size:1.00001em}
		.st6 {fill:#000000;font-family:Times New Roman;font-size:0.833336em}
		.st7 {font-size:1em}
		.st8 {fill:#5b9bd5;fill-opacity:0.25;filter:url(#filter_2);stroke:#5b9bd5;stroke-opacity:0.25}
		.st9 {fill:#5b9bd5;fill-opacity:0.25;stroke:#5b9bd5;stroke-opacity:0.25;stroke-width:0.16556291390728}
		.st10 {fill:url(#grad0-37);stroke:#000000;stroke-width:0.5}
		.st11 {fill:#000000;fill-opacity:1;stroke:#000000;stroke-opacity:1;stroke-width:0.16556291390728}
		.st12 {fill:none;stroke:none;stroke-width:0.25}
		.st13 {stroke:#000000;stroke-dasharray:1.5,1.5;stroke-linecap:round;stroke-linejoin:round;stroke-width:0.5}
		.st14 {fill:#7effff;stroke:#000000;stroke-width:0.5}
		.st15 {fill:#000000;font-family:Times New Roman;font-size:0.75em}
		.st16 {fill:#00b0f0;stroke:#000000;stroke-width:0.5}
		.st17 {fill:#5b9bd5;fill-opacity:0.22;filter:url(#filter_2);stroke:#5b9bd5;stroke-dasharray:0.75,1.5;stroke-opacity:0.22}
		.st18 {fill:#f2f2f2;stroke:#0070c0;stroke-dasharray:0.75,1.5;stroke-width:0.75}
		.st19 {fill:#000000;font-family:宋体;font-size:0.833336em}
		.st20 {fill:#ffc000;stroke:#0070c0;stroke-width:0.25}
		.st21 {fill:#00b0f0;font-family:Times New Roman;font-size:0.833336em}
		.st22 {fill:none;fill-rule:evenodd;font-size:12px;overflow:visible;stroke-linecap:square;stroke-miterlimit:3}
	]]>
	</style>

	<defs id="Patterns_And_Gradients">
		<linearGradient id="grad0-37" x1="0" y1="0" x2="1" y2="0" gradientTransform="rotate(0 0.5 0.5)">
			<stop offset="0.02" stop-color="#ff1616" stop-opacity="0.6"/>
			<stop offset="0.5" stop-color="#ffffff" stop-opacity="1"/>
			<stop offset="0.5" stop-color="#ffffff" stop-opacity="1"/>
			<stop offset="1" stop-color="#00b050" stop-opacity="1"/>
		</linearGradient>
	</defs>
	<defs id="Markers">
		<g id="lend43">
			<path d="M 2 -1 L 0 0 L 2 1 M 4 -1 L 2 0 L 4 1 " style="stroke-linecap:round;stroke-linejoin:round;fill:none"/>
		</g>
		<marker id="mrkr43-31" class="st9" v:arrowType="43" v:arrowSize="2" orient="auto" markerUnits="strokeWidth"
				overflow="visible">
			<use xlink:href="#lend43" transform="scale(6.04) "/>
		</marker>
		<marker id="mrkr43-35" class="st11" v:arrowType="43" v:arrowSize="2" orient="auto" markerUnits="strokeWidth"
				overflow="visible">
			<use xlink:href="#lend43" transform="scale(6.04) "/>
		</marker>
	</defs>
	<defs id="Filters">
		<filter id="filter_2">
			<feGaussianBlur stdDeviation="2"/>
		</filter>
	</defs>
	<g v:mID="0" v:index="1" v:groupContext="foregroundPage">
		<title>页-1</title>
		<v:pageProperties v:drawingScale="0.0393701" v:pageScale="0.0393701" v:drawingUnits="24" v:shadowOffsetX="8.50394"
				v:shadowOffsetY="-8.50394"/>
		<g id="group33-1" transform="translate(3.0294,-5.34781)" v:mID="33" v:groupContext="group">
			<title>工作表.33</title>
			<g id="shape28-2" v:mID="28" v:groupContext="shape">
				<title>矩形.28</title>
				<v:userDefs>
					<v:ud v:nameU="visVersion" v:val="VT0(15):26"/>
				</v:userDefs>
				<g id="shadow28-3" v:groupContext="shadow" v:shadowOffsetX="0.345598" v:shadowOffsetY="-1.97279" v:shadowType="1"
						transform="matrix(1,0,0,1,0.345598,1.97279)" class="st1">
					<rect x="0" y="129.544" width="517.323" height="70.8661" rx="2.83465" ry="2.83465" class="st2"/>
				</g>
				<rect x="0" y="129.544" width="517.323" height="70.8661" rx="2.83465" ry="2.83465" class="st3"/>
			</g>
			<g id="shape26-7" v:mID="26" v:groupContext="shape" transform="translate(6.39488E-14,-120.472)">
				<title>矩形</title>
				<v:userDefs>
					<v:ud v:nameU="visVersion" v:val="VT0(15):26"/>
				</v:userDefs>
				<g id="shadow26-8" v:groupContext="shadow" v:shadowOffsetX="0.345598" v:shadowOffsetY="-1.97279" v:shadowType="1"
						transform="matrix(1,0,0,1,0.345598,1.97279)" class="st1">
					<rect x="0" y="129.544" width="517.323" height="70.8661" rx="2.83465" ry="2.83465" class="st2"/>
				</g>
				<rect x="0" y="129.544" width="517.323" height="70.8661" rx="2.83465" ry="2.83465" class="st3"/>
			</g>
			<g id="shape1-12" v:mID="1" v:groupContext="shape" transform="translate(7.08661,-131.102)">
				<title>矩形.21</title>
				<desc>free_area[0]</desc>
				<v:userDefs>
					<v:ud v:nameU="visVersion" v:val="VT0(15):26"/>
				</v:userDefs>
				<v:textBlock v:margins="rect(4,4,4,4)" v:tabSpace="42.5197"/>
				<v:textRect cx="38.9764" cy="189.78" width="77.96" height="21.2598"/>
				<g id="shadow1-13" v:groupContext="shadow" v:shadowOffsetX="0.345598" v:shadowOffsetY="-1.97279" v:shadowType="1"
						transform="matrix(1,0,0,1,0.345598,1.97279)" class="st1">
					<rect x="0" y="179.15" width="77.9528" height="21.2598" rx="1.41732" ry="1.41732" class="st2"/>
				</g>
				<rect x="0" y="179.15" width="77.9528" height="21.2598" rx="1.41732" ry="1.41732" class="st4"/>
				<text x="9.67" y="193.38" class="st5" v:langID="2052"><v:paragraph v:horizAlign="1"/><v:tabList/>free_area[0]</text>			</g>
			<g id="shape2-18" v:mID="2" v:groupContext="shape" transform="translate(85.0394,-131.102)">
				<title>矩形.22</title>
				<desc>free_list[MIGRATE_UNMOVABLE]</desc>
				<v:userDefs>
					<v:ud v:nameU="visVersion" v:val="VT0(15):26"/>
				</v:userDefs>
				<v:textBlock v:margins="rect(4,4,4,4)" v:tabSpace="42.5197"/>
				<v:textRect cx="85.0394" cy="189.78" width="170.08" height="21.2598"/>
				<g id="shadow2-19" v:groupContext="shadow" v:shadowOffsetX="0.345598" v:shadowOffsetY="-1.97279" v:shadowType="1"
						transform="matrix(1,0,0,1,0.345598,1.97279)" class="st1">
					<rect x="0" y="179.15" width="170.079" height="21.2598" rx="1.41732" ry="1.41732" class="st2"/>
				</g>
				<rect x="0" y="179.15" width="170.079" height="21.2598" rx="1.41732" ry="1.41732" class="st4"/>
				<text x="8.11" y="193.38" class="st6" v:langID="2052"><v:paragraph v:horizAlign="1"/><v:tabList/>free_list[<tspan
							class="st7" v:langID="1033">MIGRATE</tspan><tspan class="st7" v:langID="1033">_</tspan><tspan
							class="st7" v:langID="1033">UNMOVABLE</tspan>]</text>			</g>
			<g id="shape3-27" v:mID="3" v:groupContext="shape" transform="translate(290.551,-177.165)">
				<title>普通双箭头</title>
				<v:userDefs>
					<v:ud v:nameU="visVersion" v:val="VT0(15):26"/>
					<v:ud v:nameU="ArrowType" v:prompt="" v:val="VT0(3):26"/>
				</v:userDefs>
				<g id="shadow3-28" v:groupContext="shadow" v:shadowOffsetX="0.345598" v:shadowOffsetY="-1.97279" v:shadowType="1"
						transform="matrix(1,0,0,1,0.345598,1.97279)" class="st1">
					<path d="M1.58 199.87 L15.94 195 a0.566929 0.566929 0 0 1 0.74926 0.536809 L16.69 197.01 a0.566929 0.566929 -180
								 0 0 0.566929 0.566929 L152.82 197.58 a0.566929 0.566929 -180 0 0 0.566929 -0.566929 L153.39 195.53
								 a0.566929 0.566929 0 0 1 0.74926 -0.536809 L168.5 199.87 a0.566929 0.566929 0 0 1 0 1.07362 L154.14
								 205.82 a0.566929 0.566929 0 0 1 -0.74926 -0.536809 L153.39 203.81 a0.566929 0.566929 -180 0 0 -0.566929
								 -0.566929 L17.26 203.24 a0.566929 0.566929 -180 0 0 -0.566929 0.566929 L16.69 205.29 a0.566929 0.566929
								 0 0 1 -0.74926 0.536809 L1.58 200.95 a0.566929 0.566929 0 0 1 -6.43929E-15 -1.07362 Z" class="st8"/>
				</g>
				<path d="M1.58 199.87 L15.94 195 a0.566929 0.566929 0 0 1 0.74926 0.536809 L16.69 197.01 a0.566929 0.566929 -180
							 0 0 0.566929 0.566929 L152.82 197.58 a0.566929 0.566929 -180 0 0 0.566929 -0.566929 L153.39 195.53 a0.566929
							 0.566929 0 0 1 0.74926 -0.536809 L168.5 199.87 a0.566929 0.566929 0 0 1 0 1.07362 L154.14 205.82 a0.566929
							 0.566929 0 0 1 -0.74926 -0.536809 L153.39 203.81 a0.566929 0.566929 -180 0 0 -0.566929 -0.566929 L17.26
							 203.24 a0.566929 0.566929 -180 0 0 -0.566929 0.566929 L16.69 205.29 a0.566929 0.566929 0 0 1 -0.74926
							 0.536809 L1.58 200.95 a0.566929 0.566929 0 0 1 -6.43929E-15 -1.07362 Z" class="st10"/>
			</g>
			<g id="shape4-38" v:mID="4" v:groupContext="shape" transform="translate(255.118,-170.079)">
				<title>工作表.4</title>
				<desc>Hot</desc>
				<v:textBlock v:margins="rect(4,4,4,4)" v:tabSpace="42.5197"/>
				<v:textRect cx="17.7165" cy="193.323" width="35.44" height="14.1732"/>
				<rect x="0" y="186.237" width="35.4331" height="14.1732" class="st12"/>
				<text x="8.72" y="196.92" class="st5" v:langID="2052"><v:paragraph v:horizAlign="1"/><v:tabList/>Hot</text>			</g>
			<g id="shape5-41" v:mID="5" v:groupContext="shape" transform="translate(460.63,-170.079)">
				<title>工作表.5</title>
				<desc>Cold</desc>
				<v:textBlock v:margins="rect(4,4,4,4)" v:tabSpace="42.5197"/>
				<v:textRect cx="17.7165" cy="193.323" width="35.44" height="14.1732"/>
				<rect x="0" y="186.237" width="35.4331" height="14.1732" class="st12"/>
				<text x="6.05" y="196.92" class="st5" v:langID="2052"><v:paragraph v:horizAlign="1"/><v:tabList/>Cold</text>			</g>
			<g id="shape6-44" v:mID="6" v:groupContext="shape" transform="translate(7.08661,-38.9764)">
				<title>矩形.6</title>
				<desc>free_area[0]</desc>
				<v:userDefs>
					<v:ud v:nameU="visVersion" v:val="VT0(15):26"/>
				</v:userDefs>
				<v:textBlock v:margins="rect(4,4,4,4)" v:tabSpace="42.5197"/>
				<v:textRect cx="38.9764" cy="189.78" width="77.96" height="21.2598"/>
				<g id="shadow6-45" v:groupContext="shadow" v:shadowOffsetX="0.345598" v:shadowOffsetY="-1.97279" v:shadowType="1"
						transform="matrix(1,0,0,1,0.345598,1.97279)" class="st1">
					<rect x="0" y="179.15" width="77.9528" height="21.2598" rx="1.41732" ry="1.41732" class="st2"/>
				</g>
				<rect x="0" y="179.15" width="77.9528" height="21.2598" rx="1.41732" ry="1.41732" class="st4"/>
				<text x="9.67" y="193.38" class="st5" v:langID="2052"><v:paragraph v:horizAlign="1"/><v:tabList/>free_area[0]</text>			</g>
			<g id="shape7-50" v:mID="7" v:groupContext="shape" transform="translate(85.0394,-38.9764)">
				<title>矩形.7</title>
				<desc>free_list[MIGRATE_UNMOVABLE]</desc>
				<v:userDefs>
					<v:ud v:nameU="visVersion" v:val="VT0(15):26"/>
				</v:userDefs>
				<v:textBlock v:margins="rect(4,4,4,4)" v:tabSpace="42.5197"/>
				<v:textRect cx="85.0394" cy="189.78" width="170.08" height="21.2598"/>
				<g id="shadow7-51" v:groupContext="shadow" v:shadowOffsetX="0.345598" v:shadowOffsetY="-1.97279" v:shadowType="1"
						transform="matrix(1,0,0,1,0.345598,1.97279)" class="st1">
					<rect x="0" y="179.15" width="170.079" height="21.2598" rx="1.41732" ry="1.41732" class="st2"/>
				</g>
				<rect x="0" y="179.15" width="170.079" height="21.2598" rx="1.41732" ry="1.41732" class="st4"/>
				<text x="8.11" y="193.38" class="st6" v:langID="2052"><v:paragraph v:horizAlign="1"/><v:tabList/>free_list[<tspan
							class="st7" v:langID="1033">MIGRATE</tspan><tspan class="st7" v:langID="1033">_</tspan><tspan
							class="st7" v:langID="1033">UNMOVABLE</tspan>]</text>			</g>
			<g id="shape8-59" v:mID="8" v:groupContext="shape" transform="translate(255.118,-141.732)">
				<title>工作表.8</title>
				<path d="M0 200.41 L248.03 200.41" class="st13"/>
			</g>
			<g id="shape9-62" v:mID="9" v:groupContext="shape" transform="translate(255.118,-49.6063)">
				<title>工作表.9</title>
				<path d="M0 200.41 L240.94 200.41" class="st13"/>
			</g>
			<g id="shape10-65" v:mID="10" v:groupContext="shape" transform="translate(276.378,-136.063)">
				<title>矩形.85</title>
				<desc>1</desc>
				<v:userDefs>
					<v:ud v:nameU="visVersion" v:val="VT0(15):26"/>
				</v:userDefs>
				<v:textBlock v:margins="rect(4,4,4,4)" v:tabSpace="42.5197"/>
				<v:textRect cx="7.08661" cy="194.741" width="14.18" height="11.3386"/>
				<g id="shadow10-66" v:groupContext="shadow" v:shadowOffsetX="0.345598" v:shadowOffsetY="-1.97279" v:shadowType="1"
						transform="matrix(1,0,0,1,0.345598,1.97279)" class="st1">
					<rect x="0" y="189.071" width="14.1732" height="11.3386" rx="1.41732" ry="1.41732" class="st2"/>
				</g>
				<rect x="0" y="189.071" width="14.1732" height="11.3386" rx="1.41732" ry="1.41732" class="st14"/>
				<text x="4.84" y="197.44" class="st15" v:langID="2052"><v:paragraph v:horizAlign="1"/><v:tabList/>1</text>			</g>
			<g id="shape11-71" v:mID="11" v:groupContext="shape" transform="translate(304.724,-136.063)">
				<title>矩形.11</title>
				<desc>2</desc>
				<v:userDefs>
					<v:ud v:nameU="visVersion" v:val="VT0(15):26"/>
				</v:userDefs>
				<v:textBlock v:margins="rect(4,4,4,4)" v:tabSpace="42.5197"/>
				<v:textRect cx="7.08661" cy="194.741" width="14.18" height="11.3386"/>
				<g id="shadow11-72" v:groupContext="shadow" v:shadowOffsetX="0.345598" v:shadowOffsetY="-1.97279" v:shadowType="1"
						transform="matrix(1,0,0,1,0.345598,1.97279)" class="st1">
					<rect x="0" y="189.071" width="14.1732" height="11.3386" rx="1.41732" ry="1.41732" class="st2"/>
				</g>
				<rect x="0" y="189.071" width="14.1732" height="11.3386" rx="1.41732" ry="1.41732" class="st14"/>
				<text x="4.84" y="197.44" class="st15" v:langID="2052"><v:paragraph v:horizAlign="1"/><v:tabList/>2</text>			</g>
			<g id="shape12-77" v:mID="12" v:groupContext="shape" transform="translate(333.071,-136.063)">
				<title>矩形.12</title>
				<desc>3</desc>
				<v:userDefs>
					<v:ud v:nameU="visVersion" v:val="VT0(15):26"/>
				</v:userDefs>
				<v:textBlock v:margins="rect(4,4,4,4)" v:tabSpace="42.5197"/>
				<v:textRect cx="7.08661" cy="194.741" width="14.18" height="11.3386"/>
				<g id="shadow12-78" v:groupContext="shadow" v:shadowOffsetX="0.345598" v:shadowOffsetY="-1.97279" v:shadowType="1"
						transform="matrix(1,0,0,1,0.345598,1.97279)" class="st1">
					<rect x="0" y="189.071" width="14.1732" height="11.3386" rx="1.41732" ry="1.41732" class="st2"/>
				</g>
				<rect x="0" y="189.071" width="14.1732" height="11.3386" rx="1.41732" ry="1.41732" class="st14"/>
				<text x="4.84" y="197.44" class="st15" v:langID="2052"><v:paragraph v:horizAlign="1"/><v:tabList/>3</text>			</g>
			<g id="shape13-83" v:mID="13" v:groupContext="shape" transform="translate(361.417,-136.063)">
				<title>矩形.13</title>
				<desc>page</desc>
				<v:userDefs>
					<v:ud v:nameU="visVersion" v:val="VT0(15):26"/>
				</v:userDefs>
				<v:textBlock v:margins="rect(4,4,4,4)" v:tabSpace="42.5197"/>
				<v:textRect cx="14.1732" cy="194.741" width="28.35" height="11.3386"/>
				<g id="shadow13-84" v:groupContext="shadow" v:shadowOffsetX="0.345598" v:shadowOffsetY="-1.97279" v:shadowType="1"
						transform="matrix(1,0,0,1,0.345598,1.97279)" class="st1">
					<rect x="0" y="189.071" width="28.3465" height="11.3386" rx="1.41732" ry="1.41732" class="st2"/>
				</g>
				<rect x="0" y="189.071" width="28.3465" height="11.3386" rx="1.41732" ry="1.41732" class="st16"/>
				<text x="5.68" y="197.44" class="st15" v:langID="2052"><v:paragraph v:horizAlign="1"/><v:tabList/>page</text>			</g>
			<g id="shape14-89" v:mID="14" v:groupContext="shape" transform="translate(403.937,-136.063)">
				<title>矩形.14</title>
				<desc>page</desc>
				<v:userDefs>
					<v:ud v:nameU="visVersion" v:val="VT0(15):26"/>
				</v:userDefs>
				<v:textBlock v:margins="rect(4,4,4,4)" v:tabSpace="42.5197"/>
				<v:textRect cx="14.1732" cy="194.741" width="28.35" height="11.3386"/>
				<g id="shadow14-90" v:groupContext="shadow" v:shadowOffsetX="0.345598" v:shadowOffsetY="-1.97279" v:shadowType="1"
						transform="matrix(1,0,0,1,0.345598,1.97279)" class="st1">
					<rect x="0" y="189.071" width="28.3465" height="11.3386" rx="1.41732" ry="1.41732" class="st2"/>
				</g>
				<rect x="0" y="189.071" width="28.3465" height="11.3386" rx="1.41732" ry="1.41732" class="st16"/>
				<text x="5.68" y="197.44" class="st15" v:langID="2052"><v:paragraph v:horizAlign="1"/><v:tabList/>page</text>			</g>
			<g id="shape15-95" v:mID="15" v:groupContext="shape" transform="translate(446.457,-136.063)">
				<title>矩形.15</title>
				<desc>page</desc>
				<v:userDefs>
					<v:ud v:nameU="visVersion" v:val="VT0(15):26"/>
				</v:userDefs>
				<v:textBlock v:margins="rect(4,4,4,4)" v:tabSpace="42.5197"/>
				<v:textRect cx="14.1732" cy="194.741" width="28.35" height="11.3386"/>
				<g id="shadow15-96" v:groupContext="shadow" v:shadowOffsetX="0.345598" v:shadowOffsetY="-1.97279" v:shadowType="1"
						transform="matrix(1,0,0,1,0.345598,1.97279)" class="st1">
					<rect x="0" y="189.071" width="28.3465" height="11.3386" rx="1.41732" ry="1.41732" class="st2"/>
				</g>
				<rect x="0" y="189.071" width="28.3465" height="11.3386" rx="1.41732" ry="1.41732" class="st16"/>
				<text x="5.68" y="197.44" class="st15" v:langID="2052"><v:paragraph v:horizAlign="1"/><v:tabList/>page</text>			</g>
			<g id="shape16-101" v:mID="16" v:groupContext="shape" transform="translate(276.378,-43.937)">
				<title>矩形.16</title>
				<desc>page</desc>
				<v:userDefs>
					<v:ud v:nameU="visVersion" v:val="VT0(15):26"/>
				</v:userDefs>
				<v:textBlock v:margins="rect(4,4,4,4)" v:tabSpace="42.5197"/>
				<v:textRect cx="14.1732" cy="194.741" width="28.35" height="11.3386"/>
				<g id="shadow16-102" v:groupContext="shadow" v:shadowOffsetX="0.345598" v:shadowOffsetY="-1.97279" v:shadowType="1"
						transform="matrix(1,0,0,1,0.345598,1.97279)" class="st1">
					<rect x="0" y="189.071" width="28.3465" height="11.3386" rx="1.41732" ry="1.41732" class="st2"/>
				</g>
				<rect x="0" y="189.071" width="28.3465" height="11.3386" rx="1.41732" ry="1.41732" class="st16"/>
				<text x="5.68" y="197.44" class="st15" v:langID="2052"><v:paragraph v:horizAlign="1"/><v:tabList/>page</text>			</g>
			<g id="shape17-107" v:mID="17" v:groupContext="shape" transform="translate(318.898,-43.937)">
				<title>矩形.17</title>
				<desc>page</desc>
				<v:userDefs>
					<v:ud v:nameU="visVersion" v:val="VT0(15):26"/>
				</v:userDefs>
				<v:textBlock v:margins="rect(4,4,4,4)" v:tabSpace="42.5197"/>
				<v:textRect cx="14.1732" cy="194.741" width="28.35" height="11.3386"/>
				<g id="shadow17-108" v:groupContext="shadow" v:shadowOffsetX="0.345598" v:shadowOffsetY="-1.97279" v:shadowType="1"
						transform="matrix(1,0,0,1,0.345598,1.97279)" class="st1">
					<rect x="0" y="189.071" width="28.3465" height="11.3386" rx="1.41732" ry="1.41732" class="st2"/>
				</g>
				<rect x="0" y="189.071" width="28.3465" height="11.3386" rx="1.41732" ry="1.41732" class="st16"/>
				<text x="5.68" y="197.44" class="st15" v:langID="2052"><v:paragraph v:horizAlign="1"/><v:tabList/>page</text>			</g>
			<g id="shape18-113" v:mID="18" v:groupContext="shape" transform="translate(361.417,-43.937)">
				<title>矩形.18</title>
				<desc>1</desc>
				<v:userDefs>
					<v:ud v:nameU="visVersion" v:val="VT0(15):26"/>
				</v:userDefs>
				<v:textBlock v:margins="rect(4,4,4,4)" v:tabSpace="42.5197"/>
				<v:textRect cx="7.08661" cy="194.741" width="14.18" height="11.3386"/>
				<g id="shadow18-114" v:groupContext="shadow" v:shadowOffsetX="0.345598" v:shadowOffsetY="-1.97279" v:shadowType="1"
						transform="matrix(1,0,0,1,0.345598,1.97279)" class="st1">
					<rect x="0" y="189.071" width="14.1732" height="11.3386" rx="1.41732" ry="1.41732" class="st2"/>
				</g>
				<rect x="0" y="189.071" width="14.1732" height="11.3386" rx="1.41732" ry="1.41732" class="st14"/>
				<text x="4.84" y="197.44" class="st15" v:langID="2052"><v:paragraph v:horizAlign="1"/><v:tabList/>1</text>			</g>
			<g id="shape19-119" v:mID="19" v:groupContext="shape" transform="translate(389.764,-43.937)">
				<title>矩形.19</title>
				<desc>2</desc>
				<v:userDefs>
					<v:ud v:nameU="visVersion" v:val="VT0(15):26"/>
				</v:userDefs>
				<v:textBlock v:margins="rect(4,4,4,4)" v:tabSpace="42.5197"/>
				<v:textRect cx="7.08661" cy="194.741" width="14.18" height="11.3386"/>
				<g id="shadow19-120" v:groupContext="shadow" v:shadowOffsetX="0.345598" v:shadowOffsetY="-1.97279" v:shadowType="1"
						transform="matrix(1,0,0,1,0.345598,1.97279)" class="st1">
					<rect x="0" y="189.071" width="14.1732" height="11.3386" rx="1.41732" ry="1.41732" class="st2"/>
				</g>
				<rect x="0" y="189.071" width="14.1732" height="11.3386" rx="1.41732" ry="1.41732" class="st14"/>
				<text x="4.84" y="197.44" class="st15" v:langID="2052"><v:paragraph v:horizAlign="1"/><v:tabList/>2</text>			</g>
			<g id="shape20-125" v:mID="20" v:groupContext="shape" transform="translate(418.11,-43.937)">
				<title>矩形.20</title>
				<desc>3</desc>
				<v:userDefs>
					<v:ud v:nameU="visVersion" v:val="VT0(15):26"/>
				</v:userDefs>
				<v:textBlock v:margins="rect(4,4,4,4)" v:tabSpace="42.5197"/>
				<v:textRect cx="7.08661" cy="194.741" width="14.18" height="11.3386"/>
				<g id="shadow20-126" v:groupContext="shadow" v:shadowOffsetX="0.345598" v:shadowOffsetY="-1.97279" v:shadowType="1"
						transform="matrix(1,0,0,1,0.345598,1.97279)" class="st1">
					<rect x="0" y="189.071" width="14.1732" height="11.3386" rx="1.41732" ry="1.41732" class="st2"/>
				</g>
				<rect x="0" y="189.071" width="14.1732" height="11.3386" rx="1.41732" ry="1.41732" class="st14"/>
				<text x="4.84" y="197.44" class="st15" v:langID="2052"><v:paragraph v:horizAlign="1"/><v:tabList/>3</text>			</g>
			<g id="shape21-131" v:mID="21" v:groupContext="shape" transform="translate(290.551,-14.1732)">
				<title>普通双箭头.21</title>
				<v:userDefs>
					<v:ud v:nameU="visVersion" v:val="VT0(15):26"/>
					<v:ud v:nameU="ArrowType" v:prompt="" v:val="VT0(3):26"/>
				</v:userDefs>
				<g id="shadow21-132" v:groupContext="shadow" v:shadowOffsetX="0.345598" v:shadowOffsetY="-1.97279" v:shadowType="1"
						transform="matrix(1,0,0,1,0.345598,1.97279)" class="st1">
					<path d="M1.58 199.87 L15.94 195 a0.566929 0.566929 0 0 1 0.74926 0.536809 L16.69 197.01 a0.566929 0.566929 -180
								 0 0 0.566929 0.566929 L152.82 197.58 a0.566929 0.566929 -180 0 0 0.566929 -0.566929 L153.39 195.53
								 a0.566929 0.566929 0 0 1 0.74926 -0.536809 L168.5 199.87 a0.566929 0.566929 0 0 1 0 1.07362 L154.14
								 205.82 a0.566929 0.566929 0 0 1 -0.74926 -0.536809 L153.39 203.81 a0.566929 0.566929 -180 0 0 -0.566929
								 -0.566929 L17.26 203.24 a0.566929 0.566929 -180 0 0 -0.566929 0.566929 L16.69 205.29 a0.566929 0.566929
								 0 0 1 -0.74926 0.536809 L1.58 200.95 a0.566929 0.566929 0 0 1 -6.43929E-15 -1.07362 Z" class="st8"/>
				</g>
				<path d="M1.58 199.87 L15.94 195 a0.566929 0.566929 0 0 1 0.74926 0.536809 L16.69 197.01 a0.566929 0.566929 -180
							 0 0 0.566929 0.566929 L152.82 197.58 a0.566929 0.566929 -180 0 0 0.566929 -0.566929 L153.39 195.53 a0.566929
							 0.566929 0 0 1 0.74926 -0.536809 L168.5 199.87 a0.566929 0.566929 0 0 1 0 1.07362 L154.14 205.82 a0.566929
							 0.566929 0 0 1 -0.74926 -0.536809 L153.39 203.81 a0.566929 0.566929 -180 0 0 -0.566929 -0.566929 L17.26
							 203.24 a0.566929 0.566929 -180 0 0 -0.566929 0.566929 L16.69 205.29 a0.566929 0.566929 0 0 1 -0.74926
							 0.536809 L1.58 200.95 a0.566929 0.566929 0 0 1 -6.43929E-15 -1.07362 Z" class="st10"/>
			</g>
			<g id="shape22-139" v:mID="22" v:groupContext="shape" transform="translate(255.118,-7.08661)">
				<title>工作表.22</title>
				<desc>Hot</desc>
				<v:textBlock v:margins="rect(4,4,4,4)" v:tabSpace="42.5197"/>
				<v:textRect cx="17.7165" cy="193.323" width="35.44" height="14.1732"/>
				<rect x="0" y="186.237" width="35.4331" height="14.1732" class="st12"/>
				<text x="8.72" y="196.92" class="st5" v:langID="2052"><v:paragraph v:horizAlign="1"/><v:tabList/>Hot</text>			</g>
			<g id="shape23-142" v:mID="23" v:groupContext="shape" transform="translate(460.63,-7.08661)">
				<title>工作表.23</title>
				<desc>Cold</desc>
				<v:textBlock v:margins="rect(4,4,4,4)" v:tabSpace="42.5197"/>
				<v:textRect cx="17.7165" cy="193.323" width="35.44" height="14.1732"/>
				<rect x="0" y="186.237" width="35.4331" height="14.1732" class="st12"/>
				<text x="6.05" y="196.92" class="st5" v:langID="2052"><v:paragraph v:horizAlign="1"/><v:tabList/>Cold</text>			</g>
			<g id="shape24-145" v:mID="24" v:groupContext="shape" transform="translate(377.362,-77.9528)">
				<title>二维文字提示框.47</title>
				<desc>批量请求一定数量的页帧</desc>
				<v:userDefs>
					<v:ud v:nameU="Scale" v:val="VT0(1):26"/>
					<v:ud v:nameU="AntiScale" v:val="VT0(1):26"/>
					<v:ud v:nameU="visVersion" v:val="VT0(15):26"/>
				</v:userDefs>
				<v:textBlock v:margins="rect(4,4,4,4)" v:tabSpace="42.5197"/>
				<v:textRect cx="40.748" cy="186.237" width="81.5" height="28.3465"/>
				<g id="shadow24-146" v:groupContext="shadow" v:shadowOffsetX="0.345598" v:shadowOffsetY="-1.97279" v:shadowType="1"
						transform="matrix(1,0,0,1,0.345598,1.97279)" class="st1">
					<path d="M0 181.68 L0 172.77 a0.708661 0.708661 0 0 1 0.708661 -0.708661 L30.56 172.06 L40.75 172.06 L50.94 172.06
								 L80.79 172.06 a0.708661 0.708661 0 0 1 0.708661 0.708661 L81.5 182.69 L81.5 186.24 L81.5 189.78
								 L81.5 199.7 a0.708661 0.708661 0 0 1 -0.708661 0.708661 L50.94 200.41 L40.75 200.41 L30.56 200.41
								 L0.71 200.41 a0.708661 0.708661 0 0 1 -0.708661 -0.708661 L0 190.15 a0.708661 0.708661 -180 0 0
								 -0.302271 -0.580558 L-16.81 178.02 a0.708661 0.708661 0 0 1 0.650351 -1.2459 L-0.95 182.34 a0.708661
								 0.708661 -180 0 0 0.952621 -0.665345 Z" class="st17"/>
				</g>
				<path d="M0 181.68 L0 172.77 a0.708661 0.708661 0 0 1 0.708661 -0.708661 L30.56 172.06 L40.75 172.06 L50.94 172.06
							 L80.79 172.06 a0.708661 0.708661 0 0 1 0.708661 0.708661 L81.5 182.69 L81.5 186.24 L81.5 189.78 L81.5
							 199.7 a0.708661 0.708661 0 0 1 -0.708661 0.708661 L50.94 200.41 L40.75 200.41 L30.56 200.41 L0.71 200.41
							 a0.708661 0.708661 0 0 1 -0.708661 -0.708661 L0 190.15 a0.708661 0.708661 -180 0 0 -0.302271 -0.580558
							 L-16.81 178.02 a0.708661 0.708661 0 0 1 0.650351 -1.2459 L-0.95 182.34 a0.708661 0.708661 -180 0 0 0.952621
							 -0.665345 Z" class="st18"/>
				<text x="4" y="182.66" class="st19" v:langID="2052"><v:paragraph/><v:tabList/>批量请求一定数<tspan x="4" dy="1.287em"
							class="st7">量的页帧</tspan></text>			</g>
			<g id="shape25-152" v:mID="25" v:groupContext="shape" transform="translate(153.921,125.575) rotate(-90)">
				<title>普通箭头</title>
				<v:userDefs>
					<v:ud v:nameU="visVersion" v:val="VT0(15):26"/>
					<v:ud v:nameU="ArrowType" v:prompt="" v:val="VT0(2):26"/>
				</v:userDefs>
				<g id="shadow25-153" v:groupContext="shadow" v:shadowOffsetX="0.345598" v:shadowOffsetY="-1.97279" v:shadowType="1"
						transform="matrix(1,0,0,1,-1.97279,0.345598)" class="st1">
					<path d="M0 200.41 L8.79 195.31 L8.79 197.86 L42.52 197.86 L42.52 200.41 L42.52 202.96 L8.79 202.96 L8.79 205.51
								 L0 200.41 Z" class="st8"/>
				</g>
				<path d="M0 200.41 L8.79 195.31 L8.79 197.86 L42.52 197.86 L42.52 200.41 L42.52 202.96 L8.79 202.96 L8.79 205.51
							 L0 200.41 Z" class="st20"/>
			</g>
			<g id="shape27-157" v:mID="27" v:groupContext="shape" transform="translate(14.1732,-170.079)">
				<title>工作表.27</title>
				<desc>Buddy Core</desc>
				<v:textBlock v:margins="rect(4,4,4,4)" v:tabSpace="42.5197"/>
				<v:textRect cx="35.4331" cy="193.323" width="70.87" height="14.1732"/>
				<rect x="0" y="186.237" width="70.8661" height="14.1732" class="st12"/>
				<text x="11.13" y="196.32" class="st21" v:langID="2052"><v:paragraph v:horizAlign="1"/><v:tabList/>Buddy Core</text>			</g>
			<g id="shape29-160" v:mID="29" v:groupContext="shape" transform="translate(14.1732,0)">
				<title>工作表.29</title>
				<desc>PCP (Per-CPU Page Frame Cache)</desc>
				<v:textBlock v:margins="rect(4,4,4,4)" v:tabSpace="42.5197"/>
				<v:textRect cx="77.9528" cy="193.323" width="155.91" height="14.1732"/>
				<rect x="0" y="186.237" width="155.906" height="14.1732" class="st12"/>
				<text x="7.68" y="196.32" class="st21" v:langID="2052"><v:paragraph v:horizAlign="1"/><v:tabList/>PCP (Per-CPU Page Frame Cache)</text>			</g>
			<g id="shape32-163" v:mID="32" v:groupContext="shape" transform="translate(265.748,-92.126)">
				<title>工作表.32</title>
				<desc>rmqueue_bulk()</desc>
				<v:textBlock v:margins="rect(4,4,4,4)" v:tabSpace="42.5197"/>
				<v:textRect cx="40.748" cy="193.323" width="81.5" height="14.1732"/>
				<rect x="0" y="186.237" width="81.4961" height="14.1732" class="st12"/>
				<text x="8.54" y="196.32" class="st21" v:langID="2052"><v:paragraph v:horizAlign="1"/><v:tabList/>rmqueue_bulk()</text>			</g>
		</g>
	</g>
</svg>
