<?xml version="1.0" encoding="UTF-8" standalone="no"?>
<!DOCTYPE svg PUBLIC "-//W3C//DTD SVG 1.1//EN" "http://www.w3.org/Graphics/SVG/1.1/DTD/svg11.dtd">
<!-- 由 Microsoft Visio, SVG Export 生成 pcpu_unit_to_cpu.svg 页-1 -->
<svg xmlns="http://www.w3.org/2000/svg" xmlns:xlink="http://www.w3.org/1999/xlink" xmlns:ev="http://www.w3.org/2001/xml-events"
		xmlns:v="http://schemas.microsoft.com/visio/2003/SVGExtensions/" width="2.361in" height="2.19994in"
		viewBox="0 0 169.992 158.396" xml:space="preserve" color-interpolation-filters="sRGB" class="st12">
	<v:documentProperties v:langID="2052" v:metric="true" v:viewMarkup="false"/>

	<style type="text/css">
	<![CDATA[
		.st1 {visibility:visible}
		.st2 {fill:#5b9bd5;fill-opacity:0.22;filter:url(#filter_2);stroke:#5b9bd5;stroke-opacity:0.22}
		.st3 {fill:#00b0f0;stroke:#000000;stroke-width:1}
		.st4 {fill:#000000;font-family:Times New Roman;font-size:0.833336em}
		.st5 {fill:none;filter:url(#filter_2);stroke:#5b9bd5;stroke-opacity:0.22}
		.st6 {fill:none;stroke:#000000;stroke-width:1}
		.st7 {fill:#5b9bd5;filter:url(#filter_2);font-family:Times New Roman;font-size:0.833336em;opacity:0.219608}
		.st8 {stroke:#000000;stroke-dasharray:15,9;stroke-linecap:round;stroke-linejoin:round;stroke-width:1}
		.st9 {fill:#ffc000;stroke:#000000;stroke-width:1}
		.st10 {marker-end:url(#mrkr3-74);stroke:#000000;stroke-linecap:round;stroke-linejoin:round;stroke-width:0.75}
		.st11 {fill:#000000;fill-opacity:1;stroke:#000000;stroke-opacity:1;stroke-width:0.22935779816514}
		.st12 {fill:none;fill-rule:evenodd;font-size:12px;overflow:visible;stroke-linecap:square;stroke-miterlimit:3}
	]]>
	</style>

	<defs id="Markers">
		<g id="lend3">
			<path d="M 2 1 L 0 0 L 2 -1 " style="stroke-linecap:round;stroke-linejoin:round;fill:none"/>
		</g>
		<marker id="mrkr3-74" class="st11" v:arrowType="3" v:arrowSize="2" orient="auto" markerUnits="strokeWidth"
				overflow="visible">
			<use xlink:href="#lend3" transform="scale(-4.36,-4.36) "/>
		</marker>
	</defs>
	<defs id="Filters">
		<filter id="filter_2">
			<feGaussianBlur stdDeviation="2"/>
		</filter>
	</defs>
	<g v:mID="0" v:index="1" v:groupContext="foregroundPage">
		<title>页-1</title>
		<v:pageProperties v:drawingScale="0.0393701" v:pageScale="0.0393701" v:drawingUnits="24" v:shadowOffsetX="8.50394"
				v:shadowOffsetY="-8.50394"/>
		<v:layer v:name="连接线" v:index="0"/>
		<g id="group28-1" transform="translate(3.1544,-8.04949)" v:mID="28" v:groupContext="group">
			<title>工作表.28</title>
			<g id="shape1-2" v:mID="1" v:groupContext="shape" transform="translate(1.19904E-14,-134.646)">
				<title>矩形</title>
				<desc>0</desc>
				<v:userDefs>
					<v:ud v:nameU="visVersion" v:val="VT0(15):26"/>
				</v:userDefs>
				<v:textBlock v:margins="rect(4,4,4,4)" v:tabSpace="42.5197"/>
				<v:textRect cx="31.8898" cy="151.309" width="63.78" height="14.1732"/>
				<g id="shadow1-3" v:groupContext="shadow" v:shadowOffsetX="0.345598" v:shadowOffsetY="-1.97279" v:shadowType="1"
						transform="matrix(1,0,0,1,0.345598,1.97279)" class="st1">
					<rect x="0" y="144.222" width="63.7795" height="14.1732" class="st2"/>
				</g>
				<rect x="0" y="144.222" width="63.7795" height="14.1732" class="st3"/>
				<text x="29.39" y="154.31" class="st4" v:langID="2052"><v:paragraph v:horizAlign="1"/><v:tabList/>0</text>			</g>
			<g id="shape2-8" v:mID="2" v:groupContext="shape" transform="translate(1.19904E-14,-120.472)">
				<title>矩形.2</title>
				<desc>1</desc>
				<v:userDefs>
					<v:ud v:nameU="visVersion" v:val="VT0(15):26"/>
				</v:userDefs>
				<v:textBlock v:margins="rect(4,4,4,4)" v:tabSpace="42.5197"/>
				<v:textRect cx="31.8898" cy="151.309" width="63.78" height="14.1732"/>
				<g id="shadow2-9" v:groupContext="shadow" v:shadowOffsetX="0.345598" v:shadowOffsetY="-1.97279" v:shadowType="1"
						transform="matrix(1,0,0,1,0.345598,1.97279)" class="st1">
					<rect x="0" y="144.222" width="63.7795" height="14.1732" class="st2"/>
				</g>
				<rect x="0" y="144.222" width="63.7795" height="14.1732" class="st3"/>
				<text x="29.39" y="154.31" class="st4" v:langID="2052"><v:paragraph v:horizAlign="1"/><v:tabList/>1</text>			</g>
			<g id="shape3-14" v:mID="3" v:groupContext="shape" transform="translate(1.19904E-14,-106.299)">
				<title>矩形.3</title>
				<desc>2</desc>
				<v:userDefs>
					<v:ud v:nameU="visVersion" v:val="VT0(15):26"/>
				</v:userDefs>
				<v:textBlock v:margins="rect(4,4,4,4)" v:tabSpace="42.5197"/>
				<v:textRect cx="31.8898" cy="151.309" width="63.78" height="14.1732"/>
				<g id="shadow3-15" v:groupContext="shadow" v:shadowOffsetX="0.345598" v:shadowOffsetY="-1.97279" v:shadowType="1"
						transform="matrix(1,0,0,1,0.345598,1.97279)" class="st1">
					<rect x="0" y="144.222" width="63.7795" height="14.1732" class="st2"/>
				</g>
				<rect x="0" y="144.222" width="63.7795" height="14.1732" class="st3"/>
				<text x="29.39" y="154.31" class="st4" v:langID="2052"><v:paragraph v:horizAlign="1"/><v:tabList/>2</text>			</g>
			<g id="shape4-20" v:mID="4" v:groupContext="shape" transform="translate(1.19904E-14,-92.126)">
				<title>矩形.4</title>
				<desc>3</desc>
				<v:userDefs>
					<v:ud v:nameU="visVersion" v:val="VT0(15):26"/>
				</v:userDefs>
				<v:textBlock v:margins="rect(4,4,4,4)" v:tabSpace="42.5197"/>
				<v:textRect cx="31.8898" cy="151.309" width="63.78" height="14.1732"/>
				<g id="shadow4-21" v:groupContext="shadow" v:shadowOffsetX="0.345598" v:shadowOffsetY="-1.97279" v:shadowType="1"
						transform="matrix(1,0,0,1,0.345598,1.97279)" class="st1">
					<rect x="0" y="144.222" width="63.7795" height="14.1732" class="st2"/>
				</g>
				<rect x="0" y="144.222" width="63.7795" height="14.1732" class="st3"/>
				<text x="29.39" y="154.31" class="st4" v:langID="2052"><v:paragraph v:horizAlign="1"/><v:tabList/>3</text>			</g>
			<g id="shape5-26" v:mID="5" v:groupContext="shape" transform="translate(1.19904E-14,-77.9528)">
				<title>矩形.5</title>
				<v:userDefs>
					<v:ud v:nameU="visVersion" v:val="VT0(15):26"/>
				</v:userDefs>
				<g id="shadow5-27" v:groupContext="shadow" v:shadowOffsetX="0.345598" v:shadowOffsetY="-1.97279" v:shadowType="1"
						transform="matrix(1,0,0,1,0.345598,1.97279)" class="st1">
					<rect x="0" y="144.222" width="63.7795" height="14.1732" class="st5"/>
				</g>
				<rect x="0" y="144.222" width="63.7795" height="14.1732" class="st6"/>
			</g>
			<g id="shape7-31" v:mID="7" v:groupContext="shape">
				<title>矩形.7</title>
				<desc>NR_CPUS -1</desc>
				<v:userDefs>
					<v:ud v:nameU="visVersion" v:val="VT0(15):26"/>
				</v:userDefs>
				<v:textBlock v:margins="rect(4,4,4,4)" v:tabSpace="42.5197"/>
				<v:textRect cx="31.8898" cy="151.309" width="63.78" height="14.1732"/>
				<g id="shadow7-32" v:groupContext="shadow" v:shadowOffsetX="0.345598" v:shadowOffsetY="-1.97279" v:shadowType="1"
						transform="matrix(1,0,0,1,0.345598,1.97279)" class="st1">
					<rect x="0" y="144.222" width="63.7795" height="14.1732" class="st5"/>
					<text x="4.52" y="154.31" class="st7" v:langID="2052"><v:paragraph v:horizAlign="1"/><v:tabList/>NR_CPUS -1</text>				</g>
				<rect x="0" y="144.222" width="63.7795" height="14.1732" class="st6"/>
				<text x="4.52" y="154.31" class="st4" v:langID="2052"><v:paragraph v:horizAlign="1"/><v:tabList/>NR_CPUS -1</text>			</g>
			<g id="shape8-39" v:mID="8" v:groupContext="shape" transform="translate(158.396,80.4428) rotate(90)">
				<title>工作表.8</title>
				<path d="M0 158.4 L71.99 158.4" class="st8"/>
			</g>
			<g id="shape9-42" v:mID="9" v:groupContext="shape" transform="translate(222.175,80.4428) rotate(90)">
				<title>工作表.9</title>
				<path d="M0 158.4 L70.87 158.4" class="st8"/>
			</g>
			<g id="shape10-45" v:mID="10" v:groupContext="shape" transform="translate(106.299,-113.386)">
				<title>矩形.10</title>
				<desc>Unit #0</desc>
				<v:userDefs>
					<v:ud v:nameU="visVersion" v:val="VT0(15):26"/>
				</v:userDefs>
				<v:textBlock v:margins="rect(4,4,4,4)" v:tabSpace="42.5197"/>
				<v:textRect cx="28.3465" cy="147.766" width="56.7" height="21.2598"/>
				<g id="shadow10-46" v:groupContext="shadow" v:shadowOffsetX="0.345598" v:shadowOffsetY="-1.97279" v:shadowType="1"
						transform="matrix(1,0,0,1,0.345598,1.97279)" class="st1">
					<rect x="0" y="137.136" width="56.6929" height="21.2598" rx="5.66929" ry="5.66929" class="st2"/>
				</g>
				<rect x="0" y="137.136" width="56.6929" height="21.2598" rx="5.66929" ry="5.66929" class="st9"/>
				<text x="13.21" y="150.77" class="st4" v:langID="2052"><v:paragraph v:horizAlign="1"/><v:tabList/>Unit #0</text>			</g>
			<g id="shape11-51" v:mID="11" v:groupContext="shape" transform="translate(106.299,-42.5197)">
				<title>矩形.11</title>
				<desc>Unit #2</desc>
				<v:userDefs>
					<v:ud v:nameU="visVersion" v:val="VT0(15):26"/>
				</v:userDefs>
				<v:textBlock v:margins="rect(4,4,4,4)" v:tabSpace="42.5197"/>
				<v:textRect cx="28.3465" cy="147.766" width="56.7" height="21.2598"/>
				<g id="shadow11-52" v:groupContext="shadow" v:shadowOffsetX="0.345598" v:shadowOffsetY="-1.97279" v:shadowType="1"
						transform="matrix(1,0,0,1,0.345598,1.97279)" class="st1">
					<rect x="0" y="137.136" width="56.6929" height="21.2598" rx="5.66929" ry="5.66929" class="st2"/>
				</g>
				<rect x="0" y="137.136" width="56.6929" height="21.2598" rx="5.66929" ry="5.66929" class="st9"/>
				<text x="13.21" y="150.77" class="st4" v:langID="2052"><v:paragraph v:horizAlign="1"/><v:tabList/>Unit #2</text>			</g>
			<g id="shape12-57" v:mID="12" v:groupContext="shape" transform="translate(106.299,-77.9528)">
				<title>矩形.12</title>
				<desc>Unit #1</desc>
				<v:userDefs>
					<v:ud v:nameU="visVersion" v:val="VT0(15):26"/>
				</v:userDefs>
				<v:textBlock v:margins="rect(4,4,4,4)" v:tabSpace="42.5197"/>
				<v:textRect cx="28.3465" cy="147.766" width="56.7" height="21.2598"/>
				<g id="shadow12-58" v:groupContext="shadow" v:shadowOffsetX="0.345598" v:shadowOffsetY="-1.97279" v:shadowType="1"
						transform="matrix(1,0,0,1,0.345598,1.97279)" class="st1">
					<rect x="0" y="137.136" width="56.6929" height="21.2598" rx="5.66929" ry="5.66929" class="st2"/>
				</g>
				<rect x="0" y="137.136" width="56.6929" height="21.2598" rx="5.66929" ry="5.66929" class="st9"/>
				<text x="13.21" y="150.77" class="st4" v:langID="2052"><v:paragraph v:horizAlign="1"/><v:tabList/>Unit #1</text>			</g>
			<g id="shape13-63" v:mID="13" v:groupContext="shape" transform="translate(106.299,-7.08661)">
				<title>矩形.13</title>
				<desc>Unit #3</desc>
				<v:userDefs>
					<v:ud v:nameU="visVersion" v:val="VT0(15):26"/>
				</v:userDefs>
				<v:textBlock v:margins="rect(4,4,4,4)" v:tabSpace="42.5197"/>
				<v:textRect cx="28.3465" cy="147.766" width="56.7" height="21.2598"/>
				<g id="shadow13-64" v:groupContext="shadow" v:shadowOffsetX="0.345598" v:shadowOffsetY="-1.97279" v:shadowType="1"
						transform="matrix(1,0,0,1,0.345598,1.97279)" class="st1">
					<rect x="0" y="137.136" width="56.6929" height="21.2598" rx="5.66929" ry="5.66929" class="st2"/>
				</g>
				<rect x="0" y="137.136" width="56.6929" height="21.2598" rx="5.66929" ry="5.66929" class="st9"/>
				<text x="13.21" y="150.77" class="st4" v:langID="2052"><v:paragraph v:horizAlign="1"/><v:tabList/>Unit #3</text>			</g>
			<g id="shape14-69" v:mID="14" v:groupContext="shape" v:layerMember="0"
					transform="translate(124.701,-129.548) rotate(22.6199)">
				<title>曲线连接 1</title>
				<v:userDefs>
					<v:ud v:nameU="Scale" v:val="VT0(1):26"/>
					<v:ud v:nameU="AntiScale" v:val="VT0(1):26"/>
					<v:ud v:nameU="visVersion" v:val="VT0(15):26"/>
				</v:userDefs>
				<path d="M-0 158.4 A43.9438 43.9438 0 0 1 23.44 158.4 A42.4108 42.4108 -180 0 0 46.06 158.4" class="st10"/>
			</g>
			<g id="shape25-75" v:mID="25" v:groupContext="shape" v:layerMember="0"
					transform="translate(170.811,-85.9254) rotate(42.5104)">
				<title>曲线连接 1.25</title>
				<v:userDefs>
					<v:ud v:nameU="Scale" v:val="VT0(1):26"/>
					<v:ud v:nameU="AntiScale" v:val="VT0(1):26"/>
					<v:ud v:nameU="visVersion" v:val="VT0(15):26"/>
				</v:userDefs>
				<path d="M0 158.4 A139.655 139.655 0 0 1 32.06 158.4 A111.625 111.625 -180 0 0 57.68 158.4" class="st10"/>
			</g>
			<g id="shape26-80" v:mID="26" v:groupContext="shape" v:layerMember="0"
					transform="translate(193.184,-46.3343) rotate(54.7824)">
				<title>曲线连接 1.26</title>
				<v:userDefs>
					<v:ud v:nameU="Scale" v:val="VT0(1):26"/>
					<v:ud v:nameU="AntiScale" v:val="VT0(1):26"/>
					<v:ud v:nameU="visVersion" v:val="VT0(15):26"/>
				</v:userDefs>
				<path d="M-0 158.4 A65.3007 65.3007 0 0 1 47.27 158.4 A36.5552 36.5552 -180 0 0 73.73 158.4" class="st10"/>
			</g>
			<g id="shape27-85" v:mID="27" v:groupContext="shape" v:layerMember="0"
					transform="translate(204.211,-14.0854) rotate(62.4472)">
				<title>曲线连接 1.27</title>
				<v:userDefs>
					<v:ud v:nameU="Scale" v:val="VT0(1):26"/>
					<v:ud v:nameU="AntiScale" v:val="VT0(1):26"/>
					<v:ud v:nameU="visVersion" v:val="VT0(15):26"/>
				</v:userDefs>
				<path d="M-0 158.4 A79.7585 79.7585 0 0 1 41.79 158.4 A95.6581 95.6581 -180 0 0 91.92 158.4" class="st10"/>
			</g>
		</g>
	</g>
</svg>
