<?xml version="1.0" encoding="UTF-8" standalone="no"?>
<!DOCTYPE svg PUBLIC "-//W3C//DTD SVG 1.1//EN" "http://www.w3.org/Graphics/SVG/1.1/DTD/svg11.dtd">
<!-- 由 Microsoft Visio, SVG Export 生成 percpu_unit_offset.svg 页-1 -->
<svg xmlns="http://www.w3.org/2000/svg" xmlns:xlink="http://www.w3.org/1999/xlink" xmlns:ev="http://www.w3.org/2001/xml-events"
		xmlns:v="http://schemas.microsoft.com/visio/2003/SVGExtensions/" width="3.76769in" height="3.08473in"
		viewBox="0 0 271.274 222.101" xml:space="preserve" color-interpolation-filters="sRGB" class="st12">
	<v:documentProperties v:langID="2052" v:metric="true" v:viewMarkup="false"/>

	<style type="text/css">
	<![CDATA[
		.st1 {visibility:visible}
		.st2 {fill:#5b9bd5;fill-opacity:0.22;filter:url(#filter_2);stroke:#5b9bd5;stroke-opacity:0.22}
		.st3 {fill:#d8d8d8;stroke:#000000;stroke-width:0.5}
		.st4 {fill:#000000;font-family:Times New Roman;font-size:0.916672em}
		.st5 {stroke:#000000;stroke-width:0.5}
		.st6 {fill:#000000;font-family:Times New Roman;font-size:0.666664em}
		.st7 {stroke:#000000;stroke-dasharray:0.5,1;stroke-linecap:round;stroke-linejoin:round;stroke-width:0.5}
		.st8 {marker-end:url(#mrkr5-126);marker-start:url(#mrkr5-124);stroke:#000000;stroke-linecap:round;stroke-linejoin:round;stroke-width:0.5}
		.st9 {fill:#000000;fill-opacity:1;stroke:#000000;stroke-opacity:1;stroke-width:0.16556291390728}
		.st10 {fill:none;stroke:none;stroke-width:0.25}
		.st11 {font-family:黑体;font-size:1em}
		.st12 {fill:none;fill-rule:evenodd;font-size:12px;overflow:visible;stroke-linecap:square;stroke-miterlimit:3}
	]]>
	</style>

	<defs id="Markers">
		<g id="lend5">
			<path d="M 2 1 L 0 0 L 1.98117 -0.993387 C 1.67173 -0.364514 1.67301 0.372642 1.98465 1.00043 " style="stroke:none"/>
		</g>
		<marker id="mrkr5-124" class="st9" v:arrowType="5" v:arrowSize="2" v:setback="9.85" refX="9.85" orient="auto"
				markerUnits="strokeWidth" overflow="visible">
			<use xlink:href="#lend5" transform="scale(6.04) "/>
		</marker>
		<marker id="mrkr5-126" class="st9" v:arrowType="5" v:arrowSize="2" v:setback="10.57" refX="-10.57" orient="auto"
				markerUnits="strokeWidth" overflow="visible">
			<use xlink:href="#lend5" transform="scale(-6.04,-6.04) "/>
		</marker>
	</defs>
	<defs id="Filters">
		<filter id="filter_2">
			<feGaussianBlur stdDeviation="2"/>
		</filter>
	</defs>
	<g v:mID="0" v:index="1" v:groupContext="foregroundPage">
		<title>页-1</title>
		<v:pageProperties v:drawingScale="0.0393701" v:pageScale="0.0393701" v:drawingUnits="24" v:shadowOffsetX="8.50394"
				v:shadowOffsetY="-8.50394"/>
		<v:layer v:name="连接线" v:index="0"/>
		<g id="group96-1" transform="translate(0.25,-0.25)" v:mID="96" v:groupContext="group">
			<title>工作表.96</title>
			<g id="shape1-2" v:mID="1" v:groupContext="shape" transform="translate(165.827,-205.512)">
				<title>矩形.260</title>
				<desc>unit #11</desc>
				<v:userDefs>
					<v:ud v:nameU="visVersion" v:val="VT0(15):26"/>
				</v:userDefs>
				<v:textBlock v:margins="rect(4,4,4,4)" v:tabSpace="42.5197"/>
				<v:textRect cx="24.8031" cy="215.014" width="49.61" height="14.1732"/>
				<g id="shadow1-3" v:groupContext="shadow" v:shadowOffsetX="0.345598" v:shadowOffsetY="-1.97279" v:shadowType="1"
						transform="matrix(1,0,0,1,0.345598,1.97279)" class="st1">
					<rect x="0" y="207.927" width="49.6063" height="14.1732" class="st2"/>
				</g>
				<rect x="0" y="207.927" width="49.6063" height="14.1732" class="st3"/>
				<text x="6.62" y="218.31" class="st4" v:langID="2052"><v:paragraph v:horizAlign="1"/><v:tabList/>unit #11</text>			</g>
			<g id="shape2-8" v:mID="2" v:groupContext="shape" transform="translate(165.827,-191.339)">
				<title>矩形.261</title>
				<desc>unit #10</desc>
				<v:userDefs>
					<v:ud v:nameU="visVersion" v:val="VT0(15):26"/>
				</v:userDefs>
				<v:textBlock v:margins="rect(4,4,4,4)" v:tabSpace="42.5197"/>
				<v:textRect cx="24.8031" cy="215.014" width="49.61" height="14.1732"/>
				<g id="shadow2-9" v:groupContext="shadow" v:shadowOffsetX="0.345598" v:shadowOffsetY="-1.97279" v:shadowType="1"
						transform="matrix(1,0,0,1,0.345598,1.97279)" class="st1">
					<rect x="0" y="207.927" width="49.6063" height="14.1732" class="st2"/>
				</g>
				<rect x="0" y="207.927" width="49.6063" height="14.1732" class="st3"/>
				<text x="6.62" y="218.31" class="st4" v:langID="2052"><v:paragraph v:horizAlign="1"/><v:tabList/>unit #10</text>			</g>
			<g id="shape3-14" v:mID="3" v:groupContext="shape" transform="translate(165.827,-177.165)">
				<title>矩形.262</title>
				<desc>unit #9</desc>
				<v:userDefs>
					<v:ud v:nameU="visVersion" v:val="VT0(15):26"/>
				</v:userDefs>
				<v:textBlock v:margins="rect(4,4,4,4)" v:tabSpace="42.5197"/>
				<v:textRect cx="24.8031" cy="215.014" width="49.61" height="14.1732"/>
				<g id="shadow3-15" v:groupContext="shadow" v:shadowOffsetX="0.345598" v:shadowOffsetY="-1.97279" v:shadowType="1"
						transform="matrix(1,0,0,1,0.345598,1.97279)" class="st1">
					<rect x="0" y="207.927" width="49.6063" height="14.1732" class="st2"/>
				</g>
				<rect x="0" y="207.927" width="49.6063" height="14.1732" class="st3"/>
				<text x="9.37" y="218.31" class="st4" v:langID="2052"><v:paragraph v:horizAlign="1"/><v:tabList/>unit #9</text>			</g>
			<g id="shape4-20" v:mID="4" v:groupContext="shape" transform="translate(165.827,-162.992)">
				<title>矩形.263</title>
				<desc>unit #8</desc>
				<v:userDefs>
					<v:ud v:nameU="visVersion" v:val="VT0(15):26"/>
				</v:userDefs>
				<v:textBlock v:margins="rect(4,4,4,4)" v:tabSpace="42.5197"/>
				<v:textRect cx="24.8031" cy="215.014" width="49.61" height="14.1732"/>
				<g id="shadow4-21" v:groupContext="shadow" v:shadowOffsetX="0.345598" v:shadowOffsetY="-1.97279" v:shadowType="1"
						transform="matrix(1,0,0,1,0.345598,1.97279)" class="st1">
					<rect x="0" y="207.927" width="49.6063" height="14.1732" class="st2"/>
				</g>
				<rect x="0" y="207.927" width="49.6063" height="14.1732" class="st3"/>
				<text x="9.37" y="218.31" class="st4" v:langID="2052"><v:paragraph v:horizAlign="1"/><v:tabList/>unit #8</text>			</g>
			<g id="shape6-26" v:mID="6" v:groupContext="shape" transform="translate(165.827,-141.732)">
				<title>矩形.6</title>
				<desc>unit #7</desc>
				<v:userDefs>
					<v:ud v:nameU="visVersion" v:val="VT0(15):26"/>
				</v:userDefs>
				<v:textBlock v:margins="rect(4,4,4,4)" v:tabSpace="42.5197"/>
				<v:textRect cx="24.8031" cy="215.014" width="49.61" height="14.1732"/>
				<g id="shadow6-27" v:groupContext="shadow" v:shadowOffsetX="0.345598" v:shadowOffsetY="-1.97279" v:shadowType="1"
						transform="matrix(1,0,0,1,0.345598,1.97279)" class="st1">
					<rect x="0" y="207.927" width="49.6063" height="14.1732" class="st2"/>
				</g>
				<rect x="0" y="207.927" width="49.6063" height="14.1732" class="st3"/>
				<text x="9.37" y="218.31" class="st4" v:langID="2052"><v:paragraph v:horizAlign="1"/><v:tabList/>unit #7</text>			</g>
			<g id="shape7-32" v:mID="7" v:groupContext="shape" transform="translate(165.827,-127.559)">
				<title>矩形.7</title>
				<desc>unit #6</desc>
				<v:userDefs>
					<v:ud v:nameU="visVersion" v:val="VT0(15):26"/>
				</v:userDefs>
				<v:textBlock v:margins="rect(4,4,4,4)" v:tabSpace="42.5197"/>
				<v:textRect cx="24.8031" cy="215.014" width="49.61" height="14.1732"/>
				<g id="shadow7-33" v:groupContext="shadow" v:shadowOffsetX="0.345598" v:shadowOffsetY="-1.97279" v:shadowType="1"
						transform="matrix(1,0,0,1,0.345598,1.97279)" class="st1">
					<rect x="0" y="207.927" width="49.6063" height="14.1732" class="st2"/>
				</g>
				<rect x="0" y="207.927" width="49.6063" height="14.1732" class="st3"/>
				<text x="9.37" y="218.31" class="st4" v:langID="2052"><v:paragraph v:horizAlign="1"/><v:tabList/>unit #6</text>			</g>
			<g id="shape8-38" v:mID="8" v:groupContext="shape" transform="translate(165.827,-113.386)">
				<title>矩形.8</title>
				<desc>unit #5</desc>
				<v:userDefs>
					<v:ud v:nameU="visVersion" v:val="VT0(15):26"/>
				</v:userDefs>
				<v:textBlock v:margins="rect(4,4,4,4)" v:tabSpace="42.5197"/>
				<v:textRect cx="24.8031" cy="215.014" width="49.61" height="14.1732"/>
				<g id="shadow8-39" v:groupContext="shadow" v:shadowOffsetX="0.345598" v:shadowOffsetY="-1.97279" v:shadowType="1"
						transform="matrix(1,0,0,1,0.345598,1.97279)" class="st1">
					<rect x="0" y="207.927" width="49.6063" height="14.1732" class="st2"/>
				</g>
				<rect x="0" y="207.927" width="49.6063" height="14.1732" class="st3"/>
				<text x="9.37" y="218.31" class="st4" v:langID="2052"><v:paragraph v:horizAlign="1"/><v:tabList/>unit #5</text>			</g>
			<g id="shape9-44" v:mID="9" v:groupContext="shape" transform="translate(165.827,-99.2126)">
				<title>矩形.9</title>
				<desc>unit #4</desc>
				<v:userDefs>
					<v:ud v:nameU="visVersion" v:val="VT0(15):26"/>
				</v:userDefs>
				<v:textBlock v:margins="rect(4,4,4,4)" v:tabSpace="42.5197"/>
				<v:textRect cx="24.8031" cy="215.014" width="49.61" height="14.1732"/>
				<g id="shadow9-45" v:groupContext="shadow" v:shadowOffsetX="0.345598" v:shadowOffsetY="-1.97279" v:shadowType="1"
						transform="matrix(1,0,0,1,0.345598,1.97279)" class="st1">
					<rect x="0" y="207.927" width="49.6063" height="14.1732" class="st2"/>
				</g>
				<rect x="0" y="207.927" width="49.6063" height="14.1732" class="st3"/>
				<text x="9.37" y="218.31" class="st4" v:langID="2052"><v:paragraph v:horizAlign="1"/><v:tabList/>unit #4</text>			</g>
			<g id="shape10-50" v:mID="10" v:groupContext="shape" transform="translate(165.827,-70.8661)">
				<title>矩形.10</title>
				<desc>unit #3</desc>
				<v:userDefs>
					<v:ud v:nameU="visVersion" v:val="VT0(15):26"/>
				</v:userDefs>
				<v:textBlock v:margins="rect(4,4,4,4)" v:tabSpace="42.5197"/>
				<v:textRect cx="24.8031" cy="215.014" width="49.61" height="14.1732"/>
				<g id="shadow10-51" v:groupContext="shadow" v:shadowOffsetX="0.345598" v:shadowOffsetY="-1.97279" v:shadowType="1"
						transform="matrix(1,0,0,1,0.345598,1.97279)" class="st1">
					<rect x="0" y="207.927" width="49.6063" height="14.1732" class="st2"/>
				</g>
				<rect x="0" y="207.927" width="49.6063" height="14.1732" class="st3"/>
				<text x="9.37" y="218.31" class="st4" v:langID="2052"><v:paragraph v:horizAlign="1"/><v:tabList/>unit #3</text>			</g>
			<g id="shape11-56" v:mID="11" v:groupContext="shape" transform="translate(165.827,-56.6929)">
				<title>矩形.11</title>
				<desc>unit #2</desc>
				<v:userDefs>
					<v:ud v:nameU="visVersion" v:val="VT0(15):26"/>
				</v:userDefs>
				<v:textBlock v:margins="rect(4,4,4,4)" v:tabSpace="42.5197"/>
				<v:textRect cx="24.8031" cy="215.014" width="49.61" height="14.1732"/>
				<g id="shadow11-57" v:groupContext="shadow" v:shadowOffsetX="0.345598" v:shadowOffsetY="-1.97279" v:shadowType="1"
						transform="matrix(1,0,0,1,0.345598,1.97279)" class="st1">
					<rect x="0" y="207.927" width="49.6063" height="14.1732" class="st2"/>
				</g>
				<rect x="0" y="207.927" width="49.6063" height="14.1732" class="st3"/>
				<text x="9.37" y="218.31" class="st4" v:langID="2052"><v:paragraph v:horizAlign="1"/><v:tabList/>unit #2</text>			</g>
			<g id="shape12-62" v:mID="12" v:groupContext="shape" transform="translate(165.827,-42.5197)">
				<title>矩形.12</title>
				<desc>unit #1</desc>
				<v:userDefs>
					<v:ud v:nameU="visVersion" v:val="VT0(15):26"/>
				</v:userDefs>
				<v:textBlock v:margins="rect(4,4,4,4)" v:tabSpace="42.5197"/>
				<v:textRect cx="24.8031" cy="215.014" width="49.61" height="14.1732"/>
				<g id="shadow12-63" v:groupContext="shadow" v:shadowOffsetX="0.345598" v:shadowOffsetY="-1.97279" v:shadowType="1"
						transform="matrix(1,0,0,1,0.345598,1.97279)" class="st1">
					<rect x="0" y="207.927" width="49.6063" height="14.1732" class="st2"/>
				</g>
				<rect x="0" y="207.927" width="49.6063" height="14.1732" class="st3"/>
				<text x="9.37" y="218.31" class="st4" v:langID="2052"><v:paragraph v:horizAlign="1"/><v:tabList/>unit #1</text>			</g>
			<g id="shape13-68" v:mID="13" v:groupContext="shape" transform="translate(165.827,-28.3465)">
				<title>矩形.13</title>
				<desc>unit #0</desc>
				<v:userDefs>
					<v:ud v:nameU="visVersion" v:val="VT0(15):26"/>
				</v:userDefs>
				<v:textBlock v:margins="rect(4,4,4,4)" v:tabSpace="42.5197"/>
				<v:textRect cx="24.8031" cy="215.014" width="49.61" height="14.1732"/>
				<g id="shadow13-69" v:groupContext="shadow" v:shadowOffsetX="0.345598" v:shadowOffsetY="-1.97279" v:shadowType="1"
						transform="matrix(1,0,0,1,0.345598,1.97279)" class="st1">
					<rect x="0" y="207.927" width="49.6063" height="14.1732" class="st2"/>
				</g>
				<rect x="0" y="207.927" width="49.6063" height="14.1732" class="st3"/>
				<text x="9.37" y="218.31" class="st4" v:langID="2052"><v:paragraph v:horizAlign="1"/><v:tabList/>unit #0</text>			</g>
			<g id="shape14-74" v:mID="14" v:groupContext="shape" transform="translate(4.67103,2.41558) rotate(-90) scale(-1,1)">
				<title>侧边大括号</title>
				<desc>node #1</desc>
				<v:userDefs>
					<v:ud v:nameU="TxtW" v:val="VT0(0.55555555555556):29"/>
					<v:ud v:nameU="TxtA" v:val="VT0(1.5707963267949):37"/>
					<v:ud v:nameU="TxtAState" v:val="VT0(0):26"/>
					<v:ud v:nameU="TxtWState" v:val="VT0(0):26"/>
					<v:ud v:nameU="MaxRadius" v:val="VT0(0.19685039370079):24"/>
					<v:ud v:nameU="PosCH1" v:prompt="Constrains X postion of Control Handle #1" v:val="VT0(0):26"/>
					<v:ud v:nameU="PosCH2" v:prompt="Constrains Y postion of Control Handle #2" v:val="VT0(0):26"/>
					<v:ud v:nameU="Scale" v:val="VT0(1):26"/>
					<v:ud v:nameU="AntiScale" v:val="VT0(1):26"/>
					<v:ud v:nameU="visVersion" v:val="VT0(15):26"/>
					<v:ud v:nameU="MaxRadius" v:prompt="" v:val="VT0(0.059055118110238):1"/>
				</v:userDefs>
				<v:textBlock v:margins="rect(4,4,4,4)" v:tabSpace="42.5197"/>
				<v:textRect cx="60.9449" cy="244.935" width="40" height="17.6036" transform="rotate(90)"/>
				<path d="M0 217.85 L0 219.27 A2.8346 2.8346 -180 0 0 2.83 222.1 L58.11 222.1 A2.8346 2.8346 0 0 1 60.94 224.94 A2.8346
							 2.8346 0 0 1 63.78 222.1 L117.64 222.1 A2.8346 2.8346 -180 0 0 120.47 219.27 L120.47 217.85"
						class="st5"/>
				<text x="232.16" y="63.35" transform="rotate(-90) scale(-1,1)" class="st6" v:langID="2052"><v:paragraph
							v:horizAlign="1"/><v:tabList/>node #1</text>			</g>
			<g id="shape15-78" v:mID="15" v:groupContext="shape" transform="translate(4.67103,137.061) rotate(-90) scale(-1,1)">
				<title>侧边大括号.15</title>
				<desc>node #0</desc>
				<v:userDefs>
					<v:ud v:nameU="TxtW" v:val="VT0(0.55555555555556):29"/>
					<v:ud v:nameU="TxtA" v:val="VT0(1.5707963267949):37"/>
					<v:ud v:nameU="TxtAState" v:val="VT0(0):26"/>
					<v:ud v:nameU="TxtWState" v:val="VT0(0):26"/>
					<v:ud v:nameU="MaxRadius" v:val="VT0(0.19685039370079):24"/>
					<v:ud v:nameU="PosCH1" v:prompt="Constrains X postion of Control Handle #1" v:val="VT0(0):26"/>
					<v:ud v:nameU="PosCH2" v:prompt="Constrains Y postion of Control Handle #2" v:val="VT0(0):26"/>
					<v:ud v:nameU="Scale" v:val="VT0(1):26"/>
					<v:ud v:nameU="AntiScale" v:val="VT0(1):26"/>
					<v:ud v:nameU="visVersion" v:val="VT0(15):26"/>
					<v:ud v:nameU="MaxRadius" v:prompt="" v:val="VT0(0.059055118110238):1"/>
				</v:userDefs>
				<v:textBlock v:margins="rect(4,4,4,4)" v:tabSpace="42.5197"/>
				<v:textRect cx="29.0551" cy="246.353" width="40" height="17.6036" transform="rotate(90)"/>
				<path d="M-0 217.85 A4.2519 4.2519 -180 0 0 4.25 222.1 L24.8 222.1 A4.2519 4.2519 0 0 1 29.06 226.35 A4.2519 4.2519
							 0 0 1 33.31 222.1 L52.44 222.1 A4.2519 4.2519 -180 0 0 56.69 217.85" class="st5"/>
				<text x="233.58" y="31.46" transform="rotate(-90) scale(-1,1)" class="st6" v:langID="2052"><v:paragraph
							v:horizAlign="1"/><v:tabList/>node #0</text>			</g>
			<g id="shape16-82" v:mID="16" v:groupContext="shape" transform="translate(165.543,415.855) rotate(180)">
				<title>工作表.16</title>
				<path d="M0 222.1 L84.76 222.1" class="st7"/>
			</g>
			<g id="shape17-85" v:mID="17" v:groupContext="shape" transform="translate(165.26,387.508) rotate(180)">
				<title>工作表.17</title>
				<path d="M0 222.1 L84.47 222.1" class="st7"/>
			</g>
			<g id="shape18-88" v:mID="18" v:groupContext="shape" transform="translate(165.26,373.335) rotate(180)">
				<title>工作表.18</title>
				<path d="M0 222.1 L84.47 222.1" class="st7"/>
			</g>
			<g id="shape19-91" v:mID="19" v:groupContext="shape" transform="translate(165.827,252.863) rotate(180)">
				<title>工作表.19</title>
				<path d="M0 222.1 L85.04 222.1" class="st7"/>
			</g>
			<g id="shape20-94" v:mID="20" v:groupContext="shape" transform="translate(165.543,401.682) rotate(180)">
				<title>工作表.20</title>
				<path d="M0 222.1 L84.76 222.1" class="st7"/>
			</g>
			<g id="shape22-97" v:mID="22" v:groupContext="shape" transform="translate(165.827,344.989) rotate(180)">
				<title>工作表.22</title>
				<path d="M0 222.1 L85.04 222.1" class="st7"/>
			</g>
			<g id="shape23-100" v:mID="23" v:groupContext="shape" transform="translate(165.827,330.815) rotate(180)">
				<title>工作表.23</title>
				<path d="M0 222.1 L85.04 222.1" class="st7"/>
			</g>
			<g id="shape24-103" v:mID="24" v:groupContext="shape" transform="translate(165.543,316.642) rotate(180)">
				<title>工作表.24</title>
				<path d="M0 222.1 L84.76 222.1" class="st7"/>
			</g>
			<g id="shape25-106" v:mID="25" v:groupContext="shape" transform="translate(165.543,302.469) rotate(180)">
				<title>工作表.25</title>
				<path d="M0 222.1 L84.76 222.1" class="st7"/>
			</g>
			<g id="shape26-109" v:mID="26" v:groupContext="shape" transform="translate(165.827,267.036) rotate(180)">
				<title>工作表.26</title>
				<path d="M0 222.1 L85.04 222.1" class="st7"/>
			</g>
			<g id="shape27-112" v:mID="27" v:groupContext="shape" transform="translate(165.827,281.209) rotate(180)">
				<title>工作表.27</title>
				<path d="M0 222.1 L85.04 222.1" class="st7"/>
			</g>
			<g id="shape28-115" v:mID="28" v:groupContext="shape" transform="translate(165.827,238.689) rotate(180)">
				<title>工作表.28</title>
				<path d="M0 222.1 L85.04 222.1" class="st7"/>
			</g>
			<g id="shape30-118" v:mID="30" v:groupContext="shape" v:layerMember="0"
					transform="translate(-63.3605,16.5888) rotate(-90) scale(-1,1)">
				<title>直线连接线.30</title>
				<v:userDefs>
					<v:ud v:nameU="visVersion" v:val="VT0(15):26"/>
				</v:userDefs>
				<path d="M4.93 222.1 L5.29 222.1 L171.88 222.1" class="st8"/>
			</g>
			<g id="shape31-127" v:mID="31" v:groupContext="shape" v:layerMember="0"
					transform="translate(-70.4471,30.762) rotate(-90) scale(-1,1)">
				<title>直线连接线.31</title>
				<v:userDefs>
					<v:ud v:nameU="visVersion" v:val="VT0(15):26"/>
				</v:userDefs>
				<path d="M4.93 222.1 L5.29 222.1 L157.71 222.1" class="st8"/>
			</g>
			<g id="shape32-134" v:mID="32" v:groupContext="shape" v:layerMember="0"
					transform="translate(-77.5337,44.9353) rotate(-90) scale(-1,1)">
				<title>直线连接线.32</title>
				<v:userDefs>
					<v:ud v:nameU="visVersion" v:val="VT0(15):26"/>
				</v:userDefs>
				<path d="M4.93 222.1 L5.29 222.1 L143.53 222.1" class="st8"/>
			</g>
			<g id="shape33-141" v:mID="33" v:groupContext="shape" v:layerMember="0"
					transform="translate(-84.6203,59.1085) rotate(-90) scale(-1,1)">
				<title>直线连接线.33</title>
				<v:userDefs>
					<v:ud v:nameU="visVersion" v:val="VT0(15):26"/>
				</v:userDefs>
				<path d="M4.93 222.1 L5.29 222.1 L129.36 222.1" class="st8"/>
			</g>
			<g id="shape34-148" v:mID="34" v:groupContext="shape" v:layerMember="0"
					transform="translate(-91.7069,80.3683) rotate(-90) scale(-1,1)">
				<title>直线连接线.34</title>
				<v:userDefs>
					<v:ud v:nameU="visVersion" v:val="VT0(15):26"/>
				</v:userDefs>
				<path d="M4.93 222.1 L5.29 222.1 L108.1 222.1" class="st8"/>
			</g>
			<g id="shape35-155" v:mID="35" v:groupContext="shape" v:layerMember="0"
					transform="translate(-98.7935,94.5416) rotate(-90) scale(-1,1)">
				<title>直线连接线.35</title>
				<v:userDefs>
					<v:ud v:nameU="visVersion" v:val="VT0(15):26"/>
				</v:userDefs>
				<path d="M4.93 222.1 L5.29 222.1 L93.93 222.1" class="st8"/>
			</g>
			<g id="shape36-162" v:mID="36" v:groupContext="shape" v:layerMember="0"
					transform="translate(-105.88,108.715) rotate(-90) scale(-1,1)">
				<title>直线连接线.36</title>
				<v:userDefs>
					<v:ud v:nameU="visVersion" v:val="VT0(15):26"/>
				</v:userDefs>
				<path d="M4.93 222.1 L5.29 222.1 L79.75 222.1" class="st8"/>
			</g>
			<g id="shape37-169" v:mID="37" v:groupContext="shape" v:layerMember="0"
					transform="translate(-112.967,122.888) rotate(-90) scale(-1,1)">
				<title>直线连接线.37</title>
				<v:userDefs>
					<v:ud v:nameU="visVersion" v:val="VT0(15):26"/>
				</v:userDefs>
				<path d="M4.93 222.1 L5.29 222.1 L65.58 222.1" class="st8"/>
			</g>
			<g id="shape38-176" v:mID="38" v:groupContext="shape" v:layerMember="0"
					transform="translate(-120.053,151.234) rotate(-90) scale(-1,1)">
				<title>直线连接线.38</title>
				<v:userDefs>
					<v:ud v:nameU="visVersion" v:val="VT0(15):26"/>
				</v:userDefs>
				<path d="M4.93 222.1 L5.29 222.1 L37.23 222.1" class="st8"/>
			</g>
			<g id="shape39-183" v:mID="39" v:groupContext="shape" v:layerMember="0"
					transform="translate(-127.14,165.408) rotate(-90) scale(-1,1)">
				<title>直线连接线.39</title>
				<v:userDefs>
					<v:ud v:nameU="visVersion" v:val="VT0(15):26"/>
				</v:userDefs>
				<path d="M4.93 222.1 L5.29 222.1 L23.06 222.1" class="st8"/>
			</g>
			<g id="shape40-190" v:mID="40" v:groupContext="shape" v:layerMember="0"
					transform="translate(-134.227,179.581) rotate(-90) scale(-1,1)">
				<title>直线连接线.40</title>
				<v:userDefs>
					<v:ud v:nameU="visVersion" v:val="VT0(15):26"/>
				</v:userDefs>
				<path d="M4.93 222.1 L5.29 222.1 L8.89 222.1" class="st8"/>
			</g>
			<g id="shape41-197" v:mID="41" v:groupContext="shape" transform="translate(2.83465,-21.2598)">
				<title>工作表.41</title>
				<desc>pcpu_unit_offsets[0]</desc>
				<v:textBlock v:margins="rect(4,4,4,4)" v:tabSpace="42.5197"/>
				<v:textRect cx="38.1865" cy="215.014" width="76.38" height="14.1732"/>
				<rect x="0" y="207.927" width="76.373" height="14.1732" class="st10"/>
				<text x="4.86" y="217.41" class="st6" v:langID="2052"><v:paragraph v:horizAlign="1"/><v:tabList/>pcpu_unit_offsets[0]</text>			</g>
			<g id="shape42-200" v:mID="42" v:groupContext="shape" transform="translate(2.83465,-35.4331)">
				<title>工作表.42</title>
				<desc>pcpu_unit_offsets[1]</desc>
				<v:textBlock v:margins="rect(4,4,4,4)" v:tabSpace="42.5197"/>
				<v:textRect cx="38.1865" cy="215.014" width="76.38" height="14.1732"/>
				<rect x="0" y="207.927" width="76.373" height="14.1732" class="st10"/>
				<text x="4.86" y="217.41" class="st6" v:langID="2052"><v:paragraph v:horizAlign="1"/><v:tabList/>pcpu_unit_offsets[1]</text>			</g>
			<g id="shape43-203" v:mID="43" v:groupContext="shape" transform="translate(2.83465,-49.6063)">
				<title>工作表.43</title>
				<desc>pcpu_unit_offsets[2]</desc>
				<v:textBlock v:margins="rect(4,4,4,4)" v:tabSpace="42.5197"/>
				<v:textRect cx="38.1865" cy="215.014" width="76.38" height="14.1732"/>
				<rect x="0" y="207.927" width="76.373" height="14.1732" class="st10"/>
				<text x="4.86" y="217.41" class="st6" v:langID="2052"><v:paragraph v:horizAlign="1"/><v:tabList/>pcpu_unit_offsets[2]</text>			</g>
			<g id="shape44-206" v:mID="44" v:groupContext="shape" transform="translate(2.83465,-63.7795)">
				<title>工作表.44</title>
				<desc>pcpu_unit_offsets[3]</desc>
				<v:textBlock v:margins="rect(4,4,4,4)" v:tabSpace="42.5197"/>
				<v:textRect cx="38.1865" cy="215.014" width="76.38" height="14.1732"/>
				<rect x="0" y="207.927" width="76.373" height="14.1732" class="st10"/>
				<text x="4.86" y="217.41" class="st6" v:langID="2052"><v:paragraph v:horizAlign="1"/><v:tabList/>pcpu_unit_offsets[3]</text>			</g>
			<g id="shape45-209" v:mID="45" v:groupContext="shape" transform="translate(2.83465,-92.126)">
				<title>工作表.45</title>
				<desc>pcpu_unit_offsets[4]</desc>
				<v:textBlock v:margins="rect(4,4,4,4)" v:tabSpace="42.5197"/>
				<v:textRect cx="38.1865" cy="215.014" width="76.38" height="14.1732"/>
				<rect x="0" y="207.927" width="76.373" height="14.1732" class="st10"/>
				<text x="4.86" y="217.41" class="st6" v:langID="2052"><v:paragraph v:horizAlign="1"/><v:tabList/>pcpu_unit_offsets[4]</text>			</g>
			<g id="shape88-212" v:mID="88" v:groupContext="shape" transform="translate(2.83465,-106.299)">
				<title>工作表.88</title>
				<desc>pcpu_unit_offsets[5]</desc>
				<v:textBlock v:margins="rect(4,4,4,4)" v:tabSpace="42.5197"/>
				<v:textRect cx="38.1865" cy="215.014" width="76.38" height="14.1732"/>
				<rect x="0" y="207.927" width="76.373" height="14.1732" class="st10"/>
				<text x="4.86" y="217.41" class="st6" v:langID="2052"><v:paragraph v:horizAlign="1"/><v:tabList/>pcpu_unit_offsets[5]</text>			</g>
			<g id="shape89-215" v:mID="89" v:groupContext="shape" transform="translate(2.83465,-120.472)">
				<title>工作表.89</title>
				<desc>pcpu_unit_offsets[6]</desc>
				<v:textBlock v:margins="rect(4,4,4,4)" v:tabSpace="42.5197"/>
				<v:textRect cx="38.1865" cy="215.014" width="76.38" height="14.1732"/>
				<rect x="0" y="207.927" width="76.373" height="14.1732" class="st10"/>
				<text x="4.86" y="217.41" class="st6" v:langID="2052"><v:paragraph v:horizAlign="1"/><v:tabList/>pcpu_unit_offsets[6]</text>			</g>
			<g id="shape90-218" v:mID="90" v:groupContext="shape" transform="translate(2.83465,-134.646)">
				<title>工作表.90</title>
				<desc>pcpu_unit_offsets[7]</desc>
				<v:textBlock v:margins="rect(4,4,4,4)" v:tabSpace="42.5197"/>
				<v:textRect cx="38.1865" cy="215.014" width="76.38" height="14.1732"/>
				<rect x="0" y="207.927" width="76.373" height="14.1732" class="st10"/>
				<text x="4.86" y="217.41" class="st6" v:langID="2052"><v:paragraph v:horizAlign="1"/><v:tabList/>pcpu_unit_offsets[7]</text>			</g>
			<g id="shape91-221" v:mID="91" v:groupContext="shape" transform="translate(2.83465,-155.906)">
				<title>工作表.91</title>
				<desc>pcpu_unit_offsets[8]</desc>
				<v:textBlock v:margins="rect(4,4,4,4)" v:tabSpace="42.5197"/>
				<v:textRect cx="38.1865" cy="215.014" width="76.38" height="14.1732"/>
				<rect x="0" y="207.927" width="76.373" height="14.1732" class="st10"/>
				<text x="4.86" y="217.41" class="st6" v:langID="2052"><v:paragraph v:horizAlign="1"/><v:tabList/>pcpu_unit_offsets[8]</text>			</g>
			<g id="shape92-224" v:mID="92" v:groupContext="shape" transform="translate(2.83465,-170.079)">
				<title>工作表.92</title>
				<desc>pcpu_unit_offsets[9]</desc>
				<v:textBlock v:margins="rect(4,4,4,4)" v:tabSpace="42.5197"/>
				<v:textRect cx="38.1865" cy="215.014" width="76.38" height="14.1732"/>
				<rect x="0" y="207.927" width="76.373" height="14.1732" class="st10"/>
				<text x="4.86" y="217.41" class="st6" v:langID="2052"><v:paragraph v:horizAlign="1"/><v:tabList/>pcpu_unit_offsets[9]</text>			</g>
			<g id="shape93-227" v:mID="93" v:groupContext="shape" transform="translate(3.19744E-014,-184.252)">
				<title>工作表.93</title>
				<desc>pcpu_unit_offsets[10]</desc>
				<v:textBlock v:margins="rect(4,4,4,4)" v:tabSpace="42.5197"/>
				<v:textRect cx="42.5197" cy="215.014" width="85.04" height="14.1732"/>
				<rect x="0" y="207.927" width="85.0394" height="14.1732" class="st10"/>
				<text x="7.19" y="217.41" class="st6" v:langID="2052"><v:paragraph v:horizAlign="1"/><v:tabList/>pcpu_unit_offsets[10]</text>			</g>
			<g id="shape94-230" v:mID="94" v:groupContext="shape" transform="translate(6.39488E-014,-198.425)">
				<title>工作表.94</title>
				<desc>pcpu_unit_offsets[11]</desc>
				<v:textBlock v:margins="rect(4,4,4,4)" v:tabSpace="42.5197"/>
				<v:textRect cx="42.5197" cy="215.014" width="85.04" height="14.1732"/>
				<rect x="0" y="207.927" width="85.0394" height="14.1732" class="st10"/>
				<text x="7.19" y="217.41" class="st6" v:langID="2052"><v:paragraph v:horizAlign="1"/><v:tabList/>pcpu_unit_offsets[11]</text>			</g>
			<g id="shape95-233" v:mID="95" v:groupContext="shape" transform="translate(31.1811,-2.84217E-014)">
				<title>工作表.95</title>
				<desc>Example: node #0 -&#62; 2 cpus,node #1 -&#62; 8 cpus</desc>
				<v:textBlock v:margins="rect(4,4,4,4)" v:tabSpace="42.5197"/>
				<v:textRect cx="99.2126" cy="215.014" width="198.43" height="14.1732"/>
				<rect x="0" y="207.927" width="198.425" height="14.1732" class="st10"/>
				<text x="23.16" y="217.65" class="st6" v:langID="2052"><v:paragraph v:horizAlign="1"/><v:tabList/>Example: node #0 <tspan
							class="st11">-</tspan>&#62; 2 cpus,node #1 <tspan class="st11">-</tspan>&#62; 8 cpus</text>			</g>
		</g>
	</g>
</svg>
