<?xml version="1.0" encoding="UTF-8" standalone="no"?>
<!DOCTYPE svg PUBLIC "-//W3C//DTD SVG 1.1//EN" "http://www.w3.org/Graphics/SVG/1.1/DTD/svg11.dtd">
<!-- 由 Microsoft Visio, SVG Export 生成 percpu_count.svg 页-1 -->
<svg xmlns="http://www.w3.org/2000/svg" xmlns:xlink="http://www.w3.org/1999/xlink" xmlns:ev="http://www.w3.org/2001/xml-events"
		xmlns:v="http://schemas.microsoft.com/visio/2003/SVGExtensions/" width="4.72494in" height="1.77758in"
		viewBox="0 0 340.196 127.986" xml:space="preserve" color-interpolation-filters="sRGB" class="st18">
	<v:documentProperties v:langID="2052" v:metric="true" v:viewMarkup="false"/>

	<style type="text/css">
	<![CDATA[
		.st1 {visibility:visible}
		.st2 {fill:#5b9bd5;fill-opacity:0.22;filter:url(#filter_2);stroke:#5b9bd5;stroke-opacity:0.22}
		.st3 {fill:#d8d8d8;stroke:#000000;stroke-width:0.5}
		.st4 {fill:#000000;font-family:Times New Roman;font-size:0.916672em}
		.st5 {fill:url(#grad0-32);stroke:#000000;stroke-width:0.5}
		.st6 {fill:url(#grad7-61);stroke:#000000;stroke-width:0.5}
		.st7 {fill:#5b9bd5;fill-opacity:0.25;filter:url(#filter_2);stroke:#5b9bd5;stroke-opacity:0.25}
		.st8 {fill:#a5a5a5;stroke:#000000;stroke-width:0.5}
		.st9 {fill:#000000;font-family:Times New Roman;font-size:0.833336em}
		.st10 {font-size:1em}
		.st11 {marker-end:url(#mrkr5-96);stroke:#000000;stroke-linecap:round;stroke-linejoin:round;stroke-width:0.75}
		.st12 {fill:#000000;fill-opacity:1;stroke:#000000;stroke-opacity:1;stroke-width:0.22935779816514}
		.st13 {marker-end:url(#mrkr5-117);stroke:#000000;stroke-linecap:round;stroke-linejoin:round;stroke-width:0.75}
		.st14 {stroke:#000000;stroke-linecap:round;stroke-linejoin:round;stroke-width:0.75}
		.st15 {fill:#7f7f7f;stroke:#000000;stroke-width:0.5}
		.st16 {fill:none;stroke:none;stroke-width:0.25}
		.st17 {fill:#000000;font-family:Times New Roman;font-size:0.666664em}
		.st18 {fill:none;fill-rule:evenodd;font-size:12px;overflow:visible;stroke-linecap:square;stroke-miterlimit:3}
	]]>
	</style>

	<defs id="Patterns_And_Gradients">
		<linearGradient id="grad0-32" x1="0" y1="0" x2="1" y2="0" gradientTransform="rotate(315 0.5 0.5)">
			<stop offset="0" stop-color="#fafafa" stop-opacity="1"/>
			<stop offset="0.74" stop-color="#d6d6d6" stop-opacity="1"/>
			<stop offset="0.83" stop-color="#d6d6d6" stop-opacity="1"/>
			<stop offset="1" stop-color="#e4e4e4" stop-opacity="1"/>
		</linearGradient>
		<radialGradient id="grad7-61" cx="0" cy="0" r="1.4">
			<stop offset="0" stop-color="#dbdbdb" stop-opacity="1"/>
			<stop offset="0.46" stop-color="#a9a9a9" stop-opacity="1"/>
			<stop offset="1" stop-color="#636363" stop-opacity="1"/>
		</radialGradient>
	</defs>
	<defs id="Markers">
		<g id="lend5">
			<path d="M 2 1 L 0 0 L 1.98117 -0.993387 C 1.67173 -0.364514 1.67301 0.372642 1.98465 1.00043 " style="stroke:none"/>
		</g>
		<marker id="mrkr5-96" class="st12" v:arrowType="5" v:arrowSize="2" v:setback="7.63" refX="-7.63" orient="auto"
				markerUnits="strokeWidth" overflow="visible">
			<use xlink:href="#lend5" transform="scale(-4.36,-4.36) "/>
		</marker>
		<marker id="mrkr5-117" class="st12" v:arrowType="5" v:arrowSize="2" v:setback="7.15" refX="-7.15" orient="auto"
				markerUnits="strokeWidth" overflow="visible">
			<use xlink:href="#lend5" transform="scale(-4.36,-4.36) "/>
		</marker>
	</defs>
	<defs id="Filters">
		<filter id="filter_2">
			<feGaussianBlur stdDeviation="2"/>
		</filter>
	</defs>
	<g v:mID="0" v:index="1" v:groupContext="foregroundPage">
		<title>页-1</title>
		<v:pageProperties v:drawingScale="0.0393701" v:pageScale="0.0393701" v:drawingUnits="24" v:shadowOffsetX="8.50394"
				v:shadowOffsetY="-8.50394"/>
		<v:layer v:name="流程图" v:index="0"/>
		<v:layer v:name="连接线" v:index="1"/>
		<g id="group35-1" transform="translate(3.4044,-5.34778)" v:mID="35" v:groupContext="group">
			<title>工作表.35</title>
			<g id="shape1-2" v:mID="1" v:groupContext="shape" transform="translate(120.472,-106.299)">
				<title>矩形</title>
				<desc>count</desc>
				<v:userDefs>
					<v:ud v:nameU="visVersion" v:val="VT0(15):26"/>
				</v:userDefs>
				<v:textBlock v:margins="rect(4,4,4,4)" v:tabSpace="42.5197"/>
				<v:textRect cx="24.8031" cy="120.899" width="49.61" height="14.1732"/>
				<g id="shadow1-3" v:groupContext="shadow" v:shadowOffsetX="0.345598" v:shadowOffsetY="-1.97279" v:shadowType="1"
						transform="matrix(1,0,0,1,0.345598,1.97279)" class="st1">
					<rect x="0" y="113.813" width="49.6063" height="14.1732" class="st2"/>
				</g>
				<rect x="0" y="113.813" width="49.6063" height="14.1732" class="st3"/>
				<text x="12.58" y="124.2" class="st4" v:langID="2052"><v:paragraph v:horizAlign="1"/><v:tabList/>count</text>			</g>
			<g id="shape2-8" v:mID="2" v:groupContext="shape" transform="translate(120.472,-92.126)">
				<title>矩形.2</title>
				<desc>count</desc>
				<v:userDefs>
					<v:ud v:nameU="visVersion" v:val="VT0(15):26"/>
				</v:userDefs>
				<v:textBlock v:margins="rect(4,4,4,4)" v:tabSpace="42.5197"/>
				<v:textRect cx="24.8031" cy="120.899" width="49.61" height="14.1732"/>
				<g id="shadow2-9" v:groupContext="shadow" v:shadowOffsetX="0.345598" v:shadowOffsetY="-1.97279" v:shadowType="1"
						transform="matrix(1,0,0,1,0.345598,1.97279)" class="st1">
					<rect x="0" y="113.813" width="49.6063" height="14.1732" class="st2"/>
				</g>
				<rect x="0" y="113.813" width="49.6063" height="14.1732" class="st3"/>
				<text x="12.58" y="124.2" class="st4" v:langID="2052"><v:paragraph v:horizAlign="1"/><v:tabList/>count</text>			</g>
			<g id="shape3-14" v:mID="3" v:groupContext="shape" transform="translate(120.472,-77.9528)">
				<title>矩形.3</title>
				<desc>count</desc>
				<v:userDefs>
					<v:ud v:nameU="visVersion" v:val="VT0(15):26"/>
				</v:userDefs>
				<v:textBlock v:margins="rect(4,4,4,4)" v:tabSpace="42.5197"/>
				<v:textRect cx="24.8031" cy="120.899" width="49.61" height="14.1732"/>
				<g id="shadow3-15" v:groupContext="shadow" v:shadowOffsetX="0.345598" v:shadowOffsetY="-1.97279" v:shadowType="1"
						transform="matrix(1,0,0,1,0.345598,1.97279)" class="st1">
					<rect x="0" y="113.813" width="49.6063" height="14.1732" class="st2"/>
				</g>
				<rect x="0" y="113.813" width="49.6063" height="14.1732" class="st3"/>
				<text x="12.58" y="124.2" class="st4" v:langID="2052"><v:paragraph v:horizAlign="1"/><v:tabList/>count</text>			</g>
			<g id="shape4-20" v:mID="4" v:groupContext="shape" transform="translate(120.472,-63.7795)">
				<title>矩形.4</title>
				<desc>count</desc>
				<v:userDefs>
					<v:ud v:nameU="visVersion" v:val="VT0(15):26"/>
				</v:userDefs>
				<v:textBlock v:margins="rect(4,4,4,4)" v:tabSpace="42.5197"/>
				<v:textRect cx="24.8031" cy="120.899" width="49.61" height="14.1732"/>
				<g id="shadow4-21" v:groupContext="shadow" v:shadowOffsetX="0.345598" v:shadowOffsetY="-1.97279" v:shadowType="1"
						transform="matrix(1,0,0,1,0.345598,1.97279)" class="st1">
					<rect x="0" y="113.813" width="49.6063" height="14.1732" class="st2"/>
				</g>
				<rect x="0" y="113.813" width="49.6063" height="14.1732" class="st3"/>
				<text x="12.58" y="124.2" class="st4" v:langID="2052"><v:paragraph v:horizAlign="1"/><v:tabList/>count</text>			</g>
			<g id="shape5-26" v:mID="5" v:groupContext="shape" transform="translate(205.512,-106.299)">
				<title>椭圆形</title>
				<desc>inc/dec</desc>
				<v:userDefs>
					<v:ud v:nameU="visVersion" v:val="VT0(15):26"/>
				</v:userDefs>
				<v:textBlock v:margins="rect(4,4,4,4)" v:tabSpace="42.5197"/>
				<v:textRect cx="24.8031" cy="120.899" width="43.41" height="12.4016"/>
				<g id="shadow5-27" v:groupContext="shadow" v:shadowOffsetX="0.345598" v:shadowOffsetY="-1.97279" v:shadowType="1"
						transform="matrix(1,0,0,1,0.345598,1.97279)" class="st1">
					<path d="M0 120.9 A24.8031 7.08661 0 0 1 49.61 120.9 A24.8031 7.08661 0 1 1 0 120.9 Z" class="st2"/>
				</g>
				<path d="M0 120.9 A24.8031 7.08661 0 0 1 49.61 120.9 A24.8031 7.08661 0 1 1 0 120.9 Z" class="st5"/>
				<text x="8.92" y="124.2" class="st4" v:langID="2052"><v:paragraph v:horizAlign="1"/><v:tabList/>inc/dec</text>			</g>
			<g id="shape6-34" v:mID="6" v:groupContext="shape" transform="translate(205.512,-92.126)">
				<title>椭圆形.6</title>
				<desc>inc/dec</desc>
				<v:userDefs>
					<v:ud v:nameU="visVersion" v:val="VT0(15):26"/>
				</v:userDefs>
				<v:textBlock v:margins="rect(4,4,4,4)" v:tabSpace="42.5197"/>
				<v:textRect cx="24.8031" cy="120.899" width="43.41" height="12.4016"/>
				<g id="shadow6-35" v:groupContext="shadow" v:shadowOffsetX="0.345598" v:shadowOffsetY="-1.97279" v:shadowType="1"
						transform="matrix(1,0,0,1,0.345598,1.97279)" class="st1">
					<path d="M0 120.9 A24.8031 7.08661 0 0 1 49.61 120.9 A24.8031 7.08661 0 1 1 0 120.9 Z" class="st2"/>
				</g>
				<path d="M0 120.9 A24.8031 7.08661 0 0 1 49.61 120.9 A24.8031 7.08661 0 1 1 0 120.9 Z" class="st5"/>
				<text x="8.92" y="124.2" class="st4" v:langID="2052"><v:paragraph v:horizAlign="1"/><v:tabList/>inc/dec</text>			</g>
			<g id="shape7-41" v:mID="7" v:groupContext="shape" transform="translate(205.512,-77.9528)">
				<title>椭圆形.7</title>
				<desc>inc/dec</desc>
				<v:userDefs>
					<v:ud v:nameU="visVersion" v:val="VT0(15):26"/>
				</v:userDefs>
				<v:textBlock v:margins="rect(4,4,4,4)" v:tabSpace="42.5197"/>
				<v:textRect cx="24.8031" cy="120.899" width="43.41" height="12.4016"/>
				<g id="shadow7-42" v:groupContext="shadow" v:shadowOffsetX="0.345598" v:shadowOffsetY="-1.97279" v:shadowType="1"
						transform="matrix(1,0,0,1,0.345598,1.97279)" class="st1">
					<path d="M0 120.9 A24.8031 7.08661 0 0 1 49.61 120.9 A24.8031 7.08661 0 1 1 0 120.9 Z" class="st2"/>
				</g>
				<path d="M0 120.9 A24.8031 7.08661 0 0 1 49.61 120.9 A24.8031 7.08661 0 1 1 0 120.9 Z" class="st5"/>
				<text x="8.92" y="124.2" class="st4" v:langID="2052"><v:paragraph v:horizAlign="1"/><v:tabList/>inc/dec</text>			</g>
			<g id="shape8-48" v:mID="8" v:groupContext="shape" transform="translate(205.512,-63.7795)">
				<title>椭圆形.8</title>
				<desc>inc/dec</desc>
				<v:userDefs>
					<v:ud v:nameU="visVersion" v:val="VT0(15):26"/>
				</v:userDefs>
				<v:textBlock v:margins="rect(4,4,4,4)" v:tabSpace="42.5197"/>
				<v:textRect cx="24.8031" cy="120.899" width="43.41" height="12.4016"/>
				<g id="shadow8-49" v:groupContext="shadow" v:shadowOffsetX="0.345598" v:shadowOffsetY="-1.97279" v:shadowType="1"
						transform="matrix(1,0,0,1,0.345598,1.97279)" class="st1">
					<path d="M0 120.9 A24.8031 7.08661 0 0 1 49.61 120.9 A24.8031 7.08661 0 1 1 0 120.9 Z" class="st2"/>
				</g>
				<path d="M0 120.9 A24.8031 7.08661 0 0 1 49.61 120.9 A24.8031 7.08661 0 1 1 0 120.9 Z" class="st5"/>
				<text x="8.92" y="124.2" class="st4" v:langID="2052"><v:paragraph v:horizAlign="1"/><v:tabList/>inc/dec</text>			</g>
			<g id="shape9-55" v:mID="9" v:groupContext="shape" transform="translate(290.551,-106.299)">
				<title>矩形.9</title>
				<desc>cpu#0</desc>
				<v:userDefs>
					<v:ud v:nameU="visVersion" v:val="VT0(15):26"/>
				</v:userDefs>
				<v:textBlock v:margins="rect(4,4,4,4)" v:tabSpace="42.5197"/>
				<v:textRect cx="21.2598" cy="120.899" width="42.52" height="14.1732"/>
				<g id="shadow9-56" v:groupContext="shadow" v:shadowOffsetX="0.345598" v:shadowOffsetY="-1.97279" v:shadowType="1"
						transform="matrix(1,0,0,1,0.345598,1.97279)" class="st1">
					<rect x="0" y="113.813" width="42.5197" height="14.1732" class="st2"/>
				</g>
				<rect x="0" y="113.813" width="42.5197" height="14.1732" class="st6"/>
				<text x="7.82" y="124.2" class="st4" v:langID="2052"><v:paragraph v:horizAlign="1"/><v:tabList/>cpu#0</text>			</g>
			<g id="shape10-63" v:mID="10" v:groupContext="shape" transform="translate(290.551,-92.126)">
				<title>矩形.10</title>
				<desc>cpu#1</desc>
				<v:userDefs>
					<v:ud v:nameU="visVersion" v:val="VT0(15):26"/>
				</v:userDefs>
				<v:textBlock v:margins="rect(4,4,4,4)" v:tabSpace="42.5197"/>
				<v:textRect cx="21.2598" cy="120.899" width="42.52" height="14.1732"/>
				<g id="shadow10-64" v:groupContext="shadow" v:shadowOffsetX="0.345598" v:shadowOffsetY="-1.97279" v:shadowType="1"
						transform="matrix(1,0,0,1,0.345598,1.97279)" class="st1">
					<rect x="0" y="113.813" width="42.5197" height="14.1732" class="st2"/>
				</g>
				<rect x="0" y="113.813" width="42.5197" height="14.1732" class="st6"/>
				<text x="7.82" y="124.2" class="st4" v:langID="2052"><v:paragraph v:horizAlign="1"/><v:tabList/>cpu#1</text>			</g>
			<g id="shape11-70" v:mID="11" v:groupContext="shape" transform="translate(290.551,-77.9528)">
				<title>矩形.11</title>
				<desc>cpu#2</desc>
				<v:userDefs>
					<v:ud v:nameU="visVersion" v:val="VT0(15):26"/>
				</v:userDefs>
				<v:textBlock v:margins="rect(4,4,4,4)" v:tabSpace="42.5197"/>
				<v:textRect cx="21.2598" cy="120.899" width="42.52" height="14.1732"/>
				<g id="shadow11-71" v:groupContext="shadow" v:shadowOffsetX="0.345598" v:shadowOffsetY="-1.97279" v:shadowType="1"
						transform="matrix(1,0,0,1,0.345598,1.97279)" class="st1">
					<rect x="0" y="113.813" width="42.5197" height="14.1732" class="st2"/>
				</g>
				<rect x="0" y="113.813" width="42.5197" height="14.1732" class="st6"/>
				<text x="7.82" y="124.2" class="st4" v:langID="2052"><v:paragraph v:horizAlign="1"/><v:tabList/>cpu#2</text>			</g>
			<g id="shape12-77" v:mID="12" v:groupContext="shape" transform="translate(290.551,-63.7795)">
				<title>矩形.12</title>
				<desc>cpu#3</desc>
				<v:userDefs>
					<v:ud v:nameU="visVersion" v:val="VT0(15):26"/>
				</v:userDefs>
				<v:textBlock v:margins="rect(4,4,4,4)" v:tabSpace="42.5197"/>
				<v:textRect cx="21.2598" cy="120.899" width="42.52" height="14.1732"/>
				<g id="shadow12-78" v:groupContext="shadow" v:shadowOffsetX="0.345598" v:shadowOffsetY="-1.97279" v:shadowType="1"
						transform="matrix(1,0,0,1,0.345598,1.97279)" class="st1">
					<rect x="0" y="113.813" width="42.5197" height="14.1732" class="st2"/>
				</g>
				<rect x="0" y="113.813" width="42.5197" height="14.1732" class="st6"/>
				<text x="7.82" y="124.2" class="st4" v:langID="2052"><v:paragraph v:horizAlign="1"/><v:tabList/>cpu#3</text>			</g>
			<g id="shape13-84" v:mID="13" v:groupContext="shape" v:layerMember="0" transform="translate(-7.99361E-015,-7.08661)">
				<title>判定</title>
				<desc>over threshold</desc>
				<v:custProps>
					<v:cp v:nameU="Cost" v:lbl="成本" v:prompt="" v:type="7" v:format="@" v:sortKey="" v:invis="false" v:ask="false"
							v:langID="2052" v:cal="0"/>
					<v:cp v:nameU="ProcessNumber" v:lbl="进程编号" v:prompt="" v:type="2" v:format="" v:sortKey="" v:invis="false"
							v:ask="false" v:langID="2052" v:cal="0"/>
					<v:cp v:nameU="Owner" v:lbl="所有者" v:prompt="" v:type="0" v:format="" v:sortKey="" v:invis="false" v:ask="false"
							v:langID="2052" v:cal="0"/>
					<v:cp v:nameU="Function" v:lbl="函数" v:prompt="" v:type="0" v:format="" v:sortKey="" v:invis="false"
							v:ask="false" v:langID="2052" v:cal="0" v:val="VT4()"/>
					<v:cp v:nameU="StartDate" v:lbl="开始日期" v:prompt="" v:type="5" v:format="" v:sortKey="" v:invis="false"
							v:ask="false" v:langID="2052" v:cal="0"/>
					<v:cp v:nameU="EndDate" v:lbl="结束日期" v:prompt="" v:type="5" v:format="" v:sortKey="" v:invis="false"
							v:ask="false" v:langID="2052" v:cal="0"/>
					<v:cp v:nameU="Status" v:lbl="状态" v:prompt="" v:type="4" v:format=";未开始;进行中;已完成;已推迟;正在等待输入" v:sortKey=""
							v:invis="false" v:ask="false" v:langID="2052" v:cal="0" v:val="VT4()"/>
				</v:custProps>
				<v:userDefs>
					<v:ud v:nameU="visVersion" v:prompt="" v:val="VT0(15):26"/>
					<v:ud v:nameU="DefaultWidth" v:prompt="" v:val="VT0(0.98425196850394):24"/>
					<v:ud v:nameU="DefaultHeight" v:prompt="" v:val="VT0(0.59055118110236):24"/>
					<v:ud v:nameU="ResizeTxtHeight" v:prompt="" v:val="VT0(0.59055118110236):24"/>
				</v:userDefs>
				<v:textBlock v:margins="rect(2,2,2,2)" v:tabSpace="42.5197"/>
				<v:textRect cx="42.5197" cy="110.269" width="70.87" height="26.5748"/>
				<g id="shadow13-85" v:groupContext="shadow" v:shadowOffsetX="0.345598" v:shadowOffsetY="-1.97279" v:shadowType="1"
						transform="matrix(1,0,0,1,0.345598,1.97279)" class="st1">
					<path d="M0 110.27 L42.52 92.55 L85.04 110.27 L42.52 127.99 L0 110.27 Z" class="st7"/>
				</g>
				<path d="M0 110.27 L42.52 92.55 L85.04 110.27 L42.52 127.99 L0 110.27 Z" class="st8"/>
				<text x="33.64" y="107.27" class="st9" v:langID="2052"><v:paragraph v:horizAlign="1"/><v:tabList/>over<v:newlineChar/><tspan
							x="23.91" dy="1.2em" class="st10">threshold</tspan></text>			</g>
			<g id="shape20-91" v:mID="20" v:groupContext="shape" v:layerMember="1"
					transform="translate(205.512,-113.386) scale(-1,1)">
				<title>直线连接线</title>
				<v:userDefs>
					<v:ud v:nameU="visVersion" v:val="VT0(15):26"/>
				</v:userDefs>
				<path d="M0 127.99 L29.71 127.99" class="st11"/>
			</g>
			<g id="shape21-97" v:mID="21" v:groupContext="shape" v:layerMember="1"
					transform="translate(205.512,-99.2126) scale(-1,1)">
				<title>直线连接线.21</title>
				<v:userDefs>
					<v:ud v:nameU="visVersion" v:val="VT0(15):26"/>
				</v:userDefs>
				<path d="M0 127.99 L29.71 127.99" class="st11"/>
			</g>
			<g id="shape22-102" v:mID="22" v:groupContext="shape" v:layerMember="1"
					transform="translate(205.512,-85.0394) scale(-1,1)">
				<title>直线连接线.22</title>
				<v:userDefs>
					<v:ud v:nameU="visVersion" v:val="VT0(15):26"/>
				</v:userDefs>
				<path d="M0 127.99 L29.71 127.99" class="st11"/>
			</g>
			<g id="shape23-107" v:mID="23" v:groupContext="shape" v:layerMember="1"
					transform="translate(205.512,-70.8661) scale(-1,1)">
				<title>直线连接线.23</title>
				<v:userDefs>
					<v:ud v:nameU="visVersion" v:val="VT0(15):26"/>
				</v:userDefs>
				<path d="M0 127.99 L29.71 127.99" class="st11"/>
			</g>
			<g id="shape24-112" v:mID="24" v:groupContext="shape" v:layerMember="1"
					transform="translate(34.3799,-80.1019) rotate(-42.2737) scale(-1,1)">
				<title>直线-曲线连接线</title>
				<v:userDefs>
					<v:ud v:nameU="Scale" v:val="VT0(1):26"/>
					<v:ud v:nameU="AntiScale" v:val="VT0(1):26"/>
					<v:ud v:nameU="visVersion" v:val="VT0(15):26"/>
				</v:userDefs>
				<path d="M0 127.99 L13.33 115.23 L26.47 105.97 L39.44 100.19 L52.23 97.9 L64.85 99.1 L77.29 103.79 L89.54 111.97
							 L101.63 123.64 L101.86 123.91" class="st13"/>
			</g>
			<g id="shape25-118" v:mID="25" v:groupContext="shape" v:layerMember="1"
					transform="translate(45.1948,-74.7335) rotate(-36.0274) scale(-1,1)">
				<title>直线-曲线连接线.25</title>
				<v:userDefs>
					<v:ud v:nameU="Scale" v:val="VT0(1):26"/>
					<v:ud v:nameU="AntiScale" v:val="VT0(1):26"/>
					<v:ud v:nameU="visVersion" v:val="VT0(15):26"/>
				</v:userDefs>
				<path d="M0 127.99 L14.87 116.99 L28.82 108.97 L41.85 103.91 L53.96 101.83 L65.16 102.72 L75.44 106.57 L84.8 113.4
							 L93.25 123.2 L93.45 123.5" class="st13"/>
			</g>
			<g id="shape26-123" v:mID="26" v:groupContext="shape" v:layerMember="1"
					transform="translate(59.1862,-69.4117) rotate(-28.6105) scale(-1,1)">
				<title>直线-曲线连接线.26</title>
				<v:userDefs>
					<v:ud v:nameU="Scale" v:val="VT0(1):26"/>
					<v:ud v:nameU="AntiScale" v:val="VT0(1):26"/>
					<v:ud v:nameU="visVersion" v:val="VT0(15):26"/>
				</v:userDefs>
				<path d="M0 127.99 L17.28 117.56 L32.9 110.37 L46.85 106.41 L59.15 105.69 L69.79 108.21 L78.76 113.96 L86.08 122.95
							 L86.25 123.27" class="st13"/>
			</g>
			<g id="shape27-128" v:mID="27" v:groupContext="shape" v:layerMember="1"
					transform="translate(76.7342,-63.1606) rotate(-19.9831) scale(-1,1)">
				<title>直线-曲线连接线.27</title>
				<v:userDefs>
					<v:ud v:nameU="Scale" v:val="VT0(1):26"/>
					<v:ud v:nameU="AntiScale" v:val="VT0(1):26"/>
					<v:ud v:nameU="visVersion" v:val="VT0(15):26"/>
				</v:userDefs>
				<path d="M0 127.99 L18.12 121.89 L34.03 117.58 L47.74 115.05 L59.25 114.31 L68.55 115.35 L75.65 118.18 L80.55 122.79
							 L80.7 123.12" class="st13"/>
			</g>
			<g id="shape28-133" v:mID="28" v:groupContext="shape" v:layerMember="1"
					transform="translate(290.551,-113.386) scale(-1,1)">
				<title>直线连接线.28</title>
				<v:userDefs>
					<v:ud v:nameU="visVersion" v:val="VT0(15):26"/>
				</v:userDefs>
				<path d="M0 127.99 L35.43 127.99" class="st14"/>
			</g>
			<g id="shape29-136" v:mID="29" v:groupContext="shape" v:layerMember="1"
					transform="translate(290.551,-99.2126) scale(-1,1)">
				<title>直线连接线.29</title>
				<v:userDefs>
					<v:ud v:nameU="visVersion" v:val="VT0(15):26"/>
				</v:userDefs>
				<path d="M0 127.99 L35.43 127.99" class="st14"/>
			</g>
			<g id="shape30-139" v:mID="30" v:groupContext="shape" v:layerMember="1"
					transform="translate(290.551,-85.0394) scale(-1,1)">
				<title>直线连接线.30</title>
				<v:userDefs>
					<v:ud v:nameU="visVersion" v:val="VT0(15):26"/>
				</v:userDefs>
				<path d="M0 127.99 L35.43 127.99" class="st14"/>
			</g>
			<g id="shape31-142" v:mID="31" v:groupContext="shape" v:layerMember="1"
					transform="translate(290.551,-70.8661) scale(-1,1)">
				<title>直线连接线.31</title>
				<v:userDefs>
					<v:ud v:nameU="visVersion" v:val="VT0(15):26"/>
				</v:userDefs>
				<path d="M0 127.99 L35.43 127.99" class="st14"/>
			</g>
			<g id="shape32-145" v:mID="32" v:groupContext="shape" transform="translate(180.709,0)">
				<title>矩形.32</title>
				<desc>global count</desc>
				<v:userDefs>
					<v:ud v:nameU="visVersion" v:val="VT0(15):26"/>
				</v:userDefs>
				<v:textBlock v:margins="rect(4,4,4,4)" v:tabSpace="42.5197"/>
				<v:textRect cx="49.6063" cy="120.899" width="99.22" height="14.1732"/>
				<g id="shadow32-146" v:groupContext="shadow" v:shadowOffsetX="0.345598" v:shadowOffsetY="-1.97279" v:shadowType="1"
						transform="matrix(1,0,0,1,0.345598,1.97279)" class="st1">
					<rect x="0" y="113.813" width="99.2126" height="14.1732" class="st2"/>
				</g>
				<rect x="0" y="113.813" width="99.2126" height="14.1732" class="st15"/>
				<text x="22.26" y="124.2" class="st4" v:langID="2052"><v:paragraph v:horizAlign="1"/><v:tabList/>global count</text>			</g>
			<g id="shape33-151" v:mID="33" v:groupContext="shape" v:layerMember="1"
					transform="translate(85.0394,231.168) scale(1,-1)">
				<title>侧边到顶部/底部</title>
				<v:userDefs>
					<v:ud v:nameU="TextPos" v:val="VT0(0):5"/>
					<v:ud v:nameU="visVersion" v:val="VT0(15):26"/>
				</v:userDefs>
				<path d="M0 127.99 L145.28 127.99 L145.28 123.08" class="st11"/>
			</g>
			<g id="shape34-156" v:mID="34" v:groupContext="shape" transform="translate(85.0394,-26.3622)">
				<title>工作表.34</title>
				<desc>yes</desc>
				<v:textBlock v:margins="rect(4,4,4,4)" v:tabSpace="42.5197"/>
				<v:textRect cx="10.6299" cy="124.797" width="21.26" height="6.37795"/>
				<rect x="0" y="121.608" width="21.2598" height="6.37795" class="st16"/>
				<text x="5.3" y="127.2" class="st17" v:langID="2052"><v:paragraph v:horizAlign="1"/><v:tabList/>yes</text>			</g>
		</g>
	</g>
</svg>
