<?xml version="1.0" encoding="UTF-8" standalone="no"?>
<!DOCTYPE svg PUBLIC "-//W3C//DTD SVG 1.1//EN" "http://www.w3.org/Graphics/SVG/1.1/DTD/svg11.dtd">
<!-- 由 Microsoft Visio, SVG Export 生成 slub-allocator.svg 页-1 -->
<svg xmlns="http://www.w3.org/2000/svg" xmlns:xlink="http://www.w3.org/1999/xlink" xmlns:ev="http://www.w3.org/2001/xml-events"
		xmlns:v="http://schemas.microsoft.com/visio/2003/SVGExtensions/" width="7.29388in" height="2.03082in"
		viewBox="0 0 525.159 146.219" xml:space="preserve" color-interpolation-filters="sRGB" class="st17">
	<v:documentProperties v:langID="2052" v:metric="true" v:viewMarkup="false"/>

	<style type="text/css">
	<![CDATA[
		.st1 {fill:none;stroke:none;stroke-width:0.25}
		.st2 {fill:#000000;font-family:Times New Roman;font-size:1.00001em}
		.st3 {stroke:#000000;stroke-width:0.25}
		.st4 {visibility:visible}
		.st5 {fill:#5b9bd5;fill-opacity:0.22;filter:url(#filter_2);stroke:#5b9bd5;stroke-opacity:0.22}
		.st6 {fill:#00b0f0;stroke:#000000;stroke-width:0.5}
		.st7 {fill:#5b9bd5;fill-opacity:0.25;filter:url(#filter_2);stroke:#5b9bd5;stroke-opacity:0.25}
		.st8 {fill:#5b9bd5;fill-opacity:0.25;stroke:#5b9bd5;stroke-opacity:0.25;stroke-width:0.29411764705882}
		.st9 {fill:#a5a5a5;stroke:#a5a5a5;stroke-width:0.75}
		.st10 {fill:#a5a5a5;fill-opacity:1;stroke:#a5a5a5;stroke-opacity:1;stroke-width:0.29411764705882}
		.st11 {fill:#000000;font-family:Times New Roman;font-size:0.75em}
		.st12 {fill:#ffc000;stroke:#000000;stroke-width:0.5}
		.st13 {baseline-shift:32.4941%;font-size:0.649882em}
		.st14 {font-size:1em}
		.st15 {fill:#ffffff;stroke:#000000;stroke-width:0.5}
		.st16 {stroke:#7f7f7f;stroke-dasharray:7,5;stroke-linecap:round;stroke-linejoin:round;stroke-width:1}
		.st17 {fill:none;fill-rule:evenodd;font-size:12px;overflow:visible;stroke-linecap:square;stroke-miterlimit:3}
	]]>
	</style>

	<defs id="Markers">
		<g id="lend4">
			<path d="M 2 1 L 0 0 L 2 -1 L 2 1 " style="stroke:none"/>
		</g>
		<marker id="mrkr4-18" class="st8" v:arrowType="4" v:arrowSize="1" v:setback="6.8" refX="-6.8" orient="auto"
				markerUnits="strokeWidth" overflow="visible">
			<use xlink:href="#lend4" transform="scale(-3.4,-3.4) "/>
		</marker>
		<marker id="mrkr4-22" class="st10" v:arrowType="4" v:arrowSize="1" v:setback="6.8" refX="-6.8" orient="auto"
				markerUnits="strokeWidth" overflow="visible">
			<use xlink:href="#lend4" transform="scale(-3.4,-3.4) "/>
		</marker>
	</defs>
	<defs id="Filters">
		<filter id="filter_2">
			<feGaussianBlur stdDeviation="2"/>
		</filter>
	</defs>
	<g v:mID="0" v:index="1" v:groupContext="foregroundPage">
		<title>页-1</title>
		<v:pageProperties v:drawingScale="0.0393701" v:pageScale="0.0393701" v:drawingUnits="24" v:shadowOffsetX="8.50394"
				v:shadowOffsetY="-8.50394"/>
		<g id="group37-1" transform="translate(0.25,-0.25)" v:mID="37" v:groupContext="group">
			<title>工作表.37</title>
			<g id="shape15-2" v:mID="15" v:groupContext="shape" transform="translate(77.9528,2.84217E-14)">
				<title>工作表.15</title>
				<desc>Page Allocator</desc>
				<v:textBlock v:margins="rect(4,4,4,4)" v:tabSpace="42.5197"/>
				<v:textRect cx="49.6063" cy="139.133" width="99.22" height="14.1732"/>
				<rect x="0" y="132.046" width="99.2126" height="14.1732" class="st1"/>
				<text x="13.78" y="142.73" class="st2" v:langID="2052"><v:paragraph v:horizAlign="1"/><v:tabList/>Page Allocator</text>			</g>
			<g id="shape17-5" v:mID="17" v:groupContext="shape" transform="translate(213.542,129.211) rotate(90) scale(-1,1)">
				<title>侧边大括号</title>
				<v:userDefs>
					<v:ud v:nameU="TxtW" v:val="VT0(0.55555555555556):29"/>
					<v:ud v:nameU="TxtA" v:val="VT0(1.5707963267949):37"/>
					<v:ud v:nameU="TxtAState" v:val="VT0(0):26"/>
					<v:ud v:nameU="TxtWState" v:val="VT0(0):26"/>
					<v:ud v:nameU="MaxRadius" v:val="VT0(0.19685039370079):24"/>
					<v:ud v:nameU="PosCH1" v:prompt="Constrains X postion of Control Handle #1" v:val="VT0(0):26"/>
					<v:ud v:nameU="PosCH2" v:prompt="Constrains Y postion of Control Handle #2" v:val="VT0(0):26"/>
					<v:ud v:nameU="Scale" v:val="VT0(1):26"/>
					<v:ud v:nameU="AntiScale" v:val="VT0(1):26"/>
					<v:ud v:nameU="visVersion" v:val="VT0(15):26"/>
					<v:ud v:nameU="TxtW" v:prompt="" v:val="VT0(0.625):29"/>
					<v:ud v:nameU="TxtA" v:prompt="" v:val="VT0(-1.5707963267949):32"/>
					<v:ud v:nameU="MaxRadius" v:prompt="" v:val="VT0(0.098425196850394):1"/>
				</v:userDefs>
				<path d="M0 139.13 A7.0865 7.0865 -180 0 0 7.09 146.22 L56.69 146.22 A7.0865 7.0865 0 0 1 63.78 153.31 A7.0865 7.0865
							 0 0 1 70.87 146.22 L120.47 146.22 A7.0865 7.0865 -180 0 0 127.56 139.13" class="st3"/>
			</g>
			<g id="shape18-8" v:mID="18" v:groupContext="shape" transform="translate(233.858,-17.0079)">
				<title>矩形.18</title>
				<desc>Slab Page</desc>
				<v:userDefs>
					<v:ud v:nameU="visVersion" v:val="VT0(15):26"/>
				</v:userDefs>
				<v:textBlock v:margins="rect(4,4,4,4)" v:tabSpace="42.5197"/>
				<v:textRect cx="49.6063" cy="82.4396" width="99.22" height="127.559"/>
				<g id="shadow18-9" v:groupContext="shadow" v:shadowOffsetX="0.345598" v:shadowOffsetY="-1.97279" v:shadowType="1"
						transform="matrix(1,0,0,1,0.345598,1.97279)" class="st4">
					<rect x="0" y="18.6601" width="99.2126" height="127.559" rx="1.41732" ry="1.41732" class="st5"/>
				</g>
				<rect x="0" y="18.6601" width="99.2126" height="127.559" rx="1.41732" ry="1.41732" class="st6"/>
				<text x="25.78" y="86.04" class="st2" v:langID="2052"><v:paragraph v:horizAlign="1"/><v:tabList/>Slab Page</text>			</g>
			<g id="shape19-14" v:mID="19" v:groupContext="shape" transform="translate(231.024,211.651) rotate(180)">
				<title>普通箭头</title>
				<v:userDefs>
					<v:ud v:nameU="visVersion" v:val="VT0(15):26"/>
					<v:ud v:nameU="ArrowType" v:prompt="" v:val="VT0(2):26"/>
				</v:userDefs>
				<g id="shadow19-15" v:groupContext="shadow" v:shadowOffsetX="0.345598" v:shadowOffsetY="-1.97279" v:shadowType="1"
						transform="matrix(1,0,0,1,-0.345598,-1.97279)" class="st4">
					<path d="M0 146.22 L11.34 140.55 L11.34 143.38 L51.02 143.38 L51.02 146.22 L51.02 149.05 L11.34 149.05 L11.34
								 151.89 L0 146.22 Z" class="st7"/>
				</g>
				<path d="M0 146.22 L11.34 140.55 L11.34 143.38 L51.02 143.38 L51.02 146.22 L51.02 149.05 L11.34 149.05 L11.34 151.89
							 L0 146.22 Z" class="st9"/>
			</g>
			<g id="shape20-23" v:mID="20" v:groupContext="shape" transform="translate(1.19904E-14,-73.7008)">
				<title>工作表.20</title>
				<desc>N-order pages</desc>
				<v:textBlock v:margins="rect(4,4,4,4)" v:tabSpace="42.5197"/>
				<v:textRect cx="32.9648" cy="139.133" width="65.93" height="14.1732"/>
				<rect x="0" y="132.046" width="65.9295" height="14.1732" class="st1"/>
				<text x="7.35" y="141.83" class="st11" v:langID="2052"><v:paragraph v:horizAlign="1"/><v:tabList/>N-order pages</text>			</g>
			<g id="shape31-26" v:mID="31" v:groupContext="shape" transform="translate(387.213,211.651) rotate(180)">
				<title>普通箭头.31</title>
				<v:userDefs>
					<v:ud v:nameU="visVersion" v:val="VT0(15):26"/>
					<v:ud v:nameU="ArrowType" v:prompt="" v:val="VT0(2):26"/>
				</v:userDefs>
				<g id="shadow31-27" v:groupContext="shadow" v:shadowOffsetX="0.345598" v:shadowOffsetY="-1.97279" v:shadowType="1"
						transform="matrix(1,0,0,1,-0.345598,-1.97279)" class="st4">
					<path d="M0 146.22 L11.34 140.55 L11.34 143.38 L51.02 143.38 L51.02 146.22 L51.02 149.05 L11.34 149.05 L11.34
								 151.89 L0 146.22 Z" class="st7"/>
				</g>
				<path d="M0 146.22 L11.34 140.55 L11.34 143.38 L51.02 143.38 L51.02 146.22 L51.02 149.05 L11.34 149.05 L11.34 151.89
							 L0 146.22 Z" class="st9"/>
			</g>
			<g id="group32-33" transform="translate(389.764,-17.0079)" v:mID="32" v:groupContext="group">
				<title>工作表.32</title>
				<g id="shape23-34" v:mID="23" v:groupContext="shape" transform="translate(-3.19744E-14,-99.2126)">
					<title>矩形.23</title>
					<desc>free slab object</desc>
					<v:userDefs>
						<v:ud v:nameU="visVersion" v:val="VT0(15):26"/>
					</v:userDefs>
					<v:textBlock v:margins="rect(4,4,4,4)" v:tabSpace="42.5197"/>
					<v:textRect cx="49.6063" cy="139.133" width="99.22" height="14.1732"/>
					<g id="shadow23-35" v:groupContext="shadow" v:shadowOffsetX="0.345598" v:shadowOffsetY="-1.97279"
							v:shadowType="1" transform="matrix(1,0,0,1,0.345598,1.97279)" class="st4">
						<rect x="0" y="132.046" width="99.2126" height="14.1732" rx="1.41732" ry="1.41732" class="st5"/>
					</g>
					<rect x="0" y="132.046" width="99.2126" height="14.1732" rx="1.41732" ry="1.41732" class="st12"/>
					<text x="12.96" y="142.73" class="st2" v:langID="2052"><v:paragraph v:horizAlign="1"/><v:tabList/>free slab object</text>				</g>
				<g id="shape24-40" v:mID="24" v:groupContext="shape" transform="translate(9.59233E-14,-85.0394)">
					<title>矩形.24</title>
					<desc>free slab object</desc>
					<v:userDefs>
						<v:ud v:nameU="visVersion" v:val="VT0(15):26"/>
					</v:userDefs>
					<v:textBlock v:margins="rect(4,4,4,4)" v:tabSpace="42.5197"/>
					<v:textRect cx="49.6063" cy="139.133" width="99.22" height="14.1732"/>
					<g id="shadow24-41" v:groupContext="shadow" v:shadowOffsetX="0.345598" v:shadowOffsetY="-1.97279"
							v:shadowType="1" transform="matrix(1,0,0,1,0.345598,1.97279)" class="st4">
						<rect x="0" y="132.046" width="99.2126" height="14.1732" rx="1.41732" ry="1.41732" class="st5"/>
					</g>
					<rect x="0" y="132.046" width="99.2126" height="14.1732" rx="1.41732" ry="1.41732" class="st12"/>
					<text x="12.96" y="142.73" class="st2" v:langID="2052"><v:paragraph v:horizAlign="1"/><v:tabList/>free slab object</text>				</g>
				<g id="shape25-46" v:mID="25" v:groupContext="shape" transform="translate(9.59233E-14,-70.8661)">
					<title>矩形.25</title>
					<desc>free slab object</desc>
					<v:userDefs>
						<v:ud v:nameU="visVersion" v:val="VT0(15):26"/>
					</v:userDefs>
					<v:textBlock v:margins="rect(4,4,4,4)" v:tabSpace="42.5197"/>
					<v:textRect cx="49.6063" cy="139.133" width="99.22" height="14.1732"/>
					<g id="shadow25-47" v:groupContext="shadow" v:shadowOffsetX="0.345598" v:shadowOffsetY="-1.97279"
							v:shadowType="1" transform="matrix(1,0,0,1,0.345598,1.97279)" class="st4">
						<rect x="0" y="132.046" width="99.2126" height="14.1732" rx="1.41732" ry="1.41732" class="st5"/>
					</g>
					<rect x="0" y="132.046" width="99.2126" height="14.1732" rx="1.41732" ry="1.41732" class="st12"/>
					<text x="12.96" y="142.73" class="st2" v:langID="2052"><v:paragraph v:horizAlign="1"/><v:tabList/>free slab object</text>				</g>
				<g id="shape26-52" v:mID="26" v:groupContext="shape" transform="translate(9.59233E-14,-56.6929)">
					<title>矩形.26</title>
					<desc>free slab object</desc>
					<v:userDefs>
						<v:ud v:nameU="visVersion" v:val="VT0(15):26"/>
					</v:userDefs>
					<v:textBlock v:margins="rect(4,4,4,4)" v:tabSpace="42.5197"/>
					<v:textRect cx="49.6063" cy="139.133" width="99.22" height="14.1732"/>
					<g id="shadow26-53" v:groupContext="shadow" v:shadowOffsetX="0.345598" v:shadowOffsetY="-1.97279"
							v:shadowType="1" transform="matrix(1,0,0,1,0.345598,1.97279)" class="st4">
						<rect x="0" y="132.046" width="99.2126" height="14.1732" rx="1.41732" ry="1.41732" class="st5"/>
					</g>
					<rect x="0" y="132.046" width="99.2126" height="14.1732" rx="1.41732" ry="1.41732" class="st12"/>
					<text x="12.96" y="142.73" class="st2" v:langID="2052"><v:paragraph v:horizAlign="1"/><v:tabList/>free slab object</text>				</g>
				<g id="shape27-58" v:mID="27" v:groupContext="shape" transform="translate(9.59233E-14,-42.5197)">
					<title>矩形.27</title>
					<desc>free slab object</desc>
					<v:userDefs>
						<v:ud v:nameU="visVersion" v:val="VT0(15):26"/>
					</v:userDefs>
					<v:textBlock v:margins="rect(4,4,4,4)" v:tabSpace="42.5197"/>
					<v:textRect cx="49.6063" cy="139.133" width="99.22" height="14.1732"/>
					<g id="shadow27-59" v:groupContext="shadow" v:shadowOffsetX="0.345598" v:shadowOffsetY="-1.97279"
							v:shadowType="1" transform="matrix(1,0,0,1,0.345598,1.97279)" class="st4">
						<rect x="0" y="132.046" width="99.2126" height="14.1732" rx="1.41732" ry="1.41732" class="st5"/>
					</g>
					<rect x="0" y="132.046" width="99.2126" height="14.1732" rx="1.41732" ry="1.41732" class="st12"/>
					<text x="12.96" y="142.73" class="st2" v:langID="2052"><v:paragraph v:horizAlign="1"/><v:tabList/>free slab object</text>				</g>
				<g id="shape28-64" v:mID="28" v:groupContext="shape" transform="translate(9.59233E-14,-28.3465)">
					<title>矩形.28</title>
					<desc>free slab object</desc>
					<v:userDefs>
						<v:ud v:nameU="visVersion" v:val="VT0(15):26"/>
					</v:userDefs>
					<v:textBlock v:margins="rect(4,4,4,4)" v:tabSpace="42.5197"/>
					<v:textRect cx="49.6063" cy="139.133" width="99.22" height="14.1732"/>
					<g id="shadow28-65" v:groupContext="shadow" v:shadowOffsetX="0.345598" v:shadowOffsetY="-1.97279"
							v:shadowType="1" transform="matrix(1,0,0,1,0.345598,1.97279)" class="st4">
						<rect x="0" y="132.046" width="99.2126" height="14.1732" rx="1.41732" ry="1.41732" class="st5"/>
					</g>
					<rect x="0" y="132.046" width="99.2126" height="14.1732" rx="1.41732" ry="1.41732" class="st12"/>
					<text x="12.96" y="142.73" class="st2" v:langID="2052"><v:paragraph v:horizAlign="1"/><v:tabList/>free slab object</text>				</g>
				<g id="shape29-70" v:mID="29" v:groupContext="shape" transform="translate(9.59233E-14,-14.1732)">
					<title>矩形.29</title>
					<desc>free slab object</desc>
					<v:userDefs>
						<v:ud v:nameU="visVersion" v:val="VT0(15):26"/>
					</v:userDefs>
					<v:textBlock v:margins="rect(4,4,4,4)" v:tabSpace="42.5197"/>
					<v:textRect cx="49.6063" cy="139.133" width="99.22" height="14.1732"/>
					<g id="shadow29-71" v:groupContext="shadow" v:shadowOffsetX="0.345598" v:shadowOffsetY="-1.97279"
							v:shadowType="1" transform="matrix(1,0,0,1,0.345598,1.97279)" class="st4">
						<rect x="0" y="132.046" width="99.2126" height="14.1732" rx="1.41732" ry="1.41732" class="st5"/>
					</g>
					<rect x="0" y="132.046" width="99.2126" height="14.1732" rx="1.41732" ry="1.41732" class="st12"/>
					<text x="12.96" y="142.73" class="st2" v:langID="2052"><v:paragraph v:horizAlign="1"/><v:tabList/>free slab object</text>				</g>
				<g id="shape30-76" v:mID="30" v:groupContext="shape">
					<title>矩形.30</title>
					<desc>free slab object</desc>
					<v:userDefs>
						<v:ud v:nameU="visVersion" v:val="VT0(15):26"/>
					</v:userDefs>
					<v:textBlock v:margins="rect(4,4,4,4)" v:tabSpace="42.5197"/>
					<v:textRect cx="49.6063" cy="139.133" width="99.22" height="14.1732"/>
					<g id="shadow30-77" v:groupContext="shadow" v:shadowOffsetX="0.345598" v:shadowOffsetY="-1.97279"
							v:shadowType="1" transform="matrix(1,0,0,1,0.345598,1.97279)" class="st4">
						<rect x="0" y="132.046" width="99.2126" height="14.1732" rx="1.41732" ry="1.41732" class="st5"/>
					</g>
					<rect x="0" y="132.046" width="99.2126" height="14.1732" rx="1.41732" ry="1.41732" class="st12"/>
					<text x="12.96" y="142.73" class="st2" v:langID="2052"><v:paragraph v:horizAlign="1"/><v:tabList/>free slab object</text>				</g>
			</g>
			<g id="group33-82" transform="translate(77.9528,-17.0079)" v:mID="33" v:groupContext="group">
				<title>工作表.33</title>
				<g id="shape1-83" v:mID="1" v:groupContext="shape" transform="translate(0,-106.299)">
					<title>矩形</title>
					<desc>2n pages</desc>
					<v:userDefs>
						<v:ud v:nameU="visVersion" v:val="VT0(15):26"/>
					</v:userDefs>
					<v:textBlock v:margins="rect(4,4,4,4)" v:tabSpace="42.5197"/>
					<v:textRect cx="49.6063" cy="135.589" width="99.22" height="21.2598"/>
					<g id="shadow1-84" v:groupContext="shadow" v:shadowOffsetX="0.345598" v:shadowOffsetY="-1.97279"
							v:shadowType="1" transform="matrix(1,0,0,1,0.345598,1.97279)" class="st4">
						<rect x="0" y="124.959" width="99.2126" height="21.2598" rx="1.41732" ry="1.41732" class="st5"/>
					</g>
					<rect x="0" y="124.959" width="99.2126" height="21.2598" rx="1.41732" ry="1.41732" class="st12"/>
					<text x="29.5" y="139.19" class="st2" v:langID="2052"><v:paragraph v:horizAlign="1"/><v:tabList/>2<tspan
								dy="-0.198em" class="st13" v:baseFontSize="12">n</tspan><tspan dy="0.129em" class="st14"> </tspan>pages</text>				</g>
				<g id="shape3-91" v:mID="3" v:groupContext="shape" transform="translate(0,-42.5197)">
					<title>矩形.3</title>
					<desc>◦ ◦ ◦</desc>
					<v:userDefs>
						<v:ud v:nameU="visVersion" v:val="VT0(15):26"/>
					</v:userDefs>
					<v:textBlock v:margins="rect(4,4,4,4)" v:tabSpace="42.5197"/>
					<v:textRect cx="49.6063" cy="114.329" width="99.22" height="63.7795"/>
					<g id="shadow3-92" v:groupContext="shadow" v:shadowOffsetX="0.345598" v:shadowOffsetY="-1.97279"
							v:shadowType="1" transform="matrix(1,0,0,1,0.345598,1.97279)" class="st4">
						<rect x="0" y="82.4396" width="99.2126" height="63.7795" rx="1.41732" ry="1.41732" class="st5"/>
					</g>
					<rect x="0" y="82.4396" width="99.2126" height="63.7795" rx="1.41732" ry="1.41732" class="st15"/>
					<text x="47.48" y="103.53" class="st2" v:langID="2052"><v:paragraph v:horizAlign="1"/><v:tabList/>◦<v:newlineChar/><tspan
								x="47.48" dy="1.2em" class="st14">◦<v:newlineChar/></tspan><tspan x="47.48" dy="1.2em" class="st14">◦</tspan></text>				</g>
				<g id="shape6-99" v:mID="6" v:groupContext="shape" transform="translate(0,-21.2598)">
					<title>矩形.6</title>
					<desc>2 pages</desc>
					<v:userDefs>
						<v:ud v:nameU="visVersion" v:val="VT0(15):26"/>
					</v:userDefs>
					<v:textBlock v:margins="rect(4,4,4,4)" v:tabSpace="42.5197"/>
					<v:textRect cx="49.6063" cy="135.589" width="99.22" height="21.2598"/>
					<g id="shadow6-100" v:groupContext="shadow" v:shadowOffsetX="0.345598" v:shadowOffsetY="-1.97279"
							v:shadowType="1" transform="matrix(1,0,0,1,0.345598,1.97279)" class="st4">
						<rect x="0" y="124.959" width="99.2126" height="21.2598" rx="1.41732" ry="1.41732" class="st5"/>
					</g>
					<rect x="0" y="124.959" width="99.2126" height="21.2598" rx="1.41732" ry="1.41732" class="st12"/>
					<text x="31.44" y="139.19" class="st2" v:langID="2052"><v:paragraph v:horizAlign="1"/><v:tabList/>2 pages</text>				</g>
				<g id="shape7-105" v:mID="7" v:groupContext="shape">
					<title>矩形.7</title>
					<desc>1 page</desc>
					<v:userDefs>
						<v:ud v:nameU="visVersion" v:val="VT0(15):26"/>
					</v:userDefs>
					<v:textBlock v:margins="rect(4,4,4,4)" v:tabSpace="42.5197"/>
					<v:textRect cx="49.6063" cy="135.589" width="99.22" height="21.2598"/>
					<g id="shadow7-106" v:groupContext="shadow" v:shadowOffsetX="0.345598" v:shadowOffsetY="-1.97279"
							v:shadowType="1" transform="matrix(1,0,0,1,0.345598,1.97279)" class="st4">
						<rect x="0" y="124.959" width="99.2126" height="21.2598" rx="1.41732" ry="1.41732" class="st5"/>
					</g>
					<rect x="0" y="124.959" width="99.2126" height="21.2598" rx="1.41732" ry="1.41732" class="st12"/>
					<text x="33.78" y="139.19" class="st2" v:langID="2052"><v:paragraph v:horizAlign="1"/><v:tabList/>1 page</text>				</g>
			</g>
			<g id="shape34-111" v:mID="34" v:groupContext="shape" transform="translate(49.6063,-17.0079)">
				<title>工作表.34</title>
				<path d="M0 146.22 L474.8 146.22" class="st16"/>
			</g>
			<g id="shape36-114" v:mID="36" v:groupContext="shape" transform="translate(49.6063,-144.567)">
				<title>工作表.36</title>
				<path d="M0 146.22 L474.8 146.22" class="st16"/>
			</g>
		</g>
	</g>
</svg>
