<?xml version="1.0" encoding="UTF-8" standalone="no"?>
<!DOCTYPE svg PUBLIC "-//W3C//DTD SVG 1.1//EN" "http://www.w3.org/Graphics/SVG/1.1/DTD/svg11.dtd">
<!-- 由 Microsoft Visio, SVG Export 生成 slab-cache.svg 页-1 -->
<svg xmlns="http://www.w3.org/2000/svg" xmlns:xlink="http://www.w3.org/1999/xlink" xmlns:ev="http://www.w3.org/2001/xml-events"
		xmlns:v="http://schemas.microsoft.com/visio/2003/SVGExtensions/" width="4.42446in" height="4.03076in"
		viewBox="0 0 318.561 290.215" xml:space="preserve" color-interpolation-filters="sRGB" class="st9">
	<v:documentProperties v:langID="2052" v:metric="true" v:viewMarkup="false"/>

	<style type="text/css">
	<![CDATA[
		.st1 {visibility:visible}
		.st2 {fill:#5b9bd5;fill-opacity:0.22;filter:url(#filter_2);stroke:#5b9bd5;stroke-opacity:0.22}
		.st3 {fill:#ffffff;stroke:#000000;stroke-width:0.5}
		.st4 {fill:#000000;font-family:Times New Roman;font-size:1.16666em}
		.st5 {fill:#d8d8d8;stroke:#000000;stroke-width:0.5}
		.st6 {fill:#00b0f0;stroke:#000000;stroke-width:0.5}
		.st7 {fill:#ed7d31;stroke:#000000;stroke-width:0.5}
		.st8 {fill:#000000;font-family:Times New Roman;font-size:1.00001em}
		.st9 {fill:none;fill-rule:evenodd;font-size:12px;overflow:visible;stroke-linecap:square;stroke-miterlimit:3}
	]]>
	</style>

	<defs id="Filters">
		<filter id="filter_2">
			<feGaussianBlur stdDeviation="2"/>
		</filter>
	</defs>
	<g v:mID="0" v:index="1" v:groupContext="foregroundPage">
		<title>页-1</title>
		<v:pageProperties v:drawingScale="0.0393701" v:pageScale="0.0393701" v:drawingUnits="24" v:shadowOffsetX="8.50394"
				v:shadowOffsetY="-8.50394"/>
		<g id="group45-1" transform="translate(3.0294,-5.3478)" v:mID="45" v:groupContext="group">
			<title>工作表.45</title>
			<g id="shape44-2" v:mID="44" v:groupContext="shape">
				<title>矩形.44</title>
				<desc>Slab Cache</desc>
				<v:userDefs>
					<v:ud v:nameU="visVersion" v:val="VT0(15):26"/>
				</v:userDefs>
				<v:textBlock v:margins="rect(4,4,4,4)" v:tabSpace="42.5197" v:verticalAlign="0"/>
				<v:textRect cx="155.906" cy="148.482" width="311.82" height="283.465"/>
				<g id="shadow44-3" v:groupContext="shadow" v:shadowOffsetX="0.345598" v:shadowOffsetY="-1.97279" v:shadowType="1"
						transform="matrix(1,0,0,1,0.345598,1.97279)" class="st1">
					<rect x="0" y="6.75" width="311.811" height="283.465" rx="1.41732" ry="1.41732" class="st2"/>
				</g>
				<rect x="0" y="6.75" width="311.811" height="283.465" rx="1.41732" ry="1.41732" class="st3"/>
				<text x="124.22" y="23.35" class="st4" v:langID="2052"><v:paragraph v:horizAlign="1"/><v:tabList/>Slab Cache</text>			</g>
			<g id="shape43-8" v:mID="43" v:groupContext="shape" transform="translate(7.08661,-7.08661)">
				<title>矩形.43</title>
				<v:userDefs>
					<v:ud v:nameU="visVersion" v:val="VT0(15):26"/>
				</v:userDefs>
				<g id="shadow43-9" v:groupContext="shadow" v:shadowOffsetX="0.345598" v:shadowOffsetY="-1.97279" v:shadowType="1"
						transform="matrix(1,0,0,1,0.345598,1.97279)" class="st1">
					<rect x="0" y="42.1831" width="297.638" height="248.031" rx="1.41732" ry="1.41732" class="st2"/>
				</g>
				<rect x="0" y="42.1831" width="297.638" height="248.031" rx="1.41732" ry="1.41732" class="st5"/>
			</g>
			<g id="shape1-13" v:mID="1" v:groupContext="shape" transform="translate(21.2598,-177.165)">
				<title>矩形</title>
				<desc>Slab Page</desc>
				<v:userDefs>
					<v:ud v:nameU="visVersion" v:val="VT0(15):26"/>
				</v:userDefs>
				<v:textBlock v:margins="rect(4,4,4,4)" v:tabSpace="42.5197" v:verticalAlign="0"/>
				<v:textRect cx="63.7795" cy="258.325" width="127.56" height="63.7795"/>
				<g id="shadow1-14" v:groupContext="shadow" v:shadowOffsetX="0.345598" v:shadowOffsetY="-1.97279" v:shadowType="1"
						transform="matrix(1,0,0,1,0.345598,1.97279)" class="st1">
					<rect x="0" y="226.435" width="127.559" height="63.7795" rx="1.41732" ry="1.41732" class="st2"/>
				</g>
				<rect x="0" y="226.435" width="127.559" height="63.7795" rx="1.41732" ry="1.41732" class="st6"/>
				<text x="35.98" y="243.04" class="st4" v:langID="2052"><v:paragraph v:horizAlign="1"/><v:tabList/>Slab Page</text>			</g>
			<g id="shape2-19" v:mID="2" v:groupContext="shape" transform="translate(28.3465,-184.252)">
				<title>矩形.47</title>
				<desc>obj</desc>
				<v:userDefs>
					<v:ud v:nameU="visVersion" v:val="VT0(15):26"/>
				</v:userDefs>
				<v:textBlock v:margins="rect(4,4,4,4)" v:tabSpace="42.5197"/>
				<v:textRect cx="14.1732" cy="276.041" width="28.35" height="28.3465"/>
				<g id="shadow2-20" v:groupContext="shadow" v:shadowOffsetX="0.345598" v:shadowOffsetY="-1.97279" v:shadowType="1"
						transform="matrix(1,0,0,1,0.345598,1.97279)" class="st1">
					<rect x="0" y="261.868" width="28.3465" height="28.3465" rx="1.41732" ry="1.41732" class="st2"/>
				</g>
				<rect x="0" y="261.868" width="28.3465" height="28.3465" rx="1.41732" ry="1.41732" class="st7"/>
				<text x="6.51" y="279.64" class="st8" v:langID="2052"><v:paragraph v:horizAlign="1"/><v:tabList/>obj</text>			</g>
			<g id="shape3-25" v:mID="3" v:groupContext="shape" transform="translate(56.6929,-184.252)">
				<title>矩形.3</title>
				<desc>obj</desc>
				<v:userDefs>
					<v:ud v:nameU="visVersion" v:val="VT0(15):26"/>
				</v:userDefs>
				<v:textBlock v:margins="rect(4,4,4,4)" v:tabSpace="42.5197"/>
				<v:textRect cx="14.1732" cy="276.041" width="28.35" height="28.3465"/>
				<g id="shadow3-26" v:groupContext="shadow" v:shadowOffsetX="0.345598" v:shadowOffsetY="-1.97279" v:shadowType="1"
						transform="matrix(1,0,0,1,0.345598,1.97279)" class="st1">
					<rect x="0" y="261.868" width="28.3465" height="28.3465" rx="1.41732" ry="1.41732" class="st2"/>
				</g>
				<rect x="0" y="261.868" width="28.3465" height="28.3465" rx="1.41732" ry="1.41732" class="st7"/>
				<text x="6.51" y="279.64" class="st8" v:langID="2052"><v:paragraph v:horizAlign="1"/><v:tabList/>obj</text>			</g>
			<g id="shape4-31" v:mID="4" v:groupContext="shape" transform="translate(85.0394,-184.252)">
				<title>矩形.4</title>
				<desc>obj</desc>
				<v:userDefs>
					<v:ud v:nameU="visVersion" v:val="VT0(15):26"/>
				</v:userDefs>
				<v:textBlock v:margins="rect(4,4,4,4)" v:tabSpace="42.5197"/>
				<v:textRect cx="14.1732" cy="276.041" width="28.35" height="28.3465"/>
				<g id="shadow4-32" v:groupContext="shadow" v:shadowOffsetX="0.345598" v:shadowOffsetY="-1.97279" v:shadowType="1"
						transform="matrix(1,0,0,1,0.345598,1.97279)" class="st1">
					<rect x="0" y="261.868" width="28.3465" height="28.3465" rx="1.41732" ry="1.41732" class="st2"/>
				</g>
				<rect x="0" y="261.868" width="28.3465" height="28.3465" rx="1.41732" ry="1.41732" class="st7"/>
				<text x="6.51" y="279.64" class="st8" v:langID="2052"><v:paragraph v:horizAlign="1"/><v:tabList/>obj</text>			</g>
			<g id="shape5-37" v:mID="5" v:groupContext="shape" transform="translate(113.386,-184.252)">
				<title>矩形.5</title>
				<desc>obj</desc>
				<v:userDefs>
					<v:ud v:nameU="visVersion" v:val="VT0(15):26"/>
				</v:userDefs>
				<v:textBlock v:margins="rect(4,4,4,4)" v:tabSpace="42.5197"/>
				<v:textRect cx="14.1732" cy="276.041" width="28.35" height="28.3465"/>
				<g id="shadow5-38" v:groupContext="shadow" v:shadowOffsetX="0.345598" v:shadowOffsetY="-1.97279" v:shadowType="1"
						transform="matrix(1,0,0,1,0.345598,1.97279)" class="st1">
					<rect x="0" y="261.868" width="28.3465" height="28.3465" rx="1.41732" ry="1.41732" class="st2"/>
				</g>
				<rect x="0" y="261.868" width="28.3465" height="28.3465" rx="1.41732" ry="1.41732" class="st7"/>
				<text x="6.51" y="279.64" class="st8" v:langID="2052"><v:paragraph v:horizAlign="1"/><v:tabList/>obj</text>			</g>
			<g id="shape8-43" v:mID="8" v:groupContext="shape" transform="translate(162.992,-177.165)">
				<title>矩形.8</title>
				<desc>Slab Page</desc>
				<v:userDefs>
					<v:ud v:nameU="visVersion" v:val="VT0(15):26"/>
				</v:userDefs>
				<v:textBlock v:margins="rect(4,4,4,4)" v:tabSpace="42.5197" v:verticalAlign="0"/>
				<v:textRect cx="63.7795" cy="258.325" width="127.56" height="63.7795"/>
				<g id="shadow8-44" v:groupContext="shadow" v:shadowOffsetX="0.345598" v:shadowOffsetY="-1.97279" v:shadowType="1"
						transform="matrix(1,0,0,1,0.345598,1.97279)" class="st1">
					<rect x="0" y="226.435" width="127.559" height="63.7795" rx="1.41732" ry="1.41732" class="st2"/>
				</g>
				<rect x="0" y="226.435" width="127.559" height="63.7795" rx="1.41732" ry="1.41732" class="st6"/>
				<text x="35.98" y="243.04" class="st4" v:langID="2052"><v:paragraph v:horizAlign="1"/><v:tabList/>Slab Page</text>			</g>
			<g id="shape9-49" v:mID="9" v:groupContext="shape" transform="translate(170.079,-184.252)">
				<title>矩形.9</title>
				<desc>obj</desc>
				<v:userDefs>
					<v:ud v:nameU="visVersion" v:val="VT0(15):26"/>
				</v:userDefs>
				<v:textBlock v:margins="rect(4,4,4,4)" v:tabSpace="42.5197"/>
				<v:textRect cx="14.1732" cy="276.041" width="28.35" height="28.3465"/>
				<g id="shadow9-50" v:groupContext="shadow" v:shadowOffsetX="0.345598" v:shadowOffsetY="-1.97279" v:shadowType="1"
						transform="matrix(1,0,0,1,0.345598,1.97279)" class="st1">
					<rect x="0" y="261.868" width="28.3465" height="28.3465" rx="1.41732" ry="1.41732" class="st2"/>
				</g>
				<rect x="0" y="261.868" width="28.3465" height="28.3465" rx="1.41732" ry="1.41732" class="st7"/>
				<text x="6.51" y="279.64" class="st8" v:langID="2052"><v:paragraph v:horizAlign="1"/><v:tabList/>obj</text>			</g>
			<g id="shape10-55" v:mID="10" v:groupContext="shape" transform="translate(198.425,-184.252)">
				<title>矩形.10</title>
				<desc>obj</desc>
				<v:userDefs>
					<v:ud v:nameU="visVersion" v:val="VT0(15):26"/>
				</v:userDefs>
				<v:textBlock v:margins="rect(4,4,4,4)" v:tabSpace="42.5197"/>
				<v:textRect cx="14.1732" cy="276.041" width="28.35" height="28.3465"/>
				<g id="shadow10-56" v:groupContext="shadow" v:shadowOffsetX="0.345598" v:shadowOffsetY="-1.97279" v:shadowType="1"
						transform="matrix(1,0,0,1,0.345598,1.97279)" class="st1">
					<rect x="0" y="261.868" width="28.3465" height="28.3465" rx="1.41732" ry="1.41732" class="st2"/>
				</g>
				<rect x="0" y="261.868" width="28.3465" height="28.3465" rx="1.41732" ry="1.41732" class="st7"/>
				<text x="6.51" y="279.64" class="st8" v:langID="2052"><v:paragraph v:horizAlign="1"/><v:tabList/>obj</text>			</g>
			<g id="shape11-61" v:mID="11" v:groupContext="shape" transform="translate(226.772,-184.252)">
				<title>矩形.11</title>
				<desc>obj</desc>
				<v:userDefs>
					<v:ud v:nameU="visVersion" v:val="VT0(15):26"/>
				</v:userDefs>
				<v:textBlock v:margins="rect(4,4,4,4)" v:tabSpace="42.5197"/>
				<v:textRect cx="14.1732" cy="276.041" width="28.35" height="28.3465"/>
				<g id="shadow11-62" v:groupContext="shadow" v:shadowOffsetX="0.345598" v:shadowOffsetY="-1.97279" v:shadowType="1"
						transform="matrix(1,0,0,1,0.345598,1.97279)" class="st1">
					<rect x="0" y="261.868" width="28.3465" height="28.3465" rx="1.41732" ry="1.41732" class="st2"/>
				</g>
				<rect x="0" y="261.868" width="28.3465" height="28.3465" rx="1.41732" ry="1.41732" class="st7"/>
				<text x="6.51" y="279.64" class="st8" v:langID="2052"><v:paragraph v:horizAlign="1"/><v:tabList/>obj</text>			</g>
			<g id="shape12-67" v:mID="12" v:groupContext="shape" transform="translate(255.118,-184.252)">
				<title>矩形.12</title>
				<desc>obj</desc>
				<v:userDefs>
					<v:ud v:nameU="visVersion" v:val="VT0(15):26"/>
				</v:userDefs>
				<v:textBlock v:margins="rect(4,4,4,4)" v:tabSpace="42.5197"/>
				<v:textRect cx="14.1732" cy="276.041" width="28.35" height="28.3465"/>
				<g id="shadow12-68" v:groupContext="shadow" v:shadowOffsetX="0.345598" v:shadowOffsetY="-1.97279" v:shadowType="1"
						transform="matrix(1,0,0,1,0.345598,1.97279)" class="st1">
					<rect x="0" y="261.868" width="28.3465" height="28.3465" rx="1.41732" ry="1.41732" class="st2"/>
				</g>
				<rect x="0" y="261.868" width="28.3465" height="28.3465" rx="1.41732" ry="1.41732" class="st7"/>
				<text x="6.51" y="279.64" class="st8" v:langID="2052"><v:paragraph v:horizAlign="1"/><v:tabList/>obj</text>			</g>
			<g id="shape14-73" v:mID="14" v:groupContext="shape" transform="translate(21.2598,-99.2126)">
				<title>矩形.14</title>
				<desc>Slab Page</desc>
				<v:userDefs>
					<v:ud v:nameU="visVersion" v:val="VT0(15):26"/>
				</v:userDefs>
				<v:textBlock v:margins="rect(4,4,4,4)" v:tabSpace="42.5197" v:verticalAlign="0"/>
				<v:textRect cx="63.7795" cy="258.325" width="127.56" height="63.7795"/>
				<g id="shadow14-74" v:groupContext="shadow" v:shadowOffsetX="0.345598" v:shadowOffsetY="-1.97279" v:shadowType="1"
						transform="matrix(1,0,0,1,0.345598,1.97279)" class="st1">
					<rect x="0" y="226.435" width="127.559" height="63.7795" rx="1.41732" ry="1.41732" class="st2"/>
				</g>
				<rect x="0" y="226.435" width="127.559" height="63.7795" rx="1.41732" ry="1.41732" class="st6"/>
				<text x="35.98" y="243.04" class="st4" v:langID="2052"><v:paragraph v:horizAlign="1"/><v:tabList/>Slab Page</text>			</g>
			<g id="shape15-79" v:mID="15" v:groupContext="shape" transform="translate(28.3465,-106.299)">
				<title>矩形.15</title>
				<desc>obj</desc>
				<v:userDefs>
					<v:ud v:nameU="visVersion" v:val="VT0(15):26"/>
				</v:userDefs>
				<v:textBlock v:margins="rect(4,4,4,4)" v:tabSpace="42.5197"/>
				<v:textRect cx="14.1732" cy="276.041" width="28.35" height="28.3465"/>
				<g id="shadow15-80" v:groupContext="shadow" v:shadowOffsetX="0.345598" v:shadowOffsetY="-1.97279" v:shadowType="1"
						transform="matrix(1,0,0,1,0.345598,1.97279)" class="st1">
					<rect x="0" y="261.868" width="28.3465" height="28.3465" rx="1.41732" ry="1.41732" class="st2"/>
				</g>
				<rect x="0" y="261.868" width="28.3465" height="28.3465" rx="1.41732" ry="1.41732" class="st7"/>
				<text x="6.51" y="279.64" class="st8" v:langID="2052"><v:paragraph v:horizAlign="1"/><v:tabList/>obj</text>			</g>
			<g id="shape16-85" v:mID="16" v:groupContext="shape" transform="translate(56.6929,-106.299)">
				<title>矩形.16</title>
				<desc>obj</desc>
				<v:userDefs>
					<v:ud v:nameU="visVersion" v:val="VT0(15):26"/>
				</v:userDefs>
				<v:textBlock v:margins="rect(4,4,4,4)" v:tabSpace="42.5197"/>
				<v:textRect cx="14.1732" cy="276.041" width="28.35" height="28.3465"/>
				<g id="shadow16-86" v:groupContext="shadow" v:shadowOffsetX="0.345598" v:shadowOffsetY="-1.97279" v:shadowType="1"
						transform="matrix(1,0,0,1,0.345598,1.97279)" class="st1">
					<rect x="0" y="261.868" width="28.3465" height="28.3465" rx="1.41732" ry="1.41732" class="st2"/>
				</g>
				<rect x="0" y="261.868" width="28.3465" height="28.3465" rx="1.41732" ry="1.41732" class="st7"/>
				<text x="6.51" y="279.64" class="st8" v:langID="2052"><v:paragraph v:horizAlign="1"/><v:tabList/>obj</text>			</g>
			<g id="shape17-91" v:mID="17" v:groupContext="shape" transform="translate(85.0394,-106.299)">
				<title>矩形.17</title>
				<desc>obj</desc>
				<v:userDefs>
					<v:ud v:nameU="visVersion" v:val="VT0(15):26"/>
				</v:userDefs>
				<v:textBlock v:margins="rect(4,4,4,4)" v:tabSpace="42.5197"/>
				<v:textRect cx="14.1732" cy="276.041" width="28.35" height="28.3465"/>
				<g id="shadow17-92" v:groupContext="shadow" v:shadowOffsetX="0.345598" v:shadowOffsetY="-1.97279" v:shadowType="1"
						transform="matrix(1,0,0,1,0.345598,1.97279)" class="st1">
					<rect x="0" y="261.868" width="28.3465" height="28.3465" rx="1.41732" ry="1.41732" class="st2"/>
				</g>
				<rect x="0" y="261.868" width="28.3465" height="28.3465" rx="1.41732" ry="1.41732" class="st7"/>
				<text x="6.51" y="279.64" class="st8" v:langID="2052"><v:paragraph v:horizAlign="1"/><v:tabList/>obj</text>			</g>
			<g id="shape18-97" v:mID="18" v:groupContext="shape" transform="translate(113.386,-106.299)">
				<title>矩形.18</title>
				<desc>obj</desc>
				<v:userDefs>
					<v:ud v:nameU="visVersion" v:val="VT0(15):26"/>
				</v:userDefs>
				<v:textBlock v:margins="rect(4,4,4,4)" v:tabSpace="42.5197"/>
				<v:textRect cx="14.1732" cy="276.041" width="28.35" height="28.3465"/>
				<g id="shadow18-98" v:groupContext="shadow" v:shadowOffsetX="0.345598" v:shadowOffsetY="-1.97279" v:shadowType="1"
						transform="matrix(1,0,0,1,0.345598,1.97279)" class="st1">
					<rect x="0" y="261.868" width="28.3465" height="28.3465" rx="1.41732" ry="1.41732" class="st2"/>
				</g>
				<rect x="0" y="261.868" width="28.3465" height="28.3465" rx="1.41732" ry="1.41732" class="st7"/>
				<text x="6.51" y="279.64" class="st8" v:langID="2052"><v:paragraph v:horizAlign="1"/><v:tabList/>obj</text>			</g>
			<g id="shape20-103" v:mID="20" v:groupContext="shape" transform="translate(162.992,-99.2126)">
				<title>矩形.20</title>
				<desc>Slab Page</desc>
				<v:userDefs>
					<v:ud v:nameU="visVersion" v:val="VT0(15):26"/>
				</v:userDefs>
				<v:textBlock v:margins="rect(4,4,4,4)" v:tabSpace="42.5197" v:verticalAlign="0"/>
				<v:textRect cx="63.7795" cy="258.325" width="127.56" height="63.7795"/>
				<g id="shadow20-104" v:groupContext="shadow" v:shadowOffsetX="0.345598" v:shadowOffsetY="-1.97279" v:shadowType="1"
						transform="matrix(1,0,0,1,0.345598,1.97279)" class="st1">
					<rect x="0" y="226.435" width="127.559" height="63.7795" rx="1.41732" ry="1.41732" class="st2"/>
				</g>
				<rect x="0" y="226.435" width="127.559" height="63.7795" rx="1.41732" ry="1.41732" class="st6"/>
				<text x="35.98" y="243.04" class="st4" v:langID="2052"><v:paragraph v:horizAlign="1"/><v:tabList/>Slab Page</text>			</g>
			<g id="shape21-109" v:mID="21" v:groupContext="shape" transform="translate(170.079,-106.299)">
				<title>矩形.21</title>
				<desc>obj</desc>
				<v:userDefs>
					<v:ud v:nameU="visVersion" v:val="VT0(15):26"/>
				</v:userDefs>
				<v:textBlock v:margins="rect(4,4,4,4)" v:tabSpace="42.5197"/>
				<v:textRect cx="14.1732" cy="276.041" width="28.35" height="28.3465"/>
				<g id="shadow21-110" v:groupContext="shadow" v:shadowOffsetX="0.345598" v:shadowOffsetY="-1.97279" v:shadowType="1"
						transform="matrix(1,0,0,1,0.345598,1.97279)" class="st1">
					<rect x="0" y="261.868" width="28.3465" height="28.3465" rx="1.41732" ry="1.41732" class="st2"/>
				</g>
				<rect x="0" y="261.868" width="28.3465" height="28.3465" rx="1.41732" ry="1.41732" class="st7"/>
				<text x="6.51" y="279.64" class="st8" v:langID="2052"><v:paragraph v:horizAlign="1"/><v:tabList/>obj</text>			</g>
			<g id="shape22-115" v:mID="22" v:groupContext="shape" transform="translate(198.425,-106.299)">
				<title>矩形.22</title>
				<desc>obj</desc>
				<v:userDefs>
					<v:ud v:nameU="visVersion" v:val="VT0(15):26"/>
				</v:userDefs>
				<v:textBlock v:margins="rect(4,4,4,4)" v:tabSpace="42.5197"/>
				<v:textRect cx="14.1732" cy="276.041" width="28.35" height="28.3465"/>
				<g id="shadow22-116" v:groupContext="shadow" v:shadowOffsetX="0.345598" v:shadowOffsetY="-1.97279" v:shadowType="1"
						transform="matrix(1,0,0,1,0.345598,1.97279)" class="st1">
					<rect x="0" y="261.868" width="28.3465" height="28.3465" rx="1.41732" ry="1.41732" class="st2"/>
				</g>
				<rect x="0" y="261.868" width="28.3465" height="28.3465" rx="1.41732" ry="1.41732" class="st7"/>
				<text x="6.51" y="279.64" class="st8" v:langID="2052"><v:paragraph v:horizAlign="1"/><v:tabList/>obj</text>			</g>
			<g id="shape23-121" v:mID="23" v:groupContext="shape" transform="translate(226.772,-106.299)">
				<title>矩形.23</title>
				<desc>obj</desc>
				<v:userDefs>
					<v:ud v:nameU="visVersion" v:val="VT0(15):26"/>
				</v:userDefs>
				<v:textBlock v:margins="rect(4,4,4,4)" v:tabSpace="42.5197"/>
				<v:textRect cx="14.1732" cy="276.041" width="28.35" height="28.3465"/>
				<g id="shadow23-122" v:groupContext="shadow" v:shadowOffsetX="0.345598" v:shadowOffsetY="-1.97279" v:shadowType="1"
						transform="matrix(1,0,0,1,0.345598,1.97279)" class="st1">
					<rect x="0" y="261.868" width="28.3465" height="28.3465" rx="1.41732" ry="1.41732" class="st2"/>
				</g>
				<rect x="0" y="261.868" width="28.3465" height="28.3465" rx="1.41732" ry="1.41732" class="st7"/>
				<text x="6.51" y="279.64" class="st8" v:langID="2052"><v:paragraph v:horizAlign="1"/><v:tabList/>obj</text>			</g>
			<g id="shape24-127" v:mID="24" v:groupContext="shape" transform="translate(255.118,-106.299)">
				<title>矩形.24</title>
				<desc>obj</desc>
				<v:userDefs>
					<v:ud v:nameU="visVersion" v:val="VT0(15):26"/>
				</v:userDefs>
				<v:textBlock v:margins="rect(4,4,4,4)" v:tabSpace="42.5197"/>
				<v:textRect cx="14.1732" cy="276.041" width="28.35" height="28.3465"/>
				<g id="shadow24-128" v:groupContext="shadow" v:shadowOffsetX="0.345598" v:shadowOffsetY="-1.97279" v:shadowType="1"
						transform="matrix(1,0,0,1,0.345598,1.97279)" class="st1">
					<rect x="0" y="261.868" width="28.3465" height="28.3465" rx="1.41732" ry="1.41732" class="st2"/>
				</g>
				<rect x="0" y="261.868" width="28.3465" height="28.3465" rx="1.41732" ry="1.41732" class="st7"/>
				<text x="6.51" y="279.64" class="st8" v:langID="2052"><v:paragraph v:horizAlign="1"/><v:tabList/>obj</text>			</g>
			<g id="shape26-133" v:mID="26" v:groupContext="shape" transform="translate(21.2598,-21.2598)">
				<title>矩形.26</title>
				<desc>Slab Page</desc>
				<v:userDefs>
					<v:ud v:nameU="visVersion" v:val="VT0(15):26"/>
				</v:userDefs>
				<v:textBlock v:margins="rect(4,4,4,4)" v:tabSpace="42.5197" v:verticalAlign="0"/>
				<v:textRect cx="63.7795" cy="258.325" width="127.56" height="63.7795"/>
				<g id="shadow26-134" v:groupContext="shadow" v:shadowOffsetX="0.345598" v:shadowOffsetY="-1.97279" v:shadowType="1"
						transform="matrix(1,0,0,1,0.345598,1.97279)" class="st1">
					<rect x="0" y="226.435" width="127.559" height="63.7795" rx="1.41732" ry="1.41732" class="st2"/>
				</g>
				<rect x="0" y="226.435" width="127.559" height="63.7795" rx="1.41732" ry="1.41732" class="st6"/>
				<text x="35.98" y="243.04" class="st4" v:langID="2052"><v:paragraph v:horizAlign="1"/><v:tabList/>Slab Page</text>			</g>
			<g id="shape27-139" v:mID="27" v:groupContext="shape" transform="translate(28.3465,-28.3465)">
				<title>矩形.27</title>
				<desc>obj</desc>
				<v:userDefs>
					<v:ud v:nameU="visVersion" v:val="VT0(15):26"/>
				</v:userDefs>
				<v:textBlock v:margins="rect(4,4,4,4)" v:tabSpace="42.5197"/>
				<v:textRect cx="14.1732" cy="276.041" width="28.35" height="28.3465"/>
				<g id="shadow27-140" v:groupContext="shadow" v:shadowOffsetX="0.345598" v:shadowOffsetY="-1.97279" v:shadowType="1"
						transform="matrix(1,0,0,1,0.345598,1.97279)" class="st1">
					<rect x="0" y="261.868" width="28.3465" height="28.3465" rx="1.41732" ry="1.41732" class="st2"/>
				</g>
				<rect x="0" y="261.868" width="28.3465" height="28.3465" rx="1.41732" ry="1.41732" class="st7"/>
				<text x="6.51" y="279.64" class="st8" v:langID="2052"><v:paragraph v:horizAlign="1"/><v:tabList/>obj</text>			</g>
			<g id="shape28-145" v:mID="28" v:groupContext="shape" transform="translate(56.6929,-28.3465)">
				<title>矩形.28</title>
				<desc>obj</desc>
				<v:userDefs>
					<v:ud v:nameU="visVersion" v:val="VT0(15):26"/>
				</v:userDefs>
				<v:textBlock v:margins="rect(4,4,4,4)" v:tabSpace="42.5197"/>
				<v:textRect cx="14.1732" cy="276.041" width="28.35" height="28.3465"/>
				<g id="shadow28-146" v:groupContext="shadow" v:shadowOffsetX="0.345598" v:shadowOffsetY="-1.97279" v:shadowType="1"
						transform="matrix(1,0,0,1,0.345598,1.97279)" class="st1">
					<rect x="0" y="261.868" width="28.3465" height="28.3465" rx="1.41732" ry="1.41732" class="st2"/>
				</g>
				<rect x="0" y="261.868" width="28.3465" height="28.3465" rx="1.41732" ry="1.41732" class="st7"/>
				<text x="6.51" y="279.64" class="st8" v:langID="2052"><v:paragraph v:horizAlign="1"/><v:tabList/>obj</text>			</g>
			<g id="shape29-151" v:mID="29" v:groupContext="shape" transform="translate(85.0394,-28.3465)">
				<title>矩形.29</title>
				<desc>obj</desc>
				<v:userDefs>
					<v:ud v:nameU="visVersion" v:val="VT0(15):26"/>
				</v:userDefs>
				<v:textBlock v:margins="rect(4,4,4,4)" v:tabSpace="42.5197"/>
				<v:textRect cx="14.1732" cy="276.041" width="28.35" height="28.3465"/>
				<g id="shadow29-152" v:groupContext="shadow" v:shadowOffsetX="0.345598" v:shadowOffsetY="-1.97279" v:shadowType="1"
						transform="matrix(1,0,0,1,0.345598,1.97279)" class="st1">
					<rect x="0" y="261.868" width="28.3465" height="28.3465" rx="1.41732" ry="1.41732" class="st2"/>
				</g>
				<rect x="0" y="261.868" width="28.3465" height="28.3465" rx="1.41732" ry="1.41732" class="st7"/>
				<text x="6.51" y="279.64" class="st8" v:langID="2052"><v:paragraph v:horizAlign="1"/><v:tabList/>obj</text>			</g>
			<g id="shape30-157" v:mID="30" v:groupContext="shape" transform="translate(113.386,-28.3465)">
				<title>矩形.30</title>
				<desc>obj</desc>
				<v:userDefs>
					<v:ud v:nameU="visVersion" v:val="VT0(15):26"/>
				</v:userDefs>
				<v:textBlock v:margins="rect(4,4,4,4)" v:tabSpace="42.5197"/>
				<v:textRect cx="14.1732" cy="276.041" width="28.35" height="28.3465"/>
				<g id="shadow30-158" v:groupContext="shadow" v:shadowOffsetX="0.345598" v:shadowOffsetY="-1.97279" v:shadowType="1"
						transform="matrix(1,0,0,1,0.345598,1.97279)" class="st1">
					<rect x="0" y="261.868" width="28.3465" height="28.3465" rx="1.41732" ry="1.41732" class="st2"/>
				</g>
				<rect x="0" y="261.868" width="28.3465" height="28.3465" rx="1.41732" ry="1.41732" class="st7"/>
				<text x="6.51" y="279.64" class="st8" v:langID="2052"><v:paragraph v:horizAlign="1"/><v:tabList/>obj</text>			</g>
			<g id="shape32-163" v:mID="32" v:groupContext="shape" transform="translate(162.992,-21.2598)">
				<title>矩形.32</title>
				<desc>Slab Page</desc>
				<v:userDefs>
					<v:ud v:nameU="visVersion" v:val="VT0(15):26"/>
				</v:userDefs>
				<v:textBlock v:margins="rect(4,4,4,4)" v:tabSpace="42.5197" v:verticalAlign="0"/>
				<v:textRect cx="63.7795" cy="258.325" width="127.56" height="63.7795"/>
				<g id="shadow32-164" v:groupContext="shadow" v:shadowOffsetX="0.345598" v:shadowOffsetY="-1.97279" v:shadowType="1"
						transform="matrix(1,0,0,1,0.345598,1.97279)" class="st1">
					<rect x="0" y="226.435" width="127.559" height="63.7795" rx="1.41732" ry="1.41732" class="st2"/>
				</g>
				<rect x="0" y="226.435" width="127.559" height="63.7795" rx="1.41732" ry="1.41732" class="st6"/>
				<text x="35.98" y="243.04" class="st4" v:langID="2052"><v:paragraph v:horizAlign="1"/><v:tabList/>Slab Page</text>			</g>
			<g id="shape33-169" v:mID="33" v:groupContext="shape" transform="translate(170.079,-28.3465)">
				<title>矩形.33</title>
				<desc>obj</desc>
				<v:userDefs>
					<v:ud v:nameU="visVersion" v:val="VT0(15):26"/>
				</v:userDefs>
				<v:textBlock v:margins="rect(4,4,4,4)" v:tabSpace="42.5197"/>
				<v:textRect cx="14.1732" cy="276.041" width="28.35" height="28.3465"/>
				<g id="shadow33-170" v:groupContext="shadow" v:shadowOffsetX="0.345598" v:shadowOffsetY="-1.97279" v:shadowType="1"
						transform="matrix(1,0,0,1,0.345598,1.97279)" class="st1">
					<rect x="0" y="261.868" width="28.3465" height="28.3465" rx="1.41732" ry="1.41732" class="st2"/>
				</g>
				<rect x="0" y="261.868" width="28.3465" height="28.3465" rx="1.41732" ry="1.41732" class="st7"/>
				<text x="6.51" y="279.64" class="st8" v:langID="2052"><v:paragraph v:horizAlign="1"/><v:tabList/>obj</text>			</g>
			<g id="shape34-175" v:mID="34" v:groupContext="shape" transform="translate(198.425,-28.3465)">
				<title>矩形.34</title>
				<desc>obj</desc>
				<v:userDefs>
					<v:ud v:nameU="visVersion" v:val="VT0(15):26"/>
				</v:userDefs>
				<v:textBlock v:margins="rect(4,4,4,4)" v:tabSpace="42.5197"/>
				<v:textRect cx="14.1732" cy="276.041" width="28.35" height="28.3465"/>
				<g id="shadow34-176" v:groupContext="shadow" v:shadowOffsetX="0.345598" v:shadowOffsetY="-1.97279" v:shadowType="1"
						transform="matrix(1,0,0,1,0.345598,1.97279)" class="st1">
					<rect x="0" y="261.868" width="28.3465" height="28.3465" rx="1.41732" ry="1.41732" class="st2"/>
				</g>
				<rect x="0" y="261.868" width="28.3465" height="28.3465" rx="1.41732" ry="1.41732" class="st7"/>
				<text x="6.51" y="279.64" class="st8" v:langID="2052"><v:paragraph v:horizAlign="1"/><v:tabList/>obj</text>			</g>
			<g id="shape35-181" v:mID="35" v:groupContext="shape" transform="translate(226.772,-28.3465)">
				<title>矩形.35</title>
				<desc>obj</desc>
				<v:userDefs>
					<v:ud v:nameU="visVersion" v:val="VT0(15):26"/>
				</v:userDefs>
				<v:textBlock v:margins="rect(4,4,4,4)" v:tabSpace="42.5197"/>
				<v:textRect cx="14.1732" cy="276.041" width="28.35" height="28.3465"/>
				<g id="shadow35-182" v:groupContext="shadow" v:shadowOffsetX="0.345598" v:shadowOffsetY="-1.97279" v:shadowType="1"
						transform="matrix(1,0,0,1,0.345598,1.97279)" class="st1">
					<rect x="0" y="261.868" width="28.3465" height="28.3465" rx="1.41732" ry="1.41732" class="st2"/>
				</g>
				<rect x="0" y="261.868" width="28.3465" height="28.3465" rx="1.41732" ry="1.41732" class="st7"/>
				<text x="6.51" y="279.64" class="st8" v:langID="2052"><v:paragraph v:horizAlign="1"/><v:tabList/>obj</text>			</g>
			<g id="shape36-187" v:mID="36" v:groupContext="shape" transform="translate(255.118,-28.3465)">
				<title>矩形.36</title>
				<desc>obj</desc>
				<v:userDefs>
					<v:ud v:nameU="visVersion" v:val="VT0(15):26"/>
				</v:userDefs>
				<v:textBlock v:margins="rect(4,4,4,4)" v:tabSpace="42.5197"/>
				<v:textRect cx="14.1732" cy="276.041" width="28.35" height="28.3465"/>
				<g id="shadow36-188" v:groupContext="shadow" v:shadowOffsetX="0.345598" v:shadowOffsetY="-1.97279" v:shadowType="1"
						transform="matrix(1,0,0,1,0.345598,1.97279)" class="st1">
					<rect x="0" y="261.868" width="28.3465" height="28.3465" rx="1.41732" ry="1.41732" class="st2"/>
				</g>
				<rect x="0" y="261.868" width="28.3465" height="28.3465" rx="1.41732" ry="1.41732" class="st7"/>
				<text x="6.51" y="279.64" class="st8" v:langID="2052"><v:paragraph v:horizAlign="1"/><v:tabList/>obj</text>			</g>
		</g>
	</g>
</svg>
