<?xml version="1.0" encoding="UTF-8" standalone="no"?>
<!DOCTYPE svg PUBLIC "-//W3C//DTD SVG 1.1//EN" "http://www.w3.org/Graphics/SVG/1.1/DTD/svg11.dtd">
<!-- 由 Microsoft Visio, SVG Export 生成 slab-init-3.svg 页-1 -->
<svg xmlns="http://www.w3.org/2000/svg" xmlns:xlink="http://www.w3.org/1999/xlink" xmlns:ev="http://www.w3.org/2001/xml-events"
		xmlns:v="http://schemas.microsoft.com/visio/2003/SVGExtensions/" width="10.6148in" height="5.69357in"
		viewBox="0 0 764.268 409.937" xml:space="preserve" color-interpolation-filters="sRGB" class="st36">
	<v:documentProperties v:langID="2052" v:metric="true" v:viewMarkup="false"/>

	<style type="text/css">
	<![CDATA[
		.st1 {visibility:visible}
		.st2 {fill:#5b9bd5;fill-opacity:0.22;filter:url(#filter_2);stroke:none}
		.st3 {fill:#f2f2f2;fill-opacity:0.85;stroke:none;stroke-width:0.25}
		.st4 {fill:#5b9bd5;fill-opacity:0.22;filter:url(#filter_2);stroke:#5b9bd5;stroke-opacity:0.22}
		.st5 {fill:#ed7d31;stroke:#000000;stroke-width:0.5}
		.st6 {fill:#000000;font-family:Times New Roman;font-size:1.00001em}
		.st7 {font-size:1em}
		.st8 {fill:#00b0f0;stroke:#000000;stroke-width:0.5}
		.st9 {stroke:#000000;stroke-dasharray:5.25,3.75;stroke-linecap:round;stroke-linejoin:round;stroke-width:0.75}
		.st10 {fill:#fec000;stroke:#000000;stroke-width:0.5}
		.st11 {fill:#000000;font-family:Times New Roman;font-size:1.16666em}
		.st12 {marker-end:url(#mrkr3-46);stroke:#000000;stroke-linecap:round;stroke-linejoin:round;stroke-width:0.5}
		.st13 {fill:#000000;fill-opacity:1;stroke:#000000;stroke-opacity:1;stroke-width:0.16556291390728}
		.st14 {stroke:#000000;stroke-dasharray:3.5,2.5;stroke-linecap:round;stroke-linejoin:round;stroke-width:0.5}
		.st15 {fill:#ffd965;stroke:#000000;stroke-width:0.5}
		.st16 {fill:#ffffff;stroke:#000000;stroke-width:0.5}
		.st17 {fill:#a8d08d;stroke:#ed7d31;stroke-width:1}
		.st18 {fill:#000000;font-family:Times New Roman;font-size:0.833336em}
		.st19 {fill:#5b9bd5;fill-opacity:0.22;filter:url(#filter_2);stroke:#5b9bd5;stroke-dasharray:3.5,2.5;stroke-opacity:0.22}
		.st20 {fill:#ffffff;stroke:#000000;stroke-dasharray:3.5,2.5;stroke-width:0.5}
		.st21 {fill:#ffffff;stroke:#ff0000;stroke-dasharray:3.5,2.5;stroke-width:0.5}
		.st22 {marker-end:url(#mrkr3-170);stroke:#ff0000;stroke-dasharray:3.5,2.5;stroke-linecap:round;stroke-linejoin:round;stroke-width:0.5}
		.st23 {fill:#ff0000;fill-opacity:1;stroke:#ff0000;stroke-opacity:1;stroke-width:0.16556291390728}
		.st24 {fill:#5b9bd5;fill-opacity:0.25;filter:url(#filter_2);stroke:#5b9bd5;stroke-opacity:0.25}
		.st25 {fill:#a8d08d;stroke:#ed7d31;stroke-width:0.75}
		.st26 {fill:none;stroke:none;stroke-width:0.25}
		.st27 {fill:#00b0f0;font-family:Times New Roman;font-size:0.75em}
		.st28 {font-family:宋体;font-size:1em}
		.st29 {fill:#00b0f0;font-family:宋体;font-size:0.833336em}
		.st30 {fill:#00b0f0;font-family:宋体;font-size:0.75em}
		.st31 {fill:#00b0f0;font-family:宋体;font-size:0.83333em}
		.st32 {fill:#00b0f0;font-size:0.83333em}
		.st33 {fill:#00b0f0;font-family:Times New Roman;font-size:1.00001em}
		.st34 {fill:#00b0f0;stroke:#00b0f0;stroke-width:0.75}
		.st35 {fill:#c00000;font-family:宋体;font-size:0.833336em}
		.st36 {fill:none;fill-rule:evenodd;font-size:12px;overflow:visible;stroke-linecap:square;stroke-miterlimit:3}
	]]>
	</style>

	<defs id="Markers">
		<g id="lend3">
			<path d="M 2 1 L 0 0 L 2 -1 " style="stroke-linecap:round;stroke-linejoin:round;fill:none"/>
		</g>
		<marker id="mrkr3-46" class="st13" v:arrowType="3" v:arrowSize="2" orient="auto" markerUnits="strokeWidth"
				overflow="visible">
			<use xlink:href="#lend3" transform="scale(-6.04,-6.04) "/>
		</marker>
		<marker id="mrkr3-170" class="st23" v:arrowType="3" v:arrowSize="2" orient="auto" markerUnits="strokeWidth"
				overflow="visible">
			<use xlink:href="#lend3" transform="scale(-6.04,-6.04) "/>
		</marker>
	</defs>
	<defs id="Filters">
		<filter id="filter_2">
			<feGaussianBlur stdDeviation="2"/>
		</filter>
	</defs>
	<g v:mID="0" v:index="1" v:groupContext="foregroundPage">
		<title>页-1</title>
		<v:pageProperties v:drawingScale="0.0393701" v:pageScale="0.0393701" v:drawingUnits="24" v:shadowOffsetX="8.50394"
				v:shadowOffsetY="-8.50394"/>
		<v:layer v:name="连接线" v:index="0"/>
		<g id="group76-1" transform="translate(2.6544,-4.9728)" v:mID="76" v:groupContext="group">
			<title>工作表.76</title>
			<g id="shape72-2" v:mID="72" v:groupContext="shape" transform="translate(0,-198.425)">
				<title>矩形.72</title>
				<v:userDefs>
					<v:ud v:nameU="visVersion" v:val="VT0(15):26"/>
				</v:userDefs>
				<g id="shadow72-3" v:groupContext="shadow" v:shadowOffsetX="0.345598" v:shadowOffsetY="-1.97279" v:shadowType="1"
						transform="matrix(1,0,0,1,0.345598,1.97279)" class="st1">
					<rect x="0" y="204.425" width="758.268" height="205.512" class="st2"/>
				</g>
				<rect x="0" y="204.425" width="758.268" height="205.512" class="st3"/>
			</g>
			<g id="shape59-7" v:mID="59" v:groupContext="shape">
				<title>矩形</title>
				<v:userDefs>
					<v:ud v:nameU="visVersion" v:val="VT0(15):26"/>
				</v:userDefs>
				<g id="shadow59-8" v:groupContext="shadow" v:shadowOffsetX="0.345598" v:shadowOffsetY="-1.97279" v:shadowType="1"
						transform="matrix(1,0,0,1,0.345598,1.97279)" class="st1">
					<rect x="0" y="246.945" width="758.268" height="162.992" class="st2"/>
				</g>
				<rect x="0" y="246.945" width="758.268" height="162.992" class="st3"/>
			</g>
			<g id="shape1-12" v:mID="1" v:groupContext="shape" transform="translate(7.08661,-269.291)">
				<title>矩形.34</title>
				<desc>struct kmem_cache * kmem_cache_node</desc>
				<v:userDefs>
					<v:ud v:nameU="visVersion" v:val="VT0(15):26"/>
				</v:userDefs>
				<v:textBlock v:margins="rect(4,4,4,4)" v:tabSpace="42.5197"/>
				<v:textRect cx="63.7795" cy="392.22" width="127.56" height="35.4331"/>
				<g id="shadow1-13" v:groupContext="shadow" v:shadowOffsetX="0.345598" v:shadowOffsetY="-1.97279" v:shadowType="1"
						transform="matrix(1,0,0,1,0.345598,1.97279)" class="st1">
					<rect x="0" y="374.504" width="127.559" height="35.4331" rx="2.83465" ry="2.83465" class="st4"/>
				</g>
				<rect x="0" y="374.504" width="127.559" height="35.4331" rx="2.83465" ry="2.83465" class="st5"/>
				<text x="12.8" y="388.62" class="st6" v:langID="2052"><v:paragraph v:horizAlign="1"/><v:tabList/>struct kmem_cache *<v:newlineChar/><tspan
							x="17.47" dy="1.2em" class="st7">kmem</tspan>_cache_node</text>			</g>
			<g id="shape2-19" v:mID="2" v:groupContext="shape" transform="translate(155.906,-269.291)">
				<title>矩形.35</title>
				<desc>struct kmem_cache boot_kmem_cache_node</desc>
				<v:userDefs>
					<v:ud v:nameU="visVersion" v:val="VT0(15):26"/>
				</v:userDefs>
				<v:textBlock v:margins="rect(4,4,4,4)" v:tabSpace="42.5197"/>
				<v:textRect cx="70.8661" cy="392.22" width="141.74" height="35.4331"/>
				<g id="shadow2-20" v:groupContext="shadow" v:shadowOffsetX="0.345598" v:shadowOffsetY="-1.97279" v:shadowType="1"
						transform="matrix(1,0,0,1,0.345598,1.97279)" class="st1">
					<rect x="0" y="374.504" width="141.732" height="35.4331" rx="2.83465" ry="2.83465" class="st4"/>
				</g>
				<rect x="0" y="374.504" width="141.732" height="35.4331" rx="2.83465" ry="2.83465" class="st8"/>
				<text x="24.39" y="388.62" class="st6" v:langID="2052"><v:paragraph v:horizAlign="1"/><v:tabList/>struct kmem_cache<v:newlineChar/><tspan
							x="10.89" dy="1.2em" class="st7">boot</tspan>_kmem_cache_node</text>			</g>
			<g id="shape3-26" v:mID="3" v:groupContext="shape" v:layerMember="0" transform="translate(134.646,-287.008)">
				<title>直线连接线.68</title>
				<v:userDefs>
					<v:ud v:nameU="visVersion" v:val="VT0(15):26"/>
				</v:userDefs>
				<path d="M0 409.94 L21.26 409.94" class="st9"/>
			</g>
			<g id="shape4-29" v:mID="4" v:groupContext="shape" transform="translate(340.157,-340.157)">
				<title>矩形.3</title>
				<desc>cpu_slab</desc>
				<v:userDefs>
					<v:ud v:nameU="visVersion" v:val="VT0(15):26"/>
				</v:userDefs>
				<v:textBlock v:margins="rect(4,4,4,4)" v:tabSpace="42.5197"/>
				<v:textRect cx="31.8898" cy="399.307" width="63.78" height="21.2598"/>
				<g id="shadow4-30" v:groupContext="shadow" v:shadowOffsetX="0.345598" v:shadowOffsetY="-1.97279" v:shadowType="1"
						transform="matrix(1,0,0,1,0.345598,1.97279)" class="st1">
					<rect x="0" y="388.677" width="63.7795" height="21.2598" rx="1.41732" ry="1.41732" class="st4"/>
				</g>
				<rect x="0" y="388.677" width="63.7795" height="21.2598" rx="1.41732" ry="1.41732" class="st10"/>
				<text x="7.01" y="403.51" class="st11" v:langID="1033"><v:paragraph v:horizAlign="1"/><v:tabList/>cpu_slab</text>			</g>
			<g id="shape5-35" v:mID="5" v:groupContext="shape" transform="translate(340.157,-205.512)">
				<title>矩形.9</title>
				<desc>node[]</desc>
				<v:userDefs>
					<v:ud v:nameU="visVersion" v:val="VT0(15):26"/>
				</v:userDefs>
				<v:textBlock v:margins="rect(4,4,4,4)" v:tabSpace="42.5197"/>
				<v:textRect cx="31.8898" cy="399.307" width="63.78" height="21.2598"/>
				<g id="shadow5-36" v:groupContext="shadow" v:shadowOffsetX="0.345598" v:shadowOffsetY="-1.97279" v:shadowType="1"
						transform="matrix(1,0,0,1,0.345598,1.97279)" class="st1">
					<rect x="0" y="388.677" width="63.7795" height="21.2598" rx="1.41732" ry="1.41732" class="st4"/>
				</g>
				<rect x="0" y="388.677" width="63.7795" height="21.2598" rx="1.41732" ry="1.41732" class="st10"/>
				<text x="13.62" y="403.51" class="st11" v:langID="1033"><v:paragraph v:horizAlign="1"/><v:tabList/>node[]</text>			</g>
			<g id="shape6-41" v:mID="6" v:groupContext="shape" v:layerMember="0"
					transform="translate(642.846,346.628) rotate(-57.3625) scale(1,-1)">
				<title>波浪连接线 1.15</title>
				<v:userDefs>
					<v:ud v:nameU="Scale" v:val="VT0(1):26"/>
					<v:ud v:nameU="AntiScale" v:val="VT0(1):26"/>
					<v:ud v:nameU="visVersion" v:val="VT0(15):26"/>
				</v:userDefs>
				<path d="M0 409.94 C23.32 399.41 37.78 417.45 78.84 409.94" class="st12"/>
			</g>
			<g id="shape7-47" v:mID="7" v:groupContext="shape" v:layerMember="0"
					transform="translate(645.584,-91.2132) rotate(58.0791)">
				<title>波浪连接线 1.16</title>
				<v:userDefs>
					<v:ud v:nameU="Scale" v:val="VT0(1):26"/>
					<v:ud v:nameU="AntiScale" v:val="VT0(1):26"/>
					<v:ud v:nameU="visVersion" v:val="VT0(15):26"/>
				</v:userDefs>
				<path d="M0 409.94 C23.79 399.41 38.53 417.45 80.42 409.94" class="st12"/>
			</g>
			<g id="shape8-52" v:mID="8" v:groupContext="shape" transform="translate(432.283,-368.504)">
				<title>矩形.61</title>
				<desc>freelist</desc>
				<v:userDefs>
					<v:ud v:nameU="visVersion" v:val="VT0(15):26"/>
				</v:userDefs>
				<v:textBlock v:margins="rect(4,4,4,4)" v:tabSpace="42.5197"/>
				<v:textRect cx="24.8031" cy="402.85" width="49.61" height="14.1732"/>
				<g id="shadow8-53" v:groupContext="shadow" v:shadowOffsetX="0.345598" v:shadowOffsetY="-1.97279" v:shadowType="1"
						transform="matrix(1,0,0,1,0.345598,1.97279)" class="st1">
					<rect x="0" y="395.764" width="49.6063" height="14.1732" rx="1.41732" ry="1.41732" class="st4"/>
				</g>
				<rect x="0" y="395.764" width="49.6063" height="14.1732" rx="1.41732" ry="1.41732" class="st8"/>
				<text x="8.14" y="406.45" class="st6" v:langID="2052"><v:paragraph v:horizAlign="1"/><v:tabList/>freelist</text>			</g>
			<g id="shape9-58" v:mID="9" v:groupContext="shape" transform="translate(432.283,-318.898)">
				<title>矩形.62</title>
				<desc>page</desc>
				<v:userDefs>
					<v:ud v:nameU="visVersion" v:val="VT0(15):26"/>
				</v:userDefs>
				<v:textBlock v:margins="rect(4,4,4,4)" v:tabSpace="42.5197"/>
				<v:textRect cx="24.8031" cy="402.85" width="49.61" height="14.1732"/>
				<g id="shadow9-59" v:groupContext="shadow" v:shadowOffsetX="0.345598" v:shadowOffsetY="-1.97279" v:shadowType="1"
						transform="matrix(1,0,0,1,0.345598,1.97279)" class="st1">
					<rect x="0" y="395.764" width="49.6063" height="14.1732" rx="1.41732" ry="1.41732" class="st4"/>
				</g>
				<rect x="0" y="395.764" width="49.6063" height="14.1732" rx="1.41732" ry="1.41732" class="st8"/>
				<text x="13.48" y="406.45" class="st6" v:langID="2052"><v:paragraph v:horizAlign="1"/><v:tabList/>page</text>			</g>
			<g id="shape10-64" v:mID="10" v:groupContext="shape" v:layerMember="0"
					transform="translate(673.882,367.659) rotate(-41.1859) scale(1,-1)">
				<title>波浪连接线 1.108</title>
				<v:userDefs>
					<v:ud v:nameU="Scale" v:val="VT0(1):26"/>
					<v:ud v:nameU="AntiScale" v:val="VT0(1):26"/>
					<v:ud v:nameU="visVersion" v:val="VT0(15):26"/>
				</v:userDefs>
				<path d="M0 409.94 C11.14 399.41 18.05 417.45 37.67 409.94" class="st12"/>
			</g>
			<g id="shape11-69" v:mID="11" v:groupContext="shape" v:layerMember="0"
					transform="translate(673.882,-249.359) rotate(41.1859)">
				<title>波浪连接线 1.109</title>
				<v:userDefs>
					<v:ud v:nameU="Scale" v:val="VT0(1):26"/>
					<v:ud v:nameU="AntiScale" v:val="VT0(1):26"/>
					<v:ud v:nameU="visVersion" v:val="VT0(15):26"/>
				</v:userDefs>
				<path d="M0 409.94 C11.14 399.41 18.05 417.45 37.67 409.94" class="st12"/>
			</g>
			<g id="shape12-74" v:mID="12" v:groupContext="shape" transform="translate(481.89,-325.984)">
				<title>工作表.12</title>
				<path d="M0 409.94 L123.83 409.94" class="st14"/>
			</g>
			<g id="shape13-77" v:mID="13" v:groupContext="shape" transform="translate(481.89,-375.591)">
				<title>工作表.13</title>
				<path d="M0 409.94 L219.69 409.94" class="st14"/>
			</g>
			<g id="shape14-80" v:mID="14" v:groupContext="shape" transform="translate(510.236,-290.551)">
				<title>矩形.29</title>
				<desc>.inuse</desc>
				<v:userDefs>
					<v:ud v:nameU="visVersion" v:val="VT0(15):26"/>
				</v:userDefs>
				<v:textBlock v:margins="rect(4,4,4,4)" v:tabSpace="42.5197"/>
				<v:textRect cx="24.8031" cy="402.85" width="49.61" height="14.1732"/>
				<g id="shadow14-81" v:groupContext="shadow" v:shadowOffsetX="0.345598" v:shadowOffsetY="-1.97279" v:shadowType="1"
						transform="matrix(1,0,0,1,0.345598,1.97279)" class="st1">
					<rect x="0" y="395.764" width="49.6063" height="14.1732" rx="2.12598" ry="2.12598" class="st4"/>
				</g>
				<rect x="0" y="395.764" width="49.6063" height="14.1732" rx="2.12598" ry="2.12598" class="st15"/>
				<text x="4" y="406.45" class="st6" v:langID="2052"><v:paragraph/><v:tabList/>.inuse</text>			</g>
			<g id="shape15-86" v:mID="15" v:groupContext="shape" transform="translate(559.843,-290.551)">
				<title>矩形.15</title>
				<desc>32</desc>
				<v:userDefs>
					<v:ud v:nameU="visVersion" v:val="VT0(15):26"/>
				</v:userDefs>
				<v:textBlock v:margins="rect(4,4,4,4)" v:tabSpace="42.5197"/>
				<v:textRect cx="10.6299" cy="402.85" width="21.26" height="14.1732"/>
				<g id="shadow15-87" v:groupContext="shadow" v:shadowOffsetX="0.345598" v:shadowOffsetY="-1.97279" v:shadowType="1"
						transform="matrix(1,0,0,1,0.345598,1.97279)" class="st1">
					<rect x="0" y="395.764" width="21.2598" height="14.1732" rx="2.12598" ry="2.12598" class="st4"/>
				</g>
				<rect x="0" y="395.764" width="21.2598" height="14.1732" rx="2.12598" ry="2.12598" class="st16"/>
				<text x="4.63" y="406.45" class="st6" v:langID="2052"><v:paragraph v:horizAlign="1"/><v:tabList/>32</text>			</g>
			<g id="shape16-92" v:mID="16" v:groupContext="shape" transform="translate(510.236,-276.378)">
				<title>矩形.31</title>
				<desc>.objects</desc>
				<v:userDefs>
					<v:ud v:nameU="visVersion" v:val="VT0(15):26"/>
				</v:userDefs>
				<v:textBlock v:margins="rect(4,4,4,4)" v:tabSpace="42.5197"/>
				<v:textRect cx="24.8031" cy="402.85" width="49.61" height="14.1732"/>
				<g id="shadow16-93" v:groupContext="shadow" v:shadowOffsetX="0.345598" v:shadowOffsetY="-1.97279" v:shadowType="1"
						transform="matrix(1,0,0,1,0.345598,1.97279)" class="st1">
					<rect x="0" y="395.764" width="49.6063" height="14.1732" rx="2.12598" ry="2.12598" class="st4"/>
				</g>
				<rect x="0" y="395.764" width="49.6063" height="14.1732" rx="2.12598" ry="2.12598" class="st15"/>
				<text x="4" y="406.45" class="st6" v:langID="2052"><v:paragraph/><v:tabList/>.objects</text>			</g>
			<g id="shape17-98" v:mID="17" v:groupContext="shape" transform="translate(559.843,-276.378)">
				<title>矩形.32</title>
				<desc>32</desc>
				<v:userDefs>
					<v:ud v:nameU="visVersion" v:val="VT0(15):26"/>
				</v:userDefs>
				<v:textBlock v:margins="rect(4,4,4,4)" v:tabSpace="42.5197"/>
				<v:textRect cx="10.6299" cy="402.85" width="21.26" height="14.1732"/>
				<g id="shadow17-99" v:groupContext="shadow" v:shadowOffsetX="0.345598" v:shadowOffsetY="-1.97279" v:shadowType="1"
						transform="matrix(1,0,0,1,0.345598,1.97279)" class="st1">
					<rect x="0" y="395.764" width="21.2598" height="14.1732" rx="2.12598" ry="2.12598" class="st4"/>
				</g>
				<rect x="0" y="395.764" width="21.2598" height="14.1732" rx="2.12598" ry="2.12598" class="st16"/>
				<text x="4.63" y="406.45" class="st6" v:langID="2052"><v:paragraph v:horizAlign="1"/><v:tabList/>32</text>			</g>
			<g id="shape18-104" v:mID="18" v:groupContext="shape" transform="translate(510.236,-262.205)">
				<title>矩形.33</title>
				<desc>.frozen</desc>
				<v:userDefs>
					<v:ud v:nameU="visVersion" v:val="VT0(15):26"/>
				</v:userDefs>
				<v:textBlock v:margins="rect(4,4,4,4)" v:tabSpace="42.5197"/>
				<v:textRect cx="24.8031" cy="402.85" width="49.61" height="14.1732"/>
				<g id="shadow18-105" v:groupContext="shadow" v:shadowOffsetX="0.345598" v:shadowOffsetY="-1.97279" v:shadowType="1"
						transform="matrix(1,0,0,1,0.345598,1.97279)" class="st1">
					<rect x="0" y="395.764" width="49.6063" height="14.1732" rx="2.12598" ry="2.12598" class="st4"/>
				</g>
				<rect x="0" y="395.764" width="49.6063" height="14.1732" rx="2.12598" ry="2.12598" class="st15"/>
				<text x="4" y="406.45" class="st6" v:langID="2052"><v:paragraph/><v:tabList/>.frozen</text>			</g>
			<g id="shape19-110" v:mID="19" v:groupContext="shape" transform="translate(559.843,-262.205)">
				<title>矩形.19</title>
				<desc>1</desc>
				<v:userDefs>
					<v:ud v:nameU="visVersion" v:val="VT0(15):26"/>
				</v:userDefs>
				<v:textBlock v:margins="rect(4,4,4,4)" v:tabSpace="42.5197"/>
				<v:textRect cx="10.6299" cy="402.85" width="21.26" height="14.1732"/>
				<g id="shadow19-111" v:groupContext="shadow" v:shadowOffsetX="0.345598" v:shadowOffsetY="-1.97279" v:shadowType="1"
						transform="matrix(1,0,0,1,0.345598,1.97279)" class="st1">
					<rect x="0" y="395.764" width="21.2598" height="14.1732" rx="2.12598" ry="2.12598" class="st4"/>
				</g>
				<rect x="0" y="395.764" width="21.2598" height="14.1732" rx="2.12598" ry="2.12598" class="st16"/>
				<text x="7.63" y="406.45" class="st6" v:langID="2052"><v:paragraph v:horizAlign="1"/><v:tabList/>1</text>			</g>
			<g id="shape21-116" v:mID="21" v:groupContext="shape" transform="translate(510.236,-304.724)">
				<title>矩形.21</title>
				<desc>.freelist</desc>
				<v:userDefs>
					<v:ud v:nameU="visVersion" v:val="VT0(15):26"/>
				</v:userDefs>
				<v:textBlock v:margins="rect(4,4,4,4)" v:tabSpace="42.5197"/>
				<v:textRect cx="24.8031" cy="402.85" width="49.61" height="14.1732"/>
				<g id="shadow21-117" v:groupContext="shadow" v:shadowOffsetX="0.345598" v:shadowOffsetY="-1.97279" v:shadowType="1"
						transform="matrix(1,0,0,1,0.345598,1.97279)" class="st1">
					<rect x="0" y="395.764" width="49.6063" height="14.1732" rx="2.12598" ry="2.12598" class="st4"/>
				</g>
				<rect x="0" y="395.764" width="49.6063" height="14.1732" rx="2.12598" ry="2.12598" class="st15"/>
				<text x="4" y="406.45" class="st6" v:langID="2052"><v:paragraph/><v:tabList/>.freelist</text>			</g>
			<g id="shape22-122" v:mID="22" v:groupContext="shape" transform="translate(432.283,-209.055)">
				<title>矩形.22</title>
				<desc>partial</desc>
				<v:userDefs>
					<v:ud v:nameU="visVersion" v:val="VT0(15):26"/>
				</v:userDefs>
				<v:textBlock v:margins="rect(4,4,4,4)" v:tabSpace="42.5197"/>
				<v:textRect cx="24.8031" cy="402.85" width="49.61" height="14.1732"/>
				<g id="shadow22-123" v:groupContext="shadow" v:shadowOffsetX="0.345598" v:shadowOffsetY="-1.97279" v:shadowType="1"
						transform="matrix(1,0,0,1,0.345598,1.97279)" class="st1">
					<rect x="0" y="395.764" width="49.6063" height="14.1732" rx="1.41732" ry="1.41732" class="st4"/>
				</g>
				<rect x="0" y="395.764" width="49.6063" height="14.1732" rx="1.41732" ry="1.41732" class="st8"/>
				<text x="9.48" y="406.45" class="st6" v:langID="2052"><v:paragraph v:horizAlign="1"/><v:tabList/>partial</text>			</g>
			<g id="shape23-128" v:mID="23" v:groupContext="shape" v:layerMember="0" transform="translate(403.937,-216.142)">
				<title>直线连接线.17</title>
				<v:userDefs>
					<v:ud v:nameU="visVersion" v:val="VT0(15):26"/>
				</v:userDefs>
				<path d="M0 409.94 L28.35 409.94" class="st12"/>
			</g>
			<g id="shape24-133" v:mID="24" v:groupContext="shape" transform="translate(481.89,-216.142)">
				<title>工作表.24</title>
				<path d="M0 409.94 L219.69 409.94" class="st14"/>
			</g>
			<g id="shape25-136" v:mID="25" v:groupContext="shape" transform="translate(499.606,-209.197)">
				<title>矩形.25</title>
				<desc>page instance</desc>
				<v:userDefs>
					<v:ud v:nameU="visVersion" v:val="VT0(15):26"/>
				</v:userDefs>
				<v:textBlock v:margins="rect(4,4,4,4)" v:tabSpace="42.5197"/>
				<v:textRect cx="31.8898" cy="402.85" width="63.78" height="14.1732"/>
				<g id="shadow25-137" v:groupContext="shadow" v:shadowOffsetX="0.345598" v:shadowOffsetY="-1.97279" v:shadowType="1"
						transform="matrix(1,0,0,1,0.345598,1.97279)" class="st1">
					<rect x="0" y="395.764" width="63.7795" height="14.1732" rx="1.41732" ry="1.41732" class="st4"/>
				</g>
				<rect x="0" y="395.764" width="63.7795" height="14.1732" rx="1.41732" ry="1.41732" class="st17"/>
				<text x="4.82" y="405.85" class="st18" v:langID="2052"><v:paragraph v:horizAlign="1"/><v:tabList/>page instance</text>			</g>
			<g id="shape26-142" v:mID="26" v:groupContext="shape" transform="translate(595.276,-379.559)">
				<title>矩形.26</title>
				<v:userDefs>
					<v:ud v:nameU="visVersion" v:val="VT0(15):26"/>
				</v:userDefs>
				<g id="shadow26-143" v:groupContext="shadow" v:shadowOffsetX="0.345598" v:shadowOffsetY="-1.97279" v:shadowType="1"
						transform="matrix(1,0,0,1,0.345598,1.97279)" class="st1">
					<rect x="0" y="395.764" width="14.1732" height="14.1732" rx="2.12598" ry="2.12598" class="st19"/>
				</g>
				<rect x="0" y="395.764" width="14.1732" height="14.1732" rx="2.12598" ry="2.12598" class="st20"/>
			</g>
			<g id="shape27-147" v:mID="27" v:groupContext="shape" transform="translate(623.622,-357.165)">
				<title>矩形.36</title>
				<v:userDefs>
					<v:ud v:nameU="visVersion" v:val="VT0(15):26"/>
				</v:userDefs>
				<g id="shadow27-148" v:groupContext="shadow" v:shadowOffsetX="0.345598" v:shadowOffsetY="-1.97279" v:shadowType="1"
						transform="matrix(1,0,0,1,0.345598,1.97279)" class="st1">
					<rect x="0" y="395.764" width="14.1732" height="14.1732" rx="2.12598" ry="2.12598" class="st19"/>
				</g>
				<rect x="0" y="395.764" width="14.1732" height="14.1732" rx="2.12598" ry="2.12598" class="st21"/>
			</g>
			<g id="shape28-152" v:mID="28" v:groupContext="shape" transform="translate(651.969,-368.504)">
				<title>矩形.37</title>
				<v:userDefs>
					<v:ud v:nameU="visVersion" v:val="VT0(15):26"/>
				</v:userDefs>
				<g id="shadow28-153" v:groupContext="shadow" v:shadowOffsetX="0.345598" v:shadowOffsetY="-1.97279" v:shadowType="1"
						transform="matrix(1,0,0,1,0.345598,1.97279)" class="st1">
					<rect x="0" y="395.764" width="14.1732" height="14.1732" rx="2.12598" ry="2.12598" class="st4"/>
				</g>
				<rect x="0" y="395.764" width="14.1732" height="14.1732" rx="2.12598" ry="2.12598" class="st16"/>
			</g>
			<g id="shape29-157" v:mID="29" v:groupContext="shape" transform="translate(680.315,-368.504)">
				<title>矩形.38</title>
				<v:userDefs>
					<v:ud v:nameU="visVersion" v:val="VT0(15):26"/>
				</v:userDefs>
				<g id="shadow29-158" v:groupContext="shadow" v:shadowOffsetX="0.345598" v:shadowOffsetY="-1.97279" v:shadowType="1"
						transform="matrix(1,0,0,1,0.345598,1.97279)" class="st1">
					<rect x="0" y="395.764" width="14.1732" height="14.1732" rx="2.12598" ry="2.12598" class="st4"/>
				</g>
				<rect x="0" y="395.764" width="14.1732" height="14.1732" rx="2.12598" ry="2.12598" class="st16"/>
			</g>
			<g id="shape30-162" v:mID="30" v:groupContext="shape" transform="translate(559.843,-311.811)">
				<title>工作表.30</title>
				<path d="M0 409.94 L44.76 409.94" class="st14"/>
			</g>
			<g id="shape31-165" v:mID="31" v:groupContext="shape" v:layerMember="0"
					transform="translate(356.584,-309.988) rotate(-35.6099) scale(-1,1)">
				<title>波浪连接线 1</title>
				<v:userDefs>
					<v:ud v:nameU="Scale" v:val="VT0(1):26"/>
					<v:ud v:nameU="AntiScale" v:val="VT0(1):26"/>
					<v:ud v:nameU="visVersion" v:val="VT0(15):26"/>
				</v:userDefs>
				<path d="M0 409.94 C104.8 355.45 225.56 314.12 274.57 409.94" class="st22"/>
			</g>
			<g id="shape32-171" v:mID="32" v:groupContext="shape" transform="translate(941.433,151.413) rotate(90)">
				<title>普通箭头</title>
				<v:userDefs>
					<v:ud v:nameU="visVersion" v:val="VT0(15):26"/>
					<v:ud v:nameU="ArrowType" v:prompt="" v:val="VT0(2):26"/>
				</v:userDefs>
				<g id="shadow32-172" v:groupContext="shadow" v:shadowOffsetX="0.345598" v:shadowOffsetY="-1.97279" v:shadowType="1"
						transform="matrix(1,0,0,1,1.97279,-0.345598)" class="st1">
					<path d="M0 409.94 L9.21 404.27 L9.21 407.1 L29.48 407.1 L29.48 409.94 L29.48 412.77 L9.21 412.77 L9.21 415.61
								 L0 409.94 Z" class="st24"/>
				</g>
				<path d="M0 409.94 L9.21 404.27 L9.21 407.1 L29.48 407.1 L29.48 409.94 L29.48 412.77 L9.21 412.77 L9.21 415.61 L0
							 409.94 Z" class="st25"/>
			</g>
			<g id="shape33-176" v:mID="33" v:groupContext="shape" transform="translate(534.614,-233.858)">
				<title>工作表.33</title>
				<desc>move to per-cpu slab page</desc>
				<v:textBlock v:margins="rect(4,4,4,4)" v:tabSpace="42.5197"/>
				<v:textRect cx="55.1339" cy="402.85" width="110.27" height="14.1732"/>
				<rect x="0" y="395.764" width="110.268" height="14.1732" class="st26"/>
				<text x="7.65" y="405.55" class="st27" v:langID="2052"><v:paragraph v:horizAlign="1"/><v:tabList/>move to per-cpu slab page</text>			</g>
			<g id="shape34-179" v:mID="34" v:groupContext="shape" transform="translate(0,-389.764)">
				<title>工作表.34</title>
				<desc>kmem_cache_init() – 2.create_boot_cache(kmem_cahce)</desc>
				<v:textBlock v:margins="rect(4,4,4,4)" v:tabSpace="42.5197"/>
				<v:textRect cx="145.276" cy="402.85" width="290.56" height="14.1732"/>
				<rect x="0" y="395.764" width="290.551" height="14.1732" class="st26"/>
				<text x="4" y="406.8" class="st6" v:langID="2052"><v:paragraph/><v:tabList/>kmem_cache_init() <tspan class="st28">–</tspan> 2.create_boot_cache(kmem_cahce)  </text>			</g>
			<g id="shape20-183" v:mID="20" v:groupContext="shape" transform="translate(496.063,-318.898)">
				<title>矩形.8</title>
				<desc>page instance</desc>
				<v:userDefs>
					<v:ud v:nameU="visVersion" v:val="VT0(15):26"/>
				</v:userDefs>
				<v:textBlock v:margins="rect(4,4,4,4)" v:tabSpace="42.5197"/>
				<v:textRect cx="31.8898" cy="402.85" width="63.78" height="14.1732"/>
				<g id="shadow20-184" v:groupContext="shadow" v:shadowOffsetX="0.345598" v:shadowOffsetY="-1.97279" v:shadowType="1"
						transform="matrix(1,0,0,1,0.345598,1.97279)" class="st1">
					<rect x="0" y="395.764" width="63.7795" height="14.1732" rx="1.41732" ry="1.41732" class="st4"/>
				</g>
				<rect x="0" y="395.764" width="63.7795" height="14.1732" rx="1.41732" ry="1.41732" class="st17"/>
				<text x="4.82" y="405.85" class="st18" v:langID="2052"><v:paragraph v:horizAlign="1"/><v:tabList/>page instance</text>			</g>
			<g id="shape36-189" v:mID="36" v:groupContext="shape" transform="translate(7.08661,-56.6929)">
				<title>矩形.36</title>
				<desc>struct kmem_cache * kmem_cache</desc>
				<v:userDefs>
					<v:ud v:nameU="visVersion" v:val="VT0(15):26"/>
				</v:userDefs>
				<v:textBlock v:margins="rect(4,4,4,4)" v:tabSpace="42.5197"/>
				<v:textRect cx="63.7795" cy="392.22" width="127.56" height="35.4331"/>
				<g id="shadow36-190" v:groupContext="shadow" v:shadowOffsetX="0.345598" v:shadowOffsetY="-1.97279" v:shadowType="1"
						transform="matrix(1,0,0,1,0.345598,1.97279)" class="st1">
					<rect x="0" y="374.504" width="127.559" height="35.4331" rx="2.83465" ry="2.83465" class="st4"/>
				</g>
				<rect x="0" y="374.504" width="127.559" height="35.4331" rx="2.83465" ry="2.83465" class="st5"/>
				<text x="12.8" y="388.62" class="st6" v:langID="2052"><v:paragraph v:horizAlign="1"/><v:tabList/>struct kmem_cache *<v:newlineChar/><tspan
							x="32.13" dy="1.2em" class="st7">kmem</tspan>_cache</text>			</g>
			<g id="shape37-196" v:mID="37" v:groupContext="shape" transform="translate(155.906,-56.6929)">
				<title>矩形.37</title>
				<desc>struct kmem_cache boot_kmem_cache</desc>
				<v:userDefs>
					<v:ud v:nameU="visVersion" v:val="VT0(15):26"/>
				</v:userDefs>
				<v:textBlock v:margins="rect(4,4,4,4)" v:tabSpace="42.5197"/>
				<v:textRect cx="70.8661" cy="392.22" width="141.74" height="35.4331"/>
				<g id="shadow37-197" v:groupContext="shadow" v:shadowOffsetX="0.345598" v:shadowOffsetY="-1.97279" v:shadowType="1"
						transform="matrix(1,0,0,1,0.345598,1.97279)" class="st1">
					<rect x="0" y="374.504" width="141.732" height="35.4331" rx="2.83465" ry="2.83465" class="st4"/>
				</g>
				<rect x="0" y="374.504" width="141.732" height="35.4331" rx="2.83465" ry="2.83465" class="st8"/>
				<text x="24.39" y="388.62" class="st6" v:langID="2052"><v:paragraph v:horizAlign="1"/><v:tabList/>struct kmem_cache<v:newlineChar/><tspan
							x="25.55" dy="1.2em" class="st7">boot</tspan>_kmem_cache</text>			</g>
			<g id="shape38-203" v:mID="38" v:groupContext="shape" v:layerMember="0" transform="translate(134.646,-74.4094)">
				<title>直线连接线.38</title>
				<v:userDefs>
					<v:ud v:nameU="visVersion" v:val="VT0(15):26"/>
				</v:userDefs>
				<path d="M0 409.94 L21.26 409.94" class="st9"/>
			</g>
			<g id="shape39-206" v:mID="39" v:groupContext="shape" transform="translate(340.157,-113.386)">
				<title>矩形.39</title>
				<desc>cpu_slab</desc>
				<v:userDefs>
					<v:ud v:nameU="visVersion" v:val="VT0(15):26"/>
				</v:userDefs>
				<v:textBlock v:margins="rect(4,4,4,4)" v:tabSpace="42.5197"/>
				<v:textRect cx="31.8898" cy="399.307" width="63.78" height="21.2598"/>
				<g id="shadow39-207" v:groupContext="shadow" v:shadowOffsetX="0.345598" v:shadowOffsetY="-1.97279" v:shadowType="1"
						transform="matrix(1,0,0,1,0.345598,1.97279)" class="st1">
					<rect x="0" y="388.677" width="63.7795" height="21.2598" rx="1.41732" ry="1.41732" class="st4"/>
				</g>
				<rect x="0" y="388.677" width="63.7795" height="21.2598" rx="1.41732" ry="1.41732" class="st10"/>
				<text x="7.01" y="403.51" class="st11" v:langID="1033"><v:paragraph v:horizAlign="1"/><v:tabList/>cpu_slab</text>			</g>
			<g id="shape40-212" v:mID="40" v:groupContext="shape" transform="translate(340.157,-7.08661)">
				<title>矩形.40</title>
				<desc>node[]</desc>
				<v:userDefs>
					<v:ud v:nameU="visVersion" v:val="VT0(15):26"/>
				</v:userDefs>
				<v:textBlock v:margins="rect(4,4,4,4)" v:tabSpace="42.5197"/>
				<v:textRect cx="31.8898" cy="399.307" width="63.78" height="21.2598"/>
				<g id="shadow40-213" v:groupContext="shadow" v:shadowOffsetX="0.345598" v:shadowOffsetY="-1.97279" v:shadowType="1"
						transform="matrix(1,0,0,1,0.345598,1.97279)" class="st1">
					<rect x="0" y="388.677" width="63.7795" height="21.2598" rx="1.41732" ry="1.41732" class="st4"/>
				</g>
				<rect x="0" y="388.677" width="63.7795" height="21.2598" rx="1.41732" ry="1.41732" class="st10"/>
				<text x="13.62" y="403.51" class="st11" v:langID="1033"><v:paragraph v:horizAlign="1"/><v:tabList/>node[]</text>			</g>
			<g id="shape41-218" v:mID="41" v:groupContext="shape" v:layerMember="0"
					transform="translate(615.518,596.983) rotate(-50.8446) scale(1,-1)">
				<title>波浪连接线 1.41</title>
				<v:userDefs>
					<v:ud v:nameU="Scale" v:val="VT0(1):26"/>
					<v:ud v:nameU="AntiScale" v:val="VT0(1):26"/>
					<v:ud v:nameU="visVersion" v:val="VT0(15):26"/>
				</v:userDefs>
				<path d="M0 409.94 C19.92 399.41 32.27 417.45 67.34 409.94" class="st12"/>
			</g>
			<g id="shape42-223" v:mID="42" v:groupContext="shape" v:layerMember="0"
					transform="translate(619.902,84.7724) rotate(51.8253)">
				<title>波浪连接线 1.42</title>
				<v:userDefs>
					<v:ud v:nameU="Scale" v:val="VT0(1):26"/>
					<v:ud v:nameU="AntiScale" v:val="VT0(1):26"/>
					<v:ud v:nameU="visVersion" v:val="VT0(15):26"/>
				</v:userDefs>
				<path d="M0 409.94 C20.35 399.41 32.96 417.45 68.8 409.94" class="st12"/>
			</g>
			<g id="shape43-228" v:mID="43" v:groupContext="shape" transform="translate(432.283,-134.646)">
				<title>矩形.43</title>
				<desc>freelist</desc>
				<v:userDefs>
					<v:ud v:nameU="visVersion" v:val="VT0(15):26"/>
				</v:userDefs>
				<v:textBlock v:margins="rect(4,4,4,4)" v:tabSpace="42.5197"/>
				<v:textRect cx="24.8031" cy="402.85" width="49.61" height="14.1732"/>
				<g id="shadow43-229" v:groupContext="shadow" v:shadowOffsetX="0.345598" v:shadowOffsetY="-1.97279" v:shadowType="1"
						transform="matrix(1,0,0,1,0.345598,1.97279)" class="st1">
					<rect x="0" y="395.764" width="49.6063" height="14.1732" rx="1.41732" ry="1.41732" class="st4"/>
				</g>
				<rect x="0" y="395.764" width="49.6063" height="14.1732" rx="1.41732" ry="1.41732" class="st8"/>
				<text x="8.14" y="406.45" class="st6" v:langID="2052"><v:paragraph v:horizAlign="1"/><v:tabList/>freelist</text>			</g>
			<g id="shape44-234" v:mID="44" v:groupContext="shape" transform="translate(432.283,-99.2126)">
				<title>矩形.44</title>
				<desc>page</desc>
				<v:userDefs>
					<v:ud v:nameU="visVersion" v:val="VT0(15):26"/>
				</v:userDefs>
				<v:textBlock v:margins="rect(4,4,4,4)" v:tabSpace="42.5197"/>
				<v:textRect cx="24.8031" cy="402.85" width="49.61" height="14.1732"/>
				<g id="shadow44-235" v:groupContext="shadow" v:shadowOffsetX="0.345598" v:shadowOffsetY="-1.97279" v:shadowType="1"
						transform="matrix(1,0,0,1,0.345598,1.97279)" class="st1">
					<rect x="0" y="395.764" width="49.6063" height="14.1732" rx="1.41732" ry="1.41732" class="st4"/>
				</g>
				<rect x="0" y="395.764" width="49.6063" height="14.1732" rx="1.41732" ry="1.41732" class="st8"/>
				<text x="13.48" y="406.45" class="st6" v:langID="2052"><v:paragraph v:horizAlign="1"/><v:tabList/>page</text>			</g>
			<g id="shape45-240" v:mID="45" v:groupContext="shape" v:layerMember="0"
					transform="translate(621.203,633.547) rotate(-32.0054) scale(1,-1)">
				<title>波浪连接线 1.45</title>
				<v:userDefs>
					<v:ud v:nameU="Scale" v:val="VT0(1):26"/>
					<v:ud v:nameU="AntiScale" v:val="VT0(1):26"/>
					<v:ud v:nameU="visVersion" v:val="VT0(15):26"/>
				</v:userDefs>
				<path d="M0 409.94 C13.18 401.67 14.37 416.32 33.43 409.94" class="st12"/>
			</g>
			<g id="shape46-245" v:mID="46" v:groupContext="shape" v:layerMember="0"
					transform="translate(621.203,-61.7046) rotate(32.0054)">
				<title>波浪连接线 1.46</title>
				<v:userDefs>
					<v:ud v:nameU="Scale" v:val="VT0(1):26"/>
					<v:ud v:nameU="AntiScale" v:val="VT0(1):26"/>
					<v:ud v:nameU="visVersion" v:val="VT0(15):26"/>
				</v:userDefs>
				<path d="M0 409.94 C11.02 403.03 15.45 415.65 33.43 409.94" class="st12"/>
			</g>
			<g id="shape47-250" v:mID="47" v:groupContext="shape" transform="translate(481.89,-141.732)">
				<title>工作表.47</title>
				<path d="M0 409.94 L56.69 409.94" class="st14"/>
			</g>
			<g id="shape48-253" v:mID="48" v:groupContext="shape" transform="translate(481.89,-106.299)">
				<title>工作表.48</title>
				<path d="M0 409.94 L117.12 409.94" class="st14"/>
			</g>
			<g id="shape49-256" v:mID="49" v:groupContext="shape" transform="translate(35.4331,-311.811)">
				<title>工作表.49</title>
				<desc>全局指针</desc>
				<v:textBlock v:margins="rect(4,4,4,4)" v:tabSpace="42.5197"/>
				<v:textRect cx="28.3465" cy="402.85" width="56.7" height="14.1732"/>
				<rect x="0" y="395.764" width="56.6929" height="14.1732" class="st26"/>
				<text x="8.35" y="406.14" class="st29" v:langID="2052"><v:paragraph v:horizAlign="1"/><v:tabList/>全局指针</text>			</g>
			<g id="shape50-259" v:mID="50" v:groupContext="shape" transform="translate(35.4331,-99.2126)">
				<title>工作表.50</title>
				<desc>全局指针</desc>
				<v:textBlock v:margins="rect(4,4,4,4)" v:tabSpace="42.5197"/>
				<v:textRect cx="28.3465" cy="402.85" width="56.7" height="14.1732"/>
				<rect x="0" y="395.764" width="56.6929" height="14.1732" class="st26"/>
				<text x="8.35" y="406.14" class="st29" v:langID="2052"><v:paragraph v:horizAlign="1"/><v:tabList/>全局指针</text>			</g>
			<g id="shape51-262" v:mID="51" v:groupContext="shape" transform="translate(191.339,-311.811)">
				<title>工作表.51</title>
				<desc>临时局部变量</desc>
				<v:textBlock v:margins="rect(4,4,4,4)" v:tabSpace="42.5197"/>
				<v:textRect cx="35.4331" cy="402.85" width="70.87" height="14.1732"/>
				<rect x="0" y="395.764" width="70.8661" height="14.1732" class="st26"/>
				<text x="8.43" y="405.81" class="st30" v:langID="2052"><v:paragraph v:horizAlign="1"/><v:tabList/>临时局部变量</text>			</g>
			<g id="shape52-265" v:mID="52" v:groupContext="shape" transform="translate(191.339,-99.2126)">
				<title>工作表.52</title>
				<desc>临时局部变量</desc>
				<v:textBlock v:margins="rect(4,4,4,4)" v:tabSpace="42.5197"/>
				<v:textRect cx="35.4331" cy="402.85" width="70.87" height="14.1732"/>
				<rect x="0" y="395.764" width="70.8661" height="14.1732" class="st26"/>
				<text x="8.43" y="405.81" class="st30" v:langID="2052"><v:paragraph v:horizAlign="1"/><v:tabList/>临时局部变量</text>			</g>
			<g id="shape53-268" v:mID="53" v:groupContext="shape" transform="translate(432.283,-10.6299)">
				<title>矩形.53</title>
				<desc>partial</desc>
				<v:userDefs>
					<v:ud v:nameU="visVersion" v:val="VT0(15):26"/>
				</v:userDefs>
				<v:textBlock v:margins="rect(4,4,4,4)" v:tabSpace="42.5197"/>
				<v:textRect cx="24.8031" cy="402.85" width="49.61" height="14.1732"/>
				<g id="shadow53-269" v:groupContext="shadow" v:shadowOffsetX="0.345598" v:shadowOffsetY="-1.97279" v:shadowType="1"
						transform="matrix(1,0,0,1,0.345598,1.97279)" class="st1">
					<rect x="0" y="395.764" width="49.6063" height="14.1732" rx="1.41732" ry="1.41732" class="st4"/>
				</g>
				<rect x="0" y="395.764" width="49.6063" height="14.1732" rx="1.41732" ry="1.41732" class="st8"/>
				<text x="9.48" y="406.45" class="st6" v:langID="2052"><v:paragraph v:horizAlign="1"/><v:tabList/>partial</text>			</g>
			<g id="shape54-274" v:mID="54" v:groupContext="shape" v:layerMember="0" transform="translate(403.937,-17.7165)">
				<title>直线连接线.54</title>
				<v:userDefs>
					<v:ud v:nameU="visVersion" v:val="VT0(15):26"/>
				</v:userDefs>
				<path d="M0 409.94 L28.35 409.94" class="st12"/>
			</g>
			<g id="shape55-279" v:mID="55" v:groupContext="shape" transform="translate(481.89,-17.7165)">
				<title>工作表.55</title>
				<path d="M0 409.94 L117.12 409.94" class="st14"/>
			</g>
			<g id="shape56-282" v:mID="56" v:groupContext="shape" v:layerMember="0"
					transform="translate(308.512,-200.68) rotate(-51.8101) scale(-1,1)">
				<title>波浪连接线 1.56</title>
				<v:userDefs>
					<v:ud v:nameU="Scale" v:val="VT0(1):26"/>
					<v:ud v:nameU="AntiScale" v:val="VT0(1):26"/>
					<v:ud v:nameU="visVersion" v:val="VT0(15):26"/>
				</v:userDefs>
				<path d="M0 409.94 C149.69 666.84 356.56 353.36 418.36 409.94" class="st22"/>
			</g>
			<g id="shape57-287" v:mID="57" v:groupContext="shape" transform="translate(639.354,-333.071)">
				<title>工作表.57</title>
				<desc>object allocated to kmem_cache_node instance</desc>
				<v:textBlock v:margins="rect(4,4,4,4)" v:tabSpace="42.5197"/>
				<v:textRect cx="55.1339" cy="399.307" width="110.27" height="21.2598"/>
				<rect x="0" y="388.677" width="110.268" height="21.2598" class="st26"/>
				<text x="4" y="396.61" class="st27" v:langID="2052"><v:paragraph/><v:tabList/>object allocated to <tspan x="4"
							dy="1.2em" class="st7">kmem</tspan>_cache_node instance</text>			</g>
			<g id="shape58-291" v:mID="58" v:groupContext="shape" transform="translate(588.189,-167.602)">
				<title>工作表.58</title>
				<desc>kmem_cache_alloc_node() 重复执行与节点数一样的次数</desc>
				<v:textBlock v:margins="rect(4,4,4,4)" v:tabSpace="42.5197"/>
				<v:textRect cx="70.8661" cy="396.122" width="141.74" height="27.6303"/>
				<rect x="0" y="382.307" width="141.732" height="27.6303" class="st26"/>
				<text x="5.9" y="393.14" class="st6" v:langID="1033"><v:paragraph v:horizAlign="1"/><v:tabList/>kmem<tspan
							class="st7" v:langID="2052">_</tspan><tspan class="st7" v:langID="2052">cache</tspan>_<tspan
							class="st7" v:langID="2052">alloc</tspan>_node<tspan class="st7" v:langID="2052">()<v:newlineChar/></tspan><tspan
							x="5.87" dy="1.347em" class="st31" v:langID="2052">重复执行与节点数一样的次数</tspan></text>			</g>
			<g id="shape61-299" v:mID="61" v:groupContext="shape" transform="translate(297.638,-174.331)">
				<title>工作表.61</title>
				<desc>slab_state = PARTIAL</desc>
				<v:textBlock v:margins="rect(4,4,4,4)" v:tabSpace="42.5197"/>
				<v:textRect cx="63.7795" cy="402.85" width="127.56" height="14.1732"/>
				<rect x="0" y="395.764" width="127.559" height="14.1732" class="st26"/>
				<text x="12.8" y="406.45" class="st6" v:langID="2052"><v:paragraph v:horizAlign="2"/><v:tabList/>slab_state = PARTIAL</text>			</g>
			<g id="shape64-302" v:mID="64" v:groupContext="shape" transform="translate(283.465,-135.362)">
				<title>工作表.64</title>
				<desc>alloc_kmem_cache_cpus() (per-cpu slab)</desc>
				<v:textBlock v:margins="rect(4,4,4,4)" v:tabSpace="42.5197"/>
				<v:textRect cx="70.8661" cy="396.122" width="141.74" height="27.6303"/>
				<rect x="0" y="382.307" width="141.732" height="27.6303" class="st26"/>
				<text x="6.56" y="393.72" class="st6" v:langID="2052"><v:paragraph v:horizAlign="1"/><v:tabList/>alloc_kmem_cache<tspan
							class="st7" v:langID="1033">_</tspan>cpus()<v:newlineChar/><tspan x="42.96" dy="1.26em" class="st32">(</tspan><tspan
							class="st32">per</tspan><tspan class="st32">-</tspan><tspan class="st32">cpu slab</tspan><tspan
							class="st32">)</tspan></text>			</g>
			<g id="shape70-311" v:mID="70" v:groupContext="shape" transform="translate(46.7717,-174.331)">
				<title>工作表.70</title>
				<desc>Slub allocator的状态从DOWN切换到PARTIAL</desc>
				<v:textBlock v:margins="rect(4,4,4,4)" v:tabSpace="42.5197"/>
				<v:textRect cx="130.748" cy="402.85" width="261.5" height="14.1732"/>
				<rect x="0" y="395.764" width="261.496" height="14.1732" class="st26"/>
				<text x="11.26" y="406.8" class="st33" v:langID="2052"><v:paragraph v:horizAlign="1"/><v:tabList/>Slub allocator<tspan
							class="st28">的状态从</tspan>DOWN<tspan class="st28">切换到</tspan>PARTIAL</text>			</g>
			<g id="shape60-316" v:mID="60" v:groupContext="shape" transform="translate(22.3465,243.831) rotate(-90)">
				<title>普通箭头.60</title>
				<v:userDefs>
					<v:ud v:nameU="visVersion" v:val="VT0(15):26"/>
					<v:ud v:nameU="ArrowType" v:prompt="" v:val="VT0(2):26"/>
				</v:userDefs>
				<g id="shadow60-317" v:groupContext="shadow" v:shadowOffsetX="0.345598" v:shadowOffsetY="-1.97279" v:shadowType="1"
						transform="matrix(1,0,0,1,-1.97279,0.345598)" class="st1">
					<path d="M0 409.94 L9.21 404.27 L9.21 407.1 L29.48 407.1 L29.48 409.94 L29.48 412.77 L9.21 412.77 L9.21 415.61
								 L0 409.94 Z" class="st24"/>
				</g>
				<path d="M0 409.94 L9.21 404.27 L9.21 407.1 L29.48 407.1 L29.48 409.94 L29.48 412.77 L9.21 412.77 L9.21 415.61 L0
							 409.94 Z" class="st34"/>
			</g>
			<g id="shape74-321" v:mID="74" v:groupContext="shape" transform="translate(7.08661,-233.858)">
				<title>工作表.74</title>
				<desc>注意结构体名称与变量名称可能混淆</desc>
				<v:textBlock v:margins="rect(4,4,4,4)" v:tabSpace="42.5197"/>
				<v:textRect cx="63.7795" cy="395.764" width="127.56" height="28.3465"/>
				<rect x="0" y="381.591" width="127.559" height="28.3465" class="st26"/>
				<text x="4" y="392.18" class="st35" v:langID="2052"><v:paragraph/><v:tabList/>注意：结构体名称与变量<tspan x="4" dy="1.287em"
							class="st7">名称可能混淆</tspan></text>			</g>
		</g>
	</g>
</svg>
