<?xml version="1.0" encoding="UTF-8" standalone="no"?>
<!DOCTYPE svg PUBLIC "-//W3C//DTD SVG 1.1//EN" "http://www.w3.org/Graphics/SVG/1.1/DTD/svg11.dtd">
<!-- 由 Microsoft Visio, SVG Export 生成 slab-order-calc.svg 页-1 -->
<svg xmlns="http://www.w3.org/2000/svg" xmlns:xlink="http://www.w3.org/1999/xlink" xmlns:ev="http://www.w3.org/2001/xml-events"
		xmlns:v="http://schemas.microsoft.com/visio/2003/SVGExtensions/" width="7.97939in" height="4.8494in"
		viewBox="0 0 574.516 349.157" xml:space="preserve" color-interpolation-filters="sRGB" class="st26">
	<v:documentProperties v:langID="2052" v:metric="true" v:viewMarkup="false"/>

	<style type="text/css">
	<![CDATA[
		.st1 {visibility:visible}
		.st2 {fill:#5b9bd5;fill-opacity:0.22;filter:url(#filter_2);stroke:#5b9bd5;stroke-opacity:0.22}
		.st3 {fill:#ed7d31;stroke:#000000;stroke-width:0.5}
		.st4 {fill:#000000;font-family:Times New Roman;font-size:1.00001em}
		.st5 {fill:#00b0f0;stroke:#000000;stroke-width:0.5}
		.st6 {stroke:#000000;stroke-dasharray:1.5,1.5;stroke-linecap:round;stroke-linejoin:round;stroke-width:0.5}
		.st7 {stroke:#000000;stroke-linecap:round;stroke-linejoin:round;stroke-width:0.5}
		.st8 {marker-end:url(#mrkr1-43);marker-start:url(#mrkr1-41);stroke:#000000;stroke-linecap:round;stroke-linejoin:round;stroke-width:0.5}
		.st9 {fill:#000000;fill-opacity:1;stroke:#000000;stroke-opacity:1;stroke-width:0.16556291390728}
		.st10 {fill:none;stroke:none;stroke-width:0.25}
		.st11 {fill:#00b0f0;font-family:Times New Roman;font-size:0.833336em}
		.st12 {font-size:1em}
		.st13 {fill:#ffc000;stroke:#000000;stroke-width:0.5}
		.st14 {fill:none;filter:url(#filter_2);stroke:#5b9bd5;stroke-opacity:0.22}
		.st15 {fill:#5b9bd5;filter:url(#filter_2);font-family:Times New Roman;font-size:1.00001em;opacity:0.219608}
		.st16 {fill:none;stroke:#000000;stroke-width:0.5}
		.st17 {fill:#00b0f0;font-family:Times New Roman;font-size:1.00001em}
		.st18 {fill:#000000;font-size:1em}
		.st19 {fill:#ff0000;font-family:Times New Roman;font-size:1.00001em}
		.st20 {fill:#5b9bd5;fill-opacity:0.25;filter:url(#filter_2);stroke:#5b9bd5;stroke-opacity:0.25}
		.st21 {fill:#f4b183;stroke:#ed7d31;stroke-width:0.75}
		.st22 {fill:#5b9bd5;fill-opacity:0.25;filter:url(#filter_2);stroke:#5b9bd5;stroke-dasharray:2.25,2.25;stroke-opacity:0.25}
		.st23 {fill:#f2f2f2;stroke:#000000;stroke-dasharray:2.25,2.25;stroke-width:0.75}
		.st24 {fill:#00b0f0;font-family:宋体;font-size:0.833336em}
		.st25 {font-family:Times New Roman;font-size:1em}
		.st26 {fill:none;fill-rule:evenodd;font-size:12px;overflow:visible;stroke-linecap:square;stroke-miterlimit:3}
	]]>
	</style>

	<defs id="Markers">
		<g id="lend1">
			<path d="M 1 -1 L 0 0 L 1 1 " style="stroke-linecap:round;stroke-linejoin:round;fill:none"/>
		</g>
		<marker id="mrkr1-41" class="st9" v:arrowType="1" v:arrowSize="2" orient="auto" markerUnits="strokeWidth"
				overflow="visible">
			<use xlink:href="#lend1" transform="scale(6.04) "/>
		</marker>
		<marker id="mrkr1-43" class="st9" v:arrowType="1" v:arrowSize="2" orient="auto" markerUnits="strokeWidth"
				overflow="visible">
			<use xlink:href="#lend1" transform="scale(-6.04,-6.04) "/>
		</marker>
	</defs>
	<defs id="Filters">
		<filter id="filter_2">
			<feGaussianBlur stdDeviation="2"/>
		</filter>
	</defs>
	<g v:mID="0" v:index="1" v:groupContext="foregroundPage">
		<title>页-1</title>
		<v:pageProperties v:drawingScale="0.0393701" v:pageScale="0.0393701" v:drawingUnits="24" v:shadowOffsetX="8.50394"
				v:shadowOffsetY="-8.50394"/>
		<v:layer v:name="连接线" v:index="0"/>
		<v:layer v:name="标注" v:index="1"/>
		<g id="group71-1" transform="translate(0.25,-4.2153)" v:mID="71" v:groupContext="group">
			<title>工作表.71</title>
			<g id="shape1-2" v:mID="1" v:groupContext="shape" transform="translate(56.6929,-78.2756)">
				<title>矩形.5</title>
				<desc># 0</desc>
				<v:userDefs>
					<v:ud v:nameU="visVersion" v:val="VT0(15):26"/>
				</v:userDefs>
				<v:textBlock v:margins="rect(4,4,4,4)" v:tabSpace="42.5197"/>
				<v:textRect cx="24.8031" cy="338.527" width="49.61" height="21.2598"/>
				<g id="shadow1-3" v:groupContext="shadow" v:shadowOffsetX="0.345598" v:shadowOffsetY="-1.97279" v:shadowType="1"
						transform="matrix(1,0,0,1,0.345598,1.97279)" class="st1">
					<rect x="0" y="327.897" width="49.6063" height="21.2598" rx="1.41732" ry="1.41732" class="st2"/>
				</g>
				<rect x="0" y="327.897" width="49.6063" height="21.2598" rx="1.41732" ry="1.41732" class="st3"/>
				<text x="17.3" y="342.13" class="st4" v:langID="2052"><v:paragraph v:horizAlign="1"/><v:tabList/># 0</text>			</g>
			<g id="shape2-8" v:mID="2" v:groupContext="shape" transform="translate(56.6929,-99.5354)">
				<title>矩形.2</title>
				<desc># 1</desc>
				<v:userDefs>
					<v:ud v:nameU="visVersion" v:val="VT0(15):26"/>
				</v:userDefs>
				<v:textBlock v:margins="rect(4,4,4,4)" v:tabSpace="42.5197"/>
				<v:textRect cx="24.8031" cy="338.527" width="49.61" height="21.2598"/>
				<g id="shadow2-9" v:groupContext="shadow" v:shadowOffsetX="0.345598" v:shadowOffsetY="-1.97279" v:shadowType="1"
						transform="matrix(1,0,0,1,0.345598,1.97279)" class="st1">
					<rect x="0" y="327.897" width="49.6063" height="21.2598" rx="1.41732" ry="1.41732" class="st2"/>
				</g>
				<rect x="0" y="327.897" width="49.6063" height="21.2598" rx="1.41732" ry="1.41732" class="st3"/>
				<text x="17.3" y="342.13" class="st4" v:langID="2052"><v:paragraph v:horizAlign="1"/><v:tabList/># 1</text>			</g>
			<g id="shape3-14" v:mID="3" v:groupContext="shape" transform="translate(56.6929,-120.795)">
				<title>矩形.3</title>
				<desc># 2</desc>
				<v:userDefs>
					<v:ud v:nameU="visVersion" v:val="VT0(15):26"/>
				</v:userDefs>
				<v:textBlock v:margins="rect(4,4,4,4)" v:tabSpace="42.5197"/>
				<v:textRect cx="24.8031" cy="338.527" width="49.61" height="21.2598"/>
				<g id="shadow3-15" v:groupContext="shadow" v:shadowOffsetX="0.345598" v:shadowOffsetY="-1.97279" v:shadowType="1"
						transform="matrix(1,0,0,1,0.345598,1.97279)" class="st1">
					<rect x="0" y="327.897" width="49.6063" height="21.2598" rx="1.41732" ry="1.41732" class="st2"/>
				</g>
				<rect x="0" y="327.897" width="49.6063" height="21.2598" rx="1.41732" ry="1.41732" class="st3"/>
				<text x="17.3" y="342.13" class="st4" v:langID="2052"><v:paragraph v:horizAlign="1"/><v:tabList/># 2</text>			</g>
			<g id="shape4-20" v:mID="4" v:groupContext="shape" transform="translate(56.6929,-142.055)">
				<title>矩形.4</title>
				<desc>unused</desc>
				<v:userDefs>
					<v:ud v:nameU="visVersion" v:val="VT0(15):26"/>
				</v:userDefs>
				<v:textBlock v:margins="rect(4,4,4,4)" v:tabSpace="42.5197"/>
				<v:textRect cx="24.8031" cy="342.07" width="49.61" height="14.1732"/>
				<g id="shadow4-21" v:groupContext="shadow" v:shadowOffsetX="0.345598" v:shadowOffsetY="-1.97279" v:shadowType="1"
						transform="matrix(1,0,0,1,0.345598,1.97279)" class="st1">
					<rect x="0" y="334.984" width="49.6063" height="14.1732" rx="1.41732" ry="1.41732" class="st2"/>
				</g>
				<rect x="0" y="334.984" width="49.6063" height="14.1732" rx="1.41732" ry="1.41732" class="st5"/>
				<text x="7.8" y="345.67" class="st4" v:langID="2052"><v:paragraph v:horizAlign="1"/><v:tabList/>unused</text>			</g>
			<g id="shape5-26" v:mID="5" v:groupContext="shape" transform="translate(35.4331,-156.228)">
				<title>工作表.5</title>
				<path d="M0 349.16 L85.04 349.16" class="st6"/>
			</g>
			<g id="shape6-29" v:mID="6" v:groupContext="shape" transform="translate(35.4331,-78.2756)">
				<title>工作表.6</title>
				<path d="M0 349.16 L85.04 349.16" class="st7"/>
			</g>
			<g id="shape7-32" v:mID="7" v:groupContext="shape" transform="translate(57.5519,-99.4208)">
				<title>工作表.7</title>
				<path d="M0 349.16 L62.92 349.16" class="st7"/>
			</g>
			<g id="shape8-35" v:mID="8" v:groupContext="shape" v:layerMember="0"
					transform="translate(-299.551,192.929) rotate(-90) scale(-1,1)">
				<title>直线连接线.57</title>
				<v:userDefs>
					<v:ud v:nameU="visVersion" v:val="VT0(15):26"/>
				</v:userDefs>
				<path d="M0 349.16 L77.95 349.16" class="st8"/>
			</g>
			<g id="shape9-44" v:mID="9" v:groupContext="shape" v:layerMember="0"
					transform="translate(-235.771,249.736) rotate(-90) scale(-1,1)">
				<title>直线连接线.9</title>
				<v:userDefs>
					<v:ud v:nameU="visVersion" v:val="VT0(15):26"/>
				</v:userDefs>
				<path d="M0 349.16 L21.15 349.16" class="st8"/>
			</g>
			<g id="shape10-51" v:mID="10" v:groupContext="shape" transform="translate(7.99361E-15,-99.5354)">
				<title>工作表.10</title>
				<desc>slab_size 4K</desc>
				<v:textBlock v:margins="rect(4,4,4,4)" v:tabSpace="42.5197"/>
				<v:textRect cx="24.8031" cy="334.822" width="49.61" height="28.6693"/>
				<rect x="0" y="320.488" width="49.6063" height="28.6693" class="st10"/>
				<text x="6.48" y="331.82" class="st11" v:langID="2052"><v:paragraph v:horizAlign="1"/><v:tabList/>slab_size<v:newlineChar/><tspan
							x="18.69" dy="1.2em" class="st12">4</tspan>K</text>			</g>
			<g id="shape11-55" v:mID="11" v:groupContext="shape" transform="translate(113.386,-82.2441)">
				<title>工作表.11</title>
				<desc>s→object_size</desc>
				<v:textBlock v:margins="rect(4,4,4,4)" v:tabSpace="42.5197"/>
				<v:textRect cx="35.4331" cy="342.07" width="70.87" height="14.1732"/>
				<rect x="0" y="334.984" width="70.8661" height="14.1732" class="st10"/>
				<text x="6" y="345.07" class="st11" v:langID="2052"><v:paragraph v:horizAlign="1"/><v:tabList/>s→object_size</text>			</g>
			<g id="shape13-58" v:mID="13" v:groupContext="shape" transform="translate(49.6063,-49.6063)">
				<title>工作表.13</title>
				<desc>order = 0 objects = 3</desc>
				<v:textBlock v:margins="rect(4,4,4,4)" v:tabSpace="42.5197"/>
				<v:textRect cx="31.8898" cy="336.24" width="63.78" height="25.8346"/>
				<rect x="0" y="323.322" width="63.7795" height="25.8346" class="st10"/>
				<text x="13.52" y="333.24" class="st11" v:langID="2052"><v:paragraph v:horizAlign="1"/><v:tabList/>order = 0<v:newlineChar/><tspan
							x="9.91" dy="1.2em" class="st12">objects </tspan>= 3</text>			</g>
			<g id="shape14-62" v:mID="14" v:groupContext="shape" transform="translate(269.291,-78.5984)">
				<title>矩形.14</title>
				<desc># 0</desc>
				<v:userDefs>
					<v:ud v:nameU="visVersion" v:val="VT0(15):26"/>
				</v:userDefs>
				<v:textBlock v:margins="rect(4,4,4,4)" v:tabSpace="42.5197"/>
				<v:textRect cx="24.8031" cy="338.527" width="49.61" height="21.2598"/>
				<g id="shadow14-63" v:groupContext="shadow" v:shadowOffsetX="0.345598" v:shadowOffsetY="-1.97279" v:shadowType="1"
						transform="matrix(1,0,0,1,0.345598,1.97279)" class="st1">
					<rect x="0" y="327.897" width="49.6063" height="21.2598" rx="1.41732" ry="1.41732" class="st2"/>
				</g>
				<rect x="0" y="327.897" width="49.6063" height="21.2598" rx="1.41732" ry="1.41732" class="st3"/>
				<text x="17.3" y="342.13" class="st4" v:langID="2052"><v:paragraph v:horizAlign="1"/><v:tabList/># 0</text>			</g>
			<g id="shape15-68" v:mID="15" v:groupContext="shape" transform="translate(269.291,-99.8583)">
				<title>矩形.15</title>
				<desc># 1</desc>
				<v:userDefs>
					<v:ud v:nameU="visVersion" v:val="VT0(15):26"/>
				</v:userDefs>
				<v:textBlock v:margins="rect(4,4,4,4)" v:tabSpace="42.5197"/>
				<v:textRect cx="24.8031" cy="338.527" width="49.61" height="21.2598"/>
				<g id="shadow15-69" v:groupContext="shadow" v:shadowOffsetX="0.345598" v:shadowOffsetY="-1.97279" v:shadowType="1"
						transform="matrix(1,0,0,1,0.345598,1.97279)" class="st1">
					<rect x="0" y="327.897" width="49.6063" height="21.2598" rx="1.41732" ry="1.41732" class="st2"/>
				</g>
				<rect x="0" y="327.897" width="49.6063" height="21.2598" rx="1.41732" ry="1.41732" class="st3"/>
				<text x="17.3" y="342.13" class="st4" v:langID="2052"><v:paragraph v:horizAlign="1"/><v:tabList/># 1</text>			</g>
			<g id="shape16-74" v:mID="16" v:groupContext="shape" transform="translate(269.291,-121.118)">
				<title>矩形.16</title>
				<desc># 2</desc>
				<v:userDefs>
					<v:ud v:nameU="visVersion" v:val="VT0(15):26"/>
				</v:userDefs>
				<v:textBlock v:margins="rect(4,4,4,4)" v:tabSpace="42.5197"/>
				<v:textRect cx="24.8031" cy="338.527" width="49.61" height="21.2598"/>
				<g id="shadow16-75" v:groupContext="shadow" v:shadowOffsetX="0.345598" v:shadowOffsetY="-1.97279" v:shadowType="1"
						transform="matrix(1,0,0,1,0.345598,1.97279)" class="st1">
					<rect x="0" y="327.897" width="49.6063" height="21.2598" rx="1.41732" ry="1.41732" class="st2"/>
				</g>
				<rect x="0" y="327.897" width="49.6063" height="21.2598" rx="1.41732" ry="1.41732" class="st3"/>
				<text x="17.3" y="342.13" class="st4" v:langID="2052"><v:paragraph v:horizAlign="1"/><v:tabList/># 2</text>			</g>
			<g id="shape17-80" v:mID="17" v:groupContext="shape" transform="translate(269.291,-227.094)">
				<title>矩形.17</title>
				<desc>unused</desc>
				<v:userDefs>
					<v:ud v:nameU="visVersion" v:val="VT0(15):26"/>
				</v:userDefs>
				<v:textBlock v:margins="rect(4,4,4,4)" v:tabSpace="42.5197"/>
				<v:textRect cx="24.8031" cy="342.07" width="49.61" height="14.1732"/>
				<g id="shadow17-81" v:groupContext="shadow" v:shadowOffsetX="0.345598" v:shadowOffsetY="-1.97279" v:shadowType="1"
						transform="matrix(1,0,0,1,0.345598,1.97279)" class="st1">
					<rect x="0" y="334.984" width="49.6063" height="14.1732" rx="1.41732" ry="1.41732" class="st2"/>
				</g>
				<rect x="0" y="334.984" width="49.6063" height="14.1732" rx="1.41732" ry="1.41732" class="st5"/>
				<text x="7.8" y="345.67" class="st4" v:langID="2052"><v:paragraph v:horizAlign="1"/><v:tabList/>unused</text>			</g>
			<g id="shape18-86" v:mID="18" v:groupContext="shape" transform="translate(248.031,-241.268)">
				<title>工作表.18</title>
				<path d="M0 349.16 L85.04 349.16" class="st6"/>
			</g>
			<g id="shape19-89" v:mID="19" v:groupContext="shape" transform="translate(248.031,-78.5984)">
				<title>工作表.19</title>
				<path d="M0 349.16 L85.04 349.16" class="st7"/>
			</g>
			<g id="shape21-92" v:mID="21" v:groupContext="shape" v:layerMember="0"
					transform="translate(-86.9521,107.889) rotate(-90) scale(-1,1)">
				<title>直线连接线.21</title>
				<v:userDefs>
					<v:ud v:nameU="visVersion" v:val="VT0(15):26"/>
				</v:userDefs>
				<path d="M0 349.16 L162.67 349.16" class="st8"/>
			</g>
			<g id="shape23-99" v:mID="23" v:groupContext="shape" transform="translate(212.598,-149.142)">
				<title>工作表.23</title>
				<desc>slab_size 8K</desc>
				<v:textBlock v:margins="rect(4,4,4,4)" v:tabSpace="42.5197"/>
				<v:textRect cx="24.8031" cy="334.822" width="49.61" height="28.6693"/>
				<rect x="0" y="320.488" width="49.6063" height="28.6693" class="st10"/>
				<text x="6.48" y="331.82" class="st11" v:langID="2052"><v:paragraph v:horizAlign="1"/><v:tabList/>slab_size<v:newlineChar/><tspan
							x="18.69" dy="1.2em" class="st12">8</tspan>K</text>			</g>
			<g id="shape25-103" v:mID="25" v:groupContext="shape" transform="translate(262.205,-49.9291)">
				<title>工作表.25</title>
				<desc>order = 1 objects = 7</desc>
				<v:textBlock v:margins="rect(4,4,4,4)" v:tabSpace="42.5197"/>
				<v:textRect cx="31.8898" cy="336.24" width="63.78" height="25.8346"/>
				<rect x="0" y="323.322" width="63.7795" height="25.8346" class="st10"/>
				<text x="13.52" y="333.24" class="st11" v:langID="2052"><v:paragraph v:horizAlign="1"/><v:tabList/>order = 1<v:newlineChar/><tspan
							x="9.91" dy="1.2em" class="st12">objects </tspan>= 7</text>			</g>
			<g id="shape26-107" v:mID="26" v:groupContext="shape" transform="translate(269.291,-142.378)">
				<title>矩形.26</title>
				<desc># 3</desc>
				<v:userDefs>
					<v:ud v:nameU="visVersion" v:val="VT0(15):26"/>
				</v:userDefs>
				<v:textBlock v:margins="rect(4,4,4,4)" v:tabSpace="42.5197"/>
				<v:textRect cx="24.8031" cy="338.527" width="49.61" height="21.2598"/>
				<g id="shadow26-108" v:groupContext="shadow" v:shadowOffsetX="0.345598" v:shadowOffsetY="-1.97279" v:shadowType="1"
						transform="matrix(1,0,0,1,0.345598,1.97279)" class="st1">
					<rect x="0" y="327.897" width="49.6063" height="21.2598" rx="1.41732" ry="1.41732" class="st2"/>
				</g>
				<rect x="0" y="327.897" width="49.6063" height="21.2598" rx="1.41732" ry="1.41732" class="st3"/>
				<text x="17.3" y="342.13" class="st4" v:langID="2052"><v:paragraph v:horizAlign="1"/><v:tabList/># 3</text>			</g>
			<g id="shape27-113" v:mID="27" v:groupContext="shape" transform="translate(269.291,-163.638)">
				<title>矩形.27</title>
				<desc># 4</desc>
				<v:userDefs>
					<v:ud v:nameU="visVersion" v:val="VT0(15):26"/>
				</v:userDefs>
				<v:textBlock v:margins="rect(4,4,4,4)" v:tabSpace="42.5197"/>
				<v:textRect cx="24.8031" cy="338.527" width="49.61" height="21.2598"/>
				<g id="shadow27-114" v:groupContext="shadow" v:shadowOffsetX="0.345598" v:shadowOffsetY="-1.97279" v:shadowType="1"
						transform="matrix(1,0,0,1,0.345598,1.97279)" class="st1">
					<rect x="0" y="327.897" width="49.6063" height="21.2598" rx="1.41732" ry="1.41732" class="st2"/>
				</g>
				<rect x="0" y="327.897" width="49.6063" height="21.2598" rx="1.41732" ry="1.41732" class="st13"/>
				<text x="17.3" y="342.13" class="st4" v:langID="2052"><v:paragraph v:horizAlign="1"/><v:tabList/># 4</text>			</g>
			<g id="shape28-119" v:mID="28" v:groupContext="shape" transform="translate(269.291,-184.898)">
				<title>矩形.28</title>
				<desc># 5</desc>
				<v:userDefs>
					<v:ud v:nameU="visVersion" v:val="VT0(15):26"/>
				</v:userDefs>
				<v:textBlock v:margins="rect(4,4,4,4)" v:tabSpace="42.5197"/>
				<v:textRect cx="24.8031" cy="338.527" width="49.61" height="21.2598"/>
				<g id="shadow28-120" v:groupContext="shadow" v:shadowOffsetX="0.345598" v:shadowOffsetY="-1.97279" v:shadowType="1"
						transform="matrix(1,0,0,1,0.345598,1.97279)" class="st1">
					<rect x="0" y="327.897" width="49.6063" height="21.2598" rx="1.41732" ry="1.41732" class="st2"/>
				</g>
				<rect x="0" y="327.897" width="49.6063" height="21.2598" rx="1.41732" ry="1.41732" class="st13"/>
				<text x="17.3" y="342.13" class="st4" v:langID="2052"><v:paragraph v:horizAlign="1"/><v:tabList/># 5</text>			</g>
			<g id="shape29-125" v:mID="29" v:groupContext="shape" transform="translate(269.291,-206.157)">
				<title>矩形.29</title>
				<desc># 6</desc>
				<v:userDefs>
					<v:ud v:nameU="visVersion" v:val="VT0(15):26"/>
				</v:userDefs>
				<v:textBlock v:margins="rect(4,4,4,4)" v:tabSpace="42.5197"/>
				<v:textRect cx="24.8031" cy="338.527" width="49.61" height="21.2598"/>
				<g id="shadow29-126" v:groupContext="shadow" v:shadowOffsetX="0.345598" v:shadowOffsetY="-1.97279" v:shadowType="1"
						transform="matrix(1,0,0,1,0.345598,1.97279)" class="st1">
					<rect x="0" y="327.897" width="49.6063" height="21.2598" rx="1.41732" ry="1.41732" class="st2"/>
				</g>
				<rect x="0" y="327.897" width="49.6063" height="21.2598" rx="1.41732" ry="1.41732" class="st13"/>
				<text x="17.3" y="342.13" class="st4" v:langID="2052"><v:paragraph v:horizAlign="1"/><v:tabList/># 6</text>			</g>
			<g id="shape30-131" v:mID="30" v:groupContext="shape" transform="translate(453.543,-78.5984)">
				<title>矩形.30</title>
				<desc># 0</desc>
				<v:userDefs>
					<v:ud v:nameU="visVersion" v:val="VT0(15):26"/>
				</v:userDefs>
				<v:textBlock v:margins="rect(4,4,4,4)" v:tabSpace="42.5197"/>
				<v:textRect cx="24.8031" cy="338.527" width="49.61" height="21.2598"/>
				<g id="shadow30-132" v:groupContext="shadow" v:shadowOffsetX="0.345598" v:shadowOffsetY="-1.97279" v:shadowType="1"
						transform="matrix(1,0,0,1,0.345598,1.97279)" class="st1">
					<rect x="0" y="327.897" width="49.6063" height="21.2598" rx="1.41732" ry="1.41732" class="st2"/>
				</g>
				<rect x="0" y="327.897" width="49.6063" height="21.2598" rx="1.41732" ry="1.41732" class="st3"/>
				<text x="17.3" y="342.13" class="st4" v:langID="2052"><v:paragraph v:horizAlign="1"/><v:tabList/># 0</text>			</g>
			<g id="shape31-137" v:mID="31" v:groupContext="shape" transform="translate(453.543,-99.8583)">
				<title>矩形.31</title>
				<desc># 1</desc>
				<v:userDefs>
					<v:ud v:nameU="visVersion" v:val="VT0(15):26"/>
				</v:userDefs>
				<v:textBlock v:margins="rect(4,4,4,4)" v:tabSpace="42.5197"/>
				<v:textRect cx="24.8031" cy="338.527" width="49.61" height="21.2598"/>
				<g id="shadow31-138" v:groupContext="shadow" v:shadowOffsetX="0.345598" v:shadowOffsetY="-1.97279" v:shadowType="1"
						transform="matrix(1,0,0,1,0.345598,1.97279)" class="st1">
					<rect x="0" y="327.897" width="49.6063" height="21.2598" rx="1.41732" ry="1.41732" class="st2"/>
				</g>
				<rect x="0" y="327.897" width="49.6063" height="21.2598" rx="1.41732" ry="1.41732" class="st3"/>
				<text x="17.3" y="342.13" class="st4" v:langID="2052"><v:paragraph v:horizAlign="1"/><v:tabList/># 1</text>			</g>
			<g id="shape32-143" v:mID="32" v:groupContext="shape" transform="translate(453.543,-121.118)">
				<title>矩形.32</title>
				<desc># 2</desc>
				<v:userDefs>
					<v:ud v:nameU="visVersion" v:val="VT0(15):26"/>
				</v:userDefs>
				<v:textBlock v:margins="rect(4,4,4,4)" v:tabSpace="42.5197"/>
				<v:textRect cx="24.8031" cy="338.527" width="49.61" height="21.2598"/>
				<g id="shadow32-144" v:groupContext="shadow" v:shadowOffsetX="0.345598" v:shadowOffsetY="-1.97279" v:shadowType="1"
						transform="matrix(1,0,0,1,0.345598,1.97279)" class="st1">
					<rect x="0" y="327.897" width="49.6063" height="21.2598" rx="1.41732" ry="1.41732" class="st2"/>
				</g>
				<rect x="0" y="327.897" width="49.6063" height="21.2598" rx="1.41732" ry="1.41732" class="st3"/>
				<text x="17.3" y="342.13" class="st4" v:langID="2052"><v:paragraph v:horizAlign="1"/><v:tabList/># 2</text>			</g>
			<g id="shape33-149" v:mID="33" v:groupContext="shape" transform="translate(453.543,-283.787)">
				<title>矩形.33</title>
				<desc>unused</desc>
				<v:userDefs>
					<v:ud v:nameU="visVersion" v:val="VT0(15):26"/>
				</v:userDefs>
				<v:textBlock v:margins="rect(4,4,4,4)" v:tabSpace="42.5197"/>
				<v:textRect cx="24.8031" cy="342.07" width="49.61" height="14.1732"/>
				<g id="shadow33-150" v:groupContext="shadow" v:shadowOffsetX="0.345598" v:shadowOffsetY="-1.97279" v:shadowType="1"
						transform="matrix(1,0,0,1,0.345598,1.97279)" class="st1">
					<rect x="0" y="334.984" width="49.6063" height="14.1732" rx="1.41732" ry="1.41732" class="st2"/>
				</g>
				<rect x="0" y="334.984" width="49.6063" height="14.1732" rx="1.41732" ry="1.41732" class="st5"/>
				<text x="7.8" y="345.67" class="st4" v:langID="2052"><v:paragraph v:horizAlign="1"/><v:tabList/>unused</text>			</g>
			<g id="shape34-155" v:mID="34" v:groupContext="shape" transform="translate(432.283,-297.961)">
				<title>工作表.34</title>
				<path d="M0 349.16 L85.04 349.16" class="st6"/>
			</g>
			<g id="shape35-158" v:mID="35" v:groupContext="shape" transform="translate(432.283,-78.5984)">
				<title>工作表.35</title>
				<path d="M0 349.16 L85.04 349.16" class="st7"/>
			</g>
			<g id="shape36-161" v:mID="36" v:groupContext="shape" v:layerMember="0"
					transform="translate(97.2998,51.1962) rotate(-90) scale(-1,1)">
				<title>直线连接线.36</title>
				<v:userDefs>
					<v:ud v:nameU="visVersion" v:val="VT0(15):26"/>
				</v:userDefs>
				<path d="M0 349.16 L219.36 349.16" class="st8"/>
			</g>
			<g id="shape37-168" v:mID="37" v:groupContext="shape" transform="translate(396.85,-176.843)">
				<title>工作表.37</title>
				<desc>slab_size 16K</desc>
				<v:textBlock v:margins="rect(4,4,4,4)" v:tabSpace="42.5197"/>
				<v:textRect cx="24.8031" cy="334.822" width="49.61" height="28.6693"/>
				<rect x="0" y="320.488" width="49.6063" height="28.6693" class="st10"/>
				<text x="6.48" y="331.82" class="st11" v:langID="2052"><v:paragraph v:horizAlign="1"/><v:tabList/>slab_size<v:newlineChar/><tspan
							x="16.19" dy="1.2em" class="st12">16</tspan>K</text>			</g>
			<g id="shape38-172" v:mID="38" v:groupContext="shape" transform="translate(446.457,-49.9291)">
				<title>工作表.38</title>
				<desc>order = 2 objects = 15</desc>
				<v:textBlock v:margins="rect(4,4,4,4)" v:tabSpace="42.5197"/>
				<v:textRect cx="31.8898" cy="336.24" width="63.78" height="25.8346"/>
				<rect x="0" y="323.322" width="63.7795" height="25.8346" class="st10"/>
				<text x="13.52" y="333.24" class="st11" v:langID="2052"><v:paragraph v:horizAlign="1"/><v:tabList/>order = 2<v:newlineChar/><tspan
							x="7.41" dy="1.2em" class="st12">objects </tspan>= 15</text>			</g>
			<g id="shape39-176" v:mID="39" v:groupContext="shape" transform="translate(453.543,-142.378)">
				<title>矩形.39</title>
				<desc># 3</desc>
				<v:userDefs>
					<v:ud v:nameU="visVersion" v:val="VT0(15):26"/>
				</v:userDefs>
				<v:textBlock v:margins="rect(4,4,4,4)" v:tabSpace="42.5197"/>
				<v:textRect cx="24.8031" cy="338.527" width="49.61" height="21.2598"/>
				<g id="shadow39-177" v:groupContext="shadow" v:shadowOffsetX="0.345598" v:shadowOffsetY="-1.97279" v:shadowType="1"
						transform="matrix(1,0,0,1,0.345598,1.97279)" class="st1">
					<rect x="0" y="327.897" width="49.6063" height="21.2598" rx="1.41732" ry="1.41732" class="st2"/>
				</g>
				<rect x="0" y="327.897" width="49.6063" height="21.2598" rx="1.41732" ry="1.41732" class="st3"/>
				<text x="17.3" y="342.13" class="st4" v:langID="2052"><v:paragraph v:horizAlign="1"/><v:tabList/># 3</text>			</g>
			<g id="shape40-182" v:mID="40" v:groupContext="shape" transform="translate(453.543,-163.638)">
				<title>矩形.40</title>
				<desc># 4</desc>
				<v:userDefs>
					<v:ud v:nameU="visVersion" v:val="VT0(15):26"/>
				</v:userDefs>
				<v:textBlock v:margins="rect(4,4,4,4)" v:tabSpace="42.5197"/>
				<v:textRect cx="24.8031" cy="338.527" width="49.61" height="21.2598"/>
				<g id="shadow40-183" v:groupContext="shadow" v:shadowOffsetX="0.345598" v:shadowOffsetY="-1.97279" v:shadowType="1"
						transform="matrix(1,0,0,1,0.345598,1.97279)" class="st1">
					<rect x="0" y="327.897" width="49.6063" height="21.2598" rx="1.41732" ry="1.41732" class="st2"/>
				</g>
				<rect x="0" y="327.897" width="49.6063" height="21.2598" rx="1.41732" ry="1.41732" class="st13"/>
				<text x="17.3" y="342.13" class="st4" v:langID="2052"><v:paragraph v:horizAlign="1"/><v:tabList/># 4</text>			</g>
			<g id="shape42-188" v:mID="42" v:groupContext="shape" transform="translate(453.543,-262.528)">
				<title>矩形.42</title>
				<desc># 14</desc>
				<v:userDefs>
					<v:ud v:nameU="visVersion" v:val="VT0(15):26"/>
				</v:userDefs>
				<v:textBlock v:margins="rect(4,4,4,4)" v:tabSpace="42.5197"/>
				<v:textRect cx="24.8031" cy="338.527" width="49.61" height="21.2598"/>
				<g id="shadow42-189" v:groupContext="shadow" v:shadowOffsetX="0.345598" v:shadowOffsetY="-1.97279" v:shadowType="1"
						transform="matrix(1,0,0,1,0.345598,1.97279)" class="st1">
					<rect x="0" y="327.897" width="49.6063" height="21.2598" rx="1.41732" ry="1.41732" class="st2"/>
				</g>
				<rect x="0" y="327.897" width="49.6063" height="21.2598" rx="1.41732" ry="1.41732" class="st13"/>
				<text x="14.3" y="342.13" class="st4" v:langID="2052"><v:paragraph v:horizAlign="1"/><v:tabList/># 14</text>			</g>
			<g id="shape43-194" v:mID="43" v:groupContext="shape" transform="translate(453.543,-184.898)">
				<title>矩形.43</title>
				<desc>◦ ◦ ◦</desc>
				<v:userDefs>
					<v:ud v:nameU="visVersion" v:val="VT0(15):26"/>
				</v:userDefs>
				<v:textBlock v:margins="rect(4,4,4,4)" v:tabSpace="42.5197"/>
				<v:textRect cx="24.8031" cy="310.342" width="49.61" height="77.6299"/>
				<g id="shadow43-195" v:groupContext="shadow" v:shadowOffsetX="0.345598" v:shadowOffsetY="-1.97279" v:shadowType="1"
						transform="matrix(1,0,0,1,0.345598,1.97279)" class="st1">
					<rect x="0" y="271.527" width="49.6063" height="77.6299" rx="1.41732" ry="1.41732" class="st14"/>
					<text x="22.68" y="299.54" class="st15" v:langID="2052"><v:paragraph v:horizAlign="1"/><v:tabList/>◦<v:newlineChar/><tspan
								x="22.68" dy="1.2em" class="st12">◦<v:newlineChar/></tspan><tspan x="22.68" dy="1.2em" class="st12">◦</tspan></text>				</g>
				<rect x="0" y="271.527" width="49.6063" height="77.6299" rx="1.41732" ry="1.41732" class="st16"/>
				<text x="22.68" y="299.54" class="st4" v:langID="2052"><v:paragraph v:horizAlign="1"/><v:tabList/>◦<v:newlineChar/><tspan
							x="22.68" dy="1.2em" class="st12">◦<v:newlineChar/></tspan><tspan x="22.68" dy="1.2em" class="st12">◦</tspan></text>			</g>
			<g id="shape44-206" v:mID="44" v:groupContext="shape" transform="translate(74.4094,-179.726)">
				<title>工作表.44</title>
				<desc>s→flags</desc>
				<v:textBlock v:margins="rect(4,4,4,4)" v:tabSpace="42.5197"/>
				<v:textRect cx="24.8031" cy="342.07" width="49.61" height="14.1732"/>
				<rect x="0" y="334.984" width="49.6063" height="14.1732" class="st10"/>
				<text x="4" y="345.07" class="st11" v:langID="2052"><v:paragraph/><v:tabList/>s→flags</text>			</g>
			<g id="shape58-209" v:mID="58" v:groupContext="shape" transform="translate(99.2126,-294.256)">
				<title>工作表.58</title>
				<desc>calculate_sizes(struct kmem_cache *s, int forced_order)</desc>
				<v:textBlock v:margins="rect(4,4,4,4)" v:tabSpace="42.5197"/>
				<v:textRect cx="145.276" cy="342.07" width="290.56" height="14.1732"/>
				<rect x="0" y="334.984" width="290.551" height="14.1732" class="st10"/>
				<text x="10.17" y="345.67" class="st17" v:langID="1033"><v:paragraph v:horizAlign="1"/><v:tabList/>calculate_sizes(struct kmem_cache *s, int <tspan
							class="st18">forced</tspan><tspan class="st18">_</tspan><tspan class="st18">order</tspan>)</text>			</g>
			<g id="shape63-215" v:mID="63" v:groupContext="shape" transform="translate(262.205,0)">
				<title>工作表.63</title>
				<desc>s→min</desc>
				<v:textBlock v:margins="rect(4,4,4,4)" v:tabSpace="42.5197"/>
				<v:textRect cx="31.8898" cy="342.07" width="63.78" height="14.1732"/>
				<rect x="0" y="334.984" width="63.7795" height="14.1732" class="st10"/>
				<text x="14.22" y="345.67" class="st19" v:langID="2052"><v:paragraph v:horizAlign="1"/><v:tabList/>s→min</text>			</g>
			<g id="shape65-218" v:mID="65" v:groupContext="shape" transform="translate(-58.6057,334.984) rotate(-90)">
				<title>普通箭头</title>
				<v:userDefs>
					<v:ud v:nameU="visVersion" v:val="VT0(15):26"/>
					<v:ud v:nameU="ArrowType" v:prompt="" v:val="VT0(2):26"/>
				</v:userDefs>
				<g id="shadow65-219" v:groupContext="shadow" v:shadowOffsetX="0.345598" v:shadowOffsetY="-1.97279" v:shadowType="1"
						transform="matrix(1,0,0,1,-1.97279,0.345598)" class="st1">
					<path d="M0 349.16 L9.21 343.49 L9.21 346.32 L28.35 346.32 L28.35 349.16 L28.35 351.99 L9.21 351.99 L9.21 354.83
								 L0 349.16 Z" class="st20"/>
				</g>
				<path d="M0 349.16 L9.21 343.49 L9.21 346.32 L28.35 346.32 L28.35 349.16 L28.35 351.99 L9.21 351.99 L9.21 354.83
							 L0 349.16 Z" class="st21"/>
			</g>
			<g id="shape66-223" v:mID="66" v:groupContext="shape" transform="translate(446.457,0)">
				<title>工作表.66</title>
				<desc>s→oo</desc>
				<v:textBlock v:margins="rect(4,4,4,4)" v:tabSpace="42.5197"/>
				<v:textRect cx="31.8898" cy="342.07" width="63.78" height="14.1732"/>
				<rect x="0" y="334.984" width="63.7795" height="14.1732" class="st10"/>
				<text x="17.55" y="345.67" class="st19" v:langID="2052"><v:paragraph v:horizAlign="1"/><v:tabList/>s→oo</text>			</g>
			<g id="shape67-226" v:mID="67" v:groupContext="shape" transform="translate(125.646,334.984) rotate(-90)">
				<title>普通箭头.67</title>
				<v:userDefs>
					<v:ud v:nameU="visVersion" v:val="VT0(15):26"/>
					<v:ud v:nameU="ArrowType" v:prompt="" v:val="VT0(2):26"/>
				</v:userDefs>
				<g id="shadow67-227" v:groupContext="shadow" v:shadowOffsetX="0.345598" v:shadowOffsetY="-1.97279" v:shadowType="1"
						transform="matrix(1,0,0,1,-1.97279,0.345598)" class="st1">
					<path d="M0 349.16 L9.21 343.49 L9.21 346.32 L28.35 346.32 L28.35 349.16 L28.35 351.99 L9.21 351.99 L9.21 354.83
								 L0 349.16 Z" class="st20"/>
				</g>
				<path d="M0 349.16 L9.21 343.49 L9.21 346.32 L28.35 346.32 L28.35 349.16 L28.35 351.99 L9.21 351.99 L9.21 354.83
							 L0 349.16 Z" class="st21"/>
			</g>
			<g id="shape68-231" v:mID="68" v:groupContext="shape" transform="translate(524.409,0)">
				<title>工作表.68</title>
				<desc>s→max</desc>
				<v:textBlock v:margins="rect(4,4,4,4)" v:tabSpace="42.5197"/>
				<v:textRect cx="24.8031" cy="342.07" width="49.61" height="14.1732"/>
				<rect x="0" y="334.984" width="49.6063" height="14.1732" class="st10"/>
				<text x="6.14" y="345.67" class="st19" v:langID="2052"><v:paragraph v:horizAlign="1"/><v:tabList/>s→max</text>			</g>
			<g id="shape69-234" v:mID="69" v:groupContext="shape" transform="translate(524.409,691.227) rotate(180)">
				<title>普通箭头.69</title>
				<v:userDefs>
					<v:ud v:nameU="visVersion" v:val="VT0(15):26"/>
					<v:ud v:nameU="ArrowType" v:prompt="" v:val="VT0(2):26"/>
				</v:userDefs>
				<g id="shadow69-235" v:groupContext="shadow" v:shadowOffsetX="0.345598" v:shadowOffsetY="-1.97279" v:shadowType="1"
						transform="matrix(1,0,0,1,-0.345598,-1.97279)" class="st1">
					<path d="M0 349.16 L9.21 343.49 L9.21 346.32 L28.35 346.32 L28.35 349.16 L28.35 351.99 L9.21 351.99 L9.21 354.83
								 L0 349.16 Z" class="st20"/>
				</g>
				<path d="M0 349.16 L9.21 343.49 L9.21 346.32 L28.35 346.32 L28.35 349.16 L28.35 351.99 L9.21 351.99 L9.21 354.83
							 L0 349.16 Z" class="st21"/>
			</g>
			<g id="shape70-239" v:mID="70" v:groupContext="shape" transform="translate(488.976,-14.1732)">
				<title>工作表.70</title>
				<desc>update</desc>
				<v:textBlock v:margins="rect(4,4,4,4)" v:tabSpace="42.5197"/>
				<v:textRect cx="21.2598" cy="342.07" width="42.52" height="14.1732"/>
				<rect x="0" y="334.984" width="42.5197" height="14.1732" class="st10"/>
				<text x="7.93" y="345.07" class="st11" v:langID="2052"><v:paragraph v:horizAlign="1"/><v:tabList/>update</text>			</g>
			<g id="shape48-242" v:mID="48" v:groupContext="shape" v:layerMember="1" transform="translate(9.2126,-206.157)">
				<title>文字框</title>
				<desc>当指定了调试标志比如SLAB_RED_ZONE、 SLAB_POISON、SLAB_STORE_USER、SLAB_DES...</desc>
				<v:userDefs>
					<v:ud v:nameU="visVersion" v:prompt="" v:val="VT0(15):26"/>
					<v:ud v:nameU="msvStructureType" v:prompt="" v:val="VT4(Callout)"/>
					<v:ud v:nameU="msvSDTargetIntersection" v:prompt=""/>
					<v:ud v:nameU="msvSDCalloutNoHighlight" v:prompt="" v:val="VT0(0):5"/>
					<v:ud v:nameU="msvShapeCategories" v:prompt="" v:val="VT0(0):26"/>
					<v:ud v:nameU="Side" v:prompt="" v:val="VT0(4):26"/>
					<v:ud v:nameU="LeaderEnd" v:prompt="" v:val="VT7(PNT(6.25MM,-6.4MM)):40"/>
					<v:ud v:nameU="WHBoxIntersection" v:prompt="" v:val="VT7(PNT(10.096153846154MM,0MM)):40"/>
					<v:ud v:nameU="Extension" v:prompt="" v:val="VT0(0.059055118110236):24"/>
					<v:ud v:nameU="Inset" v:prompt="" v:val="VT0(0.11811023622047):24"/>
					<v:ud v:nameU="LeaderEnd" v:prompt="" v:val="VT7(PNT(1.1437007874016,-0.15802712160983)):40"/>
					<v:ud v:nameU="WHBoxIntersection" v:prompt="" v:val="VT7(PNT(1.2523802721031,0)):40"/>
				</v:userDefs>
				<v:textBlock v:margins="rect(4,4,4,4)" v:tabSpace="42.5197"/>
				<v:textRect cx="107.717" cy="323.645" width="215.44" height="47.6384"/>
				<g id="shadow48-243" v:groupContext="shadow" v:shadowOffsetX="0.345598" v:shadowOffsetY="-1.97279" v:shadowType="1"
						transform="matrix(1,0,0,1,0.345598,1.97279)" class="st1">
					<path d="M5.67 349.16 L94.96 349.16 A4.25197 4.25197 0 0 1 99.21 353.41 L99.21 353.41 A1.76122 1.76122 -180 0
								 0 102.22 354.65 L106.06 350.82 A5.66929 5.66929 0 0 1 110.06 349.16 L209.76 349.16 A5.66929 5.66929
								 -180 0 0 215.43 343.49 L215.43 303.8 A5.66929 5.66929 -180 0 0 209.76 298.13 L5.67 298.13 A5.66929
								 5.66929 -180 0 0 -0 303.8 L0 343.49 A5.66929 5.66929 -180 0 0 5.67 349.16 Z" class="st22"/>
				</g>
				<path d="M5.67 349.16 L94.96 349.16 A4.25197 4.25197 0 0 1 99.21 353.41 L99.21 353.41 A1.76122 1.76122 -180 0 0 102.22
							 354.65 L106.06 350.82 A5.66929 5.66929 0 0 1 110.06 349.16 L209.76 349.16 A5.66929 5.66929 -180 0 0
							 215.43 343.49 L215.43 303.8 A5.66929 5.66929 -180 0 0 209.76 298.13 L5.67 298.13 A5.66929 5.66929 -180
							 0 0 -0 303.8 L0 343.49 A5.66929 5.66929 -180 0 0 5.67 349.16 Z" class="st23"/>
				<text x="4" y="313.7" class="st24" v:langID="2052"><v:paragraph/><v:tabList/>当指定了调试标志，比如<tspan class="st25">SLAB</tspan><tspan
							class="st25">_</tspan><tspan class="st25">RED</tspan><tspan class="st25">_</tspan><tspan class="st25">ZONE</tspan>、<v:newlineChar/><v:paragraph/><tspan
							x="4" dy="1.316em" class="st25">SLAB</tspan><tspan class="st25">_</tspan><tspan class="st25">POISON</tspan>、<tspan
							class="st25">SLAB</tspan><tspan class="st25">_</tspan><tspan class="st25">STORE</tspan><tspan
							class="st25">_</tspan><tspan class="st25">USER</tspan>、<tspan x="4" dy="1.327em" class="st25">SLAB</tspan><tspan
							class="st25">_</tspan><tspan class="st25">DESTROY</tspan><tspan class="st25">_</tspan><tspan
							class="st25">RCU</tspan>，对象的大小将会增加</text>			</g>
			<g id="shape60-266" v:mID="60" v:groupContext="shape" v:layerMember="1" transform="translate(230.173,-320.862)">
				<title>文字框.60</title>
				<desc>如果大于0将使用它计算s→oo</desc>
				<v:userDefs>
					<v:ud v:nameU="visVersion" v:prompt="" v:val="VT0(15):26"/>
					<v:ud v:nameU="msvStructureType" v:prompt="" v:val="VT4(Callout)"/>
					<v:ud v:nameU="msvSDTargetIntersection" v:prompt=""/>
					<v:ud v:nameU="msvSDCalloutNoHighlight" v:prompt="" v:val="VT0(0):5"/>
					<v:ud v:nameU="msvShapeCategories" v:prompt="" v:val="VT0(0):26"/>
					<v:ud v:nameU="Side" v:prompt="" v:val="VT0(4):26"/>
					<v:ud v:nameU="LeaderEnd" v:prompt="" v:val="VT7(PNT(6.25MM,-6.4MM)):40"/>
					<v:ud v:nameU="WHBoxIntersection" v:prompt="" v:val="VT7(PNT(10.096153846154MM,0MM)):40"/>
					<v:ud v:nameU="Extension" v:prompt="" v:val="VT0(0.059055118110236):24"/>
					<v:ud v:nameU="Inset" v:prompt="" v:val="VT0(0.11811023622047):24"/>
					<v:ud v:nameU="Side" v:prompt="" v:val="VT0(1):26"/>
					<v:ud v:nameU="LeaderEnd" v:prompt="" v:val="VT7(PNT(1.8458051703714,-10.78611111111MM)):40"/>
					<v:ud v:nameU="WHBoxIntersection" v:prompt="" v:val="VT7(PNT(2.2165354330709,0MM)):40"/>
				</v:userDefs>
				<v:textBlock v:margins="rect(4,4,4,4)" v:tabSpace="42.5197"/>
				<v:textRect cx="79.7953" cy="337.818" width="159.6" height="21.1648"/>
				<g id="shadow60-267" v:groupContext="shadow" v:shadowOffsetX="0.345598" v:shadowOffsetY="-1.97279" v:shadowType="1"
						transform="matrix(1,0,0,1,0.345598,1.97279)" class="st1">
					<path d="M5.67 349.16 L77.45 349.16 A5.66929 5.66929 0 0 1 81.46 350.82 L85.29 354.65 A1.76122 1.76122 -180 0
								 0 88.3 353.41 L88.3 353.41 A4.25197 4.25197 0 0 1 92.55 349.16 L153.92 349.16 A5.66929 5.66929 -180
								 0 0 159.59 343.49 L159.59 332.15 A5.66929 5.66929 -180 0 0 153.92 326.48 L5.67 326.48 A5.66929 5.66929
								 -180 0 0 0 332.15 L0 343.49 A5.66929 5.66929 -180 0 0 5.67 349.16 Z" class="st22"/>
				</g>
				<path d="M5.67 349.16 L77.45 349.16 A5.66929 5.66929 0 0 1 81.46 350.82 L85.29 354.65 A1.76122 1.76122 -180 0 0 88.3
							 353.41 L88.3 353.41 A4.25197 4.25197 0 0 1 92.55 349.16 L153.92 349.16 A5.66929 5.66929 -180 0 0 159.59
							 343.49 L159.59 332.15 A5.66929 5.66929 -180 0 0 153.92 326.48 L5.67 326.48 A5.66929 5.66929 -180 0 0
							 0 332.15 L0 343.49 A5.66929 5.66929 -180 0 0 5.67 349.16 Z" class="st23"/>
				<text x="4" y="341.11" class="st24" v:langID="2052"><v:paragraph/><v:tabList/>如果大于<tspan class="st25">0</tspan>，将使用它计算<tspan
							class="st25">s</tspan>→<tspan class="st25">oo</tspan></text>			</g>
		</g>
	</g>
</svg>
