<?xml version="1.0" encoding="UTF-8" standalone="no"?>
<!DOCTYPE svg PUBLIC "-//W3C//DTD SVG 1.1//EN" "http://www.w3.org/Graphics/SVG/1.1/DTD/svg11.dtd">
<!-- 由 Microsoft Visio, SVG Export 生成 watermark-1.svg 页-1 -->
<svg xmlns="http://www.w3.org/2000/svg" xmlns:xlink="http://www.w3.org/1999/xlink" xmlns:ev="http://www.w3.org/2001/xml-events"
		xmlns:v="http://schemas.microsoft.com/visio/2003/SVGExtensions/" width="7.48231in" height="4.02932in"
		viewBox="0 0 538.726 290.111" xml:space="preserve" color-interpolation-filters="sRGB" class="st20">
	<v:documentProperties v:langID="2052" v:metric="true" v:viewMarkup="false"/>

	<style type="text/css">
	<![CDATA[
		.st1 {visibility:visible}
		.st2 {fill:#5b9bd5;fill-opacity:0.22;filter:url(#filter_2);stroke:#5b9bd5;stroke-opacity:0.22}
		.st3 {fill:#c5e0b3;stroke:#000000;stroke-width:0.5}
		.st4 {fill:none;stroke:none;stroke-width:0.25}
		.st5 {fill:#000000;font-family:Times New Roman;font-size:1.00001em}
		.st6 {stroke:#ff0000;stroke-dasharray:2.25,2.25;stroke-linecap:round;stroke-linejoin:round;stroke-width:0.75}
		.st7 {stroke:#000000;stroke-dasharray:2.25,2.25;stroke-linecap:round;stroke-linejoin:round;stroke-width:0.75}
		.st8 {fill:#5b9bd5;fill-opacity:0.25;filter:url(#filter_2);stroke:#5b9bd5;stroke-opacity:0.25}
		.st9 {fill:#fee599;stroke:#000000;stroke-width:0.25}
		.st10 {fill:#5b9bd5;fill-opacity:0.22;filter:url(#filter_2);stroke:#5b9bd5;stroke-dasharray:2.25,2.25;stroke-opacity:0.22}
		.st11 {fill:#fff2cc;stroke:#0070c0;stroke-dasharray:2.25,2.25;stroke-width:0.75}
		.st12 {font-size:1em}
		.st13 {fill:#5b9bd5;fill-opacity:0.22;filter:url(#filter_2);stroke:#5b9bd5;stroke-dasharray:0.75,1.5;stroke-opacity:0.22}
		.st14 {fill:#f2f2f2;stroke:#0070c0;stroke-dasharray:0.75,1.5;stroke-width:0.75}
		.st15 {fill:#000000;font-family:宋体;font-size:0.833336em}
		.st16 {font-family:Times New Roman;font-size:1em}
		.st17 {fill:#000000;font-family:宋体;font-size:1.00001em}
		.st18 {fill:#00b0f0;font-family:Times New Roman;font-size:1.00001em}
		.st19 {font-family:宋体;font-size:1em}
		.st20 {fill:none;fill-rule:evenodd;font-size:12px;overflow:visible;stroke-linecap:square;stroke-miterlimit:3}
	]]>
	</style>

	<defs id="Filters">
		<filter id="filter_2">
			<feGaussianBlur stdDeviation="2"/>
		</filter>
	</defs>
	<g v:mID="0" v:index="1" v:groupContext="foregroundPage">
		<title>页-1</title>
		<v:pageProperties v:drawingScale="0.0393701" v:pageScale="0.0393701" v:drawingUnits="24" v:shadowOffsetX="8.50394"
				v:shadowOffsetY="-8.50394"/>
		<g id="group24-1" transform="translate(0.25,-5.7228)" v:mID="24" v:groupContext="group">
			<title>工作表.24</title>
			<g id="shape1-2" v:mID="1" v:groupContext="shape" transform="translate(116.646,0)">
				<title>矩形.3</title>
				<v:userDefs>
					<v:ud v:nameU="visVersion" v:val="VT0(15):26"/>
				</v:userDefs>
				<g id="shadow1-3" v:groupContext="shadow" v:shadowOffsetX="0.345598" v:shadowOffsetY="-1.97279" v:shadowType="1"
						transform="matrix(1,0,0,1,0.345598,1.97279)" class="st1">
					<rect x="0" y="42.0793" width="85.0394" height="248.031" rx="1.41732" ry="1.41732" class="st2"/>
				</g>
				<rect x="0" y="42.0793" width="85.0394" height="248.031" rx="1.41732" ry="1.41732" class="st3"/>
			</g>
			<g id="shape2-7" v:mID="2" v:groupContext="shape" transform="translate(322.157,0)">
				<title>矩形.2</title>
				<v:userDefs>
					<v:ud v:nameU="visVersion" v:val="VT0(15):26"/>
				</v:userDefs>
				<g id="shadow2-8" v:groupContext="shadow" v:shadowOffsetX="0.345598" v:shadowOffsetY="-1.97279" v:shadowType="1"
						transform="matrix(1,0,0,1,0.345598,1.97279)" class="st1">
					<rect x="0" y="106.567" width="85.0394" height="183.543" rx="1.41732" ry="1.41732" class="st2"/>
				</g>
				<rect x="0" y="106.567" width="85.0394" height="183.543" rx="1.41732" ry="1.41732" class="st3"/>
			</g>
			<g id="shape4-12" v:mID="4" v:groupContext="shape" transform="translate(129.047,-127.559)">
				<title>工作表.4</title>
				<desc>free page</desc>
				<v:textBlock v:margins="rect(4,4,4,4)" v:tabSpace="42.5197"/>
				<v:textRect cx="30.1181" cy="283.024" width="60.24" height="14.1732"/>
				<rect x="0" y="275.938" width="60.2362" height="14.1732" class="st4"/>
				<text x="7.97" y="286.62" class="st5" v:langID="2052"><v:paragraph v:horizAlign="1"/><v:tabList/>free page</text>			</g>
			<g id="shape5-15" v:mID="5" v:groupContext="shape" transform="translate(95.3858,-77.9528)">
				<title>工作表.5</title>
				<path d="M0 290.11 L340.16 290.11" class="st6"/>
			</g>
			<g id="shape7-18" v:mID="7" v:groupContext="shape" transform="translate(95.3858,0)">
				<title>工作表.7</title>
				<path d="M0 290.11 L340.16 290.11" class="st7"/>
			</g>
			<g id="shape8-21" v:mID="8" v:groupContext="shape" transform="translate(-187.638,212.158) rotate(-90)">
				<title>普通双箭头</title>
				<v:userDefs>
					<v:ud v:nameU="visVersion" v:val="VT0(15):26"/>
					<v:ud v:nameU="ArrowType" v:prompt="" v:val="VT0(3):26"/>
				</v:userDefs>
				<g id="shadow8-22" v:groupContext="shadow" v:shadowOffsetX="0.345598" v:shadowOffsetY="-1.97279" v:shadowType="1"
						transform="matrix(1,0,0,1,-1.97279,0.345598)" class="st1">
					<path d="M0 290.11 L11.34 285.01 L11.34 287.56 L94.96 287.56 L94.96 285.01 L106.3 290.11 L94.96 295.21 L94.96
								 292.66 L11.34 292.66 L11.34 295.21 L0 290.11 Z" class="st8"/>
				</g>
				<path d="M0 290.11 L11.34 285.01 L11.34 287.56 L94.96 287.56 L94.96 285.01 L106.3 290.11 L94.96 295.21 L94.96 292.66
							 L11.34 292.66 L11.34 295.21 L0 290.11 Z" class="st9"/>
			</g>
			<g id="shape9-26" v:mID="9" v:groupContext="shape" transform="translate(-187.638,290.111) rotate(-90)">
				<title>普通双箭头.9</title>
				<v:userDefs>
					<v:ud v:nameU="visVersion" v:val="VT0(15):26"/>
					<v:ud v:nameU="ArrowType" v:prompt="" v:val="VT0(3):26"/>
				</v:userDefs>
				<g id="shadow9-27" v:groupContext="shadow" v:shadowOffsetX="0.345598" v:shadowOffsetY="-1.97279" v:shadowType="1"
						transform="matrix(1,0,0,1,-1.97279,0.345598)" class="st1">
					<path d="M0 290.11 L11.34 285.01 L11.34 287.56 L66.61 287.56 L66.61 285.01 L77.95 290.11 L66.61 295.21 L66.61
								 292.66 L11.34 292.66 L11.34 295.21 L0 290.11 Z" class="st8"/>
				</g>
				<path d="M0 290.11 L11.34 285.01 L11.34 287.56 L66.61 287.56 L66.61 285.01 L77.95 290.11 L66.61 295.21 L66.61 292.66
							 L11.34 292.66 L11.34 295.21 L0 290.11 Z" class="st9"/>
			</g>
			<g id="shape10-31" v:mID="10" v:groupContext="shape" transform="translate(334.559,-49.6063)">
				<title>工作表.10</title>
				<desc>free page</desc>
				<v:textBlock v:margins="rect(4,4,4,4)" v:tabSpace="42.5197"/>
				<v:textRect cx="30.1181" cy="283.024" width="60.24" height="14.1732"/>
				<rect x="0" y="275.938" width="60.2362" height="14.1732" class="st4"/>
				<text x="7.97" y="286.62" class="st5" v:langID="2052"><v:paragraph v:horizAlign="1"/><v:tabList/>free page</text>			</g>
			<g id="shape11-34" v:mID="11" v:groupContext="shape" transform="translate(322.157,-183.543)">
				<title>矩形.11</title>
				<v:userDefs>
					<v:ud v:nameU="visVersion" v:val="VT0(15):26"/>
				</v:userDefs>
				<g id="shadow11-35" v:groupContext="shadow" v:shadowOffsetX="0.345598" v:shadowOffsetY="-1.97279" v:shadowType="1"
						transform="matrix(1,0,0,1,0.345598,1.97279)" class="st1">
					<rect x="0" y="253.969" width="85.0394" height="36.1417" rx="1.41732" ry="1.41732" class="st10"/>
				</g>
				<rect x="0" y="253.969" width="85.0394" height="36.1417" rx="1.41732" ry="1.41732" class="st11"/>
			</g>
			<g id="shape12-39" v:mID="12" v:groupContext="shape" transform="translate(334.559,-191.339)">
				<title>工作表.12</title>
				<desc>free CMA page</desc>
				<v:textBlock v:margins="rect(4,4,4,4)" v:tabSpace="42.5197"/>
				<v:textRect cx="30.1181" cy="283.024" width="60.24" height="14.1732"/>
				<rect x="0" y="275.938" width="60.2362" height="14.1732" class="st4"/>
				<text x="5.63" y="279.42" class="st5" v:langID="2052"><v:paragraph v:horizAlign="1"/><v:tabList/>free CMA <tspan
							x="18.79" dy="1.2em" class="st12">page</tspan></text>			</g>
			<g id="shape13-43" v:mID="13" v:groupContext="shape" transform="translate(212.457,-141.024)">
				<title>二维文字提示框.40</title>
				<desc>请求分配unmovable内存时排除CMA区域</desc>
				<v:userDefs>
					<v:ud v:nameU="Scale" v:val="VT0(1):26"/>
					<v:ud v:nameU="AntiScale" v:val="VT0(1):26"/>
					<v:ud v:nameU="visVersion" v:val="VT0(15):26"/>
				</v:userDefs>
				<v:textBlock v:margins="rect(4,4,4,4)" v:tabSpace="42.5197"/>
				<v:textRect cx="51.3071" cy="272.04" width="102.62" height="36.1417"/>
				<g id="shadow13-44" v:groupContext="shadow" v:shadowOffsetX="0.345598" v:shadowOffsetY="-1.97279" v:shadowType="1"
						transform="matrix(1,0,0,1,0.345598,1.97279)" class="st1">
					<path d="M0 267.52 L0 254.68 a0.708661 0.708661 0 0 1 0.708661 -0.708661 L38.4 253.97 a0.708661 0.708661 -180
								 0 0 0.155792 -0.0173366 L101.08 239.86 a0.708661 0.708661 0 0 1 0.384749 1.36198 L68.17 252.59 a0.708661
								 0.708661 -180 0 0 0.228958 1.37932 L101.91 253.97 a0.708661 0.708661 0 0 1 0.708661 0.708661 L102.61
								 267.52 L102.61 272.04 L102.61 276.56 L102.61 289.4 a0.708661 0.708661 0 0 1 -0.708661 0.708661 L64.13
								 290.11 L51.31 290.11 L38.48 290.11 L0.71 290.11 a0.708661 0.708661 0 0 1 -0.708661 -0.708661 L0
								 276.56 L0 272.04 L0 267.52 Z" class="st13"/>
				</g>
				<path d="M0 267.52 L0 254.68 a0.708661 0.708661 0 0 1 0.708661 -0.708661 L38.4 253.97 a0.708661 0.708661 -180 0 0
							 0.155792 -0.0173366 L101.08 239.86 a0.708661 0.708661 0 0 1 0.384749 1.36198 L68.17 252.59 a0.708661
							 0.708661 -180 0 0 0.228958 1.37932 L101.91 253.97 a0.708661 0.708661 0 0 1 0.708661 0.708661 L102.61
							 267.52 L102.61 272.04 L102.61 276.56 L102.61 289.4 a0.708661 0.708661 0 0 1 -0.708661 0.708661 L64.13
							 290.11 L51.31 290.11 L38.48 290.11 L0.71 290.11 a0.708661 0.708661 0 0 1 -0.708661 -0.708661 L0 276.56
							 L0 272.04 L0 267.52 Z" class="st14"/>
				<text x="4" y="268.75" class="st15" v:langID="2052"><v:paragraph/><v:tabList/>请求分配<tspan class="st16">unmovable</tspan>内<tspan
							x="4" dy="1.316em" class="st12">存时排除</tspan><tspan class="st16">CMA</tspan>区域</text>			</g>
			<g id="shape14-52" v:mID="14" v:groupContext="shape" transform="translate(195.449,-205.512)">
				<title>二维文字提示框.14</title>
				<desc>在该线以上返回true</desc>
				<v:userDefs>
					<v:ud v:nameU="Scale" v:val="VT0(1):26"/>
					<v:ud v:nameU="AntiScale" v:val="VT0(1):26"/>
					<v:ud v:nameU="visVersion" v:val="VT0(15):26"/>
				</v:userDefs>
				<v:textBlock v:margins="rect(4,4,4,4)" v:tabSpace="42.5197"/>
				<v:textRect cx="31.8898" cy="275.938" width="63.78" height="28.3465"/>
				<g id="shadow14-53" v:groupContext="shadow" v:shadowOffsetX="0.345598" v:shadowOffsetY="-1.97279" v:shadowType="1"
						transform="matrix(1,0,0,1,0.345598,1.97279)" class="st1">
					<path d="M0 272.39 L0 262.47 a0.708661 0.708661 0 0 1 0.708661 -0.708661 L23.92 261.76 L31.89 261.76 L39.86 261.76
								 L63.07 261.76 a0.708661 0.708661 0 0 1 0.708661 0.708661 L63.78 272.39 L63.78 275.94 L63.78 279.48
								 L63.78 289.4 a0.708661 0.708661 0 0 1 -0.708661 0.708661 L39.99 290.11 a0.708661 0.708661 -180 0
								 0 -0.254293 0.0471964 L-9.52 309.1 a0.708661 0.708661 0 0 1 -0.581297 -1.29017 L21.35 291.45 a0.708661
								 0.708661 -180 0 0 -0.327004 -1.33737 L0.71 290.11 a0.708661 0.708661 0 0 1 -0.708661 -0.708661 L0
								 279.48 L0 275.94 L0 272.39 Z" class="st13"/>
				</g>
				<path d="M0 272.39 L0 262.47 a0.708661 0.708661 0 0 1 0.708661 -0.708661 L23.92 261.76 L31.89 261.76 L39.86 261.76
							 L63.07 261.76 a0.708661 0.708661 0 0 1 0.708661 0.708661 L63.78 272.39 L63.78 275.94 L63.78 279.48 L63.78
							 289.4 a0.708661 0.708661 0 0 1 -0.708661 0.708661 L39.99 290.11 a0.708661 0.708661 -180 0 0 -0.254293
							 0.0471964 L-9.52 309.1 a0.708661 0.708661 0 0 1 -0.581297 -1.29017 L21.35 291.45 a0.708661 0.708661
							 -180 0 0 -0.327004 -1.33737 L0.71 290.11 a0.708661 0.708661 0 0 1 -0.708661 -0.708661 L0 279.48 L0 275.94
							 L0 272.39 Z" class="st14"/>
				<text x="0.333em 1.549em 2.766em 3.982em" y="271.64" class="st17" v:langID="2052"><v:paragraph v:horizAlign="3"/><v:tabList/>在该线以<tspan
							x="0.333em 1.333em 2.333em" dy="1.287em" class="st12">上返回</tspan><tspan x="3.333em 3.611em 3.944em 4.444em"
							dy="0em" class="st16">true</tspan></text>			</g>
			<g id="shape15-60" v:mID="15" v:groupContext="shape" transform="translate(424.913,-198.425)">
				<title>二维文字提示框.15</title>
				<desc>该线以下返回false</desc>
				<v:userDefs>
					<v:ud v:nameU="Scale" v:val="VT0(1):26"/>
					<v:ud v:nameU="AntiScale" v:val="VT0(1):26"/>
					<v:ud v:nameU="visVersion" v:val="VT0(15):26"/>
				</v:userDefs>
				<v:textBlock v:margins="rect(4,4,4,4)" v:tabSpace="42.5197"/>
				<v:textRect cx="54.9213" cy="283.024" width="109.85" height="14.1732"/>
				<g id="shadow15-61" v:groupContext="shadow" v:shadowOffsetX="0.345598" v:shadowOffsetY="-1.97279" v:shadowType="1"
						transform="matrix(1,0,0,1,0.345598,1.97279)" class="st1">
					<path d="M0 281.25 L0 276.65 a0.708661 0.708661 0 0 1 0.708661 -0.708661 L31.93 275.94 a0.708661 0.708661 -180
								 0 0 0.107852 -1.40907 L11.37 271.35 a0.708661 0.708661 0 0 1 0.181873 -1.40519 L68.61 275.93 a0.708661
								 0.708661 -180 0 0 0.0740205 0.00387637 L109.13 275.94 a0.708661 0.708661 0 0 1 0.708661 0.708661
								 L109.84 281.25 L109.84 283.02 L109.84 284.8 L109.84 289.4 a0.708661 0.708661 0 0 1 -0.708661 0.708661
								 L68.65 290.11 L54.92 290.11 L41.19 290.11 L0.71 290.11 a0.708661 0.708661 0 0 1 -0.708661 -0.708661
								 L0 284.8 L0 283.02 L0 281.25 Z" class="st13"/>
				</g>
				<path d="M0 281.25 L0 276.65 a0.708661 0.708661 0 0 1 0.708661 -0.708661 L31.93 275.94 a0.708661 0.708661 -180 0
							 0 0.107852 -1.40907 L11.37 271.35 a0.708661 0.708661 0 0 1 0.181873 -1.40519 L68.61 275.93 a0.708661
							 0.708661 -180 0 0 0.0740205 0.00387637 L109.13 275.94 a0.708661 0.708661 0 0 1 0.708661 0.708661 L109.84
							 281.25 L109.84 283.02 L109.84 284.8 L109.84 289.4 a0.708661 0.708661 0 0 1 -0.708661 0.708661 L68.65
							 290.11 L54.92 290.11 L41.19 290.11 L0.71 290.11 a0.708661 0.708661 0 0 1 -0.708661 -0.708661 L0 284.8
							 L0 283.02 L0 281.25 Z" class="st14"/>
				<text x="0.333em 1.333em 2.333em 3.333em 4.333em 5.333em" y="286.97" class="st17" v:langID="2052"><v:paragraph
							v:horizAlign="3"/><v:tabList/>该线以下返回<tspan x="6.333em 6.666em 7.11em 7.388em 7.777em" dy="0em"
							class="st16">false</tspan></text>			</g>
			<g id="shape16-67" v:mID="16" v:groupContext="shape" transform="translate(35.1496,-120.472)">
				<title>工作表.16</title>
				<desc>watermark value</desc>
				<v:textBlock v:margins="rect(4,4,4,4)" v:tabSpace="42.5197"/>
				<v:textRect cx="31.8898" cy="279.481" width="63.78" height="21.2598"/>
				<rect x="0" y="268.851" width="63.7795" height="21.2598" class="st4"/>
				<text x="6.24" y="275.88" class="st18" v:langID="2052"><v:paragraph v:horizAlign="1"/><v:tabList/>watermark <tspan
							x="18.9" dy="1.2em" class="st12">value</tspan></text>			</g>
			<g id="shape17-71" v:mID="17" v:groupContext="shape" transform="translate(-7.99361E-15,-28.3465)">
				<title>工作表.17</title>
				<desc>lowmem_reserve[]</desc>
				<v:textBlock v:margins="rect(4,4,4,4)" v:tabSpace="42.5197"/>
				<v:textRect cx="49.4646" cy="283.024" width="98.93" height="14.1732"/>
				<rect x="0" y="275.938" width="98.9291" height="14.1732" class="st4"/>
				<text x="4.15" y="286.62" class="st18" v:langID="2052"><v:paragraph v:horizAlign="1"/><v:tabList/>lowmem_reserve[]</text>			</g>
			<g id="shape18-74" v:mID="18" v:groupContext="shape" transform="translate(116.646,-255.118)">
				<title>工作表.18</title>
				<desc>order = 0 movable 类型</desc>
				<v:textBlock v:margins="rect(4,4,4,4)" v:tabSpace="42.5197"/>
				<v:textRect cx="42.5197" cy="275.938" width="85.04" height="28.3465"/>
				<rect x="0" y="261.764" width="85.0394" height="28.3465" class="st4"/>
				<text x="20.48" y="271.64" class="st18" v:langID="2052"><v:paragraph v:horizAlign="1"/><v:tabList/>order = 0<v:newlineChar/><tspan
							x="8.36" dy="1.287em" class="st12">movable </tspan><tspan class="st19">类型</tspan></text>			</g>
			<g id="shape19-79" v:mID="19" v:groupContext="shape" transform="translate(318.614,-255.118)">
				<title>工作表.19</title>
				<desc>order = 0 unmovable 类型</desc>
				<v:textBlock v:margins="rect(4,4,4,4)" v:tabSpace="42.5197"/>
				<v:textRect cx="46.063" cy="275.938" width="92.13" height="28.3465"/>
				<rect x="0" y="261.764" width="92.126" height="28.3465" class="st4"/>
				<text x="24.02" y="271.64" class="st18" v:langID="2052"><v:paragraph v:horizAlign="1"/><v:tabList/>order = 0<v:newlineChar/><tspan
							x="5.9" dy="1.287em" class="st12">unmovable </tspan><tspan class="st19">类型</tspan></text>			</g>
			<g id="shape6-84" v:mID="6" v:groupContext="shape" transform="translate(95.3858,-184.252)">
				<title>工作表.6</title>
				<path d="M0 290.11 L340.16 290.11" class="st6"/>
			</g>
			<g id="shape21-87" v:mID="21" v:groupContext="shape" transform="translate(322.157,-219.685)">
				<title>矩形.21</title>
				<v:userDefs>
					<v:ud v:nameU="visVersion" v:val="VT0(15):26"/>
				</v:userDefs>
				<g id="shadow21-88" v:groupContext="shadow" v:shadowOffsetX="0.345598" v:shadowOffsetY="-1.97279" v:shadowType="1"
						transform="matrix(1,0,0,1,0.345598,1.97279)" class="st1">
					<rect x="0" y="261.764" width="85.0394" height="28.3465" rx="1.41732" ry="1.41732" class="st2"/>
				</g>
				<rect x="0" y="261.764" width="85.0394" height="28.3465" rx="1.41732" ry="1.41732" class="st3"/>
			</g>
			<g id="shape23-92" v:mID="23" v:groupContext="shape" transform="translate(293.811,-219.685)">
				<title>工作表.23</title>
				<path d="M0 290.11 L141.73 290.11" class="st6"/>
			</g>
		</g>
	</g>
</svg>
