<?xml version="1.0" encoding="UTF-8" standalone="no"?>
<!DOCTYPE svg PUBLIC "-//W3C//DTD SVG 1.1//EN" "http://www.w3.org/Graphics/SVG/1.1/DTD/svg11.dtd">
<!-- 由 Microsoft Visio, SVG Export 生成 pcp-0.svg 页-1 -->
<svg xmlns="http://www.w3.org/2000/svg" xmlns:xlink="http://www.w3.org/1999/xlink" xmlns:ev="http://www.w3.org/2001/xml-events"
		xmlns:v="http://schemas.microsoft.com/visio/2003/SVGExtensions/" width="7.57407in" height="3.63706in"
		viewBox="0 0 545.333 261.868" xml:space="preserve" color-interpolation-filters="sRGB" class="st21">
	<v:documentProperties v:langID="2052" v:metric="true" v:viewMarkup="false"/>

	<style type="text/css">
	<![CDATA[
		.st1 {visibility:visible}
		.st2 {fill:#5b9bd5;fill-opacity:0.22;filter:url(#filter_2);stroke:#5b9bd5;stroke-opacity:0.22}
		.st3 {fill:#f7cbac;stroke:#000000;stroke-width:0.5}
		.st4 {fill:#000000;font-family:Times New Roman;font-size:1.00001em}
		.st5 {fill:#ffc000;stroke:#000000;stroke-width:0.5}
		.st6 {fill:#000000;font-family:Times New Roman;font-size:0.833336em}
		.st7 {fill:#00b0f0;stroke:#000000;stroke-width:0.5}
		.st8 {font-size:1em}
		.st9 {fill:#00b0f0;font-size:1em}
		.st10 {fill:#fee599;stroke:#000000;stroke-width:0.5}
		.st11 {fill:url(#grad1-128);stroke:#000000;stroke-dasharray:3.5,2.5;stroke-width:0.5}
		.st12 {fill:url(#grad1-132);stroke:#000000;stroke-dasharray:3.5,2.5;stroke-width:0.5}
		.st13 {marker-end:url(#mrkr3-138);stroke:#000000;stroke-linecap:round;stroke-linejoin:round;stroke-width:0.75}
		.st14 {fill:#000000;fill-opacity:1;stroke:#000000;stroke-opacity:1;stroke-width:0.22935779816514}
		.st15 {fill:#5b9bd5;fill-opacity:0.22;filter:url(#filter_2);stroke:#5b9bd5;stroke-dasharray:0.75,1.5;stroke-opacity:0.22}
		.st16 {fill:#f2f2f2;stroke:#0070c0;stroke-dasharray:0.75,1.5;stroke-width:0.75}
		.st17 {fill:#000000;font-family:宋体;font-size:0.833336em}
		.st18 {font-family:Times New Roman;font-size:1em}
		.st19 {fill:none;stroke:none;stroke-width:0.25}
		.st20 {fill:#00b0f0;font-family:Times New Roman;font-size:0.833336em}
		.st21 {fill:none;fill-rule:evenodd;font-size:12px;overflow:visible;stroke-linecap:square;stroke-miterlimit:3}
	]]>
	</style>

	<defs id="Patterns_And_Gradients">
		<radialGradient id="grad1-128" cx="1" cy="1" r="1.4">
			<stop offset="0" stop-color="#ffc000" stop-opacity="0"/>
			<stop offset="1" stop-color="#ffffff" stop-opacity="1"/>
		</radialGradient>
		<radialGradient id="grad1-132" cx="1" cy="1" r="1.4">
			<stop offset="0" stop-color="#00b0f0" stop-opacity="0"/>
			<stop offset="1" stop-color="#ffffff" stop-opacity="1"/>
		</radialGradient>
	</defs>
	<defs id="Markers">
		<g id="lend3">
			<path d="M 2 1 L 0 0 L 2 -1 " style="stroke-linecap:round;stroke-linejoin:round;fill:none"/>
		</g>
		<marker id="mrkr3-138" class="st14" v:arrowType="3" v:arrowSize="2" orient="auto" markerUnits="strokeWidth"
				overflow="visible">
			<use xlink:href="#lend3" transform="scale(-4.36,-4.36) "/>
		</marker>
	</defs>
	<defs id="Filters">
		<filter id="filter_2">
			<feGaussianBlur stdDeviation="2"/>
		</filter>
	</defs>
	<g v:mID="0" v:index="1" v:groupContext="foregroundPage">
		<title>页-1</title>
		<v:pageProperties v:drawingScale="0.0393701" v:pageScale="0.0393701" v:drawingUnits="24" v:shadowOffsetX="8.50394"
				v:shadowOffsetY="-8.50394"/>
		<v:layer v:name="连接线" v:index="0"/>
		<g id="group40-1" transform="translate(3.0294,-5.3478)" v:mID="40" v:groupContext="group">
			<title>工作表.40</title>
			<g id="shape2-2" v:mID="2" v:groupContext="shape" transform="translate(162.992,-141.732)">
				<title>矩形.2</title>
				<desc>ZONE_NORMAL</desc>
				<v:userDefs>
					<v:ud v:nameU="visVersion" v:val="VT0(15):26"/>
				</v:userDefs>
				<v:textBlock v:margins="rect(4,4,4,4)" v:tabSpace="42.5197"/>
				<v:textRect cx="70.8661" cy="229.978" width="141.74" height="63.7795"/>
				<g id="shadow2-3" v:groupContext="shadow" v:shadowOffsetX="0.345598" v:shadowOffsetY="-1.97279" v:shadowType="1"
						transform="matrix(1,0,0,1,0.345598,1.97279)" class="st1">
					<rect x="0" y="198.089" width="141.732" height="63.7795" rx="1.41732" ry="1.41732" class="st2"/>
				</g>
				<rect x="0" y="198.089" width="141.732" height="63.7795" rx="1.41732" ry="1.41732" class="st3"/>
				<text x="25.87" y="233.58" class="st4" v:langID="2052"><v:paragraph v:horizAlign="1"/><v:tabList/>ZONE_NORMAL</text>			</g>
			<g id="shape1-8" v:mID="1" v:groupContext="shape" transform="translate(-1.59872E-14,-85.0394)">
				<title>矩形.15</title>
				<desc>Zone Allocator</desc>
				<v:userDefs>
					<v:ud v:nameU="visVersion" v:val="VT0(15):26"/>
				</v:userDefs>
				<v:textBlock v:margins="rect(4,4,4,4)" v:tabSpace="42.5197"/>
				<v:textRect cx="46.063" cy="244.152" width="92.13" height="35.4331"/>
				<g id="shadow1-9" v:groupContext="shadow" v:shadowOffsetX="0.345598" v:shadowOffsetY="-1.97279" v:shadowType="1"
						transform="matrix(1,0,0,1,0.345598,1.97279)" class="st1">
					<rect x="0" y="226.435" width="92.126" height="35.4331" rx="1.41732" ry="1.41732" class="st2"/>
				</g>
				<rect x="0" y="226.435" width="92.126" height="35.4331" rx="1.41732" ry="1.41732" class="st3"/>
				<text x="9.58" y="247.75" class="st4" v:langID="2052"><v:paragraph v:horizAlign="1"/><v:tabList/>Zone Allocator</text>			</g>
			<g id="shape4-14" v:mID="4" v:groupContext="shape" transform="translate(170.079,-184.252)">
				<title>矩形.23</title>
				<desc>Buddy Allocator</desc>
				<v:userDefs>
					<v:ud v:nameU="visVersion" v:val="VT0(15):26"/>
				</v:userDefs>
				<v:textBlock v:margins="rect(4,4,4,4)" v:tabSpace="42.5197"/>
				<v:textRect cx="63.7795" cy="254.781" width="127.56" height="14.1732"/>
				<g id="shadow4-15" v:groupContext="shadow" v:shadowOffsetX="0.345598" v:shadowOffsetY="-1.97279" v:shadowType="1"
						transform="matrix(1,0,0,1,0.345598,1.97279)" class="st1">
					<rect x="0" y="247.695" width="127.559" height="14.1732" rx="1.41732" ry="1.41732" class="st2"/>
				</g>
				<rect x="0" y="247.695" width="127.559" height="14.1732" rx="1.41732" ry="1.41732" class="st5"/>
				<text x="30.31" y="257.78" class="st6" v:langID="2052"><v:paragraph v:horizAlign="1"/><v:tabList/>Buddy Allocator</text>			</g>
			<g id="shape5-20" v:mID="5" v:groupContext="shape" transform="translate(170.079,-148.819)">
				<title>矩形.5</title>
				<desc>Per-CPU Page Frame Cache</desc>
				<v:userDefs>
					<v:ud v:nameU="visVersion" v:val="VT0(15):26"/>
				</v:userDefs>
				<v:textBlock v:margins="rect(4,4,4,4)" v:tabSpace="42.5197"/>
				<v:textRect cx="63.7795" cy="254.781" width="127.56" height="14.1732"/>
				<g id="shadow5-21" v:groupContext="shadow" v:shadowOffsetX="0.345598" v:shadowOffsetY="-1.97279" v:shadowType="1"
						transform="matrix(1,0,0,1,0.345598,1.97279)" class="st1">
					<rect x="0" y="247.695" width="127.559" height="14.1732" rx="1.41732" ry="1.41732" class="st2"/>
				</g>
				<rect x="0" y="247.695" width="127.559" height="14.1732" rx="1.41732" ry="1.41732" class="st7"/>
				<text x="6.99" y="257.78" class="st6" v:langID="2052"><v:paragraph v:horizAlign="1"/><v:tabList/>Per-CPU Page Frame Cache</text>			</g>
			<g id="shape9-26" v:mID="9" v:groupContext="shape" transform="translate(368.504,-170.079)">
				<title>矩形.9</title>
				<desc>free_list[MIGRATE_UNMOVABLE]</desc>
				<v:userDefs>
					<v:ud v:nameU="visVersion" v:val="VT0(15):26"/>
				</v:userDefs>
				<v:textBlock v:margins="rect(4,4,4,4)" v:tabSpace="42.5197"/>
				<v:textRect cx="85.0394" cy="254.781" width="170.08" height="14.1732"/>
				<g id="shadow9-27" v:groupContext="shadow" v:shadowOffsetX="0.345598" v:shadowOffsetY="-1.97279" v:shadowType="1"
						transform="matrix(1,0,0,1,0.345598,1.97279)" class="st1">
					<rect x="0" y="247.695" width="170.079" height="14.1732" rx="1.41732" ry="1.41732" class="st2"/>
				</g>
				<rect x="0" y="247.695" width="170.079" height="14.1732" rx="1.41732" ry="1.41732" class="st5"/>
				<text x="4" y="257.78" class="st6" v:langID="2052"><v:paragraph/><v:tabList/>free_list[<tspan class="st8"
							v:langID="1033">MIGRATE</tspan><tspan class="st8" v:langID="1033">_</tspan><tspan class="st8"
							v:langID="1033">UNMOVABLE</tspan>]</text>			</g>
			<g id="shape10-35" v:mID="10" v:groupContext="shape" transform="translate(368.504,-184.252)">
				<title>矩形.10</title>
				<desc>free_list[MIGRATE_MOVABLE]</desc>
				<v:userDefs>
					<v:ud v:nameU="visVersion" v:val="VT0(15):26"/>
				</v:userDefs>
				<v:textBlock v:margins="rect(4,4,4,4)" v:tabSpace="42.5197"/>
				<v:textRect cx="85.0394" cy="254.781" width="170.08" height="14.1732"/>
				<g id="shadow10-36" v:groupContext="shadow" v:shadowOffsetX="0.345598" v:shadowOffsetY="-1.97279" v:shadowType="1"
						transform="matrix(1,0,0,1,0.345598,1.97279)" class="st1">
					<rect x="0" y="247.695" width="170.079" height="14.1732" rx="1.41732" ry="1.41732" class="st2"/>
				</g>
				<rect x="0" y="247.695" width="170.079" height="14.1732" rx="1.41732" ry="1.41732" class="st5"/>
				<text x="4" y="257.78" class="st6" v:langID="2052"><v:paragraph/><v:tabList/>free_list[<tspan class="st8"
							v:langID="1033">MIGRATE</tspan><tspan class="st8" v:langID="1033">_</tspan><tspan class="st8"
							v:langID="1033">MOVABLE</tspan>]</text>			</g>
			<g id="shape11-44" v:mID="11" v:groupContext="shape" transform="translate(368.504,-198.425)">
				<title>矩形.11</title>
				<desc>free_list[MIGRATE_RECLAIMABLE]</desc>
				<v:userDefs>
					<v:ud v:nameU="visVersion" v:val="VT0(15):26"/>
				</v:userDefs>
				<v:textBlock v:margins="rect(4,4,4,4)" v:tabSpace="42.5197"/>
				<v:textRect cx="85.0394" cy="254.781" width="170.08" height="14.1732"/>
				<g id="shadow11-45" v:groupContext="shadow" v:shadowOffsetX="0.345598" v:shadowOffsetY="-1.97279" v:shadowType="1"
						transform="matrix(1,0,0,1,0.345598,1.97279)" class="st1">
					<rect x="0" y="247.695" width="170.079" height="14.1732" rx="1.41732" ry="1.41732" class="st2"/>
				</g>
				<rect x="0" y="247.695" width="170.079" height="14.1732" rx="1.41732" ry="1.41732" class="st5"/>
				<text x="4" y="257.78" class="st6" v:langID="2052"><v:paragraph/><v:tabList/>free_list[<tspan class="st8"
							v:langID="1033">MIGRATE</tspan><tspan class="st8" v:langID="1033">_</tspan><tspan class="st8"
							v:langID="1033">RECLAIMABLE</tspan>]</text>			</g>
			<g id="shape12-53" v:mID="12" v:groupContext="shape" transform="translate(368.504,-212.598)">
				<title>矩形.12</title>
				<desc>free_list[MIGRATE_HIGHATOMIC]</desc>
				<v:userDefs>
					<v:ud v:nameU="visVersion" v:val="VT0(15):26"/>
				</v:userDefs>
				<v:textBlock v:margins="rect(4,4,4,4)" v:tabSpace="42.5197"/>
				<v:textRect cx="85.0394" cy="254.781" width="170.08" height="14.1732"/>
				<g id="shadow12-54" v:groupContext="shadow" v:shadowOffsetX="0.345598" v:shadowOffsetY="-1.97279" v:shadowType="1"
						transform="matrix(1,0,0,1,0.345598,1.97279)" class="st1">
					<rect x="0" y="247.695" width="170.079" height="14.1732" rx="1.41732" ry="1.41732" class="st2"/>
				</g>
				<rect x="0" y="247.695" width="170.079" height="14.1732" rx="1.41732" ry="1.41732" class="st5"/>
				<text x="4" y="257.78" class="st6" v:langID="2052"><v:paragraph/><v:tabList/>free_list[<tspan class="st8"
							v:langID="1033">MIGRATE</tspan><tspan class="st8" v:langID="1033">_</tspan><tspan class="st8"
							v:langID="1033">HIGHATOMIC</tspan>]</text>			</g>
			<g id="shape13-62" v:mID="13" v:groupContext="shape" transform="translate(368.504,-240.945)">
				<title>Rectangle.23</title>
				<desc>free_list[MIGRATE_ISOLATE]</desc>
				<v:userDefs>
					<v:ud v:nameU="visVersion" v:val="VT0(15):26"/>
				</v:userDefs>
				<v:textBlock v:margins="rect(4,4,4,4)" v:tabSpace="42.5197"/>
				<v:textRect cx="85.0394" cy="254.781" width="170.08" height="14.1732"/>
				<g id="shadow13-63" v:groupContext="shadow" v:shadowOffsetX="0.345598" v:shadowOffsetY="-1.97279" v:shadowType="1"
						transform="matrix(1,0,0,1,0.345598,1.97279)" class="st1">
					<rect x="0" y="247.695" width="170.079" height="14.1732" rx="1.41732" ry="1.41732" class="st2"/>
				</g>
				<rect x="0" y="247.695" width="170.079" height="14.1732" rx="1.41732" ry="1.41732" class="st5"/>
				<text x="4" y="257.78" class="st6" v:langID="2052"><v:paragraph/><v:tabList/>free_list[<tspan class="st9"
							v:langID="1033">MIGRATE</tspan><tspan class="st9" v:langID="1033">_</tspan><tspan class="st9"
							v:langID="1033">ISOLATE</tspan>]</text>			</g>
			<g id="shape14-71" v:mID="14" v:groupContext="shape" transform="translate(368.504,-226.772)">
				<title>矩形.17</title>
				<desc>free_list[MIGRATE_CMA]</desc>
				<v:userDefs>
					<v:ud v:nameU="visVersion" v:val="VT0(15):26"/>
				</v:userDefs>
				<v:textBlock v:margins="rect(4,4,4,4)" v:tabSpace="42.5197"/>
				<v:textRect cx="85.0394" cy="254.781" width="170.08" height="14.1732"/>
				<g id="shadow14-72" v:groupContext="shadow" v:shadowOffsetX="0.345598" v:shadowOffsetY="-1.97279" v:shadowType="1"
						transform="matrix(1,0,0,1,0.345598,1.97279)" class="st1">
					<rect x="0" y="247.695" width="170.079" height="14.1732" rx="1.41732" ry="1.41732" class="st2"/>
				</g>
				<rect x="0" y="247.695" width="170.079" height="14.1732" rx="1.41732" ry="1.41732" class="st5"/>
				<text x="4" y="257.78" class="st6" v:langID="2052"><v:paragraph/><v:tabList/>free_list[<tspan class="st9"
							v:langID="1033">MIGRATE</tspan><tspan class="st9" v:langID="1033">_</tspan><tspan class="st9"
							v:langID="1033">CMA</tspan>]</text>			</g>
			<g id="shape21-80" v:mID="21" v:groupContext="shape" transform="translate(162.992,0)">
				<title>矩形.21</title>
				<desc>ZONE_DMA32</desc>
				<v:userDefs>
					<v:ud v:nameU="visVersion" v:val="VT0(15):26"/>
				</v:userDefs>
				<v:textBlock v:margins="rect(4,4,4,4)" v:tabSpace="42.5197"/>
				<v:textRect cx="74.4094" cy="229.978" width="148.82" height="63.7795"/>
				<g id="shadow21-81" v:groupContext="shadow" v:shadowOffsetX="0.345598" v:shadowOffsetY="-1.97279" v:shadowType="1"
						transform="matrix(1,0,0,1,0.345598,1.97279)" class="st1">
					<rect x="0" y="198.089" width="148.819" height="63.7795" rx="1.41732" ry="1.41732" class="st2"/>
				</g>
				<rect x="0" y="198.089" width="148.819" height="63.7795" rx="1.41732" ry="1.41732" class="st3"/>
				<text x="35.41" y="233.58" class="st4" v:langID="2052"><v:paragraph v:horizAlign="1"/><v:tabList/>ZONE_DMA32</text>			</g>
			<g id="shape22-86" v:mID="22" v:groupContext="shape" transform="translate(170.079,-42.5197)">
				<title>矩形.22</title>
				<desc>Buddy Allocator</desc>
				<v:userDefs>
					<v:ud v:nameU="visVersion" v:val="VT0(15):26"/>
				</v:userDefs>
				<v:textBlock v:margins="rect(4,4,4,4)" v:tabSpace="42.5197"/>
				<v:textRect cx="67.3228" cy="254.781" width="134.65" height="14.1732"/>
				<g id="shadow22-87" v:groupContext="shadow" v:shadowOffsetX="0.345598" v:shadowOffsetY="-1.97279" v:shadowType="1"
						transform="matrix(1,0,0,1,0.345598,1.97279)" class="st1">
					<rect x="0" y="247.695" width="134.646" height="14.1732" rx="1.41732" ry="1.41732" class="st2"/>
				</g>
				<rect x="0" y="247.695" width="134.646" height="14.1732" rx="1.41732" ry="1.41732" class="st10"/>
				<text x="33.86" y="257.78" class="st6" v:langID="2052"><v:paragraph v:horizAlign="1"/><v:tabList/>Buddy Allocator</text>			</g>
			<g id="shape23-92" v:mID="23" v:groupContext="shape" transform="translate(170.079,-7.08661)">
				<title>矩形.23</title>
				<desc>Per-CPU Page Frame Cache</desc>
				<v:userDefs>
					<v:ud v:nameU="visVersion" v:val="VT0(15):26"/>
				</v:userDefs>
				<v:textBlock v:margins="rect(4,4,4,4)" v:tabSpace="42.5197"/>
				<v:textRect cx="67.3228" cy="254.781" width="134.65" height="14.1732"/>
				<g id="shadow23-93" v:groupContext="shadow" v:shadowOffsetX="0.345598" v:shadowOffsetY="-1.97279" v:shadowType="1"
						transform="matrix(1,0,0,1,0.345598,1.97279)" class="st1">
					<rect x="0" y="247.695" width="134.646" height="14.1732" rx="1.41732" ry="1.41732" class="st2"/>
				</g>
				<rect x="0" y="247.695" width="134.646" height="14.1732" rx="1.41732" ry="1.41732" class="st7"/>
				<text x="10.53" y="257.78" class="st6" v:langID="2052"><v:paragraph v:horizAlign="1"/><v:tabList/>Per-CPU Page Frame Cache</text>			</g>
			<g id="shape24-98" v:mID="24" v:groupContext="shape" transform="translate(368.504,-99.2126)">
				<title>矩形.24</title>
				<desc>free_list[MIGRATE_UNMOVABLE]</desc>
				<v:userDefs>
					<v:ud v:nameU="visVersion" v:val="VT0(15):26"/>
				</v:userDefs>
				<v:textBlock v:margins="rect(4,4,4,4)" v:tabSpace="42.5197"/>
				<v:textRect cx="85.0394" cy="254.781" width="170.08" height="14.1732"/>
				<g id="shadow24-99" v:groupContext="shadow" v:shadowOffsetX="0.345598" v:shadowOffsetY="-1.97279" v:shadowType="1"
						transform="matrix(1,0,0,1,0.345598,1.97279)" class="st1">
					<rect x="0" y="247.695" width="170.079" height="14.1732" rx="1.41732" ry="1.41732" class="st2"/>
				</g>
				<rect x="0" y="247.695" width="170.079" height="14.1732" rx="1.41732" ry="1.41732" class="st7"/>
				<text x="4" y="257.78" class="st6" v:langID="2052"><v:paragraph/><v:tabList/>free_list[<tspan class="st8"
							v:langID="1033">MIGRATE</tspan><tspan class="st8" v:langID="1033">_</tspan><tspan class="st8"
							v:langID="1033">UNMOVABLE</tspan>]</text>			</g>
			<g id="shape25-107" v:mID="25" v:groupContext="shape" transform="translate(368.504,-113.386)">
				<title>矩形.25</title>
				<desc>free_list[MIGRATE_MOVABLE]</desc>
				<v:userDefs>
					<v:ud v:nameU="visVersion" v:val="VT0(15):26"/>
				</v:userDefs>
				<v:textBlock v:margins="rect(4,4,4,4)" v:tabSpace="42.5197"/>
				<v:textRect cx="85.0394" cy="254.781" width="170.08" height="14.1732"/>
				<g id="shadow25-108" v:groupContext="shadow" v:shadowOffsetX="0.345598" v:shadowOffsetY="-1.97279" v:shadowType="1"
						transform="matrix(1,0,0,1,0.345598,1.97279)" class="st1">
					<rect x="0" y="247.695" width="170.079" height="14.1732" rx="1.41732" ry="1.41732" class="st2"/>
				</g>
				<rect x="0" y="247.695" width="170.079" height="14.1732" rx="1.41732" ry="1.41732" class="st7"/>
				<text x="4" y="257.78" class="st6" v:langID="2052"><v:paragraph/><v:tabList/>free_list[<tspan class="st8"
							v:langID="1033">MIGRATE</tspan><tspan class="st8" v:langID="1033">_</tspan><tspan class="st8"
							v:langID="1033">MOVABLE</tspan>]</text>			</g>
			<g id="shape26-116" v:mID="26" v:groupContext="shape" transform="translate(368.504,-127.559)">
				<title>矩形.26</title>
				<desc>free_list[MIGRATE_RECLAIMABLE]</desc>
				<v:userDefs>
					<v:ud v:nameU="visVersion" v:val="VT0(15):26"/>
				</v:userDefs>
				<v:textBlock v:margins="rect(4,4,4,4)" v:tabSpace="42.5197"/>
				<v:textRect cx="85.0394" cy="254.781" width="170.08" height="14.1732"/>
				<g id="shadow26-117" v:groupContext="shadow" v:shadowOffsetX="0.345598" v:shadowOffsetY="-1.97279" v:shadowType="1"
						transform="matrix(1,0,0,1,0.345598,1.97279)" class="st1">
					<rect x="0" y="247.695" width="170.079" height="14.1732" rx="1.41732" ry="1.41732" class="st2"/>
				</g>
				<rect x="0" y="247.695" width="170.079" height="14.1732" rx="1.41732" ry="1.41732" class="st7"/>
				<text x="4" y="257.78" class="st6" v:langID="2052"><v:paragraph/><v:tabList/>free_list[<tspan class="st8"
							v:langID="1033">MIGRATE</tspan><tspan class="st8" v:langID="1033">_</tspan><tspan class="st8"
							v:langID="1033">RECLAIMABLE</tspan>]</text>			</g>
			<g id="shape27-125" v:mID="27" v:groupContext="shape" transform="translate(297.638,-170.079)">
				<title>工作表.27</title>
				<path d="M0 234.2 L0 246.53 A1.41732 1.41732 -180 0 0 1.14 247.92 L69.17 261.53 A1.41732 1.41732 -180 0 0 70.87 260.14
							 L70.87 179.78 A1.41732 1.41732 -180 0 0 68.56 178.67 L0.53 233.1 A1.41732 1.41732 -180 0 0 -0 234.2
							 Z" class="st11"/>
			</g>
			<g id="shape28-129" v:mID="28" v:groupContext="shape" transform="translate(297.638,-99.2126)">
				<title>工作表.28</title>
				<path d="M0 199.99 L0 211.52 A1.41732 1.41732 -180 0 0 0.6 212.68 L68.64 260.31 A1.41732 1.41732 -180 0 0 70.87 259.15
							 L70.87 220.4 A1.41732 1.41732 -180 0 0 69.86 219.05 L1.82 198.64 A1.41732 1.41732 -180 0 0 -0 199.99
							 Z" class="st12"/>
			</g>
			<g id="shape30-133" v:mID="30" v:groupContext="shape" v:layerMember="0"
					transform="translate(288.714,332.11) rotate(-48.6522) scale(1,-1)">
				<title>波浪连接线 1.33</title>
				<v:userDefs>
					<v:ud v:nameU="Scale" v:val="VT0(1):26"/>
					<v:ud v:nameU="AntiScale" v:val="VT0(1):26"/>
					<v:ud v:nameU="visVersion" v:val="VT0(15):26"/>
				</v:userDefs>
				<path d="M0 261.87 C56.71 245.19 58.92 294.26 118 261.87" class="st13"/>
			</g>
			<g id="shape31-139" v:mID="31" v:groupContext="shape" v:layerMember="0"
					transform="translate(239.646,375.475) rotate(-34.2869) scale(1,-1)">
				<title>波浪连接线 1.31</title>
				<v:userDefs>
					<v:ud v:nameU="Scale" v:val="VT0(1):26"/>
					<v:ud v:nameU="AntiScale" v:val="VT0(1):26"/>
					<v:ud v:nameU="visVersion" v:val="VT0(15):26"/>
				</v:userDefs>
				<path d="M0 261.87 C61.99 250.05 47.73 277.36 94.35 261.87" class="st13"/>
			</g>
			<g id="shape34-144" v:mID="34" v:groupContext="shape" v:layerMember="0"
					transform="translate(288.714,-13.8852) rotate(48.6522)">
				<title>波浪连接线 1.34</title>
				<v:userDefs>
					<v:ud v:nameU="Scale" v:val="VT0(1):26"/>
					<v:ud v:nameU="AntiScale" v:val="VT0(1):26"/>
					<v:ud v:nameU="visVersion" v:val="VT0(15):26"/>
				</v:userDefs>
				<path d="M0 261.87 C56.71 245.19 58.92 294.26 118 261.87" class="st13"/>
			</g>
			<g id="shape35-149" v:mID="35" v:groupContext="shape" v:layerMember="0"
					transform="translate(239.646,-57.2504) rotate(34.2869)">
				<title>波浪连接线 1.35</title>
				<v:userDefs>
					<v:ud v:nameU="Scale" v:val="VT0(1):26"/>
					<v:ud v:nameU="AntiScale" v:val="VT0(1):26"/>
					<v:ud v:nameU="visVersion" v:val="VT0(15):26"/>
				</v:userDefs>
				<path d="M0 261.87 C61.99 250.05 47.73 277.36 94.35 261.87" class="st13"/>
			</g>
			<g id="shape36-154" v:mID="36" v:groupContext="shape" transform="translate(7.08661,-28.3465)">
				<title>二维文字提示框.44</title>
				<desc>当只请求一个页帧时优先使用PCP缓存</desc>
				<v:userDefs>
					<v:ud v:nameU="Scale" v:val="VT0(1):26"/>
					<v:ud v:nameU="AntiScale" v:val="VT0(1):26"/>
					<v:ud v:nameU="visVersion" v:val="VT0(15):26"/>
				</v:userDefs>
				<v:textBlock v:margins="rect(4,4,4,4)" v:tabSpace="42.5197"/>
				<v:textRect cx="51.378" cy="244.152" width="102.76" height="35.4331"/>
				<g id="shadow36-155" v:groupContext="shadow" v:shadowOffsetX="0.345598" v:shadowOffsetY="-1.97279" v:shadowType="1"
						transform="matrix(1,0,0,1,0.345598,1.97279)" class="st1">
					<path d="M0 239.72 L0 227.14 a0.708661 0.708661 0 0 1 0.708661 -0.708661 L38.53 226.44 L51.38 226.44 L64.22 226.44
								 L102.05 226.44 a0.708661 0.708661 0 0 1 0.708661 0.708661 L102.76 238.1 a0.708661 0.708661 -180
								 0 0 1.19015 0.519969 L115.59 227.84 a0.708661 0.708661 0 0 1 1.0617 0.926851 L102.88 248.4 a0.708661
								 0.708661 -180 0 0 -0.128448 0.406882 L102.76 261.16 a0.708661 0.708661 0 0 1 -0.708661 0.708661
								 L64.22 261.87 L51.38 261.87 L38.53 261.87 L0.71 261.87 a0.708661 0.708661 0 0 1 -0.708661 -0.708661
								 L0 248.58 L0 244.15 L0 239.72 Z" class="st15"/>
				</g>
				<path d="M0 239.72 L0 227.14 a0.708661 0.708661 0 0 1 0.708661 -0.708661 L38.53 226.44 L51.38 226.44 L64.22 226.44
							 L102.05 226.44 a0.708661 0.708661 0 0 1 0.708661 0.708661 L102.76 238.1 a0.708661 0.708661 -180 0 0
							 1.19015 0.519969 L115.59 227.84 a0.708661 0.708661 0 0 1 1.0617 0.926851 L102.88 248.4 a0.708661 0.708661
							 -180 0 0 -0.128448 0.406882 L102.76 261.16 a0.708661 0.708661 0 0 1 -0.708661 0.708661 L64.22 261.87
							 L51.38 261.87 L38.53 261.87 L0.71 261.87 a0.708661 0.708661 0 0 1 -0.708661 -0.708661 L0 248.58 L0 244.15
							 L0 239.72 Z" class="st16"/>
				<text x="4" y="240.57" class="st17" v:langID="2052"><v:paragraph/><v:tabList/>当只请求一个页帧时<tspan x="4" dy="1.287em"
							class="st8">优先使用</tspan><tspan class="st18">PCP</tspan>缓存</text>			</g>
			<g id="shape37-162" v:mID="37" v:groupContext="shape" transform="translate(101.48,-7.08661)">
				<title>工作表.37</title>
				<desc>0-order page</desc>
				<v:textBlock v:margins="rect(4,4,4,4)" v:tabSpace="42.5197"/>
				<v:textRect cx="30.7559" cy="254.781" width="61.52" height="14.1732"/>
				<rect x="0" y="247.695" width="61.5118" height="14.1732" class="st19"/>
				<text x="5.35" y="257.78" class="st20" v:langID="2052"><v:paragraph v:horizAlign="1"/><v:tabList/>0-order page</text>			</g>
			<g id="shape38-165" v:mID="38" v:groupContext="shape" transform="translate(139.323,-127.559)">
				<title>工作表.38</title>
				<desc>0-order page</desc>
				<v:textBlock v:margins="rect(4,4,4,4)" v:tabSpace="42.5197"/>
				<v:textRect cx="30.7559" cy="254.781" width="61.52" height="14.1732"/>
				<rect x="0" y="247.695" width="61.5118" height="14.1732" class="st19"/>
				<text x="5.35" y="257.78" class="st20" v:langID="2052"><v:paragraph v:horizAlign="1"/><v:tabList/>0-order page</text>			</g>
			<g id="shape39-168" v:mID="39" v:groupContext="shape" transform="translate(14.1732,-159.449)">
				<title>二维文字提示框.39</title>
				<desc>如果不是请求一个页帧则不使用PCP缓存</desc>
				<v:userDefs>
					<v:ud v:nameU="Scale" v:val="VT0(1):26"/>
					<v:ud v:nameU="AntiScale" v:val="VT0(1):26"/>
					<v:ud v:nameU="visVersion" v:val="VT0(15):26"/>
				</v:userDefs>
				<v:textBlock v:margins="rect(4,4,4,4)" v:tabSpace="42.5197"/>
				<v:textRect cx="51.378" cy="244.152" width="102.76" height="35.4331"/>
				<g id="shadow39-169" v:groupContext="shadow" v:shadowOffsetX="0.345598" v:shadowOffsetY="-1.97279" v:shadowType="1"
						transform="matrix(1,0,0,1,0.345598,1.97279)" class="st1">
					<path d="M0 239.72 L0 227.14 a0.708661 0.708661 0 0 1 0.708661 -0.708661 L38.53 226.44 L51.38 226.44 L64.22 226.44
								 L102.05 226.44 a0.708661 0.708661 0 0 1 0.708661 0.708661 L102.76 239.47 a0.708661 0.708661 -180
								 0 0 0.156476 0.444176 L116.65 257 a0.708661 0.708661 0 0 1 -0.969988 1.01658 L103.88 249.4 a0.708661
								 0.708661 -180 0 0 -1.12646 0.5724 L102.76 261.16 a0.708661 0.708661 0 0 1 -0.708661 0.708661 L64.22
								 261.87 L51.38 261.87 L38.53 261.87 L0.71 261.87 a0.708661 0.708661 0 0 1 -0.708661 -0.708661 L0
								 248.58 L0 244.15 L0 239.72 Z" class="st15"/>
				</g>
				<path d="M0 239.72 L0 227.14 a0.708661 0.708661 0 0 1 0.708661 -0.708661 L38.53 226.44 L51.38 226.44 L64.22 226.44
							 L102.05 226.44 a0.708661 0.708661 0 0 1 0.708661 0.708661 L102.76 239.47 a0.708661 0.708661 -180 0 0
							 0.156476 0.444176 L116.65 257 a0.708661 0.708661 0 0 1 -0.969988 1.01658 L103.88 249.4 a0.708661 0.708661
							 -180 0 0 -1.12646 0.5724 L102.76 261.16 a0.708661 0.708661 0 0 1 -0.708661 0.708661 L64.22 261.87 L51.38
							 261.87 L38.53 261.87 L0.71 261.87 a0.708661 0.708661 0 0 1 -0.708661 -0.708661 L0 248.58 L0 244.15 L0
							 239.72 Z" class="st16"/>
				<text x="4" y="240.57" class="st17" v:langID="2052"><v:paragraph/><v:tabList/>如果不是请求一个页<tspan x="4" dy="1.287em"
							class="st8">帧则不使用</tspan><tspan class="st18">PCP</tspan>缓存</text>			</g>
		</g>
	</g>
</svg>
