<?xml version="1.0" encoding="UTF-8" standalone="no"?>
<!DOCTYPE svg PUBLIC "-//W3C//DTD SVG 1.1//EN" "http://www.w3.org/Graphics/SVG/1.1/DTD/svg11.dtd">
<!-- 由 Microsoft Visio, SVG Export 生成 all_shceduling_class.svg 页-1 -->
<svg xmlns="http://www.w3.org/2000/svg" xmlns:xlink="http://www.w3.org/1999/xlink" xmlns:ev="http://www.w3.org/2001/xml-events"
		xmlns:v="http://schemas.microsoft.com/visio/2003/SVGExtensions/" width="8.2057in" height="1.98927in"
		viewBox="0 0 590.81 143.227" xml:space="preserve" color-interpolation-filters="sRGB" class="st13">
	<v:documentProperties v:langID="2052" v:metric="true" v:viewMarkup="false"/>

	<style type="text/css">
	<![CDATA[
		.st1 {visibility:visible}
		.st2 {fill:#5b9bd5;fill-opacity:0.22;filter:url(#filter_2);stroke:#5b9bd5;stroke-opacity:0.22}
		.st3 {fill:#fbe5d5;stroke:#c7c8c8;stroke-width:0.25}
		.st4 {fill:#000000;font-family:Consolas;font-size:0.75em}
		.st5 {fill:#595959;stroke:#c7c8c8;stroke-width:0.25}
		.st6 {fill:#ffffff;font-family:Consolas;font-size:0.75em}
		.st7 {marker-end:url(#mrkr5-67);stroke:#000000;stroke-linecap:round;stroke-linejoin:round;stroke-width:0.5}
		.st8 {fill:#000000;fill-opacity:1;stroke:#000000;stroke-opacity:1;stroke-width:0.16556291390728}
		.st9 {fill:none;stroke:none;stroke-width:0.25}
		.st10 {fill:#000000;font-family:Consolas;font-size:0.75em;font-weight:bold}
		.st11 {font-size:1em}
		.st12 {font-size:1em;font-weight:normal}
		.st13 {fill:none;fill-rule:evenodd;font-size:12px;overflow:visible;stroke-linecap:square;stroke-miterlimit:3}
	]]>
	</style>

	<defs id="Markers">
		<g id="lend5">
			<path d="M 2 1 L 0 0 L 1.98117 -0.993387 C 1.67173 -0.364514 1.67301 0.372642 1.98465 1.00043 " style="stroke:none"/>
		</g>
		<marker id="mrkr5-67" class="st8" v:arrowType="5" v:arrowSize="2" v:setback="10.57" refX="-10.57" orient="auto"
				markerUnits="strokeWidth" overflow="visible">
			<use xlink:href="#lend5" transform="scale(-6.04,-6.04) "/>
		</marker>
	</defs>
	<defs id="Filters">
		<filter id="filter_2">
			<feGaussianBlur stdDeviation="2"/>
		</filter>
	</defs>
	<g v:mID="0" v:index="1" v:groupContext="foregroundPage">
		<title>页-1</title>
		<v:pageProperties v:drawingScale="0.0393701" v:pageScale="0.0393701" v:drawingUnits="24" v:shadowOffsetX="8.50394"
				v:shadowOffsetY="-8.50394"/>
		<v:layer v:name="连接线" v:index="0"/>
		<g id="group20-1" transform="translate(0.25,-5.3478)" v:mID="20" v:groupContext="group">
			<title>工作表.20</title>
			<g id="shape1-2" v:mID="1" v:groupContext="shape" transform="translate(5.73726,-5.68434E-014)">
				<title>矩形</title>
				<desc>stop_sched_class</desc>
				<v:userDefs>
					<v:ud v:nameU="visVersion" v:val="VT0(15):26"/>
				</v:userDefs>
				<v:textBlock v:margins="rect(4,4,4,4)" v:tabSpace="42.5197" v:verticalAlign="0"/>
				<v:textRect cx="46.063" cy="121.967" width="92.13" height="42.5197"/>
				<g id="shadow1-3" v:groupContext="shadow" v:shadowOffsetX="0.345598" v:shadowOffsetY="-1.97279" v:shadowType="1"
						transform="matrix(1,0,0,1,0.345598,1.97279)" class="st1">
					<rect x="0" y="100.708" width="92.126" height="42.5197" class="st2"/>
				</g>
				<rect x="0" y="100.708" width="92.126" height="42.5197" class="st3"/>
				<text x="4" y="112.81" class="st4" v:langID="2052"><v:paragraph/><v:tabList/>stop_sched_class</text>			</g>
			<g id="shape2-8" v:mID="2" v:groupContext="shape" transform="translate(55.3436,-7.08661)">
				<title>矩形.2</title>
				<desc>.next</desc>
				<v:userDefs>
					<v:ud v:nameU="visVersion" v:val="VT0(15):26"/>
				</v:userDefs>
				<v:textBlock v:margins="rect(4,4,4,4)" v:tabSpace="42.5197"/>
				<v:textRect cx="17.7165" cy="136.141" width="35.44" height="14.1732"/>
				<g id="shadow2-9" v:groupContext="shadow" v:shadowOffsetX="0.345598" v:shadowOffsetY="-1.97279" v:shadowType="1"
						transform="matrix(1,0,0,1,0.345598,1.97279)" class="st1">
					<rect x="0" y="129.054" width="35.4331" height="14.1732" class="st2"/>
				</g>
				<rect x="0" y="129.054" width="35.4331" height="14.1732" class="st5"/>
				<text x="5.35" y="138.84" class="st6" v:langID="2052"><v:paragraph v:horizAlign="1"/><v:tabList/>.next</text>			</g>
			<g id="shape3-14" v:mID="3" v:groupContext="shape" transform="translate(112.036,0)">
				<title>矩形.3</title>
				<desc>dl_sched_class</desc>
				<v:userDefs>
					<v:ud v:nameU="visVersion" v:val="VT0(15):26"/>
				</v:userDefs>
				<v:textBlock v:margins="rect(4,4,4,4)" v:tabSpace="42.5197" v:verticalAlign="0"/>
				<v:textRect cx="46.063" cy="121.967" width="92.13" height="42.5197"/>
				<g id="shadow3-15" v:groupContext="shadow" v:shadowOffsetX="0.345598" v:shadowOffsetY="-1.97279" v:shadowType="1"
						transform="matrix(1,0,0,1,0.345598,1.97279)" class="st1">
					<rect x="0" y="100.708" width="92.126" height="42.5197" class="st2"/>
				</g>
				<rect x="0" y="100.708" width="92.126" height="42.5197" class="st3"/>
				<text x="4" y="112.81" class="st4" v:langID="2052"><v:paragraph/><v:tabList/>dl_sched_class</text>			</g>
			<g id="shape4-20" v:mID="4" v:groupContext="shape" transform="translate(161.643,-7.08661)">
				<title>矩形.4</title>
				<desc>.next</desc>
				<v:userDefs>
					<v:ud v:nameU="visVersion" v:val="VT0(15):26"/>
				</v:userDefs>
				<v:textBlock v:margins="rect(4,4,4,4)" v:tabSpace="42.5197"/>
				<v:textRect cx="17.7165" cy="136.141" width="35.44" height="14.1732"/>
				<g id="shadow4-21" v:groupContext="shadow" v:shadowOffsetX="0.345598" v:shadowOffsetY="-1.97279" v:shadowType="1"
						transform="matrix(1,0,0,1,0.345598,1.97279)" class="st1">
					<rect x="0" y="129.054" width="35.4331" height="14.1732" class="st2"/>
				</g>
				<rect x="0" y="129.054" width="35.4331" height="14.1732" class="st5"/>
				<text x="5.35" y="138.84" class="st6" v:langID="2052"><v:paragraph v:horizAlign="1"/><v:tabList/>.next</text>			</g>
			<g id="shape5-26" v:mID="5" v:groupContext="shape" transform="translate(218.336,0)">
				<title>矩形.5</title>
				<desc>rt_sched_class</desc>
				<v:userDefs>
					<v:ud v:nameU="visVersion" v:val="VT0(15):26"/>
				</v:userDefs>
				<v:textBlock v:margins="rect(4,4,4,4)" v:tabSpace="42.5197" v:verticalAlign="0"/>
				<v:textRect cx="46.063" cy="121.967" width="92.13" height="42.5197"/>
				<g id="shadow5-27" v:groupContext="shadow" v:shadowOffsetX="0.345598" v:shadowOffsetY="-1.97279" v:shadowType="1"
						transform="matrix(1,0,0,1,0.345598,1.97279)" class="st1">
					<rect x="0" y="100.708" width="92.126" height="42.5197" class="st2"/>
				</g>
				<rect x="0" y="100.708" width="92.126" height="42.5197" class="st3"/>
				<text x="4" y="112.81" class="st4" v:langID="2052"><v:paragraph/><v:tabList/>rt_sched_class</text>			</g>
			<g id="shape6-32" v:mID="6" v:groupContext="shape" transform="translate(267.942,-7.08661)">
				<title>矩形.6</title>
				<desc>.next</desc>
				<v:userDefs>
					<v:ud v:nameU="visVersion" v:val="VT0(15):26"/>
				</v:userDefs>
				<v:textBlock v:margins="rect(4,4,4,4)" v:tabSpace="42.5197"/>
				<v:textRect cx="17.7165" cy="136.141" width="35.44" height="14.1732"/>
				<g id="shadow6-33" v:groupContext="shadow" v:shadowOffsetX="0.345598" v:shadowOffsetY="-1.97279" v:shadowType="1"
						transform="matrix(1,0,0,1,0.345598,1.97279)" class="st1">
					<rect x="0" y="129.054" width="35.4331" height="14.1732" class="st2"/>
				</g>
				<rect x="0" y="129.054" width="35.4331" height="14.1732" class="st5"/>
				<text x="5.35" y="138.84" class="st6" v:langID="2052"><v:paragraph v:horizAlign="1"/><v:tabList/>.next</text>			</g>
			<g id="shape7-38" v:mID="7" v:groupContext="shape" transform="translate(324.635,-5.68434E-014)">
				<title>矩形.7</title>
				<desc>fair_sched_class</desc>
				<v:userDefs>
					<v:ud v:nameU="visVersion" v:val="VT0(15):26"/>
				</v:userDefs>
				<v:textBlock v:margins="rect(4,4,4,4)" v:tabSpace="42.5197" v:verticalAlign="0"/>
				<v:textRect cx="46.063" cy="121.967" width="92.13" height="42.5197"/>
				<g id="shadow7-39" v:groupContext="shadow" v:shadowOffsetX="0.345598" v:shadowOffsetY="-1.97279" v:shadowType="1"
						transform="matrix(1,0,0,1,0.345598,1.97279)" class="st1">
					<rect x="0" y="100.708" width="92.126" height="42.5197" class="st2"/>
				</g>
				<rect x="0" y="100.708" width="92.126" height="42.5197" class="st3"/>
				<text x="4" y="112.81" class="st4" v:langID="2052"><v:paragraph/><v:tabList/>fair_sched_class</text>			</g>
			<g id="shape8-44" v:mID="8" v:groupContext="shape" transform="translate(374.241,-7.08661)">
				<title>矩形.8</title>
				<desc>.next</desc>
				<v:userDefs>
					<v:ud v:nameU="visVersion" v:val="VT0(15):26"/>
				</v:userDefs>
				<v:textBlock v:margins="rect(4,4,4,4)" v:tabSpace="42.5197"/>
				<v:textRect cx="17.7165" cy="136.141" width="35.44" height="14.1732"/>
				<g id="shadow8-45" v:groupContext="shadow" v:shadowOffsetX="0.345598" v:shadowOffsetY="-1.97279" v:shadowType="1"
						transform="matrix(1,0,0,1,0.345598,1.97279)" class="st1">
					<rect x="0" y="129.054" width="35.4331" height="14.1732" class="st2"/>
				</g>
				<rect x="0" y="129.054" width="35.4331" height="14.1732" class="st5"/>
				<text x="5.35" y="138.84" class="st6" v:langID="2052"><v:paragraph v:horizAlign="1"/><v:tabList/>.next</text>			</g>
			<g id="shape9-50" v:mID="9" v:groupContext="shape" transform="translate(430.934,-5.68434E-014)">
				<title>矩形.9</title>
				<desc>idle_sched_class</desc>
				<v:userDefs>
					<v:ud v:nameU="visVersion" v:val="VT0(15):26"/>
				</v:userDefs>
				<v:textBlock v:margins="rect(4,4,4,4)" v:tabSpace="42.5197" v:verticalAlign="0"/>
				<v:textRect cx="46.063" cy="121.967" width="92.13" height="42.5197"/>
				<g id="shadow9-51" v:groupContext="shadow" v:shadowOffsetX="0.345598" v:shadowOffsetY="-1.97279" v:shadowType="1"
						transform="matrix(1,0,0,1,0.345598,1.97279)" class="st1">
					<rect x="0" y="100.708" width="92.126" height="42.5197" class="st2"/>
				</g>
				<rect x="0" y="100.708" width="92.126" height="42.5197" class="st3"/>
				<text x="4" y="112.81" class="st4" v:langID="2052"><v:paragraph/><v:tabList/>idle_sched_class</text>			</g>
			<g id="shape10-56" v:mID="10" v:groupContext="shape" transform="translate(480.54,-7.08661)">
				<title>矩形.10</title>
				<desc>.next</desc>
				<v:userDefs>
					<v:ud v:nameU="visVersion" v:val="VT0(15):26"/>
				</v:userDefs>
				<v:textBlock v:margins="rect(4,4,4,4)" v:tabSpace="42.5197"/>
				<v:textRect cx="17.7165" cy="136.141" width="35.44" height="14.1732"/>
				<g id="shadow10-57" v:groupContext="shadow" v:shadowOffsetX="0.345598" v:shadowOffsetY="-1.97279" v:shadowType="1"
						transform="matrix(1,0,0,1,0.345598,1.97279)" class="st1">
					<rect x="0" y="129.054" width="35.4331" height="14.1732" class="st2"/>
				</g>
				<rect x="0" y="129.054" width="35.4331" height="14.1732" class="st5"/>
				<text x="5.35" y="138.84" class="st6" v:langID="2052"><v:paragraph v:horizAlign="1"/><v:tabList/>.next</text>			</g>
			<g id="shape11-62" v:mID="11" v:groupContext="shape" v:layerMember="0" transform="translate(90.7766,-14.1732)">
				<title>侧边到顶部</title>
				<v:userDefs>
					<v:ud v:nameU="TextPos" v:val="VT0(1):26"/>
					<v:ud v:nameU="Scale" v:val="VT0(1):26"/>
					<v:ud v:nameU="AntiScale" v:val="VT0(1):26"/>
					<v:ud v:nameU="visVersion" v:val="VT0(15):26"/>
				</v:userDefs>
				<path d="M0 143.23 L11.34 143.23 A2.83465 2.83465 -180 0 0 14.17 140.39 L14.17 103.54 A2.83465 2.83465 0 0 1 17.01
							 100.71 L64.49 100.71 A2.83465 2.83465 0 0 1 67.32 103.54 L67.32 109.6" class="st7"/>
			</g>
			<g id="shape12-68" v:mID="12" v:groupContext="shape" v:layerMember="0" transform="translate(197.076,-14.1732)">
				<title>侧边到顶部.12</title>
				<v:userDefs>
					<v:ud v:nameU="TextPos" v:val="VT0(1):26"/>
					<v:ud v:nameU="Scale" v:val="VT0(1):26"/>
					<v:ud v:nameU="AntiScale" v:val="VT0(1):26"/>
					<v:ud v:nameU="visVersion" v:val="VT0(15):26"/>
				</v:userDefs>
				<path d="M0 143.23 L11.34 143.23 A2.83465 2.83465 -180 0 0 14.17 140.39 L14.17 103.54 A2.83465 2.83465 0 0 1 17.01
							 100.71 L64.49 100.71 A2.83465 2.83465 0 0 1 67.32 103.54 L67.32 109.6" class="st7"/>
			</g>
			<g id="shape13-73" v:mID="13" v:groupContext="shape" v:layerMember="0" transform="translate(303.375,-14.1732)">
				<title>侧边到顶部.13</title>
				<v:userDefs>
					<v:ud v:nameU="TextPos" v:val="VT0(1):26"/>
					<v:ud v:nameU="Scale" v:val="VT0(1):26"/>
					<v:ud v:nameU="AntiScale" v:val="VT0(1):26"/>
					<v:ud v:nameU="visVersion" v:val="VT0(15):26"/>
				</v:userDefs>
				<path d="M0 143.23 L11.34 143.23 A2.83465 2.83465 -180 0 0 14.17 140.39 L14.17 103.54 A2.83465 2.83465 0 0 1 17.01
							 100.71 L64.49 100.71 A2.83465 2.83465 0 0 1 67.32 103.54 L67.32 109.6" class="st7"/>
			</g>
			<g id="shape14-78" v:mID="14" v:groupContext="shape" v:layerMember="0" transform="translate(409.674,-14.1732)">
				<title>侧边到顶部.14</title>
				<v:userDefs>
					<v:ud v:nameU="TextPos" v:val="VT0(1):26"/>
					<v:ud v:nameU="Scale" v:val="VT0(1):26"/>
					<v:ud v:nameU="AntiScale" v:val="VT0(1):26"/>
					<v:ud v:nameU="visVersion" v:val="VT0(15):26"/>
				</v:userDefs>
				<path d="M0 143.23 L11.34 143.23 A2.83465 2.83465 -180 0 0 14.17 140.39 L14.17 103.54 A2.83465 2.83465 0 0 1 17.01
							 100.71 L64.49 100.71 A2.83465 2.83465 0 0 1 67.32 103.54 L67.32 109.6" class="st7"/>
			</g>
			<g id="shape15-83" v:mID="15" v:groupContext="shape" transform="translate(551.407,-21.2598)">
				<title>矩形.15</title>
				<desc>NULL</desc>
				<v:userDefs>
					<v:ud v:nameU="visVersion" v:val="VT0(15):26"/>
				</v:userDefs>
				<v:textBlock v:margins="rect(4,4,4,4)" v:tabSpace="42.5197"/>
				<v:textRect cx="17.7165" cy="136.141" width="35.44" height="14.1732"/>
				<g id="shadow15-84" v:groupContext="shadow" v:shadowOffsetX="0.345598" v:shadowOffsetY="-1.97279" v:shadowType="1"
						transform="matrix(1,0,0,1,0.345598,1.97279)" class="st1">
					<rect x="0" y="129.054" width="35.4331" height="14.1732" class="st2"/>
				</g>
				<rect x="0" y="129.054" width="35.4331" height="14.1732" class="st5"/>
				<text x="7.82" y="138.84" class="st6" v:langID="2052"><v:paragraph v:horizAlign="1"/><v:tabList/>NULL</text>			</g>
			<g id="shape16-89" v:mID="16" v:groupContext="shape" v:layerMember="0" transform="translate(523.06,-21.2598)">
				<title>侧边到侧边固定 1</title>
				<v:userDefs>
					<v:ud v:nameU="TextPos" v:val="VT0(1):26"/>
					<v:ud v:nameU="Offset" v:val="VT0(0.19685039370079):24"/>
					<v:ud v:nameU="Scale" v:val="VT0(1):26"/>
					<v:ud v:nameU="AntiScale" v:val="VT0(1):26"/>
					<v:ud v:nameU="visVersion" v:val="VT0(15):26"/>
				</v:userDefs>
				<path d="M0 143.23 L10.63 143.23 A3.54331 3.54331 -180 0 0 14.17 139.68 L14.17 139.68 A3.54331 3.54331 0 0 1 17.72
							 136.14 L23.06 136.14" class="st7"/>
			</g>
			<g id="shape17-94" v:mID="17" v:groupContext="shape" transform="translate(-1.59872E-014,-70.8661)">
				<title>工作表.17</title>
				<desc>sched_class_highest</desc>
				<v:textBlock v:margins="rect(4,4,4,4)" v:tabSpace="42.5197"/>
				<v:textRect cx="51.8002" cy="136.141" width="103.61" height="14.1732"/>
				<rect x="0" y="129.054" width="103.6" height="14.1732" class="st9"/>
				<text x="4.79" y="138.84" class="st4" v:langID="2052"><v:paragraph v:horizAlign="1"/><v:tabList/>sched_class_highest</text>			</g>
			<g id="shape18-97" v:mID="18" v:groupContext="shape" v:layerMember="0"
					transform="translate(-91.4271,72.3612) rotate(-90) scale(-1,1)">
				<title>直线连接线</title>
				<v:userDefs>
					<v:ud v:nameU="visVersion" v:val="VT0(15):26"/>
				</v:userDefs>
				<path d="M0 143.23 L23.06 143.23" class="st7"/>
			</g>
			<g id="shape19-102" v:mID="19" v:groupContext="shape" transform="translate(5.73726,-95.1098)">
				<title>工作表.19</title>
				<desc>&#60;kernel/sched/sched.h&#62; #define for_each_class(class) \ for (c...</desc>
				<v:textBlock v:margins="rect(4,4,4,4)" v:tabSpace="42.5197"/>
				<v:textRect cx="177.165" cy="121.967" width="354.34" height="42.5197"/>
				<rect x="0" y="100.708" width="354.331" height="42.5197" class="st9"/>
				<text x="4" y="113.87" class="st10" v:langID="2052"><v:paragraph/><v:tabList/>&#60;kernel/sched/sched.h&#62;<v:newlineChar/><tspan
							x="4" dy="1.2em" class="st11">#</tspan>define for_each_class(class) \<v:newlineChar/><v:tabChar/><tspan
							x="46.52" dy="1.2em" class="st12">for </tspan><tspan class="st12">(</tspan><tspan class="st12">class </tspan><tspan
							class="st12">= </tspan><tspan class="st12">sched</tspan><tspan class="st12">_</tspan><tspan
							class="st12">class</tspan><tspan class="st12">_</tspan><tspan class="st12">highest</tspan><tspan
							class="st12">; </tspan><tspan class="st12">class</tspan><tspan class="st12">; </tspan><tspan
							class="st12">class </tspan><tspan class="st12">= </tspan><tspan class="st12">class</tspan><tspan
							class="st12">-</tspan><tspan class="st12">&#62;</tspan><tspan class="st12">next</tspan><tspan
							class="st12">)</tspan></text>			</g>
		</g>
	</g>
</svg>
