<?xml version="1.0" encoding="UTF-8" standalone="no"?>
<!DOCTYPE svg PUBLIC "-//W3C//DTD SVG 1.1//EN" "http://www.w3.org/Graphics/SVG/1.1/DTD/svg11.dtd">
<!-- 由 Microsoft Visio, SVG Export 生成 CFS_fairness_process.svg 页-1 -->
<svg xmlns="http://www.w3.org/2000/svg" xmlns:xlink="http://www.w3.org/1999/xlink" xmlns:ev="http://www.w3.org/2001/xml-events"
		xmlns:v="http://schemas.microsoft.com/visio/2003/SVGExtensions/" width="4.11756in" height="2.7547in"
		viewBox="0 0 296.465 198.339" xml:space="preserve" color-interpolation-filters="sRGB" class="st15">
	<v:documentProperties v:langID="2052" v:metric="true" v:viewMarkup="false"/>

	<style type="text/css">
	<![CDATA[
		.st1 {visibility:visible}
		.st2 {fill:#5b9bd5;fill-opacity:0.22;filter:url(#filter_2);stroke:#5b9bd5;stroke-opacity:0.22}
		.st3 {fill:#c5e0b3;stroke:#000000;stroke-width:1}
		.st4 {fill:#000000;font-family:宋体;font-size:0.916672em}
		.st5 {font-family:Times New Roman;font-size:1em}
		.st6 {fill:#f4b183;stroke:#000000;stroke-width:1}
		.st7 {fill:#5b9bd5;fill-opacity:0.25;filter:url(#filter_2);stroke:none}
		.st8 {fill:#a5a5a5;stroke:none;stroke-width:0.75}
		.st9 {fill:none;stroke:none;stroke-width:0.25}
		.st10 {fill:#000000;font-family:Times New Roman;font-size:0.916672em}
		.st11 {fill:#000000;font-family:宋体;font-size:0.833336em}
		.st12 {fill:#ff0000;font-size:1em}
		.st13 {fill:#000000;font-family:Times New Roman;font-size:0.833336em}
		.st14 {font-size:1em}
		.st15 {fill:none;fill-rule:evenodd;font-size:12px;overflow:visible;stroke-linecap:square;stroke-miterlimit:3}
	]]>
	</style>

	<defs id="Filters">
		<filter id="filter_2">
			<feGaussianBlur stdDeviation="2"/>
		</filter>
	</defs>
	<g v:mID="0" v:index="1" v:groupContext="foregroundPage">
		<title>页-1</title>
		<v:pageProperties v:drawingScale="0.0393701" v:pageScale="0.0393701" v:drawingUnits="24" v:shadowOffsetX="8.50394"
				v:shadowOffsetY="-8.50394"/>
		<g id="group48-1" transform="translate(5.8088,-5.4728)" v:mID="48" v:groupContext="group">
			<title>工作表.48</title>
			<g id="group24-2" transform="translate(0,-92.126)" v:mID="24" v:groupContext="group">
				<title>工作表.24</title>
				<g id="group25-3" v:mID="25" v:groupContext="group">
					<title>工作表.25</title>
					<g id="shape26-4" v:mID="26" v:groupContext="shape">
						<title>矩形</title>
						<desc>进程1</desc>
						<v:userDefs>
							<v:ud v:nameU="visVersion" v:val="VT0(15):26"/>
						</v:userDefs>
						<v:textBlock v:margins="rect(4,4,4,4)" v:tabSpace="42.5197"/>
						<v:textRect cx="28.3465" cy="184.165" width="56.7" height="28.3465"/>
						<g id="shadow26-5" v:groupContext="shadow" v:shadowOffsetX="0.345598" v:shadowOffsetY="-1.97279"
								v:shadowType="1" transform="matrix(1,0,0,1,0.345598,1.97279)" class="st1">
							<rect x="0" y="169.992" width="56.6929" height="28.3465" class="st2"/>
						</g>
						<rect x="0" y="169.992" width="56.6929" height="28.3465" class="st3"/>
						<text x="14.6" y="187.79" class="st4" v:langID="2052"><v:paragraph v:horizAlign="1"/><v:tabList/>进程<tspan
									class="st5">1</tspan></text>					</g>
					<g id="shape27-11" v:mID="27" v:groupContext="shape" transform="translate(56.6929,0)">
						<title>矩形.2</title>
						<desc>进程2</desc>
						<v:userDefs>
							<v:ud v:nameU="visVersion" v:val="VT0(15):26"/>
						</v:userDefs>
						<v:textBlock v:margins="rect(4,4,4,4)" v:tabSpace="42.5197"/>
						<v:textRect cx="28.3465" cy="184.165" width="56.7" height="28.3465"/>
						<g id="shadow27-12" v:groupContext="shadow" v:shadowOffsetX="0.345598" v:shadowOffsetY="-1.97279"
								v:shadowType="1" transform="matrix(1,0,0,1,0.345598,1.97279)" class="st1">
							<rect x="0" y="169.992" width="56.6929" height="28.3465" class="st2"/>
						</g>
						<rect x="0" y="169.992" width="56.6929" height="28.3465" class="st3"/>
						<text x="14.6" y="187.79" class="st4" v:langID="2052"><v:paragraph v:horizAlign="1"/><v:tabList/>进程<tspan
									class="st5">2</tspan></text>					</g>
					<g id="shape28-18" v:mID="28" v:groupContext="shape" transform="translate(113.386,0)">
						<title>矩形.3</title>
						<desc>进程3</desc>
						<v:userDefs>
							<v:ud v:nameU="visVersion" v:val="VT0(15):26"/>
						</v:userDefs>
						<v:textBlock v:margins="rect(4,4,4,4)" v:tabSpace="42.5197"/>
						<v:textRect cx="28.3465" cy="184.165" width="56.7" height="28.3465"/>
						<g id="shadow28-19" v:groupContext="shadow" v:shadowOffsetX="0.345598" v:shadowOffsetY="-1.97279"
								v:shadowType="1" transform="matrix(1,0,0,1,0.345598,1.97279)" class="st1">
							<rect x="0" y="169.992" width="56.6929" height="28.3465" class="st2"/>
						</g>
						<rect x="0" y="169.992" width="56.6929" height="28.3465" class="st3"/>
						<text x="14.6" y="187.79" class="st4" v:langID="2052"><v:paragraph v:horizAlign="1"/><v:tabList/>进程<tspan
									class="st5">3</tspan></text>					</g>
					<g id="shape29-25" v:mID="29" v:groupContext="shape" transform="translate(170.079,0)">
						<title>矩形.4</title>
						<desc>进程4</desc>
						<v:userDefs>
							<v:ud v:nameU="visVersion" v:val="VT0(15):26"/>
						</v:userDefs>
						<v:textBlock v:margins="rect(4,4,4,4)" v:tabSpace="42.5197"/>
						<v:textRect cx="28.3465" cy="184.165" width="56.7" height="28.3465"/>
						<g id="shadow29-26" v:groupContext="shadow" v:shadowOffsetX="0.345598" v:shadowOffsetY="-1.97279"
								v:shadowType="1" transform="matrix(1,0,0,1,0.345598,1.97279)" class="st1">
							<rect x="0" y="169.992" width="56.6929" height="28.3465" class="st2"/>
						</g>
						<rect x="0" y="169.992" width="56.6929" height="28.3465" class="st3"/>
						<text x="14.6" y="187.79" class="st4" v:langID="2052"><v:paragraph v:horizAlign="1"/><v:tabList/>进程<tspan
									class="st5">4</tspan></text>					</g>
					<g id="shape30-32" v:mID="30" v:groupContext="shape" transform="translate(226.772,0)">
						<title>矩形.5</title>
						<desc>进程5</desc>
						<v:userDefs>
							<v:ud v:nameU="visVersion" v:val="VT0(15):26"/>
						</v:userDefs>
						<v:textBlock v:margins="rect(4,4,4,4)" v:tabSpace="42.5197"/>
						<v:textRect cx="28.3465" cy="184.165" width="56.7" height="28.3465"/>
						<g id="shadow30-33" v:groupContext="shadow" v:shadowOffsetX="0.345598" v:shadowOffsetY="-1.97279"
								v:shadowType="1" transform="matrix(1,0,0,1,0.345598,1.97279)" class="st1">
							<rect x="0" y="169.992" width="56.6929" height="28.3465" class="st2"/>
						</g>
						<rect x="0" y="169.992" width="56.6929" height="28.3465" class="st6"/>
						<text x="14.6" y="187.79" class="st4" v:langID="2052"><v:paragraph v:horizAlign="1"/><v:tabList/>进程<tspan
									class="st5">5</tspan></text>					</g>
					<g id="shape31-39" v:mID="31" v:groupContext="shape" transform="translate(1.19904E-014,-34.0157)">
						<title>普通双箭头</title>
						<v:userDefs>
							<v:ud v:nameU="visVersion" v:val="VT0(15):26"/>
							<v:ud v:nameU="ArrowType" v:prompt="" v:val="VT0(3):26"/>
						</v:userDefs>
						<g id="shadow31-40" v:groupContext="shadow" v:shadowOffsetX="0.345598" v:shadowOffsetY="-1.97279"
								v:shadowType="1" transform="matrix(1,0,0,1,0.345598,1.97279)" class="st1">
							<path d="M0 198.34 L5.65 195.5 L5.65 196.92 L51.05 196.92 L51.05 195.5 L56.69 198.34 L51.05 201.17 L51.05
										 199.76 L5.65 199.76 L5.65 201.17 L0 198.34 Z" class="st7"/>
						</g>
						<path d="M0 198.34 L5.65 195.5 L5.65 196.92 L51.05 196.92 L51.05 195.5 L56.69 198.34 L51.05 201.17 L51.05
									 199.76 L5.65 199.76 L5.65 201.17 L0 198.34 Z" class="st8"/>
					</g>
					<g id="shape32-44" v:mID="32" v:groupContext="shape" transform="translate(56.655,-33.9967)">
						<title>普通双箭头.11</title>
						<v:userDefs>
							<v:ud v:nameU="visVersion" v:val="VT0(15):26"/>
							<v:ud v:nameU="ArrowType" v:prompt="" v:val="VT0(3):26"/>
						</v:userDefs>
						<g id="shadow32-45" v:groupContext="shadow" v:shadowOffsetX="0.345598" v:shadowOffsetY="-1.97279"
								v:shadowType="1" transform="matrix(1,0,0,1,0.345598,1.97279)" class="st1">
							<path d="M0 198.34 L5.65 195.5 L5.65 196.92 L51.05 196.92 L51.05 195.5 L56.69 198.34 L51.05 201.17 L51.05
										 199.76 L5.65 199.76 L5.65 201.17 L0 198.34 Z" class="st7"/>
						</g>
						<path d="M0 198.34 L5.65 195.5 L5.65 196.92 L51.05 196.92 L51.05 195.5 L56.69 198.34 L51.05 201.17 L51.05
									 199.76 L5.65 199.76 L5.65 201.17 L0 198.34 Z" class="st8"/>
					</g>
					<g id="shape33-49" v:mID="33" v:groupContext="shape" transform="translate(113.348,-33.9967)">
						<title>普通双箭头.12</title>
						<v:userDefs>
							<v:ud v:nameU="visVersion" v:val="VT0(15):26"/>
							<v:ud v:nameU="ArrowType" v:prompt="" v:val="VT0(3):26"/>
						</v:userDefs>
						<g id="shadow33-50" v:groupContext="shadow" v:shadowOffsetX="0.345598" v:shadowOffsetY="-1.97279"
								v:shadowType="1" transform="matrix(1,0,0,1,0.345598,1.97279)" class="st1">
							<path d="M0 198.34 L5.65 195.5 L5.65 196.92 L51.05 196.92 L51.05 195.5 L56.69 198.34 L51.05 201.17 L51.05
										 199.76 L5.65 199.76 L5.65 201.17 L0 198.34 Z" class="st7"/>
						</g>
						<path d="M0 198.34 L5.65 195.5 L5.65 196.92 L51.05 196.92 L51.05 195.5 L56.69 198.34 L51.05 201.17 L51.05
									 199.76 L5.65 199.76 L5.65 201.17 L0 198.34 Z" class="st8"/>
					</g>
					<g id="shape34-54" v:mID="34" v:groupContext="shape" transform="translate(170.041,-33.9967)">
						<title>普通双箭头.13</title>
						<v:userDefs>
							<v:ud v:nameU="visVersion" v:val="VT0(15):26"/>
							<v:ud v:nameU="ArrowType" v:prompt="" v:val="VT0(3):26"/>
						</v:userDefs>
						<g id="shadow34-55" v:groupContext="shadow" v:shadowOffsetX="0.345598" v:shadowOffsetY="-1.97279"
								v:shadowType="1" transform="matrix(1,0,0,1,0.345598,1.97279)" class="st1">
							<path d="M0 198.34 L5.65 195.5 L5.65 196.92 L51.05 196.92 L51.05 195.5 L56.69 198.34 L51.05 201.17 L51.05
										 199.76 L5.65 199.76 L5.65 201.17 L0 198.34 Z" class="st7"/>
						</g>
						<path d="M0 198.34 L5.65 195.5 L5.65 196.92 L51.05 196.92 L51.05 195.5 L56.69 198.34 L51.05 201.17 L51.05
									 199.76 L5.65 199.76 L5.65 201.17 L0 198.34 Z" class="st8"/>
					</g>
					<g id="shape35-59" v:mID="35" v:groupContext="shape" transform="translate(226.734,-33.9967)">
						<title>普通双箭头.14</title>
						<v:userDefs>
							<v:ud v:nameU="visVersion" v:val="VT0(15):26"/>
							<v:ud v:nameU="ArrowType" v:prompt="" v:val="VT0(3):26"/>
						</v:userDefs>
						<g id="shadow35-60" v:groupContext="shadow" v:shadowOffsetX="0.345598" v:shadowOffsetY="-1.97279"
								v:shadowType="1" transform="matrix(1,0,0,1,0.345598,1.97279)" class="st1">
							<path d="M0 198.34 L5.65 195.5 L5.65 196.92 L51.05 196.92 L51.05 195.5 L56.69 198.34 L51.05 201.17 L51.05
										 199.76 L5.65 199.76 L5.65 201.17 L0 198.34 Z" class="st7"/>
						</g>
						<path d="M0 198.34 L5.65 195.5 L5.65 196.92 L51.05 196.92 L51.05 195.5 L56.69 198.34 L51.05 201.17 L51.05
									 199.76 L5.65 199.76 L5.65 201.17 L0 198.34 Z" class="st8"/>
					</g>
					<g id="shape36-64" v:mID="36" v:groupContext="shape" transform="translate(0,-35.4331)">
						<title>工作表.36</title>
						<desc>20%</desc>
						<v:textBlock v:margins="rect(4,4,4,4)" v:tabSpace="42.5197"/>
						<v:textRect cx="28.3465" cy="191.252" width="56.7" height="14.1732"/>
						<rect x="0" y="184.165" width="56.6929" height="14.1732" class="st9"/>
						<text x="18.26" y="194.55" class="st10" v:langID="2052"><v:paragraph v:horizAlign="1"/><v:tabList/>20%</text>					</g>
					<g id="shape37-67" v:mID="37" v:groupContext="shape" transform="translate(56.6929,-35.4331)">
						<title>工作表.37</title>
						<desc>20%</desc>
						<v:textBlock v:margins="rect(4,4,4,4)" v:tabSpace="42.5197"/>
						<v:textRect cx="28.3465" cy="191.252" width="56.7" height="14.1732"/>
						<rect x="0" y="184.165" width="56.6929" height="14.1732" class="st9"/>
						<text x="18.26" y="194.55" class="st10" v:langID="2052"><v:paragraph v:horizAlign="1"/><v:tabList/>20%</text>					</g>
					<g id="shape38-70" v:mID="38" v:groupContext="shape" transform="translate(113.386,-35.4331)">
						<title>工作表.38</title>
						<desc>20%</desc>
						<v:textBlock v:margins="rect(4,4,4,4)" v:tabSpace="42.5197"/>
						<v:textRect cx="28.3465" cy="191.252" width="56.7" height="14.1732"/>
						<rect x="0" y="184.165" width="56.6929" height="14.1732" class="st9"/>
						<text x="18.26" y="194.55" class="st10" v:langID="2052"><v:paragraph v:horizAlign="1"/><v:tabList/>20%</text>					</g>
					<g id="shape39-73" v:mID="39" v:groupContext="shape" transform="translate(170.079,-35.4331)">
						<title>工作表.39</title>
						<desc>20%</desc>
						<v:textBlock v:margins="rect(4,4,4,4)" v:tabSpace="42.5197"/>
						<v:textRect cx="28.3465" cy="191.252" width="56.7" height="14.1732"/>
						<rect x="0" y="184.165" width="56.6929" height="14.1732" class="st9"/>
						<text x="18.26" y="194.55" class="st10" v:langID="2052"><v:paragraph v:horizAlign="1"/><v:tabList/>20%</text>					</g>
					<g id="shape40-76" v:mID="40" v:groupContext="shape" transform="translate(226.772,-35.4331)">
						<title>工作表.40</title>
						<desc>20%</desc>
						<v:textBlock v:margins="rect(4,4,4,4)" v:tabSpace="42.5197"/>
						<v:textRect cx="28.3465" cy="191.252" width="56.7" height="14.1732"/>
						<rect x="0" y="184.165" width="56.6929" height="14.1732" class="st9"/>
						<text x="18.26" y="194.55" class="st10" v:langID="2052"><v:paragraph v:horizAlign="1"/><v:tabList/>20%</text>					</g>
				</g>
				<g id="shape41-79" v:mID="41" v:groupContext="shape" transform="translate(0,-50.8661)">
					<title>工作表.41</title>
					<desc>从进程角度看每个进程能公平享用CPU</desc>
					<v:textBlock v:margins="rect(4,4,4,4)" v:tabSpace="42.5197"/>
					<v:textRect cx="141.732" cy="188.339" width="283.47" height="20"/>
					<rect x="0" y="178.339" width="283.465" height="20" class="st9"/>
					<text x="52.01" y="191.63" class="st11" v:langID="2052"><v:paragraph v:horizAlign="1"/><v:tabList/>从进程角度看，每个进程<tspan
								class="st12">能</tspan>公平享用<tspan class="st5">CPU</tspan></text>				</g>
			</g>
			<g id="shape1-84" v:mID="1" v:groupContext="shape">
				<title>矩形.1</title>
				<desc>进程1</desc>
				<v:userDefs>
					<v:ud v:nameU="visVersion" v:val="VT0(15):26"/>
				</v:userDefs>
				<v:textBlock v:margins="rect(4,4,4,4)" v:tabSpace="42.5197"/>
				<v:textRect cx="28.3465" cy="184.165" width="56.7" height="28.3465"/>
				<g id="shadow1-85" v:groupContext="shadow" v:shadowOffsetX="0.345598" v:shadowOffsetY="-1.97279" v:shadowType="1"
						transform="matrix(1,0,0,1,0.345598,1.97279)" class="st1">
					<rect x="0" y="169.992" width="56.6929" height="28.3465" class="st2"/>
				</g>
				<rect x="0" y="169.992" width="56.6929" height="28.3465" class="st3"/>
				<text x="14.6" y="187.79" class="st4" v:langID="2052"><v:paragraph v:horizAlign="1"/><v:tabList/>进程<tspan
							class="st5">1</tspan></text>			</g>
			<g id="shape2-91" v:mID="2" v:groupContext="shape" transform="translate(56.6929,2.84217E-014)">
				<title>矩形.2</title>
				<desc>进程2</desc>
				<v:userDefs>
					<v:ud v:nameU="visVersion" v:val="VT0(15):26"/>
				</v:userDefs>
				<v:textBlock v:margins="rect(4,4,4,4)" v:tabSpace="42.5197"/>
				<v:textRect cx="28.3465" cy="184.165" width="56.7" height="28.3465"/>
				<g id="shadow2-92" v:groupContext="shadow" v:shadowOffsetX="0.345598" v:shadowOffsetY="-1.97279" v:shadowType="1"
						transform="matrix(1,0,0,1,0.345598,1.97279)" class="st1">
					<rect x="0" y="169.992" width="56.6929" height="28.3465" class="st2"/>
				</g>
				<rect x="0" y="169.992" width="56.6929" height="28.3465" class="st3"/>
				<text x="14.6" y="187.79" class="st4" v:langID="2052"><v:paragraph v:horizAlign="1"/><v:tabList/>进程<tspan
							class="st5">2</tspan></text>			</g>
			<g id="shape3-98" v:mID="3" v:groupContext="shape" transform="translate(113.386,2.84217E-014)">
				<title>矩形.3</title>
				<desc>进程3</desc>
				<v:userDefs>
					<v:ud v:nameU="visVersion" v:val="VT0(15):26"/>
				</v:userDefs>
				<v:textBlock v:margins="rect(4,4,4,4)" v:tabSpace="42.5197"/>
				<v:textRect cx="28.3465" cy="184.165" width="56.7" height="28.3465"/>
				<g id="shadow3-99" v:groupContext="shadow" v:shadowOffsetX="0.345598" v:shadowOffsetY="-1.97279" v:shadowType="1"
						transform="matrix(1,0,0,1,0.345598,1.97279)" class="st1">
					<rect x="0" y="169.992" width="56.6929" height="28.3465" class="st2"/>
				</g>
				<rect x="0" y="169.992" width="56.6929" height="28.3465" class="st3"/>
				<text x="14.6" y="187.79" class="st4" v:langID="2052"><v:paragraph v:horizAlign="1"/><v:tabList/>进程<tspan
							class="st5">3</tspan></text>			</g>
			<g id="shape4-105" v:mID="4" v:groupContext="shape" transform="translate(170.079,2.84217E-014)">
				<title>矩形.4</title>
				<desc>进程4</desc>
				<v:userDefs>
					<v:ud v:nameU="visVersion" v:val="VT0(15):26"/>
				</v:userDefs>
				<v:textBlock v:margins="rect(4,4,4,4)" v:tabSpace="42.5197"/>
				<v:textRect cx="28.3465" cy="184.165" width="56.7" height="28.3465"/>
				<g id="shadow4-106" v:groupContext="shadow" v:shadowOffsetX="0.345598" v:shadowOffsetY="-1.97279" v:shadowType="1"
						transform="matrix(1,0,0,1,0.345598,1.97279)" class="st1">
					<rect x="0" y="169.992" width="56.6929" height="28.3465" class="st2"/>
				</g>
				<rect x="0" y="169.992" width="56.6929" height="28.3465" class="st3"/>
				<text x="14.6" y="187.79" class="st4" v:langID="2052"><v:paragraph v:horizAlign="1"/><v:tabList/>进程<tspan
							class="st5">4</tspan></text>			</g>
			<g id="shape5-112" v:mID="5" v:groupContext="shape" transform="translate(226.772,2.84217E-014)">
				<title>矩形.5</title>
				<desc>进程5</desc>
				<v:userDefs>
					<v:ud v:nameU="visVersion" v:val="VT0(15):26"/>
				</v:userDefs>
				<v:textBlock v:margins="rect(4,4,4,4)" v:tabSpace="42.5197"/>
				<v:textRect cx="28.3465" cy="184.165" width="56.7" height="28.3465"/>
				<g id="shadow5-113" v:groupContext="shadow" v:shadowOffsetX="0.345598" v:shadowOffsetY="-1.97279" v:shadowType="1"
						transform="matrix(1,0,0,1,0.345598,1.97279)" class="st1">
					<rect x="0" y="169.992" width="56.6929" height="28.3465" class="st2"/>
				</g>
				<rect x="0" y="169.992" width="56.6929" height="28.3465" class="st6"/>
				<text x="14.6" y="187.79" class="st4" v:langID="2052"><v:paragraph v:horizAlign="1"/><v:tabList/>进程<tspan
							class="st5">5</tspan></text>			</g>
			<g id="shape6-119" v:mID="6" v:groupContext="shape" transform="translate(0.0166313,-34.0157) rotate(0.00480443)">
				<title>普通双箭头</title>
				<v:userDefs>
					<v:ud v:nameU="visVersion" v:val="VT0(15):26"/>
					<v:ud v:nameU="ArrowType" v:prompt="" v:val="VT0(3):26"/>
				</v:userDefs>
				<g id="shadow6-120" v:groupContext="shadow" v:shadowOffsetX="0.345598" v:shadowOffsetY="-1.97279" v:shadowType="1"
						transform="matrix(1,0,0,1,0.345764,1.97276)" class="st1">
					<path d="M0 198.34 L5.65 195.5 L5.65 196.92 L221.09 196.92 L221.09 195.5 L226.73 198.34 L221.09 201.17 L221.09
								 199.76 L5.65 199.76 L5.65 201.17 L0 198.34 Z" class="st7"/>
				</g>
				<path d="M0 198.34 L5.65 195.5 L5.65 196.92 L221.09 196.92 L221.09 195.5 L226.73 198.34 L221.09 201.17 L221.09 199.76
							 L5.65 199.76 L5.65 201.17 L0 198.34 Z" class="st8"/>
			</g>
			<g id="shape14-124" v:mID="14" v:groupContext="shape" transform="translate(226.734,-33.9967)">
				<title>普通双箭头.14</title>
				<v:userDefs>
					<v:ud v:nameU="visVersion" v:val="VT0(15):26"/>
					<v:ud v:nameU="ArrowType" v:prompt="" v:val="VT0(3):26"/>
				</v:userDefs>
				<g id="shadow14-125" v:groupContext="shadow" v:shadowOffsetX="0.345598" v:shadowOffsetY="-1.97279" v:shadowType="1"
						transform="matrix(1,0,0,1,0.345598,1.97279)" class="st1">
					<path d="M0 198.34 L5.65 195.5 L5.65 196.92 L51.05 196.92 L51.05 195.5 L56.69 198.34 L51.05 201.17 L51.05 199.76
								 L5.65 199.76 L5.65 201.17 L0 198.34 Z" class="st7"/>
				</g>
				<path d="M0 198.34 L5.65 195.5 L5.65 196.92 L51.05 196.92 L51.05 195.5 L56.69 198.34 L51.05 201.17 L51.05 199.76
							 L5.65 199.76 L5.65 201.17 L0 198.34 Z" class="st8"/>
			</g>
			<g id="shape15-129" v:mID="15" v:groupContext="shape" transform="translate(0,-35.4331)">
				<title>工作表.15</title>
				<desc>80%</desc>
				<v:textBlock v:margins="rect(4,4,4,4)" v:tabSpace="42.5197"/>
				<v:textRect cx="112.267" cy="191.252" width="224.54" height="14.1732"/>
				<rect x="0" y="184.165" width="224.534" height="14.1732" class="st9"/>
				<text x="102.19" y="194.55" class="st10" v:langID="2052"><v:paragraph v:horizAlign="1"/><v:tabList/>80%</text>			</g>
			<g id="shape20-132" v:mID="20" v:groupContext="shape" transform="translate(226.772,-35.4331)">
				<title>工作表.20</title>
				<desc>20%</desc>
				<v:textBlock v:margins="rect(4,4,4,4)" v:tabSpace="42.5197"/>
				<v:textRect cx="28.3465" cy="191.252" width="56.7" height="14.1732"/>
				<rect x="0" y="184.165" width="56.6929" height="14.1732" class="st9"/>
				<text x="18.26" y="194.55" class="st10" v:langID="2052"><v:paragraph v:horizAlign="1"/><v:tabList/>20%</text>			</g>
			<g id="shape22-135" v:mID="22" v:groupContext="shape" transform="translate(0,-50.8661)">
				<title>工作表.22</title>
				<desc>从用户角度看每个用户不能公平享用CPU</desc>
				<v:textBlock v:margins="rect(4,4,4,4)" v:tabSpace="42.5197"/>
				<v:textRect cx="141.732" cy="188.339" width="283.47" height="20"/>
				<rect x="0" y="178.339" width="283.465" height="20" class="st9"/>
				<text x="47.01" y="191.63" class="st11" v:langID="2052"><v:paragraph v:horizAlign="1"/><v:tabList/>从用户角度看，每个用户<tspan
							class="st12">不能</tspan>公平享用<tspan class="st5">CPU</tspan></text>			</g>
			<g id="shape43-140" v:mID="43" v:groupContext="shape" transform="translate(104.061,-177.165)">
				<title>矩形</title>
				<v:userDefs>
					<v:ud v:nameU="visVersion" v:val="VT0(15):26"/>
				</v:userDefs>
				<g id="shadow43-141" v:groupContext="shadow" v:shadowOffsetX="0.345598" v:shadowOffsetY="-1.97279" v:shadowType="1"
						transform="matrix(1,0,0,1,0.345598,1.97279)" class="st1">
					<rect x="0" y="184.165" width="28.3465" height="14.1732" class="st2"/>
				</g>
				<rect x="0" y="184.165" width="28.3465" height="14.1732" class="st3"/>
			</g>
			<g id="shape44-145" v:mID="44" v:groupContext="shape" transform="translate(196.648,-177.165)">
				<title>矩形.44</title>
				<v:userDefs>
					<v:ud v:nameU="visVersion" v:val="VT0(15):26"/>
				</v:userDefs>
				<g id="shadow44-146" v:groupContext="shadow" v:shadowOffsetX="0.345598" v:shadowOffsetY="-1.97279" v:shadowType="1"
						transform="matrix(1,0,0,1,0.345598,1.97279)" class="st1">
					<rect x="0" y="184.165" width="28.3465" height="14.1732" class="st2"/>
				</g>
				<rect x="0" y="184.165" width="28.3465" height="14.1732" class="st6"/>
			</g>
			<g id="shape45-150" v:mID="45" v:groupContext="shape" transform="translate(132.869,-177.165)">
				<title>工作表.45</title>
				<desc>User A&#39;s task</desc>
				<v:textBlock v:margins="rect(4,4,4,4)" v:tabSpace="42.5197"/>
				<v:textRect cx="31.6593" cy="191.252" width="63.32" height="14.1732"/>
				<rect x="0" y="184.165" width="63.3187" height="14.1732" class="st9"/>
				<text x="5.21" y="194.25" class="st13" v:langID="2052"><v:paragraph v:horizAlign="1"/><v:tabList/>U<tspan
							class="st14" v:langID="1033">ser A</tspan><tspan class="st14" v:langID="1033">&#39;</tspan><tspan
							class="st14" v:langID="1033">s task</tspan></text>			</g>
			<g id="shape46-156" v:mID="46" v:groupContext="shape" transform="translate(225.455,-177.165)">
				<title>工作表.46</title>
				<desc>User B&#39;s task</desc>
				<v:textBlock v:margins="rect(4,4,4,4)" v:tabSpace="42.5197"/>
				<v:textRect cx="31.6593" cy="191.252" width="63.32" height="14.1732"/>
				<rect x="0" y="184.165" width="63.3187" height="14.1732" class="st9"/>
				<text x="5.48" y="194.25" class="st13" v:langID="2052"><v:paragraph v:horizAlign="1"/><v:tabList/>U<tspan
							class="st14" v:langID="1033">ser </tspan>B<tspan class="st14" v:langID="1033">&#39;</tspan><tspan
							class="st14" v:langID="1033">s task</tspan></text>			</g>
		</g>
	</g>
</svg>
