<?xml version="1.0" encoding="UTF-8" standalone="no"?>
<!DOCTYPE svg PUBLIC "-//W3C//DTD SVG 1.1//EN" "http://www.w3.org/Graphics/SVG/1.1/DTD/svg11.dtd">
<!-- 由 Microsoft Visio, SVG Export 生成 entity_enqueued_CFS.svg 页-1 -->
<svg xmlns="http://www.w3.org/2000/svg" xmlns:xlink="http://www.w3.org/1999/xlink" xmlns:ev="http://www.w3.org/2001/xml-events"
		xmlns:v="http://schemas.microsoft.com/visio/2003/SVGExtensions/" width="7.197in" height="3.34178in"
		viewBox="0 0 518.184 240.608" xml:space="preserve" color-interpolation-filters="sRGB" class="st16">
	<v:documentProperties v:langID="2052" v:metric="true" v:viewMarkup="false"/>

	<style type="text/css">
	<![CDATA[
		.st1 {visibility:visible}
		.st2 {fill:#5b9bd5;fill-opacity:0.22;filter:url(#filter_2);stroke:#5b9bd5;stroke-opacity:0.22}
		.st3 {fill:#cbffff;stroke:#ffffff;stroke-width:0.25}
		.st4 {fill:#000000;font-family:Times New Roman;font-size:0.75em}
		.st5 {fill:#bfbfbf;stroke:#ffffff;stroke-width:0.25}
		.st6 {fill:#f7cbac;stroke:#000000;stroke-width:0.25}
		.st7 {fill:#000000;font-family:宋体;font-size:0.833336em}
		.st8 {font-family:Times New Roman;font-size:1em}
		.st9 {fill:#e2efd9;stroke:#000000;stroke-width:0.5}
		.st10 {marker-end:url(#mrkr5-137);stroke:#000000;stroke-linecap:round;stroke-linejoin:round;stroke-width:0.75}
		.st11 {fill:#000000;fill-opacity:1;stroke:#000000;stroke-opacity:1;stroke-width:0.22935779816514}
		.st12 {marker-end:url(#mrkr5-168);stroke:#000000;stroke-linecap:round;stroke-linejoin:round;stroke-width:0.75}
		.st13 {fill:#cbffff;stroke:#000000;stroke-width:0.5}
		.st14 {fill:#bfbfbf;stroke:#000000;stroke-width:0.5}
		.st15 {fill:none;stroke:none;stroke-width:0.25}
		.st16 {fill:none;fill-rule:evenodd;font-size:12px;overflow:visible;stroke-linecap:square;stroke-miterlimit:3}
	]]>
	</style>

	<defs id="Markers">
		<g id="lend5">
			<path d="M 2 1 L 0 0 L 1.98117 -0.993387 C 1.67173 -0.364514 1.67301 0.372642 1.98465 1.00043 " style="stroke:none"/>
		</g>
		<marker id="mrkr5-137" class="st11" v:arrowType="5" v:arrowSize="2" v:setback="7.63" refX="-7.63" orient="auto"
				markerUnits="strokeWidth" overflow="visible">
			<use xlink:href="#lend5" transform="scale(-4.36,-4.36) "/>
		</marker>
		<marker id="mrkr5-168" class="st11" v:arrowType="5" v:arrowSize="2" v:setback="7.15" refX="-7.15" orient="auto"
				markerUnits="strokeWidth" overflow="visible">
			<use xlink:href="#lend5" transform="scale(-4.36,-4.36) "/>
		</marker>
	</defs>
	<defs id="Filters">
		<filter id="filter_2">
			<feGaussianBlur stdDeviation="2"/>
		</filter>
	</defs>
	<g v:mID="0" v:index="1" v:groupContext="foregroundPage">
		<title>页-1</title>
		<v:pageProperties v:drawingScale="0.0393701" v:pageScale="0.0393701" v:drawingUnits="24" v:shadowOffsetX="8.50394"
				v:shadowOffsetY="-8.50394"/>
		<v:layer v:name="连接线" v:index="0"/>
		<g id="group37-1" transform="translate(3.02941,-5.3478)" v:mID="37" v:groupContext="group">
			<title>工作表.37</title>
			<g id="shape13-2" v:mID="13" v:groupContext="shape" transform="translate(347.244,-127.559)">
				<title>矩形.13</title>
				<desc>User B</desc>
				<v:userDefs>
					<v:ud v:nameU="visVersion" v:val="VT0(15):26"/>
				</v:userDefs>
				<v:textBlock v:margins="rect(4,4,4,4)" v:tabSpace="42.5197" v:verticalAlign="0"/>
				<v:textRect cx="74.4094" cy="205.175" width="148.82" height="70.8661"/>
				<g id="shadow13-3" v:groupContext="shadow" v:shadowOffsetX="0.345598" v:shadowOffsetY="-1.97279" v:shadowType="1"
						transform="matrix(1,0,0,1,0.345598,1.97279)" class="st1">
					<rect x="0" y="169.742" width="148.819" height="70.8661" rx="4.25197" ry="4.25197" class="st2"/>
				</g>
				<rect x="0" y="169.742" width="148.819" height="70.8661" rx="4.25197" ry="4.25197" class="st3"/>
				<text x="119.57" y="181.84" class="st4" v:langID="2052"><v:paragraph v:horizAlign="2"/><v:tabList/>User B</text>			</g>
			<g id="shape28-8" v:mID="28" v:groupContext="shape" transform="translate(354.331,-134.646)">
				<title>矩形.28</title>
				<v:userDefs>
					<v:ud v:nameU="visVersion" v:val="VT0(15):26"/>
				</v:userDefs>
				<g id="shadow28-9" v:groupContext="shadow" v:shadowOffsetX="0.345598" v:shadowOffsetY="-1.97279" v:shadowType="1"
						transform="matrix(1,0,0,1,0.345598,1.97279)" class="st1">
					<rect x="0" y="198.089" width="134.646" height="42.5197" rx="4.25197" ry="4.25197" class="st2"/>
				</g>
				<rect x="0" y="198.089" width="134.646" height="42.5197" rx="4.25197" ry="4.25197" class="st5"/>
			</g>
			<g id="shape10-13" v:mID="10" v:groupContext="shape" transform="translate(-7.99361E-014,-35.4331)">
				<title>矩形.10</title>
				<desc>User A1</desc>
				<v:userDefs>
					<v:ud v:nameU="visVersion" v:val="VT0(15):26"/>
				</v:userDefs>
				<v:textBlock v:margins="rect(4,4,4,4)" v:tabSpace="42.5197" v:verticalAlign="0"/>
				<v:textRect cx="102.756" cy="205.175" width="205.52" height="70.8661"/>
				<g id="shadow10-14" v:groupContext="shadow" v:shadowOffsetX="0.345598" v:shadowOffsetY="-1.97279" v:shadowType="1"
						transform="matrix(1,0,0,1,0.345598,1.97279)" class="st1">
					<rect x="0" y="169.742" width="205.512" height="70.8661" rx="4.25197" ry="4.25197" class="st2"/>
				</g>
				<rect x="0" y="169.742" width="205.512" height="70.8661" rx="4.25197" ry="4.25197" class="st3"/>
				<text x="171.27" y="181.84" class="st4" v:langID="2052"><v:paragraph v:horizAlign="2"/><v:tabList/>User A1</text>			</g>
			<g id="shape27-19" v:mID="27" v:groupContext="shape" transform="translate(7.08661,-42.5197)">
				<title>矩形.27</title>
				<v:userDefs>
					<v:ud v:nameU="visVersion" v:val="VT0(15):26"/>
				</v:userDefs>
				<g id="shadow27-20" v:groupContext="shadow" v:shadowOffsetX="0.345598" v:shadowOffsetY="-1.97279" v:shadowType="1"
						transform="matrix(1,0,0,1,0.345598,1.97279)" class="st1">
					<rect x="0" y="198.089" width="191.339" height="42.5197" rx="4.25197" ry="4.25197" class="st2"/>
				</g>
				<rect x="0" y="198.089" width="191.339" height="42.5197" rx="4.25197" ry="4.25197" class="st5"/>
			</g>
			<g id="shape2-24" v:mID="2" v:groupContext="shape" transform="translate(35.4331,-127.559)">
				<title>矩形.2</title>
				<desc>User A</desc>
				<v:userDefs>
					<v:ud v:nameU="visVersion" v:val="VT0(15):26"/>
				</v:userDefs>
				<v:textBlock v:margins="rect(4,4,4,4)" v:tabSpace="42.5197" v:verticalAlign="0"/>
				<v:textRect cx="148.819" cy="205.175" width="297.64" height="70.8661"/>
				<g id="shadow2-25" v:groupContext="shadow" v:shadowOffsetX="0.345598" v:shadowOffsetY="-1.97279" v:shadowType="1"
						transform="matrix(1,0,0,1,0.345598,1.97279)" class="st1">
					<rect x="0" y="169.742" width="297.638" height="70.8661" rx="4.25197" ry="4.25197" class="st2"/>
				</g>
				<rect x="0" y="169.742" width="297.638" height="70.8661" rx="4.25197" ry="4.25197" class="st3"/>
				<text x="267.89" y="181.84" class="st4" v:langID="2052"><v:paragraph v:horizAlign="2"/><v:tabList/>User A</text>			</g>
			<g id="shape26-30" v:mID="26" v:groupContext="shape" transform="translate(42.5197,-134.646)">
				<title>矩形.26</title>
				<v:userDefs>
					<v:ud v:nameU="visVersion" v:val="VT0(15):26"/>
				</v:userDefs>
				<g id="shadow26-31" v:groupContext="shadow" v:shadowOffsetX="0.345598" v:shadowOffsetY="-1.97279" v:shadowType="1"
						transform="matrix(1,0,0,1,0.345598,1.97279)" class="st1">
					<rect x="0" y="198.089" width="283.465" height="42.5197" rx="4.25197" ry="4.25197" class="st2"/>
				</g>
				<rect x="0" y="198.089" width="283.465" height="42.5197" rx="4.25197" ry="4.25197" class="st5"/>
			</g>
			<g id="shape3-35" v:mID="3" v:groupContext="shape" transform="translate(49.6063,-141.732)">
				<title>矩形</title>
				<desc>调度实体 scheduling entity</desc>
				<v:userDefs>
					<v:ud v:nameU="visVersion" v:val="VT0(15):26"/>
				</v:userDefs>
				<v:textBlock v:margins="rect(4,4,4,4)" v:tabSpace="42.5197"/>
				<v:textRect cx="42.5197" cy="226.435" width="85.04" height="28.3465"/>
				<g id="shadow3-36" v:groupContext="shadow" v:shadowOffsetX="0.345598" v:shadowOffsetY="-1.97279" v:shadowType="1"
						transform="matrix(1,0,0,1,0.345598,1.97279)" class="st1">
					<rect x="0" y="212.262" width="85.0394" height="28.3465" rx="2.83465" ry="2.83465" class="st2"/>
				</g>
				<rect x="0" y="212.262" width="85.0394" height="28.3465" rx="2.83465" ry="2.83465" class="st6"/>
				<text x="22.52" y="223.73" class="st7" v:langID="2052"><v:paragraph v:horizAlign="1"/><v:tabList/>调度实体<v:newlineChar/><tspan
							x="8.22" dy="1.229em" class="st8">s</tspan><tspan class="st8" v:langID="1033">cheduling entity</tspan></text>			</g>
			<g id="shape4-43" v:mID="4" v:groupContext="shape" transform="translate(141.732,-141.732)">
				<title>矩形.4</title>
				<desc>调度实体 scheduling entity</desc>
				<v:userDefs>
					<v:ud v:nameU="visVersion" v:val="VT0(15):26"/>
				</v:userDefs>
				<v:textBlock v:margins="rect(4,4,4,4)" v:tabSpace="42.5197"/>
				<v:textRect cx="42.5197" cy="226.435" width="85.04" height="28.3465"/>
				<g id="shadow4-44" v:groupContext="shadow" v:shadowOffsetX="0.345598" v:shadowOffsetY="-1.97279" v:shadowType="1"
						transform="matrix(1,0,0,1,0.345598,1.97279)" class="st1">
					<rect x="0" y="212.262" width="85.0394" height="28.3465" rx="2.83465" ry="2.83465" class="st2"/>
				</g>
				<rect x="0" y="212.262" width="85.0394" height="28.3465" rx="2.83465" ry="2.83465" class="st6"/>
				<text x="22.52" y="223.73" class="st7" v:langID="2052"><v:paragraph v:horizAlign="1"/><v:tabList/>调度实体<v:newlineChar/><tspan
							x="8.22" dy="1.229em" class="st8">scheduling entity</tspan></text>			</g>
			<g id="shape5-50" v:mID="5" v:groupContext="shape" transform="translate(233.858,-141.732)">
				<title>矩形.3</title>
				<desc>调度实体 scheduling entity</desc>
				<v:userDefs>
					<v:ud v:nameU="visVersion" v:val="VT0(15):26"/>
				</v:userDefs>
				<v:textBlock v:margins="rect(4,4,4,4)" v:tabSpace="42.5197"/>
				<v:textRect cx="42.5197" cy="226.435" width="85.04" height="28.3465"/>
				<g id="shadow5-51" v:groupContext="shadow" v:shadowOffsetX="0.345598" v:shadowOffsetY="-1.97279" v:shadowType="1"
						transform="matrix(1,0,0,1,0.345598,1.97279)" class="st1">
					<rect x="0" y="212.262" width="85.0394" height="28.3465" rx="2.83465" ry="2.83465" class="st2"/>
				</g>
				<rect x="0" y="212.262" width="85.0394" height="28.3465" rx="2.83465" ry="2.83465" class="st6"/>
				<text x="22.52" y="223.73" class="st7" v:langID="2052"><v:paragraph v:horizAlign="1"/><v:tabList/>调度实体<v:newlineChar/><tspan
							x="8.22" dy="1.229em" class="st8">scheduling entity</tspan></text>			</g>
			<g id="shape6-57" v:mID="6" v:groupContext="shape" transform="translate(31.8898,-2.84217E-014)">
				<title>矩形.6</title>
				<desc>进程 1</desc>
				<v:userDefs>
					<v:ud v:nameU="visVersion" v:val="VT0(15):26"/>
				</v:userDefs>
				<v:textBlock v:margins="rect(4,4,4,4)" v:tabSpace="42.5197"/>
				<v:textRect cx="24.8031" cy="229.978" width="49.61" height="21.2598"/>
				<g id="shadow6-58" v:groupContext="shadow" v:shadowOffsetX="0.345598" v:shadowOffsetY="-1.97279" v:shadowType="1"
						transform="matrix(1,0,0,1,0.345598,1.97279)" class="st1">
					<rect x="0" y="219.348" width="49.6063" height="21.2598" rx="2.83465" ry="2.83465" class="st2"/>
				</g>
				<rect x="0" y="219.348" width="49.6063" height="21.2598" rx="2.83465" ry="2.83465" class="st9"/>
				<text x="11.05" y="233.27" class="st7" v:langID="2052"><v:paragraph v:horizAlign="1"/><v:tabList/>进程<tspan
							class="st8"> </tspan><tspan class="st8">1</tspan></text>			</g>
			<g id="shape7-65" v:mID="7" v:groupContext="shape" transform="translate(124.016,-2.84217E-014)">
				<title>矩形.7</title>
				<desc>进程 2</desc>
				<v:userDefs>
					<v:ud v:nameU="visVersion" v:val="VT0(15):26"/>
				</v:userDefs>
				<v:textBlock v:margins="rect(4,4,4,4)" v:tabSpace="42.5197"/>
				<v:textRect cx="24.8031" cy="229.978" width="49.61" height="21.2598"/>
				<g id="shadow7-66" v:groupContext="shadow" v:shadowOffsetX="0.345598" v:shadowOffsetY="-1.97279" v:shadowType="1"
						transform="matrix(1,0,0,1,0.345598,1.97279)" class="st1">
					<rect x="0" y="219.348" width="49.6063" height="21.2598" rx="2.83465" ry="2.83465" class="st2"/>
				</g>
				<rect x="0" y="219.348" width="49.6063" height="21.2598" rx="2.83465" ry="2.83465" class="st9"/>
				<text x="11.05" y="233.27" class="st7" v:langID="2052"><v:paragraph v:horizAlign="1"/><v:tabList/>进程<tspan
							class="st8"> </tspan><tspan class="st8">2</tspan></text>			</g>
			<g id="shape8-73" v:mID="8" v:groupContext="shape" transform="translate(212.598,-85.0394)">
				<title>矩形.8</title>
				<desc>进程 3</desc>
				<v:userDefs>
					<v:ud v:nameU="visVersion" v:val="VT0(15):26"/>
				</v:userDefs>
				<v:textBlock v:margins="rect(4,4,4,4)" v:tabSpace="42.5197"/>
				<v:textRect cx="24.8031" cy="229.978" width="49.61" height="21.2598"/>
				<g id="shadow8-74" v:groupContext="shadow" v:shadowOffsetX="0.345598" v:shadowOffsetY="-1.97279" v:shadowType="1"
						transform="matrix(1,0,0,1,0.345598,1.97279)" class="st1">
					<rect x="0" y="219.348" width="49.6063" height="21.2598" rx="2.83465" ry="2.83465" class="st2"/>
				</g>
				<rect x="0" y="219.348" width="49.6063" height="21.2598" rx="2.83465" ry="2.83465" class="st9"/>
				<text x="11.05" y="233.27" class="st7" v:langID="2052"><v:paragraph v:horizAlign="1"/><v:tabList/>进程<tspan
							class="st8"> </tspan><tspan class="st8">3</tspan></text>			</g>
			<g id="shape9-81" v:mID="9" v:groupContext="shape" transform="translate(276.378,-85.0394)">
				<title>矩形.9</title>
				<desc>进程 4</desc>
				<v:userDefs>
					<v:ud v:nameU="visVersion" v:val="VT0(15):26"/>
				</v:userDefs>
				<v:textBlock v:margins="rect(4,4,4,4)" v:tabSpace="42.5197"/>
				<v:textRect cx="24.8031" cy="229.978" width="49.61" height="21.2598"/>
				<g id="shadow9-82" v:groupContext="shadow" v:shadowOffsetX="0.345598" v:shadowOffsetY="-1.97279" v:shadowType="1"
						transform="matrix(1,0,0,1,0.345598,1.97279)" class="st1">
					<rect x="0" y="219.348" width="49.6063" height="21.2598" rx="2.83465" ry="2.83465" class="st2"/>
				</g>
				<rect x="0" y="219.348" width="49.6063" height="21.2598" rx="2.83465" ry="2.83465" class="st9"/>
				<text x="11.05" y="233.27" class="st7" v:langID="2052"><v:paragraph v:horizAlign="1"/><v:tabList/>进程<tspan
							class="st8"> </tspan><tspan class="st8">4</tspan></text>			</g>
			<g id="shape11-89" v:mID="11" v:groupContext="shape" transform="translate(14.1732,-49.6063)">
				<title>矩形.5</title>
				<desc>调度实体 scheduling entity</desc>
				<v:userDefs>
					<v:ud v:nameU="visVersion" v:val="VT0(15):26"/>
				</v:userDefs>
				<v:textBlock v:margins="rect(4,4,4,4)" v:tabSpace="42.5197"/>
				<v:textRect cx="42.5197" cy="226.435" width="85.04" height="28.3465"/>
				<g id="shadow11-90" v:groupContext="shadow" v:shadowOffsetX="0.345598" v:shadowOffsetY="-1.97279" v:shadowType="1"
						transform="matrix(1,0,0,1,0.345598,1.97279)" class="st1">
					<rect x="0" y="212.262" width="85.0394" height="28.3465" rx="2.83465" ry="2.83465" class="st2"/>
				</g>
				<rect x="0" y="212.262" width="85.0394" height="28.3465" rx="2.83465" ry="2.83465" class="st6"/>
				<text x="22.52" y="223.73" class="st7" v:langID="2052"><v:paragraph v:horizAlign="1"/><v:tabList/>调度实体<v:newlineChar/><tspan
							x="8.22" dy="1.229em" class="st8">scheduling entity</tspan></text>			</g>
			<g id="shape12-96" v:mID="12" v:groupContext="shape" transform="translate(106.299,-49.6063)">
				<title>矩形.12</title>
				<desc>调度实体 scheduling entity</desc>
				<v:userDefs>
					<v:ud v:nameU="visVersion" v:val="VT0(15):26"/>
				</v:userDefs>
				<v:textBlock v:margins="rect(4,4,4,4)" v:tabSpace="42.5197"/>
				<v:textRect cx="42.5197" cy="226.435" width="85.04" height="28.3465"/>
				<g id="shadow12-97" v:groupContext="shadow" v:shadowOffsetX="0.345598" v:shadowOffsetY="-1.97279" v:shadowType="1"
						transform="matrix(1,0,0,1,0.345598,1.97279)" class="st1">
					<rect x="0" y="212.262" width="85.0394" height="28.3465" rx="2.83465" ry="2.83465" class="st2"/>
				</g>
				<rect x="0" y="212.262" width="85.0394" height="28.3465" rx="2.83465" ry="2.83465" class="st6"/>
				<text x="22.52" y="223.73" class="st7" v:langID="2052"><v:paragraph v:horizAlign="1"/><v:tabList/>调度实体<v:newlineChar/><tspan
							x="8.22" dy="1.229em" class="st8">scheduling entity</tspan></text>			</g>
			<g id="shape14-103" v:mID="14" v:groupContext="shape" transform="translate(361.417,-141.732)">
				<title>矩形.14</title>
				<desc>调度实体 scheduling entity</desc>
				<v:userDefs>
					<v:ud v:nameU="visVersion" v:val="VT0(15):26"/>
				</v:userDefs>
				<v:textBlock v:margins="rect(4,4,4,4)" v:tabSpace="42.5197"/>
				<v:textRect cx="42.5197" cy="226.435" width="85.04" height="28.3465"/>
				<g id="shadow14-104" v:groupContext="shadow" v:shadowOffsetX="0.345598" v:shadowOffsetY="-1.97279" v:shadowType="1"
						transform="matrix(1,0,0,1,0.345598,1.97279)" class="st1">
					<rect x="0" y="212.262" width="85.0394" height="28.3465" rx="2.83465" ry="2.83465" class="st2"/>
				</g>
				<rect x="0" y="212.262" width="85.0394" height="28.3465" rx="2.83465" ry="2.83465" class="st6"/>
				<text x="22.52" y="223.73" class="st7" v:langID="2052"><v:paragraph v:horizAlign="1"/><v:tabList/>调度实体<v:newlineChar/><tspan
							x="8.22" dy="1.229em" class="st8">scheduling entity</tspan></text>			</g>
			<g id="shape15-110" v:mID="15" v:groupContext="shape" transform="translate(396.85,-85.0394)">
				<title>矩形.15</title>
				<desc>进程 5</desc>
				<v:userDefs>
					<v:ud v:nameU="visVersion" v:val="VT0(15):26"/>
				</v:userDefs>
				<v:textBlock v:margins="rect(4,4,4,4)" v:tabSpace="42.5197"/>
				<v:textRect cx="24.8031" cy="229.978" width="49.61" height="21.2598"/>
				<g id="shadow15-111" v:groupContext="shadow" v:shadowOffsetX="0.345598" v:shadowOffsetY="-1.97279" v:shadowType="1"
						transform="matrix(1,0,0,1,0.345598,1.97279)" class="st1">
					<rect x="0" y="219.348" width="49.6063" height="21.2598" rx="2.83465" ry="2.83465" class="st2"/>
				</g>
				<rect x="0" y="219.348" width="49.6063" height="21.2598" rx="2.83465" ry="2.83465" class="st9"/>
				<text x="11.05" y="233.27" class="st7" v:langID="2052"><v:paragraph v:horizAlign="1"/><v:tabList/>进程<tspan
							class="st8"> </tspan><tspan class="st8">5</tspan></text>			</g>
			<g id="shape16-118" v:mID="16" v:groupContext="shape" transform="translate(248.031,-205.512)">
				<title>矩形.18</title>
				<desc>调度实体 scheduling entity</desc>
				<v:userDefs>
					<v:ud v:nameU="visVersion" v:val="VT0(15):26"/>
				</v:userDefs>
				<v:textBlock v:margins="rect(4,4,4,4)" v:tabSpace="42.5197"/>
				<v:textRect cx="42.5197" cy="226.435" width="85.04" height="28.3465"/>
				<g id="shadow16-119" v:groupContext="shadow" v:shadowOffsetX="0.345598" v:shadowOffsetY="-1.97279" v:shadowType="1"
						transform="matrix(1,0,0,1,0.345598,1.97279)" class="st1">
					<rect x="0" y="212.262" width="85.0394" height="28.3465" rx="2.83465" ry="2.83465" class="st2"/>
				</g>
				<rect x="0" y="212.262" width="85.0394" height="28.3465" rx="2.83465" ry="2.83465" class="st6"/>
				<text x="22.52" y="223.73" class="st7" v:langID="2052"><v:paragraph v:horizAlign="1"/><v:tabList/>调度实体<v:newlineChar/><tspan
							x="8.22" dy="1.229em" class="st8">scheduling entity</tspan></text>			</g>
			<g id="shape17-125" v:mID="17" v:groupContext="shape" transform="translate(411.024,-205.512)">
				<title>矩形.19</title>
				<desc>调度实体 scheduling entity</desc>
				<v:userDefs>
					<v:ud v:nameU="visVersion" v:val="VT0(15):26"/>
				</v:userDefs>
				<v:textBlock v:margins="rect(4,4,4,4)" v:tabSpace="42.5197"/>
				<v:textRect cx="42.5197" cy="226.435" width="85.04" height="28.3465"/>
				<g id="shadow17-126" v:groupContext="shadow" v:shadowOffsetX="0.345598" v:shadowOffsetY="-1.97279" v:shadowType="1"
						transform="matrix(1,0,0,1,0.345598,1.97279)" class="st1">
					<rect x="0" y="212.262" width="85.0394" height="28.3465" rx="2.83465" ry="2.83465" class="st2"/>
				</g>
				<rect x="0" y="212.262" width="85.0394" height="28.3465" rx="2.83465" ry="2.83465" class="st6"/>
				<text x="22.52" y="223.73" class="st7" v:langID="2052"><v:paragraph v:horizAlign="1"/><v:tabList/>调度实体<v:newlineChar/><tspan
							x="8.22" dy="1.229em" class="st8">scheduling entity</tspan></text>			</g>
			<g id="shape18-132" v:mID="18" v:groupContext="shape" v:layerMember="0" transform="translate(92.126,-106.299)">
				<title>底部到顶部固定 2</title>
				<v:userDefs>
					<v:ud v:nameU="TextPos" v:val="VT0(1):26"/>
					<v:ud v:nameU="Offset" v:val="VT0(0.19685039370079):24"/>
					<v:ud v:nameU="Scale" v:val="VT0(1):26"/>
					<v:ud v:nameU="AntiScale" v:val="VT0(1):26"/>
					<v:ud v:nameU="visVersion" v:val="VT0(15):26"/>
				</v:userDefs>
				<path d="M0 205.18 L0 224.17 A2.26772 2.26772 -180 0 0 2.27 226.44 L8.36 226.44 A2.26772 2.26772 0 0 1 10.63 228.7
							 L10.63 234.89" class="st10"/>
			</g>
			<g id="shape19-138" v:mID="19" v:groupContext="shape" v:layerMember="0" transform="translate(184.252,-106.299)">
				<title>底部到顶部固定 2.21</title>
				<v:userDefs>
					<v:ud v:nameU="TextPos" v:val="VT0(1):26"/>
					<v:ud v:nameU="Offset" v:val="VT0(0.19685039370079):24"/>
					<v:ud v:nameU="Scale" v:val="VT0(1):26"/>
					<v:ud v:nameU="AntiScale" v:val="VT0(1):26"/>
					<v:ud v:nameU="visVersion" v:val="VT0(15):26"/>
				</v:userDefs>
				<path d="M0 205.18 L0 224.17 A2.26772 2.26772 -180 0 0 2.27 226.44 L50.88 226.44 A2.26772 2.26772 0 0 1 53.15 228.7
							 L53.15 234.89" class="st10"/>
			</g>
			<g id="shape20-143" v:mID="20" v:groupContext="shape" v:layerMember="0" transform="translate(276.378,-106.299)">
				<title>底部到顶部固定 2.22</title>
				<v:userDefs>
					<v:ud v:nameU="TextPos" v:val="VT0(1):26"/>
					<v:ud v:nameU="Offset" v:val="VT0(0.19685039370079):24"/>
					<v:ud v:nameU="Scale" v:val="VT0(1):26"/>
					<v:ud v:nameU="AntiScale" v:val="VT0(1):26"/>
					<v:ud v:nameU="visVersion" v:val="VT0(15):26"/>
				</v:userDefs>
				<path d="M0 205.18 L0 224.17 A2.26772 2.26772 -180 0 0 2.27 226.44 L22.54 226.44 A2.26772 2.26772 0 0 1 24.8 228.7
							 L24.8 234.89" class="st10"/>
			</g>
			<g id="shape21-148" v:mID="21" v:groupContext="shape" v:layerMember="0"
					transform="translate(-183.915,191.002) rotate(-90) scale(-1,1)">
				<title>直线连接线</title>
				<v:userDefs>
					<v:ud v:nameU="visVersion" v:val="VT0(15):26"/>
				</v:userDefs>
				<path d="M0 240.61 L22.62 240.61" class="st10"/>
			</g>
			<g id="shape22-153" v:mID="22" v:groupContext="shape" v:layerMember="0"
					transform="translate(-91.7894,191.002) rotate(-90) scale(-1,1)">
				<title>直线连接线.25</title>
				<v:userDefs>
					<v:ud v:nameU="visVersion" v:val="VT0(15):26"/>
				</v:userDefs>
				<path d="M0 240.61 L22.62 240.61" class="st10"/>
			</g>
			<g id="shape23-158" v:mID="23" v:groupContext="shape" v:layerMember="0" transform="translate(403.937,-106.299)">
				<title>底部到顶部固定 2.26</title>
				<v:userDefs>
					<v:ud v:nameU="TextPos" v:val="VT0(1):26"/>
					<v:ud v:nameU="Offset" v:val="VT0(0.19685039370079):24"/>
					<v:ud v:nameU="Scale" v:val="VT0(1):26"/>
					<v:ud v:nameU="AntiScale" v:val="VT0(1):26"/>
					<v:ud v:nameU="visVersion" v:val="VT0(15):26"/>
				</v:userDefs>
				<path d="M0 205.18 L0 224.17 A2.26772 2.26772 -180 0 0 2.27 226.44 L15.45 226.44 A2.26772 2.26772 0 0 1 17.72 228.7
							 L17.72 234.89" class="st10"/>
			</g>
			<g id="shape24-163" v:mID="24" v:groupContext="shape" v:layerMember="0"
					transform="translate(92.4626,77.6161) rotate(-90)">
				<title>曲线连接 2</title>
				<v:userDefs>
					<v:ud v:nameU="visVersion" v:val="VT0(15):26"/>
				</v:userDefs>
				<path d="M56.69 240.61 A60.2362 60.2362 0 0 1 5.17 243.06 L4.85 242.9" class="st12"/>
			</g>
			<g id="shape25-169" v:mID="25" v:groupContext="shape" v:layerMember="0"
					transform="translate(736.671,20.9232) rotate(90)">
				<title>曲线连接 2.28</title>
				<v:userDefs>
					<v:ud v:nameU="visVersion" v:val="VT0(15):26"/>
				</v:userDefs>
				<path d="M0 240.61 A60.2362 60.2362 0 0 1 51.52 238.16 L51.85 238.31" class="st12"/>
			</g>
			<g id="shape29-174" v:mID="29" v:groupContext="shape" transform="translate(368.504,-42.5197)">
				<title>矩形.29</title>
				<v:userDefs>
					<v:ud v:nameU="visVersion" v:val="VT0(15):26"/>
				</v:userDefs>
				<g id="shadow29-175" v:groupContext="shadow" v:shadowOffsetX="0.345598" v:shadowOffsetY="-1.97279" v:shadowType="1"
						transform="matrix(1,0,0,1,0.345598,1.97279)" class="st1">
					<rect x="0" y="226.435" width="42.5197" height="14.1732" class="st2"/>
				</g>
				<rect x="0" y="226.435" width="42.5197" height="14.1732" class="st9"/>
			</g>
			<g id="shape30-179" v:mID="30" v:groupContext="shape" transform="translate(368.504,-21.2598)">
				<title>矩形.30</title>
				<v:userDefs>
					<v:ud v:nameU="visVersion" v:val="VT0(15):26"/>
				</v:userDefs>
				<g id="shadow30-180" v:groupContext="shadow" v:shadowOffsetX="0.345598" v:shadowOffsetY="-1.97279" v:shadowType="1"
						transform="matrix(1,0,0,1,0.345598,1.97279)" class="st1">
					<rect x="0" y="226.435" width="42.5197" height="14.1732" class="st2"/>
				</g>
				<rect x="0" y="226.435" width="42.5197" height="14.1732" class="st13"/>
			</g>
			<g id="shape31-184" v:mID="31" v:groupContext="shape" transform="translate(368.504,-2.84217E-014)">
				<title>矩形.31</title>
				<v:userDefs>
					<v:ud v:nameU="visVersion" v:val="VT0(15):26"/>
				</v:userDefs>
				<g id="shadow31-185" v:groupContext="shadow" v:shadowOffsetX="0.345598" v:shadowOffsetY="-1.97279" v:shadowType="1"
						transform="matrix(1,0,0,1,0.345598,1.97279)" class="st1">
					<rect x="0" y="226.435" width="42.5197" height="14.1732" class="st2"/>
				</g>
				<rect x="0" y="226.435" width="42.5197" height="14.1732" class="st14"/>
			</g>
			<g id="shape32-189" v:mID="32" v:groupContext="shape" transform="translate(411.024,-42.5197)">
				<title>工作表.32</title>
				<desc>进程</desc>
				<v:textBlock v:margins="rect(4,4,4,4)" v:tabSpace="42.5197"/>
				<v:textRect cx="15.7323" cy="233.565" width="31.47" height="14.0866"/>
				<rect x="0" y="226.522" width="31.4646" height="14.0866" class="st15"/>
				<text x="5.73" y="236.57" class="st7" v:langID="2052"><v:paragraph v:horizAlign="1"/><v:tabList/>进程</text>			</g>
			<g id="shape33-192" v:mID="33" v:groupContext="shape" transform="translate(411.024,-21.2598)">
				<title>工作表.33</title>
				<desc>任务组</desc>
				<v:textBlock v:margins="rect(4,4,4,4)" v:tabSpace="42.5197"/>
				<v:textRect cx="21.2598" cy="233.565" width="42.52" height="14.0866"/>
				<rect x="0" y="226.522" width="42.5197" height="14.0866" class="st15"/>
				<text x="6.26" y="236.57" class="st7" v:langID="2052"><v:paragraph v:horizAlign="1"/><v:tabList/>任务组</text>			</g>
			<g id="shape34-195" v:mID="34" v:groupContext="shape" transform="translate(411.024,0)">
				<title>工作表.34</title>
				<desc>CFS运行队列</desc>
				<v:textBlock v:margins="rect(4,4,4,4)" v:tabSpace="42.5197"/>
				<v:textRect cx="31.8898" cy="233.565" width="63.78" height="14.0866"/>
				<rect x="0" y="226.522" width="63.7795" height="14.0866" class="st15"/>
				<text x="4.39" y="236.57" class="st7" v:langID="2052"><v:paragraph v:horizAlign="1"/><v:tabList/>CFS运行队列</text>			</g>
		</g>
	</g>
</svg>
