<?xml version="1.0" encoding="UTF-8" standalone="no"?>
<!DOCTYPE svg PUBLIC "-//W3C//DTD SVG 1.1//EN" "http://www.w3.org/Graphics/SVG/1.1/DTD/svg11.dtd">
<!-- 由 Microsoft Visio, SVG Export 生成 init_root_task_group.svg 页-1 -->
<svg xmlns="http://www.w3.org/2000/svg" xmlns:xlink="http://www.w3.org/1999/xlink" xmlns:ev="http://www.w3.org/2001/xml-events"
		xmlns:v="http://schemas.microsoft.com/visio/2003/SVGExtensions/" width="10.172in" height="2.57822in"
		viewBox="0 0 732.382 185.632" xml:space="preserve" color-interpolation-filters="sRGB" class="st17">
	<v:documentProperties v:langID="2052" v:metric="true" v:viewMarkup="false"/>

	<style type="text/css">
	<![CDATA[
		.st1 {visibility:visible}
		.st2 {fill:#5b9bd5;fill-opacity:0.22;filter:url(#filter_2);stroke:#5b9bd5;stroke-opacity:0.22}
		.st3 {fill:#dae2f3;stroke:#000000;stroke-width:0.25}
		.st4 {fill:#000000;font-family:Consolas;font-size:0.833336em}
		.st5 {fill:#f7cbac;stroke:#000000;stroke-width:0.5}
		.st6 {fill:#7effff;stroke:#007f7f;stroke-width:0.25}
		.st7 {fill:none;stroke:none;stroke-width:0.25}
		.st8 {fill:#000000;font-family:Consolas;font-size:0.75em}
		.st9 {fill:#e2efd9;stroke:#000000;stroke-width:0.25}
		.st10 {font-family:宋体;font-size:1em}
		.st11 {fill:#f7cbac;stroke:#c55a11;stroke-width:0.25}
		.st12 {marker-end:url(#mrkr5-123);stroke:#000000;stroke-linecap:round;stroke-linejoin:round;stroke-width:0.5}
		.st13 {fill:#000000;fill-opacity:1;stroke:#000000;stroke-opacity:1;stroke-width:0.16556291390728}
		.st14 {stroke:#000000;stroke-linecap:round;stroke-linejoin:round;stroke-width:0.5}
		.st15 {fill:#000000;stroke:#c7c8c8;stroke-width:0.25}
		.st16 {fill:#ffffff;font-family:Consolas;font-size:0.833336em}
		.st17 {fill:none;fill-rule:evenodd;font-size:12px;overflow:visible;stroke-linecap:square;stroke-miterlimit:3}
	]]>
	</style>

	<defs id="Markers">
		<g id="lend5">
			<path d="M 2 1 L 0 0 L 1.98117 -0.993387 C 1.67173 -0.364514 1.67301 0.372642 1.98465 1.00043 " style="stroke:none"/>
		</g>
		<marker id="mrkr5-123" class="st13" v:arrowType="5" v:arrowSize="2" v:setback="10.57" refX="-10.57" orient="auto"
				markerUnits="strokeWidth" overflow="visible">
			<use xlink:href="#lend5" transform="scale(-6.04,-6.04) "/>
		</marker>
	</defs>
	<defs id="Filters">
		<filter id="filter_2">
			<feGaussianBlur stdDeviation="2"/>
		</filter>
	</defs>
	<g v:mID="0" v:index="1" v:groupContext="foregroundPage">
		<title>页-1</title>
		<v:pageProperties v:drawingScale="0.0393701" v:pageScale="0.0393701" v:drawingUnits="24" v:shadowOffsetX="8.50394"
				v:shadowOffsetY="-8.50394"/>
		<v:layer v:name="连接线" v:index="0"/>
		<g id="group48-1" transform="translate(34.1732,-35.0994)" v:mID="48" v:groupContext="group">
			<title>工作表.48</title>
			<g id="shape1-2" v:mID="1" v:groupContext="shape" transform="translate(0,-28.3465)">
				<title>矩形</title>
				<desc>root_task_group</desc>
				<v:userDefs>
					<v:ud v:nameU="visVersion" v:val="VT0(15):26"/>
				</v:userDefs>
				<v:textBlock v:margins="rect(4,4,4,4)" v:tabSpace="42.5197" v:verticalAlign="0"/>
				<v:textRect cx="77.9528" cy="143.112" width="155.91" height="85.0394"/>
				<g id="shadow1-3" v:groupContext="shadow" v:shadowOffsetX="0.345598" v:shadowOffsetY="-1.97279" v:shadowType="1"
						transform="matrix(1,0,0,1,0.345598,1.97279)" class="st1">
					<rect x="0" y="100.592" width="155.906" height="85.0394" rx="2.83465" ry="2.83465" class="st2"/>
				</g>
				<rect x="0" y="100.592" width="155.906" height="85.0394" rx="2.83465" ry="2.83465" class="st3"/>
				<text x="4" y="113.59" class="st4" v:langID="2052"><v:paragraph/><v:tabList/>root_task_group</text>			</g>
			<g id="shape2-8" v:mID="2" v:groupContext="shape" transform="translate(92.126,-63.7795)">
				<title>正方形</title>
				<v:userDefs>
					<v:ud v:nameU="visVersion" v:val="VT0(15):26"/>
				</v:userDefs>
				<g id="shadow2-9" v:groupContext="shadow" v:shadowOffsetX="0.345598" v:shadowOffsetY="-1.97279" v:shadowType="1"
						transform="matrix(1,0,0,1,0.345598,1.97279)" class="st1">
					<rect x="0" y="171.458" width="14.1732" height="14.1732" rx="1.41732" ry="1.41732" class="st2"/>
				</g>
				<rect x="0" y="171.458" width="14.1732" height="14.1732" rx="1.41732" ry="1.41732" class="st5"/>
			</g>
			<g id="shape3-13" v:mID="3" v:groupContext="shape" transform="translate(106.299,-63.7795)">
				<title>正方形.3</title>
				<v:userDefs>
					<v:ud v:nameU="visVersion" v:val="VT0(15):26"/>
				</v:userDefs>
				<g id="shadow3-14" v:groupContext="shadow" v:shadowOffsetX="0.345598" v:shadowOffsetY="-1.97279" v:shadowType="1"
						transform="matrix(1,0,0,1,0.345598,1.97279)" class="st1">
					<rect x="0" y="171.458" width="14.1732" height="14.1732" rx="1.41732" ry="1.41732" class="st2"/>
				</g>
				<rect x="0" y="171.458" width="14.1732" height="14.1732" rx="1.41732" ry="1.41732" class="st5"/>
			</g>
			<g id="shape4-18" v:mID="4" v:groupContext="shape" transform="translate(120.472,-63.7795)">
				<title>正方形.4</title>
				<v:userDefs>
					<v:ud v:nameU="visVersion" v:val="VT0(15):26"/>
				</v:userDefs>
				<g id="shadow4-19" v:groupContext="shadow" v:shadowOffsetX="0.345598" v:shadowOffsetY="-1.97279" v:shadowType="1"
						transform="matrix(1,0,0,1,0.345598,1.97279)" class="st1">
					<rect x="0" y="171.458" width="14.1732" height="14.1732" rx="1.41732" ry="1.41732" class="st2"/>
				</g>
				<rect x="0" y="171.458" width="14.1732" height="14.1732" rx="1.41732" ry="1.41732" class="st5"/>
			</g>
			<g id="shape5-23" v:mID="5" v:groupContext="shape" transform="translate(134.646,-63.7795)">
				<title>正方形.5</title>
				<v:userDefs>
					<v:ud v:nameU="visVersion" v:val="VT0(15):26"/>
				</v:userDefs>
				<g id="shadow5-24" v:groupContext="shadow" v:shadowOffsetX="0.345598" v:shadowOffsetY="-1.97279" v:shadowType="1"
						transform="matrix(1,0,0,1,0.345598,1.97279)" class="st1">
					<rect x="0" y="171.458" width="14.1732" height="14.1732" rx="1.41732" ry="1.41732" class="st2"/>
				</g>
				<rect x="0" y="171.458" width="14.1732" height="14.1732" rx="1.41732" ry="1.41732" class="st5"/>
			</g>
			<g id="shape6-28" v:mID="6" v:groupContext="shape" transform="translate(92.126,-35.4331)">
				<title>正方形.6</title>
				<v:userDefs>
					<v:ud v:nameU="visVersion" v:val="VT0(15):26"/>
				</v:userDefs>
				<g id="shadow6-29" v:groupContext="shadow" v:shadowOffsetX="0.345598" v:shadowOffsetY="-1.97279" v:shadowType="1"
						transform="matrix(1,0,0,1,0.345598,1.97279)" class="st1">
					<rect x="0" y="171.458" width="14.1732" height="14.1732" rx="2.83465" ry="2.83465" class="st2"/>
				</g>
				<rect x="0" y="171.458" width="14.1732" height="14.1732" rx="2.83465" ry="2.83465" class="st6"/>
			</g>
			<g id="shape7-33" v:mID="7" v:groupContext="shape" transform="translate(106.299,-35.4331)">
				<title>正方形.7</title>
				<v:userDefs>
					<v:ud v:nameU="visVersion" v:val="VT0(15):26"/>
				</v:userDefs>
				<g id="shadow7-34" v:groupContext="shadow" v:shadowOffsetX="0.345598" v:shadowOffsetY="-1.97279" v:shadowType="1"
						transform="matrix(1,0,0,1,0.345598,1.97279)" class="st1">
					<rect x="0" y="171.458" width="14.1732" height="14.1732" rx="2.83465" ry="2.83465" class="st2"/>
				</g>
				<rect x="0" y="171.458" width="14.1732" height="14.1732" rx="2.83465" ry="2.83465" class="st6"/>
			</g>
			<g id="shape8-38" v:mID="8" v:groupContext="shape" transform="translate(120.472,-35.4331)">
				<title>正方形.8</title>
				<v:userDefs>
					<v:ud v:nameU="visVersion" v:val="VT0(15):26"/>
				</v:userDefs>
				<g id="shadow8-39" v:groupContext="shadow" v:shadowOffsetX="0.345598" v:shadowOffsetY="-1.97279" v:shadowType="1"
						transform="matrix(1,0,0,1,0.345598,1.97279)" class="st1">
					<rect x="0" y="171.458" width="14.1732" height="14.1732" rx="2.83465" ry="2.83465" class="st2"/>
				</g>
				<rect x="0" y="171.458" width="14.1732" height="14.1732" rx="2.83465" ry="2.83465" class="st6"/>
			</g>
			<g id="shape9-43" v:mID="9" v:groupContext="shape" transform="translate(134.646,-35.4331)">
				<title>正方形.9</title>
				<v:userDefs>
					<v:ud v:nameU="visVersion" v:val="VT0(15):26"/>
				</v:userDefs>
				<g id="shadow9-44" v:groupContext="shadow" v:shadowOffsetX="0.345598" v:shadowOffsetY="-1.97279" v:shadowType="1"
						transform="matrix(1,0,0,1,0.345598,1.97279)" class="st1">
					<rect x="0" y="171.458" width="14.1732" height="14.1732" rx="2.83465" ry="2.83465" class="st2"/>
				</g>
				<rect x="0" y="171.458" width="14.1732" height="14.1732" rx="2.83465" ry="2.83465" class="st6"/>
			</g>
			<g id="shape10-48" v:mID="10" v:groupContext="shape" transform="translate(24.8031,-63.7795)">
				<title>工作表.10</title>
				<desc>**cfs_rq</desc>
				<v:textBlock v:margins="rect(4,4,4,4)" v:tabSpace="42.5197"/>
				<v:textRect cx="24.8031" cy="178.545" width="49.61" height="14.1732"/>
				<rect x="0" y="171.458" width="49.6063" height="14.1732" class="st7"/>
				<text x="5.01" y="181.25" class="st8" v:langID="2052"><v:paragraph v:horizAlign="1"/><v:tabList/>**cfs_rq</text>			</g>
			<g id="shape11-51" v:mID="11" v:groupContext="shape" transform="translate(28.3465,-35.4331)">
				<title>工作表.11</title>
				<desc>**se</desc>
				<v:textBlock v:margins="rect(4,4,4,4)" v:tabSpace="42.5197"/>
				<v:textRect cx="24.8031" cy="178.545" width="49.61" height="14.1732"/>
				<rect x="0" y="171.458" width="49.6063" height="14.1732" class="st7"/>
				<text x="14.91" y="181.25" class="st8" v:langID="2052"><v:paragraph v:horizAlign="1"/><v:tabList/>**se</text>			</g>
			<g id="shape12-54" v:mID="12" v:groupContext="shape" transform="translate(170.079,-14.1732)">
				<title>矩形.12</title>
				<desc>CPU 0运行队列</desc>
				<v:userDefs>
					<v:ud v:nameU="visVersion" v:val="VT0(15):26"/>
				</v:userDefs>
				<v:textBlock v:margins="rect(4,4,4,4)" v:tabSpace="42.5197" v:verticalAlign="0"/>
				<v:textRect cx="60.2362" cy="146.655" width="120.48" height="77.9528"/>
				<g id="shadow12-55" v:groupContext="shadow" v:shadowOffsetX="0.345598" v:shadowOffsetY="-1.97279" v:shadowType="1"
						transform="matrix(1,0,0,1,0.345598,1.97279)" class="st1">
					<rect x="0" y="107.679" width="120.472" height="77.9528" rx="2.83465" ry="2.83465" class="st2"/>
				</g>
				<rect x="0" y="107.679" width="120.472" height="77.9528" rx="2.83465" ry="2.83465" class="st9"/>
				<text x="48.98" y="121.73" class="st4" v:langID="2052"><v:paragraph v:horizAlign="2"/><v:tabList/>CPU 0<tspan
							class="st10">运行队列</tspan></text>			</g>
			<g id="shape13-61" v:mID="13" v:groupContext="shape" transform="translate(177.165,-21.2598)">
				<title>矩形.13</title>
				<desc>struct cfs_rq</desc>
				<v:userDefs>
					<v:ud v:nameU="visVersion" v:val="VT0(15):26"/>
				</v:userDefs>
				<v:textBlock v:margins="rect(4,4,4,4)" v:tabSpace="42.5197" v:verticalAlign="0"/>
				<v:textRect cx="53.1496" cy="164.372" width="106.3" height="42.5197"/>
				<g id="shadow13-62" v:groupContext="shadow" v:shadowOffsetX="0.345598" v:shadowOffsetY="-1.97279" v:shadowType="1"
						transform="matrix(1,0,0,1,0.345598,1.97279)" class="st1">
					<rect x="0" y="143.112" width="106.299" height="42.5197" rx="2.83465" ry="2.83465" class="st2"/>
				</g>
				<rect x="0" y="143.112" width="106.299" height="42.5197" rx="2.83465" ry="2.83465" class="st11"/>
				<text x="17.41" y="156.11" class="st4" v:langID="2052"><v:paragraph v:horizAlign="1"/><v:tabList/>struct cfs_rq</text>			</g>
			<g id="shape14-67" v:mID="14" v:groupContext="shape" transform="translate(184.252,-28.3465)">
				<title>工作表.14</title>
				<desc>*tg</desc>
				<v:textBlock v:margins="rect(4,4,4,4)" v:tabSpace="42.5197"/>
				<v:textRect cx="14.1732" cy="178.545" width="28.35" height="14.1732"/>
				<rect x="0" y="171.458" width="28.3465" height="14.1732" class="st7"/>
				<text x="6.75" y="181.25" class="st8" v:langID="2052"><v:paragraph v:horizAlign="1"/><v:tabList/>*tg</text>			</g>
			<g id="shape15-70" v:mID="15" v:groupContext="shape" transform="translate(304.724,-14.1732)">
				<title>矩形.15</title>
				<desc>CPU 1运行队列</desc>
				<v:userDefs>
					<v:ud v:nameU="visVersion" v:val="VT0(15):26"/>
				</v:userDefs>
				<v:textBlock v:margins="rect(4,4,4,4)" v:tabSpace="42.5197" v:verticalAlign="0"/>
				<v:textRect cx="60.2362" cy="146.655" width="120.48" height="77.9528"/>
				<g id="shadow15-71" v:groupContext="shadow" v:shadowOffsetX="0.345598" v:shadowOffsetY="-1.97279" v:shadowType="1"
						transform="matrix(1,0,0,1,0.345598,1.97279)" class="st1">
					<rect x="0" y="107.679" width="120.472" height="77.9528" rx="2.83465" ry="2.83465" class="st2"/>
				</g>
				<rect x="0" y="107.679" width="120.472" height="77.9528" rx="2.83465" ry="2.83465" class="st9"/>
				<text x="48.98" y="121.73" class="st4" v:langID="2052"><v:paragraph v:horizAlign="2"/><v:tabList/>CPU 1<tspan
							class="st10">运行队列</tspan></text>			</g>
			<g id="shape16-77" v:mID="16" v:groupContext="shape" transform="translate(311.811,-21.2598)">
				<title>矩形.16</title>
				<desc>struct cfs_rq</desc>
				<v:userDefs>
					<v:ud v:nameU="visVersion" v:val="VT0(15):26"/>
				</v:userDefs>
				<v:textBlock v:margins="rect(4,4,4,4)" v:tabSpace="42.5197" v:verticalAlign="0"/>
				<v:textRect cx="53.1496" cy="164.372" width="106.3" height="42.5197"/>
				<g id="shadow16-78" v:groupContext="shadow" v:shadowOffsetX="0.345598" v:shadowOffsetY="-1.97279" v:shadowType="1"
						transform="matrix(1,0,0,1,0.345598,1.97279)" class="st1">
					<rect x="0" y="143.112" width="106.299" height="42.5197" rx="2.83465" ry="2.83465" class="st2"/>
				</g>
				<rect x="0" y="143.112" width="106.299" height="42.5197" rx="2.83465" ry="2.83465" class="st11"/>
				<text x="17.41" y="156.11" class="st4" v:langID="2052"><v:paragraph v:horizAlign="1"/><v:tabList/>struct cfs_rq</text>			</g>
			<g id="shape17-83" v:mID="17" v:groupContext="shape" transform="translate(318.898,-28.3465)">
				<title>工作表.17</title>
				<desc>*tg</desc>
				<v:textBlock v:margins="rect(4,4,4,4)" v:tabSpace="42.5197"/>
				<v:textRect cx="14.1732" cy="178.545" width="28.35" height="14.1732"/>
				<rect x="0" y="171.458" width="28.3465" height="14.1732" class="st7"/>
				<text x="6.75" y="181.25" class="st8" v:langID="2052"><v:paragraph v:horizAlign="1"/><v:tabList/>*tg</text>			</g>
			<g id="shape18-86" v:mID="18" v:groupContext="shape" transform="translate(439.37,-14.1732)">
				<title>矩形.18</title>
				<desc>CPU 2运行队列</desc>
				<v:userDefs>
					<v:ud v:nameU="visVersion" v:val="VT0(15):26"/>
				</v:userDefs>
				<v:textBlock v:margins="rect(4,4,4,4)" v:tabSpace="42.5197" v:verticalAlign="0"/>
				<v:textRect cx="60.2362" cy="146.655" width="120.48" height="77.9528"/>
				<g id="shadow18-87" v:groupContext="shadow" v:shadowOffsetX="0.345598" v:shadowOffsetY="-1.97279" v:shadowType="1"
						transform="matrix(1,0,0,1,0.345598,1.97279)" class="st1">
					<rect x="0" y="107.679" width="120.472" height="77.9528" rx="2.83465" ry="2.83465" class="st2"/>
				</g>
				<rect x="0" y="107.679" width="120.472" height="77.9528" rx="2.83465" ry="2.83465" class="st9"/>
				<text x="48.98" y="121.73" class="st4" v:langID="2052"><v:paragraph v:horizAlign="2"/><v:tabList/>CPU 2<tspan
							class="st10">运行队列</tspan></text>			</g>
			<g id="shape19-93" v:mID="19" v:groupContext="shape" transform="translate(446.457,-21.2598)">
				<title>矩形.19</title>
				<desc>struct cfs_rq</desc>
				<v:userDefs>
					<v:ud v:nameU="visVersion" v:val="VT0(15):26"/>
				</v:userDefs>
				<v:textBlock v:margins="rect(4,4,4,4)" v:tabSpace="42.5197" v:verticalAlign="0"/>
				<v:textRect cx="53.1496" cy="164.372" width="106.3" height="42.5197"/>
				<g id="shadow19-94" v:groupContext="shadow" v:shadowOffsetX="0.345598" v:shadowOffsetY="-1.97279" v:shadowType="1"
						transform="matrix(1,0,0,1,0.345598,1.97279)" class="st1">
					<rect x="0" y="143.112" width="106.299" height="42.5197" rx="2.83465" ry="2.83465" class="st2"/>
				</g>
				<rect x="0" y="143.112" width="106.299" height="42.5197" rx="2.83465" ry="2.83465" class="st11"/>
				<text x="17.41" y="156.11" class="st4" v:langID="2052"><v:paragraph v:horizAlign="1"/><v:tabList/>struct cfs_rq</text>			</g>
			<g id="shape20-99" v:mID="20" v:groupContext="shape" transform="translate(453.543,-28.3465)">
				<title>工作表.20</title>
				<desc>*tg</desc>
				<v:textBlock v:margins="rect(4,4,4,4)" v:tabSpace="42.5197"/>
				<v:textRect cx="14.1732" cy="178.545" width="28.35" height="14.1732"/>
				<rect x="0" y="171.458" width="28.3465" height="14.1732" class="st7"/>
				<text x="6.75" y="181.25" class="st8" v:langID="2052"><v:paragraph v:horizAlign="1"/><v:tabList/>*tg</text>			</g>
			<g id="shape21-102" v:mID="21" v:groupContext="shape" transform="translate(574.016,-14.1732)">
				<title>矩形.21</title>
				<desc>CPU 3运行队列</desc>
				<v:userDefs>
					<v:ud v:nameU="visVersion" v:val="VT0(15):26"/>
				</v:userDefs>
				<v:textBlock v:margins="rect(4,4,4,4)" v:tabSpace="42.5197" v:verticalAlign="0"/>
				<v:textRect cx="60.2362" cy="146.655" width="120.48" height="77.9528"/>
				<g id="shadow21-103" v:groupContext="shadow" v:shadowOffsetX="0.345598" v:shadowOffsetY="-1.97279" v:shadowType="1"
						transform="matrix(1,0,0,1,0.345598,1.97279)" class="st1">
					<rect x="0" y="107.679" width="120.472" height="77.9528" rx="2.83465" ry="2.83465" class="st2"/>
				</g>
				<rect x="0" y="107.679" width="120.472" height="77.9528" rx="2.83465" ry="2.83465" class="st9"/>
				<text x="48.98" y="121.73" class="st4" v:langID="2052"><v:paragraph v:horizAlign="2"/><v:tabList/>CPU 3<tspan
							class="st10">运行队列</tspan></text>			</g>
			<g id="shape22-109" v:mID="22" v:groupContext="shape" transform="translate(581.102,-21.2598)">
				<title>矩形.22</title>
				<desc>struct cfs_rq</desc>
				<v:userDefs>
					<v:ud v:nameU="visVersion" v:val="VT0(15):26"/>
				</v:userDefs>
				<v:textBlock v:margins="rect(4,4,4,4)" v:tabSpace="42.5197" v:verticalAlign="0"/>
				<v:textRect cx="53.1496" cy="164.372" width="106.3" height="42.5197"/>
				<g id="shadow22-110" v:groupContext="shadow" v:shadowOffsetX="0.345598" v:shadowOffsetY="-1.97279" v:shadowType="1"
						transform="matrix(1,0,0,1,0.345598,1.97279)" class="st1">
					<rect x="0" y="143.112" width="106.299" height="42.5197" rx="2.83465" ry="2.83465" class="st2"/>
				</g>
				<rect x="0" y="143.112" width="106.299" height="42.5197" rx="2.83465" ry="2.83465" class="st11"/>
				<text x="17.41" y="156.11" class="st4" v:langID="2052"><v:paragraph v:horizAlign="1"/><v:tabList/>struct cfs_rq</text>			</g>
			<g id="shape23-115" v:mID="23" v:groupContext="shape" transform="translate(588.189,-28.3465)">
				<title>工作表.23</title>
				<desc>*tg</desc>
				<v:textBlock v:margins="rect(4,4,4,4)" v:tabSpace="42.5197"/>
				<v:textRect cx="14.1732" cy="178.545" width="28.35" height="14.1732"/>
				<rect x="0" y="171.458" width="28.3465" height="14.1732" class="st7"/>
				<text x="6.75" y="181.25" class="st8" v:langID="2052"><v:paragraph v:horizAlign="1"/><v:tabList/>*tg</text>			</g>
			<g id="shape26-118" v:mID="26" v:groupContext="shape" v:layerMember="0" transform="translate(198.425,-28.3465)">
				<title>底部到侧边 1</title>
				<v:userDefs>
					<v:ud v:nameU="TextPos" v:val="VT0(2):26"/>
					<v:ud v:nameU="Scale" v:val="VT0(1):26"/>
					<v:ud v:nameU="AntiScale" v:val="VT0(1):26"/>
					<v:ud v:nameU="visVersion" v:val="VT0(15):26"/>
				</v:userDefs>
				<path d="M0 185.63 L0 215.4 A5.66929 5.66929 0 0 1 -5.67 221.06 L-206.93 221.06 A5.66929 5.66929 0 0 1 -212.6 215.4
							 L-212.6 148.78 A5.66929 5.66929 0 0 1 -206.93 143.11 L-203.71 143.11" class="st12"/>
			</g>
			<g id="shape28-124" v:mID="28" v:groupContext="shape" v:layerMember="0" transform="translate(333.071,-28.3465)">
				<title>底部到侧边 2</title>
				<v:userDefs>
					<v:ud v:nameU="TextPos" v:val="VT0(2):26"/>
					<v:ud v:nameU="Scale" v:val="VT0(1):26"/>
					<v:ud v:nameU="AntiScale" v:val="VT0(1):26"/>
					<v:ud v:nameU="visVersion" v:val="VT0(15):26"/>
				</v:userDefs>
				<path d="M0 185.63 L0 222.48 A5.66929 5.66929 0 0 1 -5.67 228.15 L-341.57 228.15 A5.66929 5.66929 0 0 1 -347.24 222.48
							 L-347.24 148.78 A5.66929 5.66929 0 0 1 -341.57 143.11 L-338.36 143.11" class="st12"/>
			</g>
			<g id="shape29-129" v:mID="29" v:groupContext="shape" v:layerMember="0" transform="translate(467.717,-28.3465)">
				<title>底部到侧边 2.29</title>
				<v:userDefs>
					<v:ud v:nameU="TextPos" v:val="VT0(2):26"/>
					<v:ud v:nameU="Scale" v:val="VT0(1):26"/>
					<v:ud v:nameU="AntiScale" v:val="VT0(1):26"/>
					<v:ud v:nameU="visVersion" v:val="VT0(15):26"/>
				</v:userDefs>
				<path d="M0 185.63 L0 229.57 A5.66929 5.66929 0 0 1 -5.67 235.24 L-476.22 235.24 A5.66929 5.66929 0 0 1 -481.89 229.57
							 L-481.89 148.78 A5.66929 5.66929 0 0 1 -476.22 143.11 L-473 143.11" class="st12"/>
			</g>
			<g id="shape30-134" v:mID="30" v:groupContext="shape" v:layerMember="0" transform="translate(602.362,-28.3465)">
				<title>底部到侧边 2.30</title>
				<v:userDefs>
					<v:ud v:nameU="TextPos" v:val="VT0(2):26"/>
					<v:ud v:nameU="Scale" v:val="VT0(1):26"/>
					<v:ud v:nameU="AntiScale" v:val="VT0(1):26"/>
					<v:ud v:nameU="visVersion" v:val="VT0(15):26"/>
				</v:userDefs>
				<path d="M0 185.63 L0 236.66 A5.66929 5.66929 0 0 1 -5.67 242.32 L-610.87 242.32 A5.66929 5.66929 0 0 1 -616.54 236.66
							 L-616.54 148.78 A5.66929 5.66929 0 0 1 -610.87 143.11 L-607.65 143.11" class="st12"/>
			</g>
			<g id="shape35-139" v:mID="35" v:groupContext="shape" v:layerMember="0" transform="translate(99.2126,-77.9528)">
				<title>顶部/底部到侧边</title>
				<v:userDefs>
					<v:ud v:nameU="TextPos" v:val="VT0(1):5"/>
					<v:ud v:nameU="visVersion" v:val="VT0(15):26"/>
				</v:userDefs>
				<path d="M0 185.63 L0 144.53 A1.41732 1.41732 0 0 1 1.42 143.11 L70.87 143.11" class="st14"/>
			</g>
			<g id="shape36-142" v:mID="36" v:groupContext="shape" v:layerMember="0"
					transform="translate(297.304,-70.0178) rotate(43.2643)">
				<title>直线连接线</title>
				<v:userDefs>
					<v:ud v:nameU="visVersion" v:val="VT0(15):26"/>
				</v:userDefs>
				<path d="M0 185.63 L77.43 185.63" class="st12"/>
			</g>
			<g id="shape37-147" v:mID="37" v:groupContext="shape" v:layerMember="0" transform="translate(113.386,-77.9528)">
				<title>顶部/底部到侧边.37</title>
				<v:userDefs>
					<v:ud v:nameU="TextPos" v:val="VT0(1):5"/>
					<v:ud v:nameU="visVersion" v:val="VT0(15):26"/>
				</v:userDefs>
				<path d="M0 185.63 L0 137.44 A1.41732 1.41732 0 0 1 1.42 136.03 L191.34 136.03" class="st14"/>
			</g>
			<g id="shape38-150" v:mID="38" v:groupContext="shape" v:layerMember="0"
					transform="translate(439.681,-69.3865) rotate(46.6366)">
				<title>直线连接线.38</title>
				<v:userDefs>
					<v:ud v:nameU="visVersion" v:val="VT0(15):26"/>
				</v:userDefs>
				<path d="M0 185.63 L82.44 185.63" class="st12"/>
			</g>
			<g id="shape39-155" v:mID="39" v:groupContext="shape" v:layerMember="0" transform="translate(127.559,-77.9528)">
				<title>顶部/底部到侧边.39</title>
				<v:userDefs>
					<v:ud v:nameU="TextPos" v:val="VT0(1):5"/>
					<v:ud v:nameU="visVersion" v:val="VT0(15):26"/>
				</v:userDefs>
				<path d="M0 185.63 L0 130.36 A1.41732 1.41732 0 0 1 1.42 128.94 L311.81 128.94" class="st14"/>
			</g>
			<g id="shape40-158" v:mID="40" v:groupContext="shape" v:layerMember="0" transform="translate(141.732,-77.9528)">
				<title>顶部/底部到侧边.40</title>
				<v:userDefs>
					<v:ud v:nameU="TextPos" v:val="VT0(1):5"/>
					<v:ud v:nameU="visVersion" v:val="VT0(15):26"/>
				</v:userDefs>
				<path d="M0 185.63 L0 123.27 A1.41732 1.41732 0 0 1 1.42 121.85 L432.28 121.85" class="st14"/>
			</g>
			<g id="shape41-161" v:mID="41" v:groupContext="shape" v:layerMember="0"
					transform="translate(580.81,-69.2381) rotate(49.6355)">
				<title>直线连接线.41</title>
				<v:userDefs>
					<v:ud v:nameU="visVersion" v:val="VT0(15):26"/>
				</v:userDefs>
				<path d="M0 185.63 L87.72 185.63" class="st12"/>
			</g>
			<g id="shape42-166" v:mID="42" v:groupContext="shape" v:layerMember="0"
					transform="translate(720.903,-69.6046) rotate(52.3058)">
				<title>直线连接线.42</title>
				<v:userDefs>
					<v:ud v:nameU="visVersion" v:val="VT0(15):26"/>
				</v:userDefs>
				<path d="M0 185.63 L93.23 185.63" class="st12"/>
			</g>
			<g id="shape43-171" v:mID="43" v:groupContext="shape" transform="translate(99.2126,-2.84217E-014)">
				<title>矩形.43</title>
				<desc>NULL</desc>
				<v:userDefs>
					<v:ud v:nameU="visVersion" v:val="VT0(15):26"/>
				</v:userDefs>
				<v:textBlock v:margins="rect(4,4,4,4)" v:tabSpace="42.5197"/>
				<v:textRect cx="21.2598" cy="178.545" width="42.52" height="14.1732"/>
				<g id="shadow43-172" v:groupContext="shadow" v:shadowOffsetX="0.345598" v:shadowOffsetY="-1.97279" v:shadowType="1"
						transform="matrix(1,0,0,1,0.345598,1.97279)" class="st1">
					<rect x="0" y="171.458" width="42.5197" height="14.1732" rx="2.83465" ry="2.83465" class="st2"/>
				</g>
				<rect x="0" y="171.458" width="42.5197" height="14.1732" rx="2.83465" ry="2.83465" class="st15"/>
				<text x="10.26" y="181.55" class="st16" v:langID="2052"><v:paragraph v:horizAlign="1"/><v:tabList/>NULL</text>			</g>
			<g id="shape44-177" v:mID="44" v:groupContext="shape" v:layerMember="0"
					transform="translate(230.474,18.9372) rotate(45)">
				<title>直线连接线.44</title>
				<v:userDefs>
					<v:ud v:nameU="visVersion" v:val="VT0(15):26"/>
				</v:userDefs>
				<path d="M0 185.63 L24.78 185.63" class="st12"/>
			</g>
			<g id="shape45-182" v:mID="45" v:groupContext="shape" v:layerMember="0"
					transform="translate(289.491,91.4967) rotate(71.5651)">
				<title>直线连接线.45</title>
				<v:userDefs>
					<v:ud v:nameU="visVersion" v:val="VT0(15):26"/>
				</v:userDefs>
				<path d="M0 185.63 L17.12 185.63" class="st12"/>
			</g>
			<g id="shape46-187" v:mID="46" v:groupContext="shape" v:layerMember="0"
					transform="translate(-48.5466,91.4967) rotate(-71.5651) scale(-1,1)">
				<title>直线连接线.46</title>
				<v:userDefs>
					<v:ud v:nameU="visVersion" v:val="VT0(15):26"/>
				</v:userDefs>
				<path d="M0 185.63 L17.12 185.63" class="st12"/>
			</g>
			<g id="shape47-192" v:mID="47" v:groupContext="shape" v:layerMember="0"
					transform="translate(10.4709,18.9372) rotate(-45) scale(-1,1)">
				<title>直线连接线.47</title>
				<v:userDefs>
					<v:ud v:nameU="visVersion" v:val="VT0(15):26"/>
				</v:userDefs>
				<path d="M0 185.63 L24.78 185.63" class="st12"/>
			</g>
		</g>
	</g>
</svg>
