<?xml version="1.0" encoding="UTF-8" standalone="no"?>
<!DOCTYPE svg PUBLIC "-//W3C//DTD SVG 1.1//EN" "http://www.w3.org/Graphics/SVG/1.1/DTD/svg11.dtd">
<!-- 由 Microsoft Visio, SVG Export 生成 redblack_tree_sched_entity.svg 页-1 -->
<svg xmlns="http://www.w3.org/2000/svg" xmlns:xlink="http://www.w3.org/1999/xlink" xmlns:ev="http://www.w3.org/2001/xml-events"
		xmlns:v="http://schemas.microsoft.com/visio/2003/SVGExtensions/" width="5.7932in" height="3.52437in"
		viewBox="0 0 417.11 253.754" xml:space="preserve" color-interpolation-filters="sRGB" class="st21">
	<v:documentProperties v:langID="2052" v:metric="true" v:viewMarkup="false"/>

	<style type="text/css">
	<![CDATA[
		.st1 {visibility:visible}
		.st2 {fill:#5b9bd5;fill-opacity:0.22;filter:url(#filter_2);stroke:#5b9bd5;stroke-opacity:0.22}
		.st3 {fill:#f2f2f2;stroke:#c7c8c8;stroke-width:1}
		.st4 {fill:#000000;font-family:Times New Roman;font-size:0.833336em}
		.st5 {font-family:宋体;font-size:1em}
		.st6 {fill:#ffffff;stroke:#000000;stroke-width:0.5}
		.st7 {fill:#000000;font-family:宋体;font-size:0.75em}
		.st8 {fill:#595959;stroke:#000000;stroke-width:0.25}
		.st9 {fill:#ffffff;font-family:Consolas;font-size:0.666664em}
		.st10 {fill:#000000;stroke:#c7c8c8;stroke-width:0.25}
		.st11 {fill:#ff0000;stroke:#c7c8c8;stroke-width:0.25}
		.st12 {marker-end:url(#mrkr5-64);stroke:#000000;stroke-linecap:round;stroke-linejoin:round;stroke-width:0.5}
		.st13 {fill:#000000;fill-opacity:1;stroke:#000000;stroke-opacity:1;stroke-width:0.16556291390728}
		.st14 {fill:#d8d8d8;stroke:#000000;stroke-width:0.25}
		.st15 {fill:#000000;font-family:Consolas;font-size:0.666664em}
		.st16 {marker-end:url(#mrkr5-135);stroke:#000000;stroke-linecap:round;stroke-linejoin:round;stroke-width:0.5}
		.st17 {fill:none;stroke:none;stroke-width:0.25}
		.st18 {fill:#000000;font-family:Consolas;font-size:0.75em}
		.st19 {marker-start:url(#mrkr5-168);stroke:#ed7d31;stroke-linecap:round;stroke-linejoin:round;stroke-width:0.5}
		.st20 {fill:#ed7d31;fill-opacity:1;stroke:#ed7d31;stroke-opacity:1;stroke-width:0.16556291390728}
		.st21 {fill:none;fill-rule:evenodd;font-size:12px;overflow:visible;stroke-linecap:square;stroke-miterlimit:3}
	]]>
	</style>

	<defs id="Markers">
		<g id="lend5">
			<path d="M 2 1 L 0 0 L 1.98117 -0.993387 C 1.67173 -0.364515 1.67301 0.372641 1.98465 1.00043 " style="stroke:none"/>
		</g>
		<marker id="mrkr5-64" class="st13" v:arrowType="5" v:arrowSize="2" v:setback="10.57" refX="-10.57" orient="auto"
				markerUnits="strokeWidth" overflow="visible">
			<use xlink:href="#lend5" transform="scale(-6.04,-6.04) "/>
		</marker>
		<marker id="mrkr5-135" class="st13" v:arrowType="5" v:arrowSize="2" v:setback="9.85" refX="-9.85" orient="auto"
				markerUnits="strokeWidth" overflow="visible">
			<use xlink:href="#lend5" transform="scale(-6.04,-6.04) "/>
		</marker>
		<marker id="mrkr5-168" class="st20" v:arrowType="5" v:arrowSize="2" v:setback="9.85" refX="9.85" orient="auto"
				markerUnits="strokeWidth" overflow="visible">
			<use xlink:href="#lend5" transform="scale(6.04) "/>
		</marker>
	</defs>
	<defs id="Filters">
		<filter id="filter_2">
			<feGaussianBlur stdDeviation="2"/>
		</filter>
	</defs>
	<g v:mID="0" v:index="1" v:groupContext="foregroundPage">
		<title>页-1</title>
		<v:pageProperties v:drawingScale="0.0393701" v:pageScale="0.0393701" v:drawingUnits="24" v:shadowOffsetX="8.50394"
				v:shadowOffsetY="-8.50394"/>
		<v:layer v:name="连接线" v:index="0"/>
		<g id="group59-1" transform="translate(0.25,-5.4728)" v:mID="59" v:groupContext="group">
			<title>工作表.59</title>
			<g id="shape45-2" v:mID="45" v:groupContext="shape" transform="translate(91.7261,2.84217E-14)">
				<title>矩形</title>
				<desc>CFS运行队列</desc>
				<v:userDefs>
					<v:ud v:nameU="visVersion" v:val="VT0(15):26"/>
				</v:userDefs>
				<v:textBlock v:margins="rect(4,4,4,4)" v:tabSpace="42.5197" v:verticalAlign="0"/>
				<v:textRect cx="160.644" cy="143.912" width="321.29" height="219.685"/>
				<g id="shadow45-3" v:groupContext="shadow" v:shadowOffsetX="0.345598" v:shadowOffsetY="-1.97279" v:shadowType="1"
						transform="matrix(1,0,0,1,0.345598,1.97279)" class="st1">
					<rect x="0" y="34.0693" width="321.288" height="219.685" rx="2.83465" ry="2.83465" class="st2"/>
				</g>
				<rect x="0" y="34.0693" width="321.288" height="219.685" rx="2.83465" ry="2.83465" class="st3"/>
				<text x="259.5" y="47.94" class="st4" v:langID="2052"><v:paragraph v:horizAlign="2"/><v:tabList/>CFS<tspan
							class="st5">运行队列</tspan></text>			</g>
			<g id="shape39-9" v:mID="39" v:groupContext="shape" transform="translate(347.23,-96.378)">
				<title>矩形.39</title>
				<desc>调度实体</desc>
				<v:userDefs>
					<v:ud v:nameU="visVersion" v:val="VT0(15):26"/>
				</v:userDefs>
				<v:textBlock v:margins="rect(4,4,4,4)" v:tabSpace="42.5197" v:verticalAlign="0"/>
				<v:textRect cx="29.5225" cy="236.038" width="59.05" height="35.4331"/>
				<g id="shadow39-10" v:groupContext="shadow" v:shadowOffsetX="0.345598" v:shadowOffsetY="-1.97279" v:shadowType="1"
						transform="matrix(1,0,0,1,0.345598,1.97279)" class="st1">
					<rect x="0" y="218.321" width="59.0451" height="35.4331" rx="2.83465" ry="2.83465" class="st2"/>
				</g>
				<rect x="0" y="218.321" width="59.0451" height="35.4331" rx="2.83465" ry="2.83465" class="st6"/>
				<text x="4" y="230.42" class="st7" v:langID="2052"><v:paragraph/><v:tabList/>调度实体</text>			</g>
			<g id="shape3-15" v:mID="3" v:groupContext="shape" transform="translate(102.223,-95.811)">
				<title>矩形.3</title>
				<desc>调度实体</desc>
				<v:userDefs>
					<v:ud v:nameU="visVersion" v:val="VT0(15):26"/>
				</v:userDefs>
				<v:textBlock v:margins="rect(4,4,4,4)" v:tabSpace="42.5197" v:verticalAlign="0"/>
				<v:textRect cx="32.8028" cy="236.038" width="65.61" height="35.4331"/>
				<g id="shadow3-16" v:groupContext="shadow" v:shadowOffsetX="0.345598" v:shadowOffsetY="-1.97279" v:shadowType="1"
						transform="matrix(1,0,0,1,0.345598,1.97279)" class="st1">
					<rect x="0" y="218.321" width="65.6056" height="35.4331" rx="2.83465" ry="2.83465" class="st2"/>
				</g>
				<rect x="0" y="218.321" width="65.6056" height="35.4331" rx="2.83465" ry="2.83465" class="st6"/>
				<text x="4" y="230.42" class="st7" v:langID="2052"><v:paragraph/><v:tabList/>调度实体</text>			</g>
			<g id="shape4-21" v:mID="4" v:groupContext="shape" transform="translate(118.355,-99.2126)">
				<title>工作表.4</title>
				<desc>run_node</desc>
				<v:textBlock v:margins="rect(4,4,4,4)" v:tabSpace="42.5197"/>
				<v:textRect cx="22.7685" cy="246.668" width="45.54" height="14.1732"/>
				<rect x="0" y="239.581" width="45.537" height="14.1732" rx="1.41732" ry="1.41732" class="st8"/>
				<text x="5.18" y="249.07" class="st9" v:langID="2052"><v:paragraph v:horizAlign="1"/><v:tabList/>run_node</text>			</g>
			<g id="shape5-24" v:mID="5" v:groupContext="shape" transform="translate(249.18,-156.252)">
				<title>正方形</title>
				<v:userDefs>
					<v:ud v:nameU="visVersion" v:val="VT0(15):26"/>
				</v:userDefs>
				<g id="shadow5-25" v:groupContext="shadow" v:shadowOffsetX="0.345598" v:shadowOffsetY="-1.97279" v:shadowType="1"
						transform="matrix(1,0,0,1,0.345598,1.97279)" class="st1">
					<rect x="0" y="240.275" width="13.1211" height="13.4794" rx="1.41732" ry="1.41732" class="st2"/>
				</g>
				<rect x="0" y="240.275" width="13.1211" height="13.4794" rx="1.41732" ry="1.41732" class="st10"/>
			</g>
			<g id="shape6-29" v:mID="6" v:groupContext="shape" transform="translate(183.574,-99.5595)">
				<title>正方形.6</title>
				<v:userDefs>
					<v:ud v:nameU="visVersion" v:val="VT0(15):26"/>
				</v:userDefs>
				<g id="shadow6-30" v:groupContext="shadow" v:shadowOffsetX="0.345598" v:shadowOffsetY="-1.97279" v:shadowType="1"
						transform="matrix(1,0,0,1,0.345598,1.97279)" class="st1">
					<rect x="0" y="240.275" width="13.1211" height="13.4794" rx="1.41732" ry="1.41732" class="st2"/>
				</g>
				<rect x="0" y="240.275" width="13.1211" height="13.4794" rx="1.41732" ry="1.41732" class="st11"/>
			</g>
			<g id="shape7-34" v:mID="7" v:groupContext="shape" transform="translate(314.785,-99.5595)">
				<title>正方形.7</title>
				<v:userDefs>
					<v:ud v:nameU="visVersion" v:val="VT0(15):26"/>
				</v:userDefs>
				<g id="shadow7-35" v:groupContext="shadow" v:shadowOffsetX="0.345598" v:shadowOffsetY="-1.97279" v:shadowType="1"
						transform="matrix(1,0,0,1,0.345598,1.97279)" class="st1">
					<rect x="0" y="240.275" width="13.1211" height="13.4794" rx="1.41732" ry="1.41732" class="st2"/>
				</g>
				<rect x="0" y="240.275" width="13.1211" height="13.4794" rx="1.41732" ry="1.41732" class="st11"/>
			</g>
			<g id="shape8-39" v:mID="8" v:groupContext="shape" transform="translate(150.771,-57.0398)">
				<title>正方形.8</title>
				<v:userDefs>
					<v:ud v:nameU="visVersion" v:val="VT0(15):26"/>
				</v:userDefs>
				<g id="shadow8-40" v:groupContext="shadow" v:shadowOffsetX="0.345598" v:shadowOffsetY="-1.97279" v:shadowType="1"
						transform="matrix(1,0,0,1,0.345598,1.97279)" class="st1">
					<rect x="0" y="240.275" width="13.1211" height="13.4794" rx="1.41732" ry="1.41732" class="st2"/>
				</g>
				<rect x="0" y="240.275" width="13.1211" height="13.4794" rx="1.41732" ry="1.41732" class="st10"/>
			</g>
			<g id="shape9-44" v:mID="9" v:groupContext="shape" transform="translate(216.377,-57.0398)">
				<title>正方形.9</title>
				<v:userDefs>
					<v:ud v:nameU="visVersion" v:val="VT0(15):26"/>
				</v:userDefs>
				<g id="shadow9-45" v:groupContext="shadow" v:shadowOffsetX="0.345598" v:shadowOffsetY="-1.97279" v:shadowType="1"
						transform="matrix(1,0,0,1,0.345598,1.97279)" class="st1">
					<rect x="0" y="240.275" width="13.1211" height="13.4794" rx="1.41732" ry="1.41732" class="st2"/>
				</g>
				<rect x="0" y="240.275" width="13.1211" height="13.4794" rx="1.41732" ry="1.41732" class="st10"/>
			</g>
			<g id="shape10-49" v:mID="10" v:groupContext="shape" transform="translate(281.982,-57.0398)">
				<title>正方形.10</title>
				<v:userDefs>
					<v:ud v:nameU="visVersion" v:val="VT0(15):26"/>
				</v:userDefs>
				<g id="shadow10-50" v:groupContext="shadow" v:shadowOffsetX="0.345598" v:shadowOffsetY="-1.97279" v:shadowType="1"
						transform="matrix(1,0,0,1,0.345598,1.97279)" class="st1">
					<rect x="0" y="240.275" width="13.1211" height="13.4794" rx="1.41732" ry="1.41732" class="st2"/>
				</g>
				<rect x="0" y="240.275" width="13.1211" height="13.4794" rx="1.41732" ry="1.41732" class="st10"/>
			</g>
			<g id="shape11-54" v:mID="11" v:groupContext="shape" transform="translate(345.976,-57.0398)">
				<title>正方形.11</title>
				<v:userDefs>
					<v:ud v:nameU="visVersion" v:val="VT0(15):26"/>
				</v:userDefs>
				<g id="shadow11-55" v:groupContext="shadow" v:shadowOffsetX="0.345598" v:shadowOffsetY="-1.97279" v:shadowType="1"
						transform="matrix(1,0,0,1,0.345598,1.97279)" class="st1">
					<rect x="0" y="240.275" width="13.1211" height="13.4794" rx="1.41732" ry="1.41732" class="st2"/>
				</g>
				<rect x="0" y="240.275" width="13.1211" height="13.4794" rx="1.41732" ry="1.41732" class="st10"/>
			</g>
			<g id="shape12-59" v:mID="12" v:groupContext="shape" v:layerMember="0"
					transform="translate(116.156,-114.412) rotate(-33.3724) scale(-1,1)">
				<title>直线连接线</title>
				<v:userDefs>
					<v:ud v:nameU="visVersion" v:val="VT0(15):26"/>
				</v:userDefs>
				<path d="M0 253.75 L73.27 253.75" class="st12"/>
			</g>
			<g id="shape13-65" v:mID="13" v:groupContext="shape" v:layerMember="0"
					transform="translate(395.325,-114.412) rotate(33.3724)">
				<title>直线连接线.13</title>
				<v:userDefs>
					<v:ud v:nameU="visVersion" v:val="VT0(15):26"/>
				</v:userDefs>
				<path d="M0 253.75 L73.27 253.75" class="st12"/>
			</g>
			<g id="shape14-70" v:mID="14" v:groupContext="shape" v:layerMember="0"
					transform="translate(21.9307,-35.8018) rotate(-41.5184) scale(-1,1)">
				<title>直线连接线.14</title>
				<v:userDefs>
					<v:ud v:nameU="visVersion" v:val="VT0(15):26"/>
				</v:userDefs>
				<path d="M0 253.75 L38.53 253.75" class="st12"/>
			</g>
			<g id="shape15-75" v:mID="15" v:groupContext="shape" v:layerMember="0"
					transform="translate(358.338,-35.8018) rotate(41.5184)">
				<title>直线连接线.15</title>
				<v:userDefs>
					<v:ud v:nameU="visVersion" v:val="VT0(15):26"/>
				</v:userDefs>
				<path d="M0 253.75 L38.53 253.75" class="st12"/>
			</g>
			<g id="shape16-80" v:mID="16" v:groupContext="shape" v:layerMember="0"
					transform="translate(153.142,-35.8018) rotate(-41.5184) scale(-1,1)">
				<title>直线连接线.16</title>
				<v:userDefs>
					<v:ud v:nameU="visVersion" v:val="VT0(15):26"/>
				</v:userDefs>
				<path d="M0 253.75 L38.53 253.75" class="st12"/>
			</g>
			<g id="shape17-85" v:mID="17" v:groupContext="shape" v:layerMember="0"
					transform="translate(494.261,-31.5243) rotate(42.9553)">
				<title>直线连接线.17</title>
				<v:userDefs>
					<v:ud v:nameU="visVersion" v:val="VT0(15):26"/>
				</v:userDefs>
				<path d="M0 253.75 L37.33 253.75" class="st12"/>
			</g>
			<g id="shape18-90" v:mID="18" v:groupContext="shape" v:layerMember="0" transform="translate(163.892,-106.299)">
				<title>直线连接线.18</title>
				<v:userDefs>
					<v:ud v:nameU="visVersion" v:val="VT0(15):26"/>
				</v:userDefs>
				<path d="M0 253.75 L14.4 253.75" class="st12"/>
			</g>
			<g id="shape21-95" v:mID="21" v:groupContext="shape" transform="translate(107.34,-4.53543)">
				<title>矩形.21</title>
				<desc>调度实体</desc>
				<v:userDefs>
					<v:ud v:nameU="visVersion" v:val="VT0(15):26"/>
				</v:userDefs>
				<v:textBlock v:margins="rect(4,4,4,4)" v:tabSpace="42.5197" v:verticalAlign="0"/>
				<v:textRect cx="29.5225" cy="236.038" width="59.05" height="35.4331"/>
				<g id="shadow21-96" v:groupContext="shadow" v:shadowOffsetX="0.345598" v:shadowOffsetY="-1.97279" v:shadowType="1"
						transform="matrix(1,0,0,1,0.345598,1.97279)" class="st1">
					<rect x="0" y="218.321" width="59.0451" height="35.4331" rx="2.83465" ry="2.83465" class="st2"/>
				</g>
				<rect x="0" y="218.321" width="59.0451" height="35.4331" rx="2.83465" ry="2.83465" class="st6"/>
				<text x="4" y="230.42" class="st7" v:langID="2052"><v:paragraph/><v:tabList/>调度实体</text>			</g>
			<g id="shape22-101" v:mID="22" v:groupContext="shape" transform="translate(349.854,-99.2126)">
				<title>工作表.22</title>
				<desc>run_node</desc>
				<v:textBlock v:margins="rect(4,4,4,4)" v:tabSpace="42.5197"/>
				<v:textRect cx="22.7685" cy="246.668" width="45.54" height="14.1732"/>
				<rect x="0" y="239.581" width="45.537" height="14.1732" rx="1.41732" ry="1.41732" class="st14"/>
				<text x="5.18" y="249.07" class="st15" v:langID="2052"><v:paragraph v:horizAlign="1"/><v:tabList/>run_node</text>			</g>
			<g id="shape25-104" v:mID="25" v:groupContext="shape" v:layerMember="0"
					transform="translate(349.854,-106.299) scale(-1,1)">
				<title>直线-曲线连接线.25</title>
				<v:userDefs>
					<v:ud v:nameU="Scale" v:val="VT0(1):26"/>
					<v:ud v:nameU="AntiScale" v:val="VT0(1):26"/>
					<v:ud v:nameU="visVersion" v:val="VT0(15):26"/>
				</v:userDefs>
				<path d="M0 253.75 L4.65 253.75 L10.21 253.75 L16.66 253.75" class="st12"/>
			</g>
			<g id="shape26-109" v:mID="26" v:groupContext="shape" transform="translate(118.355,-7.08661)">
				<title>工作表.26</title>
				<desc>run_node</desc>
				<v:textBlock v:margins="rect(4,4,4,4)" v:tabSpace="42.5197"/>
				<v:textRect cx="22.7685" cy="246.668" width="45.54" height="14.1732"/>
				<rect x="0" y="239.581" width="45.537" height="14.1732" rx="1.41732" ry="1.41732" class="st14"/>
				<text x="5.18" y="249.07" class="st15" v:langID="2052"><v:paragraph v:horizAlign="1"/><v:tabList/>run_node</text>			</g>
			<g id="shape28-112" v:mID="28" v:groupContext="shape" transform="translate(186.067,-4.3937)">
				<title>矩形.28</title>
				<desc>调度实体</desc>
				<v:userDefs>
					<v:ud v:nameU="visVersion" v:val="VT0(15):26"/>
				</v:userDefs>
				<v:textBlock v:margins="rect(4,4,4,4)" v:tabSpace="42.5197" v:verticalAlign="0"/>
				<v:textRect cx="29.5225" cy="236.038" width="59.05" height="35.4331"/>
				<g id="shadow28-113" v:groupContext="shadow" v:shadowOffsetX="0.345598" v:shadowOffsetY="-1.97279" v:shadowType="1"
						transform="matrix(1,0,0,1,0.345598,1.97279)" class="st1">
					<rect x="0" y="218.321" width="59.0451" height="35.4331" rx="2.83465" ry="2.83465" class="st2"/>
				</g>
				<rect x="0" y="218.321" width="59.0451" height="35.4331" rx="2.83465" ry="2.83465" class="st6"/>
				<text x="4" y="230.42" class="st7" v:langID="2052"><v:paragraph/><v:tabList/>调度实体</text>			</g>
			<g id="shape29-118" v:mID="29" v:groupContext="shape" transform="translate(264.794,-4.3937)">
				<title>矩形.29</title>
				<desc>调度实体</desc>
				<v:userDefs>
					<v:ud v:nameU="visVersion" v:val="VT0(15):26"/>
				</v:userDefs>
				<v:textBlock v:margins="rect(4,4,4,4)" v:tabSpace="42.5197" v:verticalAlign="0"/>
				<v:textRect cx="29.5225" cy="236.038" width="59.05" height="35.4331"/>
				<g id="shadow29-119" v:groupContext="shadow" v:shadowOffsetX="0.345598" v:shadowOffsetY="-1.97279" v:shadowType="1"
						transform="matrix(1,0,0,1,0.345598,1.97279)" class="st1">
					<rect x="0" y="218.321" width="59.0451" height="35.4331" rx="2.83465" ry="2.83465" class="st2"/>
				</g>
				<rect x="0" y="218.321" width="59.0451" height="35.4331" rx="2.83465" ry="2.83465" class="st6"/>
				<text x="4" y="230.42" class="st7" v:langID="2052"><v:paragraph/><v:tabList/>调度实体</text>			</g>
			<g id="shape30-124" v:mID="30" v:groupContext="shape" transform="translate(336.314,-4.3937)">
				<title>矩形.30</title>
				<desc>调度实体</desc>
				<v:userDefs>
					<v:ud v:nameU="visVersion" v:val="VT0(15):26"/>
				</v:userDefs>
				<v:textBlock v:margins="rect(4,4,4,4)" v:tabSpace="42.5197" v:verticalAlign="0"/>
				<v:textRect cx="29.5225" cy="236.038" width="59.05" height="35.4331"/>
				<g id="shadow30-125" v:groupContext="shadow" v:shadowOffsetX="0.345598" v:shadowOffsetY="-1.97279" v:shadowType="1"
						transform="matrix(1,0,0,1,0.345598,1.97279)" class="st1">
					<rect x="0" y="218.321" width="59.0451" height="35.4331" rx="2.83465" ry="2.83465" class="st2"/>
				</g>
				<rect x="0" y="218.321" width="59.0451" height="35.4331" rx="2.83465" ry="2.83465" class="st6"/>
				<text x="4" y="230.42" class="st7" v:langID="2052"><v:paragraph/><v:tabList/>调度实体</text>			</g>
			<g id="shape32-130" v:mID="32" v:groupContext="shape" v:layerMember="0"
					transform="translate(388.476,301.42) rotate(114.37)">
				<title>曲线连接 3</title>
				<v:userDefs>
					<v:ud v:nameU="visVersion" v:val="VT0(15):26"/>
				</v:userDefs>
				<path d="M39.28 253.75 A33.6912 33.6912 -180 0 0 4.52 251.02 L4.21 251.21" class="st16"/>
			</g>
			<g id="shape33-136" v:mID="33" v:groupContext="shape" v:layerMember="0"
					transform="translate(476.962,246.122) rotate(102.784)">
				<title>曲线连接 3.33</title>
				<v:userDefs>
					<v:ud v:nameU="visVersion" v:val="VT0(15):26"/>
				</v:userDefs>
				<path d="M43.6 253.75 A30.1556 30.1556 -180 0 0 3.97 250.27 L3.7 250.51" class="st16"/>
			</g>
			<g id="shape34-141" v:mID="34" v:groupContext="shape" transform="translate(197.082,-7.08661)">
				<title>工作表.34</title>
				<desc>run_node</desc>
				<v:textBlock v:margins="rect(4,4,4,4)" v:tabSpace="42.5197"/>
				<v:textRect cx="22.7685" cy="246.668" width="45.54" height="14.1732"/>
				<rect x="0" y="239.581" width="45.537" height="14.1732" rx="1.41732" ry="1.41732" class="st14"/>
				<text x="5.18" y="249.07" class="st15" v:langID="2052"><v:paragraph v:horizAlign="1"/><v:tabList/>run_node</text>			</g>
			<g id="shape35-144" v:mID="35" v:groupContext="shape" v:layerMember="0"
					transform="translate(45.6656,253.157) rotate(-94.6706)">
				<title>曲线连接 3.35</title>
				<v:userDefs>
					<v:ud v:nameU="visVersion" v:val="VT0(15):26"/>
				</v:userDefs>
				<path d="M0 253.75 A23.5565 23.5565 -180 0 0 39.9 258.26 L40.08 257.95" class="st16"/>
			</g>
			<g id="shape36-149" v:mID="36" v:groupContext="shape" transform="translate(275.809,-7.08661)">
				<title>工作表.36</title>
				<desc>run_node</desc>
				<v:textBlock v:margins="rect(4,4,4,4)" v:tabSpace="42.5197"/>
				<v:textRect cx="22.7685" cy="246.668" width="45.54" height="14.1732"/>
				<rect x="0" y="239.581" width="45.537" height="14.1732" rx="1.41732" ry="1.41732" class="st14"/>
				<text x="5.18" y="249.07" class="st15" v:langID="2052"><v:paragraph v:horizAlign="1"/><v:tabList/>run_node</text>			</g>
			<g id="shape37-152" v:mID="37" v:groupContext="shape" transform="translate(347.329,-7.08661)">
				<title>工作表.37</title>
				<desc>run_node</desc>
				<v:textBlock v:margins="rect(4,4,4,4)" v:tabSpace="42.5197"/>
				<v:textRect cx="22.7685" cy="246.668" width="45.54" height="14.1732"/>
				<rect x="0" y="239.581" width="45.537" height="14.1732" rx="1.41732" ry="1.41732" class="st14"/>
				<text x="5.18" y="249.07" class="st15" v:langID="2052"><v:paragraph v:horizAlign="1"/><v:tabList/>run_node</text>			</g>
			<g id="shape38-155" v:mID="38" v:groupContext="shape" v:layerMember="0"
					transform="translate(124.432,296.053) rotate(-104.506)">
				<title>曲线连接 3.38</title>
				<v:userDefs>
					<v:ud v:nameU="visVersion" v:val="VT0(15):26"/>
				</v:userDefs>
				<path d="M0 253.75 A24.6752 24.6752 -180 0 0 41.02 258.17 L41.22 257.87" class="st16"/>
			</g>
			<g id="shape40-160" v:mID="40" v:groupContext="shape" transform="translate(182.712,-233.858)">
				<title>工作表.40</title>
				<desc>cfs_rq-&#62;tasks_timeline.rb_root</desc>
				<v:textBlock v:margins="rect(4,4,4,4)" v:tabSpace="42.5197"/>
				<v:textRect cx="79.7182" cy="246.668" width="159.44" height="14.1732"/>
				<rect x="0" y="239.581" width="159.436" height="14.1732" class="st17"/>
				<text x="4" y="249.37" class="st18" v:langID="2052"><v:paragraph/><v:tabList/>cfs_rq-&#62;tasks_timeline.rb_root</text>			</g>
			<g id="shape42-163" v:mID="42" v:groupContext="shape" v:layerMember="0"
					transform="translate(-87.9989,275.882) rotate(-109.788)">
				<title>波浪连接线 1</title>
				<v:userDefs>
					<v:ud v:nameU="Scale" v:val="VT0(1):26"/>
					<v:ud v:nameU="AntiScale" v:val="VT0(1):26"/>
					<v:ud v:nameU="visVersion" v:val="VT0(15):26"/>
				</v:userDefs>
				<path d="M1.78 249.16 L1.91 248.83 C33.73 173.48 135.49 233.45 180.75 253.75" class="st19"/>
			</g>
			<g id="shape52-169" v:mID="52" v:groupContext="shape" v:layerMember="0"
					transform="translate(516.055,91.2256) rotate(-89.8954) scale(1,-1)">
				<title>波浪连接线 1.52</title>
				<v:userDefs>
					<v:ud v:nameU="Scale" v:val="VT0(1):26"/>
					<v:ud v:nameU="AntiScale" v:val="VT0(1):26"/>
					<v:ud v:nameU="visVersion" v:val="VT0(15):26"/>
				</v:userDefs>
				<path d="M3.88 250.72 L4.16 250.49 C20.71 240.41 59.05 241.67 70.87 253.75" class="st19"/>
			</g>
			<g id="shape53-174" v:mID="53" v:groupContext="shape" transform="translate(0,-233.858)">
				<title>工作表.53</title>
				<desc>cfs_rq-&#62;tasks_timeline.rb_leftmost</desc>
				<v:textBlock v:margins="rect(4,4,4,4)" v:tabSpace="42.5197"/>
				<v:textRect cx="89.5781" cy="246.668" width="179.16" height="14.1732"/>
				<rect x="0" y="239.581" width="179.156" height="14.1732" class="st17"/>
				<text x="4" y="249.37" class="st18" v:langID="2052"><v:paragraph/><v:tabList/>cfs_rq-&#62;tasks_timeline.rb_leftmost</text>			</g>
			<g id="shape1-177" v:mID="1" v:groupContext="shape" transform="translate(98.3689,-173.622)">
				<title>矩形.1</title>
				<desc>调度实体</desc>
				<v:userDefs>
					<v:ud v:nameU="visVersion" v:val="VT0(15):26"/>
				</v:userDefs>
				<v:textBlock v:margins="rect(4,4,4,4)" v:tabSpace="42.5197" v:verticalAlign="0"/>
				<v:textRect cx="64.8115" cy="236.038" width="129.63" height="35.4331"/>
				<g id="shadow1-178" v:groupContext="shadow" v:shadowOffsetX="0.345598" v:shadowOffsetY="-1.97279" v:shadowType="1"
						transform="matrix(1,0,0,1,0.345598,1.97279)" class="st1">
					<rect x="0" y="218.321" width="129.623" height="35.4331" rx="2.83465" ry="2.83465" class="st2"/>
				</g>
				<rect x="0" y="218.321" width="129.623" height="35.4331" rx="2.83465" ry="2.83465" class="st6"/>
				<text x="4" y="230.42" class="st7" v:langID="2052"><v:paragraph/><v:tabList/>调度实体</text>			</g>
			<g id="shape2-183" v:mID="2" v:groupContext="shape" transform="translate(104.038,-177.165)">
				<title>工作表.2</title>
				<desc>sched_entity-&#62;run_node</desc>
				<v:textBlock v:margins="rect(4,4,4,4)" v:tabSpace="42.5197"/>
				<v:textRect cx="60.1325" cy="246.668" width="120.27" height="14.1732"/>
				<rect x="0" y="239.581" width="120.265" height="14.1732" rx="1.41732" ry="1.41732" class="st14"/>
				<text x="7.4" y="249.37" class="st18" v:langID="2052"><v:paragraph v:horizAlign="2"/><v:tabList/>sched_entity-&#62;run_node</text>			</g>
			<g id="shape57-186" v:mID="57" v:groupContext="shape" v:layerMember="0"
					transform="translate(84.3193,283.667) rotate(-139.482)">
				<title>波浪连接线 1.57</title>
				<v:userDefs>
					<v:ud v:nameU="Scale" v:val="VT0(1):26"/>
					<v:ud v:nameU="AntiScale" v:val="VT0(1):26"/>
					<v:ud v:nameU="visVersion" v:val="VT0(15):26"/>
				</v:userDefs>
				<path d="M4.4 251.54 L4.72 251.37 C11.23 247.76 20.35 243.12 32.72 253.75" class="st19"/>
			</g>
		</g>
	</g>
</svg>
