<?xml version="1.0" encoding="UTF-8" standalone="no"?>
<!DOCTYPE svg PUBLIC "-//W3C//DTD SVG 1.1//EN" "http://www.w3.org/Graphics/SVG/1.1/DTD/svg11.dtd">
<!-- 由 Microsoft Visio, SVG Export 生成 root_task_group.svg 页-1 -->
<svg xmlns="http://www.w3.org/2000/svg" xmlns:xlink="http://www.w3.org/1999/xlink" xmlns:ev="http://www.w3.org/2001/xml-events"
		xmlns:v="http://schemas.microsoft.com/visio/2003/SVGExtensions/" width="7.05309in" height="5.11477in"
		viewBox="0 0 507.823 368.263" xml:space="preserve" color-interpolation-filters="sRGB" class="st22">
	<v:documentProperties v:langID="2052" v:metric="true" v:viewMarkup="false"/>

	<style type="text/css">
	<![CDATA[
		.st1 {visibility:visible}
		.st2 {fill:#5b9bd5;fill-opacity:0.22;filter:url(#filter_2);stroke:#5b9bd5;stroke-opacity:0.22}
		.st3 {fill:#cbffff;stroke:#ffffff;stroke-width:0.25}
		.st4 {fill:#000000;font-family:宋体;font-size:0.75em}
		.st5 {fill:#bfbfbf;stroke:#ffffff;stroke-width:0.25}
		.st6 {fill:#000000;font-family:Times New Roman;font-size:0.75em}
		.st7 {font-family:宋体;font-size:1em}
		.st8 {fill:#f7cbac;stroke:#000000;stroke-width:0.25}
		.st9 {fill:#000000;font-family:宋体;font-size:0.833336em}
		.st10 {font-family:Times New Roman;font-size:1em}
		.st11 {fill:#e2efd9;stroke:#000000;stroke-width:0.5}
		.st12 {marker-end:url(#mrkr5-141);stroke:#000000;stroke-linecap:round;stroke-linejoin:round;stroke-width:0.75}
		.st13 {fill:#000000;fill-opacity:1;stroke:#000000;stroke-opacity:1;stroke-width:0.22935779816514}
		.st14 {marker-end:url(#mrkr5-191);stroke:#000000;stroke-linecap:round;stroke-linejoin:round;stroke-width:0.75}
		.st15 {marker-end:url(#mrkr5-202);stroke:#000000;stroke-linecap:round;stroke-linejoin:round;stroke-width:0.75}
		.st16 {fill:#5b9bd5;fill-opacity:0.22;filter:url(#filter_2);stroke:none}
		.st17 {fill:#7f7f7f;stroke:none;stroke-width:0.5}
		.st18 {fill:#feffff;font-family:Consolas;font-size:0.833336em}
		.st19 {fill:#cbffff;stroke:#000000;stroke-width:0.5}
		.st20 {fill:#bfbfbf;stroke:#000000;stroke-width:0.5}
		.st21 {fill:none;stroke:none;stroke-width:0.25}
		.st22 {fill:none;fill-rule:evenodd;font-size:12px;overflow:visible;stroke-linecap:square;stroke-miterlimit:3}
	]]>
	</style>

	<defs id="Markers">
		<g id="lend5">
			<path d="M 2 1 L 0 0 L 1.98117 -0.993387 C 1.67173 -0.364514 1.67301 0.372642 1.98465 1.00043 " style="stroke:none"/>
		</g>
		<marker id="mrkr5-141" class="st13" v:arrowType="5" v:arrowSize="2" v:setback="7.63" refX="-7.63" orient="auto"
				markerUnits="strokeWidth" overflow="visible">
			<use xlink:href="#lend5" transform="scale(-4.36,-4.36) "/>
		</marker>
		<marker id="mrkr5-191" class="st13" v:arrowType="5" v:arrowSize="2" v:setback="0" refX="-0" orient="auto"
				markerUnits="strokeWidth" overflow="visible">
			<use xlink:href="#lend5" transform="scale(-4.36,-4.36) "/>
		</marker>
		<marker id="mrkr5-202" class="st13" v:arrowType="5" v:arrowSize="2" v:setback="7.15" refX="-7.15" orient="auto"
				markerUnits="strokeWidth" overflow="visible">
			<use xlink:href="#lend5" transform="scale(-4.36,-4.36) "/>
		</marker>
	</defs>
	<defs id="Filters">
		<filter id="filter_2">
			<feGaussianBlur stdDeviation="2"/>
		</filter>
	</defs>
	<g v:mID="0" v:index="1" v:groupContext="foregroundPage">
		<title>页-1</title>
		<v:pageProperties v:drawingScale="0.0393701" v:pageScale="0.0393701" v:drawingUnits="24" v:shadowOffsetX="8.50394"
				v:shadowOffsetY="-8.50394"/>
		<v:layer v:name="连接线" v:index="0"/>
		<g id="group42-1" transform="translate(3.0294,-5.3478)" v:mID="42" v:groupContext="group">
			<title>工作表.42</title>
			<g id="shape1-2" v:mID="1" v:groupContext="shape" transform="translate(219.685,-233.858)">
				<title>矩形</title>
				<desc>最顶层的任务组</desc>
				<v:userDefs>
					<v:ud v:nameU="visVersion" v:val="VT0(15):26"/>
				</v:userDefs>
				<v:textBlock v:margins="rect(4,4,4,4)" v:tabSpace="42.5197" v:verticalAlign="0"/>
				<v:textRect cx="102.756" cy="325.744" width="205.52" height="85.0394"/>
				<g id="shadow1-3" v:groupContext="shadow" v:shadowOffsetX="0.345598" v:shadowOffsetY="-1.97279" v:shadowType="1"
						transform="matrix(1,0,0,1,0.345598,1.97279)" class="st1">
					<rect x="0" y="283.224" width="205.512" height="85.0394" rx="4.25197" ry="4.25197" class="st2"/>
				</g>
				<rect x="0" y="283.224" width="205.512" height="85.0394" rx="4.25197" ry="4.25197" class="st3"/>
				<text x="71.26" y="296.11" class="st4" v:langID="2052"><v:paragraph v:horizAlign="1"/><v:tabList/>最顶层的任务组</text>			</g>
			<g id="shape2-8" v:mID="2" v:groupContext="shape" transform="translate(226.772,-240.945)">
				<title>矩形.2</title>
				<desc>CFS运行队列</desc>
				<v:userDefs>
					<v:ud v:nameU="visVersion" v:val="VT0(15):26"/>
				</v:userDefs>
				<v:textBlock v:margins="rect(4,4,4,4)" v:tabSpace="42.5197" v:verticalAlign="0"/>
				<v:textRect cx="95.6693" cy="339.917" width="191.34" height="56.6929"/>
				<g id="shadow2-9" v:groupContext="shadow" v:shadowOffsetX="0.345598" v:shadowOffsetY="-1.97279" v:shadowType="1"
						transform="matrix(1,0,0,1,0.345598,1.97279)" class="st1">
					<rect x="0" y="311.57" width="191.339" height="56.6929" rx="4.25197" ry="4.25197" class="st2"/>
				</g>
				<rect x="0" y="311.57" width="191.339" height="56.6929" rx="4.25197" ry="4.25197" class="st5"/>
				<text x="69.66" y="324.45" class="st6" v:langID="2052"><v:paragraph v:horizAlign="1"/><v:tabList/>CFS<tspan
							class="st7">运行队列</tspan></text>			</g>
			<g id="shape3-15" v:mID="3" v:groupContext="shape" transform="translate(233.858,-248.031)">
				<title>矩形.3</title>
				<desc>调度实体 struct sched_entity</desc>
				<v:userDefs>
					<v:ud v:nameU="visVersion" v:val="VT0(15):26"/>
				</v:userDefs>
				<v:textBlock v:margins="rect(4,4,4,4)" v:tabSpace="42.5197"/>
				<v:textRect cx="42.5197" cy="354.09" width="85.04" height="28.3465"/>
				<g id="shadow3-16" v:groupContext="shadow" v:shadowOffsetX="0.345598" v:shadowOffsetY="-1.97279" v:shadowType="1"
						transform="matrix(1,0,0,1,0.345598,1.97279)" class="st1">
					<rect x="0" y="339.917" width="85.0394" height="28.3465" rx="2.83465" ry="2.83465" class="st2"/>
				</g>
				<rect x="0" y="339.917" width="85.0394" height="28.3465" rx="2.83465" ry="2.83465" class="st8"/>
				<text x="22.52" y="351.38" class="st9" v:langID="2052"><v:paragraph v:horizAlign="1"/><v:tabList/>调度实体<v:newlineChar/><tspan
							x="4.89" dy="1.229em" class="st10">struct sched</tspan><tspan class="st10">_</tspan><tspan class="st10">entity</tspan></text>			</g>
			<g id="shape4-24" v:mID="4" v:groupContext="shape" transform="translate(325.984,-248.031)">
				<title>矩形.4</title>
				<desc>调度实体 struct sched_entity</desc>
				<v:userDefs>
					<v:ud v:nameU="visVersion" v:val="VT0(15):26"/>
				</v:userDefs>
				<v:textBlock v:margins="rect(4,4,4,4)" v:tabSpace="42.5197"/>
				<v:textRect cx="42.5197" cy="354.09" width="85.04" height="28.3465"/>
				<g id="shadow4-25" v:groupContext="shadow" v:shadowOffsetX="0.345598" v:shadowOffsetY="-1.97279" v:shadowType="1"
						transform="matrix(1,0,0,1,0.345598,1.97279)" class="st1">
					<rect x="0" y="339.917" width="85.0394" height="28.3465" rx="2.83465" ry="2.83465" class="st2"/>
				</g>
				<rect x="0" y="339.917" width="85.0394" height="28.3465" rx="2.83465" ry="2.83465" class="st8"/>
				<text x="22.52" y="351.38" class="st9" v:langID="2052"><v:paragraph v:horizAlign="1"/><v:tabList/>调度实体<v:newlineChar/><tspan
							x="4.89" dy="1.229em" class="st10">struct sched</tspan><tspan class="st10">_</tspan><tspan class="st10">entity</tspan></text>			</g>
			<g id="shape5-33" v:mID="5" v:groupContext="shape" transform="translate(21.2598,-134.646)">
				<title>矩形.5</title>
				<desc>User A</desc>
				<v:userDefs>
					<v:ud v:nameU="visVersion" v:val="VT0(15):26"/>
				</v:userDefs>
				<v:textBlock v:margins="rect(4,4,4,4)" v:tabSpace="42.5197" v:verticalAlign="0"/>
				<v:textRect cx="148.819" cy="332.83" width="297.64" height="70.8661"/>
				<g id="shadow5-34" v:groupContext="shadow" v:shadowOffsetX="0.345598" v:shadowOffsetY="-1.97279" v:shadowType="1"
						transform="matrix(1,0,0,1,0.345598,1.97279)" class="st1">
					<rect x="0" y="297.397" width="297.638" height="70.8661" rx="4.25197" ry="4.25197" class="st2"/>
				</g>
				<rect x="0" y="297.397" width="297.638" height="70.8661" rx="4.25197" ry="4.25197" class="st3"/>
				<text x="267.89" y="309.5" class="st6" v:langID="2052"><v:paragraph v:horizAlign="2"/><v:tabList/>User A</text>			</g>
			<g id="shape6-39" v:mID="6" v:groupContext="shape" transform="translate(28.3465,-141.732)">
				<title>矩形.26</title>
				<v:userDefs>
					<v:ud v:nameU="visVersion" v:val="VT0(15):26"/>
				</v:userDefs>
				<g id="shadow6-40" v:groupContext="shadow" v:shadowOffsetX="0.345598" v:shadowOffsetY="-1.97279" v:shadowType="1"
						transform="matrix(1,0,0,1,0.345598,1.97279)" class="st1">
					<rect x="0" y="325.744" width="283.465" height="42.5197" rx="4.25197" ry="4.25197" class="st2"/>
				</g>
				<rect x="0" y="325.744" width="283.465" height="42.5197" rx="4.25197" ry="4.25197" class="st5"/>
			</g>
			<g id="shape7-44" v:mID="7" v:groupContext="shape" transform="translate(35.4331,-148.819)">
				<title>矩形.7</title>
				<desc>调度实体 struct sched_entity</desc>
				<v:userDefs>
					<v:ud v:nameU="visVersion" v:val="VT0(15):26"/>
				</v:userDefs>
				<v:textBlock v:margins="rect(4,4,4,4)" v:tabSpace="42.5197"/>
				<v:textRect cx="42.5197" cy="354.09" width="85.04" height="28.3465"/>
				<g id="shadow7-45" v:groupContext="shadow" v:shadowOffsetX="0.345598" v:shadowOffsetY="-1.97279" v:shadowType="1"
						transform="matrix(1,0,0,1,0.345598,1.97279)" class="st1">
					<rect x="0" y="339.917" width="85.0394" height="28.3465" rx="2.83465" ry="2.83465" class="st2"/>
				</g>
				<rect x="0" y="339.917" width="85.0394" height="28.3465" rx="2.83465" ry="2.83465" class="st8"/>
				<text x="22.52" y="351.38" class="st9" v:langID="2052"><v:paragraph v:horizAlign="1"/><v:tabList/>调度实体<v:newlineChar/><tspan
							x="4.89" dy="1.229em" class="st10">struct sched</tspan><tspan class="st10">_</tspan><tspan class="st10">entity</tspan></text>			</g>
			<g id="shape8-53" v:mID="8" v:groupContext="shape" transform="translate(127.559,-148.819)">
				<title>矩形.8</title>
				<desc>调度实体 struct sched_entity</desc>
				<v:userDefs>
					<v:ud v:nameU="visVersion" v:val="VT0(15):26"/>
				</v:userDefs>
				<v:textBlock v:margins="rect(4,4,4,4)" v:tabSpace="42.5197"/>
				<v:textRect cx="42.5197" cy="354.09" width="85.04" height="28.3465"/>
				<g id="shadow8-54" v:groupContext="shadow" v:shadowOffsetX="0.345598" v:shadowOffsetY="-1.97279" v:shadowType="1"
						transform="matrix(1,0,0,1,0.345598,1.97279)" class="st1">
					<rect x="0" y="339.917" width="85.0394" height="28.3465" rx="2.83465" ry="2.83465" class="st2"/>
				</g>
				<rect x="0" y="339.917" width="85.0394" height="28.3465" rx="2.83465" ry="2.83465" class="st8"/>
				<text x="22.52" y="351.38" class="st9" v:langID="2052"><v:paragraph v:horizAlign="1"/><v:tabList/>调度实体<v:newlineChar/><tspan
							x="4.89" dy="1.229em" class="st10">struct sched</tspan><tspan class="st10">_</tspan><tspan class="st10">entity</tspan></text>			</g>
			<g id="shape9-62" v:mID="9" v:groupContext="shape" transform="translate(219.685,-148.819)">
				<title>矩形.9</title>
				<desc>调度实体 struct sched_entity</desc>
				<v:userDefs>
					<v:ud v:nameU="visVersion" v:val="VT0(15):26"/>
				</v:userDefs>
				<v:textBlock v:margins="rect(4,4,4,4)" v:tabSpace="42.5197"/>
				<v:textRect cx="42.5197" cy="354.09" width="85.04" height="28.3465"/>
				<g id="shadow9-63" v:groupContext="shadow" v:shadowOffsetX="0.345598" v:shadowOffsetY="-1.97279" v:shadowType="1"
						transform="matrix(1,0,0,1,0.345598,1.97279)" class="st1">
					<rect x="0" y="339.917" width="85.0394" height="28.3465" rx="2.83465" ry="2.83465" class="st2"/>
				</g>
				<rect x="0" y="339.917" width="85.0394" height="28.3465" rx="2.83465" ry="2.83465" class="st8"/>
				<text x="22.52" y="351.38" class="st9" v:langID="2052"><v:paragraph v:horizAlign="1"/><v:tabList/>调度实体<v:newlineChar/><tspan
							x="4.89" dy="1.229em" class="st10">struct sched</tspan><tspan class="st10">_</tspan><tspan class="st10">entity</tspan></text>			</g>
			<g id="shape10-71" v:mID="10" v:groupContext="shape" transform="translate(340.157,-134.646)">
				<title>矩形.13</title>
				<desc>User B</desc>
				<v:userDefs>
					<v:ud v:nameU="visVersion" v:val="VT0(15):26"/>
				</v:userDefs>
				<v:textBlock v:margins="rect(4,4,4,4)" v:tabSpace="42.5197" v:verticalAlign="0"/>
				<v:textRect cx="74.4094" cy="332.83" width="148.82" height="70.8661"/>
				<g id="shadow10-72" v:groupContext="shadow" v:shadowOffsetX="0.345598" v:shadowOffsetY="-1.97279" v:shadowType="1"
						transform="matrix(1,0,0,1,0.345598,1.97279)" class="st1">
					<rect x="0" y="297.397" width="148.819" height="70.8661" rx="4.25197" ry="4.25197" class="st2"/>
				</g>
				<rect x="0" y="297.397" width="148.819" height="70.8661" rx="4.25197" ry="4.25197" class="st3"/>
				<text x="119.57" y="309.5" class="st6" v:langID="2052"><v:paragraph v:horizAlign="2"/><v:tabList/>User B</text>			</g>
			<g id="shape11-77" v:mID="11" v:groupContext="shape" transform="translate(347.244,-141.732)">
				<title>矩形.28</title>
				<v:userDefs>
					<v:ud v:nameU="visVersion" v:val="VT0(15):26"/>
				</v:userDefs>
				<g id="shadow11-78" v:groupContext="shadow" v:shadowOffsetX="0.345598" v:shadowOffsetY="-1.97279" v:shadowType="1"
						transform="matrix(1,0,0,1,0.345598,1.97279)" class="st1">
					<rect x="0" y="325.744" width="134.646" height="42.5197" rx="4.25197" ry="4.25197" class="st2"/>
				</g>
				<rect x="0" y="325.744" width="134.646" height="42.5197" rx="4.25197" ry="4.25197" class="st5"/>
			</g>
			<g id="shape12-82" v:mID="12" v:groupContext="shape" transform="translate(354.331,-148.819)">
				<title>矩形.14</title>
				<desc>调度实体 struct sched_entity</desc>
				<v:userDefs>
					<v:ud v:nameU="visVersion" v:val="VT0(15):26"/>
				</v:userDefs>
				<v:textBlock v:margins="rect(4,4,4,4)" v:tabSpace="42.5197"/>
				<v:textRect cx="42.5197" cy="354.09" width="85.04" height="28.3465"/>
				<g id="shadow12-83" v:groupContext="shadow" v:shadowOffsetX="0.345598" v:shadowOffsetY="-1.97279" v:shadowType="1"
						transform="matrix(1,0,0,1,0.345598,1.97279)" class="st1">
					<rect x="0" y="339.917" width="85.0394" height="28.3465" rx="2.83465" ry="2.83465" class="st2"/>
				</g>
				<rect x="0" y="339.917" width="85.0394" height="28.3465" rx="2.83465" ry="2.83465" class="st8"/>
				<text x="22.52" y="351.38" class="st9" v:langID="2052"><v:paragraph v:horizAlign="1"/><v:tabList/>调度实体<v:newlineChar/><tspan
							x="4.89" dy="1.229em" class="st10">struct sched</tspan><tspan class="st10">_</tspan><tspan class="st10">entity</tspan></text>			</g>
			<g id="shape13-91" v:mID="13" v:groupContext="shape" transform="translate(0,-35.4331)">
				<title>矩形.10</title>
				<desc>Task Group of User A1</desc>
				<v:userDefs>
					<v:ud v:nameU="visVersion" v:val="VT0(15):26"/>
				</v:userDefs>
				<v:textBlock v:margins="rect(4,4,4,4)" v:tabSpace="42.5197" v:verticalAlign="0"/>
				<v:textRect cx="102.756" cy="332.83" width="205.52" height="70.8661"/>
				<g id="shadow13-92" v:groupContext="shadow" v:shadowOffsetX="0.345598" v:shadowOffsetY="-1.97279" v:shadowType="1"
						transform="matrix(1,0,0,1,0.345598,1.97279)" class="st1">
					<rect x="0" y="297.397" width="205.512" height="70.8661" rx="4.25197" ry="4.25197" class="st2"/>
				</g>
				<rect x="0" y="297.397" width="205.512" height="70.8661" rx="4.25197" ry="4.25197" class="st3"/>
				<text x="116.53" y="309.5" class="st6" v:langID="2052"><v:paragraph v:horizAlign="2"/><v:tabList/>Task Group of User A1</text>			</g>
			<g id="shape14-97" v:mID="14" v:groupContext="shape" transform="translate(7.08661,-42.5197)">
				<title>矩形.27</title>
				<v:userDefs>
					<v:ud v:nameU="visVersion" v:val="VT0(15):26"/>
				</v:userDefs>
				<g id="shadow14-98" v:groupContext="shadow" v:shadowOffsetX="0.345598" v:shadowOffsetY="-1.97279" v:shadowType="1"
						transform="matrix(1,0,0,1,0.345598,1.97279)" class="st1">
					<rect x="0" y="325.744" width="191.339" height="42.5197" rx="4.25197" ry="4.25197" class="st2"/>
				</g>
				<rect x="0" y="325.744" width="191.339" height="42.5197" rx="4.25197" ry="4.25197" class="st5"/>
			</g>
			<g id="shape15-102" v:mID="15" v:groupContext="shape" transform="translate(31.8898,5.68434E-014)">
				<title>矩形.6</title>
				<desc>进程 1</desc>
				<v:userDefs>
					<v:ud v:nameU="visVersion" v:val="VT0(15):26"/>
				</v:userDefs>
				<v:textBlock v:margins="rect(4,4,4,4)" v:tabSpace="42.5197"/>
				<v:textRect cx="24.8031" cy="357.633" width="49.61" height="21.2598"/>
				<g id="shadow15-103" v:groupContext="shadow" v:shadowOffsetX="0.345598" v:shadowOffsetY="-1.97279" v:shadowType="1"
						transform="matrix(1,0,0,1,0.345598,1.97279)" class="st1">
					<rect x="0" y="347.003" width="49.6063" height="21.2598" rx="2.83465" ry="2.83465" class="st2"/>
				</g>
				<rect x="0" y="347.003" width="49.6063" height="21.2598" rx="2.83465" ry="2.83465" class="st11"/>
				<text x="11.05" y="360.92" class="st9" v:langID="2052"><v:paragraph v:horizAlign="1"/><v:tabList/>进程<tspan
							class="st10"> </tspan><tspan class="st10">1</tspan></text>			</g>
			<g id="shape16-110" v:mID="16" v:groupContext="shape" transform="translate(124.016,5.68434E-014)">
				<title>矩形.16</title>
				<desc>进程 2</desc>
				<v:userDefs>
					<v:ud v:nameU="visVersion" v:val="VT0(15):26"/>
				</v:userDefs>
				<v:textBlock v:margins="rect(4,4,4,4)" v:tabSpace="42.5197"/>
				<v:textRect cx="24.8031" cy="357.633" width="49.61" height="21.2598"/>
				<g id="shadow16-111" v:groupContext="shadow" v:shadowOffsetX="0.345598" v:shadowOffsetY="-1.97279" v:shadowType="1"
						transform="matrix(1,0,0,1,0.345598,1.97279)" class="st1">
					<rect x="0" y="347.003" width="49.6063" height="21.2598" rx="2.83465" ry="2.83465" class="st2"/>
				</g>
				<rect x="0" y="347.003" width="49.6063" height="21.2598" rx="2.83465" ry="2.83465" class="st11"/>
				<text x="11.05" y="360.92" class="st9" v:langID="2052"><v:paragraph v:horizAlign="1"/><v:tabList/>进程<tspan
							class="st10"> </tspan><tspan class="st10">2</tspan></text>			</g>
			<g id="shape17-118" v:mID="17" v:groupContext="shape" transform="translate(14.1732,-49.6063)">
				<title>矩形.17</title>
				<desc>调度实体 struct sched_entity</desc>
				<v:userDefs>
					<v:ud v:nameU="visVersion" v:val="VT0(15):26"/>
				</v:userDefs>
				<v:textBlock v:margins="rect(4,4,4,4)" v:tabSpace="42.5197"/>
				<v:textRect cx="42.5197" cy="354.09" width="85.04" height="28.3465"/>
				<g id="shadow17-119" v:groupContext="shadow" v:shadowOffsetX="0.345598" v:shadowOffsetY="-1.97279" v:shadowType="1"
						transform="matrix(1,0,0,1,0.345598,1.97279)" class="st1">
					<rect x="0" y="339.917" width="85.0394" height="28.3465" rx="2.83465" ry="2.83465" class="st2"/>
				</g>
				<rect x="0" y="339.917" width="85.0394" height="28.3465" rx="2.83465" ry="2.83465" class="st8"/>
				<text x="22.52" y="351.38" class="st9" v:langID="2052"><v:paragraph v:horizAlign="1"/><v:tabList/>调度实体<v:newlineChar/><tspan
							x="4.89" dy="1.229em" class="st10">struct sched</tspan><tspan class="st10">_</tspan><tspan class="st10">entity</tspan></text>			</g>
			<g id="shape18-127" v:mID="18" v:groupContext="shape" transform="translate(106.299,-49.6063)">
				<title>矩形.12</title>
				<desc>调度实体 struct sched_entity</desc>
				<v:userDefs>
					<v:ud v:nameU="visVersion" v:val="VT0(15):26"/>
				</v:userDefs>
				<v:textBlock v:margins="rect(4,4,4,4)" v:tabSpace="42.5197"/>
				<v:textRect cx="42.5197" cy="354.09" width="85.04" height="28.3465"/>
				<g id="shadow18-128" v:groupContext="shadow" v:shadowOffsetX="0.345598" v:shadowOffsetY="-1.97279" v:shadowType="1"
						transform="matrix(1,0,0,1,0.345598,1.97279)" class="st1">
					<rect x="0" y="339.917" width="85.0394" height="28.3465" rx="2.83465" ry="2.83465" class="st2"/>
				</g>
				<rect x="0" y="339.917" width="85.0394" height="28.3465" rx="2.83465" ry="2.83465" class="st8"/>
				<text x="22.52" y="351.38" class="st9" v:langID="2052"><v:paragraph v:horizAlign="1"/><v:tabList/>调度实体<v:newlineChar/><tspan
							x="4.89" dy="1.229em" class="st10">struct sched</tspan><tspan class="st10">_</tspan><tspan class="st10">entity</tspan></text>			</g>
			<g id="shape19-136" v:mID="19" v:groupContext="shape" v:layerMember="0"
					transform="translate(-311.57,318.657) rotate(-90) scale(-1,1)">
				<title>直线连接线</title>
				<v:userDefs>
					<v:ud v:nameU="visVersion" v:val="VT0(15):26"/>
				</v:userDefs>
				<path d="M0 368.26 L22.62 368.26" class="st12"/>
			</g>
			<g id="shape20-142" v:mID="20" v:groupContext="shape" v:layerMember="0"
					transform="translate(-219.444,318.657) rotate(-90) scale(-1,1)">
				<title>直线连接线.25</title>
				<v:userDefs>
					<v:ud v:nameU="visVersion" v:val="VT0(15):26"/>
				</v:userDefs>
				<path d="M0 368.26 L22.62 368.26" class="st12"/>
			</g>
			<g id="shape21-147" v:mID="21" v:groupContext="shape" transform="translate(212.598,-85.0394)">
				<title>矩形.21</title>
				<desc>进程 3</desc>
				<v:userDefs>
					<v:ud v:nameU="visVersion" v:val="VT0(15):26"/>
				</v:userDefs>
				<v:textBlock v:margins="rect(4,4,4,4)" v:tabSpace="42.5197"/>
				<v:textRect cx="24.8031" cy="357.633" width="49.61" height="21.2598"/>
				<g id="shadow21-148" v:groupContext="shadow" v:shadowOffsetX="0.345598" v:shadowOffsetY="-1.97279" v:shadowType="1"
						transform="matrix(1,0,0,1,0.345598,1.97279)" class="st1">
					<rect x="0" y="347.003" width="49.6063" height="21.2598" rx="2.83465" ry="2.83465" class="st2"/>
				</g>
				<rect x="0" y="347.003" width="49.6063" height="21.2598" rx="2.83465" ry="2.83465" class="st11"/>
				<text x="11.05" y="360.92" class="st9" v:langID="2052"><v:paragraph v:horizAlign="1"/><v:tabList/>进程<tspan
							class="st10"> </tspan><tspan class="st10">3</tspan></text>			</g>
			<g id="shape22-155" v:mID="22" v:groupContext="shape" transform="translate(276.378,-85.0394)">
				<title>矩形.22</title>
				<desc>进程 4</desc>
				<v:userDefs>
					<v:ud v:nameU="visVersion" v:val="VT0(15):26"/>
				</v:userDefs>
				<v:textBlock v:margins="rect(4,4,4,4)" v:tabSpace="42.5197"/>
				<v:textRect cx="24.8031" cy="357.633" width="49.61" height="21.2598"/>
				<g id="shadow22-156" v:groupContext="shadow" v:shadowOffsetX="0.345598" v:shadowOffsetY="-1.97279" v:shadowType="1"
						transform="matrix(1,0,0,1,0.345598,1.97279)" class="st1">
					<rect x="0" y="347.003" width="49.6063" height="21.2598" rx="2.83465" ry="2.83465" class="st2"/>
				</g>
				<rect x="0" y="347.003" width="49.6063" height="21.2598" rx="2.83465" ry="2.83465" class="st11"/>
				<text x="11.05" y="360.92" class="st9" v:langID="2052"><v:paragraph v:horizAlign="1"/><v:tabList/>进程<tspan
							class="st10"> </tspan><tspan class="st10">4</tspan></text>			</g>
			<g id="shape29-163" v:mID="29" v:groupContext="shape" transform="translate(389.764,-85.0394)">
				<title>矩形.15</title>
				<desc>进程 5</desc>
				<v:userDefs>
					<v:ud v:nameU="visVersion" v:val="VT0(15):26"/>
				</v:userDefs>
				<v:textBlock v:margins="rect(4,4,4,4)" v:tabSpace="42.5197"/>
				<v:textRect cx="24.8031" cy="357.633" width="49.61" height="21.2598"/>
				<g id="shadow29-164" v:groupContext="shadow" v:shadowOffsetX="0.345598" v:shadowOffsetY="-1.97279" v:shadowType="1"
						transform="matrix(1,0,0,1,0.345598,1.97279)" class="st1">
					<rect x="0" y="347.003" width="49.6063" height="21.2598" rx="2.83465" ry="2.83465" class="st2"/>
				</g>
				<rect x="0" y="347.003" width="49.6063" height="21.2598" rx="2.83465" ry="2.83465" class="st11"/>
				<text x="11.05" y="360.92" class="st9" v:langID="2052"><v:paragraph v:horizAlign="1"/><v:tabList/>进程<tspan
							class="st10"> </tspan><tspan class="st10">5</tspan></text>			</g>
			<g id="shape30-171" v:mID="30" v:groupContext="shape" v:layerMember="0" transform="translate(170.079,-106.299)">
				<title>底部到顶部固定 2.21</title>
				<v:userDefs>
					<v:ud v:nameU="TextPos" v:val="VT0(1):26"/>
					<v:ud v:nameU="Offset" v:val="VT0(0.19685039370079):24"/>
					<v:ud v:nameU="Scale" v:val="VT0(1):26"/>
					<v:ud v:nameU="AntiScale" v:val="VT0(1):26"/>
					<v:ud v:nameU="visVersion" v:val="VT0(15):26"/>
				</v:userDefs>
				<path d="M0 325.74 L0 351.82 A2.26772 2.26772 -180 0 0 2.27 354.09 L65.06 354.09 A2.26772 2.26772 0 0 1 67.32 356.36
							 L67.32 362.54" class="st12"/>
			</g>
			<g id="shape31-176" v:mID="31" v:groupContext="shape" v:layerMember="0" transform="translate(262.205,-106.299)">
				<title>底部到顶部固定 2.31</title>
				<v:userDefs>
					<v:ud v:nameU="TextPos" v:val="VT0(1):26"/>
					<v:ud v:nameU="Offset" v:val="VT0(0.19685039370079):24"/>
					<v:ud v:nameU="Scale" v:val="VT0(1):26"/>
					<v:ud v:nameU="AntiScale" v:val="VT0(1):26"/>
					<v:ud v:nameU="visVersion" v:val="VT0(15):26"/>
				</v:userDefs>
				<path d="M0 325.74 L0 351.82 A2.26772 2.26772 -180 0 0 2.27 354.09 L36.71 354.09 A2.26772 2.26772 0 0 1 38.98 356.36
							 L38.98 362.54" class="st12"/>
			</g>
			<g id="shape32-181" v:mID="32" v:groupContext="shape" v:layerMember="0" transform="translate(396.85,-106.299)">
				<title>底部到顶部固定 2.32</title>
				<v:userDefs>
					<v:ud v:nameU="TextPos" v:val="VT0(1):26"/>
					<v:ud v:nameU="Offset" v:val="VT0(0.19685039370079):24"/>
					<v:ud v:nameU="Scale" v:val="VT0(1):26"/>
					<v:ud v:nameU="AntiScale" v:val="VT0(1):26"/>
					<v:ud v:nameU="visVersion" v:val="VT0(15):26"/>
				</v:userDefs>
				<path d="M0 325.74 L0 351.82 A2.26772 2.26772 -180 0 0 2.27 354.09 L15.45 354.09 A2.26772 2.26772 0 0 1 17.72 356.36
							 L17.72 362.54" class="st12"/>
			</g>
			<g id="shape33-186" v:mID="33" v:groupContext="shape" v:layerMember="0"
					transform="translate(599.675,-56.1119) rotate(61.3895)">
				<title>波浪连接线 1</title>
				<v:userDefs>
					<v:ud v:nameU="Scale" v:val="VT0(1):26"/>
					<v:ud v:nameU="AntiScale" v:val="VT0(1):26"/>
					<v:ud v:nameU="visVersion" v:val="VT0(15):26"/>
				</v:userDefs>
				<path d="M0 368.26 C56.92 402.54 31.2 299.72 88.8 368.26" class="st14"/>
			</g>
			<g id="shape34-192" v:mID="34" v:groupContext="shape" v:layerMember="0"
					transform="translate(568.563,-188.951) rotate(32.9052)">
				<title>波浪连接线 1.34</title>
				<v:userDefs>
					<v:ud v:nameU="Scale" v:val="VT0(1):26"/>
					<v:ud v:nameU="AntiScale" v:val="VT0(1):26"/>
					<v:ud v:nameU="visVersion" v:val="VT0(15):26"/>
				</v:userDefs>
				<path d="M0 368.26 C49.85 410.51 133.1 269.59 143.49 368.26" class="st14"/>
			</g>
			<g id="shape36-197" v:mID="36" v:groupContext="shape" v:layerMember="0"
					transform="translate(103.277,270.73) rotate(-119.055)">
				<title>直线-曲线连接线</title>
				<v:userDefs>
					<v:ud v:nameU="Scale" v:val="VT0(1):26"/>
					<v:ud v:nameU="AntiScale" v:val="VT0(1):26"/>
					<v:ud v:nameU="visVersion" v:val="VT0(15):26"/>
				</v:userDefs>
				<path d="M0 368.26 L18.32 381.53 L34.13 391.64 L47.42 398.58 L58.2 402.36 L66.46 402.98 L72.2 400.43 L75.43 394.72
							 L76.15 385.85 L74.35 373.82 L74.26 373.47" class="st15"/>
			</g>
			<g id="shape37-203" v:mID="37" v:groupContext="shape" transform="translate(368.504,-325.984)">
				<title>矩形.37</title>
				<desc>NULL</desc>
				<v:userDefs>
					<v:ud v:nameU="visVersion" v:val="VT0(15):26"/>
				</v:userDefs>
				<v:textBlock v:margins="rect(4,4,4,4)" v:tabSpace="42.5197"/>
				<v:textRect cx="21.2598" cy="361.177" width="42.52" height="14.1732"/>
				<g id="shadow37-204" v:groupContext="shadow" v:shadowOffsetX="0.345598" v:shadowOffsetY="-1.97279" v:shadowType="1"
						transform="matrix(1,0,0,1,0.345598,1.97279)" class="st1">
					<rect x="0" y="354.09" width="42.5197" height="14.1732" class="st16"/>
				</g>
				<rect x="0" y="354.09" width="42.5197" height="14.1732" class="st17"/>
				<text x="10.26" y="364.24" class="st18" v:langID="2052"><v:paragraph v:horizAlign="1"/><v:tabList/>NULL</text>			</g>
			<g id="group39-209" transform="translate(28.3465,-262.205)" v:mID="39" v:groupContext="group">
				<title>工作表.39</title>
				<g id="shape23-210" v:mID="23" v:groupContext="shape" transform="translate(0,-42.5197)">
					<title>矩形.29</title>
					<v:userDefs>
						<v:ud v:nameU="visVersion" v:val="VT0(15):26"/>
					</v:userDefs>
					<g id="shadow23-211" v:groupContext="shadow" v:shadowOffsetX="0.345598" v:shadowOffsetY="-1.97279"
							v:shadowType="1" transform="matrix(1,0,0,1,0.345598,1.97279)" class="st1">
						<rect x="0" y="354.09" width="42.5197" height="14.1732" class="st2"/>
					</g>
					<rect x="0" y="354.09" width="42.5197" height="14.1732" class="st11"/>
				</g>
				<g id="shape24-215" v:mID="24" v:groupContext="shape" transform="translate(0,-21.2598)">
					<title>矩形.30</title>
					<v:userDefs>
						<v:ud v:nameU="visVersion" v:val="VT0(15):26"/>
					</v:userDefs>
					<g id="shadow24-216" v:groupContext="shadow" v:shadowOffsetX="0.345598" v:shadowOffsetY="-1.97279"
							v:shadowType="1" transform="matrix(1,0,0,1,0.345598,1.97279)" class="st1">
						<rect x="0" y="354.09" width="42.5197" height="14.1732" class="st2"/>
					</g>
					<rect x="0" y="354.09" width="42.5197" height="14.1732" class="st19"/>
				</g>
				<g id="shape25-220" v:mID="25" v:groupContext="shape">
					<title>矩形.31</title>
					<v:userDefs>
						<v:ud v:nameU="visVersion" v:val="VT0(15):26"/>
					</v:userDefs>
					<g id="shadow25-221" v:groupContext="shadow" v:shadowOffsetX="0.345598" v:shadowOffsetY="-1.97279"
							v:shadowType="1" transform="matrix(1,0,0,1,0.345598,1.97279)" class="st1">
						<rect x="0" y="354.09" width="42.5197" height="14.1732" class="st2"/>
					</g>
					<rect x="0" y="354.09" width="42.5197" height="14.1732" class="st20"/>
				</g>
				<g id="shape26-225" v:mID="26" v:groupContext="shape" transform="translate(42.5197,-42.5197)">
					<title>工作表.26</title>
					<desc>进程</desc>
					<v:textBlock v:margins="rect(4,4,4,4)" v:tabSpace="42.5197"/>
					<v:textRect cx="15.7323" cy="361.22" width="31.47" height="14.0866"/>
					<rect x="0" y="354.177" width="31.4646" height="14.0866" class="st21"/>
					<text x="5.73" y="364.22" class="st9" v:langID="2052"><v:paragraph v:horizAlign="1"/><v:tabList/>进程</text>				</g>
				<g id="shape27-228" v:mID="27" v:groupContext="shape" transform="translate(42.5197,-21.2598)">
					<title>工作表.27</title>
					<desc>任务组</desc>
					<v:textBlock v:margins="rect(4,4,4,4)" v:tabSpace="42.5197"/>
					<v:textRect cx="21.2598" cy="361.22" width="42.52" height="14.0866"/>
					<rect x="0" y="354.177" width="42.5197" height="14.0866" class="st21"/>
					<text x="6.26" y="364.22" class="st9" v:langID="2052"><v:paragraph v:horizAlign="1"/><v:tabList/>任务组</text>				</g>
				<g id="shape28-231" v:mID="28" v:groupContext="shape" transform="translate(42.5197,0)">
					<title>工作表.28</title>
					<desc>CFS运行队列</desc>
					<v:textBlock v:margins="rect(4,4,4,4)" v:tabSpace="42.5197"/>
					<v:textRect cx="31.8898" cy="361.22" width="63.78" height="14.0866"/>
					<rect x="0" y="354.177" width="63.7795" height="14.0866" class="st21"/>
					<text x="4.39" y="364.22" class="st9" v:langID="2052"><v:paragraph v:horizAlign="1"/><v:tabList/>CFS运行队列</text>				</g>
			</g>
			<g id="shape41-234" v:mID="41" v:groupContext="shape" v:layerMember="0" transform="translate(77.9528,-106.299)">
				<title>底部到顶部固定 2.41</title>
				<v:userDefs>
					<v:ud v:nameU="TextPos" v:val="VT0(1):26"/>
					<v:ud v:nameU="Offset" v:val="VT0(0.19685039370079):24"/>
					<v:ud v:nameU="Scale" v:val="VT0(1):26"/>
					<v:ud v:nameU="AntiScale" v:val="VT0(1):26"/>
					<v:ud v:nameU="visVersion" v:val="VT0(15):26"/>
				</v:userDefs>
				<path d="M0 325.74 L0 351.82 A2.26772 2.26772 -180 0 0 2.27 354.09 L22.54 354.09 A2.26772 2.26772 0 0 1 24.8 356.36
							 L24.8 362.54" class="st12"/>
			</g>
		</g>
	</g>
</svg>
