<?xml version="1.0" encoding="UTF-8" standalone="no"?>
<!DOCTYPE svg PUBLIC "-//W3C//DTD SVG 1.1//EN" "http://www.w3.org/Graphics/SVG/1.1/DTD/svg11.dtd">
<!-- 由 Microsoft Visio, SVG Export 生成 scheduling_latency_task.svg 页-1 -->
<svg xmlns="http://www.w3.org/2000/svg" xmlns:xlink="http://www.w3.org/1999/xlink" xmlns:ev="http://www.w3.org/2001/xml-events"
		xmlns:v="http://schemas.microsoft.com/visio/2003/SVGExtensions/" width="7.96777in" height="1.62292in"
		viewBox="0 0 573.679 116.85" xml:space="preserve" color-interpolation-filters="sRGB" class="st12">
	<v:documentProperties v:langID="2052" v:metric="true" v:viewMarkup="false"/>

	<style type="text/css">
	<![CDATA[
		.st1 {visibility:visible}
		.st2 {fill:#5b9bd5;fill-opacity:0.22;filter:url(#filter_2);stroke:#5b9bd5;stroke-opacity:0.22}
		.st3 {fill:#bfbfbf;stroke:#000000;stroke-width:0.5}
		.st4 {fill:#000000;font-family:宋体;font-size:0.916672em}
		.st5 {font-family:Times New Roman;font-size:1em}
		.st6 {stroke:#000000;stroke-width:0.5}
		.st7 {fill:none;stroke:none;stroke-width:0.25}
		.st8 {fill:#000000;font-family:Times New Roman;font-size:0.75em}
		.st9 {fill:#000000;font-family:宋体;font-size:0.75em;font-weight:bold}
		.st10 {font-size:1em;font-weight:normal}
		.st11 {font-family:Times New Roman;font-size:1em;font-weight:normal}
		.st12 {fill:none;fill-rule:evenodd;font-size:12px;overflow:visible;stroke-linecap:square;stroke-miterlimit:3}
	]]>
	</style>

	<defs id="Filters">
		<filter id="filter_2">
			<feGaussianBlur stdDeviation="2"/>
		</filter>
	</defs>
	<g v:mID="0" v:index="1" v:groupContext="foregroundPage">
		<title>页-1</title>
		<v:pageProperties v:drawingScale="0.0393701" v:pageScale="0.0393701" v:drawingUnits="24" v:shadowOffsetX="8.50394"
				v:shadowOffsetY="-8.50394"/>
		<g id="group34-1" transform="translate(3.02939,-22.9921)" v:mID="34" v:groupContext="group">
			<title>工作表.34</title>
			<g id="shape1-2" v:mID="1" v:groupContext="shape" transform="translate(7.59393E-014,-28.3465)">
				<title>矩形</title>
				<desc>进程A</desc>
				<v:userDefs>
					<v:ud v:nameU="visVersion" v:val="VT0(15):26"/>
				</v:userDefs>
				<v:textBlock v:margins="rect(4,4,4,4)" v:tabSpace="42.5197"/>
				<v:textRect cx="28.3465" cy="109.764" width="56.7" height="14.1732"/>
				<g id="shadow1-3" v:groupContext="shadow" v:shadowOffsetX="0.345598" v:shadowOffsetY="-1.97279" v:shadowType="1"
						transform="matrix(1,0,0,1,0.345598,1.97279)" class="st1">
					<rect x="0" y="102.677" width="56.6929" height="14.1732" class="st2"/>
				</g>
				<rect x="0" y="102.677" width="56.6929" height="14.1732" class="st3"/>
				<text x="13.37" y="113.38" class="st4" v:langID="2052"><v:paragraph v:horizAlign="1"/><v:tabList/>进程<tspan
							class="st5">A</tspan></text>			</g>
			<g id="shape2-9" v:mID="2" v:groupContext="shape" transform="translate(56.6929,-28.3465)">
				<title>矩形.2</title>
				<desc>进程B</desc>
				<v:userDefs>
					<v:ud v:nameU="visVersion" v:val="VT0(15):26"/>
				</v:userDefs>
				<v:textBlock v:margins="rect(4,4,4,4)" v:tabSpace="42.5197"/>
				<v:textRect cx="28.3465" cy="109.764" width="56.7" height="14.1732"/>
				<g id="shadow2-10" v:groupContext="shadow" v:shadowOffsetX="0.345598" v:shadowOffsetY="-1.97279" v:shadowType="1"
						transform="matrix(1,0,0,1,0.345598,1.97279)" class="st1">
					<rect x="0" y="102.677" width="56.6929" height="14.1732" class="st2"/>
				</g>
				<rect x="0" y="102.677" width="56.6929" height="14.1732" class="st3"/>
				<text x="13.68" y="113.38" class="st4" v:langID="2052"><v:paragraph v:horizAlign="1"/><v:tabList/>进程<tspan
							class="st5">B</tspan></text>			</g>
			<g id="shape3-16" v:mID="3" v:groupContext="shape" transform="translate(113.386,-28.3465)">
				<title>矩形.3</title>
				<desc>进程C</desc>
				<v:userDefs>
					<v:ud v:nameU="visVersion" v:val="VT0(15):26"/>
				</v:userDefs>
				<v:textBlock v:margins="rect(4,4,4,4)" v:tabSpace="42.5197"/>
				<v:textRect cx="28.3465" cy="109.764" width="56.7" height="14.1732"/>
				<g id="shadow3-17" v:groupContext="shadow" v:shadowOffsetX="0.345598" v:shadowOffsetY="-1.97279" v:shadowType="1"
						transform="matrix(1,0,0,1,0.345598,1.97279)" class="st1">
					<rect x="0" y="102.677" width="56.6929" height="14.1732" class="st2"/>
				</g>
				<rect x="0" y="102.677" width="56.6929" height="14.1732" class="st3"/>
				<text x="13.68" y="113.38" class="st4" v:langID="2052"><v:paragraph v:horizAlign="1"/><v:tabList/>进程<tspan
							class="st5">C</tspan></text>			</g>
			<g id="shape4-23" v:mID="4" v:groupContext="shape" transform="translate(170.079,-28.3465)">
				<title>矩形.4</title>
				<desc>进程D</desc>
				<v:userDefs>
					<v:ud v:nameU="visVersion" v:val="VT0(15):26"/>
				</v:userDefs>
				<v:textBlock v:margins="rect(4,4,4,4)" v:tabSpace="42.5197"/>
				<v:textRect cx="28.3465" cy="109.764" width="56.7" height="14.1732"/>
				<g id="shadow4-24" v:groupContext="shadow" v:shadowOffsetX="0.345598" v:shadowOffsetY="-1.97279" v:shadowType="1"
						transform="matrix(1,0,0,1,0.345598,1.97279)" class="st1">
					<rect x="0" y="102.677" width="56.6929" height="14.1732" class="st2"/>
				</g>
				<rect x="0" y="102.677" width="56.6929" height="14.1732" class="st3"/>
				<text x="13.37" y="113.38" class="st4" v:langID="2052"><v:paragraph v:horizAlign="1"/><v:tabList/>进程<tspan
							class="st5">D</tspan></text>			</g>
			<g id="shape5-30" v:mID="5" v:groupContext="shape" transform="translate(226.772,-28.3465)">
				<title>矩形.5</title>
				<desc>进程E</desc>
				<v:userDefs>
					<v:ud v:nameU="visVersion" v:val="VT0(15):26"/>
				</v:userDefs>
				<v:textBlock v:margins="rect(4,4,4,4)" v:tabSpace="42.5197"/>
				<v:textRect cx="28.3465" cy="109.764" width="56.7" height="14.1732"/>
				<g id="shadow5-31" v:groupContext="shadow" v:shadowOffsetX="0.345598" v:shadowOffsetY="-1.97279" v:shadowType="1"
						transform="matrix(1,0,0,1,0.345598,1.97279)" class="st1">
					<rect x="0" y="102.677" width="56.6929" height="14.1732" class="st2"/>
				</g>
				<rect x="0" y="102.677" width="56.6929" height="14.1732" class="st3"/>
				<text x="13.99" y="113.38" class="st4" v:langID="2052"><v:paragraph v:horizAlign="1"/><v:tabList/>进程<tspan
							class="st5">E</tspan></text>			</g>
			<g id="shape6-37" v:mID="6" v:groupContext="shape" transform="translate(283.465,-28.3465)">
				<title>矩形.6</title>
				<desc>进程F</desc>
				<v:userDefs>
					<v:ud v:nameU="visVersion" v:val="VT0(15):26"/>
				</v:userDefs>
				<v:textBlock v:margins="rect(4,4,4,4)" v:tabSpace="42.5197"/>
				<v:textRect cx="28.3465" cy="109.764" width="56.7" height="14.1732"/>
				<g id="shadow6-38" v:groupContext="shadow" v:shadowOffsetX="0.345598" v:shadowOffsetY="-1.97279" v:shadowType="1"
						transform="matrix(1,0,0,1,0.345598,1.97279)" class="st1">
					<rect x="0" y="102.677" width="56.6929" height="14.1732" class="st2"/>
				</g>
				<rect x="0" y="102.677" width="56.6929" height="14.1732" class="st3"/>
				<text x="14.29" y="113.38" class="st4" v:langID="2052"><v:paragraph v:horizAlign="1"/><v:tabList/>进程<tspan
							class="st5">F</tspan></text>			</g>
			<g id="shape7-44" v:mID="7" v:groupContext="shape" transform="translate(340.157,-28.3465)">
				<title>矩形.7</title>
				<desc>进程G</desc>
				<v:userDefs>
					<v:ud v:nameU="visVersion" v:val="VT0(15):26"/>
				</v:userDefs>
				<v:textBlock v:margins="rect(4,4,4,4)" v:tabSpace="42.5197"/>
				<v:textRect cx="28.3465" cy="109.764" width="56.7" height="14.1732"/>
				<g id="shadow7-45" v:groupContext="shadow" v:shadowOffsetX="0.345598" v:shadowOffsetY="-1.97279" v:shadowType="1"
						transform="matrix(1,0,0,1,0.345598,1.97279)" class="st1">
					<rect x="0" y="102.677" width="56.6929" height="14.1732" class="st2"/>
				</g>
				<rect x="0" y="102.677" width="56.6929" height="14.1732" class="st3"/>
				<text x="13.37" y="113.38" class="st4" v:langID="2052"><v:paragraph v:horizAlign="1"/><v:tabList/>进程<tspan
							class="st5">G</tspan></text>			</g>
			<g id="shape8-51" v:mID="8" v:groupContext="shape" transform="translate(396.85,-28.3465)">
				<title>矩形.8</title>
				<desc>进程H</desc>
				<v:userDefs>
					<v:ud v:nameU="visVersion" v:val="VT0(15):26"/>
				</v:userDefs>
				<v:textBlock v:margins="rect(4,4,4,4)" v:tabSpace="42.5197"/>
				<v:textRect cx="28.3465" cy="109.764" width="56.7" height="14.1732"/>
				<g id="shadow8-52" v:groupContext="shadow" v:shadowOffsetX="0.345598" v:shadowOffsetY="-1.97279" v:shadowType="1"
						transform="matrix(1,0,0,1,0.345598,1.97279)" class="st1">
					<rect x="0" y="102.677" width="56.6929" height="14.1732" class="st2"/>
				</g>
				<rect x="0" y="102.677" width="56.6929" height="14.1732" class="st3"/>
				<text x="13.37" y="113.38" class="st4" v:langID="2052"><v:paragraph v:horizAlign="1"/><v:tabList/>进程<tspan
							class="st5">H</tspan></text>			</g>
			<g id="shape9-58" v:mID="9" v:groupContext="shape" transform="translate(453.543,-28.3465)">
				<title>矩形.9</title>
				<desc>进程I</desc>
				<v:userDefs>
					<v:ud v:nameU="visVersion" v:val="VT0(15):26"/>
				</v:userDefs>
				<v:textBlock v:margins="rect(4,4,4,4)" v:tabSpace="42.5197"/>
				<v:textRect cx="28.3465" cy="109.764" width="56.7" height="14.1732"/>
				<g id="shadow9-59" v:groupContext="shadow" v:shadowOffsetX="0.345598" v:shadowOffsetY="-1.97279" v:shadowType="1"
						transform="matrix(1,0,0,1,0.345598,1.97279)" class="st1">
					<rect x="0" y="102.677" width="56.6929" height="14.1732" class="st2"/>
				</g>
				<rect x="0" y="102.677" width="56.6929" height="14.1732" class="st3"/>
				<text x="15.51" y="113.38" class="st4" v:langID="2052"><v:paragraph v:horizAlign="1"/><v:tabList/>进程<tspan
							class="st5">I</tspan></text>			</g>
			<g id="shape10-65" v:mID="10" v:groupContext="shape" transform="translate(510.236,-28.3465)">
				<title>矩形.10</title>
				<desc>进程J</desc>
				<v:userDefs>
					<v:ud v:nameU="visVersion" v:val="VT0(15):26"/>
				</v:userDefs>
				<v:textBlock v:margins="rect(4,4,4,4)" v:tabSpace="42.5197"/>
				<v:textRect cx="28.3465" cy="109.764" width="56.7" height="14.1732"/>
				<g id="shadow10-66" v:groupContext="shadow" v:shadowOffsetX="0.345598" v:shadowOffsetY="-1.97279" v:shadowType="1"
						transform="matrix(1,0,0,1,0.345598,1.97279)" class="st1">
					<rect x="0" y="102.677" width="56.6929" height="14.1732" class="st2"/>
				</g>
				<rect x="0" y="102.677" width="56.6929" height="14.1732" class="st3"/>
				<text x="15.21" y="113.38" class="st4" v:langID="2052"><v:paragraph v:horizAlign="1"/><v:tabList/>进程<tspan
							class="st5">J</tspan></text>			</g>
			<g id="shape11-72" v:mID="11" v:groupContext="shape" transform="translate(56.6929,-21.2598) scale(-1,1)">
				<title>侧边大括号</title>
				<v:userDefs>
					<v:ud v:nameU="TxtW" v:val="VT0(0.55555555555556):29"/>
					<v:ud v:nameU="TxtA" v:val="VT0(1.5707963267949):37"/>
					<v:ud v:nameU="TxtAState" v:val="VT0(0):26"/>
					<v:ud v:nameU="TxtWState" v:val="VT0(0):26"/>
					<v:ud v:nameU="MaxRadius" v:val="VT0(0.19685039370079):24"/>
					<v:ud v:nameU="PosCH1" v:prompt="Constrains X postion of Control Handle #1" v:val="VT0(0):26"/>
					<v:ud v:nameU="PosCH2" v:prompt="Constrains Y postion of Control Handle #2" v:val="VT0(0):26"/>
					<v:ud v:nameU="Scale" v:val="VT0(1):26"/>
					<v:ud v:nameU="AntiScale" v:val="VT0(1):26"/>
					<v:ud v:nameU="visVersion" v:val="VT0(15):26"/>
					<v:ud v:nameU="TxtA" v:prompt="" v:val="VT0(-1.5707963267949):32"/>
					<v:ud v:nameU="MaxRadius" v:prompt="" v:val="VT0(0.059055118110236):1"/>
				</v:userDefs>
				<path d="M-0 112.6 A4.2519 4.2519 -180 0 0 4.25 116.85 L24.09 116.85 A4.2519 4.2519 0 0 1 28.35 121.1 A4.2519 4.2519
							 0 0 1 32.6 116.85 L52.44 116.85 A4.2519 4.2519 -180 0 0 56.69 112.6" class="st6"/>
			</g>
			<g id="shape12-75" v:mID="12" v:groupContext="shape">
				<title>工作表.12</title>
				<desc>2.25ms</desc>
				<v:textBlock v:margins="rect(4,4,4,4)" v:tabSpace="42.5197"/>
				<v:textRect cx="28.3465" cy="109.764" width="56.7" height="14.1732"/>
				<rect x="0" y="102.677" width="56.6929" height="14.1732" class="st7"/>
				<text x="15.22" y="112.46" class="st8" v:langID="2052"><v:paragraph v:horizAlign="1"/><v:tabList/>2.25ms</text>			</g>
			<g id="shape13-78" v:mID="13" v:groupContext="shape" transform="translate(113.386,-21.2598) scale(-1,1)">
				<title>侧边大括号.13</title>
				<v:userDefs>
					<v:ud v:nameU="TxtW" v:val="VT0(0.55555555555556):29"/>
					<v:ud v:nameU="TxtA" v:val="VT0(1.5707963267949):37"/>
					<v:ud v:nameU="TxtAState" v:val="VT0(0):26"/>
					<v:ud v:nameU="TxtWState" v:val="VT0(0):26"/>
					<v:ud v:nameU="MaxRadius" v:val="VT0(0.19685039370079):24"/>
					<v:ud v:nameU="PosCH1" v:prompt="Constrains X postion of Control Handle #1" v:val="VT0(0):26"/>
					<v:ud v:nameU="PosCH2" v:prompt="Constrains Y postion of Control Handle #2" v:val="VT0(0):26"/>
					<v:ud v:nameU="Scale" v:val="VT0(1):26"/>
					<v:ud v:nameU="AntiScale" v:val="VT0(1):26"/>
					<v:ud v:nameU="visVersion" v:val="VT0(15):26"/>
					<v:ud v:nameU="TxtA" v:prompt="" v:val="VT0(-1.5707963267949):32"/>
					<v:ud v:nameU="MaxRadius" v:prompt="" v:val="VT0(0.059055118110236):1"/>
				</v:userDefs>
				<path d="M-0 112.6 A4.2519 4.2519 -180 0 0 4.25 116.85 L24.09 116.85 A4.2519 4.2519 0 0 1 28.35 121.1 A4.2519 4.2519
							 0 0 1 32.6 116.85 L52.44 116.85 A4.2519 4.2519 -180 0 0 56.69 112.6" class="st6"/>
			</g>
			<g id="shape14-81" v:mID="14" v:groupContext="shape" transform="translate(56.6929,0)">
				<title>工作表.14</title>
				<desc>2.25ms</desc>
				<v:textBlock v:margins="rect(4,4,4,4)" v:tabSpace="42.5197"/>
				<v:textRect cx="28.3465" cy="109.764" width="56.7" height="14.1732"/>
				<rect x="0" y="102.677" width="56.6929" height="14.1732" class="st7"/>
				<text x="15.22" y="112.46" class="st8" v:langID="2052"><v:paragraph v:horizAlign="1"/><v:tabList/>2.25ms</text>			</g>
			<g id="shape15-84" v:mID="15" v:groupContext="shape" transform="translate(170.079,-21.2598) scale(-1,1)">
				<title>侧边大括号.15</title>
				<v:userDefs>
					<v:ud v:nameU="TxtW" v:val="VT0(0.55555555555556):29"/>
					<v:ud v:nameU="TxtA" v:val="VT0(1.5707963267949):37"/>
					<v:ud v:nameU="TxtAState" v:val="VT0(0):26"/>
					<v:ud v:nameU="TxtWState" v:val="VT0(0):26"/>
					<v:ud v:nameU="MaxRadius" v:val="VT0(0.19685039370079):24"/>
					<v:ud v:nameU="PosCH1" v:prompt="Constrains X postion of Control Handle #1" v:val="VT0(0):26"/>
					<v:ud v:nameU="PosCH2" v:prompt="Constrains Y postion of Control Handle #2" v:val="VT0(0):26"/>
					<v:ud v:nameU="Scale" v:val="VT0(1):26"/>
					<v:ud v:nameU="AntiScale" v:val="VT0(1):26"/>
					<v:ud v:nameU="visVersion" v:val="VT0(15):26"/>
					<v:ud v:nameU="TxtA" v:prompt="" v:val="VT0(-1.5707963267949):32"/>
					<v:ud v:nameU="MaxRadius" v:prompt="" v:val="VT0(0.059055118110236):1"/>
				</v:userDefs>
				<path d="M-0 112.6 A4.2519 4.2519 -180 0 0 4.25 116.85 L24.09 116.85 A4.2519 4.2519 0 0 1 28.35 121.1 A4.2519 4.2519
							 0 0 1 32.6 116.85 L52.44 116.85 A4.2519 4.2519 -180 0 0 56.69 112.6" class="st6"/>
			</g>
			<g id="shape16-87" v:mID="16" v:groupContext="shape" transform="translate(113.386,0)">
				<title>工作表.16</title>
				<desc>2.25ms</desc>
				<v:textBlock v:margins="rect(4,4,4,4)" v:tabSpace="42.5197"/>
				<v:textRect cx="28.3465" cy="109.764" width="56.7" height="14.1732"/>
				<rect x="0" y="102.677" width="56.6929" height="14.1732" class="st7"/>
				<text x="15.22" y="112.46" class="st8" v:langID="2052"><v:paragraph v:horizAlign="1"/><v:tabList/>2.25ms</text>			</g>
			<g id="shape17-90" v:mID="17" v:groupContext="shape" transform="translate(226.772,-21.2598) scale(-1,1)">
				<title>侧边大括号.17</title>
				<v:userDefs>
					<v:ud v:nameU="TxtW" v:val="VT0(0.55555555555556):29"/>
					<v:ud v:nameU="TxtA" v:val="VT0(1.5707963267949):37"/>
					<v:ud v:nameU="TxtAState" v:val="VT0(0):26"/>
					<v:ud v:nameU="TxtWState" v:val="VT0(0):26"/>
					<v:ud v:nameU="MaxRadius" v:val="VT0(0.19685039370079):24"/>
					<v:ud v:nameU="PosCH1" v:prompt="Constrains X postion of Control Handle #1" v:val="VT0(0):26"/>
					<v:ud v:nameU="PosCH2" v:prompt="Constrains Y postion of Control Handle #2" v:val="VT0(0):26"/>
					<v:ud v:nameU="Scale" v:val="VT0(1):26"/>
					<v:ud v:nameU="AntiScale" v:val="VT0(1):26"/>
					<v:ud v:nameU="visVersion" v:val="VT0(15):26"/>
					<v:ud v:nameU="TxtA" v:prompt="" v:val="VT0(-1.5707963267949):32"/>
					<v:ud v:nameU="MaxRadius" v:prompt="" v:val="VT0(0.059055118110236):1"/>
				</v:userDefs>
				<path d="M-0 112.6 A4.2519 4.2519 -180 0 0 4.25 116.85 L24.09 116.85 A4.2519 4.2519 0 0 1 28.35 121.1 A4.2519 4.2519
							 0 0 1 32.6 116.85 L52.44 116.85 A4.2519 4.2519 -180 0 0 56.69 112.6" class="st6"/>
			</g>
			<g id="shape18-93" v:mID="18" v:groupContext="shape" transform="translate(170.079,0)">
				<title>工作表.18</title>
				<desc>2.25ms</desc>
				<v:textBlock v:margins="rect(4,4,4,4)" v:tabSpace="42.5197"/>
				<v:textRect cx="28.3465" cy="109.764" width="56.7" height="14.1732"/>
				<rect x="0" y="102.677" width="56.6929" height="14.1732" class="st7"/>
				<text x="15.22" y="112.46" class="st8" v:langID="2052"><v:paragraph v:horizAlign="1"/><v:tabList/>2.25ms</text>			</g>
			<g id="shape19-96" v:mID="19" v:groupContext="shape" transform="translate(283.465,-21.2598) scale(-1,1)">
				<title>侧边大括号.19</title>
				<v:userDefs>
					<v:ud v:nameU="TxtW" v:val="VT0(0.55555555555556):29"/>
					<v:ud v:nameU="TxtA" v:val="VT0(1.5707963267949):37"/>
					<v:ud v:nameU="TxtAState" v:val="VT0(0):26"/>
					<v:ud v:nameU="TxtWState" v:val="VT0(0):26"/>
					<v:ud v:nameU="MaxRadius" v:val="VT0(0.19685039370079):24"/>
					<v:ud v:nameU="PosCH1" v:prompt="Constrains X postion of Control Handle #1" v:val="VT0(0):26"/>
					<v:ud v:nameU="PosCH2" v:prompt="Constrains Y postion of Control Handle #2" v:val="VT0(0):26"/>
					<v:ud v:nameU="Scale" v:val="VT0(1):26"/>
					<v:ud v:nameU="AntiScale" v:val="VT0(1):26"/>
					<v:ud v:nameU="visVersion" v:val="VT0(15):26"/>
					<v:ud v:nameU="TxtA" v:prompt="" v:val="VT0(-1.5707963267949):32"/>
					<v:ud v:nameU="MaxRadius" v:prompt="" v:val="VT0(0.059055118110236):1"/>
				</v:userDefs>
				<path d="M-0 112.6 A4.2519 4.2519 -180 0 0 4.25 116.85 L24.09 116.85 A4.2519 4.2519 0 0 1 28.35 121.1 A4.2519 4.2519
							 0 0 1 32.6 116.85 L52.44 116.85 A4.2519 4.2519 -180 0 0 56.69 112.6" class="st6"/>
			</g>
			<g id="shape20-99" v:mID="20" v:groupContext="shape" transform="translate(226.772,0)">
				<title>工作表.20</title>
				<desc>2.25ms</desc>
				<v:textBlock v:margins="rect(4,4,4,4)" v:tabSpace="42.5197"/>
				<v:textRect cx="28.3465" cy="109.764" width="56.7" height="14.1732"/>
				<rect x="0" y="102.677" width="56.6929" height="14.1732" class="st7"/>
				<text x="15.22" y="112.46" class="st8" v:langID="2052"><v:paragraph v:horizAlign="1"/><v:tabList/>2.25ms</text>			</g>
			<g id="shape21-102" v:mID="21" v:groupContext="shape" transform="translate(340.157,-21.2598) scale(-1,1)">
				<title>侧边大括号.21</title>
				<v:userDefs>
					<v:ud v:nameU="TxtW" v:val="VT0(0.55555555555556):29"/>
					<v:ud v:nameU="TxtA" v:val="VT0(1.5707963267949):37"/>
					<v:ud v:nameU="TxtAState" v:val="VT0(0):26"/>
					<v:ud v:nameU="TxtWState" v:val="VT0(0):26"/>
					<v:ud v:nameU="MaxRadius" v:val="VT0(0.19685039370079):24"/>
					<v:ud v:nameU="PosCH1" v:prompt="Constrains X postion of Control Handle #1" v:val="VT0(0):26"/>
					<v:ud v:nameU="PosCH2" v:prompt="Constrains Y postion of Control Handle #2" v:val="VT0(0):26"/>
					<v:ud v:nameU="Scale" v:val="VT0(1):26"/>
					<v:ud v:nameU="AntiScale" v:val="VT0(1):26"/>
					<v:ud v:nameU="visVersion" v:val="VT0(15):26"/>
					<v:ud v:nameU="TxtA" v:prompt="" v:val="VT0(-1.5707963267949):32"/>
					<v:ud v:nameU="MaxRadius" v:prompt="" v:val="VT0(0.059055118110236):1"/>
				</v:userDefs>
				<path d="M-0 112.6 A4.2519 4.2519 -180 0 0 4.25 116.85 L24.09 116.85 A4.2519 4.2519 0 0 1 28.35 121.1 A4.2519 4.2519
							 0 0 1 32.6 116.85 L52.44 116.85 A4.2519 4.2519 -180 0 0 56.69 112.6" class="st6"/>
			</g>
			<g id="shape22-105" v:mID="22" v:groupContext="shape" transform="translate(283.465,0)">
				<title>工作表.22</title>
				<desc>2.25ms</desc>
				<v:textBlock v:margins="rect(4,4,4,4)" v:tabSpace="42.5197"/>
				<v:textRect cx="28.3465" cy="109.764" width="56.7" height="14.1732"/>
				<rect x="0" y="102.677" width="56.6929" height="14.1732" class="st7"/>
				<text x="15.22" y="112.46" class="st8" v:langID="2052"><v:paragraph v:horizAlign="1"/><v:tabList/>2.25ms</text>			</g>
			<g id="shape23-108" v:mID="23" v:groupContext="shape" transform="translate(396.85,-21.2598) scale(-1,1)">
				<title>侧边大括号.23</title>
				<v:userDefs>
					<v:ud v:nameU="TxtW" v:val="VT0(0.55555555555556):29"/>
					<v:ud v:nameU="TxtA" v:val="VT0(1.5707963267949):37"/>
					<v:ud v:nameU="TxtAState" v:val="VT0(0):26"/>
					<v:ud v:nameU="TxtWState" v:val="VT0(0):26"/>
					<v:ud v:nameU="MaxRadius" v:val="VT0(0.19685039370079):24"/>
					<v:ud v:nameU="PosCH1" v:prompt="Constrains X postion of Control Handle #1" v:val="VT0(0):26"/>
					<v:ud v:nameU="PosCH2" v:prompt="Constrains Y postion of Control Handle #2" v:val="VT0(0):26"/>
					<v:ud v:nameU="Scale" v:val="VT0(1):26"/>
					<v:ud v:nameU="AntiScale" v:val="VT0(1):26"/>
					<v:ud v:nameU="visVersion" v:val="VT0(15):26"/>
					<v:ud v:nameU="TxtA" v:prompt="" v:val="VT0(-1.5707963267949):32"/>
					<v:ud v:nameU="MaxRadius" v:prompt="" v:val="VT0(0.059055118110236):1"/>
				</v:userDefs>
				<path d="M-0 112.6 A4.2519 4.2519 -180 0 0 4.25 116.85 L24.09 116.85 A4.2519 4.2519 0 0 1 28.35 121.1 A4.2519 4.2519
							 0 0 1 32.6 116.85 L52.44 116.85 A4.2519 4.2519 -180 0 0 56.69 112.6" class="st6"/>
			</g>
			<g id="shape24-111" v:mID="24" v:groupContext="shape" transform="translate(340.157,0)">
				<title>工作表.24</title>
				<desc>2.25ms</desc>
				<v:textBlock v:margins="rect(4,4,4,4)" v:tabSpace="42.5197"/>
				<v:textRect cx="28.3465" cy="109.764" width="56.7" height="14.1732"/>
				<rect x="0" y="102.677" width="56.6929" height="14.1732" class="st7"/>
				<text x="15.22" y="112.46" class="st8" v:langID="2052"><v:paragraph v:horizAlign="1"/><v:tabList/>2.25ms</text>			</g>
			<g id="shape25-114" v:mID="25" v:groupContext="shape" transform="translate(453.543,-21.2598) scale(-1,1)">
				<title>侧边大括号.25</title>
				<v:userDefs>
					<v:ud v:nameU="TxtW" v:val="VT0(0.55555555555556):29"/>
					<v:ud v:nameU="TxtA" v:val="VT0(1.5707963267949):37"/>
					<v:ud v:nameU="TxtAState" v:val="VT0(0):26"/>
					<v:ud v:nameU="TxtWState" v:val="VT0(0):26"/>
					<v:ud v:nameU="MaxRadius" v:val="VT0(0.19685039370079):24"/>
					<v:ud v:nameU="PosCH1" v:prompt="Constrains X postion of Control Handle #1" v:val="VT0(0):26"/>
					<v:ud v:nameU="PosCH2" v:prompt="Constrains Y postion of Control Handle #2" v:val="VT0(0):26"/>
					<v:ud v:nameU="Scale" v:val="VT0(1):26"/>
					<v:ud v:nameU="AntiScale" v:val="VT0(1):26"/>
					<v:ud v:nameU="visVersion" v:val="VT0(15):26"/>
					<v:ud v:nameU="TxtA" v:prompt="" v:val="VT0(-1.5707963267949):32"/>
					<v:ud v:nameU="MaxRadius" v:prompt="" v:val="VT0(0.059055118110236):1"/>
				</v:userDefs>
				<path d="M-0 112.6 A4.2519 4.2519 -180 0 0 4.25 116.85 L24.09 116.85 A4.2519 4.2519 0 0 1 28.35 121.1 A4.2519 4.2519
							 0 0 1 32.6 116.85 L52.44 116.85 A4.2519 4.2519 -180 0 0 56.69 112.6" class="st6"/>
			</g>
			<g id="shape26-117" v:mID="26" v:groupContext="shape" transform="translate(396.85,0)">
				<title>工作表.26</title>
				<desc>2.25ms</desc>
				<v:textBlock v:margins="rect(4,4,4,4)" v:tabSpace="42.5197"/>
				<v:textRect cx="28.3465" cy="109.764" width="56.7" height="14.1732"/>
				<rect x="0" y="102.677" width="56.6929" height="14.1732" class="st7"/>
				<text x="15.22" y="112.46" class="st8" v:langID="2052"><v:paragraph v:horizAlign="1"/><v:tabList/>2.25ms</text>			</g>
			<g id="shape27-120" v:mID="27" v:groupContext="shape" transform="translate(510.236,-21.2598) scale(-1,1)">
				<title>侧边大括号.27</title>
				<v:userDefs>
					<v:ud v:nameU="TxtW" v:val="VT0(0.55555555555556):29"/>
					<v:ud v:nameU="TxtA" v:val="VT0(1.5707963267949):37"/>
					<v:ud v:nameU="TxtAState" v:val="VT0(0):26"/>
					<v:ud v:nameU="TxtWState" v:val="VT0(0):26"/>
					<v:ud v:nameU="MaxRadius" v:val="VT0(0.19685039370079):24"/>
					<v:ud v:nameU="PosCH1" v:prompt="Constrains X postion of Control Handle #1" v:val="VT0(0):26"/>
					<v:ud v:nameU="PosCH2" v:prompt="Constrains Y postion of Control Handle #2" v:val="VT0(0):26"/>
					<v:ud v:nameU="Scale" v:val="VT0(1):26"/>
					<v:ud v:nameU="AntiScale" v:val="VT0(1):26"/>
					<v:ud v:nameU="visVersion" v:val="VT0(15):26"/>
					<v:ud v:nameU="TxtA" v:prompt="" v:val="VT0(-1.5707963267949):32"/>
					<v:ud v:nameU="MaxRadius" v:prompt="" v:val="VT0(0.059055118110236):1"/>
				</v:userDefs>
				<path d="M-0 112.6 A4.2519 4.2519 -180 0 0 4.25 116.85 L24.09 116.85 A4.2519 4.2519 0 0 1 28.35 121.1 A4.2519 4.2519
							 0 0 1 32.6 116.85 L52.44 116.85 A4.2519 4.2519 -180 0 0 56.69 112.6" class="st6"/>
			</g>
			<g id="shape28-123" v:mID="28" v:groupContext="shape" transform="translate(453.543,0)">
				<title>工作表.28</title>
				<desc>2.25ms</desc>
				<v:textBlock v:margins="rect(4,4,4,4)" v:tabSpace="42.5197"/>
				<v:textRect cx="28.3465" cy="109.764" width="56.7" height="14.1732"/>
				<rect x="0" y="102.677" width="56.6929" height="14.1732" class="st7"/>
				<text x="15.22" y="112.46" class="st8" v:langID="2052"><v:paragraph v:horizAlign="1"/><v:tabList/>2.25ms</text>			</g>
			<g id="shape29-126" v:mID="29" v:groupContext="shape" transform="translate(566.929,-21.2598) scale(-1,1)">
				<title>侧边大括号.29</title>
				<v:userDefs>
					<v:ud v:nameU="TxtW" v:val="VT0(0.55555555555556):29"/>
					<v:ud v:nameU="TxtA" v:val="VT0(1.5707963267949):37"/>
					<v:ud v:nameU="TxtAState" v:val="VT0(0):26"/>
					<v:ud v:nameU="TxtWState" v:val="VT0(0):26"/>
					<v:ud v:nameU="MaxRadius" v:val="VT0(0.19685039370079):24"/>
					<v:ud v:nameU="PosCH1" v:prompt="Constrains X postion of Control Handle #1" v:val="VT0(0):26"/>
					<v:ud v:nameU="PosCH2" v:prompt="Constrains Y postion of Control Handle #2" v:val="VT0(0):26"/>
					<v:ud v:nameU="Scale" v:val="VT0(1):26"/>
					<v:ud v:nameU="AntiScale" v:val="VT0(1):26"/>
					<v:ud v:nameU="visVersion" v:val="VT0(15):26"/>
					<v:ud v:nameU="TxtA" v:prompt="" v:val="VT0(-1.5707963267949):32"/>
					<v:ud v:nameU="MaxRadius" v:prompt="" v:val="VT0(0.059055118110236):1"/>
				</v:userDefs>
				<path d="M-0 112.6 A4.2519 4.2519 -180 0 0 4.25 116.85 L24.09 116.85 A4.2519 4.2519 0 0 1 28.35 121.1 A4.2519 4.2519
							 0 0 1 32.6 116.85 L52.44 116.85 A4.2519 4.2519 -180 0 0 56.69 112.6" class="st6"/>
			</g>
			<g id="shape30-129" v:mID="30" v:groupContext="shape" transform="translate(510.236,0)">
				<title>工作表.30</title>
				<desc>2.25ms</desc>
				<v:textBlock v:margins="rect(4,4,4,4)" v:tabSpace="42.5197"/>
				<v:textRect cx="28.3465" cy="109.764" width="56.7" height="14.1732"/>
				<rect x="0" y="102.677" width="56.6929" height="14.1732" class="st7"/>
				<text x="15.22" y="112.46" class="st8" v:langID="2052"><v:paragraph v:horizAlign="1"/><v:tabList/>2.25ms</text>			</g>
			<g id="shape31-132" v:mID="31" v:groupContext="shape" transform="translate(6.39488E-014,184.094) scale(1,-1)">
				<title>侧边大括号.31</title>
				<v:userDefs>
					<v:ud v:nameU="TxtW" v:val="VT0(0.55555555555556):29"/>
					<v:ud v:nameU="TxtA" v:val="VT0(1.5707963267949):37"/>
					<v:ud v:nameU="TxtAState" v:val="VT0(0):26"/>
					<v:ud v:nameU="TxtWState" v:val="VT0(0):26"/>
					<v:ud v:nameU="MaxRadius" v:val="VT0(0.19685039370079):24"/>
					<v:ud v:nameU="PosCH1" v:prompt="Constrains X postion of Control Handle #1" v:val="VT0(0):26"/>
					<v:ud v:nameU="PosCH2" v:prompt="Constrains Y postion of Control Handle #2" v:val="VT0(0):26"/>
					<v:ud v:nameU="Scale" v:val="VT0(1):26"/>
					<v:ud v:nameU="AntiScale" v:val="VT0(1):26"/>
					<v:ud v:nameU="visVersion" v:val="VT0(15):26"/>
					<v:ud v:nameU="MaxRadius" v:prompt="" v:val="VT0(0.059055118110236):1"/>
				</v:userDefs>
				<path d="M-0 112.6 A4.2519 4.2519 -180 0 0 4.25 116.85 L279.21 116.85 A4.2519 4.2519 0 0 1 283.46 121.1 A4.2519 4.2519
							 0 0 1 287.72 116.85 L562.68 116.85 A4.2519 4.2519 -180 0 0 566.93 112.6" class="st6"/>
			</g>
			<g id="shape32-135" v:mID="32" v:groupContext="shape" transform="translate(198.425,-56.6929)">
				<title>工作表.32</title>
				<desc>scheduling latency 22.5ms (2.25ms x 10)</desc>
				<v:textBlock v:margins="rect(4,4,4,4)" v:tabSpace="42.5197"/>
				<v:textRect cx="85.0394" cy="109.764" width="170.08" height="14.1732"/>
				<rect x="0" y="102.677" width="170.079" height="14.1732" class="st7"/>
				<text x="10.93" y="112.46" class="st8" v:langID="2052"><v:paragraph v:horizAlign="1"/><v:tabList/>scheduling latency 22.5ms (2.25ms x 10)</text>			</g>
			<g id="shape33-138" v:mID="33" v:groupContext="shape" transform="translate(467.717,-56.6929)">
				<title>工作表.33</title>
				<desc>进程A~J 具有相同的load weight</desc>
				<v:textBlock v:margins="rect(4,4,4,4)" v:tabSpace="42.5197"/>
				<v:textRect cx="49.6063" cy="102.677" width="99.22" height="28.3465"/>
				<rect x="0" y="88.5039" width="99.2126" height="28.3465" class="st7"/>
				<text x="4" y="99.73" class="st9" v:langID="2052"><v:paragraph/><v:tabList/>进程<tspan class="st5">A</tspan><tspan
							class="st5">~</tspan><tspan class="st5">J<v:newlineChar/></tspan><tspan x="4" dy="1.317em" class="st10">具有相同的</tspan><tspan
							class="st11">load weight</tspan></text>			</g>
		</g>
	</g>
</svg>
