<?xml version="1.0" encoding="UTF-8" standalone="no"?>
<!DOCTYPE svg PUBLIC "-//W3C//DTD SVG 1.1//EN" "http://www.w3.org/Graphics/SVG/1.1/DTD/svg11.dtd">
<!-- 由 Microsoft Visio, SVG Export 生成 sched_nr_latency.svg 页-1 -->
<svg xmlns="http://www.w3.org/2000/svg" xmlns:xlink="http://www.w3.org/1999/xlink" xmlns:ev="http://www.w3.org/2001/xml-events"
		xmlns:v="http://schemas.microsoft.com/visio/2003/SVGExtensions/" width="7.65677in" height="0.822775in"
		viewBox="0 0 551.288 59.2398" xml:space="preserve" color-interpolation-filters="sRGB" class="st6">
	<v:documentProperties v:langID="2052" v:metric="true" v:viewMarkup="false"/>

	<style type="text/css">
	<![CDATA[
		.st1 {fill:#000000;stroke:none;stroke-linecap:butt;stroke-width:1.13}
		.st2 {marker-end:url(#mrkr5-141);stroke:#000000;stroke-linecap:round;stroke-linejoin:round;stroke-width:0.75}
		.st3 {fill:#000000;fill-opacity:1;stroke:#000000;stroke-opacity:1;stroke-width:0.22935779816514}
		.st4 {fill:none;stroke:none;stroke-width:0.25}
		.st5 {fill:#000000;font-family:宋体;font-size:0.75em}
		.st6 {fill:none;fill-rule:evenodd;font-size:12px;overflow:visible;stroke-linecap:square;stroke-miterlimit:3}
	]]>
	</style>

	<defs id="Markers">
		<g id="lend5">
			<path d="M 2 1 L 0 0 L 1.98117 -0.993387 C 1.67173 -0.364514 1.67301 0.372642 1.98465 1.00043 " style="stroke:none"/>
		</g>
		<marker id="mrkr5-141" class="st3" v:arrowType="5" v:arrowSize="2" v:setback="7.63" refX="-7.63" orient="auto"
				markerUnits="strokeWidth" overflow="visible">
			<use xlink:href="#lend5" transform="scale(-4.36,-4.36) "/>
		</marker>
	</defs>
	<g v:mID="0" v:index="1" v:groupContext="foregroundPage">
		<title>页-1</title>
		<v:pageProperties v:drawingScale="0.0393701" v:pageScale="0.0393701" v:drawingUnits="24" v:shadowOffsetX="9"
				v:shadowOffsetY="-9"/>
		<g id="group73-1" transform="translate(1.13,-0.904214)" v:mID="73" v:groupContext="group">
			<title>工作表.73</title>
			<g id="group1-2" transform="translate(9.59233E-014,-1.95714)" v:mID="1" v:groupContext="group">
				<title>工作表.1</title>
				<g id="group2-3" v:mID="2" v:groupContext="group">
					<title>工作表.2</title>
					<g id="shape3-4" v:mID="3" v:groupContext="shape" transform="translate(-4.4964E-015,-20.5923)">
						<title>g0-115</title>
						<path d="M6.63 49.2 C6.63 48.78 6.61 48.76 6.47 48.76 C6.37 48.76 6.35 48.78 6.07 49.13 C6 49.22 5.79 49.46
									 5.72 49.55 C4.97 48.76 3.92 48.73 3.53 48.73 C0.93 48.73 0 50.09 0 51.44 C0 53.54 2.38 54.03
									 3.06 54.17 C4.53 54.48 5.04 54.57 5.53 54.99 C5.84 55.27 6.35 55.78 6.35 56.62 C6.35 57.61 5.79
									 58.87 3.64 58.87 C1.61 58.87 0.89 57.33 0.47 55.27 C0.4 54.94 0.4 54.92 0.21 54.92 C0.02 54.92
									 0 54.94 0 55.41 L0 58.77 C0 59.19 0.02 59.22 0.16 59.22 C0.28 59.22 0.3 59.19 0.42 59.01 C0.56
									 58.8 0.91 58.24 1.05 58 C1.52 58.63 2.33 59.24 3.64 59.24 C5.95 59.24 7.19 57.98 7.19 56.16
									 C7.19 54.97 6.56 54.34 6.26 54.06 C5.56 53.33 4.74 53.17 3.76 52.98 C2.47 52.7 0.84 52.38 0.84
									 50.95 C0.84 50.34 1.17 49.06 3.53 49.06 C6.02 49.06 6.16 51.39 6.21 52.14 C6.23 52.26 6.35 52.28
									 6.42 52.28 C6.63 52.28 6.63 52.21 6.63 51.81 L6.63 49.2 Z" class="st1"/>
					</g>
					<g id="shape4-6" v:mID="4" v:groupContext="shape" transform="translate(8.54585,-20.5923)">
						<title>g0-99</title>
						<path d="M7.38 50.88 C6.93 50.88 6.28 50.88 6.28 51.7 C6.28 52.35 6.82 52.54 7.12 52.54 C7.28 52.54 7.96
									 52.47 7.96 51.65 C7.96 49.99 6.37 48.73 4.58 48.73 C2.1 48.73 0 51.02 0 54.01 C0 57.12 2.19
									 59.24 4.58 59.24 C7.47 59.24 8.2 56.55 8.2 56.3 C8.2 56.2 8.17 56.13 8.01 56.13 C7.85 56.13
									 7.82 56.16 7.73 56.46 C7.12 58.35 5.79 58.82 4.79 58.82 C3.29 58.82 1.49 57.44 1.49 53.99 C1.49
									 50.44 3.22 49.15 4.6 49.15 C5.51 49.15 6.86 49.6 7.38 50.88 Z" class="st1"/>
					</g>
					<g id="shape5-8" v:mID="5" v:groupContext="shape" transform="translate(17.3888,-20.7791)">
						<title>g0-104</title>
						<path d="M8.92 52.14 C8.92 50.95 8.69 49.01 5.93 49.01 C4.02 49.01 3.08 50.55 2.8 51.32 L2.78 51.32 L2.78
									 43.04 L0 43.29 L0 43.9 C1.38 43.9 1.59 44.04 1.59 45.16 L1.59 57.63 C1.59 58.52 1.49 58.63 0
									 58.63 L0 59.24 C0.56 59.19 1.59 59.19 2.19 59.19 C2.8 59.19 3.85 59.19 4.41 59.24 L4.41 58.63
									 C2.92 58.63 2.83 58.54 2.83 57.63 L2.83 53.15 C2.83 51 4.13 49.39 5.77 49.39 C7.49 49.39 7.68
									 50.93 7.68 52.05 L7.68 57.63 C7.68 58.52 7.59 58.63 6.09 58.63 L6.09 59.24 C6.65 59.19 7.68
									 59.19 8.29 59.19 C8.9 59.19 9.95 59.19 10.51 59.24 L10.51 58.63 C9.01 58.63 8.92 58.54 8.92
									 57.63 L8.92 52.14 Z" class="st1"/>
					</g>
					<g id="shape6-10" v:mID="6" v:groupContext="shape" transform="translate(29.1321,-20.5923)">
						<title>g0-101</title>
						<path d="M8.27 53.57 C8.36 53.47 8.36 53.43 8.36 53.19 C8.36 50.81 7.1 48.73 4.44 48.73 C1.96 48.73 0 51.09
									 0 53.96 C0 57 2.22 59.24 4.69 59.24 C7.31 59.24 8.34 56.76 8.34 56.27 C8.34 56.11 8.2 56.11
									 8.15 56.11 C7.99 56.11 7.96 56.16 7.87 56.44 C7.35 58.03 6.07 58.82 4.86 58.82 C3.85 58.82 2.85
									 58.26 2.22 57.23 C1.49 56.04 1.49 54.66 1.49 53.57 L8.27 53.57 ZM1.52 53.22 C1.68 49.85 3.48
									 49.11 4.41 49.11 C6 49.11 7.07 50.6 7.1 53.22 L1.52 53.22 Z" class="st1"/>
					</g>
					<g id="shape7-12" v:mID="7" v:groupContext="shape" transform="translate(38.7251,-20.5923)">
						<title>g0-100</title>
						<path d="M6.05 43.11 L6.05 43.71 C7.42 43.71 7.64 43.85 7.64 44.97 L7.64 50.44 C7.54 50.32 6.58 48.83 4.69
									 48.83 C2.31 48.83 0 50.95 0 54.03 C0 57.09 2.17 59.24 4.46 59.24 C6.44 59.24 7.47 57.7 7.59
									 57.54 L7.59 59.24 L10.41 59.05 L10.41 58.45 C9.04 58.45 8.83 58.31 8.83 57.19 L8.83 42.85 L6.05
									 43.11 ZM7.59 56.25 C7.59 56.95 7.17 57.58 6.63 58.05 C5.84 58.75 5.04 58.87 4.6 58.87 C3.92
									 58.87 1.49 58.52 1.49 54.06 C1.49 49.48 4.2 49.2 4.81 49.2 C5.88 49.2 6.75 49.81 7.28 50.65
									 C7.59 51.14 7.59 51.21 7.59 51.63 L7.59 56.25 Z" class="st1"/>
					</g>
					<g id="shape8-14" v:mID="8" v:groupContext="shape" transform="translate(51.1225,-20.7791)">
						<title>工作表.8</title>
						<rect x="0" y="58.7895" width="6.42494" height="0.450305" class="st1"/>
					</g>
					<g id="shape9-16" v:mID="9" v:groupContext="shape" transform="translate(58.3182,-20.7791)">
						<title>g0-110</title>
						<path d="M8.92 52.14 C8.92 50.95 8.69 49.01 5.93 49.01 C4.09 49.01 3.13 50.44 2.78 51.37 L2.76 51.37 L2.76
									 49.01 L0 49.27 L0 49.88 C1.38 49.88 1.59 50.02 1.59 51.14 L1.59 57.63 C1.59 58.52 1.49 58.63
									 0 58.63 L0 59.24 C0.56 59.19 1.59 59.19 2.19 59.19 C2.8 59.19 3.85 59.19 4.41 59.24 L4.41 58.63
									 C2.92 58.63 2.83 58.54 2.83 57.63 L2.83 53.15 C2.83 51 4.13 49.39 5.77 49.39 C7.49 49.39 7.68
									 50.93 7.68 52.05 L7.68 57.63 C7.68 58.52 7.59 58.63 6.09 58.63 L6.09 59.24 C6.65 59.19 7.68
									 59.19 8.29 59.19 C8.9 59.19 9.95 59.19 10.51 59.24 L10.51 58.63 C9.01 58.63 8.92 58.54 8.92
									 57.63 L8.92 52.14 Z" class="st1"/>
					</g>
					<g id="shape10-18" v:mID="10" v:groupContext="shape" transform="translate(70.1546,-20.7791)">
						<title>g0-114</title>
						<path d="M2.78 53.73 C2.78 51.49 3.74 49.39 5.49 49.39 C5.65 49.39 5.81 49.41 5.98 49.48 C5.98 49.48 5.46
									 49.64 5.46 50.25 C5.46 50.81 5.91 51.04 6.26 51.04 C6.54 51.04 7.05 50.88 7.05 50.23 C7.05 49.48
									 6.3 49.01 5.51 49.01 C3.74 49.01 2.97 50.74 2.73 51.56 L2.71 51.56 L2.71 49.01 L0 49.27 L0 49.88
									 C1.38 49.88 1.59 50.02 1.59 51.14 L1.59 57.63 C1.59 58.52 1.49 58.63 0 58.63 L0 59.24 C0.56
									 59.19 1.63 59.19 2.24 59.19 C2.92 59.19 4.11 59.19 4.74 59.24 L4.74 58.63 C3.06 58.63 2.78 58.63
									 2.78 57.58 L2.78 53.73 Z" class="st1"/>
					</g>
					<g id="shape11-20" v:mID="11" v:groupContext="shape" transform="translate(78.9533,-20.7791)">
						<title>工作表.11</title>
						<rect x="0" y="58.7895" width="6.42494" height="0.450305" class="st1"/>
					</g>
					<g id="shape12-22" v:mID="12" v:groupContext="shape" transform="translate(86.1723,-20.7791)">
						<title>g0-108</title>
						<path d="M2.78 43.04 L0 43.29 L0 43.9 C1.38 43.9 1.59 44.04 1.59 45.16 L1.59 57.63 C1.59 58.52 1.49 58.63
									 0 58.63 L0 59.24 C0.56 59.19 1.59 59.19 2.17 59.19 C2.78 59.19 3.81 59.19 4.37 59.24 L4.37 58.63
									 C2.87 58.63 2.78 58.54 2.78 57.63 L2.78 43.04 Z" class="st1"/>
					</g>
					<g id="shape13-24" v:mID="13" v:groupContext="shape" transform="translate(92.1195,-20.5923)">
						<title>g0-97</title>
						<path d="M7.47 53.01 C7.47 51.46 7.47 50.65 6.49 49.74 C5.63 48.97 4.62 48.73 3.83 48.73 C1.98 48.73 0.65
									 50.18 0.65 51.72 C0.65 52.59 1.35 52.63 1.49 52.63 C1.8 52.63 2.33 52.45 2.33 51.79 C2.33 51.21
									 1.89 50.95 1.49 50.95 C1.4 50.95 1.28 50.97 1.21 51 C1.7 49.53 2.97 49.11 3.78 49.11 C4.95 49.11
									 6.23 50.13 6.23 52.1 L6.23 53.12 C4.86 53.17 3.2 53.36 1.89 54.06 C0.42 54.87 0 56.04 0 56.93
									 C0 58.73 2.1 59.24 3.34 59.24 C4.62 59.24 5.81 58.52 6.33 57.19 C6.37 58.21 7.03 59.15 8.06
									 59.15 C8.55 59.15 9.78 58.82 9.78 56.97 L9.78 55.67 L9.36 55.67 L9.36 57 C9.36 58.42 8.73 58.61
									 8.43 58.61 C7.47 58.61 7.47 57.4 7.47 56.37 L7.47 53.01 ZM6.23 55.81 C6.23 57.84 4.79 58.87
									 3.5 58.87 C2.33 58.87 1.42 58 1.42 56.93 C1.42 56.23 1.73 54.99 3.08 54.24 C4.2 53.61 5.49 53.52
									 6.23 53.47 L6.23 55.81 Z" class="st1"/>
					</g>
					<g id="shape14-26" v:mID="14" v:groupContext="shape" transform="translate(102.111,-20.5923)">
						<title>g0-116</title>
						<path d="M3.27 49.62 L6.54 49.62 L6.54 49.01 L3.27 49.01 L3.27 44.69 L2.85 44.69 C2.8 47.1 1.98 49.2 0 49.25
									 L0 49.62 L2.03 49.62 L2.03 56.18 C2.03 56.62 2.03 59.24 4.74 59.24 C6.12 59.24 6.91 57.89 6.91
									 56.16 L6.91 54.83 L6.49 54.83 L6.49 56.13 C6.49 57.75 5.86 58.82 4.88 58.82 C4.2 58.82 3.27
									 58.35 3.27 56.23 L3.27 49.62 Z" class="st1"/>
					</g>
					<g id="shape15-28" v:mID="15" v:groupContext="shape" transform="translate(110.722,-20.5923)">
						<title>工作表.15</title>
						<path d="M8.27 53.57 C8.36 53.47 8.36 53.43 8.36 53.19 C8.36 50.81 7.1 48.73 4.44 48.73 C1.96 48.73 0 51.09
									 0 53.96 C0 57 2.22 59.24 4.69 59.24 C7.31 59.24 8.34 56.76 8.34 56.27 C8.34 56.11 8.2 56.11
									 8.15 56.11 C7.99 56.11 7.96 56.16 7.87 56.44 C7.35 58.03 6.07 58.82 4.86 58.82 C3.85 58.82 2.85
									 58.26 2.22 57.23 C1.49 56.04 1.49 54.66 1.49 53.57 L8.27 53.57 ZM1.52 53.22 C1.68 49.85 3.48
									 49.11 4.41 49.11 C6 49.11 7.07 50.6 7.1 53.22 L1.52 53.22 Z" class="st1"/>
					</g>
					<g id="shape16-30" v:mID="16" v:groupContext="shape" transform="translate(120.314,-20.7791)">
						<title>工作表.16</title>
						<path d="M8.92 52.14 C8.92 50.95 8.69 49.01 5.93 49.01 C4.09 49.01 3.13 50.44 2.78 51.37 L2.76 51.37 L2.76
									 49.01 L0 49.27 L0 49.88 C1.38 49.88 1.59 50.02 1.59 51.14 L1.59 57.63 C1.59 58.52 1.49 58.63
									 0 58.63 L0 59.24 C0.56 59.19 1.59 59.19 2.19 59.19 C2.8 59.19 3.85 59.19 4.41 59.24 L4.41 58.63
									 C2.92 58.63 2.83 58.54 2.83 57.63 L2.83 53.15 C2.83 51 4.13 49.39 5.77 49.39 C7.49 49.39 7.68
									 50.93 7.68 52.05 L7.68 57.63 C7.68 58.52 7.59 58.63 6.09 58.63 L6.09 59.24 C6.65 59.19 7.68
									 59.19 8.29 59.19 C8.9 59.19 9.95 59.19 10.51 59.24 L10.51 58.63 C9.01 58.63 8.92 58.54 8.92
									 57.63 L8.92 52.14 Z" class="st1"/>
					</g>
					<g id="shape17-32" v:mID="17" v:groupContext="shape" transform="translate(132.198,-20.5923)">
						<title>工作表.17</title>
						<path d="M7.38 50.88 C6.93 50.88 6.28 50.88 6.28 51.7 C6.28 52.35 6.82 52.54 7.12 52.54 C7.28 52.54 7.96
									 52.47 7.96 51.65 C7.96 49.99 6.37 48.73 4.58 48.73 C2.1 48.73 0 51.02 0 54.01 C0 57.12 2.19
									 59.24 4.58 59.24 C7.47 59.24 8.2 56.55 8.2 56.3 C8.2 56.2 8.17 56.13 8.01 56.13 C7.85 56.13
									 7.82 56.16 7.73 56.46 C7.12 58.35 5.79 58.82 4.79 58.82 C3.29 58.82 1.49 57.44 1.49 53.99 C1.49
									 50.44 3.22 49.15 4.6 49.15 C5.51 49.15 6.86 49.6 7.38 50.88 Z" class="st1"/>
					</g>
					<g id="shape18-34" v:mID="18" v:groupContext="shape" transform="translate(141.114,-16.0393)">
						<title>g0-121</title>
						<path d="M8.87 46.51 C9.46 45.09 10.51 45.07 10.83 45.07 L10.83 44.46 C10.39 44.48 9.81 44.51 9.36 44.51
									 C8.87 44.51 8.1 44.51 7.64 44.46 L7.64 45.07 C8.52 45.14 8.55 45.79 8.55 45.98 C8.55 46.21 8.5
									 46.33 8.38 46.61 L5.84 52.91 L3.06 46.09 C2.94 45.81 2.94 45.65 2.94 45.63 C2.94 45.11 3.48
									 45.07 4.04 45.07 L4.04 44.46 C3.48 44.51 2.47 44.51 1.89 44.51 C1.26 44.51 0.51 44.51 0 44.46
									 L0 45.07 C1.26 45.07 1.4 45.18 1.7 45.93 L5.18 54.5 C4.13 57.26 3.53 58.87 2.05 58.87 C1.8 58.87
									 1.21 58.8 0.79 58.38 C1.33 58.33 1.56 58 1.56 57.61 C1.56 57.21 1.28 56.86 0.82 56.86 C0.3 56.86
									 0.05 57.21 0.05 57.63 C0.05 58.56 1 59.24 2.05 59.24 C3.41 59.24 4.25 57.93 4.72 56.76 L8.87
									 46.51 Z" class="st1"/>
					</g>
					<g id="shape19-36" v:mID="19" v:groupContext="shape" transform="translate(160.234,-24.1179)">
						<title>g0-61</title>
						<path d="M13.94 55.08 C14.29 55.08 14.64 55.08 14.64 54.69 C14.64 54.27 14.24 54.27 13.85 54.27 L0.79 54.27
									 C0.4 54.27 0 54.27 0 54.69 C0 55.08 0.35 55.08 0.7 55.08 L13.94 55.08 ZM13.85 59.24 C14.24 59.24
									 14.64 59.24 14.64 58.82 C14.64 58.42 14.29 58.42 13.94 58.42 L0.7 58.42 C0.35 58.42 0 58.42
									 0 58.82 C0 59.24 0.4 59.24 0.79 59.24 L13.85 59.24 Z" class="st1"/>
					</g>
					<g id="shape20-38" v:mID="20" v:groupContext="shape" transform="translate(223.828,-36.3879)">
						<title>工作表.20</title>
						<path d="M6.63 49.2 C6.63 48.78 6.61 48.76 6.47 48.76 C6.37 48.76 6.35 48.78 6.07 49.13 C6 49.22 5.79 49.46
									 5.72 49.55 C4.97 48.76 3.92 48.73 3.53 48.73 C0.93 48.73 0 50.09 0 51.44 C0 53.54 2.38 54.03
									 3.06 54.17 C4.53 54.48 5.04 54.57 5.53 54.99 C5.84 55.27 6.35 55.78 6.35 56.62 C6.35 57.61 5.79
									 58.87 3.64 58.87 C1.61 58.87 0.89 57.33 0.47 55.27 C0.4 54.94 0.4 54.92 0.21 54.92 C0.02 54.92
									 0 54.94 0 55.41 L0 58.77 C0 59.19 0.02 59.22 0.16 59.22 C0.28 59.22 0.3 59.19 0.42 59.01 C0.56
									 58.8 0.91 58.24 1.05 58 C1.52 58.63 2.33 59.24 3.64 59.24 C5.95 59.24 7.19 57.98 7.19 56.16
									 C7.19 54.97 6.56 54.34 6.26 54.06 C5.56 53.33 4.74 53.17 3.76 52.98 C2.47 52.7 0.84 52.38 0.84
									 50.95 C0.84 50.34 1.17 49.06 3.53 49.06 C6.02 49.06 6.16 51.39 6.21 52.14 C6.23 52.26 6.35 52.28
									 6.42 52.28 C6.63 52.28 6.63 52.21 6.63 51.81 L6.63 49.2 Z" class="st1"/>
					</g>
					<g id="shape21-40" v:mID="21" v:groupContext="shape" transform="translate(231.836,-31.8349)">
						<title>工作表.21</title>
						<path d="M8.87 46.51 C9.46 45.09 10.51 45.07 10.83 45.07 L10.83 44.46 C10.39 44.48 9.81 44.51 9.36 44.51
									 C8.87 44.51 8.1 44.51 7.64 44.46 L7.64 45.07 C8.52 45.14 8.55 45.79 8.55 45.98 C8.55 46.21 8.5
									 46.33 8.38 46.61 L5.84 52.91 L3.06 46.09 C2.94 45.81 2.94 45.65 2.94 45.63 C2.94 45.11 3.48
									 45.07 4.04 45.07 L4.04 44.46 C3.48 44.51 2.47 44.51 1.89 44.51 C1.26 44.51 0.51 44.51 0 44.46
									 L0 45.07 C1.26 45.07 1.4 45.18 1.7 45.93 L5.18 54.5 C4.13 57.26 3.53 58.87 2.05 58.87 C1.8 58.87
									 1.21 58.8 0.79 58.38 C1.33 58.33 1.56 58 1.56 57.61 C1.56 57.21 1.28 56.86 0.82 56.86 C0.3 56.86
									 0.05 57.21 0.05 57.63 C0.05 58.56 1 59.24 2.05 59.24 C3.41 59.24 4.25 57.93 4.72 56.76 L8.87
									 46.51 Z" class="st1"/>
					</g>
					<g id="shape22-42" v:mID="22" v:groupContext="shape" transform="translate(243.463,-36.3879)">
						<title>工作表.22</title>
						<path d="M6.63 49.2 C6.63 48.78 6.61 48.76 6.47 48.76 C6.37 48.76 6.35 48.78 6.07 49.13 C6 49.22 5.79 49.46
									 5.72 49.55 C4.97 48.76 3.92 48.73 3.53 48.73 C0.93 48.73 0 50.09 0 51.44 C0 53.54 2.38 54.03
									 3.06 54.17 C4.53 54.48 5.04 54.57 5.53 54.99 C5.84 55.27 6.35 55.78 6.35 56.62 C6.35 57.61 5.79
									 58.87 3.64 58.87 C1.61 58.87 0.89 57.33 0.47 55.27 C0.4 54.94 0.4 54.92 0.21 54.92 C0.02 54.92
									 0 54.94 0 55.41 L0 58.77 C0 59.19 0.02 59.22 0.16 59.22 C0.28 59.22 0.3 59.19 0.42 59.01 C0.56
									 58.8 0.91 58.24 1.05 58 C1.52 58.63 2.33 59.24 3.64 59.24 C5.95 59.24 7.19 57.98 7.19 56.16
									 C7.19 54.97 6.56 54.34 6.26 54.06 C5.56 53.33 4.74 53.17 3.76 52.98 C2.47 52.7 0.84 52.38 0.84
									 50.95 C0.84 50.34 1.17 49.06 3.53 49.06 C6.02 49.06 6.16 51.39 6.21 52.14 C6.23 52.26 6.35 52.28
									 6.42 52.28 C6.63 52.28 6.63 52.21 6.63 51.81 L6.63 49.2 Z" class="st1"/>
					</g>
					<g id="shape23-44" v:mID="23" v:groupContext="shape" transform="translate(252.008,-36.3879)">
						<title>工作表.23</title>
						<path d="M7.38 50.88 C6.93 50.88 6.28 50.88 6.28 51.7 C6.28 52.35 6.82 52.54 7.12 52.54 C7.28 52.54 7.96
									 52.47 7.96 51.65 C7.96 49.99 6.37 48.73 4.58 48.73 C2.1 48.73 0 51.02 0 54.01 C0 57.12 2.19
									 59.24 4.58 59.24 C7.47 59.24 8.2 56.55 8.2 56.3 C8.2 56.2 8.17 56.13 8.01 56.13 C7.85 56.13
									 7.82 56.16 7.73 56.46 C7.12 58.35 5.79 58.82 4.79 58.82 C3.29 58.82 1.49 57.44 1.49 53.99 C1.49
									 50.44 3.22 49.15 4.6 49.15 C5.51 49.15 6.86 49.6 7.38 50.88 Z" class="st1"/>
					</g>
					<g id="shape24-46" v:mID="24" v:groupContext="shape" transform="translate(260.947,-36.3879)">
						<title>工作表.24</title>
						<path d="M3.27 49.62 L6.54 49.62 L6.54 49.01 L3.27 49.01 L3.27 44.69 L2.85 44.69 C2.8 47.1 1.98 49.2 0 49.25
									 L0 49.62 L2.03 49.62 L2.03 56.18 C2.03 56.62 2.03 59.24 4.74 59.24 C6.12 59.24 6.91 57.89 6.91
									 56.16 L6.91 54.83 L6.49 54.83 L6.49 56.13 C6.49 57.75 5.86 58.82 4.88 58.82 C4.2 58.82 3.27
									 58.35 3.27 56.23 L3.27 49.62 Z" class="st1"/>
					</g>
					<g id="shape25-48" v:mID="25" v:groupContext="shape" transform="translate(269.722,-36.5747)">
						<title>工作表.25</title>
						<path d="M2.78 43.04 L0 43.29 L0 43.9 C1.38 43.9 1.59 44.04 1.59 45.16 L1.59 57.63 C1.59 58.52 1.49 58.63
									 0 58.63 L0 59.24 C0.56 59.19 1.59 59.19 2.17 59.19 C2.78 59.19 3.81 59.19 4.37 59.24 L4.37 58.63
									 C2.87 58.63 2.78 58.54 2.78 57.63 L2.78 43.04 Z" class="st1"/>
					</g>
					<g id="shape26-50" v:mID="26" v:groupContext="shape" transform="translate(276.02,-36.5747)">
						<title>工作表.26</title>
						<rect x="0" y="58.7895" width="6.42494" height="0.450305" class="st1"/>
					</g>
					<g id="shape27-52" v:mID="27" v:groupContext="shape" transform="translate(283.029,-36.3879)">
						<title>工作表.27</title>
						<path d="M6.63 49.2 C6.63 48.78 6.61 48.76 6.47 48.76 C6.37 48.76 6.35 48.78 6.07 49.13 C6 49.22 5.79 49.46
									 5.72 49.55 C4.97 48.76 3.92 48.73 3.53 48.73 C0.93 48.73 0 50.09 0 51.44 C0 53.54 2.38 54.03
									 3.06 54.17 C4.53 54.48 5.04 54.57 5.53 54.99 C5.84 55.27 6.35 55.78 6.35 56.62 C6.35 57.61 5.79
									 58.87 3.64 58.87 C1.61 58.87 0.89 57.33 0.47 55.27 C0.4 54.94 0.4 54.92 0.21 54.92 C0.02 54.92
									 0 54.94 0 55.41 L0 58.77 C0 59.19 0.02 59.22 0.16 59.22 C0.28 59.22 0.3 59.19 0.42 59.01 C0.56
									 58.8 0.91 58.24 1.05 58 C1.52 58.63 2.33 59.24 3.64 59.24 C5.95 59.24 7.19 57.98 7.19 56.16
									 C7.19 54.97 6.56 54.34 6.26 54.06 C5.56 53.33 4.74 53.17 3.76 52.98 C2.47 52.7 0.84 52.38 0.84
									 50.95 C0.84 50.34 1.17 49.06 3.53 49.06 C6.02 49.06 6.16 51.39 6.21 52.14 C6.23 52.26 6.35 52.28
									 6.42 52.28 C6.63 52.28 6.63 52.21 6.63 51.81 L6.63 49.2 Z" class="st1"/>
					</g>
					<g id="shape28-54" v:mID="28" v:groupContext="shape" transform="translate(291.575,-36.3879)">
						<title>工作表.28</title>
						<path d="M7.38 50.88 C6.93 50.88 6.28 50.88 6.28 51.7 C6.28 52.35 6.82 52.54 7.12 52.54 C7.28 52.54 7.96
									 52.47 7.96 51.65 C7.96 49.99 6.37 48.73 4.58 48.73 C2.1 48.73 0 51.02 0 54.01 C0 57.12 2.19
									 59.24 4.58 59.24 C7.47 59.24 8.2 56.55 8.2 56.3 C8.2 56.2 8.17 56.13 8.01 56.13 C7.85 56.13
									 7.82 56.16 7.73 56.46 C7.12 58.35 5.79 58.82 4.79 58.82 C3.29 58.82 1.49 57.44 1.49 53.99 C1.49
									 50.44 3.22 49.15 4.6 49.15 C5.51 49.15 6.86 49.6 7.38 50.88 Z" class="st1"/>
					</g>
					<g id="shape29-56" v:mID="29" v:groupContext="shape" transform="translate(300.417,-36.5747)">
						<title>工作表.29</title>
						<path d="M8.92 52.14 C8.92 50.95 8.69 49.01 5.93 49.01 C4.02 49.01 3.08 50.55 2.8 51.32 L2.78 51.32 L2.78
									 43.04 L0 43.29 L0 43.9 C1.38 43.9 1.59 44.04 1.59 45.16 L1.59 57.63 C1.59 58.52 1.49 58.63 0
									 58.63 L0 59.24 C0.56 59.19 1.59 59.19 2.19 59.19 C2.8 59.19 3.85 59.19 4.41 59.24 L4.41 58.63
									 C2.92 58.63 2.83 58.54 2.83 57.63 L2.83 53.15 C2.83 51 4.13 49.39 5.77 49.39 C7.49 49.39 7.68
									 50.93 7.68 52.05 L7.68 57.63 C7.68 58.52 7.59 58.63 6.09 58.63 L6.09 59.24 C6.65 59.19 7.68
									 59.19 8.29 59.19 C8.9 59.19 9.95 59.19 10.51 59.24 L10.51 58.63 C9.01 58.63 8.92 58.54 8.92
									 57.63 L8.92 52.14 Z" class="st1"/>
					</g>
					<g id="shape30-58" v:mID="30" v:groupContext="shape" transform="translate(312.161,-36.3879)">
						<title>工作表.30</title>
						<path d="M8.27 53.57 C8.36 53.47 8.36 53.43 8.36 53.19 C8.36 50.81 7.1 48.73 4.44 48.73 C1.96 48.73 0 51.09
									 0 53.96 C0 57 2.22 59.24 4.69 59.24 C7.31 59.24 8.34 56.76 8.34 56.27 C8.34 56.11 8.2 56.11
									 8.15 56.11 C7.99 56.11 7.96 56.16 7.87 56.44 C7.35 58.03 6.07 58.82 4.86 58.82 C3.85 58.82 2.85
									 58.26 2.22 57.23 C1.49 56.04 1.49 54.66 1.49 53.57 L8.27 53.57 ZM1.52 53.22 C1.68 49.85 3.48
									 49.11 4.41 49.11 C6 49.11 7.07 50.6 7.1 53.22 L1.52 53.22 Z" class="st1"/>
					</g>
					<g id="shape31-60" v:mID="31" v:groupContext="shape" transform="translate(321.754,-36.3879)">
						<title>工作表.31</title>
						<path d="M6.05 43.11 L6.05 43.71 C7.42 43.71 7.64 43.85 7.64 44.97 L7.64 50.44 C7.54 50.32 6.58 48.83 4.69
									 48.83 C2.31 48.83 0 50.95 0 54.03 C0 57.09 2.17 59.24 4.46 59.24 C6.44 59.24 7.47 57.7 7.59
									 57.54 L7.59 59.24 L10.41 59.05 L10.41 58.45 C9.04 58.45 8.83 58.31 8.83 57.19 L8.83 42.85 L6.05
									 43.11 ZM7.59 56.25 C7.59 56.95 7.17 57.58 6.63 58.05 C5.84 58.75 5.04 58.87 4.6 58.87 C3.92
									 58.87 1.49 58.52 1.49 54.06 C1.49 49.48 4.2 49.2 4.81 49.2 C5.88 49.2 6.75 49.81 7.28 50.65
									 C7.59 51.14 7.59 51.21 7.59 51.63 L7.59 56.25 Z" class="st1"/>
					</g>
					<g id="shape32-62" v:mID="32" v:groupContext="shape" transform="translate(334.151,-36.5747)">
						<title>工作表.32</title>
						<rect x="0" y="58.7895" width="6.42494" height="0.450305" class="st1"/>
					</g>
					<g id="shape33-64" v:mID="33" v:groupContext="shape" transform="translate(341.37,-36.5747)">
						<title>工作表.33</title>
						<path d="M2.78 43.04 L0 43.29 L0 43.9 C1.38 43.9 1.59 44.04 1.59 45.16 L1.59 57.63 C1.59 58.52 1.49 58.63
									 0 58.63 L0 59.24 C0.56 59.19 1.59 59.19 2.17 59.19 C2.78 59.19 3.81 59.19 4.37 59.24 L4.37 58.63
									 C2.87 58.63 2.78 58.54 2.78 57.63 L2.78 43.04 Z" class="st1"/>
					</g>
					<g id="shape34-66" v:mID="34" v:groupContext="shape" transform="translate(347.318,-36.3879)">
						<title>工作表.34</title>
						<path d="M7.47 53.01 C7.47 51.46 7.47 50.65 6.49 49.74 C5.63 48.97 4.62 48.73 3.83 48.73 C1.98 48.73 0.65
									 50.18 0.65 51.72 C0.65 52.59 1.35 52.63 1.49 52.63 C1.8 52.63 2.33 52.45 2.33 51.79 C2.33 51.21
									 1.89 50.95 1.49 50.95 C1.4 50.95 1.28 50.97 1.21 51 C1.7 49.53 2.97 49.11 3.78 49.11 C4.95 49.11
									 6.23 50.13 6.23 52.1 L6.23 53.12 C4.86 53.17 3.2 53.36 1.89 54.06 C0.42 54.87 0 56.04 0 56.93
									 C0 58.73 2.1 59.24 3.34 59.24 C4.62 59.24 5.81 58.52 6.33 57.19 C6.37 58.21 7.03 59.15 8.06
									 59.15 C8.55 59.15 9.78 58.82 9.78 56.97 L9.78 55.67 L9.36 55.67 L9.36 57 C9.36 58.42 8.73 58.61
									 8.43 58.61 C7.47 58.61 7.47 57.4 7.47 56.37 L7.47 53.01 ZM6.23 55.81 C6.23 57.84 4.79 58.87
									 3.5 58.87 C2.33 58.87 1.42 58 1.42 56.93 C1.42 56.23 1.73 54.99 3.08 54.24 C4.2 53.61 5.49 53.52
									 6.23 53.47 L6.23 55.81 Z" class="st1"/>
					</g>
					<g id="shape35-68" v:mID="35" v:groupContext="shape" transform="translate(357.309,-36.3879)">
						<title>工作表.35</title>
						<path d="M3.27 49.62 L6.54 49.62 L6.54 49.01 L3.27 49.01 L3.27 44.69 L2.85 44.69 C2.8 47.1 1.98 49.2 0 49.25
									 L0 49.62 L2.03 49.62 L2.03 56.18 C2.03 56.62 2.03 59.24 4.74 59.24 C6.12 59.24 6.91 57.89 6.91
									 56.16 L6.91 54.83 L6.49 54.83 L6.49 56.13 C6.49 57.75 5.86 58.82 4.88 58.82 C4.2 58.82 3.27
									 58.35 3.27 56.23 L3.27 49.62 Z" class="st1"/>
					</g>
					<g id="shape36-70" v:mID="36" v:groupContext="shape" transform="translate(365.92,-36.3879)">
						<title>工作表.36</title>
						<path d="M8.27 53.57 C8.36 53.47 8.36 53.43 8.36 53.19 C8.36 50.81 7.1 48.73 4.44 48.73 C1.96 48.73 0 51.09
									 0 53.96 C0 57 2.22 59.24 4.69 59.24 C7.31 59.24 8.34 56.76 8.34 56.27 C8.34 56.11 8.2 56.11
									 8.15 56.11 C7.99 56.11 7.96 56.16 7.87 56.44 C7.35 58.03 6.07 58.82 4.86 58.82 C3.85 58.82 2.85
									 58.26 2.22 57.23 C1.49 56.04 1.49 54.66 1.49 53.57 L8.27 53.57 ZM1.52 53.22 C1.68 49.85 3.48
									 49.11 4.41 49.11 C6 49.11 7.07 50.6 7.1 53.22 L1.52 53.22 Z" class="st1"/>
					</g>
					<g id="shape37-72" v:mID="37" v:groupContext="shape" transform="translate(375.513,-36.5747)">
						<title>工作表.37</title>
						<path d="M8.92 52.14 C8.92 50.95 8.69 49.01 5.93 49.01 C4.09 49.01 3.13 50.44 2.78 51.37 L2.76 51.37 L2.76
									 49.01 L0 49.27 L0 49.88 C1.38 49.88 1.59 50.02 1.59 51.14 L1.59 57.63 C1.59 58.52 1.49 58.63
									 0 58.63 L0 59.24 C0.56 59.19 1.59 59.19 2.19 59.19 C2.8 59.19 3.85 59.19 4.41 59.24 L4.41 58.63
									 C2.92 58.63 2.83 58.54 2.83 57.63 L2.83 53.15 C2.83 51 4.13 49.39 5.77 49.39 C7.49 49.39 7.68
									 50.93 7.68 52.05 L7.68 57.63 C7.68 58.52 7.59 58.63 6.09 58.63 L6.09 59.24 C6.65 59.19 7.68
									 59.19 8.29 59.19 C8.9 59.19 9.95 59.19 10.51 59.24 L10.51 58.63 C9.01 58.63 8.92 58.54 8.92
									 57.63 L8.92 52.14 Z" class="st1"/>
					</g>
					<g id="shape38-74" v:mID="38" v:groupContext="shape" transform="translate(387.396,-36.3879)">
						<title>工作表.38</title>
						<path d="M7.38 50.88 C6.93 50.88 6.28 50.88 6.28 51.7 C6.28 52.35 6.82 52.54 7.12 52.54 C7.28 52.54 7.96
									 52.47 7.96 51.65 C7.96 49.99 6.37 48.73 4.58 48.73 C2.1 48.73 0 51.02 0 54.01 C0 57.12 2.19
									 59.24 4.58 59.24 C7.47 59.24 8.2 56.55 8.2 56.3 C8.2 56.2 8.17 56.13 8.01 56.13 C7.85 56.13
									 7.82 56.16 7.73 56.46 C7.12 58.35 5.79 58.82 4.79 58.82 C3.29 58.82 1.49 57.44 1.49 53.99 C1.49
									 50.44 3.22 49.15 4.6 49.15 C5.51 49.15 6.86 49.6 7.38 50.88 Z" class="st1"/>
					</g>
					<g id="shape39-76" v:mID="39" v:groupContext="shape" transform="translate(396.312,-31.8349)">
						<title>工作表.39</title>
						<path d="M8.87 46.51 C9.46 45.09 10.51 45.07 10.83 45.07 L10.83 44.46 C10.39 44.48 9.81 44.51 9.36 44.51
									 C8.87 44.51 8.1 44.51 7.64 44.46 L7.64 45.07 C8.52 45.14 8.55 45.79 8.55 45.98 C8.55 46.21 8.5
									 46.33 8.38 46.61 L5.84 52.91 L3.06 46.09 C2.94 45.81 2.94 45.65 2.94 45.63 C2.94 45.11 3.48
									 45.07 4.04 45.07 L4.04 44.46 C3.48 44.51 2.47 44.51 1.89 44.51 C1.26 44.51 0.51 44.51 0 44.46
									 L0 45.07 C1.26 45.07 1.4 45.18 1.7 45.93 L5.18 54.5 C4.13 57.26 3.53 58.87 2.05 58.87 C1.8 58.87
									 1.21 58.8 0.79 58.38 C1.33 58.33 1.56 58 1.56 57.61 C1.56 57.21 1.28 56.86 0.82 56.86 C0.3 56.86
									 0.05 57.21 0.05 57.63 C0.05 58.56 1 59.24 2.05 59.24 C3.41 59.24 4.25 57.93 4.72 56.76 L8.87
									 46.51 Z" class="st1"/>
					</g>
					<g id="shape40-78" v:mID="40" v:groupContext="shape" transform="translate(183.74,-26.1493)">
						<title>工作表.40</title>
						<rect x="0" y="58.3059" width="263.752" height="0.933917" class="st1"/>
					</g>
					<g id="shape41-80" v:mID="41" v:groupContext="shape" transform="translate(184.324,-4.57633)">
						<title>工作表.41</title>
						<path d="M6.63 49.2 C6.63 48.78 6.61 48.76 6.47 48.76 C6.37 48.76 6.35 48.78 6.07 49.13 C6 49.22 5.79 49.46
									 5.72 49.55 C4.97 48.76 3.92 48.73 3.53 48.73 C0.93 48.73 0 50.09 0 51.44 C0 53.54 2.38 54.03
									 3.06 54.17 C4.53 54.48 5.04 54.57 5.53 54.99 C5.84 55.27 6.35 55.78 6.35 56.62 C6.35 57.61 5.79
									 58.87 3.64 58.87 C1.61 58.87 0.89 57.33 0.47 55.27 C0.4 54.94 0.4 54.92 0.21 54.92 C0.02 54.92
									 0 54.94 0 55.41 L0 58.77 C0 59.19 0.02 59.22 0.16 59.22 C0.28 59.22 0.3 59.19 0.42 59.01 C0.56
									 58.8 0.91 58.24 1.05 58 C1.52 58.63 2.33 59.24 3.64 59.24 C5.95 59.24 7.19 57.98 7.19 56.16
									 C7.19 54.97 6.56 54.34 6.26 54.06 C5.56 53.33 4.74 53.17 3.76 52.98 C2.47 52.7 0.84 52.38 0.84
									 50.95 C0.84 50.34 1.17 49.06 3.53 49.06 C6.02 49.06 6.16 51.39 6.21 52.14 C6.23 52.26 6.35 52.28
									 6.42 52.28 C6.63 52.28 6.63 52.21 6.63 51.81 L6.63 49.2 Z" class="st1"/>
					</g>
					<g id="shape42-82" v:mID="42" v:groupContext="shape" transform="translate(192.333,-0.0233458)">
						<title>工作表.42</title>
						<path d="M8.87 46.51 C9.46 45.09 10.51 45.07 10.83 45.07 L10.83 44.46 C10.39 44.48 9.81 44.51 9.36 44.51
									 C8.87 44.51 8.1 44.51 7.64 44.46 L7.64 45.07 C8.52 45.14 8.55 45.79 8.55 45.98 C8.55 46.21 8.5
									 46.33 8.38 46.61 L5.84 52.91 L3.06 46.09 C2.94 45.81 2.94 45.65 2.94 45.63 C2.94 45.11 3.48
									 45.07 4.04 45.07 L4.04 44.46 C3.48 44.51 2.47 44.51 1.89 44.51 C1.26 44.51 0.51 44.51 0 44.46
									 L0 45.07 C1.26 45.07 1.4 45.18 1.7 45.93 L5.18 54.5 C4.13 57.26 3.53 58.87 2.05 58.87 C1.8 58.87
									 1.21 58.8 0.79 58.38 C1.33 58.33 1.56 58 1.56 57.61 C1.56 57.21 1.28 56.86 0.82 56.86 C0.3 56.86
									 0.05 57.21 0.05 57.63 C0.05 58.56 1 59.24 2.05 59.24 C3.41 59.24 4.25 57.93 4.72 56.76 L8.87
									 46.51 Z" class="st1"/>
					</g>
					<g id="shape43-84" v:mID="43" v:groupContext="shape" transform="translate(203.959,-4.57633)">
						<title>工作表.43</title>
						<path d="M6.63 49.2 C6.63 48.78 6.61 48.76 6.47 48.76 C6.37 48.76 6.35 48.78 6.07 49.13 C6 49.22 5.79 49.46
									 5.72 49.55 C4.97 48.76 3.92 48.73 3.53 48.73 C0.93 48.73 0 50.09 0 51.44 C0 53.54 2.38 54.03
									 3.06 54.17 C4.53 54.48 5.04 54.57 5.53 54.99 C5.84 55.27 6.35 55.78 6.35 56.62 C6.35 57.61 5.79
									 58.87 3.64 58.87 C1.61 58.87 0.89 57.33 0.47 55.27 C0.4 54.94 0.4 54.92 0.21 54.92 C0.02 54.92
									 0 54.94 0 55.41 L0 58.77 C0 59.19 0.02 59.22 0.16 59.22 C0.28 59.22 0.3 59.19 0.42 59.01 C0.56
									 58.8 0.91 58.24 1.05 58 C1.52 58.63 2.33 59.24 3.64 59.24 C5.95 59.24 7.19 57.98 7.19 56.16
									 C7.19 54.97 6.56 54.34 6.26 54.06 C5.56 53.33 4.74 53.17 3.76 52.98 C2.47 52.7 0.84 52.38 0.84
									 50.95 C0.84 50.34 1.17 49.06 3.53 49.06 C6.02 49.06 6.16 51.39 6.21 52.14 C6.23 52.26 6.35 52.28
									 6.42 52.28 C6.63 52.28 6.63 52.21 6.63 51.81 L6.63 49.2 Z" class="st1"/>
					</g>
					<g id="shape44-86" v:mID="44" v:groupContext="shape" transform="translate(212.504,-4.57633)">
						<title>工作表.44</title>
						<path d="M7.38 50.88 C6.93 50.88 6.28 50.88 6.28 51.7 C6.28 52.35 6.82 52.54 7.12 52.54 C7.28 52.54 7.96
									 52.47 7.96 51.65 C7.96 49.99 6.37 48.73 4.58 48.73 C2.1 48.73 0 51.02 0 54.01 C0 57.12 2.19
									 59.24 4.58 59.24 C7.47 59.24 8.2 56.55 8.2 56.3 C8.2 56.2 8.17 56.13 8.01 56.13 C7.85 56.13
									 7.82 56.16 7.73 56.46 C7.12 58.35 5.79 58.82 4.79 58.82 C3.29 58.82 1.49 57.44 1.49 53.99 C1.49
									 50.44 3.22 49.15 4.6 49.15 C5.51 49.15 6.86 49.6 7.38 50.88 Z" class="st1"/>
					</g>
					<g id="shape45-88" v:mID="45" v:groupContext="shape" transform="translate(221.444,-4.57633)">
						<title>工作表.45</title>
						<path d="M3.27 49.62 L6.54 49.62 L6.54 49.01 L3.27 49.01 L3.27 44.69 L2.85 44.69 C2.8 47.1 1.98 49.2 0 49.25
									 L0 49.62 L2.03 49.62 L2.03 56.18 C2.03 56.62 2.03 59.24 4.74 59.24 C6.12 59.24 6.91 57.89 6.91
									 56.16 L6.91 54.83 L6.49 54.83 L6.49 56.13 C6.49 57.75 5.86 58.82 4.88 58.82 C4.2 58.82 3.27
									 58.35 3.27 56.23 L3.27 49.62 Z" class="st1"/>
					</g>
					<g id="shape46-90" v:mID="46" v:groupContext="shape" transform="translate(230.218,-4.76312)">
						<title>工作表.46</title>
						<path d="M2.78 43.04 L0 43.29 L0 43.9 C1.38 43.9 1.59 44.04 1.59 45.16 L1.59 57.63 C1.59 58.52 1.49 58.63
									 0 58.63 L0 59.24 C0.56 59.19 1.59 59.19 2.17 59.19 C2.78 59.19 3.81 59.19 4.37 59.24 L4.37 58.63
									 C2.87 58.63 2.78 58.54 2.78 57.63 L2.78 43.04 Z" class="st1"/>
					</g>
					<g id="shape47-92" v:mID="47" v:groupContext="shape" transform="translate(236.517,-4.76312)">
						<title>工作表.47</title>
						<rect x="0" y="58.7895" width="6.42494" height="0.450305" class="st1"/>
					</g>
					<g id="shape48-94" v:mID="48" v:groupContext="shape" transform="translate(243.525,-4.57633)">
						<title>工作表.48</title>
						<path d="M6.63 49.2 C6.63 48.78 6.61 48.76 6.47 48.76 C6.37 48.76 6.35 48.78 6.07 49.13 C6 49.22 5.79 49.46
									 5.72 49.55 C4.97 48.76 3.92 48.73 3.53 48.73 C0.93 48.73 0 50.09 0 51.44 C0 53.54 2.38 54.03
									 3.06 54.17 C4.53 54.48 5.04 54.57 5.53 54.99 C5.84 55.27 6.35 55.78 6.35 56.62 C6.35 57.61 5.79
									 58.87 3.64 58.87 C1.61 58.87 0.89 57.33 0.47 55.27 C0.4 54.94 0.4 54.92 0.21 54.92 C0.02 54.92
									 0 54.94 0 55.41 L0 58.77 C0 59.19 0.02 59.22 0.16 59.22 C0.28 59.22 0.3 59.19 0.42 59.01 C0.56
									 58.8 0.91 58.24 1.05 58 C1.52 58.63 2.33 59.24 3.64 59.24 C5.95 59.24 7.19 57.98 7.19 56.16
									 C7.19 54.97 6.56 54.34 6.26 54.06 C5.56 53.33 4.74 53.17 3.76 52.98 C2.47 52.7 0.84 52.38 0.84
									 50.95 C0.84 50.34 1.17 49.06 3.53 49.06 C6.02 49.06 6.16 51.39 6.21 52.14 C6.23 52.26 6.35 52.28
									 6.42 52.28 C6.63 52.28 6.63 52.21 6.63 51.81 L6.63 49.2 Z" class="st1"/>
					</g>
					<g id="shape49-96" v:mID="49" v:groupContext="shape" transform="translate(252.071,-4.57633)">
						<title>工作表.49</title>
						<path d="M7.38 50.88 C6.93 50.88 6.28 50.88 6.28 51.7 C6.28 52.35 6.82 52.54 7.12 52.54 C7.28 52.54 7.96
									 52.47 7.96 51.65 C7.96 49.99 6.37 48.73 4.58 48.73 C2.1 48.73 0 51.02 0 54.01 C0 57.12 2.19
									 59.24 4.58 59.24 C7.47 59.24 8.2 56.55 8.2 56.3 C8.2 56.2 8.17 56.13 8.01 56.13 C7.85 56.13
									 7.82 56.16 7.73 56.46 C7.12 58.35 5.79 58.82 4.79 58.82 C3.29 58.82 1.49 57.44 1.49 53.99 C1.49
									 50.44 3.22 49.15 4.6 49.15 C5.51 49.15 6.86 49.6 7.38 50.88 Z" class="st1"/>
					</g>
					<g id="shape50-98" v:mID="50" v:groupContext="shape" transform="translate(260.914,-4.76312)">
						<title>工作表.50</title>
						<path d="M8.92 52.14 C8.92 50.95 8.69 49.01 5.93 49.01 C4.02 49.01 3.08 50.55 2.8 51.32 L2.78 51.32 L2.78
									 43.04 L0 43.29 L0 43.9 C1.38 43.9 1.59 44.04 1.59 45.16 L1.59 57.63 C1.59 58.52 1.49 58.63 0
									 58.63 L0 59.24 C0.56 59.19 1.59 59.19 2.19 59.19 C2.8 59.19 3.85 59.19 4.41 59.24 L4.41 58.63
									 C2.92 58.63 2.83 58.54 2.83 57.63 L2.83 53.15 C2.83 51 4.13 49.39 5.77 49.39 C7.49 49.39 7.68
									 50.93 7.68 52.05 L7.68 57.63 C7.68 58.52 7.59 58.63 6.09 58.63 L6.09 59.24 C6.65 59.19 7.68
									 59.19 8.29 59.19 C8.9 59.19 9.95 59.19 10.51 59.24 L10.51 58.63 C9.01 58.63 8.92 58.54 8.92
									 57.63 L8.92 52.14 Z" class="st1"/>
					</g>
					<g id="shape51-100" v:mID="51" v:groupContext="shape" transform="translate(272.658,-4.57633)">
						<title>工作表.51</title>
						<path d="M8.27 53.57 C8.36 53.47 8.36 53.43 8.36 53.19 C8.36 50.81 7.1 48.73 4.44 48.73 C1.96 48.73 0 51.09
									 0 53.96 C0 57 2.22 59.24 4.69 59.24 C7.31 59.24 8.34 56.76 8.34 56.27 C8.34 56.11 8.2 56.11
									 8.15 56.11 C7.99 56.11 7.96 56.16 7.87 56.44 C7.35 58.03 6.07 58.82 4.86 58.82 C3.85 58.82 2.85
									 58.26 2.22 57.23 C1.49 56.04 1.49 54.66 1.49 53.57 L8.27 53.57 ZM1.52 53.22 C1.68 49.85 3.48
									 49.11 4.41 49.11 C6 49.11 7.07 50.6 7.1 53.22 L1.52 53.22 Z" class="st1"/>
					</g>
					<g id="shape52-102" v:mID="52" v:groupContext="shape" transform="translate(282.25,-4.57633)">
						<title>工作表.52</title>
						<path d="M6.05 43.11 L6.05 43.71 C7.42 43.71 7.64 43.85 7.64 44.97 L7.64 50.44 C7.54 50.32 6.58 48.83 4.69
									 48.83 C2.31 48.83 0 50.95 0 54.03 C0 57.09 2.17 59.24 4.46 59.24 C6.44 59.24 7.47 57.7 7.59
									 57.54 L7.59 59.24 L10.41 59.05 L10.41 58.45 C9.04 58.45 8.83 58.31 8.83 57.19 L8.83 42.85 L6.05
									 43.11 ZM7.59 56.25 C7.59 56.95 7.17 57.58 6.63 58.05 C5.84 58.75 5.04 58.87 4.6 58.87 C3.92
									 58.87 1.49 58.52 1.49 54.06 C1.49 49.48 4.2 49.2 4.81 49.2 C5.88 49.2 6.75 49.81 7.28 50.65
									 C7.59 51.14 7.59 51.21 7.59 51.63 L7.59 56.25 Z" class="st1"/>
					</g>
					<g id="shape53-104" v:mID="53" v:groupContext="shape" transform="translate(294.648,-4.76312)">
						<title>工作表.53</title>
						<rect x="0" y="58.7895" width="6.42494" height="0.450305" class="st1"/>
					</g>
					<g id="shape54-106" v:mID="54" v:groupContext="shape" transform="translate(301.843,-4.76312)">
						<title>g0-109</title>
						<path d="M15.01 52.14 C15.01 50.97 14.8 49.01 12.02 49.01 C10.44 49.01 9.34 50.09 8.92 51.35 L8.9 51.35 C8.62
									 49.43 7.24 49.01 5.93 49.01 C4.09 49.01 3.13 50.44 2.78 51.37 L2.76 51.37 L2.76 49.01 L0 49.27
									 L0 49.88 C1.38 49.88 1.59 50.02 1.59 51.14 L1.59 57.63 C1.59 58.52 1.49 58.63 0 58.63 L0 59.24
									 C0.56 59.19 1.59 59.19 2.19 59.19 C2.8 59.19 3.85 59.19 4.41 59.24 L4.41 58.63 C2.92 58.63 2.83
									 58.54 2.83 57.63 L2.83 53.15 C2.83 51 4.13 49.39 5.77 49.39 C7.49 49.39 7.68 50.93 7.68 52.05
									 L7.68 57.63 C7.68 58.52 7.59 58.63 6.09 58.63 L6.09 59.24 C6.65 59.19 7.68 59.19 8.29 59.19
									 C8.9 59.19 9.95 59.19 10.51 59.24 L10.51 58.63 C9.01 58.63 8.92 58.54 8.92 57.63 L8.92 53.15
									 C8.92 51 10.23 49.39 11.86 49.39 C13.59 49.39 13.78 50.93 13.78 52.05 L13.78 57.63 C13.78 58.52
									 13.68 58.63 12.19 58.63 L12.19 59.24 C12.75 59.19 13.78 59.19 14.38 59.19 C14.99 59.19 16.04
									 59.19 16.6 59.24 L16.6 58.63 C15.11 58.63 15.01 58.54 15.01 57.63 L15.01 52.14 Z" class="st1"/>
					</g>
					<g id="shape55-108" v:mID="55" v:groupContext="shape" transform="translate(319.827,-4.76312)">
						<title>g0-105</title>
						<path d="M2.83 44.86 C2.83 44.34 2.4 43.9 1.87 43.9 C1.35 43.9 0.91 44.32 0.91 44.86 C0.91 45.37 1.33 45.81
									 1.87 45.81 C2.38 45.81 2.83 45.39 2.83 44.86 ZM0.09 49.27 L0.09 49.88 C1.4 49.88 1.59 50.02
									 1.59 51.14 L1.59 57.63 C1.59 58.52 1.49 58.63 0 58.63 L0 59.24 C0.56 59.19 1.56 59.19 2.15 59.19
									 C2.71 59.19 3.67 59.19 4.2 59.24 L4.2 58.63 C2.83 58.63 2.78 58.49 2.78 57.65 L2.78 49.01 L0.09
									 49.27 Z" class="st1"/>
					</g>
					<g id="shape56-110" v:mID="56" v:groupContext="shape" transform="translate(325.611,-4.76312)">
						<title>工作表.56</title>
						<path d="M8.92 52.14 C8.92 50.95 8.69 49.01 5.93 49.01 C4.09 49.01 3.13 50.44 2.78 51.37 L2.76 51.37 L2.76
									 49.01 L0 49.27 L0 49.88 C1.38 49.88 1.59 50.02 1.59 51.14 L1.59 57.63 C1.59 58.52 1.49 58.63
									 0 58.63 L0 59.24 C0.56 59.19 1.59 59.19 2.19 59.19 C2.8 59.19 3.85 59.19 4.41 59.24 L4.41 58.63
									 C2.92 58.63 2.83 58.54 2.83 57.63 L2.83 53.15 C2.83 51 4.13 49.39 5.77 49.39 C7.49 49.39 7.68
									 50.93 7.68 52.05 L7.68 57.63 C7.68 58.52 7.59 58.63 6.09 58.63 L6.09 59.24 C6.65 59.19 7.68
									 59.19 8.29 59.19 C8.9 59.19 9.95 59.19 10.51 59.24 L10.51 58.63 C9.01 58.63 8.92 58.54 8.92
									 57.63 L8.92 52.14 Z" class="st1"/>
					</g>
					<g id="shape57-112" v:mID="57" v:groupContext="shape" transform="translate(338.008,-4.76312)">
						<title>工作表.57</title>
						<rect x="0" y="58.7895" width="6.42494" height="0.450305" class="st1"/>
					</g>
					<g id="shape58-114" v:mID="58" v:groupContext="shape" transform="translate(344.9,2.4869E-013)">
						<title>g0-103</title>
						<path d="M2.12 50.27 C2.57 50.62 3.34 51.02 4.27 51.02 C6.12 51.02 7.71 49.57 7.71 47.64 C7.71 47.03 7.52
									 46.09 6.82 45.37 C7.47 44.67 8.43 44.44 8.97 44.44 C9.06 44.44 9.2 44.44 9.32 44.51 C9.22 44.53
									 9.01 44.62 9.01 45 C9.01 45.3 9.22 45.51 9.53 45.51 C9.88 45.51 10.06 45.28 10.06 44.97 C10.06
									 44.53 9.71 44.06 8.97 44.06 C8.03 44.06 7.21 44.51 6.56 45.11 C5.86 44.48 5.02 44.25 4.27 44.25
									 C2.43 44.25 0.84 45.7 0.84 47.64 C0.84 48.97 1.61 49.81 1.84 50.04 C1.14 50.86 1.14 51.81 1.14
									 51.93 C1.14 52.54 1.38 53.43 2.17 53.92 C0.96 54.22 0 55.15 0 56.32 C0 58 2.22 59.24 4.88 59.24
									 C7.45 59.24 9.76 58.05 9.76 56.3 C9.76 53.12 6.3 53.12 4.51 53.12 C3.97 53.12 3.01 53.12 2.9
									 53.1 C2.17 52.98 1.68 52.33 1.68 51.51 C1.68 51.3 1.68 50.79 2.12 50.27 ZM4.27 50.62 C2.22 50.62
									 2.22 48.1 2.22 47.64 C2.22 47.17 2.22 44.65 4.27 44.65 C6.33 44.65 6.33 47.17 6.33 47.64 C6.33
									 48.1 6.33 50.62 4.27 50.62 ZM4.88 58.84 C2.55 58.84 0.93 57.61 0.93 56.32 C0.93 55.6 1.33 54.92
									 1.84 54.55 C2.43 54.15 2.66 54.15 4.25 54.15 C6.16 54.15 8.83 54.15 8.83 56.32 C8.83 57.61 7.21
									 58.84 4.88 58.84 Z" class="st1"/>
					</g>
					<g id="shape59-116" v:mID="59" v:groupContext="shape" transform="translate(355.825,-4.76312)">
						<title>工作表.59</title>
						<path d="M2.78 53.73 C2.78 51.49 3.74 49.39 5.49 49.39 C5.65 49.39 5.81 49.41 5.98 49.48 C5.98 49.48 5.46
									 49.64 5.46 50.25 C5.46 50.81 5.91 51.04 6.26 51.04 C6.54 51.04 7.05 50.88 7.05 50.23 C7.05 49.48
									 6.3 49.01 5.51 49.01 C3.74 49.01 2.97 50.74 2.73 51.56 L2.71 51.56 L2.71 49.01 L0 49.27 L0 49.88
									 C1.38 49.88 1.59 50.02 1.59 51.14 L1.59 57.63 C1.59 58.52 1.49 58.63 0 58.63 L0 59.24 C0.56
									 59.19 1.63 59.19 2.24 59.19 C2.92 59.19 4.11 59.19 4.74 59.24 L4.74 58.63 C3.06 58.63 2.78 58.63
									 2.78 57.58 L2.78 53.73 Z" class="st1"/>
					</g>
					<g id="shape60-118" v:mID="60" v:groupContext="shape" transform="translate(364.273,-4.57633)">
						<title>工作表.60</title>
						<path d="M7.47 53.01 C7.47 51.46 7.47 50.65 6.49 49.74 C5.63 48.97 4.62 48.73 3.83 48.73 C1.98 48.73 0.65
									 50.18 0.65 51.72 C0.65 52.59 1.35 52.63 1.49 52.63 C1.8 52.63 2.33 52.45 2.33 51.79 C2.33 51.21
									 1.89 50.95 1.49 50.95 C1.4 50.95 1.28 50.97 1.21 51 C1.7 49.53 2.97 49.11 3.78 49.11 C4.95 49.11
									 6.23 50.13 6.23 52.1 L6.23 53.12 C4.86 53.17 3.2 53.36 1.89 54.06 C0.42 54.87 0 56.04 0 56.93
									 C0 58.73 2.1 59.24 3.34 59.24 C4.62 59.24 5.81 58.52 6.33 57.19 C6.37 58.21 7.03 59.15 8.06
									 59.15 C8.55 59.15 9.78 58.82 9.78 56.97 L9.78 55.67 L9.36 55.67 L9.36 57 C9.36 58.42 8.73 58.61
									 8.43 58.61 C7.47 58.61 7.47 57.4 7.47 56.37 L7.47 53.01 ZM6.23 55.81 C6.23 57.84 4.79 58.87
									 3.5 58.87 C2.33 58.87 1.42 58 1.42 56.93 C1.42 56.23 1.73 54.99 3.08 54.24 C4.2 53.61 5.49 53.52
									 6.23 53.47 L6.23 55.81 Z" class="st1"/>
					</g>
					<g id="shape61-120" v:mID="61" v:groupContext="shape" transform="translate(374.777,-4.76312)">
						<title>工作表.61</title>
						<path d="M8.92 52.14 C8.92 50.95 8.69 49.01 5.93 49.01 C4.09 49.01 3.13 50.44 2.78 51.37 L2.76 51.37 L2.76
									 49.01 L0 49.27 L0 49.88 C1.38 49.88 1.59 50.02 1.59 51.14 L1.59 57.63 C1.59 58.52 1.49 58.63
									 0 58.63 L0 59.24 C0.56 59.19 1.59 59.19 2.19 59.19 C2.8 59.19 3.85 59.19 4.41 59.24 L4.41 58.63
									 C2.92 58.63 2.83 58.54 2.83 57.63 L2.83 53.15 C2.83 51 4.13 49.39 5.77 49.39 C7.49 49.39 7.68
									 50.93 7.68 52.05 L7.68 57.63 C7.68 58.52 7.59 58.63 6.09 58.63 L6.09 59.24 C6.65 59.19 7.68
									 59.19 8.29 59.19 C8.9 59.19 9.95 59.19 10.51 59.24 L10.51 58.63 C9.01 58.63 8.92 58.54 8.92
									 57.63 L8.92 52.14 Z" class="st1"/>
					</g>
					<g id="shape62-122" v:mID="62" v:groupContext="shape" transform="translate(386.051,-4.57633)">
						<title>g0-117</title>
						<path d="M6.09 49.08 L6.09 49.69 C7.47 49.69 7.68 49.83 7.68 50.95 L7.68 55.2 C7.68 57.16 6.63 58.87 4.9
									 58.87 C2.99 58.87 2.83 57.72 2.83 56.51 L2.83 48.83 L0 49.08 L0 49.69 C0.93 49.69 1.56 49.69
									 1.59 50.62 L1.59 55.11 C1.59 56.67 1.59 57.68 2.19 58.33 C2.5 58.63 3.08 59.24 4.76 59.24 C6.75
									 59.24 7.52 57.56 7.71 57.07 L7.73 57.07 L7.73 59.24 L10.51 59.05 L10.51 58.45 C9.13 58.45 8.92
									 58.31 8.92 57.19 L8.92 48.83 L6.09 49.08 Z" class="st1"/>
					</g>
					<g id="shape63-124" v:mID="63" v:groupContext="shape" transform="translate(397.957,-4.76312)">
						<title>工作表.63</title>
						<path d="M2.78 43.04 L0 43.29 L0 43.9 C1.38 43.9 1.59 44.04 1.59 45.16 L1.59 57.63 C1.59 58.52 1.49 58.63
									 0 58.63 L0 59.24 C0.56 59.19 1.59 59.19 2.17 59.19 C2.78 59.19 3.81 59.19 4.37 59.24 L4.37 58.63
									 C2.87 58.63 2.78 58.54 2.78 57.63 L2.78 43.04 Z" class="st1"/>
					</g>
					<g id="shape64-126" v:mID="64" v:groupContext="shape" transform="translate(403.905,-4.57633)">
						<title>工作表.64</title>
						<path d="M7.47 53.01 C7.47 51.46 7.47 50.65 6.49 49.74 C5.63 48.97 4.62 48.73 3.83 48.73 C1.98 48.73 0.65
									 50.18 0.65 51.72 C0.65 52.59 1.35 52.63 1.49 52.63 C1.8 52.63 2.33 52.45 2.33 51.79 C2.33 51.21
									 1.89 50.95 1.49 50.95 C1.4 50.95 1.28 50.97 1.21 51 C1.7 49.53 2.97 49.11 3.78 49.11 C4.95 49.11
									 6.23 50.13 6.23 52.1 L6.23 53.12 C4.86 53.17 3.2 53.36 1.89 54.06 C0.42 54.87 0 56.04 0 56.93
									 C0 58.73 2.1 59.24 3.34 59.24 C4.62 59.24 5.81 58.52 6.33 57.19 C6.37 58.21 7.03 59.15 8.06
									 59.15 C8.55 59.15 9.78 58.82 9.78 56.97 L9.78 55.67 L9.36 55.67 L9.36 57 C9.36 58.42 8.73 58.61
									 8.43 58.61 C7.47 58.61 7.47 57.4 7.47 56.37 L7.47 53.01 ZM6.23 55.81 C6.23 57.84 4.79 58.87
									 3.5 58.87 C2.33 58.87 1.42 58 1.42 56.93 C1.42 56.23 1.73 54.99 3.08 54.24 C4.2 53.61 5.49 53.52
									 6.23 53.47 L6.23 55.81 Z" class="st1"/>
					</g>
					<g id="shape65-128" v:mID="65" v:groupContext="shape" transform="translate(414.363,-4.76312)">
						<title>工作表.65</title>
						<path d="M2.78 53.73 C2.78 51.49 3.74 49.39 5.49 49.39 C5.65 49.39 5.81 49.41 5.98 49.48 C5.98 49.48 5.46
									 49.64 5.46 50.25 C5.46 50.81 5.91 51.04 6.26 51.04 C6.54 51.04 7.05 50.88 7.05 50.23 C7.05 49.48
									 6.3 49.01 5.51 49.01 C3.74 49.01 2.97 50.74 2.73 51.56 L2.71 51.56 L2.71 49.01 L0 49.27 L0 49.88
									 C1.38 49.88 1.59 50.02 1.59 51.14 L1.59 57.63 C1.59 58.52 1.49 58.63 0 58.63 L0 59.24 C0.56
									 59.19 1.63 59.19 2.24 59.19 C2.92 59.19 4.11 59.19 4.74 59.24 L4.74 58.63 C3.06 58.63 2.78 58.63
									 2.78 57.58 L2.78 53.73 Z" class="st1"/>
					</g>
					<g id="shape66-130" v:mID="66" v:groupContext="shape" transform="translate(422.67,-4.76312)">
						<title>工作表.66</title>
						<path d="M2.83 44.86 C2.83 44.34 2.4 43.9 1.87 43.9 C1.35 43.9 0.91 44.32 0.91 44.86 C0.91 45.37 1.33 45.81
									 1.87 45.81 C2.38 45.81 2.83 45.39 2.83 44.86 ZM0.09 49.27 L0.09 49.88 C1.4 49.88 1.59 50.02
									 1.59 51.14 L1.59 57.63 C1.59 58.52 1.49 58.63 0 58.63 L0 59.24 C0.56 59.19 1.56 59.19 2.15 59.19
									 C2.71 59.19 3.67 59.19 4.2 59.24 L4.2 58.63 C2.83 58.63 2.78 58.49 2.78 57.65 L2.78 49.01 L0.09
									 49.27 Z" class="st1"/>
					</g>
					<g id="shape67-132" v:mID="67" v:groupContext="shape" transform="translate(427.941,-4.57633)">
						<title>工作表.67</title>
						<path d="M3.27 49.62 L6.54 49.62 L6.54 49.01 L3.27 49.01 L3.27 44.69 L2.85 44.69 C2.8 47.1 1.98 49.2 0 49.25
									 L0 49.62 L2.03 49.62 L2.03 56.18 C2.03 56.62 2.03 59.24 4.74 59.24 C6.12 59.24 6.91 57.89 6.91
									 56.16 L6.91 54.83 L6.49 54.83 L6.49 56.13 C6.49 57.75 5.86 58.82 4.88 58.82 C4.2 58.82 3.27
									 58.35 3.27 56.23 L3.27 49.62 Z" class="st1"/>
					</g>
					<g id="shape68-134" v:mID="68" v:groupContext="shape" transform="translate(435.545,-0.0233458)">
						<title>工作表.68</title>
						<path d="M8.87 46.51 C9.46 45.09 10.51 45.07 10.83 45.07 L10.83 44.46 C10.39 44.48 9.81 44.51 9.36 44.51
									 C8.87 44.51 8.1 44.51 7.64 44.46 L7.64 45.07 C8.52 45.14 8.55 45.79 8.55 45.98 C8.55 46.21 8.5
									 46.33 8.38 46.61 L5.84 52.91 L3.06 46.09 C2.94 45.81 2.94 45.65 2.94 45.63 C2.94 45.11 3.48
									 45.07 4.04 45.07 L4.04 44.46 C3.48 44.51 2.47 44.51 1.89 44.51 C1.26 44.51 0.51 44.51 0 44.46
									 L0 45.07 C1.26 45.07 1.4 45.18 1.7 45.93 L5.18 54.5 C4.13 57.26 3.53 58.87 2.05 58.87 C1.8 58.87
									 1.21 58.8 0.79 58.38 C1.33 58.33 1.56 58 1.56 57.61 C1.56 57.21 1.28 56.86 0.82 56.86 C0.3 56.86
									 0.05 57.21 0.05 57.63 C0.05 58.56 1 59.24 2.05 59.24 C3.41 59.24 4.25 57.93 4.72 56.76 L8.87
									 46.51 Z" class="st1"/>
					</g>
				</g>
			</g>
			<g id="shape69-136" v:mID="69" v:groupContext="shape" transform="translate(402.245,-44.8969) rotate(-7.12502)">
				<title>工作表.69</title>
				<path d="M0 59.24 L39.98 59.24" class="st2"/>
			</g>
			<g id="shape70-142" v:mID="70" v:groupContext="shape" transform="translate(459.294,-9.92791) rotate(12.5288)">
				<title>工作表.70</title>
				<path d="M0 59.24 L17.01 59.24" class="st2"/>
			</g>
			<g id="shape71-147" v:mID="71" v:groupContext="shape" transform="translate(467.703,0)">
				<title>工作表.71</title>
				<desc>进程的最小时间片</desc>
				<v:textBlock v:margins="rect(4,4,4,4)" v:tabSpace="42.5197"/>
				<v:textRect cx="41.1024" cy="53.3016" width="82.21" height="11.8764"/>
				<rect x="0" y="47.3634" width="82.2047" height="11.8764" class="st4"/>
				<text x="4" y="56" class="st5" v:langID="2052"><v:paragraph/><v:tabList/>进程的最小时间片</text>			</g>
			<g id="shape72-150" v:mID="72" v:groupContext="shape" transform="translate(454.763,-44.8165)">
				<title>工作表.72</title>
				<desc>默认的调度等待时间</desc>
				<v:textBlock v:margins="rect(4,4,4,4)" v:tabSpace="42.5197"/>
				<v:textRect cx="45.5383" cy="53.3016" width="91.08" height="11.8764"/>
				<rect x="0" y="47.3634" width="91.0765" height="11.8764" class="st4"/>
				<text x="4" y="56" class="st5" v:langID="2052"><v:paragraph/><v:tabList/>默认的调度等待时间</text>			</g>
		</g>
	</g>
</svg>
