<?xml version="1.0" encoding="UTF-8" standalone="no"?>
<!DOCTYPE svg PUBLIC "-//W3C//DTD SVG 1.1//EN" "http://www.w3.org/Graphics/SVG/1.1/DTD/svg11.dtd">
<!-- 由 Microsoft Visio, SVG Export 生成 scheduling_latency_calculation.svg 页-1 -->
<svg xmlns="http://www.w3.org/2000/svg" xmlns:xlink="http://www.w3.org/1999/xlink" xmlns:ev="http://www.w3.org/2001/xml-events"
		xmlns:v="http://schemas.microsoft.com/visio/2003/SVGExtensions/" width="6.60108in" height="0.791293in"
		viewBox="0 0 475.278 56.9731" xml:space="preserve" color-interpolation-filters="sRGB" class="st9">
	<v:documentProperties v:langID="2052" v:metric="true" v:viewMarkup="false"/>

	<style type="text/css">
	<![CDATA[
		.st1 {fill:#000000;stroke:none;stroke-linecap:butt;stroke-width:1.13}
		.st2 {stroke:#000000;stroke-linecap:round;stroke-linejoin:round;stroke-width:1}
		.st3 {marker-end:url(#mrkr5-135);stroke:#000000;stroke-linecap:round;stroke-linejoin:round;stroke-width:1}
		.st4 {fill:#000000;fill-opacity:1;stroke:#000000;stroke-opacity:1;stroke-width:0.28409090909091}
		.st5 {fill:none;stroke:none;stroke-width:0.25}
		.st6 {fill:#000000;font-family:Times New Roman;font-size:0.75em}
		.st7 {font-family:宋体;font-size:1em}
		.st8 {fill:#000000;font-family:宋体;font-size:0.75em}
		.st9 {fill:none;fill-rule:evenodd;font-size:12px;overflow:visible;stroke-linecap:square;stroke-miterlimit:3}
	]]>
	</style>

	<defs id="Markers">
		<g id="lend5">
			<path d="M 2 1 L 0 0 L 1.98117 -0.993387 C 1.67173 -0.364514 1.67301 0.372642 1.98465 1.00043 " style="stroke:none"/>
		</g>
		<marker id="mrkr5-135" class="st4" v:arrowType="5" v:arrowSize="2" v:setback="6.16" refX="-6.16" orient="auto"
				markerUnits="strokeWidth" overflow="visible">
			<use xlink:href="#lend5" transform="scale(-3.52,-3.52) "/>
		</marker>
	</defs>
	<g v:mID="0" v:index="1" v:groupContext="foregroundPage">
		<title>页-1</title>
		<v:pageProperties v:drawingScale="0.0393701" v:pageScale="0.0393701" v:drawingUnits="24" v:shadowOffsetX="9"
				v:shadowOffsetY="-9"/>
		<v:layer v:name="连接线" v:index="0"/>
		<g id="group132-1" transform="translate(1.13,-0.25)" v:mID="132" v:groupContext="group">
			<title>工作表.132</title>
			<g id="group63-2" transform="translate(-6.39488E-014,-41.0192)" v:mID="63" v:groupContext="group">
				<title>工作表.63</title>
				<g id="group64-3" v:mID="64" v:groupContext="group">
					<title>工作表.64</title>
					<g id="shape65-4" v:mID="65" v:groupContext="shape" transform="translate(-9.99201E-016,-3.3233)">
						<title>g1-110</title>
						<path d="M6.7 53.03 C6.7 51.53 6.7 51.07 6.32 50.55 C5.85 49.92 5.09 49.82 4.54 49.82 C2.97 49.82 2.35 51.17
									 2.22 51.49 L2.2 51.49 L2.2 49.82 L0 50 L0 50.47 C1.1 50.47 1.23 50.59 1.23 51.38 L1.23 55.77
									 C1.23 56.5 1.05 56.5 0 56.5 L0 56.97 C0.42 56.94 1.3 56.94 1.75 56.94 C2.22 56.94 3.1 56.94
									 3.52 56.97 L3.52 56.5 C2.48 56.5 2.29 56.5 2.29 55.77 L2.29 52.76 C2.29 51.06 3.4 50.15 4.41
									 50.15 C5.41 50.15 5.64 50.97 5.64 51.96 L5.64 55.77 C5.64 56.5 5.46 56.5 4.41 56.5 L4.41 56.97
									 C4.83 56.94 5.71 56.94 6.16 56.94 C6.63 56.94 7.51 56.94 7.93 56.97 L7.93 56.5 C7.12 56.5 6.71
									 56.5 6.7 56.02 L6.7 53.03 Z" class="st1"/>
					</g>
					<g id="shape66-6" v:mID="66" v:groupContext="shape" transform="translate(8.7531,-3.16118)">
						<title>g1-101</title>
						<path d="M5.72 53.05 C6.08 53.05 6.11 53.05 6.11 52.74 C6.11 51.1 5.24 49.58 3.27 49.58 C1.43 49.58 0 51.25
									 0 53.26 C0 55.4 1.65 56.97 3.45 56.97 C5.38 56.97 6.11 55.22 6.11 54.88 C6.11 54.78 6.03 54.72
									 5.93 54.72 C5.8 54.72 5.77 54.8 5.74 54.88 C5.32 56.24 4.23 56.62 3.55 56.62 C2.87 56.62 1.23
									 56.16 1.23 53.36 L1.23 53.05 L5.72 53.05 ZM1.25 52.74 C1.38 50.2 2.8 49.91 3.26 49.91 C4.99
									 49.91 5.09 52.19 5.11 52.74 L1.25 52.74 Z" class="st1"/>
					</g>
					<g id="shape67-8" v:mID="67" v:groupContext="shape" transform="translate(15.5871,-3.16118)">
						<title>g1-119</title>
						<path d="M9.52 51.36 C9.87 50.34 10.59 50.31 10.86 50.29 L10.86 49.82 C10.46 49.86 10.16 49.86 9.66 49.86
									 C9.19 49.86 9.16 49.86 8.28 49.82 L8.28 50.29 C9.01 50.33 9.21 50.76 9.21 51.07 C9.21 51.09
									 9.21 51.2 9.14 51.36 L7.65 55.61 L6.03 51.02 C5.95 50.83 5.95 50.8 5.95 50.75 C5.95 50.29 6.55
									 50.29 6.89 50.29 L6.89 49.82 C6.44 49.86 5.77 49.86 5.3 49.86 C4.78 49.86 4.75 49.86 3.84 49.82
									 L3.84 50.29 C4.46 50.29 4.67 50.33 4.85 50.54 C4.93 50.63 5.12 51.17 5.24 51.49 L3.86 55.45
									 L2.3 51.04 C2.22 50.83 2.22 50.8 2.22 50.73 C2.22 50.29 2.85 50.29 3.16 50.29 L3.16 49.82 C2.76
									 49.86 1.95 49.86 1.51 49.86 C1.05 49.86 1.02 49.86 0 49.82 L0 50.29 C0.83 50.29 0.99 50.36 1.17
									 50.88 L3.21 56.68 C3.27 56.86 3.32 56.97 3.5 56.97 C3.65 56.97 3.73 56.92 3.81 56.67 L5.43 52.04
									 L7.05 56.67 C7.13 56.92 7.21 56.97 7.36 56.97 C7.54 56.97 7.59 56.86 7.65 56.68 L9.52 51.36
									 Z" class="st1"/>
					</g>
					<g id="shape68-10" v:mID="68" v:groupContext="shape" transform="translate(32.5425,-3.16118)">
						<title>g1-115</title>
						<path d="M4.78 49.95 C4.78 49.66 4.78 49.58 4.62 49.58 C4.49 49.58 4.18 49.94 4.07 50.08 C3.57 49.68 3.06
									 49.58 2.55 49.58 C0.58 49.58 0 50.65 0 51.54 C0 51.72 0 52.29 0.62 52.86 C1.13 53.31 1.69 53.42
									 2.43 53.57 C3.32 53.75 3.53 53.8 3.94 54.12 C4.23 54.36 4.44 54.72 4.44 55.17 C4.44 55.87 4.04
									 56.65 2.61 56.65 C1.54 56.65 0.76 56.03 0.41 54.41 C0.34 54.12 0.34 54.1 0.32 54.09 C0.29 54.02
									 0.23 54.02 0.18 54.02 C0 54.02 0 54.1 0 54.4 L0 56.6 C0 56.89 0 56.97 0.16 56.97 C0.24 56.97
									 0.26 56.96 0.53 56.62 C0.62 56.5 0.62 56.47 0.86 56.21 C1.48 56.97 2.35 56.97 2.63 56.97 C4.33
									 56.97 5.17 56.03 5.17 54.75 C5.17 53.88 4.64 53.36 4.49 53.21 C3.91 52.71 3.47 52.61 2.4 52.42
									 C1.91 52.32 0.73 52.09 0.73 51.12 C0.73 50.62 1.07 49.87 2.53 49.87 C4.3 49.87 4.39 51.38 4.43
									 51.88 C4.44 52.01 4.56 52.01 4.6 52.01 C4.78 52.01 4.78 51.93 4.78 51.64 L4.78 49.95 Z"
								class="st1"/>
					</g>
					<g id="shape69-12" v:mID="69" v:groupContext="shape" transform="translate(38.8126,-3.16118)">
						<title>g1-99</title>
						<path d="M5.3 50.81 C5.11 50.81 4.51 50.81 4.51 51.48 C4.51 51.87 4.78 52.14 5.17 52.14 C5.54 52.14 5.85
									 51.92 5.85 51.45 C5.85 50.36 4.72 49.58 3.4 49.58 C1.51 49.58 0 51.27 0 53.31 C0 55.38 1.56
									 56.97 3.39 56.97 C5.53 56.97 6.01 55.03 6.01 54.88 C6.01 54.74 5.9 54.74 5.85 54.74 C5.71 54.74
									 5.69 54.78 5.64 54.98 C5.28 56.13 4.41 56.62 3.53 56.62 C2.55 56.62 1.23 55.76 1.23 53.29 C1.23
									 50.6 2.61 49.94 3.42 49.94 C4.04 49.94 4.93 50.18 5.3 50.81 Z" class="st1"/>
					</g>
					<g id="shape70-14" v:mID="70" v:groupContext="shape" transform="translate(45.3515,-3.3233)">
						<title>g1-104</title>
						<path d="M6.7 53.03 C6.7 51.53 6.7 51.07 6.32 50.55 C5.85 49.92 5.09 49.82 4.54 49.82 C3.14 49.82 2.5 50.88
									 2.27 51.38 L2.25 51.38 L2.25 45.72 L0 45.9 L0 46.37 C1.1 46.37 1.23 46.48 1.23 47.28 L1.23 55.77
									 C1.23 56.5 1.05 56.5 0 56.5 L0 56.97 C0.42 56.94 1.3 56.94 1.75 56.94 C2.22 56.94 3.1 56.94
									 3.52 56.97 L3.52 56.5 C2.48 56.5 2.29 56.5 2.29 55.77 L2.29 52.76 C2.29 51.06 3.4 50.15 4.41
									 50.15 C5.41 50.15 5.64 50.97 5.64 51.96 L5.64 55.77 C5.64 56.5 5.46 56.5 4.41 56.5 L4.41 56.97
									 C4.83 56.94 5.71 56.94 6.16 56.94 C6.63 56.94 7.51 56.94 7.93 56.97 L7.93 56.5 C7.12 56.5 6.71
									 56.5 6.7 56.02 L6.7 53.03 Z" class="st1"/>
					</g>
					<g id="shape71-16" v:mID="71" v:groupContext="shape" transform="translate(54.1044,-3.16118)">
						<title>工作表.71</title>
						<path d="M5.72 53.05 C6.08 53.05 6.11 53.05 6.11 52.74 C6.11 51.1 5.24 49.58 3.27 49.58 C1.43 49.58 0 51.25
									 0 53.26 C0 55.4 1.65 56.97 3.45 56.97 C5.38 56.97 6.11 55.22 6.11 54.88 C6.11 54.78 6.03 54.72
									 5.93 54.72 C5.8 54.72 5.77 54.8 5.74 54.88 C5.32 56.24 4.23 56.62 3.55 56.62 C2.87 56.62 1.23
									 56.16 1.23 53.36 L1.23 53.05 L5.72 53.05 ZM1.25 52.74 C1.38 50.2 2.8 49.91 3.26 49.91 C4.99
									 49.91 5.09 52.19 5.11 52.74 L1.25 52.74 Z" class="st1"/>
					</g>
					<g id="shape72-18" v:mID="72" v:groupContext="shape" transform="translate(61.2141,-3.16118)">
						<title>g1-100</title>
						<path d="M4.3 45.74 L4.3 46.21 C5.4 46.21 5.53 46.32 5.53 47.12 L5.53 50.7 C5.19 50.23 4.49 49.66 3.5 49.66
									 C1.62 49.66 0 51.25 0 53.33 C0 55.38 1.54 56.97 3.32 56.97 C4.56 56.97 5.27 56.16 5.5 55.85
									 L5.5 56.97 L7.78 56.81 L7.78 56.34 C6.68 56.34 6.55 56.23 6.55 55.43 L6.55 45.56 L4.3 45.74
									 ZM5.5 54.91 C5.5 55.21 5.5 55.25 5.27 55.61 C4.88 56.18 4.21 56.65 3.4 56.65 C2.98 56.65 1.23
									 56.49 1.23 53.34 C1.23 52.17 1.43 51.53 1.78 50.99 C2.11 50.49 2.76 49.99 3.57 49.99 C4.57 49.99
									 5.14 50.72 5.3 50.97 C5.5 51.25 5.5 51.28 5.5 51.57 L5.5 54.91 Z" class="st1"/>
					</g>
					<g id="shape73-20" v:mID="73" v:groupContext="shape" transform="translate(69.9512,-3.16118)">
						<title>g1-117</title>
						<path d="M4.41 49.84 L4.41 50.31 C5.51 50.31 5.64 50.42 5.64 51.22 L5.64 54.12 C5.64 55.5 4.91 56.65 3.7
									 56.65 C2.37 56.65 2.29 55.89 2.29 55.03 L2.29 49.66 L0 49.84 L0 50.31 C1.23 50.31 1.23 50.36
									 1.23 51.8 L1.23 54.23 C1.23 55.24 1.23 55.82 1.72 56.36 C2.11 56.78 2.77 56.97 3.6 56.97 C3.87
									 56.97 4.39 56.97 4.94 56.5 C5.41 56.13 5.67 55.51 5.67 55.51 L5.67 56.97 L7.93 56.81 L7.93 56.34
									 C6.82 56.34 6.7 56.23 6.7 55.43 L6.7 49.66 L4.41 49.84 Z" class="st1"/>
					</g>
					<g id="shape74-22" v:mID="74" v:groupContext="shape" transform="translate(78.7531,-3.3233)">
						<title>g1-108</title>
						<path d="M2.25 45.72 L0 45.9 L0 46.37 C1.1 46.37 1.23 46.48 1.23 47.28 L1.23 55.77 C1.23 56.5 1.05 56.5 0
									 56.5 L0 56.97 C0.45 56.94 1.25 56.94 1.73 56.94 C2.22 56.94 3.03 56.94 3.49 56.97 L3.49 56.5
									 C2.45 56.5 2.25 56.5 2.25 55.77 L2.25 45.72 Z" class="st1"/>
					</g>
					<g id="shape75-24" v:mID="75" v:groupContext="shape" transform="translate(83.1455,-3.3233)">
						<title>g1-105</title>
						<path d="M2.29 46.99 C2.29 46.57 1.95 46.19 1.49 46.19 C1.07 46.19 0.71 46.53 0.71 46.97 C0.71 47.46 1.1
									 47.77 1.49 47.77 C1.99 47.77 2.29 47.34 2.29 46.99 ZM0.05 50 L0.05 50.47 C1.09 50.47 1.23 50.57
									 1.23 51.36 L1.23 55.77 C1.23 56.5 1.05 56.5 0 56.5 L0 56.97 C0.45 56.94 1.23 56.94 1.7 56.94
									 C1.88 56.94 2.82 56.94 3.37 56.97 L3.37 56.5 C2.32 56.5 2.25 56.42 2.25 55.79 L2.25 49.82 L0.05
									 50 Z" class="st1"/>
					</g>
					<g id="shape76-26" v:mID="76" v:groupContext="shape" transform="translate(87.5227,-3.3233)">
						<title>工作表.76</title>
						<path d="M6.7 53.03 C6.7 51.53 6.7 51.07 6.32 50.55 C5.85 49.92 5.09 49.82 4.54 49.82 C2.97 49.82 2.35 51.17
									 2.22 51.49 L2.2 51.49 L2.2 49.82 L0 50 L0 50.47 C1.1 50.47 1.23 50.59 1.23 51.38 L1.23 55.77
									 C1.23 56.5 1.05 56.5 0 56.5 L0 56.97 C0.42 56.94 1.3 56.94 1.75 56.94 C2.22 56.94 3.1 56.94
									 3.52 56.97 L3.52 56.5 C2.48 56.5 2.29 56.5 2.29 55.77 L2.29 52.76 C2.29 51.06 3.4 50.15 4.41
									 50.15 C5.41 50.15 5.64 50.97 5.64 51.96 L5.64 55.77 C5.64 56.5 5.46 56.5 4.41 56.5 L4.41 56.97
									 C4.83 56.94 5.71 56.94 6.16 56.94 C6.63 56.94 7.51 56.94 7.93 56.97 L7.93 56.5 C7.12 56.5 6.71
									 56.5 6.7 56.02 L6.7 53.03 Z" class="st1"/>
					</g>
					<g id="shape77-28" v:mID="77" v:groupContext="shape" transform="translate(96.2262,0)">
						<title>g1-103</title>
						<path d="M1.49 50.72 C2.25 51.22 2.9 51.22 3.08 51.22 C4.54 51.22 5.63 50.12 5.63 48.87 C5.63 48.43 5.5 47.81
									 4.98 47.29 C5.61 46.65 6.37 46.65 6.45 46.65 C6.52 46.65 6.6 46.65 6.66 46.68 C6.5 46.74 6.42
									 46.91 6.42 47.08 C6.42 47.31 6.58 47.51 6.84 47.51 C6.97 47.51 7.26 47.42 7.26 47.07 C7.26 46.78
									 7.04 46.32 6.47 46.32 C5.63 46.32 4.99 46.84 4.77 47.08 C4.28 46.71 3.71 46.5 3.1 46.5 C1.64
									 46.5 0.55 47.6 0.55 48.85 C0.55 49.78 1.12 50.38 1.28 50.52 C1.09 50.76 0.79 51.23 0.79 51.87
									 C0.79 52.81 1.36 53.21 1.49 53.29 C0.75 53.5 0 54.09 0 54.93 C0 56.05 1.52 56.97 3.52 56.97
									 C5.45 56.97 7.05 56.11 7.05 54.9 C7.05 54.49 6.94 53.54 5.97 53.03 C5.14 52.61 4.33 52.61 2.93
									 52.61 C1.95 52.61 1.83 52.61 1.54 52.3 C1.38 52.14 1.23 51.83 1.23 51.49 C1.23 51.22 1.33 50.94
									 1.49 50.72 ZM3.1 50.88 C1.67 50.88 1.67 49.24 1.67 48.87 C1.67 48.58 1.67 47.91 1.95 47.47 C2.25
									 47 2.74 46.84 3.08 46.84 C4.51 46.84 4.51 48.48 4.51 48.85 C4.51 49.14 4.51 49.81 4.23 50.25
									 C3.92 50.72 3.44 50.88 3.1 50.88 ZM3.53 56.63 C1.98 56.63 0.79 55.84 0.79 54.91 C0.79 54.78
									 0.83 54.15 1.44 53.73 C1.8 53.5 1.95 53.5 3.08 53.5 C4.43 53.5 6.26 53.5 6.26 54.91 C6.26 55.87
									 5.03 56.63 3.53 56.63 Z" class="st1"/>
					</g>
					<g id="shape78-30" v:mID="78" v:groupContext="shape" transform="translate(109.522,-3.3233)">
						<title>工作表.78</title>
						<path d="M2.25 45.72 L0 45.9 L0 46.37 C1.1 46.37 1.23 46.48 1.23 47.28 L1.23 55.77 C1.23 56.5 1.05 56.5 0
									 56.5 L0 56.97 C0.45 56.94 1.25 56.94 1.73 56.94 C2.22 56.94 3.03 56.94 3.49 56.97 L3.49 56.5
									 C2.45 56.5 2.25 56.5 2.25 55.77 L2.25 45.72 Z" class="st1"/>
					</g>
					<g id="shape79-32" v:mID="79" v:groupContext="shape" transform="translate(114.094,-3.16118)">
						<title>g1-97</title>
						<path d="M5.54 52.48 C5.54 51.61 5.54 50.96 4.83 50.33 C4.26 49.81 3.53 49.58 2.82 49.58 C1.49 49.58 0.47
									 50.46 0.47 51.51 C0.47 51.98 0.78 52.21 1.15 52.21 C1.54 52.21 1.82 51.93 1.82 51.54 C1.82 50.88
									 1.23 50.88 0.99 50.88 C1.36 50.2 2.14 49.91 2.79 49.91 C3.53 49.91 4.49 50.52 4.49 51.98 L4.49
									 52.63 C1.23 52.68 0 54.04 0 55.29 C0 56.57 1.49 56.97 2.48 56.97 C3.55 56.97 4.28 56.32 4.59
									 55.55 C4.65 56.31 5.16 56.89 5.85 56.89 C6.19 56.89 7.13 56.67 7.13 55.37 L7.13 54.46 L6.78
									 54.46 L6.78 55.37 C6.78 56.29 6.39 56.42 6.16 56.42 C5.54 56.42 5.54 55.56 5.54 55.32 L5.54
									 52.48 ZM4.49 54.53 C4.49 56.11 3.31 56.65 2.61 56.65 C1.82 56.65 1.15 56.07 1.15 55.29 C1.15
									 53.15 3.91 52.95 4.49 52.92 L4.49 54.53 Z" class="st1"/>
					</g>
					<g id="shape80-34" v:mID="80" v:groupContext="shape" transform="translate(121.579,-3.16118)">
						<title>g1-116</title>
						<path d="M2.43 50.29 L4.72 50.29 L4.72 49.82 L2.43 49.82 L2.43 46.84 L2.08 46.84 C2.06 48.36 1.48 49.92 0
									 49.97 L0 50.29 L1.38 50.29 L1.38 54.8 C1.38 56.6 2.58 56.97 3.44 56.97 C4.46 56.97 4.99 55.97
									 4.99 54.8 L4.99 53.88 L4.64 53.88 L4.64 54.77 C4.64 55.94 4.17 56.62 3.53 56.62 C2.43 56.62
									 2.43 55.11 2.43 54.83 L2.43 50.29 Z" class="st1"/>
					</g>
					<g id="shape81-36" v:mID="81" v:groupContext="shape" transform="translate(127.923,-3.16118)">
						<title>工作表.81</title>
						<path d="M5.72 53.05 C6.08 53.05 6.11 53.05 6.11 52.74 C6.11 51.1 5.24 49.58 3.27 49.58 C1.43 49.58 0 51.25
									 0 53.26 C0 55.4 1.65 56.97 3.45 56.97 C5.38 56.97 6.11 55.22 6.11 54.88 C6.11 54.78 6.03 54.72
									 5.93 54.72 C5.8 54.72 5.77 54.8 5.74 54.88 C5.32 56.24 4.23 56.62 3.55 56.62 C2.87 56.62 1.23
									 56.16 1.23 53.36 L1.23 53.05 L5.72 53.05 ZM1.25 52.74 C1.38 50.2 2.8 49.91 3.26 49.91 C4.99
									 49.91 5.09 52.19 5.11 52.74 L1.25 52.74 Z" class="st1"/>
					</g>
					<g id="shape82-38" v:mID="82" v:groupContext="shape" transform="translate(134.984,-3.3233)">
						<title>工作表.82</title>
						<path d="M6.7 53.03 C6.7 51.53 6.7 51.07 6.32 50.55 C5.85 49.92 5.09 49.82 4.54 49.82 C2.97 49.82 2.35 51.17
									 2.22 51.49 L2.2 51.49 L2.2 49.82 L0 50 L0 50.47 C1.1 50.47 1.23 50.59 1.23 51.38 L1.23 55.77
									 C1.23 56.5 1.05 56.5 0 56.5 L0 56.97 C0.42 56.94 1.3 56.94 1.75 56.94 C2.22 56.94 3.1 56.94
									 3.52 56.97 L3.52 56.5 C2.48 56.5 2.29 56.5 2.29 55.77 L2.29 52.76 C2.29 51.06 3.4 50.15 4.41
									 50.15 C5.41 50.15 5.64 50.97 5.64 51.96 L5.64 55.77 C5.64 56.5 5.46 56.5 4.41 56.5 L4.41 56.97
									 C4.83 56.94 5.71 56.94 6.16 56.94 C6.63 56.94 7.51 56.94 7.93 56.97 L7.93 56.5 C7.12 56.5 6.71
									 56.5 6.7 56.02 L6.7 53.03 Z" class="st1"/>
					</g>
					<g id="shape83-40" v:mID="83" v:groupContext="shape" transform="translate(143.818,-3.16118)">
						<title>工作表.83</title>
						<path d="M5.3 50.81 C5.11 50.81 4.51 50.81 4.51 51.48 C4.51 51.87 4.78 52.14 5.17 52.14 C5.54 52.14 5.85
									 51.92 5.85 51.45 C5.85 50.36 4.72 49.58 3.4 49.58 C1.51 49.58 0 51.27 0 53.31 C0 55.38 1.56
									 56.97 3.39 56.97 C5.53 56.97 6.01 55.03 6.01 54.88 C6.01 54.74 5.9 54.74 5.85 54.74 C5.71 54.74
									 5.69 54.78 5.64 54.98 C5.28 56.13 4.41 56.62 3.53 56.62 C2.55 56.62 1.23 55.76 1.23 53.29 C1.23
									 50.6 2.61 49.94 3.42 49.94 C4.04 49.94 4.93 50.18 5.3 50.81 Z" class="st1"/>
					</g>
					<g id="shape84-42" v:mID="84" v:groupContext="shape" transform="translate(150.571,-0.0162155)">
						<title>g1-121</title>
						<path d="M6.27 48.25 C6.71 47.17 7.47 47.15 7.78 47.15 L7.78 46.68 C7.31 46.71 7.08 46.71 6.57 46.71 C6.19
									 46.71 6.16 46.71 5.25 46.68 L5.25 47.15 C5.85 47.18 6 47.55 6 47.85 C6 47.99 5.97 48.07 5.9
									 48.24 L4.25 52.32 L2.45 47.91 C2.35 47.68 2.35 47.59 2.35 47.57 C2.35 47.15 2.92 47.15 3.24
									 47.15 L3.24 46.68 C2.82 46.71 2.03 46.71 1.57 46.71 C0.96 46.71 0.92 46.71 0 46.68 L0 47.15
									 C0.94 47.15 1.07 47.23 1.28 47.73 L3.7 53.67 C2.98 55.38 2.98 55.42 2.92 55.55 C2.64 56.03 2.2
									 56.65 1.48 56.65 C0.97 56.65 0.66 56.36 0.66 56.36 C0.66 56.36 1.23 56.29 1.23 55.72 C1.23 55.34
									 0.92 55.13 0.63 55.13 C0.36 55.13 0.02 55.29 0.02 55.76 C0.02 56.37 0.62 56.97 1.48 56.97 C2.38
									 56.97 3.05 56.18 3.47 55.16 L6.27 48.25 Z" class="st1"/>
					</g>
					<g id="shape85-44" v:mID="85" v:groupContext="shape" transform="translate(168.09,-5.56045)">
						<title>g1-61</title>
						<path d="M10.07 53.96 C10.29 53.96 10.59 53.96 10.59 53.67 C10.59 53.36 10.31 53.36 10.07 53.36 L0.52 53.36
									 C0.29 53.36 0 53.36 0 53.65 C0 53.96 0.28 53.96 0.52 53.96 L10.07 53.96 ZM10.07 56.97 C10.29
									 56.97 10.59 56.97 10.59 56.68 C10.59 56.37 10.31 56.37 10.07 56.37 L0.52 56.37 C0.29 56.37 0
									 56.37 0 56.67 C0 56.97 0.28 56.97 0.52 56.97 L10.07 56.97 Z" class="st1"/>
					</g>
					<g id="shape86-46" v:mID="86" v:groupContext="shape" transform="translate(188.063,-3.3233)">
						<title>工作表.86</title>
						<path d="M6.7 53.03 C6.7 51.53 6.7 51.07 6.32 50.55 C5.85 49.92 5.09 49.82 4.54 49.82 C2.97 49.82 2.35 51.17
									 2.22 51.49 L2.2 51.49 L2.2 49.82 L0 50 L0 50.47 C1.1 50.47 1.23 50.59 1.23 51.38 L1.23 55.77
									 C1.23 56.5 1.05 56.5 0 56.5 L0 56.97 C0.42 56.94 1.3 56.94 1.75 56.94 C2.22 56.94 3.1 56.94
									 3.52 56.97 L3.52 56.5 C2.48 56.5 2.29 56.5 2.29 55.77 L2.29 52.76 C2.29 51.06 3.4 50.15 4.41
									 50.15 C5.41 50.15 5.64 50.97 5.64 51.96 L5.64 55.77 C5.64 56.5 5.46 56.5 4.41 56.5 L4.41 56.97
									 C4.83 56.94 5.71 56.94 6.16 56.94 C6.63 56.94 7.51 56.94 7.93 56.97 L7.93 56.5 C7.12 56.5 6.71
									 56.5 6.7 56.02 L6.7 53.03 Z" class="st1"/>
					</g>
					<g id="shape87-48" v:mID="87" v:groupContext="shape" transform="translate(196.784,-3.3233)">
						<title>g1-114</title>
						<path d="M2.25 53.2 C2.25 51.62 2.9 50.15 4.15 50.15 C4.28 50.15 4.31 50.15 4.38 50.16 C4.25 50.23 3.99 50.33
									 3.99 50.76 C3.99 51.23 4.36 51.41 4.62 51.41 C4.94 51.41 5.27 51.2 5.27 50.76 C5.27 50.28 4.83
									 49.82 4.13 49.82 C2.76 49.82 2.29 51.32 2.19 51.62 L2.17 51.62 L2.17 49.82 L0 50 L0 50.47 C1.1
									 50.47 1.23 50.59 1.23 51.38 L1.23 55.77 C1.23 56.5 1.05 56.5 0 56.5 L0 56.97 C0.45 56.94 1.35
									 56.94 1.83 56.94 C2.27 56.94 3.42 56.94 3.79 56.97 L3.79 56.5 L3.47 56.5 C2.29 56.5 2.25 56.32
									 2.25 55.74 L2.25 53.2 Z" class="st1"/>
					</g>
					<g id="shape88-50" v:mID="88" v:groupContext="shape" transform="translate(203.432,-3.3233)">
						<title>工作表.88</title>
						<rect x="0" y="56.5228" width="4.76202" height="0.450305" class="st1"/>
					</g>
					<g id="shape89-52" v:mID="89" v:groupContext="shape" transform="translate(208.648,-3.3233)">
						<title>工作表.89</title>
						<path d="M2.25 53.2 C2.25 51.62 2.9 50.15 4.15 50.15 C4.28 50.15 4.31 50.15 4.38 50.16 C4.25 50.23 3.99 50.33
									 3.99 50.76 C3.99 51.23 4.36 51.41 4.62 51.41 C4.94 51.41 5.27 51.2 5.27 50.76 C5.27 50.28 4.83
									 49.82 4.13 49.82 C2.76 49.82 2.29 51.32 2.19 51.62 L2.17 51.62 L2.17 49.82 L0 50 L0 50.47 C1.1
									 50.47 1.23 50.59 1.23 51.38 L1.23 55.77 C1.23 56.5 1.05 56.5 0 56.5 L0 56.97 C0.45 56.94 1.35
									 56.94 1.83 56.94 C2.27 56.94 3.42 56.94 3.79 56.97 L3.79 56.5 L3.47 56.5 C2.29 56.5 2.25 56.32
									 2.25 55.74 L2.25 53.2 Z" class="st1"/>
					</g>
					<g id="shape90-54" v:mID="90" v:groupContext="shape" transform="translate(214.864,-3.16118)">
						<title>工作表.90</title>
						<path d="M4.41 49.84 L4.41 50.31 C5.51 50.31 5.64 50.42 5.64 51.22 L5.64 54.12 C5.64 55.5 4.91 56.65 3.7
									 56.65 C2.37 56.65 2.29 55.89 2.29 55.03 L2.29 49.66 L0 49.84 L0 50.31 C1.23 50.31 1.23 50.36
									 1.23 51.8 L1.23 54.23 C1.23 55.24 1.23 55.82 1.72 56.36 C2.11 56.78 2.77 56.97 3.6 56.97 C3.87
									 56.97 4.39 56.97 4.94 56.5 C5.41 56.13 5.67 55.51 5.67 55.51 L5.67 56.97 L7.93 56.81 L7.93 56.34
									 C6.82 56.34 6.7 56.23 6.7 55.43 L6.7 49.66 L4.41 49.84 Z" class="st1"/>
					</g>
					<g id="shape91-56" v:mID="91" v:groupContext="shape" transform="translate(223.648,-3.3233)">
						<title>工作表.91</title>
						<path d="M6.7 53.03 C6.7 51.53 6.7 51.07 6.32 50.55 C5.85 49.92 5.09 49.82 4.54 49.82 C2.97 49.82 2.35 51.17
									 2.22 51.49 L2.2 51.49 L2.2 49.82 L0 50 L0 50.47 C1.1 50.47 1.23 50.59 1.23 51.38 L1.23 55.77
									 C1.23 56.5 1.05 56.5 0 56.5 L0 56.97 C0.42 56.94 1.3 56.94 1.75 56.94 C2.22 56.94 3.1 56.94
									 3.52 56.97 L3.52 56.5 C2.48 56.5 2.29 56.5 2.29 55.77 L2.29 52.76 C2.29 51.06 3.4 50.15 4.41
									 50.15 C5.41 50.15 5.64 50.97 5.64 51.96 L5.64 55.77 C5.64 56.5 5.46 56.5 4.41 56.5 L4.41 56.97
									 C4.83 56.94 5.71 56.94 6.16 56.94 C6.63 56.94 7.51 56.94 7.93 56.97 L7.93 56.5 C7.12 56.5 6.71
									 56.5 6.7 56.02 L6.7 53.03 Z" class="st1"/>
					</g>
					<g id="shape92-58" v:mID="92" v:groupContext="shape" transform="translate(232.434,-3.3233)">
						<title>工作表.92</title>
						<path d="M6.7 53.03 C6.7 51.53 6.7 51.07 6.32 50.55 C5.85 49.92 5.09 49.82 4.54 49.82 C2.97 49.82 2.35 51.17
									 2.22 51.49 L2.2 51.49 L2.2 49.82 L0 50 L0 50.47 C1.1 50.47 1.23 50.59 1.23 51.38 L1.23 55.77
									 C1.23 56.5 1.05 56.5 0 56.5 L0 56.97 C0.42 56.94 1.3 56.94 1.75 56.94 C2.22 56.94 3.1 56.94
									 3.52 56.97 L3.52 56.5 C2.48 56.5 2.29 56.5 2.29 55.77 L2.29 52.76 C2.29 51.06 3.4 50.15 4.41
									 50.15 C5.41 50.15 5.64 50.97 5.64 51.96 L5.64 55.77 C5.64 56.5 5.46 56.5 4.41 56.5 L4.41 56.97
									 C4.83 56.94 5.71 56.94 6.16 56.94 C6.63 56.94 7.51 56.94 7.93 56.97 L7.93 56.5 C7.12 56.5 6.71
									 56.5 6.7 56.02 L6.7 53.03 Z" class="st1"/>
					</g>
					<g id="shape93-60" v:mID="93" v:groupContext="shape" transform="translate(241.236,-3.3233)">
						<title>工作表.93</title>
						<path d="M2.29 46.99 C2.29 46.57 1.95 46.19 1.49 46.19 C1.07 46.19 0.71 46.53 0.71 46.97 C0.71 47.46 1.1
									 47.77 1.49 47.77 C1.99 47.77 2.29 47.34 2.29 46.99 ZM0.05 50 L0.05 50.47 C1.09 50.47 1.23 50.57
									 1.23 51.36 L1.23 55.77 C1.23 56.5 1.05 56.5 0 56.5 L0 56.97 C0.45 56.94 1.23 56.94 1.7 56.94
									 C1.88 56.94 2.82 56.94 3.37 56.97 L3.37 56.5 C2.32 56.5 2.25 56.42 2.25 55.79 L2.25 49.82 L0.05
									 50 Z" class="st1"/>
					</g>
					<g id="shape94-62" v:mID="94" v:groupContext="shape" transform="translate(245.613,-3.3233)">
						<title>工作表.94</title>
						<path d="M6.7 53.03 C6.7 51.53 6.7 51.07 6.32 50.55 C5.85 49.92 5.09 49.82 4.54 49.82 C2.97 49.82 2.35 51.17
									 2.22 51.49 L2.2 51.49 L2.2 49.82 L0 50 L0 50.47 C1.1 50.47 1.23 50.59 1.23 51.38 L1.23 55.77
									 C1.23 56.5 1.05 56.5 0 56.5 L0 56.97 C0.42 56.94 1.3 56.94 1.75 56.94 C2.22 56.94 3.1 56.94
									 3.52 56.97 L3.52 56.5 C2.48 56.5 2.29 56.5 2.29 55.77 L2.29 52.76 C2.29 51.06 3.4 50.15 4.41
									 50.15 C5.41 50.15 5.64 50.97 5.64 51.96 L5.64 55.77 C5.64 56.5 5.46 56.5 4.41 56.5 L4.41 56.97
									 C4.83 56.94 5.71 56.94 6.16 56.94 C6.63 56.94 7.51 56.94 7.93 56.97 L7.93 56.5 C7.12 56.5 6.71
									 56.5 6.7 56.02 L6.7 53.03 Z" class="st1"/>
					</g>
					<g id="shape95-64" v:mID="95" v:groupContext="shape" transform="translate(254.317,0)">
						<title>工作表.95</title>
						<path d="M1.49 50.72 C2.25 51.22 2.9 51.22 3.08 51.22 C4.54 51.22 5.63 50.12 5.63 48.87 C5.63 48.43 5.5 47.81
									 4.98 47.29 C5.61 46.65 6.37 46.65 6.45 46.65 C6.52 46.65 6.6 46.65 6.66 46.68 C6.5 46.74 6.42
									 46.91 6.42 47.08 C6.42 47.31 6.58 47.51 6.84 47.51 C6.97 47.51 7.26 47.42 7.26 47.07 C7.26 46.78
									 7.04 46.32 6.47 46.32 C5.63 46.32 4.99 46.84 4.77 47.08 C4.28 46.71 3.71 46.5 3.1 46.5 C1.64
									 46.5 0.55 47.6 0.55 48.85 C0.55 49.78 1.12 50.38 1.28 50.52 C1.09 50.76 0.79 51.23 0.79 51.87
									 C0.79 52.81 1.36 53.21 1.49 53.29 C0.75 53.5 0 54.09 0 54.93 C0 56.05 1.52 56.97 3.52 56.97
									 C5.45 56.97 7.05 56.11 7.05 54.9 C7.05 54.49 6.94 53.54 5.97 53.03 C5.14 52.61 4.33 52.61 2.93
									 52.61 C1.95 52.61 1.83 52.61 1.54 52.3 C1.38 52.14 1.23 51.83 1.23 51.49 C1.23 51.22 1.33 50.94
									 1.49 50.72 ZM3.1 50.88 C1.67 50.88 1.67 49.24 1.67 48.87 C1.67 48.58 1.67 47.91 1.95 47.47 C2.25
									 47 2.74 46.84 3.08 46.84 C4.51 46.84 4.51 48.48 4.51 48.85 C4.51 49.14 4.51 49.81 4.23 50.25
									 C3.92 50.72 3.44 50.88 3.1 50.88 ZM3.53 56.63 C1.98 56.63 0.79 55.84 0.79 54.91 C0.79 54.78
									 0.83 54.15 1.44 53.73 C1.8 53.5 1.95 53.5 3.08 53.5 C4.43 53.5 6.26 53.5 6.26 54.91 C6.26 55.87
									 5.03 56.63 3.53 56.63 Z" class="st1"/>
					</g>
					<g id="shape96-66" v:mID="96" v:groupContext="shape" transform="translate(266.625,-3.87448)">
						<title>g0-3</title>
						<path d="M3.4 50.6 C3.42 50.38 3.42 49.99 3 49.99 C2.74 49.99 2.53 50.2 2.58 50.41 L2.58 50.62 L2.8 53.13
									 L0.73 51.62 C0.58 51.54 0.55 51.51 0.44 51.51 C0.21 51.51 0 51.74 0 51.96 C0 52.22 0.16 52.29
									 0.32 52.37 L2.63 53.47 L0.39 54.56 C0.13 54.69 0 54.75 0 55 C0 55.24 0.21 55.45 0.44 55.45 C0.55
									 55.45 0.58 55.45 0.99 55.14 L2.8 53.83 L2.56 56.55 C2.56 56.89 2.85 56.97 2.98 56.97 C3.18 56.97
									 3.42 56.86 3.42 56.55 L3.18 53.83 L5.25 55.34 C5.4 55.42 5.43 55.45 5.54 55.45 C5.77 55.45 5.98
									 55.22 5.98 55 C5.98 54.75 5.84 54.67 5.64 54.57 C4.67 54.09 4.64 54.09 3.36 53.49 L5.59 52.4
									 C5.85 52.27 5.98 52.21 5.98 51.96 C5.98 51.72 5.77 51.51 5.54 51.51 C5.43 51.51 5.4 51.51 4.99
									 51.82 L3.18 53.13 L3.4 50.6 Z" class="st1"/>
					</g>
					<g id="shape97-68" v:mID="97" v:groupContext="shape" transform="translate(277.709,-3.16118)">
						<title>工作表.97</title>
						<path d="M4.78 49.95 C4.78 49.66 4.78 49.58 4.62 49.58 C4.49 49.58 4.18 49.94 4.07 50.08 C3.57 49.68 3.06
									 49.58 2.55 49.58 C0.58 49.58 0 50.65 0 51.54 C0 51.72 0 52.29 0.62 52.86 C1.13 53.31 1.69 53.42
									 2.43 53.57 C3.32 53.75 3.53 53.8 3.94 54.12 C4.23 54.36 4.44 54.72 4.44 55.17 C4.44 55.87 4.04
									 56.65 2.61 56.65 C1.54 56.65 0.76 56.03 0.41 54.41 C0.34 54.12 0.34 54.1 0.32 54.09 C0.29 54.02
									 0.23 54.02 0.18 54.02 C0 54.02 0 54.1 0 54.4 L0 56.6 C0 56.89 0 56.97 0.16 56.97 C0.24 56.97
									 0.26 56.96 0.53 56.62 C0.62 56.5 0.62 56.47 0.86 56.21 C1.48 56.97 2.35 56.97 2.63 56.97 C4.33
									 56.97 5.17 56.03 5.17 54.75 C5.17 53.88 4.64 53.36 4.49 53.21 C3.91 52.71 3.47 52.61 2.4 52.42
									 C1.91 52.32 0.73 52.09 0.73 51.12 C0.73 50.62 1.07 49.87 2.53 49.87 C4.3 49.87 4.39 51.38 4.43
									 51.88 C4.44 52.01 4.56 52.01 4.6 52.01 C4.78 52.01 4.78 51.93 4.78 51.64 L4.78 49.95 Z"
								class="st1"/>
					</g>
					<g id="shape98-70" v:mID="98" v:groupContext="shape" transform="translate(283.703,-0.0162155)">
						<title>工作表.98</title>
						<path d="M6.27 48.25 C6.71 47.17 7.47 47.15 7.78 47.15 L7.78 46.68 C7.31 46.71 7.08 46.71 6.57 46.71 C6.19
									 46.71 6.16 46.71 5.25 46.68 L5.25 47.15 C5.85 47.18 6 47.55 6 47.85 C6 47.99 5.97 48.07 5.9
									 48.24 L4.25 52.32 L2.45 47.91 C2.35 47.68 2.35 47.59 2.35 47.57 C2.35 47.15 2.92 47.15 3.24
									 47.15 L3.24 46.68 C2.82 46.71 2.03 46.71 1.57 46.71 C0.96 46.71 0.92 46.71 0 46.68 L0 47.15
									 C0.94 47.15 1.07 47.23 1.28 47.73 L3.7 53.67 C2.98 55.38 2.98 55.42 2.92 55.55 C2.64 56.03 2.2
									 56.65 1.48 56.65 C0.97 56.65 0.66 56.36 0.66 56.36 C0.66 56.36 1.23 56.29 1.23 55.72 C1.23 55.34
									 0.92 55.13 0.63 55.13 C0.36 55.13 0.02 55.29 0.02 55.76 C0.02 56.37 0.62 56.97 1.48 56.97 C2.38
									 56.97 3.05 56.18 3.47 55.16 L6.27 48.25 Z" class="st1"/>
					</g>
					<g id="shape99-72" v:mID="99" v:groupContext="shape" transform="translate(292.293,-3.16118)">
						<title>工作表.99</title>
						<path d="M4.78 49.95 C4.78 49.66 4.78 49.58 4.62 49.58 C4.49 49.58 4.18 49.94 4.07 50.08 C3.57 49.68 3.06
									 49.58 2.55 49.58 C0.58 49.58 0 50.65 0 51.54 C0 51.72 0 52.29 0.62 52.86 C1.13 53.31 1.69 53.42
									 2.43 53.57 C3.32 53.75 3.53 53.8 3.94 54.12 C4.23 54.36 4.44 54.72 4.44 55.17 C4.44 55.87 4.04
									 56.65 2.61 56.65 C1.54 56.65 0.76 56.03 0.41 54.41 C0.34 54.12 0.34 54.1 0.32 54.09 C0.29 54.02
									 0.23 54.02 0.18 54.02 C0 54.02 0 54.1 0 54.4 L0 56.6 C0 56.89 0 56.97 0.16 56.97 C0.24 56.97
									 0.26 56.96 0.53 56.62 C0.62 56.5 0.62 56.47 0.86 56.21 C1.48 56.97 2.35 56.97 2.63 56.97 C4.33
									 56.97 5.17 56.03 5.17 54.75 C5.17 53.88 4.64 53.36 4.49 53.21 C3.91 52.71 3.47 52.61 2.4 52.42
									 C1.91 52.32 0.73 52.09 0.73 51.12 C0.73 50.62 1.07 49.87 2.53 49.87 C4.3 49.87 4.39 51.38 4.43
									 51.88 C4.44 52.01 4.56 52.01 4.6 52.01 C4.78 52.01 4.78 51.93 4.78 51.64 L4.78 49.95 Z"
								class="st1"/>
					</g>
					<g id="shape100-74" v:mID="100" v:groupContext="shape" transform="translate(298.563,-3.16118)">
						<title>工作表.100</title>
						<path d="M5.3 50.81 C5.11 50.81 4.51 50.81 4.51 51.48 C4.51 51.87 4.78 52.14 5.17 52.14 C5.54 52.14 5.85
									 51.92 5.85 51.45 C5.85 50.36 4.72 49.58 3.4 49.58 C1.51 49.58 0 51.27 0 53.31 C0 55.38 1.56
									 56.97 3.39 56.97 C5.53 56.97 6.01 55.03 6.01 54.88 C6.01 54.74 5.9 54.74 5.85 54.74 C5.71 54.74
									 5.69 54.78 5.64 54.98 C5.28 56.13 4.41 56.62 3.53 56.62 C2.55 56.62 1.23 55.76 1.23 53.29 C1.23
									 50.6 2.61 49.94 3.42 49.94 C4.04 49.94 4.93 50.18 5.3 50.81 Z" class="st1"/>
					</g>
					<g id="shape101-76" v:mID="101" v:groupContext="shape" transform="translate(305.316,-3.16118)">
						<title>工作表.101</title>
						<path d="M2.43 50.29 L4.72 50.29 L4.72 49.82 L2.43 49.82 L2.43 46.84 L2.08 46.84 C2.06 48.36 1.48 49.92 0
									 49.97 L0 50.29 L1.38 50.29 L1.38 54.8 C1.38 56.6 2.58 56.97 3.44 56.97 C4.46 56.97 4.99 55.97
									 4.99 54.8 L4.99 53.88 L4.64 53.88 L4.64 54.77 C4.64 55.94 4.17 56.62 3.53 56.62 C2.43 56.62
									 2.43 55.11 2.43 54.83 L2.43 50.29 Z" class="st1"/>
					</g>
					<g id="shape102-78" v:mID="102" v:groupContext="shape" transform="translate(311.708,-3.3233)">
						<title>工作表.102</title>
						<path d="M2.25 45.72 L0 45.9 L0 46.37 C1.1 46.37 1.23 46.48 1.23 47.28 L1.23 55.77 C1.23 56.5 1.05 56.5 0
									 56.5 L0 56.97 C0.45 56.94 1.25 56.94 1.73 56.94 C2.22 56.94 3.03 56.94 3.49 56.97 L3.49 56.5
									 C2.45 56.5 2.25 56.5 2.25 55.77 L2.25 45.72 Z" class="st1"/>
					</g>
					<g id="shape103-80" v:mID="103" v:groupContext="shape" transform="translate(316.518,-3.3233)">
						<title>工作表.103</title>
						<rect x="0" y="56.5228" width="4.76202" height="0.450305" class="st1"/>
					</g>
					<g id="shape104-82" v:mID="104" v:groupContext="shape" transform="translate(321.815,-3.16118)">
						<title>工作表.104</title>
						<path d="M4.78 49.95 C4.78 49.66 4.78 49.58 4.62 49.58 C4.49 49.58 4.18 49.94 4.07 50.08 C3.57 49.68 3.06
									 49.58 2.55 49.58 C0.58 49.58 0 50.65 0 51.54 C0 51.72 0 52.29 0.62 52.86 C1.13 53.31 1.69 53.42
									 2.43 53.57 C3.32 53.75 3.53 53.8 3.94 54.12 C4.23 54.36 4.44 54.72 4.44 55.17 C4.44 55.87 4.04
									 56.65 2.61 56.65 C1.54 56.65 0.76 56.03 0.41 54.41 C0.34 54.12 0.34 54.1 0.32 54.09 C0.29 54.02
									 0.23 54.02 0.18 54.02 C0 54.02 0 54.1 0 54.4 L0 56.6 C0 56.89 0 56.97 0.16 56.97 C0.24 56.97
									 0.26 56.96 0.53 56.62 C0.62 56.5 0.62 56.47 0.86 56.21 C1.48 56.97 2.35 56.97 2.63 56.97 C4.33
									 56.97 5.17 56.03 5.17 54.75 C5.17 53.88 4.64 53.36 4.49 53.21 C3.91 52.71 3.47 52.61 2.4 52.42
									 C1.91 52.32 0.73 52.09 0.73 51.12 C0.73 50.62 1.07 49.87 2.53 49.87 C4.3 49.87 4.39 51.38 4.43
									 51.88 C4.44 52.01 4.56 52.01 4.6 52.01 C4.78 52.01 4.78 51.93 4.78 51.64 L4.78 49.95 Z"
								class="st1"/>
					</g>
					<g id="shape105-84" v:mID="105" v:groupContext="shape" transform="translate(328.086,-3.16118)">
						<title>工作表.105</title>
						<path d="M5.3 50.81 C5.11 50.81 4.51 50.81 4.51 51.48 C4.51 51.87 4.78 52.14 5.17 52.14 C5.54 52.14 5.85
									 51.92 5.85 51.45 C5.85 50.36 4.72 49.58 3.4 49.58 C1.51 49.58 0 51.27 0 53.31 C0 55.38 1.56
									 56.97 3.39 56.97 C5.53 56.97 6.01 55.03 6.01 54.88 C6.01 54.74 5.9 54.74 5.85 54.74 C5.71 54.74
									 5.69 54.78 5.64 54.98 C5.28 56.13 4.41 56.62 3.53 56.62 C2.55 56.62 1.23 55.76 1.23 53.29 C1.23
									 50.6 2.61 49.94 3.42 49.94 C4.04 49.94 4.93 50.18 5.3 50.81 Z" class="st1"/>
					</g>
					<g id="shape106-86" v:mID="106" v:groupContext="shape" transform="translate(334.624,-3.3233)">
						<title>工作表.106</title>
						<path d="M6.7 53.03 C6.7 51.53 6.7 51.07 6.32 50.55 C5.85 49.92 5.09 49.82 4.54 49.82 C3.14 49.82 2.5 50.88
									 2.27 51.38 L2.25 51.38 L2.25 45.72 L0 45.9 L0 46.37 C1.1 46.37 1.23 46.48 1.23 47.28 L1.23 55.77
									 C1.23 56.5 1.05 56.5 0 56.5 L0 56.97 C0.42 56.94 1.3 56.94 1.75 56.94 C2.22 56.94 3.1 56.94
									 3.52 56.97 L3.52 56.5 C2.48 56.5 2.29 56.5 2.29 55.77 L2.29 52.76 C2.29 51.06 3.4 50.15 4.41
									 50.15 C5.41 50.15 5.64 50.97 5.64 51.96 L5.64 55.77 C5.64 56.5 5.46 56.5 4.41 56.5 L4.41 56.97
									 C4.83 56.94 5.71 56.94 6.16 56.94 C6.63 56.94 7.51 56.94 7.93 56.97 L7.93 56.5 C7.12 56.5 6.71
									 56.5 6.7 56.02 L6.7 53.03 Z" class="st1"/>
					</g>
					<g id="shape107-88" v:mID="107" v:groupContext="shape" transform="translate(343.378,-3.16118)">
						<title>工作表.107</title>
						<path d="M5.72 53.05 C6.08 53.05 6.11 53.05 6.11 52.74 C6.11 51.1 5.24 49.58 3.27 49.58 C1.43 49.58 0 51.25
									 0 53.26 C0 55.4 1.65 56.97 3.45 56.97 C5.38 56.97 6.11 55.22 6.11 54.88 C6.11 54.78 6.03 54.72
									 5.93 54.72 C5.8 54.72 5.77 54.8 5.74 54.88 C5.32 56.24 4.23 56.62 3.55 56.62 C2.87 56.62 1.23
									 56.16 1.23 53.36 L1.23 53.05 L5.72 53.05 ZM1.25 52.74 C1.38 50.2 2.8 49.91 3.26 49.91 C4.99
									 49.91 5.09 52.19 5.11 52.74 L1.25 52.74 Z" class="st1"/>
					</g>
					<g id="shape108-90" v:mID="108" v:groupContext="shape" transform="translate(350.487,-3.16118)">
						<title>工作表.108</title>
						<path d="M4.3 45.74 L4.3 46.21 C5.4 46.21 5.53 46.32 5.53 47.12 L5.53 50.7 C5.19 50.23 4.49 49.66 3.5 49.66
									 C1.62 49.66 0 51.25 0 53.33 C0 55.38 1.54 56.97 3.32 56.97 C4.56 56.97 5.27 56.16 5.5 55.85
									 L5.5 56.97 L7.78 56.81 L7.78 56.34 C6.68 56.34 6.55 56.23 6.55 55.43 L6.55 45.56 L4.3 45.74
									 ZM5.5 54.91 C5.5 55.21 5.5 55.25 5.27 55.61 C4.88 56.18 4.21 56.65 3.4 56.65 C2.98 56.65 1.23
									 56.49 1.23 53.34 C1.23 52.17 1.43 51.53 1.78 50.99 C2.11 50.49 2.76 49.99 3.57 49.99 C4.57 49.99
									 5.14 50.72 5.3 50.97 C5.5 51.25 5.5 51.28 5.5 51.57 L5.5 54.91 Z" class="st1"/>
					</g>
					<g id="shape109-92" v:mID="109" v:groupContext="shape" transform="translate(359.658,-3.3233)">
						<title>工作表.109</title>
						<rect x="0" y="56.5228" width="4.76202" height="0.450305" class="st1"/>
					</g>
					<g id="shape110-94" v:mID="110" v:groupContext="shape" transform="translate(364.939,-3.3233)">
						<title>g1-109</title>
						<path d="M11.1 53.03 C11.1 51.53 11.1 51.07 10.73 50.55 C10.26 49.92 9.5 49.82 8.95 49.82 C7.6 49.82 6.92
									 50.8 6.66 51.43 C6.44 50.18 5.56 49.82 4.54 49.82 C2.97 49.82 2.35 51.17 2.22 51.49 L2.2 51.49
									 L2.2 49.82 L0 50 L0 50.47 C1.1 50.47 1.23 50.59 1.23 51.38 L1.23 55.77 C1.23 56.5 1.05 56.5
									 0 56.5 L0 56.97 C0.42 56.94 1.3 56.94 1.75 56.94 C2.22 56.94 3.1 56.94 3.52 56.97 L3.52 56.5
									 C2.48 56.5 2.29 56.5 2.29 55.77 L2.29 52.76 C2.29 51.06 3.4 50.15 4.41 50.15 C5.41 50.15 5.64
									 50.97 5.64 51.96 L5.64 55.77 C5.64 56.5 5.46 56.5 4.41 56.5 L4.41 56.97 C4.83 56.94 5.71 56.94
									 6.16 56.94 C6.63 56.94 7.51 56.94 7.93 56.97 L7.93 56.5 C6.89 56.5 6.7 56.5 6.7 55.77 L6.7 52.76
									 C6.7 51.06 7.81 50.15 8.82 50.15 C9.82 50.15 10.05 50.97 10.05 51.96 L10.05 55.77 C10.05 56.5
									 9.87 56.5 8.82 56.5 L8.82 56.97 C9.24 56.94 10.12 56.94 10.57 56.94 C11.04 56.94 11.92 56.94
									 12.34 56.97 L12.34 56.5 C11.53 56.5 11.12 56.5 11.1 56.02 L11.1 53.03 Z" class="st1"/>
					</g>
					<g id="shape111-96" v:mID="111" v:groupContext="shape" transform="translate(378.133,-3.3233)">
						<title>工作表.111</title>
						<path d="M2.29 46.99 C2.29 46.57 1.95 46.19 1.49 46.19 C1.07 46.19 0.71 46.53 0.71 46.97 C0.71 47.46 1.1
									 47.77 1.49 47.77 C1.99 47.77 2.29 47.34 2.29 46.99 ZM0.05 50 L0.05 50.47 C1.09 50.47 1.23 50.57
									 1.23 51.36 L1.23 55.77 C1.23 56.5 1.05 56.5 0 56.5 L0 56.97 C0.45 56.94 1.23 56.94 1.7 56.94
									 C1.88 56.94 2.82 56.94 3.37 56.97 L3.37 56.5 C2.32 56.5 2.25 56.42 2.25 55.79 L2.25 49.82 L0.05
									 50 Z" class="st1"/>
					</g>
					<g id="shape112-98" v:mID="112" v:groupContext="shape" transform="translate(382.509,-3.3233)">
						<title>工作表.112</title>
						<path d="M6.7 53.03 C6.7 51.53 6.7 51.07 6.32 50.55 C5.85 49.92 5.09 49.82 4.54 49.82 C2.97 49.82 2.35 51.17
									 2.22 51.49 L2.2 51.49 L2.2 49.82 L0 50 L0 50.47 C1.1 50.47 1.23 50.59 1.23 51.38 L1.23 55.77
									 C1.23 56.5 1.05 56.5 0 56.5 L0 56.97 C0.42 56.94 1.3 56.94 1.75 56.94 C2.22 56.94 3.1 56.94
									 3.52 56.97 L3.52 56.5 C2.48 56.5 2.29 56.5 2.29 55.77 L2.29 52.76 C2.29 51.06 3.4 50.15 4.41
									 50.15 C5.41 50.15 5.64 50.97 5.64 51.96 L5.64 55.77 C5.64 56.5 5.46 56.5 4.41 56.5 L4.41 56.97
									 C4.83 56.94 5.71 56.94 6.16 56.94 C6.63 56.94 7.51 56.94 7.93 56.97 L7.93 56.5 C7.12 56.5 6.71
									 56.5 6.7 56.02 L6.7 53.03 Z" class="st1"/>
					</g>
					<g id="shape113-100" v:mID="113" v:groupContext="shape" transform="translate(391.729,-3.3233)">
						<title>工作表.113</title>
						<rect x="0" y="56.5228" width="4.76202" height="0.450305" class="st1"/>
					</g>
					<g id="shape114-102" v:mID="114" v:groupContext="shape" transform="translate(396.928,0)">
						<title>工作表.114</title>
						<path d="M1.49 50.72 C2.25 51.22 2.9 51.22 3.08 51.22 C4.54 51.22 5.63 50.12 5.63 48.87 C5.63 48.43 5.5 47.81
									 4.98 47.29 C5.61 46.65 6.37 46.65 6.45 46.65 C6.52 46.65 6.6 46.65 6.66 46.68 C6.5 46.74 6.42
									 46.91 6.42 47.08 C6.42 47.31 6.58 47.51 6.84 47.51 C6.97 47.51 7.26 47.42 7.26 47.07 C7.26 46.78
									 7.04 46.32 6.47 46.32 C5.63 46.32 4.99 46.84 4.77 47.08 C4.28 46.71 3.71 46.5 3.1 46.5 C1.64
									 46.5 0.55 47.6 0.55 48.85 C0.55 49.78 1.12 50.38 1.28 50.52 C1.09 50.76 0.79 51.23 0.79 51.87
									 C0.79 52.81 1.36 53.21 1.49 53.29 C0.75 53.5 0 54.09 0 54.93 C0 56.05 1.52 56.97 3.52 56.97
									 C5.45 56.97 7.05 56.11 7.05 54.9 C7.05 54.49 6.94 53.54 5.97 53.03 C5.14 52.61 4.33 52.61 2.93
									 52.61 C1.95 52.61 1.83 52.61 1.54 52.3 C1.38 52.14 1.23 51.83 1.23 51.49 C1.23 51.22 1.33 50.94
									 1.49 50.72 ZM3.1 50.88 C1.67 50.88 1.67 49.24 1.67 48.87 C1.67 48.58 1.67 47.91 1.95 47.47 C2.25
									 47 2.74 46.84 3.08 46.84 C4.51 46.84 4.51 48.48 4.51 48.85 C4.51 49.14 4.51 49.81 4.23 50.25
									 C3.92 50.72 3.44 50.88 3.1 50.88 ZM3.53 56.63 C1.98 56.63 0.79 55.84 0.79 54.91 C0.79 54.78
									 0.83 54.15 1.44 53.73 C1.8 53.5 1.95 53.5 3.08 53.5 C4.43 53.5 6.26 53.5 6.26 54.91 C6.26 55.87
									 5.03 56.63 3.53 56.63 Z" class="st1"/>
					</g>
					<g id="shape115-104" v:mID="115" v:groupContext="shape" transform="translate(404.852,-3.3233)">
						<title>工作表.115</title>
						<path d="M2.25 53.2 C2.25 51.62 2.9 50.15 4.15 50.15 C4.28 50.15 4.31 50.15 4.38 50.16 C4.25 50.23 3.99 50.33
									 3.99 50.76 C3.99 51.23 4.36 51.41 4.62 51.41 C4.94 51.41 5.27 51.2 5.27 50.76 C5.27 50.28 4.83
									 49.82 4.13 49.82 C2.76 49.82 2.29 51.32 2.19 51.62 L2.17 51.62 L2.17 49.82 L0 50 L0 50.47 C1.1
									 50.47 1.23 50.59 1.23 51.38 L1.23 55.77 C1.23 56.5 1.05 56.5 0 56.5 L0 56.97 C0.45 56.94 1.35
									 56.94 1.83 56.94 C2.27 56.94 3.42 56.94 3.79 56.97 L3.79 56.5 L3.47 56.5 C2.29 56.5 2.25 56.32
									 2.25 55.74 L2.25 53.2 Z" class="st1"/>
					</g>
					<g id="shape116-106" v:mID="116" v:groupContext="shape" transform="translate(411.261,-3.16118)">
						<title>工作表.116</title>
						<path d="M5.54 52.48 C5.54 51.61 5.54 50.96 4.83 50.33 C4.26 49.81 3.53 49.58 2.82 49.58 C1.49 49.58 0.47
									 50.46 0.47 51.51 C0.47 51.98 0.78 52.21 1.15 52.21 C1.54 52.21 1.82 51.93 1.82 51.54 C1.82 50.88
									 1.23 50.88 0.99 50.88 C1.36 50.2 2.14 49.91 2.79 49.91 C3.53 49.91 4.49 50.52 4.49 51.98 L4.49
									 52.63 C1.23 52.68 0 54.04 0 55.29 C0 56.57 1.49 56.97 2.48 56.97 C3.55 56.97 4.28 56.32 4.59
									 55.55 C4.65 56.31 5.16 56.89 5.85 56.89 C6.19 56.89 7.13 56.67 7.13 55.37 L7.13 54.46 L6.78
									 54.46 L6.78 55.37 C6.78 56.29 6.39 56.42 6.16 56.42 C5.54 56.42 5.54 55.56 5.54 55.32 L5.54
									 52.48 ZM4.49 54.53 C4.49 56.11 3.31 56.65 2.61 56.65 C1.82 56.65 1.15 56.07 1.15 55.29 C1.15
									 53.15 3.91 52.95 4.49 52.92 L4.49 54.53 Z" class="st1"/>
					</g>
					<g id="shape117-108" v:mID="117" v:groupContext="shape" transform="translate(418.973,-3.3233)">
						<title>工作表.117</title>
						<path d="M6.7 53.03 C6.7 51.53 6.7 51.07 6.32 50.55 C5.85 49.92 5.09 49.82 4.54 49.82 C2.97 49.82 2.35 51.17
									 2.22 51.49 L2.2 51.49 L2.2 49.82 L0 50 L0 50.47 C1.1 50.47 1.23 50.59 1.23 51.38 L1.23 55.77
									 C1.23 56.5 1.05 56.5 0 56.5 L0 56.97 C0.42 56.94 1.3 56.94 1.75 56.94 C2.22 56.94 3.1 56.94
									 3.52 56.97 L3.52 56.5 C2.48 56.5 2.29 56.5 2.29 55.77 L2.29 52.76 C2.29 51.06 3.4 50.15 4.41
									 50.15 C5.41 50.15 5.64 50.97 5.64 51.96 L5.64 55.77 C5.64 56.5 5.46 56.5 4.41 56.5 L4.41 56.97
									 C4.83 56.94 5.71 56.94 6.16 56.94 C6.63 56.94 7.51 56.94 7.93 56.97 L7.93 56.5 C7.12 56.5 6.71
									 56.5 6.7 56.02 L6.7 53.03 Z" class="st1"/>
					</g>
					<g id="shape118-110" v:mID="118" v:groupContext="shape" transform="translate(427.318,-3.16118)">
						<title>工作表.118</title>
						<path d="M4.41 49.84 L4.41 50.31 C5.51 50.31 5.64 50.42 5.64 51.22 L5.64 54.12 C5.64 55.5 4.91 56.65 3.7
									 56.65 C2.37 56.65 2.29 55.89 2.29 55.03 L2.29 49.66 L0 49.84 L0 50.31 C1.23 50.31 1.23 50.36
									 1.23 51.8 L1.23 54.23 C1.23 55.24 1.23 55.82 1.72 56.36 C2.11 56.78 2.77 56.97 3.6 56.97 C3.87
									 56.97 4.39 56.97 4.94 56.5 C5.41 56.13 5.67 55.51 5.67 55.51 L5.67 56.97 L7.93 56.81 L7.93 56.34
									 C6.82 56.34 6.7 56.23 6.7 55.43 L6.7 49.66 L4.41 49.84 Z" class="st1"/>
					</g>
					<g id="shape119-112" v:mID="119" v:groupContext="shape" transform="translate(436.12,-3.3233)">
						<title>工作表.119</title>
						<path d="M2.25 45.72 L0 45.9 L0 46.37 C1.1 46.37 1.23 46.48 1.23 47.28 L1.23 55.77 C1.23 56.5 1.05 56.5 0
									 56.5 L0 56.97 C0.45 56.94 1.25 56.94 1.73 56.94 C2.22 56.94 3.03 56.94 3.49 56.97 L3.49 56.5
									 C2.45 56.5 2.25 56.5 2.25 55.77 L2.25 45.72 Z" class="st1"/>
					</g>
					<g id="shape120-114" v:mID="120" v:groupContext="shape" transform="translate(440.691,-3.16118)">
						<title>工作表.120</title>
						<path d="M5.54 52.48 C5.54 51.61 5.54 50.96 4.83 50.33 C4.26 49.81 3.53 49.58 2.82 49.58 C1.49 49.58 0.47
									 50.46 0.47 51.51 C0.47 51.98 0.78 52.21 1.15 52.21 C1.54 52.21 1.82 51.93 1.82 51.54 C1.82 50.88
									 1.23 50.88 0.99 50.88 C1.36 50.2 2.14 49.91 2.79 49.91 C3.53 49.91 4.49 50.52 4.49 51.98 L4.49
									 52.63 C1.23 52.68 0 54.04 0 55.29 C0 56.57 1.49 56.97 2.48 56.97 C3.55 56.97 4.28 56.32 4.59
									 55.55 C4.65 56.31 5.16 56.89 5.85 56.89 C6.19 56.89 7.13 56.67 7.13 55.37 L7.13 54.46 L6.78
									 54.46 L6.78 55.37 C6.78 56.29 6.39 56.42 6.16 56.42 C5.54 56.42 5.54 55.56 5.54 55.32 L5.54
									 52.48 ZM4.49 54.53 C4.49 56.11 3.31 56.65 2.61 56.65 C1.82 56.65 1.15 56.07 1.15 55.29 C1.15
									 53.15 3.91 52.95 4.49 52.92 L4.49 54.53 Z" class="st1"/>
					</g>
					<g id="shape121-116" v:mID="121" v:groupContext="shape" transform="translate(448.338,-3.3233)">
						<title>工作表.121</title>
						<path d="M2.25 53.2 C2.25 51.62 2.9 50.15 4.15 50.15 C4.28 50.15 4.31 50.15 4.38 50.16 C4.25 50.23 3.99 50.33
									 3.99 50.76 C3.99 51.23 4.36 51.41 4.62 51.41 C4.94 51.41 5.27 51.2 5.27 50.76 C5.27 50.28 4.83
									 49.82 4.13 49.82 C2.76 49.82 2.29 51.32 2.19 51.62 L2.17 51.62 L2.17 49.82 L0 50 L0 50.47 C1.1
									 50.47 1.23 50.59 1.23 51.38 L1.23 55.77 C1.23 56.5 1.05 56.5 0 56.5 L0 56.97 C0.45 56.94 1.35
									 56.94 1.83 56.94 C2.27 56.94 3.42 56.94 3.79 56.97 L3.79 56.5 L3.47 56.5 C2.29 56.5 2.25 56.32
									 2.25 55.74 L2.25 53.2 Z" class="st1"/>
					</g>
					<g id="shape122-118" v:mID="122" v:groupContext="shape" transform="translate(454.57,-3.3233)">
						<title>工作表.122</title>
						<path d="M2.29 46.99 C2.29 46.57 1.95 46.19 1.49 46.19 C1.07 46.19 0.71 46.53 0.71 46.97 C0.71 47.46 1.1
									 47.77 1.49 47.77 C1.99 47.77 2.29 47.34 2.29 46.99 ZM0.05 50 L0.05 50.47 C1.09 50.47 1.23 50.57
									 1.23 51.36 L1.23 55.77 C1.23 56.5 1.05 56.5 0 56.5 L0 56.97 C0.45 56.94 1.23 56.94 1.7 56.94
									 C1.88 56.94 2.82 56.94 3.37 56.97 L3.37 56.5 C2.32 56.5 2.25 56.42 2.25 55.79 L2.25 49.82 L0.05
									 50 Z" class="st1"/>
					</g>
					<g id="shape123-120" v:mID="123" v:groupContext="shape" transform="translate(458.719,-3.16118)">
						<title>工作表.123</title>
						<path d="M2.43 50.29 L4.72 50.29 L4.72 49.82 L2.43 49.82 L2.43 46.84 L2.08 46.84 C2.06 48.36 1.48 49.92 0
									 49.97 L0 50.29 L1.38 50.29 L1.38 54.8 C1.38 56.6 2.58 56.97 3.44 56.97 C4.46 56.97 4.99 55.97
									 4.99 54.8 L4.99 53.88 L4.64 53.88 L4.64 54.77 C4.64 55.94 4.17 56.62 3.53 56.62 C2.43 56.62
									 2.43 55.11 2.43 54.83 L2.43 50.29 Z" class="st1"/>
					</g>
					<g id="shape124-122" v:mID="124" v:groupContext="shape" transform="translate(464.428,-0.0162155)">
						<title>工作表.124</title>
						<path d="M6.27 48.25 C6.71 47.17 7.47 47.15 7.78 47.15 L7.78 46.68 C7.31 46.71 7.08 46.71 6.57 46.71 C6.19
									 46.71 6.16 46.71 5.25 46.68 L5.25 47.15 C5.85 47.18 6 47.55 6 47.85 C6 47.99 5.97 48.07 5.9
									 48.24 L4.25 52.32 L2.45 47.91 C2.35 47.68 2.35 47.59 2.35 47.57 C2.35 47.15 2.92 47.15 3.24
									 47.15 L3.24 46.68 C2.82 46.71 2.03 46.71 1.57 46.71 C0.96 46.71 0.92 46.71 0 46.68 L0 47.15
									 C0.94 47.15 1.07 47.23 1.28 47.73 L3.7 53.67 C2.98 55.38 2.98 55.42 2.92 55.55 C2.64 56.03 2.2
									 56.65 1.48 56.65 C0.97 56.65 0.66 56.36 0.66 56.36 C0.66 56.36 1.23 56.29 1.23 55.72 C1.23 55.34
									 0.92 55.13 0.63 55.13 C0.36 55.13 0.02 55.29 0.02 55.76 C0.02 56.37 0.62 56.97 1.48 56.97 C2.38
									 56.97 3.05 56.18 3.47 55.16 L6.27 48.25 Z" class="st1"/>
					</g>
				</g>
			</g>
			<g id="shape125-124" v:mID="125" v:groupContext="shape" transform="translate(187.349,-38.6684)">
				<title>工作表.125</title>
				<path d="M0 56.97 L76.54 56.97" class="st2"/>
			</g>
			<g id="shape126-127" v:mID="126" v:groupContext="shape" transform="translate(278.057,-38.6684)">
				<title>工作表.126</title>
				<path d="M0 56.97 L195.59 56.97" class="st2"/>
			</g>
			<g id="shape127-130" v:mID="127" v:groupContext="shape" v:layerMember="0"
					transform="translate(167.226,18.3047) rotate(-90) scale(-1,1)">
				<title>直线连接线</title>
				<v:userDefs>
					<v:ud v:nameU="visVersion" v:val="VT0(15):26"/>
				</v:userDefs>
				<path d="M0 56.97 L17.93 56.97" class="st3"/>
			</g>
			<g id="shape128-136" v:mID="128" v:groupContext="shape" v:layerMember="0"
					transform="translate(323.131,18.3047) rotate(-90) scale(-1,1)">
				<title>直线连接线.128</title>
				<v:userDefs>
					<v:ud v:nameU="visVersion" v:val="VT0(15):26"/>
				</v:userDefs>
				<path d="M0 56.97 L17.93 56.97" class="st3"/>
			</g>
			<g id="shape130-141" v:mID="130" v:groupContext="shape" transform="translate(171.049,0)">
				<title>工作表.130</title>
				<desc>CFS运行队列中进程数量</desc>
				<v:textBlock v:margins="rect(4,4,4,4)" v:tabSpace="42.5197"/>
				<v:textRect cx="53.1496" cy="49.6862" width="106.3" height="14.5739"/>
				<rect x="0" y="42.3992" width="106.299" height="14.5739" class="st5"/>
				<text x="4.64" y="52.65" class="st6" v:langID="2052"><v:paragraph v:horizAlign="1"/><v:tabList/>CFS<tspan
							class="st7">运行队列中进程数量</tspan></text>			</g>
			<g id="shape131-145" v:mID="131" v:groupContext="shape" transform="translate(326.955,0)">
				<title>工作表.131</title>
				<desc>进程的最小时间片</desc>
				<v:textBlock v:margins="rect(4,4,4,4)" v:tabSpace="42.5197"/>
				<v:textRect cx="53.1496" cy="49.6862" width="106.3" height="14.5739"/>
				<rect x="0" y="42.3992" width="106.299" height="14.5739" class="st5"/>
				<text x="17.15" y="52.65" class="st8" v:langID="2052"><v:paragraph v:horizAlign="1"/><v:tabList/>进程的最小时间片</text>			</g>
		</g>
	</g>
</svg>
