<?xml version="1.0" encoding="UTF-8" standalone="no"?>
<!DOCTYPE svg PUBLIC "-//W3C//DTD SVG 1.1//EN" "http://www.w3.org/Graphics/SVG/1.1/DTD/svg11.dtd">
<!-- 由 Microsoft Visio, SVG Export 生成 task_and_task_group_entity.svg 页-1 -->
<svg xmlns="http://www.w3.org/2000/svg" xmlns:xlink="http://www.w3.org/1999/xlink" xmlns:ev="http://www.w3.org/2001/xml-events"
		xmlns:v="http://schemas.microsoft.com/visio/2003/SVGExtensions/" width="7.18774in" height="3.04651in"
		viewBox="0 0 517.518 219.348" xml:space="preserve" color-interpolation-filters="sRGB" class="st13">
	<v:documentProperties v:langID="2052" v:metric="true" v:viewMarkup="false"/>

	<style type="text/css">
	<![CDATA[
		.st1 {visibility:visible}
		.st2 {fill:#5b9bd5;fill-opacity:0.22;filter:url(#filter_2);stroke:#5b9bd5;stroke-opacity:0.22}
		.st3 {fill:#cbffff;stroke:#ffffff;stroke-width:0.25}
		.st4 {fill:#000000;font-family:Times New Roman;font-size:0.75em}
		.st5 {fill:#f7cbac;stroke:#000000;stroke-width:0.25}
		.st6 {fill:#000000;font-family:宋体;font-size:0.833336em}
		.st7 {font-family:Times New Roman;font-size:1em}
		.st8 {fill:#e2efd9;stroke:#000000;stroke-width:0.5}
		.st9 {font-size:1em}
		.st10 {marker-end:url(#mrkr5-124);stroke:#000000;stroke-linecap:round;stroke-linejoin:round;stroke-width:0.75}
		.st11 {fill:#000000;fill-opacity:1;stroke:#000000;stroke-opacity:1;stroke-width:0.22935779816514}
		.st12 {marker-end:url(#mrkr5-155);stroke:#000000;stroke-linecap:round;stroke-linejoin:round;stroke-width:0.75}
		.st13 {fill:none;fill-rule:evenodd;font-size:12px;overflow:visible;stroke-linecap:square;stroke-miterlimit:3}
	]]>
	</style>

	<defs id="Markers">
		<g id="lend5">
			<path d="M 2 1 L 0 0 L 1.98117 -0.993387 C 1.67173 -0.364514 1.67301 0.372642 1.98465 1.00043 " style="stroke:none"/>
		</g>
		<marker id="mrkr5-124" class="st11" v:arrowType="5" v:arrowSize="2" v:setback="7.63" refX="-7.63" orient="auto"
				markerUnits="strokeWidth" overflow="visible">
			<use xlink:href="#lend5" transform="scale(-4.36,-4.36) "/>
		</marker>
		<marker id="mrkr5-155" class="st11" v:arrowType="5" v:arrowSize="2" v:setback="7.15" refX="-7.15" orient="auto"
				markerUnits="strokeWidth" overflow="visible">
			<use xlink:href="#lend5" transform="scale(-4.36,-4.36) "/>
		</marker>
	</defs>
	<defs id="Filters">
		<filter id="filter_2">
			<feGaussianBlur stdDeviation="2"/>
		</filter>
	</defs>
	<g v:mID="0" v:index="1" v:groupContext="foregroundPage">
		<title>页-1</title>
		<v:pageProperties v:drawingScale="0.0393701" v:pageScale="0.0393701" v:drawingUnits="24" v:shadowOffsetX="8.50394"
				v:shadowOffsetY="-8.50394"/>
		<v:layer v:name="连接线" v:index="0"/>
		<g id="group31-1" transform="translate(3.02939,-5.34779)" v:mID="31" v:groupContext="group">
			<title>工作表.31</title>
			<g id="shape4-2" v:mID="4" v:groupContext="shape" transform="translate(35.4331,-113.386)">
				<title>矩形.4</title>
				<desc>Task Group of User A</desc>
				<v:userDefs>
					<v:ud v:nameU="visVersion" v:val="VT0(15):26"/>
				</v:userDefs>
				<v:textBlock v:margins="rect(4,4,4,4)" v:tabSpace="42.5197" v:verticalAlign="0"/>
				<v:textRect cx="141.732" cy="191.002" width="283.47" height="56.6929"/>
				<g id="shadow4-3" v:groupContext="shadow" v:shadowOffsetX="0.345598" v:shadowOffsetY="-1.97279" v:shadowType="1"
						transform="matrix(1,0,0,1,0.345598,1.97279)" class="st1">
					<rect x="0" y="162.655" width="283.465" height="56.6929" rx="4.25197" ry="4.25197" class="st2"/>
				</g>
				<rect x="0" y="162.655" width="283.465" height="56.6929" rx="4.25197" ry="4.25197" class="st3"/>
				<text x="198.98" y="174.76" class="st4" v:langID="2052"><v:paragraph v:horizAlign="2"/><v:tabList/>Task Group of User A</text>			</g>
			<g id="shape1-8" v:mID="1" v:groupContext="shape" transform="translate(42.5197,-120.472)">
				<title>矩形</title>
				<desc>调度实体 scheduling entity</desc>
				<v:userDefs>
					<v:ud v:nameU="visVersion" v:val="VT0(15):26"/>
				</v:userDefs>
				<v:textBlock v:margins="rect(4,4,4,4)" v:tabSpace="42.5197"/>
				<v:textRect cx="42.5197" cy="205.175" width="85.04" height="28.3465"/>
				<g id="shadow1-9" v:groupContext="shadow" v:shadowOffsetX="0.345598" v:shadowOffsetY="-1.97279" v:shadowType="1"
						transform="matrix(1,0,0,1,0.345598,1.97279)" class="st1">
					<rect x="0" y="191.002" width="85.0394" height="28.3465" rx="2.83465" ry="2.83465" class="st2"/>
				</g>
				<rect x="0" y="191.002" width="85.0394" height="28.3465" rx="2.83465" ry="2.83465" class="st5"/>
				<text x="22.52" y="202.47" class="st6" v:langID="2052"><v:paragraph v:horizAlign="1"/><v:tabList/>调度实体<v:newlineChar/><tspan
							x="8.22" dy="1.229em" class="st7">s</tspan><tspan class="st7" v:langID="1033">cheduling entity</tspan></text>			</g>
			<g id="shape2-16" v:mID="2" v:groupContext="shape" transform="translate(134.646,-120.472)">
				<title>矩形.2</title>
				<desc>调度实体 scheduling entity</desc>
				<v:userDefs>
					<v:ud v:nameU="visVersion" v:val="VT0(15):26"/>
				</v:userDefs>
				<v:textBlock v:margins="rect(4,4,4,4)" v:tabSpace="42.5197"/>
				<v:textRect cx="42.5197" cy="205.175" width="85.04" height="28.3465"/>
				<g id="shadow2-17" v:groupContext="shadow" v:shadowOffsetX="0.345598" v:shadowOffsetY="-1.97279" v:shadowType="1"
						transform="matrix(1,0,0,1,0.345598,1.97279)" class="st1">
					<rect x="0" y="191.002" width="85.0394" height="28.3465" rx="2.83465" ry="2.83465" class="st2"/>
				</g>
				<rect x="0" y="191.002" width="85.0394" height="28.3465" rx="2.83465" ry="2.83465" class="st5"/>
				<text x="22.52" y="202.47" class="st6" v:langID="2052"><v:paragraph v:horizAlign="1"/><v:tabList/>调度实体<v:newlineChar/><tspan
							x="8.22" dy="1.229em" class="st7">scheduling entity</tspan></text>			</g>
			<g id="shape3-23" v:mID="3" v:groupContext="shape" transform="translate(226.772,-120.472)">
				<title>矩形.3</title>
				<desc>调度实体 scheduling entity</desc>
				<v:userDefs>
					<v:ud v:nameU="visVersion" v:val="VT0(15):26"/>
				</v:userDefs>
				<v:textBlock v:margins="rect(4,4,4,4)" v:tabSpace="42.5197"/>
				<v:textRect cx="42.5197" cy="205.175" width="85.04" height="28.3465"/>
				<g id="shadow3-24" v:groupContext="shadow" v:shadowOffsetX="0.345598" v:shadowOffsetY="-1.97279" v:shadowType="1"
						transform="matrix(1,0,0,1,0.345598,1.97279)" class="st1">
					<rect x="0" y="191.002" width="85.0394" height="28.3465" rx="2.83465" ry="2.83465" class="st2"/>
				</g>
				<rect x="0" y="191.002" width="85.0394" height="28.3465" rx="2.83465" ry="2.83465" class="st5"/>
				<text x="22.52" y="202.47" class="st6" v:langID="2052"><v:paragraph v:horizAlign="1"/><v:tabList/>调度实体<v:newlineChar/><tspan
							x="8.22" dy="1.229em" class="st7">scheduling entity</tspan></text>			</g>
			<g id="shape8-30" v:mID="8" v:groupContext="shape" transform="translate(24.8031,-2.84217E-014)">
				<title>矩形.8</title>
				<desc>进程 1</desc>
				<v:userDefs>
					<v:ud v:nameU="visVersion" v:val="VT0(15):26"/>
				</v:userDefs>
				<v:textBlock v:margins="rect(4,4,4,4)" v:tabSpace="42.5197"/>
				<v:textRect cx="24.8031" cy="208.718" width="49.61" height="21.2598"/>
				<g id="shadow8-31" v:groupContext="shadow" v:shadowOffsetX="0.345598" v:shadowOffsetY="-1.97279" v:shadowType="1"
						transform="matrix(1,0,0,1,0.345598,1.97279)" class="st1">
					<rect x="0" y="198.089" width="49.6063" height="21.2598" rx="2.83465" ry="2.83465" class="st2"/>
				</g>
				<rect x="0" y="198.089" width="49.6063" height="21.2598" rx="2.83465" ry="2.83465" class="st8"/>
				<text x="11.05" y="212.01" class="st6" v:langID="2052"><v:paragraph v:horizAlign="1"/><v:tabList/>进程<tspan
							class="st7"> </tspan><tspan class="st7">1</tspan></text>			</g>
			<g id="shape9-38" v:mID="9" v:groupContext="shape" transform="translate(116.929,-2.84217E-014)">
				<title>矩形.9</title>
				<desc>进程 2</desc>
				<v:userDefs>
					<v:ud v:nameU="visVersion" v:val="VT0(15):26"/>
				</v:userDefs>
				<v:textBlock v:margins="rect(4,4,4,4)" v:tabSpace="42.5197"/>
				<v:textRect cx="24.8031" cy="208.718" width="49.61" height="21.2598"/>
				<g id="shadow9-39" v:groupContext="shadow" v:shadowOffsetX="0.345598" v:shadowOffsetY="-1.97279" v:shadowType="1"
						transform="matrix(1,0,0,1,0.345598,1.97279)" class="st1">
					<rect x="0" y="198.089" width="49.6063" height="21.2598" rx="2.83465" ry="2.83465" class="st2"/>
				</g>
				<rect x="0" y="198.089" width="49.6063" height="21.2598" rx="2.83465" ry="2.83465" class="st8"/>
				<text x="11.05" y="212.01" class="st6" v:langID="2052"><v:paragraph v:horizAlign="1"/><v:tabList/>进程<tspan
							class="st7"> </tspan><tspan class="st7">2</tspan></text>			</g>
			<g id="shape10-46" v:mID="10" v:groupContext="shape" transform="translate(198.425,-70.8661)">
				<title>矩形.10</title>
				<desc>进程 3</desc>
				<v:userDefs>
					<v:ud v:nameU="visVersion" v:val="VT0(15):26"/>
				</v:userDefs>
				<v:textBlock v:margins="rect(4,4,4,4)" v:tabSpace="42.5197"/>
				<v:textRect cx="24.8031" cy="208.718" width="49.61" height="21.2598"/>
				<g id="shadow10-47" v:groupContext="shadow" v:shadowOffsetX="0.345598" v:shadowOffsetY="-1.97279" v:shadowType="1"
						transform="matrix(1,0,0,1,0.345598,1.97279)" class="st1">
					<rect x="0" y="198.089" width="49.6063" height="21.2598" rx="2.83465" ry="2.83465" class="st2"/>
				</g>
				<rect x="0" y="198.089" width="49.6063" height="21.2598" rx="2.83465" ry="2.83465" class="st8"/>
				<text x="11.05" y="212.01" class="st6" v:langID="2052"><v:paragraph v:horizAlign="1"/><v:tabList/>进程<tspan
							class="st7"> </tspan><tspan class="st7">3</tspan></text>			</g>
			<g id="shape11-54" v:mID="11" v:groupContext="shape" transform="translate(262.205,-70.8661)">
				<title>矩形.11</title>
				<desc>进程 4</desc>
				<v:userDefs>
					<v:ud v:nameU="visVersion" v:val="VT0(15):26"/>
				</v:userDefs>
				<v:textBlock v:margins="rect(4,4,4,4)" v:tabSpace="42.5197"/>
				<v:textRect cx="24.8031" cy="208.718" width="49.61" height="21.2598"/>
				<g id="shadow11-55" v:groupContext="shadow" v:shadowOffsetX="0.345598" v:shadowOffsetY="-1.97279" v:shadowType="1"
						transform="matrix(1,0,0,1,0.345598,1.97279)" class="st1">
					<rect x="0" y="198.089" width="49.6063" height="21.2598" rx="2.83465" ry="2.83465" class="st2"/>
				</g>
				<rect x="0" y="198.089" width="49.6063" height="21.2598" rx="2.83465" ry="2.83465" class="st8"/>
				<text x="11.05" y="212.01" class="st6" v:langID="2052"><v:paragraph v:horizAlign="1"/><v:tabList/>进程<tspan
							class="st7"> </tspan><tspan class="st7">4</tspan></text>			</g>
			<g id="shape7-62" v:mID="7" v:groupContext="shape" transform="translate(7.99361E-014,-35.4331)">
				<title>矩形.7</title>
				<desc>Task Group of User A1</desc>
				<v:userDefs>
					<v:ud v:nameU="visVersion" v:val="VT0(15):26"/>
				</v:userDefs>
				<v:textBlock v:margins="rect(4,4,4,4)" v:tabSpace="42.5197" v:verticalAlign="0"/>
				<v:textRect cx="95.6693" cy="191.002" width="191.34" height="56.6929"/>
				<g id="shadow7-63" v:groupContext="shadow" v:shadowOffsetX="0.345598" v:shadowOffsetY="-1.97279" v:shadowType="1"
						transform="matrix(1,0,0,1,0.345598,1.97279)" class="st1">
					<rect x="0" y="162.655" width="191.339" height="56.6929" rx="4.25197" ry="4.25197" class="st2"/>
				</g>
				<rect x="0" y="162.655" width="191.339" height="56.6929" rx="4.25197" ry="4.25197" class="st3"/>
				<text x="102.36" y="174.76" class="st4" v:langID="2052"><v:paragraph v:horizAlign="2"/><v:tabList/>Task Group of User A1</text>			</g>
			<g id="shape5-68" v:mID="5" v:groupContext="shape" transform="translate(7.08661,-42.5197)">
				<title>矩形.5</title>
				<desc>调度实体 scheduling entity</desc>
				<v:userDefs>
					<v:ud v:nameU="visVersion" v:val="VT0(15):26"/>
				</v:userDefs>
				<v:textBlock v:margins="rect(4,4,4,4)" v:tabSpace="42.5197"/>
				<v:textRect cx="42.5197" cy="205.175" width="85.04" height="28.3465"/>
				<g id="shadow5-69" v:groupContext="shadow" v:shadowOffsetX="0.345598" v:shadowOffsetY="-1.97279" v:shadowType="1"
						transform="matrix(1,0,0,1,0.345598,1.97279)" class="st1">
					<rect x="0" y="191.002" width="85.0394" height="28.3465" rx="2.83465" ry="2.83465" class="st2"/>
				</g>
				<rect x="0" y="191.002" width="85.0394" height="28.3465" rx="2.83465" ry="2.83465" class="st5"/>
				<text x="22.52" y="202.47" class="st6" v:langID="2052"><v:paragraph v:horizAlign="1"/><v:tabList/>调度实体<v:newlineChar/><tspan
							x="8.22" dy="1.229em" class="st7">scheduling entity</tspan></text>			</g>
			<g id="shape6-75" v:mID="6" v:groupContext="shape" transform="translate(99.2126,-42.5197)">
				<title>矩形.6</title>
				<desc>调度实体 scheduling entity</desc>
				<v:userDefs>
					<v:ud v:nameU="visVersion" v:val="VT0(15):26"/>
				</v:userDefs>
				<v:textBlock v:margins="rect(4,4,4,4)" v:tabSpace="42.5197"/>
				<v:textRect cx="42.5197" cy="205.175" width="85.04" height="28.3465"/>
				<g id="shadow6-76" v:groupContext="shadow" v:shadowOffsetX="0.345598" v:shadowOffsetY="-1.97279" v:shadowType="1"
						transform="matrix(1,0,0,1,0.345598,1.97279)" class="st1">
					<rect x="0" y="191.002" width="85.0394" height="28.3465" rx="2.83465" ry="2.83465" class="st2"/>
				</g>
				<rect x="0" y="191.002" width="85.0394" height="28.3465" rx="2.83465" ry="2.83465" class="st5"/>
				<text x="22.52" y="202.47" class="st6" v:langID="2052"><v:paragraph v:horizAlign="1"/><v:tabList/>调度实体<v:newlineChar/><tspan
							x="8.22" dy="1.229em" class="st7">scheduling entity</tspan></text>			</g>
			<g id="shape13-82" v:mID="13" v:groupContext="shape" transform="translate(340.157,-113.386)">
				<title>矩形.13</title>
				<desc>Task Group of User B</desc>
				<v:userDefs>
					<v:ud v:nameU="visVersion" v:val="VT0(15):26"/>
				</v:userDefs>
				<v:textBlock v:margins="rect(4,4,4,4)" v:tabSpace="42.5197" v:verticalAlign="0"/>
				<v:textRect cx="67.3228" cy="191.002" width="134.65" height="56.6929"/>
				<g id="shadow13-83" v:groupContext="shadow" v:shadowOffsetX="0.345598" v:shadowOffsetY="-1.97279" v:shadowType="1"
						transform="matrix(1,0,0,1,0.345598,1.97279)" class="st1">
					<rect x="0" y="162.655" width="134.646" height="56.6929" rx="4.25197" ry="4.25197" class="st2"/>
				</g>
				<rect x="0" y="162.655" width="134.646" height="56.6929" rx="4.25197" ry="4.25197" class="st3"/>
				<text x="50.66" y="174.76" class="st4" v:langID="2052"><v:paragraph v:horizAlign="2"/><v:tabList/>T<tspan
							class="st9" v:langID="1033">ask </tspan>G<tspan class="st9" v:langID="1033">roup</tspan> of User B</text>			</g>
			<g id="shape14-90" v:mID="14" v:groupContext="shape" transform="translate(347.244,-120.472)">
				<title>矩形.14</title>
				<desc>调度实体 scheduling entity</desc>
				<v:userDefs>
					<v:ud v:nameU="visVersion" v:val="VT0(15):26"/>
				</v:userDefs>
				<v:textBlock v:margins="rect(4,4,4,4)" v:tabSpace="42.5197"/>
				<v:textRect cx="42.5197" cy="205.175" width="85.04" height="28.3465"/>
				<g id="shadow14-91" v:groupContext="shadow" v:shadowOffsetX="0.345598" v:shadowOffsetY="-1.97279" v:shadowType="1"
						transform="matrix(1,0,0,1,0.345598,1.97279)" class="st1">
					<rect x="0" y="191.002" width="85.0394" height="28.3465" rx="2.83465" ry="2.83465" class="st2"/>
				</g>
				<rect x="0" y="191.002" width="85.0394" height="28.3465" rx="2.83465" ry="2.83465" class="st5"/>
				<text x="22.52" y="202.47" class="st6" v:langID="2052"><v:paragraph v:horizAlign="1"/><v:tabList/>调度实体<v:newlineChar/><tspan
							x="8.22" dy="1.229em" class="st7">scheduling entity</tspan></text>			</g>
			<g id="shape17-97" v:mID="17" v:groupContext="shape" transform="translate(382.677,-70.8661)">
				<title>矩形.17</title>
				<desc>进程 5</desc>
				<v:userDefs>
					<v:ud v:nameU="visVersion" v:val="VT0(15):26"/>
				</v:userDefs>
				<v:textBlock v:margins="rect(4,4,4,4)" v:tabSpace="42.5197"/>
				<v:textRect cx="24.8031" cy="208.718" width="49.61" height="21.2598"/>
				<g id="shadow17-98" v:groupContext="shadow" v:shadowOffsetX="0.345598" v:shadowOffsetY="-1.97279" v:shadowType="1"
						transform="matrix(1,0,0,1,0.345598,1.97279)" class="st1">
					<rect x="0" y="198.089" width="49.6063" height="21.2598" rx="2.83465" ry="2.83465" class="st2"/>
				</g>
				<rect x="0" y="198.089" width="49.6063" height="21.2598" rx="2.83465" ry="2.83465" class="st8"/>
				<text x="11.05" y="212.01" class="st6" v:langID="2052"><v:paragraph v:horizAlign="1"/><v:tabList/>进程<tspan
							class="st7"> </tspan><tspan class="st7">5</tspan></text>			</g>
			<g id="shape18-105" v:mID="18" v:groupContext="shape" transform="translate(226.772,-184.252)">
				<title>矩形.18</title>
				<desc>调度实体 scheduling entity</desc>
				<v:userDefs>
					<v:ud v:nameU="visVersion" v:val="VT0(15):26"/>
				</v:userDefs>
				<v:textBlock v:margins="rect(4,4,4,4)" v:tabSpace="42.5197"/>
				<v:textRect cx="42.5197" cy="205.175" width="85.04" height="28.3465"/>
				<g id="shadow18-106" v:groupContext="shadow" v:shadowOffsetX="0.345598" v:shadowOffsetY="-1.97279" v:shadowType="1"
						transform="matrix(1,0,0,1,0.345598,1.97279)" class="st1">
					<rect x="0" y="191.002" width="85.0394" height="28.3465" rx="2.83465" ry="2.83465" class="st2"/>
				</g>
				<rect x="0" y="191.002" width="85.0394" height="28.3465" rx="2.83465" ry="2.83465" class="st5"/>
				<text x="22.52" y="202.47" class="st6" v:langID="2052"><v:paragraph v:horizAlign="1"/><v:tabList/>调度实体<v:newlineChar/><tspan
							x="8.22" dy="1.229em" class="st7">scheduling entity</tspan></text>			</g>
			<g id="shape19-112" v:mID="19" v:groupContext="shape" transform="translate(389.764,-184.252)">
				<title>矩形.19</title>
				<desc>调度实体 scheduling entity</desc>
				<v:userDefs>
					<v:ud v:nameU="visVersion" v:val="VT0(15):26"/>
				</v:userDefs>
				<v:textBlock v:margins="rect(4,4,4,4)" v:tabSpace="42.5197"/>
				<v:textRect cx="42.5197" cy="205.175" width="85.04" height="28.3465"/>
				<g id="shadow19-113" v:groupContext="shadow" v:shadowOffsetX="0.345598" v:shadowOffsetY="-1.97279" v:shadowType="1"
						transform="matrix(1,0,0,1,0.345598,1.97279)" class="st1">
					<rect x="0" y="191.002" width="85.0394" height="28.3465" rx="2.83465" ry="2.83465" class="st2"/>
				</g>
				<rect x="0" y="191.002" width="85.0394" height="28.3465" rx="2.83465" ry="2.83465" class="st5"/>
				<text x="22.52" y="202.47" class="st6" v:langID="2052"><v:paragraph v:horizAlign="1"/><v:tabList/>调度实体<v:newlineChar/><tspan
							x="8.22" dy="1.229em" class="st7">scheduling entity</tspan></text>			</g>
			<g id="shape20-119" v:mID="20" v:groupContext="shape" v:layerMember="0" transform="translate(85.0394,-92.126)">
				<title>底部到顶部固定 2</title>
				<v:userDefs>
					<v:ud v:nameU="TextPos" v:val="VT0(1):26"/>
					<v:ud v:nameU="Offset" v:val="VT0(0.19685039370079):24"/>
					<v:ud v:nameU="Scale" v:val="VT0(1):26"/>
					<v:ud v:nameU="AntiScale" v:val="VT0(1):26"/>
					<v:ud v:nameU="visVersion" v:val="VT0(15):26"/>
				</v:userDefs>
				<path d="M0 191 L0 202.91 A2.26772 2.26772 -180 0 0 2.27 205.18 L8.36 205.18 A2.26772 2.26772 0 0 1 10.63 207.44
							 L10.63 213.63" class="st10"/>
			</g>
			<g id="shape21-125" v:mID="21" v:groupContext="shape" v:layerMember="0" transform="translate(177.165,-92.126)">
				<title>底部到顶部固定 2.21</title>
				<v:userDefs>
					<v:ud v:nameU="TextPos" v:val="VT0(1):26"/>
					<v:ud v:nameU="Offset" v:val="VT0(0.19685039370079):24"/>
					<v:ud v:nameU="Scale" v:val="VT0(1):26"/>
					<v:ud v:nameU="AntiScale" v:val="VT0(1):26"/>
					<v:ud v:nameU="visVersion" v:val="VT0(15):26"/>
				</v:userDefs>
				<path d="M0 191 L0 202.91 A2.26772 2.26772 -180 0 0 2.27 205.18 L43.8 205.18 A2.26772 2.26772 0 0 1 46.06 207.44
							 L46.06 213.63" class="st10"/>
			</g>
			<g id="shape22-130" v:mID="22" v:groupContext="shape" v:layerMember="0" transform="translate(269.291,-92.126)">
				<title>底部到顶部固定 2.22</title>
				<v:userDefs>
					<v:ud v:nameU="TextPos" v:val="VT0(1):26"/>
					<v:ud v:nameU="Offset" v:val="VT0(0.19685039370079):24"/>
					<v:ud v:nameU="Scale" v:val="VT0(1):26"/>
					<v:ud v:nameU="AntiScale" v:val="VT0(1):26"/>
					<v:ud v:nameU="visVersion" v:val="VT0(15):26"/>
				</v:userDefs>
				<path d="M0 191 L0 202.91 A2.26772 2.26772 -180 0 0 2.27 205.18 L15.45 205.18 A2.26772 2.26772 0 0 1 17.72 207.44
							 L17.72 213.63" class="st10"/>
			</g>
			<g id="shape23-135" v:mID="23" v:groupContext="shape" v:layerMember="0"
					transform="translate(-169.742,176.829) rotate(-90) scale(-1,1)">
				<title>直线连接线</title>
				<v:userDefs>
					<v:ud v:nameU="visVersion" v:val="VT0(15):26"/>
				</v:userDefs>
				<path d="M0 219.35 L15.54 219.35" class="st10"/>
			</g>
			<g id="shape25-140" v:mID="25" v:groupContext="shape" v:layerMember="0"
					transform="translate(-77.6161,176.829) rotate(-90) scale(-1,1)">
				<title>直线连接线.25</title>
				<v:userDefs>
					<v:ud v:nameU="visVersion" v:val="VT0(15):26"/>
				</v:userDefs>
				<path d="M0 219.35 L15.54 219.35" class="st10"/>
			</g>
			<g id="shape26-145" v:mID="26" v:groupContext="shape" v:layerMember="0" transform="translate(389.764,-92.126)">
				<title>底部到顶部固定 2.26</title>
				<v:userDefs>
					<v:ud v:nameU="TextPos" v:val="VT0(1):26"/>
					<v:ud v:nameU="Offset" v:val="VT0(0.19685039370079):24"/>
					<v:ud v:nameU="Scale" v:val="VT0(1):26"/>
					<v:ud v:nameU="AntiScale" v:val="VT0(1):26"/>
					<v:ud v:nameU="visVersion" v:val="VT0(15):26"/>
				</v:userDefs>
				<path d="M0 191 L0 202.91 A2.26772 2.26772 -180 0 0 2.27 205.18 L15.45 205.18 A2.26772 2.26772 0 0 1 17.72 207.44
							 L17.72 213.63" class="st10"/>
			</g>
			<g id="shape27-150" v:mID="27" v:groupContext="shape" v:layerMember="0"
					transform="translate(101.243,104.823) rotate(-97.125)">
				<title>曲线连接 2</title>
				<v:userDefs>
					<v:ud v:nameU="visVersion" v:val="VT0(15):26"/>
				</v:userDefs>
				<path d="M57.13 219.35 A35.0153 35.0153 0 0 1 3.68 223.73 L3.45 223.46" class="st12"/>
			</g>
			<g id="shape28-156" v:mID="28" v:groupContext="shape" v:layerMember="0"
					transform="translate(694.152,20.9232) rotate(90)">
				<title>曲线连接 2.28</title>
				<v:userDefs>
					<v:ud v:nameU="visVersion" v:val="VT0(15):26"/>
				</v:userDefs>
				<path d="M-0 219.35 A41.1024 41.1024 0 0 1 52.28 215.7 L52.56 215.93" class="st12"/>
			</g>
		</g>
	</g>
</svg>
