<?xml version="1.0" encoding="UTF-8" standalone="no"?>
<!DOCTYPE svg PUBLIC "-//W3C//DTD SVG 1.1//EN" "http://www.w3.org/Graphics/SVG/1.1/DTD/svg11.dtd">
<!-- 由 Microsoft Visio, SVG Export 生成 aarch64_register_64bit_and_32bit.svg 页-1 -->
<svg xmlns="http://www.w3.org/2000/svg" xmlns:xlink="http://www.w3.org/1999/xlink" xmlns:ev="http://www.w3.org/2001/xml-events"
		xmlns:v="http://schemas.microsoft.com/visio/2003/SVGExtensions/" width="4.03076in" height="1.54722in"
		viewBox="0 0 290.215 111.4" xml:space="preserve" color-interpolation-filters="sRGB" class="st9">
	<v:documentProperties v:langID="2052" v:metric="true" v:viewMarkup="false"/>

	<style type="text/css">
	<![CDATA[
		.st1 {visibility:visible}
		.st2 {fill:#5b9bd5;fill-opacity:0.22;filter:url(#filter_2);stroke:#5b9bd5;stroke-opacity:0.22}
		.st3 {fill:#bfbfbf;stroke:#000000;stroke-width:0.5}
		.st4 {stroke:#000000;stroke-dasharray:3.5,2.5;stroke-linecap:round;stroke-linejoin:round;stroke-width:0.5}
		.st5 {stroke:#000000;stroke-width:0.25}
		.st6 {fill:none;stroke:none;stroke-width:0.25}
		.st7 {fill:#000000;font-family:Times New Roman;font-size:0.916672em}
		.st8 {fill:#000000;font-family:Times New Roman;font-size:0.666664em}
		.st9 {fill:none;fill-rule:evenodd;font-size:12px;overflow:visible;stroke-linecap:square;stroke-miterlimit:3}
	]]>
	</style>

	<defs id="Filters">
		<filter id="filter_2">
			<feGaussianBlur stdDeviation="2"/>
		</filter>
	</defs>
	<g v:mID="0" v:index="1" v:groupContext="foregroundPage">
		<title>页-1</title>
		<v:pageProperties v:drawingScale="0.0393701" v:pageScale="0.0393701" v:drawingUnits="24" v:shadowOffsetX="8.50394"
				v:shadowOffsetY="-8.50394"/>
		<g id="group21-1" transform="translate(1.18687,-26.5823)" v:mID="21" v:groupContext="group">
			<title>工作表.21</title>
			<g id="shape1-2" v:mID="1" v:groupContext="shape" transform="translate(1.84252,-49.1343)">
				<title>矩形</title>
				<v:userDefs>
					<v:ud v:nameU="visVersion" v:val="VT0(15):26"/>
				</v:userDefs>
				<g id="shadow1-3" v:groupContext="shadow" v:shadowOffsetX="0.345598" v:shadowOffsetY="-1.97279" v:shadowType="1"
						transform="matrix(1,0,0,1,0.345598,1.97279)" class="st1">
					<rect x="0" y="90.1398" width="283.465" height="21.2598" class="st2"/>
				</g>
				<rect x="0" y="90.1398" width="283.465" height="21.2598" class="st3"/>
			</g>
			<g id="shape2-7" v:mID="2" v:groupContext="shape" transform="translate(-109.557,41.0055) rotate(-90)">
				<title>工作表.2</title>
				<path d="M0 111.4 L14.17 111.4" class="st4"/>
			</g>
			<g id="shape3-10" v:mID="3" v:groupContext="shape" transform="translate(32.1752,41.0055) rotate(-90)">
				<title>工作表.3</title>
				<path d="M0 111.4 L14.17 111.4" class="st4"/>
			</g>
			<g id="shape4-13" v:mID="4" v:groupContext="shape" transform="translate(173.907,41.0055) rotate(-90)">
				<title>工作表.4</title>
				<path d="M0 111.4 L14.17 111.4" class="st4"/>
			</g>
			<g id="shape6-16" v:mID="6" v:groupContext="shape" transform="translate(67.6083,41.0055) rotate(-90)">
				<title>工作表.6</title>
				<path d="M0 111.4 L14.17 111.4" class="st4"/>
			</g>
			<g id="shape7-19" v:mID="7" v:groupContext="shape" transform="translate(103.041,41.0055) rotate(-90)">
				<title>工作表.7</title>
				<path d="M0 111.4 L14.17 111.4" class="st4"/>
			</g>
			<g id="shape8-22" v:mID="8" v:groupContext="shape" transform="translate(138.474,41.0055) rotate(-90)">
				<title>工作表.8</title>
				<path d="M0 111.4 L14.17 111.4" class="st4"/>
			</g>
			<g id="shape9-25" v:mID="9" v:groupContext="shape" transform="translate(-3.25787,41.0055) rotate(-90)">
				<title>工作表.9</title>
				<path d="M0 111.4 L14.17 111.4" class="st4"/>
			</g>
			<g id="shape10-28" v:mID="10" v:groupContext="shape" transform="translate(-38.6909,41.0055) rotate(-90)">
				<title>工作表.10</title>
				<path d="M0 111.4 L14.17 111.4" class="st4"/>
			</g>
			<g id="shape11-31" v:mID="11" v:groupContext="shape" transform="translate(-74.124,41.0055) rotate(-90)">
				<title>工作表.11</title>
				<path d="M0 111.4 L14.17 111.4" class="st4"/>
			</g>
			<g id="shape12-34" v:mID="12" v:groupContext="shape" transform="translate(285.307,-42.0477) scale(-1,1)">
				<title>侧边大括号</title>
				<v:userDefs>
					<v:ud v:nameU="TxtW" v:val="VT0(0.55555555555556):29"/>
					<v:ud v:nameU="TxtA" v:val="VT0(1.5707963267949):37"/>
					<v:ud v:nameU="TxtAState" v:val="VT0(0):26"/>
					<v:ud v:nameU="TxtWState" v:val="VT0(0):26"/>
					<v:ud v:nameU="MaxRadius" v:val="VT0(0.19685039370079):24"/>
					<v:ud v:nameU="PosCH1" v:prompt="Constrains X postion of Control Handle #1" v:val="VT0(0):26"/>
					<v:ud v:nameU="PosCH2" v:prompt="Constrains Y postion of Control Handle #2" v:val="VT0(0):26"/>
					<v:ud v:nameU="Scale" v:val="VT0(1):26"/>
					<v:ud v:nameU="AntiScale" v:val="VT0(1):26"/>
					<v:ud v:nameU="visVersion" v:val="VT0(15):26"/>
					<v:ud v:nameU="TxtA" v:prompt="" v:val="VT0(-1.5707963267949):32"/>
					<v:ud v:nameU="MaxRadius" v:prompt="" v:val="VT0(0.051181102362205):1"/>
				</v:userDefs>
				<path d="M0 107.71 L0 107.71 A3.68498 3.68498 -180 0 0 3.69 111.4 L67.18 111.4 A3.68498 3.68498 0 0 1 70.87 115.08
							 A3.68498 3.68498 0 0 1 74.55 111.4 L138.05 111.4 A3.68498 3.68498 -180 0 0 141.73 107.71 L141.73 107.71"
						class="st5"/>
			</g>
			<g id="shape13-37" v:mID="13" v:groupContext="shape" transform="translate(201.617,-27.8744)">
				<title>工作表.13</title>
				<desc>Wn</desc>
				<v:textBlock v:margins="rect(4,4,4,4)" v:tabSpace="42.5197"/>
				<v:textRect cx="12.8239" cy="106.392" width="25.65" height="10.0162"/>
				<rect x="0" y="101.383" width="25.6477" height="10.0162" class="st6"/>
				<text x="4.88" y="109.69" class="st7" v:langID="2052"><v:paragraph v:horizAlign="1"/><v:tabList/>Wn</text>			</g>
			<g id="shape14-40" v:mID="14" v:groupContext="shape" transform="translate(285.307,-17.1028) scale(-1,1)">
				<title>侧边大括号.14</title>
				<v:userDefs>
					<v:ud v:nameU="TxtW" v:val="VT0(0.55555555555556):29"/>
					<v:ud v:nameU="TxtA" v:val="VT0(1.5707963267949):37"/>
					<v:ud v:nameU="TxtAState" v:val="VT0(0):26"/>
					<v:ud v:nameU="TxtWState" v:val="VT0(0):26"/>
					<v:ud v:nameU="MaxRadius" v:val="VT0(0.19685039370079):24"/>
					<v:ud v:nameU="PosCH1" v:prompt="Constrains X postion of Control Handle #1" v:val="VT0(0):26"/>
					<v:ud v:nameU="PosCH2" v:prompt="Constrains Y postion of Control Handle #2" v:val="VT0(0):26"/>
					<v:ud v:nameU="Scale" v:val="VT0(1):26"/>
					<v:ud v:nameU="AntiScale" v:val="VT0(1):26"/>
					<v:ud v:nameU="visVersion" v:val="VT0(15):26"/>
					<v:ud v:nameU="TxtA" v:prompt="" v:val="VT0(-1.5707963267949):32"/>
					<v:ud v:nameU="MaxRadius" v:prompt="" v:val="VT0(0.051181102362205):1"/>
				</v:userDefs>
				<path d="M0 107.71 L0 107.71 A3.68498 3.68498 -180 0 0 3.69 111.4 L138.05 111.4 A3.68498 3.68498 0 0 1 141.73 115.08
							 A3.68498 3.68498 0 0 1 145.42 111.4 L279.78 111.4 A3.68498 3.68498 -180 0 0 283.46 107.71 L283.46 107.71"
						class="st5"/>
			</g>
			<g id="shape15-43" v:mID="15" v:groupContext="shape" transform="translate(130.751,0)">
				<title>工作表.15</title>
				<desc>Xn</desc>
				<v:textBlock v:margins="rect(4,4,4,4)" v:tabSpace="42.5197"/>
				<v:textRect cx="12.8239" cy="106.392" width="25.65" height="10.0162"/>
				<rect x="0" y="101.383" width="25.6477" height="10.0162" class="st6"/>
				<text x="6.1" y="109.69" class="st7" v:langID="2052"><v:paragraph v:horizAlign="1"/><v:tabList/>Xn</text>			</g>
			<g id="shape16-46" v:mID="16" v:groupContext="shape" transform="translate(275.953,-72.4726)">
				<title>工作表.16</title>
				<desc>0</desc>
				<v:textBlock v:margins="rect(4,4,4,4)" v:tabSpace="42.5197"/>
				<v:textRect cx="4.67717" cy="106.392" width="9.36" height="10.0162"/>
				<rect x="0" y="101.383" width="9.35433" height="10.0162" class="st6"/>
				<text x="4" y="108.79" class="st8" v:langID="2052"><v:paragraph v:horizAlign="1"/><v:tabList/>0</text>			</g>
			<g id="shape17-49" v:mID="17" v:groupContext="shape" transform="translate(141.732,-72.4726)">
				<title>工作表.17</title>
				<desc>31</desc>
				<v:textBlock v:margins="rect(4,4,4,4)" v:tabSpace="42.5197"/>
				<v:textRect cx="8.00787" cy="106.392" width="16.02" height="10.0162"/>
				<rect x="0" y="101.383" width="16.0157" height="10.0162" class="st6"/>
				<text x="4.01" y="108.79" class="st8" v:langID="2052"><v:paragraph v:horizAlign="1"/><v:tabList/>31</text>			</g>
			<g id="shape18-52" v:mID="18" v:groupContext="shape" transform="translate(129.402,-72.4726)">
				<title>工作表.18</title>
				<desc>32</desc>
				<v:textBlock v:margins="rect(4,4,4,4)" v:tabSpace="42.5197"/>
				<v:textRect cx="8.00787" cy="106.392" width="16.02" height="10.0162"/>
				<rect x="0" y="101.383" width="16.0157" height="10.0162" class="st6"/>
				<text x="4.01" y="108.79" class="st8" v:langID="2052"><v:paragraph v:horizAlign="1"/><v:tabList/>32</text>			</g>
			<g id="shape19-55" v:mID="19" v:groupContext="shape" transform="translate(2.89768E-014,-72.4726)">
				<title>工作表.19</title>
				<desc>63</desc>
				<v:textBlock v:margins="rect(4,4,4,4)" v:tabSpace="42.5197"/>
				<v:textRect cx="8.00787" cy="106.392" width="16.02" height="10.0162"/>
				<rect x="0" y="101.383" width="16.0157" height="10.0162" class="st6"/>
				<text x="4.01" y="108.79" class="st8" v:langID="2052"><v:paragraph v:horizAlign="1"/><v:tabList/>63</text>			</g>
		</g>
	</g>
</svg>
